<svg id="Abstract_Shape" data-name="Abstract Shape" xmlns="http://www.w3.org/2000/svg" viewBox="0 0 1500 1500"><rect x="301.8" y="301.8" width="32.4" height="32.4"/><rect x="337.8" y="301.8" width="32.4" height="32.4"/><rect x="373.8" y="301.8" width="32.4" height="32.4"/><rect x="409.8" y="301.8" width="32.4" height="32.4"/><rect x="445.8" y="301.8" width="32.4" height="32.4"/><rect x="481.8" y="301.8" width="32.4" height="32.4"/><rect x="517.8" y="301.8" width="32.4" height="32.4"/><rect x="553.8" y="301.8" width="32.4" height="32.4"/><rect x="589.8" y="301.8" width="32.4" height="32.4"/><rect x="625.8" y="301.8" width="32.4" height="32.4"/><rect x="661.8" y="301.8" width="32.4" height="32.4"/><rect x="697.8" y="301.8" width="32.4" height="32.4"/><rect x="733.8" y="301.8" width="32.4" height="32.4"/><rect x="769.8" y="301.8" width="32.4" height="32.4"/><rect x="805.8" y="301.8" width="32.4" height="32.4"/><rect x="841.8" y="301.8" width="32.4" height="32.4"/><rect x="877.8" y="301.8" width="32.4" height="32.4"/><rect x="913.8" y="301.8" width="32.4" height="32.4"/><rect x="949.8" y="301.8" width="32.4" height="32.4"/><rect x="985.8" y="301.8" width="32.4" height="32.4"/><rect x="1021.8" y="301.8" width="32.4" height="32.4"/><rect x="1057.8" y="301.8" width="32.4" height="32.4"/><rect x="1093.8" y="301.8" width="32.4" height="32.4"/><rect x="1129.8" y="301.8" width="32.4" height="32.4"/><rect x="1165.8" y="301.8" width="32.4" height="32.4"/><rect x="301.8" y="337.8" width="32.4" height="32.4"/><rect x="337.8" y="337.8" width="32.4" height="32.4"/><rect x="373.8" y="337.8" width="32.4" height="32.4"/><rect x="409.8" y="337.8" width="32.4" height="32.4"/><rect x="445.8" y="337.8" width="32.4" height="32.4"/><rect x="481.8" y="337.8" width="32.4" height="32.4"/><rect x="517.8" y="337.8" width="32.4" height="32.4"/><rect x="553.8" y="337.8" width="32.4" height="32.4"/><rect x="589.8" y="337.8" width="32.4" height="32.4"/><rect x="625.8" y="337.8" width="32.4" height="32.4"/><rect x="661.8" y="337.8" width="32.4" height="32.4"/><rect x="697.8" y="337.8" width="32.4" height="32.4"/><rect x="733.8" y="337.8" width="32.4" height="32.4"/><rect x="769.8" y="337.8" width="32.4" height="32.4"/><rect x="805.8" y="337.8" width="32.4" height="32.4"/><rect x="841.8" y="337.8" width="32.4" height="32.4"/><rect x="877.8" y="337.8" width="32.4" height="32.4"/><rect x="913.8" y="337.8" width="32.4" height="32.4"/><rect x="949.8" y="337.8" width="32.4" height="32.4"/><rect x="985.8" y="337.8" width="32.4" height="32.4"/><rect x="1021.8" y="337.8" width="32.4" height="32.4"/><rect x="1057.8" y="337.8" width="32.4" height="32.4"/><rect x="1093.8" y="337.8" width="32.4" height="32.4"/><rect x="1129.8" y="337.8" width="32.4" height="32.4"/><rect x="1165.8" y="337.8" width="32.4" height="32.4"/><rect x="301.8" y="373.8" width="32.4" height="32.4"/><rect x="337.8" y="373.8" width="32.4" height="32.4"/><rect x="373.8" y="373.8" width="32.4" height="32.4"/><rect x="445.8" y="373.8" width="32.4" height="32.4"/><rect x="481.8" y="373.8" width="32.4" height="32.4"/><rect x="517.8" y="373.8" width="32.4" height="32.4"/><rect x="589.8" y="373.8" width="32.4" height="32.4"/><rect x="625.8" y="373.8" width="32.4" height="32.4"/><rect x="661.8" y="373.8" width="32.4" height="32.4"/><rect x="733.8" y="373.8" width="32.4" height="32.4"/><rect x="769.8" y="373.8" width="32.4" height="32.4"/><rect x="805.8" y="373.8" width="32.4" height="32.4"/><rect x="877.8" y="373.8" width="32.4" height="32.4"/><rect x="913.8" y="373.8" width="32.4" height="32.4"/><rect x="949.8" y="373.8" width="32.4" height="32.4"/><rect x="1021.8" y="373.8" width="32.4" height="32.4"/><rect x="1057.8" y="373.8" width="32.4" height="32.4"/><rect x="1093.8" y="373.8" width="32.4" height="32.4"/><rect x="1165.8" y="373.8" width="32.4" height="32.4"/><rect x="301.8" y="409.8" width="32.4" height="32.4"/><rect x="337.8" y="409.8" width="32.4" height="32.4"/><rect x="373.8" y="409.8" width="32.4" height="32.4"/><rect x="409.8" y="409.8" width="32.4" height="32.4"/><rect x="445.8" y="409.8" width="32.4" height="32.4"/><rect x="481.8" y="409.8" width="32.4" height="32.4"/><rect x="517.8" y="409.8" width="32.4" height="32.4"/><rect x="553.8" y="409.8" width="32.4" height="32.4"/><rect x="589.8" y="409.8" width="32.4" height="32.4"/><rect x="625.8" y="409.8" width="32.4" height="32.4"/><rect x="661.8" y="409.8" width="32.4" height="32.4"/><rect x="697.8" y="409.8" width="32.4" height="32.4"/><rect x="733.8" y="409.8" width="32.4" height="32.4"/><rect x="769.8" y="409.8" width="32.4" height="32.4"/><rect x="805.8" y="409.8" width="32.4" height="32.4"/><rect x="841.8" y="409.8" width="32.4" height="32.4"/><rect x="877.8" y="409.8" width="32.4" height="32.4"/><rect x="913.8" y="409.8" width="32.4" height="32.4"/><rect x="949.8" y="409.8" width="32.4" height="32.4"/><rect x="985.8" y="409.8" width="32.4" height="32.4"/><rect x="1021.8" y="409.8" width="32.4" height="32.4"/><rect x="1057.8" y="409.8" width="32.4" height="32.4"/><rect x="1093.8" y="409.8" width="32.4" height="32.4"/><rect x="1129.8" y="409.8" width="32.4" height="32.4"/><rect x="1165.8" y="409.8" width="32.4" height="32.4"/><rect x="301.8" y="445.8" width="32.4" height="32.4"/><rect x="373.8" y="445.8" width="32.4" height="32.4"/><rect x="409.8" y="445.8" width="32.4" height="32.4"/><rect x="445.8" y="445.8" width="32.4" height="32.4"/><rect x="517.8" y="445.8" width="32.4" height="32.4"/><rect x="589.8" y="445.8" width="32.4" height="32.4"/><rect x="661.8" y="445.8" width="32.4" height="32.4"/><rect x="697.8" y="445.8" width="32.4" height="32.4"/><rect x="733.8" y="445.8" width="32.4" height="32.4"/><rect x="805.8" y="445.8" width="32.4" height="32.4"/><rect x="877.8" y="445.8" width="32.4" height="32.4"/><rect x="949.8" y="445.8" width="32.4" height="32.4"/><rect x="985.8" y="445.8" width="32.4" height="32.4"/><rect x="1021.8" y="445.8" width="32.4" height="32.4"/><rect x="1093.8" y="445.8" width="32.4" height="32.4"/><rect x="1165.8" y="445.8" width="32.4" height="32.4"/><rect x="301.8" y="481.8" width="32.4" height="32.4"/><rect x="337.8" y="481.8" width="32.4" height="32.4"/><rect x="373.8" y="481.8" width="32.4" height="32.4"/><rect x="409.8" y="481.8" width="32.4" height="32.4"/><rect x="445.8" y="481.8" width="32.4" height="32.4"/><rect x="481.8" y="481.8" width="32.4" height="32.4"/><rect x="517.8" y="481.8" width="32.4" height="32.4"/><rect x="553.8" y="481.8" width="32.4" height="32.4"/><rect x="589.8" y="481.8" width="32.4" height="32.4"/><rect x="625.8" y="481.8" width="32.4" height="32.4"/><rect x="661.8" y="481.8" width="32.4" height="32.4"/><rect x="697.8" y="481.8" width="32.4" height="32.4"/><rect x="733.8" y="481.8" width="32.4" height="32.4"/><rect x="769.8" y="481.8" width="32.4" height="32.4"/><rect x="805.8" y="481.8" width="32.4" height="32.4"/><rect x="841.8" y="481.8" width="32.4" height="32.4"/><rect x="877.8" y="481.8" width="32.4" height="32.4"/><rect x="913.8" y="481.8" width="32.4" height="32.4"/><rect x="949.8" y="481.8" width="32.4" height="32.4"/><rect x="985.8" y="481.8" width="32.4" height="32.4"/><rect x="1021.8" y="481.8" width="32.4" height="32.4"/><rect x="1057.8" y="481.8" width="32.4" height="32.4"/><rect x="1093.8" y="481.8" width="32.4" height="32.4"/><rect x="1129.8" y="481.8" width="32.4" height="32.4"/><rect x="1165.8" y="481.8" width="32.4" height="32.4"/><rect x="301.8" y="517.8" width="32.4" height="32.4"/><rect x="373.8" y="517.8" width="32.4" height="32.4"/><rect x="445.8" y="517.8" width="32.4" height="32.4"/><rect x="517.8" y="517.8" width="32.4" height="32.4"/><rect x="589.8" y="517.8" width="32.4" height="32.4"/><rect x="661.8" y="517.8" width="32.4" height="32.4"/><rect x="733.8" y="517.8" width="32.4" height="32.4"/><rect x="805.8" y="517.8" width="32.4" height="32.4"/><rect x="877.8" y="517.8" width="32.4" height="32.4"/><rect x="949.8" y="517.8" width="32.4" height="32.4"/><rect x="1021.8" y="517.8" width="32.4" height="32.4"/><rect x="1093.8" y="517.8" width="32.4" height="32.4"/><rect x="1165.8" y="517.8" width="32.4" height="32.4"/><rect x="301.8" y="553.8" width="32.4" height="32.4"/><rect x="337.8" y="553.8" width="32.4" height="32.4"/><rect x="373.8" y="553.8" width="32.4" height="32.4"/><rect x="409.8" y="553.8" width="32.4" height="32.4"/><rect x="445.8" y="553.8" width="32.4" height="32.4"/><rect x="481.8" y="553.8" width="32.4" height="32.4"/><rect x="517.8" y="553.8" width="32.4" height="32.4"/><rect x="553.8" y="553.8" width="32.4" height="32.4"/><rect x="589.8" y="553.8" width="32.4" height="32.4"/><rect x="625.8" y="553.8" width="32.4" height="32.4"/><rect x="661.8" y="553.8" width="32.4" height="32.4"/><rect x="697.8" y="553.8" width="32.4" height="32.4"/><rect x="733.8" y="553.8" width="32.4" height="32.4"/><rect x="769.8" y="553.8" width="32.4" height="32.4"/><rect x="805.8" y="553.8" width="32.4" height="32.4"/><rect x="841.8" y="553.8" width="32.4" height="32.4"/><rect x="877.8" y="553.8" width="32.4" height="32.4"/><rect x="913.8" y="553.8" width="32.4" height="32.4"/><rect x="949.8" y="553.8" width="32.4" height="32.4"/><rect x="985.8" y="553.8" width="32.4" height="32.4"/><rect x="1021.8" y="553.8" width="32.4" height="32.4"/><rect x="1057.8" y="553.8" width="32.4" height="32.4"/><rect x="1093.8" y="553.8" width="32.4" height="32.4"/><rect x="1129.8" y="553.8" width="32.4" height="32.4"/><rect x="1165.8" y="553.8" width="32.4" height="32.4"/><rect x="301.8" y="589.8" width="32.4" height="32.4"/><rect x="373.8" y="589.8" width="32.4" height="32.4"/><rect x="445.8" y="589.8" width="32.4" height="32.4"/><rect x="517.8" y="589.8" width="32.4" height="32.4"/><rect x="589.8" y="589.8" width="32.4" height="32.4"/><rect x="661.8" y="589.8" width="32.4" height="32.4"/><rect x="733.8" y="589.8" width="32.4" height="32.4"/><rect x="805.8" y="589.8" width="32.4" height="32.4"/><rect x="877.8" y="589.8" width="32.4" height="32.4"/><rect x="949.8" y="589.8" width="32.4" height="32.4"/><rect x="1021.8" y="589.8" width="32.4" height="32.4"/><rect x="1093.8" y="589.8" width="32.4" height="32.4"/><rect x="1165.8" y="589.8" width="32.4" height="32.4"/><rect x="301.8" y="625.8" width="32.4" height="32.4"/><rect x="337.8" y="625.8" width="32.4" height="32.4"/><rect x="409.8" y="625.8" width="32.4" height="32.4"/><rect x="445.8" y="625.8" width="32.4" height="32.4"/><rect x="481.8" y="625.8" width="32.4" height="32.4"/><rect x="553.8" y="625.8" width="32.4" height="32.4"/><rect x="589.8" y="625.8" width="32.4" height="32.4"/><rect x="625.8" y="625.8" width="32.4" height="32.4"/><rect x="697.8" y="625.8" width="32.4" height="32.4"/><rect x="733.8" y="625.8" width="32.4" height="32.4"/><rect x="769.8" y="625.8" width="32.4" height="32.4"/><rect x="841.8" y="625.8" width="32.4" height="32.4"/><rect x="877.8" y="625.8" width="32.4" height="32.4"/><rect x="913.8" y="625.8" width="32.4" height="32.4"/><rect x="985.8" y="625.8" width="32.4" height="32.4"/><rect x="1021.8" y="625.8" width="32.4" height="32.4"/><rect x="1057.8" y="625.8" width="32.4" height="32.4"/><rect x="1129.8" y="625.8" width="32.4" height="32.4"/><rect x="1165.8" y="625.8" width="32.4" height="32.4"/><rect x="301.8" y="661.8" width="32.4" height="32.4"/><rect x="373.8" y="661.8" width="32.4" height="32.4"/><rect x="445.8" y="661.8" width="32.4" height="32.4"/><rect x="517.8" y="661.8" width="32.4" height="32.4"/><rect x="589.8" y="661.8" width="32.4" height="32.4"/><rect x="661.8" y="661.8" width="32.4" height="32.4"/><rect x="733.8" y="661.8" width="32.4" height="32.4"/><rect x="805.8" y="661.8" width="32.4" height="32.4"/><rect x="877.8" y="661.8" width="32.4" height="32.4"/><rect x="949.8" y="661.8" width="32.4" height="32.4"/><rect x="1021.8" y="661.8" width="32.4" height="32.4"/><rect x="1093.8" y="661.8" width="32.4" height="32.4"/><rect x="1165.8" y="661.8" width="32.4" height="32.4"/><rect x="337.8" y="697.8" width="32.4" height="32.4"/><rect x="409.8" y="697.8" width="32.4" height="32.4"/><rect x="481.8" y="697.8" width="32.4" height="32.4"/><rect x="553.8" y="697.8" width="32.4" height="32.4"/><rect x="625.8" y="697.8" width="32.4" height="32.4"/><rect x="697.8" y="697.8" width="32.4" height="32.4"/><rect x="769.8" y="697.8" width="32.4" height="32.4"/><rect x="841.8" y="697.8" width="32.4" height="32.4"/><rect x="913.8" y="697.8" width="32.4" height="32.4"/><rect x="985.8" y="697.8" width="32.4" height="32.4"/><rect x="1057.8" y="697.8" width="32.4" height="32.4"/><rect x="1129.8" y="697.8" width="32.4" height="32.4"/><rect x="301.8" y="733.8" width="32.4" height="32.4"/><rect x="373.8" y="733.8" width="32.4" height="32.4"/><rect x="445.8" y="733.8" width="32.4" height="32.4"/><rect x="517.8" y="733.8" width="32.4" height="32.4"/><rect x="589.8" y="733.8" width="32.4" height="32.4"/><rect x="661.8" y="733.8" width="32.4" height="32.4"/><rect x="733.8" y="733.8" width="32.4" height="32.4"/><rect x="805.8" y="733.8" width="32.4" height="32.4"/><rect x="877.8" y="733.8" width="32.4" height="32.4"/><rect x="949.8" y="733.8" width="32.4" height="32.4"/><rect x="1021.8" y="733.8" width="32.4" height="32.4"/><rect x="1093.8" y="733.8" width="32.4" height="32.4"/><rect x="1165.8" y="733.8" width="32.4" height="32.4"/><rect x="337.8" y="769.8" width="32.4" height="32.4"/><rect x="409.8" y="769.8" width="32.4" height="32.4"/><rect x="481.8" y="769.8" width="32.4" height="32.4"/><rect x="625.8" y="769.8" width="32.4" height="32.4"/><rect x="697.8" y="769.8" width="32.4" height="32.4"/><rect x="769.8" y="769.8" width="32.4" height="32.4"/><rect x="913.8" y="769.8" width="32.4" height="32.4"/><rect x="985.8" y="769.8" width="32.4" height="32.4"/><rect x="1057.8" y="769.8" width="32.4" height="32.4"/><rect x="301.8" y="805.8" width="32.4" height="32.4"/><rect x="373.8" y="805.8" width="32.4" height="32.4"/><rect x="445.8" y="805.8" width="32.4" height="32.4"/><rect x="517.8" y="805.8" width="32.4" height="32.4"/><rect x="589.8" y="805.8" width="32.4" height="32.4"/><rect x="661.8" y="805.8" width="32.4" height="32.4"/><rect x="733.8" y="805.8" width="32.4" height="32.4"/><rect x="805.8" y="805.8" width="32.4" height="32.4"/><rect x="877.8" y="805.8" width="32.4" height="32.4"/><rect x="949.8" y="805.8" width="32.4" height="32.4"/><rect x="1021.8" y="805.8" width="32.4" height="32.4"/><rect x="1093.8" y="805.8" width="32.4" height="32.4"/><rect x="1165.8" y="805.8" width="32.4" height="32.4"/><rect x="409.8" y="841.8" width="32.4" height="32.4"/><rect x="553.8" y="841.8" width="32.4" height="32.4"/><rect x="697.8" y="841.8" width="32.4" height="32.4"/><rect x="769.8" y="841.8" width="32.4" height="32.4"/><rect x="841.8" y="841.8" width="32.4" height="32.4"/><rect x="985.8" y="841.8" width="32.4" height="32.4"/><rect x="1129.8" y="841.8" width="32.4" height="32.4"/><rect x="301.8" y="877.8" width="32.4" height="32.4"/><rect x="373.8" y="877.8" width="32.4" height="32.4"/><rect x="445.8" y="877.8" width="32.4" height="32.4"/><rect x="517.8" y="877.8" width="32.4" height="32.4"/><rect x="589.8" y="877.8" width="32.4" height="32.4"/><rect x="661.8" y="877.8" width="32.4" height="32.4"/><rect x="733.8" y="877.8" width="32.4" height="32.4"/><rect x="805.8" y="877.8" width="32.4" height="32.4"/><rect x="877.8" y="877.8" width="32.4" height="32.4"/><rect x="949.8" y="877.8" width="32.4" height="32.4"/><rect x="1021.8" y="877.8" width="32.4" height="32.4"/><rect x="1093.8" y="877.8" width="32.4" height="32.4"/><rect x="1165.8" y="877.8" width="32.4" height="32.4"/><rect x="337.8" y="913.8" width="32.4" height="32.4"/><rect x="481.8" y="913.8" width="32.4" height="32.4"/><rect x="625.8" y="913.8" width="32.4" height="32.4"/><rect x="769.8" y="913.8" width="32.4" height="32.4"/><rect x="913.8" y="913.8" width="32.4" height="32.4"/><rect x="1057.8" y="913.8" width="32.4" height="32.4"/><rect x="301.8" y="949.8" width="32.4" height="32.4"/><rect x="373.8" y="949.8" width="32.4" height="32.4"/><rect x="445.8" y="949.8" width="32.4" height="32.4"/><rect x="517.8" y="949.8" width="32.4" height="32.4"/><rect x="589.8" y="949.8" width="32.4" height="32.4"/><rect x="661.8" y="949.8" width="32.4" height="32.4"/><rect x="733.8" y="949.8" width="32.4" height="32.4"/><rect x="805.8" y="949.8" width="32.4" height="32.4"/><rect x="877.8" y="949.8" width="32.4" height="32.4"/><rect x="949.8" y="949.8" width="32.4" height="32.4"/><rect x="1021.8" y="949.8" width="32.4" height="32.4"/><rect x="1093.8" y="949.8" width="32.4" height="32.4"/><rect x="1165.8" y="949.8" width="32.4" height="32.4"/><rect x="301.8" y="1021.8" width="32.4" height="32.4"/><rect x="373.8" y="1021.8" width="32.4" height="32.4"/><rect x="445.8" y="1021.8" width="32.4" height="32.4"/><rect x="589.8" y="1021.8" width="32.4" height="32.4"/><rect x="661.8" y="1021.8" width="32.4" height="32.4"/><rect x="733.8" y="1021.8" width="32.4" height="32.4"/><rect x="877.8" y="1021.8" width="32.4" height="32.4"/><rect x="949.8" y="1021.8" width="32.4" height="32.4"/><rect x="1021.8" y="1021.8" width="32.4" height="32.4"/><rect x="1165.8" y="1021.8" width="32.4" height="32.4"/><rect x="373.8" y="1093.8" width="32.4" height="32.4"/><rect x="517.8" y="1093.8" width="32.4" height="32.4"/><rect x="661.8" y="1093.8" width="32.4" height="32.4"/><rect x="805.8" y="1093.8" width="32.4" height="32.4"/><rect x="949.8" y="1093.8" width="32.4" height="32.4"/><rect x="1093.8" y="1093.8" width="32.4" height="32.4"/><rect x="301.8" y="1165.8" width="32.4" height="32.4"/><rect x="589.8" y="1165.8" width="32.4" height="32.4"/><rect x="877.8" y="1165.8" width="32.4" height="32.4"/><rect x="1165.8" y="1165.8" width="32.4" height="32.4"/></svg>