<svg id="Abstract_Shape" data-name="Abstract Shape" xmlns="http://www.w3.org/2000/svg" viewBox="0 0 1500 1500"><polygon points="858.8 765.24 1250 782.25 859.85 748.86 1249.22 707.37 858.46 732.5 1237.29 633.44 854.64 716.53 1214.48 562.11 848.48 701.31 1181.28 494.98 840.12 687.17 1138.46 433.55 829.75 674.44 1086.96 379.19 817.6 663.4 1027.93 333.11 803.94 654.29 962.69 296.34 789.07 647.32 892.7 269.71 773.33 642.65 819.52 253.81 757.07 640.37 744.79 248.99 740.65 640.54 670.18 255.36 724.44 643.15 597.35 272.78 708.8 648.16 527.93 300.86 694.08 655.43 463.47 338.98 680.61 664.83 405.41 386.27 668.69 676.12 355.05 441.7 658.59 689.06 313.51 504 650.53 703.37 281.72 571.81 644.69 718.71 260.39 643.59 641.2 734.76 250 717.75 640.15 751.14 250.78 792.63 641.54 767.5 262.71 866.56 645.36 783.47 285.52 937.89 651.52 798.69 318.72 1005.02 659.88 812.83 361.54 1066.45 670.25 825.56 413.04 1120.81 682.4 836.6 472.07 1166.89 696.06 845.71 537.31 1203.66 710.93 852.68 607.3 1230.29 726.67 857.35 680.48 1246.19 742.93 859.63 755.21 1251.01 759.35 859.46 829.82 1244.64 775.56 856.85 902.65 1227.22 791.2 851.84 972.07 1199.14 805.92 844.57 1036.53 1161.02 819.39 835.17 1094.59 1113.72 831.31 823.88 1144.95 1058.3 841.41 810.94 1186.49 996 849.47 796.63 1218.28 928.19 855.31 781.29 1239.61 856.41 858.8 765.24"/></svg>