<svg id="Abstract_Shape" data-name="Abstract Shape" xmlns="http://www.w3.org/2000/svg" viewBox="0 0 1500 1500"><path d="M1063.29,393.28a4.79,4.79,0,1,0,4.79-4.78A4.78,4.78,0,0,0,1063.29,393.28Z"/><path d="M1059,404.93a4.45,4.45,0,1,0,4.45,4.45A4.45,4.45,0,0,0,1059,404.93Z"/><circle cx="1040.01" cy="407.14" r="4.25"/><path d="M1041.73,388.51a4.59,4.59,0,1,0,4.58-4.59A4.58,4.58,0,0,0,1041.73,388.51Z"/><path d="M1038.24,368.27a4.87,4.87,0,1,0,4.87-4.87A4.87,4.87,0,0,0,1038.24,368.27Z"/><path d="M1058.21,374.5a5,5,0,1,0,5-5A5,5,0,0,0,1058.21,374.5Z"/><circle cx="1057.32" cy="357.6" r="4.95"/><path d="M1041.09,354.15A5.14,5.14,0,1,0,1036,349,5.14,5.14,0,0,0,1041.09,354.15Z"/><path d="M1024.5,362.45a4.8,4.8,0,1,0-4.8-4.8A4.8,4.8,0,0,0,1024.5,362.45Z"/><path d="M1025.07,341.51a5.16,5.16,0,1,0-5.15-5.15A5.16,5.16,0,0,0,1025.07,341.51Z"/><path d="M1008.29,331.75a5.1,5.1,0,1,0-5.1-5.1A5.1,5.1,0,0,0,1008.29,331.75Z"/><path d="M1007.44,351.7a4.8,4.8,0,1,0-4.8-4.8A4.8,4.8,0,0,0,1007.44,351.7Z"/><circle cx="989.78" cy="357.56" r="4.47"/><path d="M971.76,343.27a4.43,4.43,0,1,0,4.43,4.43A4.43,4.43,0,0,0,971.76,343.27Z"/><path d="M953.65,334.12a4.44,4.44,0,1,0,4.44,4.43A4.43,4.43,0,0,0,953.65,334.12Z"/><path d="M953.78,323.08a4.75,4.75,0,1,0-4.75-4.75A4.75,4.75,0,0,0,953.78,323.08Z"/><circle cx="972.04" cy="327.03" r="4.77"/><path d="M994.67,336.18a4.81,4.81,0,1,0-4.81,4.8A4.8,4.8,0,0,0,994.67,336.18Z"/><circle cx="989.88" cy="315.57" r="5.15"/><path d="M972.14,312.13A5.14,5.14,0,1,0,967,307,5.14,5.14,0,0,0,972.14,312.13Z"/><path d="M954.92,303.89a5.14,5.14,0,1,0-5.14-5.13A5.14,5.14,0,0,0,954.92,303.89Z"/><circle cx="938.45" cy="291.4" r="5.12"/><path d="M922.54,289.09a5.17,5.17,0,1,0-5.17-5.17A5.18,5.18,0,0,0,922.54,289.09Z"/><path d="M935.57,314.48a4.77,4.77,0,1,0-4.77-4.77A4.77,4.77,0,0,0,935.57,314.48Z"/><path d="M935,333.9a4.44,4.44,0,1,0-4.44-4.43A4.43,4.43,0,0,0,935,333.9Z"/><circle cx="916.07" cy="338.66" r="4.17"/><path d="M898.36,345.65a3.87,3.87,0,1,0,3.86,3.87A3.86,3.86,0,0,0,898.36,345.65Z"/><circle cx="897.31" cy="325.83" r="4.25"/><path d="M878.71,310.87A4.33,4.33,0,1,0,883,315.2,4.33,4.33,0,0,0,878.71,310.87Z"/><path d="M858.82,302.07a4.38,4.38,0,1,0,4.39,4.38A4.38,4.38,0,0,0,858.82,302.07Z"/><path d="M837.46,306.14a4.39,4.39,0,1,0-4.39-4.38A4.38,4.38,0,0,0,837.46,306.14Z"/><circle cx="845.91" cy="283.97" r="4.75"/><path d="M859.09,286.74a4.75,4.75,0,1,0,4.75-4.75A4.75,4.75,0,0,0,859.09,286.74Z"/><path d="M876.31,293.7A4.72,4.72,0,1,0,881,289,4.72,4.72,0,0,0,876.31,293.7Z"/><path d="M893.38,303.22a4.67,4.67,0,1,0,4.67-4.67A4.67,4.67,0,0,0,893.38,303.22Z"/><path d="M916.06,322.84a4.47,4.47,0,1,0-4.46-4.47A4.47,4.47,0,0,0,916.06,322.84Z"/><path d="M917.52,304.74a4.82,4.82,0,1,0-4.82-4.82A4.81,4.81,0,0,0,917.52,304.74Z"/><circle cx="905.29" cy="281.88" r="5.09"/><path d="M890.33,280.52a5.12,5.12,0,1,0-5.12-5.12A5.12,5.12,0,0,0,890.33,280.52Z"/><path d="M874.38,275.25a5.12,5.12,0,1,0-5.12-5.12A5.12,5.12,0,0,0,874.38,275.25Z"/><path d="M857.12,271.59a5.12,5.12,0,1,0-5.12-5.12A5.12,5.12,0,0,0,857.12,271.59Z"/><path d="M839.55,268.19a5.14,5.14,0,1,0-5.13-5.14A5.14,5.14,0,0,0,839.55,268.19Z"/><path d="M821.82,264.86a5.12,5.12,0,1,0-5.12-5.12A5.12,5.12,0,0,0,821.82,264.86Z"/><path d="M804.09,263a5.12,5.12,0,1,0-5.12-5.12A5.12,5.12,0,0,0,804.09,263Z"/><path d="M788.06,260.71a5.12,5.12,0,1,0-5.12-5.12A5.12,5.12,0,0,0,788.06,260.71Z"/><path d="M772.69,260.89a5.12,5.12,0,1,0-5.12-5.12A5.12,5.12,0,0,0,772.69,260.89Z"/><circle cx="754.24" cy="255.23" r="5.1"/><circle cx="734.42" cy="255.1" r="5.1"/><path d="M715.05,261.18a5.12,5.12,0,1,0-5.12-5.12A5.12,5.12,0,0,0,715.05,261.18Z"/><path d="M696.9,262.66a5.12,5.12,0,1,0-5.12-5.12A5.12,5.12,0,0,0,696.9,262.66Z"/><path d="M699.21,275a4.77,4.77,0,1,0,4.77-4.77A4.78,4.78,0,0,0,699.21,275Z"/><path d="M724.68,279.31a4.75,4.75,0,1,0-4.75-4.75A4.75,4.75,0,0,0,724.68,279.31Z"/><circle cx="745.32" cy="274.28" r="4.73"/><path d="M765.6,279.92a4.74,4.74,0,1,0-4.74-4.73A4.73,4.73,0,0,0,765.6,279.92Z"/><circle cx="786.26" cy="274.99" r="4.75"/><path d="M790.91,294.05a4.42,4.42,0,1,0,4.42-4.41A4.42,4.42,0,0,0,790.91,294.05Z"/><circle cx="807.28" cy="276.89" r="4.75" transform="translate(-11.72 36.87) rotate(-2.6)"/><path d="M822.6,279.55a4.77,4.77,0,1,0,4.77-4.77A4.77,4.77,0,0,0,822.6,279.55Z"/><path d="M817.15,300.75a4.44,4.44,0,1,0-4.44-4.44A4.43,4.43,0,0,0,817.15,300.75Z"/><path d="M804,308a4.1,4.1,0,1,0,4.1,4.1A4.09,4.09,0,0,0,804,308Z"/><circle cx="822.39" cy="318.63" r="4.05"/><circle cx="841.99" cy="323.15" r="4.03"/><path d="M861.27,325.6a4,4,0,1,0,4,4A4,4,0,0,0,861.27,325.6Z"/><path d="M880.2,335.31a3.91,3.91,0,1,0,3.91,3.91A3.92,3.92,0,0,0,880.2,335.31Z"/><path d="M862.72,349.54a3.65,3.65,0,1,0,3.64,3.64A3.64,3.64,0,0,0,862.72,349.54Z"/><path d="M883.14,361.56a3.55,3.55,0,1,0,3.54,3.55A3.55,3.55,0,0,0,883.14,361.56Z"/><path d="M865,373.06a3.31,3.31,0,1,0,3.31,3.31A3.31,3.31,0,0,0,865,373.06Z"/><path d="M846.65,390.82a3,3,0,1,0,3,3A3,3,0,0,0,846.65,390.82Z"/><path d="M823.47,385.59a3,3,0,1,0,3,3A3,3,0,0,0,823.47,385.59Z"/><circle cx="800.54" cy="381.73" r="3.03"/><path d="M781.47,398.65a2.76,2.76,0,1,0,2.76,2.76A2.77,2.77,0,0,0,781.47,398.65Z"/><circle cx="761.29" cy="390.01" r="2.88"/><path d="M737,400.1a2.71,2.71,0,1,0,2.71,2.7A2.7,2.7,0,0,0,737,400.1Z"/><path d="M714.29,404.78a2.71,2.71,0,1,0-2.71,2.71A2.71,2.71,0,0,0,714.29,404.78Z"/><path d="M684.09,401.24a2.85,2.85,0,1,0-2.84-2.84A2.85,2.85,0,0,0,684.09,401.24Z"/><circle cx="698.27" cy="380.09" r="3.06"/><circle cx="687.97" cy="359.53" r="3.38"/><circle cx="710.96" cy="356.87" r="3.36"/><circle cx="722.11" cy="379.38" r="3.03"/><path d="M744.34,378.6a3.08,3.08,0,1,0-3.08-3.08A3.08,3.08,0,0,0,744.34,378.6Z"/><path d="M737.94,353.92a3.38,3.38,0,1,0-3.37,3.38A3.37,3.37,0,0,0,737.94,353.92Z"/><path d="M757.29,359a3.32,3.32,0,1,0,3.32-3.31A3.32,3.32,0,0,0,757.29,359Z"/><circle cx="755.05" cy="336.86" r="3.68"/><path d="M774.72,341.08a3.58,3.58,0,1,0,3.58-3.58A3.58,3.58,0,0,0,774.72,341.08Z"/><path d="M782.31,371.42a3.15,3.15,0,1,0-3.14,3.14A3.15,3.15,0,0,0,782.31,371.42Z"/><path d="M794.6,355.7a3.42,3.42,0,1,0,3.41-3.41A3.41,3.41,0,0,0,794.6,355.7Z"/><circle cx="820.28" cy="363.42" r="3.34"/><path d="M845.84,369.35a3.32,3.32,0,1,0-3.32,3.31A3.32,3.32,0,0,0,845.84,369.35Z"/><path d="M842,342.31a3.67,3.67,0,1,0,3.67,3.67A3.66,3.66,0,0,0,842,342.31Z"/><path d="M821.15,344.16a3.7,3.7,0,1,0-3.7-3.69A3.69,3.69,0,0,0,821.15,344.16Z"/><path d="M797,333.11a3.75,3.75,0,1,0,3.74-3.74A3.75,3.75,0,0,0,797,333.11Z"/><path d="M784.84,320.9a4,4,0,1,0-4-4A4,4,0,0,0,784.84,320.9Z"/><path d="M771.26,295.55a4.35,4.35,0,1,0,4.35-4.35A4.35,4.35,0,0,0,771.26,295.55Z"/><circle cx="755.68" cy="294.58" r="4.38"/><path d="M735.07,298.07a4.39,4.39,0,1,0-4.38-4.38A4.38,4.38,0,0,0,735.07,298.07Z"/><circle cx="721.64" cy="312.96" r="4.06"/><path d="M748.7,313.34a4,4,0,1,0-4.05,4.05A4,4,0,0,0,748.7,313.34Z"/><path d="M765.39,313.06a4,4,0,1,0,4,4A4,4,0,0,0,765.39,313.06Z"/><path d="M734.25,335.5a3.75,3.75,0,1,0-3.75-3.75A3.74,3.74,0,0,0,734.25,335.5Z"/><path d="M713.65,338a3.73,3.73,0,1,0-3.73-3.73A3.73,3.73,0,0,0,713.65,338Z"/><path d="M692.61,340.94a3.7,3.7,0,1,0-3.69-3.7A3.7,3.7,0,0,0,692.61,340.94Z"/><path d="M671,349.14a3.62,3.62,0,1,0-3.61-3.62A3.62,3.62,0,0,0,671,349.14Z"/><path d="M651.61,349.07a3.6,3.6,0,1,0,3.59,3.59A3.6,3.6,0,0,0,651.61,349.07Z"/><path d="M629.68,354a3.62,3.62,0,1,0,3.61,3.62A3.62,3.62,0,0,0,629.68,354Z"/><path d="M605.62,363a3.63,3.63,0,1,0,3.63-3.62A3.62,3.62,0,0,0,605.62,363Z"/><path d="M583.45,364.27a3.72,3.72,0,1,0,3.71-3.72A3.71,3.71,0,0,0,583.45,364.27Z"/><circle cx="578.93" cy="383.88" r="3.5"/><path d="M598.42,385.8a3.33,3.33,0,1,0,3.33-3.32A3.33,3.33,0,0,0,598.42,385.8Z"/><path d="M625.49,388.28a3.25,3.25,0,1,0-3.24-3.25A3.24,3.24,0,0,0,625.49,388.28Z"/><circle cx="646.6" cy="375.42" r="3.26"/><path d="M670.52,371.57a3.19,3.19,0,1,0,3.19,3.19A3.19,3.19,0,0,0,670.52,371.57Z"/><path d="M655.11,395a2.93,2.93,0,1,0,2.92,2.93A2.93,2.93,0,0,0,655.11,395Z"/><path d="M674.1,418.45a2.63,2.63,0,1,0-2.63,2.62A2.63,2.63,0,0,0,674.1,418.45Z"/><path d="M674.43,447.33a2.32,2.32,0,1,0-2.32-2.32A2.32,2.32,0,0,0,674.43,447.33Z"/><path d="M674.46,474.39a2,2,0,1,0,2-2A2,2,0,0,0,674.46,474.39Z"/><path d="M648.34,490.71a2,2,0,1,0-2-2A2,2,0,0,0,648.34,490.71Z"/><circle cx="647.46" cy="457.14" r="2.27"/><path d="M648.18,426.33a2.59,2.59,0,1,0,2.59,2.59A2.59,2.59,0,0,0,648.18,426.33Z"/><circle cx="632.33" cy="409.68" r="2.88"/><path d="M608.62,407a3,3,0,1,0,3,3A3,3,0,0,0,608.62,407Z"/><path d="M583.48,402a3.19,3.19,0,1,0,3.2,3.19A3.19,3.19,0,0,0,583.48,402Z"/><path d="M572.87,422.33a3,3,0,1,0,3,3A3,3,0,0,0,572.87,422.33Z"/><path d="M596,429a2.78,2.78,0,1,0,2.78,2.78A2.78,2.78,0,0,0,596,429Z"/><path d="M621.72,436.32a2.58,2.58,0,1,0,2.57,2.57A2.58,2.58,0,0,0,621.72,436.32Z"/><path d="M624,470.88a2.26,2.26,0,1,0-2.26,2.26A2.26,2.26,0,0,0,624,470.88Z"/><path d="M597,456.92a2.47,2.47,0,1,0,2.47,2.47A2.47,2.47,0,0,0,597,456.92Z"/><path d="M575.46,449.61a2.73,2.73,0,1,0-2.73,2.73A2.72,2.72,0,0,0,575.46,449.61Z"/><path d="M550.9,458.45a2.81,2.81,0,1,0-2.81,2.81A2.81,2.81,0,0,0,550.9,458.45Z"/><circle cx="524.3" cy="465.48" r="2.91"/><path d="M498,466a3.11,3.11,0,1,0,3.11-3.11A3.11,3.11,0,0,0,498,466Z"/><path d="M478.12,459.08a3.38,3.38,0,1,0,3.37,3.38A3.38,3.38,0,0,0,478.12,459.08Z"/><path d="M502.8,442.45a3.33,3.33,0,1,0,3.33-3.33A3.33,3.33,0,0,0,502.8,442.45Z"/><path d="M524.92,439.43a3.2,3.2,0,1,0,3.2-3.19A3.19,3.19,0,0,0,524.92,439.43Z"/><path d="M550.49,429.87a3.08,3.08,0,1,0,3.08,3.07A3.07,3.07,0,0,0,550.49,429.87Z"/><path d="M553.22,408.7a3.33,3.33,0,1,0,3.32-3.32A3.33,3.33,0,0,0,553.22,408.7Z"/><path d="M554.61,387.88a3.6,3.6,0,1,0,3.6-3.6A3.6,3.6,0,0,0,554.61,387.88Z"/><path d="M563.82,362.78a3.87,3.87,0,1,0,3.86,3.86A3.86,3.86,0,0,0,563.82,362.78Z"/><circle cx="571.56" cy="347.26" r="4.13"/><path d="M593.5,347.57a4,4,0,1,0-4-4A4,4,0,0,0,593.5,347.57Z"/><path d="M613.9,334.45a4,4,0,1,0,4,4A4,4,0,0,0,613.9,334.45Z"/><path d="M634.28,329.68a4,4,0,1,0,4,4A4,4,0,0,0,634.28,329.68Z"/><path d="M655,332.12a4,4,0,1,0-4-4A4,4,0,0,0,655,332.12Z"/><path d="M676.25,325.63a4,4,0,1,0-4-4A4,4,0,0,0,676.25,325.63Z"/><path d="M698.73,310.62a4.07,4.07,0,1,0,4.07,4.07A4.07,4.07,0,0,0,698.73,310.62Z"/><circle cx="714.56" cy="293.87" r="4.4"/><path d="M695.51,298.39a4.43,4.43,0,1,0-4.44-4.43A4.43,4.43,0,0,0,695.51,298.39Z"/><circle cx="677.7" cy="300.15" r="4.37"/><circle cx="658.26" cy="305.66" r="4.32"/><path d="M638.39,315.45a4.33,4.33,0,1,0-4.33-4.33A4.33,4.33,0,0,0,638.39,315.45Z"/><path d="M613.17,314.82a4.37,4.37,0,1,0,4.37-4.37A4.37,4.37,0,0,0,613.17,314.82Z"/><path d="M593.3,321.81a4.37,4.37,0,1,0,4.37-4.36A4.37,4.37,0,0,0,593.3,321.81Z"/><path d="M577.51,331.58a4.38,4.38,0,1,0-4.39-4.38A4.38,4.38,0,0,0,577.51,331.58Z"/><path d="M600,301.41a4.71,4.71,0,1,0-4.71,4.7A4.71,4.71,0,0,0,600,301.41Z"/><path d="M610.37,298.75A4.77,4.77,0,1,0,605.6,294,4.76,4.76,0,0,0,610.37,298.75Z"/><circle cx="627.41" cy="292.43" r="4.72"/><path d="M644.92,292.53a4.72,4.72,0,1,0-4.71-4.72A4.72,4.72,0,0,0,644.92,292.53Z"/><path d="M663.42,278.54a4.72,4.72,0,1,0,4.71,4.72A4.72,4.72,0,0,0,663.42,278.54Z"/><path d="M678,277.56a4.79,4.79,0,1,0,4.78-4.79A4.78,4.78,0,0,0,678,277.56Z"/><path d="M679.36,263.89a5.16,5.16,0,1,0-5.15-5.15A5.15,5.15,0,0,0,679.36,263.89Z"/><path d="M662.78,267.92a5.12,5.12,0,1,0-5.12-5.12A5.12,5.12,0,0,0,662.78,267.92Z"/><circle cx="646.17" cy="266.31" r="5.1"/><path d="M629.54,275.5a5.1,5.1,0,1,0-5.1-5.1A5.1,5.1,0,0,0,629.54,275.5Z"/><circle cx="612.51" cy="273.79" r="5.15"/><path d="M595.58,284.09a5.12,5.12,0,1,0-5.12-5.12A5.12,5.12,0,0,0,595.58,284.09Z"/><circle cx="579.56" cy="285.44" r="5.12"/><path d="M563.17,296.26a5.12,5.12,0,1,0-5.12-5.12A5.12,5.12,0,0,0,563.17,296.26Z"/><path d="M547.08,302.44a5.14,5.14,0,1,0-5.14-5.14A5.14,5.14,0,0,0,547.08,302.44Z"/><circle cx="578.46" cy="306.66" r="4.75"/><path d="M560.71,317.25a4.77,4.77,0,1,0-4.77-4.77A4.77,4.77,0,0,0,560.71,317.25Z"/><path d="M556.6,336.55a4.49,4.49,0,1,0-4.48-4.49A4.49,4.49,0,0,0,556.6,336.55Z"/><path d="M549,346.54a4.23,4.23,0,1,0,4.23,4.23A4.23,4.23,0,0,0,549,346.54Z"/><path d="M528,358.45a4.35,4.35,0,1,0-4.35-4.35A4.35,4.35,0,0,0,528,358.45Z"/><circle cx="508.48" cy="357.3" r="4.48" transform="translate(-15.67 23.41) rotate(-2.6)"/><circle cx="520.03" cy="375.22" r="4.08"/><path d="M541.73,367.24a4,4,0,1,0,4,4A4,4,0,0,0,541.73,367.24Z"/><circle cx="536.31" cy="392.64" r="3.71"/><circle cx="533.06" cy="414.71" r="3.43"/><path d="M507.91,418.6a3.58,3.58,0,1,0,3.58-3.58A3.58,3.58,0,0,0,507.91,418.6Z"/><path d="M486.82,421.26a3.73,3.73,0,1,0,3.73-3.73A3.73,3.73,0,0,0,486.82,421.26Z"/><path d="M483.56,439a3.55,3.55,0,1,0,3.55,3.54A3.55,3.55,0,0,0,483.56,439Z"/><path d="M459.27,445.18a3.73,3.73,0,1,0,3.73,3.73A3.73,3.73,0,0,0,459.27,445.18Z"/><path d="M460.66,471.39a3.45,3.45,0,1,0,3.45,3.44A3.44,3.44,0,0,0,460.66,471.39Z"/><path d="M486.05,481.67a3.08,3.08,0,1,0,3.08,3.08A3.08,3.08,0,0,0,486.05,481.67Z"/><path d="M461,498.56a3.15,3.15,0,1,0,3.14-3.14A3.15,3.15,0,0,0,461,498.56Z"/><path d="M464.41,526.5a2.93,2.93,0,1,0-2.93-2.93A2.93,2.93,0,0,0,464.41,526.5Z"/><path d="M489,505.24a2.83,2.83,0,1,0,2.83,2.82A2.82,2.82,0,0,0,489,505.24Z"/><path d="M514,489.34a2.74,2.74,0,1,0,2.74,2.74A2.73,2.73,0,0,0,514,489.34Z"/><path d="M509.93,521.28a2.51,2.51,0,1,0,2.5-2.51A2.51,2.51,0,0,0,509.93,521.28Z"/><path d="M536.46,513.29A2.34,2.34,0,1,0,538.8,511,2.34,2.34,0,0,0,536.46,513.29Z"/><circle cx="542.62" cy="486.15" r="2.57"/><path d="M569.55,473.55A2.48,2.48,0,1,0,572,476,2.48,2.48,0,0,0,569.55,473.55Z"/><path d="M592.12,489.45a2.21,2.21,0,1,0,2.21-2.2A2.21,2.21,0,0,0,592.12,489.45Z"/><path d="M617.6,502.64a2,2,0,1,0,1.95-2A1.95,1.95,0,0,0,617.6,502.64Z"/><path d="M641.92,521.37a1.74,1.74,0,1,0,1.73,1.74A1.74,1.74,0,0,0,641.92,521.37Z"/><path d="M596.51,522.85a1.91,1.91,0,1,0,1.91,1.9A1.9,1.9,0,0,0,596.51,522.85Z"/><circle cx="568.47" cy="505.17" r="2.21"/><path d="M562.76,536.71a2,2,0,1,0-2-2A2,2,0,0,0,562.76,536.71Z"/><path d="M588.94,559.1a1.73,1.73,0,1,0-1.73,1.72A1.72,1.72,0,0,0,588.94,559.1Z"/><path d="M623.33,549.76a1.6,1.6,0,1,0,1.6,1.6A1.61,1.61,0,0,0,623.33,549.76Z"/><path d="M615.27,591.14a1.44,1.44,0,1,0-1.43,1.43A1.44,1.44,0,0,0,615.27,591.14Z"/><circle cx="577.14" cy="594.3" r="1.59"/><circle cx="542.34" cy="595" r="1.79"/><path d="M553.21,565.6a1.88,1.88,0,1,0-1.87,1.87A1.87,1.87,0,0,0,553.21,565.6Z"/><path d="M530.92,542a2.17,2.17,0,1,0,2.18,2.17A2.17,2.17,0,0,0,530.92,542Z"/><path d="M490,533.92a2.63,2.63,0,1,0-2.62,2.62A2.62,2.62,0,0,0,490,533.92Z"/><path d="M503.22,555a2.34,2.34,0,1,0-2.34-2.34A2.34,2.34,0,0,0,503.22,555Z"/><path d="M515.57,576.68a2.07,2.07,0,1,0,2.07,2.07A2.07,2.07,0,0,0,515.57,576.68Z"/><path d="M517.76,612.11a1.87,1.87,0,1,0,1.87,1.87A1.87,1.87,0,0,0,517.76,612.11Z"/><circle cx="493.35" cy="635.43" r="1.99"/><path d="M488,605a2.19,2.19,0,1,0-2.19-2.19A2.19,2.19,0,0,0,488,605Z"/><path d="M486.22,574.13a2.37,2.37,0,1,0-2.37,2.38A2.37,2.37,0,0,0,486.22,574.13Z"/><path d="M469.42,550.62a2.71,2.71,0,1,0-2.71,2.71A2.7,2.7,0,0,0,469.42,550.62Z"/><path d="M453.85,575.75a2.64,2.64,0,1,0,2.64-2.64A2.64,2.64,0,0,0,453.85,575.75Z"/><path d="M436.16,559.28a2.93,2.93,0,1,0,2.93-2.93A2.93,2.93,0,0,0,436.16,559.28Z"/><circle cx="416.42" cy="544.56" r="3.33"/><path d="M418.56,525.47a3.48,3.48,0,1,0-3.47-3.48A3.48,3.48,0,0,0,418.56,525.47Z"/><path d="M419.46,503.33a3.67,3.67,0,1,0-3.66-3.67A3.66,3.66,0,0,0,419.46,503.33Z"/><path d="M444.64,535.67a3.1,3.1,0,1,0-3.09,3.09A3.09,3.09,0,0,0,444.64,535.67Z"/><path d="M441.44,508.33a3.3,3.3,0,1,0,3.29,3.3A3.3,3.3,0,0,0,441.44,508.33Z"/><path d="M441.41,484.78a3.51,3.51,0,1,0,3.51,3.51A3.51,3.51,0,0,0,441.41,484.78Z"/><path d="M440.87,460.26a3.78,3.78,0,1,0,3.78,3.78A3.78,3.78,0,0,0,440.87,460.26Z"/><path d="M421.69,473.93a3.85,3.85,0,1,0,3.85,3.84A3.85,3.85,0,0,0,421.69,473.93Z"/><path d="M403.06,464.76a4.22,4.22,0,1,0,4.21,4.21A4.22,4.22,0,0,0,403.06,464.76Z"/><path d="M401,442.42a4.49,4.49,0,1,0,4.48,4.48A4.49,4.49,0,0,0,401,442.42Z"/><path d="M397.42,432.21a4.79,4.79,0,1,0-4.78-4.79A4.78,4.78,0,0,0,397.42,432.21Z"/><circle cx="420.07" cy="455.46" r="4.13"/><path d="M436.43,438.25a4.07,4.07,0,1,0,4.07,4.06A4.06,4.06,0,0,0,436.43,438.25Z"/><path d="M412.64,433.35a4.45,4.45,0,1,0,4.45-4.45A4.45,4.45,0,0,0,412.64,433.35Z"/><path d="M412,407.67a4.77,4.77,0,1,0,4.77,4.77A4.78,4.78,0,0,0,412,407.67Z"/><circle cx="427.91" cy="398.76" r="4.75"/><circle cx="431.76" cy="419.11" r="4.42"/><path d="M445.4,407.23a4.39,4.39,0,1,0,4.39-4.38A4.39,4.39,0,0,0,445.4,407.23Z"/><path d="M449.93,424a4.1,4.1,0,1,0,4.1,4.1A4.11,4.11,0,0,0,449.93,424Z"/><path d="M464.77,426.07a3.92,3.92,0,1,0,3.92-3.92A3.91,3.91,0,0,0,464.77,426.07Z"/><circle cx="473.34" cy="405.99" r="4.13"/><path d="M494.09,394.84a4,4,0,1,0,4,4A4,4,0,0,0,494.09,394.84Z"/><circle cx="514.38" cy="395.75" r="3.83"/><path d="M497.44,380a4.3,4.3,0,1,0-4.3-4.3A4.29,4.29,0,0,0,497.44,380Z"/><path d="M478.57,379.11a4.37,4.37,0,1,0,4.36,4.36A4.36,4.36,0,0,0,478.57,379.11Z"/><circle cx="460.62" cy="390.91" r="4.48" transform="translate(-17.24 21.27) rotate(-2.6)"/><path d="M457,367.27a4.8,4.8,0,1,0,4.8,4.8A4.8,4.8,0,0,0,457,367.27Z"/><circle cx="474.25" cy="363.93" r="4.73" transform="translate(-43.47 662.81) rotate(-67.5)"/><path d="M483.73,354.08a4.72,4.72,0,1,0,4.72-4.71A4.72,4.72,0,0,0,483.73,354.08Z"/><circle cx="499.6" cy="339.49" r="4.83"/><circle cx="516.77" cy="335.25" r="4.73"/><path d="M535,329.61a4.62,4.62,0,1,0,4.61,4.62A4.62,4.62,0,0,0,535,329.61Z"/><path d="M541.45,322.4a4.84,4.84,0,1,0-4.84-4.83A4.83,4.83,0,0,0,541.45,322.4Z"/><path d="M530.53,309.2a5.16,5.16,0,1,0-5.16-5.16A5.16,5.16,0,0,0,530.53,309.2Z"/><circle cx="518.2" cy="314.65" r="5.09"/><path d="M501.91,325a5.16,5.16,0,1,0-5.15-5.16A5.15,5.15,0,0,0,501.91,325Z"/><circle cx="484.39" cy="330.03" r="5.15"/><circle cx="470.53" cy="341.74" r="5.12"/><path d="M456.13,356.25a5.14,5.14,0,1,0-5.13-5.13A5.14,5.14,0,0,0,456.13,356.25Z"/><path d="M440,366.64a5.16,5.16,0,1,0-5.16-5.15A5.16,5.16,0,0,0,440,366.64Z"/><path d="M437.5,385.28a4.76,4.76,0,1,0,4.76-4.75A4.75,4.75,0,0,0,437.5,385.28Z"/><path d="M427.14,380.16A5.12,5.12,0,1,0,422,375,5.12,5.12,0,0,0,427.14,380.16Z"/><circle cx="411.37" cy="385.96" r="5.15"/><circle cx="401.91" cy="397.07" r="5.15"/><path d="M388.7,412.11a5.16,5.16,0,1,0-5.16-5.15A5.16,5.16,0,0,0,388.7,412.11Z"/><circle cx="379.04" cy="422.14" r="5.15"/><path d="M365.44,437.24a5.14,5.14,0,1,0-5.14-5.13A5.14,5.14,0,0,0,365.44,437.24Z"/><circle cx="380.14" cy="442.75" r="4.85"/><path d="M386.25,455.92a4.56,4.56,0,1,0,4.55,4.55A4.55,4.55,0,0,0,386.25,455.92Z"/><path d="M362.54,462.25a4.8,4.8,0,1,0,4.8-4.8A4.8,4.8,0,0,0,362.54,462.25Z"/><path d="M357.86,452.92a5.15,5.15,0,1,0-5.15-5.15A5.16,5.16,0,0,0,357.86,452.92Z"/><circle cx="345.54" cy="461.11" r="5.17"/><circle cx="358.68" cy="479.8" r="4.73"/><circle cx="351.82" cy="497.74" r="4.68" transform="translate(-9.15 6.6) rotate(-1.06)"/><path d="M351.35,519.69a4.4,4.4,0,1,0,4.4-4.4A4.4,4.4,0,0,0,351.35,519.69Z"/><path d="M344.31,540.31a4.34,4.34,0,1,0,4.34-4.33A4.33,4.33,0,0,0,344.31,540.31Z"/><path d="M368.46,539.52a4,4,0,1,0,4-4A4,4,0,0,0,368.46,539.52Z"/><path d="M372.62,518.67a4.1,4.1,0,1,0,4.1-4.09A4.1,4.1,0,0,0,372.62,518.67Z"/><path d="M369.91,498.61a4.3,4.3,0,1,0,4.3-4.3A4.29,4.29,0,0,0,369.91,498.61Z"/><path d="M380.67,475a4.44,4.44,0,1,0,4.43,4.43A4.43,4.43,0,0,0,380.67,475Z"/><circle cx="398.95" cy="489.4" r="4.05"/><path d="M393.14,509.85A3.88,3.88,0,1,0,397,506,3.88,3.88,0,0,0,393.14,509.85Z"/><circle cx="395.6" cy="532.7" r="3.7"/><path d="M388.25,556a3.58,3.58,0,1,0,3.58-3.58A3.57,3.57,0,0,0,388.25,556Z"/><path d="M416.11,570.3a3.18,3.18,0,1,0-3.18-3.18A3.17,3.17,0,0,0,416.11,570.3Z"/><path d="M400.37,584.91a3.26,3.26,0,1,0-3.26-3.26A3.26,3.26,0,0,0,400.37,584.91Z"/><path d="M406.89,601.66a3,3,0,1,0,3,3A3,3,0,0,0,406.89,601.66Z"/><path d="M409.7,626.8a2.89,2.89,0,1,0,2.89,2.89A2.89,2.89,0,0,0,409.7,626.8Z"/><path d="M433.38,612.31a2.68,2.68,0,1,0,2.68,2.68A2.68,2.68,0,0,0,433.38,612.31Z"/><path d="M430,590.92a2.84,2.84,0,1,0-2.84-2.84A2.84,2.84,0,0,0,430,590.92Z"/><path d="M460.32,600a2.47,2.47,0,1,0-2.47,2.48A2.48,2.48,0,0,0,460.32,600Z"/><path d="M465.86,626.3a2.29,2.29,0,1,0-2.29,2.29A2.29,2.29,0,0,0,465.86,626.3Z"/><path d="M438.42,644.27a2.49,2.49,0,1,0-2.49-2.49A2.5,2.5,0,0,0,438.42,644.27Z"/><path d="M439.66,669.91a2.38,2.38,0,1,0,2.38-2.38A2.37,2.37,0,0,0,439.66,669.91Z"/><path d="M438.66,697.77a2.31,2.31,0,1,0,2.3-2.31A2.3,2.3,0,0,0,438.66,697.77Z"/><path d="M472.07,691.05a2,2,0,1,0-2-2A2,2,0,0,0,472.07,691.05Z"/><path d="M468.18,658.55a2.14,2.14,0,1,0-2.14-2.14A2.13,2.13,0,0,0,468.18,658.55Z"/><path d="M501.47,668.51a1.82,1.82,0,1,0-1.82,1.82A1.83,1.83,0,0,0,501.47,668.51Z"/><path d="M526,648a1.67,1.67,0,1,0,1.67-1.67A1.67,1.67,0,0,0,526,648Z"/><path d="M558.5,626.54a1.56,1.56,0,1,0-1.56,1.56A1.56,1.56,0,0,0,558.5,626.54Z"/><path d="M565.13,665.33a1.39,1.39,0,1,0,1.38-1.39A1.38,1.38,0,0,0,565.13,665.33Z"/><path d="M603.09,689.63a1.19,1.19,0,1,0,1.18-1.18A1.18,1.18,0,0,0,603.09,689.63Z"/><circle cx="599.6" cy="634.26" r="1.32"/><path d="M649.25,631.42a1.19,1.19,0,1,0-1.18-1.18A1.18,1.18,0,0,0,649.25,631.42Z"/><path d="M651.74,582.49a1.34,1.34,0,1,0,1.33-1.34A1.34,1.34,0,0,0,651.74,582.49Z"/><path d="M667.55,548.27a1.49,1.49,0,1,0,1.48-1.48A1.49,1.49,0,0,0,667.55,548.27Z"/><path d="M701.21,588.69a1.24,1.24,0,1,0-1.24-1.23A1.23,1.23,0,0,0,701.21,588.69Z"/><path d="M756.05,592.76a1.19,1.19,0,1,0-1.18-1.18A1.18,1.18,0,0,0,756.05,592.76Z"/><path d="M813.93,601.91a1.2,1.2,0,1,0,0-2.4,1.2,1.2,0,1,0,0,2.4Z"/><path d="M861.67,589.19a1.36,1.36,0,1,0-1.35,1.35A1.36,1.36,0,0,0,861.67,589.19Z"/><path d="M901.28,574.71a1.57,1.57,0,1,0,1.57-1.57A1.58,1.58,0,0,0,901.28,574.71Z"/><path d="M876,551a1.59,1.59,0,1,0-1.59,1.59A1.59,1.59,0,0,0,876,551Z"/><path d="M891,518.78a1.89,1.89,0,1,0-1.89,1.89A1.89,1.89,0,0,0,891,518.78Z"/><path d="M871,492.69a2,2,0,1,0,2-2A2,2,0,0,0,871,492.69Z"/><path d="M884.49,465.26a2.33,2.33,0,1,0,2.32-2.32A2.32,2.32,0,0,0,884.49,465.26Z"/><path d="M873,441.7a2.52,2.52,0,1,0-2.52,2.53A2.52,2.52,0,0,0,873,441.7Z"/><path d="M856,468.68a2.21,2.21,0,1,0-2.21-2.2A2.2,2.2,0,0,0,856,468.68Z"/><path d="M840.09,495.33a1.9,1.9,0,1,0-1.91-1.9A1.9,1.9,0,0,0,840.09,495.33Z"/><path d="M852.36,524.38a1.71,1.71,0,1,0-1.7-1.7A1.7,1.7,0,0,0,852.36,524.38Z"/><path d="M834.1,556a1.44,1.44,0,1,0-1.44,1.44A1.44,1.44,0,0,0,834.1,556Z"/><path d="M812.19,523.06a1.61,1.61,0,1,0-1.6-1.61A1.61,1.61,0,0,0,812.19,523.06Z"/><path d="M789.92,556.34a1.37,1.37,0,1,0-1.37,1.37A1.37,1.37,0,0,0,789.92,556.34Z"/><path d="M770.32,522a1.56,1.56,0,1,0-1.56,1.55A1.55,1.55,0,0,0,770.32,522Z"/><path d="M738.41,550a1.39,1.39,0,1,0,1.39-1.38A1.39,1.39,0,0,0,738.41,550Z"/><path d="M706.1,534.25a1.51,1.51,0,0,0-3,0,1.51,1.51,0,1,0,3,0Z"/><path d="M675.57,511.47a1.72,1.72,0,1,0-1.72-1.72A1.72,1.72,0,0,0,675.57,511.47Z"/><circle cx="704.95" cy="491.08" r="1.82"/><path d="M734.24,505.68a1.67,1.67,0,1,0,1.67,1.67A1.67,1.67,0,0,0,734.24,505.68Z"/><circle cx="784.99" cy="494.25" r="1.77"/><path d="M760,481.47a1.89,1.89,0,1,0-1.89,1.89A1.88,1.88,0,0,0,760,481.47Z"/><path d="M757.29,451a2.19,2.19,0,1,0-2.19-2.19A2.19,2.19,0,0,0,757.29,451Z"/><path d="M730.43,465.41a2,2,0,1,0,2,2A2,2,0,0,0,730.43,465.41Z"/><path d="M703.48,453.42a2.16,2.16,0,1,0,2.16,2.15A2.15,2.15,0,0,0,703.48,453.42Z"/><path d="M698.52,424.28a2.48,2.48,0,1,0,2.48,2.47A2.48,2.48,0,0,0,698.52,424.28Z"/><path d="M726.48,432.85a2.38,2.38,0,1,0,2.37-2.38A2.37,2.37,0,0,0,726.48,432.85Z"/><path d="M754.86,418.92a2.51,2.51,0,1,0,2.5-2.5A2.5,2.5,0,0,0,754.86,418.92Z"/><path d="M783,427.89a2.41,2.41,0,1,0,2.41,2.41A2.4,2.4,0,0,0,783,427.89Z"/><path d="M804.88,406.52a2.68,2.68,0,1,0,2.67,2.68A2.68,2.68,0,0,0,804.88,406.52Z"/><circle cx="830.11" cy="414.89" r="2.66"/><path d="M808.48,437a2.37,2.37,0,1,0,2.37-2.37A2.38,2.38,0,0,0,808.48,437Z"/><circle cx="788.45" cy="460.41" r="2.11"/><circle cx="811.28" cy="485.34" r="1.9"/><path d="M825,459.63a2.14,2.14,0,1,0,2.14,2.14A2.14,2.14,0,0,0,825,459.63Z"/><path d="M839.29,439.87a2.41,2.41,0,1,0,2.4-2.4A2.4,2.4,0,0,0,839.29,439.87Z"/><circle cx="856.81" cy="418.16" r="2.72"/><circle cx="870.32" cy="397.73" r="3.03"/><path d="M887.91,390.84a3.25,3.25,0,1,0,3.25-3.24A3.25,3.25,0,0,0,887.91,390.84Z"/><circle cx="904.08" cy="373.52" r="3.55"/><path d="M917.86,356.06a3.85,3.85,0,1,0,3.85,3.85A3.84,3.84,0,0,0,917.86,356.06Z"/><path d="M935.2,346.34a4.1,4.1,0,1,0,4.1,4.1A4.09,4.09,0,0,0,935.2,346.34Z"/><path d="M952.64,363.36a4.1,4.1,0,1,0-4.1-4.1A4.1,4.1,0,0,0,952.64,363.36Z"/><path d="M933.06,378.35a3.72,3.72,0,1,0-3.72-3.72A3.72,3.72,0,0,0,933.06,378.35Z"/><path d="M918.45,387.53a3.4,3.4,0,1,0,3.39,3.4A3.4,3.4,0,0,0,918.45,387.53Z"/><circle cx="905.08" cy="412.49" r="3.01"/><path d="M885.81,417.83a2.85,2.85,0,1,0-2.85,2.84A2.86,2.86,0,0,0,885.81,417.83Z"/><path d="M897.78,442.09a2.68,2.68,0,1,0-2.68-2.68A2.67,2.67,0,0,0,897.78,442.09Z"/><path d="M922,432.87a2.83,2.83,0,1,0,2.82,2.83A2.83,2.83,0,0,0,922,432.87Z"/><path d="M941.45,450.28a2.78,2.78,0,1,0,2.78,2.77A2.77,2.77,0,0,0,941.45,450.28Z"/><path d="M963.47,468.42a2.81,2.81,0,1,0-2.81-2.81A2.81,2.81,0,0,0,963.47,468.42Z"/><path d="M968.39,492a2.61,2.61,0,1,0-2.6-2.61A2.61,2.61,0,0,0,968.39,492Z"/><path d="M945.56,505.44a2.32,2.32,0,1,0,2.32-2.33A2.32,2.32,0,0,0,945.56,505.44Z"/><path d="M934.45,480.94a2.46,2.46,0,1,0,2.45-2.45A2.46,2.46,0,0,0,934.45,480.94Z"/><path d="M915.53,464.53A2.53,2.53,0,1,0,913,462,2.52,2.52,0,0,0,915.53,464.53Z"/><path d="M907.29,488.41a2.21,2.21,0,1,0-2.21,2.21A2.21,2.21,0,0,0,907.29,488.41Z"/><circle cx="920.91" cy="511.44" r="2.09"/><path d="M912.9,544.77a1.82,1.82,0,1,0-1.82-1.82A1.82,1.82,0,0,0,912.9,544.77Z"/><path d="M942.25,534.05a2.06,2.06,0,1,0,2-2A2.05,2.05,0,0,0,942.25,534.05Z"/><path d="M974.13,544.6a2.17,2.17,0,1,0-2.17,2.17A2.17,2.17,0,0,0,974.13,544.6Z"/><circle cx="973.05" cy="516.79" r="2.42"/><path d="M996.71,524.74a2.56,2.56,0,1,0,2.56-2.56A2.56,2.56,0,0,0,996.71,524.74Z"/><path d="M992.19,498.23a2.76,2.76,0,1,0,2.76-2.76A2.77,2.77,0,0,0,992.19,498.23Z"/><path d="M989.78,470.43a2.95,2.95,0,1,0,2.94,2.95A2.95,2.95,0,0,0,989.78,470.43Z"/><path d="M985.66,446.5a3.18,3.18,0,1,0,3.18,3.17A3.17,3.17,0,0,0,985.66,446.5Z"/><path d="M964.38,436.67a3.08,3.08,0,1,0,3.07,3.08A3.08,3.08,0,0,0,964.38,436.67Z"/><path d="M984.12,428.32a3.47,3.47,0,1,0-3.46-3.46A3.46,3.46,0,0,0,984.12,428.32Z"/><path d="M964.18,416.62a3.41,3.41,0,1,0-3.42-3.41A3.41,3.41,0,0,0,964.18,416.62Z"/><path d="M945.24,423.22a3.11,3.11,0,1,0,3.11,3.11A3.12,3.12,0,0,0,945.24,423.22Z"/><path d="M927.39,409.06a3.18,3.18,0,1,0,3.18,3.17A3.18,3.18,0,0,0,927.39,409.06Z"/><circle cx="944.1" cy="398.82" r="3.46"/><path d="M952.63,375.89a3.78,3.78,0,1,0,3.78,3.78A3.78,3.78,0,0,0,952.63,375.89Z"/><path d="M968.54,395.05a3.76,3.76,0,1,0-3.77-3.76A3.76,3.76,0,0,0,968.54,395.05Z"/><path d="M986.22,405.52a3.78,3.78,0,1,0-3.78-3.78A3.78,3.78,0,0,0,986.22,405.52Z"/><path d="M971.29,372.79a4.1,4.1,0,1,0-4.1-4.1A4.1,4.1,0,0,0,971.29,372.79Z"/><circle cx="988.27" cy="379.27" r="4.08"/><path d="M1005.8,393.43a4.1,4.1,0,1,0-4.09-4.1A4.1,4.1,0,0,0,1005.8,393.43Z"/><path d="M1007.26,363.93a4.44,4.44,0,1,0,4.43,4.44A4.43,4.43,0,0,0,1007.26,363.93Z"/><path d="M1025.9,374.08a4.52,4.52,0,1,0,4.52,4.52A4.52,4.52,0,0,0,1025.9,374.08Z"/><circle cx="1023.56" cy="398.25" r="4.18"/><path d="M1027.41,420.92a3.87,3.87,0,1,0-3.86,3.87A3.86,3.86,0,0,0,1027.41,420.92Z"/><path d="M1004.54,415.48a3.82,3.82,0,1,0-3.82-3.81A3.82,3.82,0,0,0,1004.54,415.48Z"/><path d="M1005,431.19a3.52,3.52,0,1,0,3.51,3.51A3.51,3.51,0,0,0,1005,431.19Z"/><path d="M1006.3,457.4a3.3,3.3,0,1,0,3.29-3.29A3.29,3.29,0,0,0,1006.3,457.4Z"/><path d="M1012.21,480.51a3.11,3.11,0,1,0,3.11-3.11A3.11,3.11,0,0,0,1012.21,480.51Z"/><path d="M1021.06,507.53a2.95,2.95,0,1,0-2.95-2.95A2.95,2.95,0,0,0,1021.06,507.53Z"/><path d="M1025.17,532.37a2.78,2.78,0,1,0-2.77-2.78A2.78,2.78,0,0,0,1025.17,532.37Z"/><path d="M1045.34,543.85a2.9,2.9,0,1,0-2.9-2.89A2.9,2.9,0,0,0,1045.34,543.85Z"/><path d="M1025.19,562.61a2.53,2.53,0,1,0-2.53-2.52A2.52,2.52,0,0,0,1025.19,562.61Z"/><path d="M998,552a2.38,2.38,0,1,0,2.37-2.37A2.37,2.37,0,0,0,998,552Z"/><path d="M1006.15,584.05a2.19,2.19,0,1,0-2.19,2.19A2.19,2.19,0,0,0,1006.15,584.05Z"/><path d="M1033.5,584.46a2.44,2.44,0,1,0,2.44,2.44A2.44,2.44,0,0,0,1033.5,584.46Z"/><path d="M1017.94,614.57a2.18,2.18,0,1,0-2.18-2.17A2.17,2.17,0,0,0,1017.94,614.57Z"/><path d="M986.15,610.91a1.91,1.91,0,1,0,1.91,1.9A1.9,1.9,0,0,0,986.15,610.91Z"/><path d="M959.7,594.39a1.79,1.79,0,1,0,1.79,1.79A1.79,1.79,0,0,0,959.7,594.39Z"/><path d="M974.83,573a2,2,0,1,0,2-2A2,2,0,0,0,974.83,573Z"/><path d="M943.48,566a1.84,1.84,0,1,0-1.83,1.84A1.83,1.83,0,0,0,943.48,566Z"/><path d="M927.77,599.84a1.57,1.57,0,1,0,1.57,1.57A1.57,1.57,0,0,0,927.77,599.84Z"/><path d="M895.7,613.43a1.37,1.37,0,1,0-1.37,1.37A1.37,1.37,0,0,0,895.7,613.43Z"/><path d="M864,645a1.18,1.18,0,1,0-1.19-1.18A1.18,1.18,0,0,0,864,645Z"/><path d="M916.88,649a1.35,1.35,0,1,0,1.35,1.35A1.34,1.34,0,0,0,916.88,649Z"/><path d="M951.38,630.84a1.59,1.59,0,1,0-1.58,1.59A1.58,1.58,0,0,0,951.38,630.84Z"/><path d="M952,678.48a1.47,1.47,0,1,0-1.47-1.47A1.47,1.47,0,0,0,952,678.48Z"/><path d="M900.75,695.46a1.21,1.21,0,1,0,1.21-1.2A1.21,1.21,0,0,0,900.75,695.46Z"/><path d="M943,718.23a1.35,1.35,0,1,0-1.36-1.35A1.35,1.35,0,0,0,943,718.23Z"/><path d="M981.8,716.25a1.6,1.6,0,1,0-1.61-1.6A1.6,1.6,0,0,0,981.8,716.25Z"/><path d="M991.61,676.33a1.72,1.72,0,1,0,1.72,1.72A1.72,1.72,0,0,0,991.61,676.33Z"/><path d="M978.43,647.43a1.69,1.69,0,1,0-1.68,1.69A1.68,1.68,0,0,0,978.43,647.43Z"/><path d="M1006.57,644.4a2,2,0,1,0-2-2A2,2,0,0,0,1006.57,644.4Z"/><path d="M1033.84,638.18a2.24,2.24,0,1,0,2.24-2.24A2.24,2.24,0,0,0,1033.84,638.18Z"/><circle cx="1064.15" cy="636.61" r="2.54"/><path d="M1088.59,639.83a2.83,2.83,0,1,0-2.82-2.83A2.83,2.83,0,0,0,1088.59,639.83Z"/><path d="M1112.07,628.06a3.16,3.16,0,1,0,3.16,3.16A3.15,3.15,0,0,0,1112.07,628.06Z"/><path d="M1130.66,624.29a3.48,3.48,0,1,0,3.48-3.48A3.48,3.48,0,0,0,1130.66,624.29Z"/><circle cx="1121.27" cy="608.26" r="3.38"/><path d="M1108.54,588.94a3.38,3.38,0,1,0,3.38-3.38A3.38,3.38,0,0,0,1108.54,588.94Z"/><path d="M1090.88,588.74a3,3,0,1,0-3,3A3,3,0,0,0,1090.88,588.74Z"/><circle cx="1098.23" cy="611.46" r="3.06"/><circle cx="1074.59" cy="612.12" r="2.76"/><circle cx="1047.92" cy="611.99" r="2.46"/><path d="M1062.08,591.21a2.76,2.76,0,1,0-2.76-2.76A2.76,2.76,0,0,0,1062.08,591.21Z"/><path d="M1049.44,565.15a2.78,2.78,0,1,0,2.78-2.78A2.78,2.78,0,0,0,1049.44,565.15Z"/><path d="M1067.38,544.64a3.14,3.14,0,1,0,3.14-3.15A3.14,3.14,0,0,0,1067.38,544.64Z"/><path d="M1078.66,563.39a3.09,3.09,0,1,0,3.09,3.09A3.09,3.09,0,0,0,1078.66,563.39Z"/><path d="M1103.42,564.15a3.41,3.41,0,1,0,3.41,3.41A3.42,3.42,0,0,0,1103.42,564.15Z"/><path d="M1095.4,542.07a3.47,3.47,0,1,0,3.46,3.46A3.46,3.46,0,0,0,1095.4,542.07Z"/><path d="M1082.28,524.11a3.5,3.5,0,1,0,3.49-3.49A3.5,3.5,0,0,0,1082.28,524.11Z"/><path d="M1064.24,523.13a3.23,3.23,0,1,0-3.23,3.23A3.23,3.23,0,0,0,1064.24,523.13Z"/><path d="M1046.15,504.81a3.16,3.16,0,1,0,3.16,3.16A3.15,3.15,0,0,0,1046.15,504.81Z"/><circle cx="1040.47" cy="485.14" r="3.33"/><path d="M1072.08,504.2a3.57,3.57,0,1,0,3.57-3.56A3.56,3.56,0,0,0,1072.08,504.2Z"/><path d="M1064.86,483.08a3.58,3.58,0,1,0,3.57,3.58A3.58,3.58,0,0,0,1064.86,483.08Z"/><path d="M1057.84,470.11a3.73,3.73,0,1,0-3.73-3.73A3.73,3.73,0,0,0,1057.84,470.11Z"/><circle cx="1051.01" cy="446.29" r="3.86"/><path d="M1030.39,463.24a3.5,3.5,0,1,0,3.49-3.5A3.49,3.49,0,0,0,1030.39,463.24Z"/><path d="M1024.19,442a3.67,3.67,0,1,0,3.66-3.67A3.66,3.66,0,0,0,1024.19,442Z"/><path d="M1049.06,426.69a4,4,0,1,0-4,4.05A4,4,0,0,0,1049.06,426.69Z"/><path d="M1070.94,428.44a4.29,4.29,0,1,0-4.29,4.28A4.29,4.29,0,0,0,1070.94,428.44Z"/><path d="M1080.46,415.86a4.69,4.69,0,1,0-4.68-4.69A4.69,4.69,0,0,0,1080.46,415.86Z"/><path d="M1081.12,383.61a5.15,5.15,0,1,0-5.15-5.15A5.15,5.15,0,0,0,1081.12,383.61Z"/><circle cx="1089.59" cy="393.59" r="5.04" transform="translate(670.19 1473.51) rotate(-88.64)"/><circle cx="1104.99" cy="398.96" r="5.07"/><path d="M1100.8,421a4.92,4.92,0,1,0-4.91-4.92A4.92,4.92,0,0,0,1100.8,421Z"/><circle cx="1110.38" cy="433.31" r="4.82"/><path d="M1117.72,420.63a4.92,4.92,0,1,0-4.92-4.92A4.92,4.92,0,0,0,1117.72,420.63Z"/><path d="M1131.49,440a5.11,5.11,0,1,0-5.1-5.11A5.11,5.11,0,0,0,1131.49,440Z"/><path d="M1146.67,453.74a5.16,5.16,0,1,0-5.15-5.15A5.15,5.15,0,0,0,1146.67,453.74Z"/><circle cx="1156.2" cy="467.65" r="5.1"/><path d="M1165.9,490.12a5.09,5.09,0,1,0-5.08-5.08A5.08,5.08,0,0,0,1165.9,490.12Z"/><path d="M1180.25,506.61a5.14,5.14,0,1,0-5.14-5.14A5.14,5.14,0,0,0,1180.25,506.61Z"/><path d="M1169.24,506.69a4.84,4.84,0,1,0-4.83,4.84A4.83,4.83,0,0,0,1169.24,506.69Z"/><path d="M1145.63,496.7a4.57,4.57,0,1,0,4.57,4.56A4.56,4.56,0,0,0,1145.63,496.7Z"/><path d="M1123.5,496.34a4.22,4.22,0,1,0,4.22,4.21A4.2,4.2,0,0,0,1123.5,496.34Z"/><path d="M1117.31,478.1a4.32,4.32,0,1,0,4.31,4.31A4.31,4.31,0,0,0,1117.31,478.1Z"/><circle cx="1141.33" cy="483.34" r="4.7"/><path d="M1132.83,460.59a4.77,4.77,0,1,0,4.77,4.76A4.76,4.76,0,0,0,1132.83,460.59Z"/><circle cx="1120.18" cy="451.25" r="4.73" transform="translate(-57.82 185.26) rotate(-9.22)"/><path d="M1106.11,462.79a4.34,4.34,0,1,0,4.33,4.33A4.33,4.33,0,0,0,1106.11,462.79Z"/><path d="M1096.55,445.26a4.4,4.4,0,1,0,4.4,4.4A4.4,4.4,0,0,0,1096.55,445.26Z"/><circle cx="1087.78" cy="431.31" r="4.5"/><path d="M1069.38,448.11a4.13,4.13,0,1,0,4.13-4.13A4.13,4.13,0,0,0,1069.38,448.11Z"/><path d="M1077.39,467.11a4,4,0,1,0,4-4A4,4,0,0,0,1077.39,467.11Z"/><path d="M1090.93,480.51a3.95,3.95,0,1,0,4,3.94A3.93,3.93,0,0,0,1090.93,480.51Z"/><path d="M1096.45,501.43a3.9,3.9,0,1,0,3.89-3.89A3.9,3.9,0,0,0,1096.45,501.43Z"/><circle cx="1107.63" cy="519.93" r="3.83"/><path d="M1115.94,541.28a3.81,3.81,0,1,0-3.82-3.81A3.82,3.82,0,0,0,1115.94,541.28Z"/><path d="M1122.26,552.27A3.75,3.75,0,1,0,1126,556,3.75,3.75,0,0,0,1122.26,552.27Z"/><path d="M1129.47,571.62a3.72,3.72,0,1,0,3.71,3.72A3.72,3.72,0,0,0,1129.47,571.62Z"/><path d="M1138.38,591.07a3.72,3.72,0,1,0,3.71,3.71A3.71,3.71,0,0,0,1138.38,591.07Z"/><path d="M1153.07,573.88a4.05,4.05,0,1,0,4,4A4.05,4.05,0,0,0,1153.07,573.88Z"/><path d="M1145.09,554.64a4.08,4.08,0,1,0,4.08,4.08A4.09,4.09,0,0,0,1145.09,554.64Z"/><path d="M1137.76,535a4.1,4.1,0,1,0,4.1,4.1A4.11,4.11,0,0,0,1137.76,535Z"/><path d="M1130.25,515.06a4.19,4.19,0,1,0,4.19,4.18A4.18,4.18,0,0,0,1130.25,515.06Z"/><path d="M1150.87,517.71a4.45,4.45,0,1,0,4.45,4.45A4.45,4.45,0,0,0,1150.87,517.71Z"/><circle cx="1171.34" cy="526.3" r="4.75"/><path d="M1181.67,517.84a5.12,5.12,0,1,0,5.12-5.12A5.12,5.12,0,0,0,1181.67,517.84Z"/><path d="M1196.4,539.26a5.12,5.12,0,1,0-5.12-5.12A5.12,5.12,0,0,0,1196.4,539.26Z"/><path d="M1180.79,540.1a4.77,4.77,0,1,0,4.77,4.77A4.77,4.77,0,0,0,1180.79,540.1Z"/><path d="M1154.68,542a4.42,4.42,0,1,0,4.41-4.42A4.4,4.4,0,0,0,1154.68,542Z"/><circle cx="1167.13" cy="560.78" r="4.4"/><path d="M1170.84,579.26a4.4,4.4,0,1,0,4.4-4.4A4.4,4.4,0,0,0,1170.84,579.26Z"/><circle cx="1188.8" cy="563.49" r="4.73"/><circle cx="1203.48" cy="550.82" r="5.09"/><path d="M1205.2,568a5.12,5.12,0,1,0,5.12-5.12A5.12,5.12,0,0,0,1205.2,568Z"/><circle cx="1196.32" cy="582.23" r="4.75"/><path d="M1204.26,594.9a4.79,4.79,0,1,0,4.78,4.78A4.78,4.78,0,0,0,1204.26,594.9Z"/><path d="M1212.42,586.71a5.11,5.11,0,1,0,5.1-5.1A5.11,5.11,0,0,0,1212.42,586.71Z"/><path d="M1219,604.81a5.12,5.12,0,1,0,5.12-5.11A5.12,5.12,0,0,0,1219,604.81Z"/><circle cx="1227.76" cy="622.92" r="5.09"/><path d="M1209.29,613.84a4.75,4.75,0,1,0,4.75,4.75A4.75,4.75,0,0,0,1209.29,613.84Z"/><path d="M1190.75,610.8a4.44,4.44,0,1,0,4.43,4.44A4.43,4.43,0,0,0,1190.75,610.8Z"/><circle cx="1182.75" cy="598.32" r="4.43"/><path d="M1166.86,596.84a4.1,4.1,0,1,0-4.1,4.1A4.11,4.11,0,0,0,1166.86,596.84Z"/><circle cx="1150.51" cy="612.17" r="3.8"/><path d="M1171.38,615.36a4.1,4.1,0,1,0,4.1,4.1A4.11,4.11,0,0,0,1171.38,615.36Z"/><path d="M1153.78,629.87a3.76,3.76,0,1,0,3.76,3.76A3.76,3.76,0,0,0,1153.78,629.87Z"/><circle cx="1131.15" cy="645.85" r="3.36"/><path d="M1152.06,658.34a3.65,3.65,0,1,0-3.65-3.64A3.64,3.64,0,0,0,1152.06,658.34Z"/><path d="M1154.07,675.65a3.55,3.55,0,1,0-3.55,3.55A3.55,3.55,0,0,0,1154.07,675.65Z"/><path d="M1173.17,687a3.82,3.82,0,1,0-3.82,3.82A3.82,3.82,0,0,0,1173.17,687Z"/><path d="M1192.4,678.23a4.15,4.15,0,1,0-4.15,4.15A4.15,4.15,0,0,0,1192.4,678.23Z"/><circle cx="1205.88" cy="672.28" r="4.5"/><path d="M1223.73,664.39a4.82,4.82,0,1,0,4.82,4.82A4.82,4.82,0,0,0,1223.73,664.39Z"/><path d="M1215.1,648.75a4.72,4.72,0,1,0,4.72,4.72A4.72,4.72,0,0,0,1215.1,648.75Z"/><path d="M1193.23,650.64a4.34,4.34,0,1,0,4.33,4.34A4.33,4.33,0,0,0,1193.23,650.64Z"/><path d="M1172.3,660.47a3.94,3.94,0,1,0,3.93,3.94A3.93,3.93,0,0,0,1172.3,660.47Z"/><circle cx="1173.06" cy="642.94" r="4.03"/><circle cx="1191.25" cy="634.19" r="4.38"/><path d="M1211.15,632.15a4.7,4.7,0,1,0,4.7,4.7A4.69,4.69,0,0,0,1211.15,632.15Z"/><path d="M1228,640.61a5.14,5.14,0,1,0,5.14-5.14A5.14,5.14,0,0,0,1228,640.61Z"/><path d="M1232.2,657.69a5.15,5.15,0,1,0,5.15-5.15A5.14,5.14,0,0,0,1232.2,657.69Z"/><path d="M1235,677.2a5.12,5.12,0,1,0,5.12-5.12A5.12,5.12,0,0,0,1235,677.2Z"/><path d="M1240.73,689.88a5.07,5.07,0,1,0,5.07,5.07A5.07,5.07,0,0,0,1240.73,689.88Z"/><path d="M1238.4,714.14a5.12,5.12,0,1,0,5.12-5.12A5.12,5.12,0,0,0,1238.4,714.14Z"/><path d="M1245,728.61a5.1,5.1,0,1,0,5.1,5.1A5.1,5.1,0,0,0,1245,728.61Z"/><path d="M1226.12,743.94a4.86,4.86,0,1,0,4.85-4.85A4.85,4.85,0,0,0,1226.12,743.94Z"/><path d="M1226.72,719.12a4.79,4.79,0,1,0,4.78,4.78A4.78,4.78,0,0,0,1226.72,719.12Z"/><circle cx="1213.04" cy="737.02" r="4.5"/><path d="M1214.18,758a4.62,4.62,0,1,0,4.62-4.62A4.62,4.62,0,0,0,1214.18,758Z"/><path d="M1231.22,769.15a4.87,4.87,0,1,0,4.87,4.86A4.87,4.87,0,0,0,1231.22,769.15Z"/><circle cx="1244.75" cy="756.99" r="5.1"/><path d="M1246.45,772a5.16,5.16,0,1,0,5.15,5.16A5.16,5.16,0,0,0,1246.45,772Z"/><circle cx="1241.52" cy="796.19" r="5.09"/><path d="M1221.86,798.22a4.69,4.69,0,1,0-4.69-4.68A4.67,4.67,0,0,0,1221.86,798.22Z"/><circle cx="1213.72" cy="776.61" r="4.5"/><circle cx="1196.76" cy="770.24" r="4.2"/><path d="M1193.68,751.39a4.24,4.24,0,1,0,4.24-4.23A4.24,4.24,0,0,0,1193.68,751.39Z"/><path d="M1177.64,766.11a3.88,3.88,0,1,0-3.88-3.88A3.88,3.88,0,0,0,1177.64,766.11Z"/><path d="M1160.61,752.74a3.55,3.55,0,1,0-3.55,3.54A3.55,3.55,0,0,0,1160.61,752.74Z"/><circle cx="1137" cy="740.75" r="3.26"/><path d="M1114.58,726.46a2.93,2.93,0,1,0,2.92,2.92A2.93,2.93,0,0,0,1114.58,726.46Z"/><path d="M1139.28,715.94a3.25,3.25,0,1,0-3.24,3.24A3.25,3.25,0,0,0,1139.28,715.94Z"/><path d="M1153.79,729a3.55,3.55,0,1,0,3.54-3.54A3.55,3.55,0,0,0,1153.79,729Z"/><path d="M1176.62,745.25a3.88,3.88,0,1,0-3.88-3.88A3.88,3.88,0,0,0,1176.62,745.25Z"/><path d="M1176.66,720.14a4,4,0,1,0,4-4A4,4,0,0,0,1176.66,720.14Z"/><path d="M1195.2,727.67a4.2,4.2,0,1,0,4.19,4.2A4.2,4.2,0,0,0,1195.2,727.67Z"/><path d="M1209.33,715a4.37,4.37,0,1,0-4.36,4.37A4.36,4.36,0,0,0,1209.33,715Z"/><circle cx="1223.31" cy="705.59" r="4.73" transform="translate(103.29 1565.76) rotate(-67.5)"/><path d="M1223,682.18a4.77,4.77,0,1,0,4.77,4.76A4.77,4.77,0,0,0,1223,682.18Z"/><circle cx="1204.85" cy="693.65" r="4.4"/><circle cx="1186.33" cy="700.73" r="4.05"/><path d="M1167.8,708.9a3.7,3.7,0,1,0-3.7,3.69A3.7,3.7,0,0,0,1167.8,708.9Z"/><path d="M1145.37,697.1a3.47,3.47,0,1,0,3.46-3.46A3.46,3.46,0,0,0,1145.37,697.1Z"/><path d="M1129,664.74a3.26,3.26,0,1,0,3.26,3.26A3.26,3.26,0,0,0,1129,664.74Z"/><path d="M1128.58,694.59a3.2,3.2,0,1,0-3.19-3.19A3.19,3.19,0,0,0,1128.58,694.59Z"/><path d="M1109.68,707.72a2.91,2.91,0,1,0-2.91-2.91A2.91,2.91,0,0,0,1109.68,707.72Z"/><path d="M1089.48,721.58a2.61,2.61,0,1,0-2.61-2.61A2.61,2.61,0,0,0,1089.48,721.58Z"/><path d="M1091.25,746.47a2.64,2.64,0,1,0-2.64-2.64A2.64,2.64,0,0,0,1091.25,746.47Z"/><path d="M1095.44,770.21a2.69,2.69,0,1,0-2.69-2.69A2.7,2.7,0,0,0,1095.44,770.21Z"/><path d="M1113.53,754.44a3,3,0,1,0,3-3A3,3,0,0,0,1113.53,754.44Z"/><path d="M1137.16,769.55a3.26,3.26,0,1,0-3.26-3.26A3.26,3.26,0,0,0,1137.16,769.55Z"/><path d="M1158.89,779.2a3.58,3.58,0,1,0-3.58-3.58A3.58,3.58,0,0,0,1158.89,779.2Z"/><path d="M1160.83,802.27a3.65,3.65,0,1,0-3.65-3.65A3.64,3.64,0,0,0,1160.83,802.27Z"/><path d="M1171.77,819a3.82,3.82,0,1,0-3.82,3.81A3.82,3.82,0,0,0,1171.77,819Z"/><path d="M1158,833.56a3.63,3.63,0,1,0-3.63,3.63A3.62,3.62,0,0,0,1158,833.56Z"/><path d="M1145.05,815.06a3.4,3.4,0,1,0-3.39,3.4A3.39,3.39,0,0,0,1145.05,815.06Z"/><path d="M1139.62,793.27a3.32,3.32,0,1,0-3.31-3.31A3.31,3.31,0,0,0,1139.62,793.27Z"/><path d="M1115.08,778.36a2.95,2.95,0,1,0,2.94,2.94A2.95,2.95,0,0,0,1115.08,778.36Z"/><path d="M1085.67,792a2.58,2.58,0,1,0-2.58-2.58A2.58,2.58,0,0,0,1085.67,792Z"/><path d="M1098.37,808.21a2.78,2.78,0,1,0,2.78,2.77A2.77,2.77,0,0,0,1098.37,808.21Z"/><path d="M1120.11,806.4a3.06,3.06,0,1,0-3.06-3.06A3.06,3.06,0,0,0,1120.11,806.4Z"/><path d="M1118.46,830.61a3.08,3.08,0,1,0-3.08-3.07A3.07,3.07,0,0,0,1118.46,830.61Z"/><path d="M1115.84,852a3.08,3.08,0,1,0-3.08,3.08A3.08,3.08,0,0,0,1115.84,852Z"/><path d="M1135.79,846.12a3.38,3.38,0,1,0-3.38-3.38A3.38,3.38,0,0,0,1135.79,846.12Z"/><path d="M1138.74,861.23a3.52,3.52,0,1,0,3.51,3.52A3.52,3.52,0,0,0,1138.74,861.23Z"/><path d="M1145.93,886.1a3.65,3.65,0,1,0-3.64,3.65A3.64,3.64,0,0,0,1145.93,886.1Z"/><path d="M1118.52,897.77a3.45,3.45,0,1,0,3.45-3.44A3.45,3.45,0,0,0,1118.52,897.77Z"/><path d="M1120.22,874.46a3.25,3.25,0,1,0-3.24,3.25A3.24,3.24,0,0,0,1120.22,874.46Z"/><path d="M1097.61,890.69a3,3,0,1,0-3-3A3,3,0,0,0,1097.61,890.69Z"/><path d="M1087.62,858.67a2.81,2.81,0,1,0,2.81,2.81A2.81,2.81,0,0,0,1087.62,858.67Z"/><path d="M1094.53,835.59a2.76,2.76,0,1,0-2.75,2.76A2.75,2.75,0,0,0,1094.53,835.59Z"/><path d="M1064.45,841.56a2.44,2.44,0,1,0-2.44-2.44A2.44,2.44,0,0,0,1064.45,841.56Z"/><path d="M1071.29,814.86a2.45,2.45,0,1,0-2.44-2.45A2.45,2.45,0,0,0,1071.29,814.86Z"/><path d="M1044.23,813.65a2.16,2.16,0,1,0-2.15,2.16A2.15,2.15,0,0,0,1044.23,813.65Z"/><path d="M1051.3,786.29a2.23,2.23,0,1,0,2.23-2.23A2.23,2.23,0,0,0,1051.3,786.29Z"/><path d="M1068.66,766.75a2.36,2.36,0,1,0-2.36-2.36A2.36,2.36,0,0,0,1068.66,766.75Z"/><path d="M1063.81,740.34a2.33,2.33,0,1,0-2.32-2.32A2.32,2.32,0,0,0,1063.81,740.34Z"/><path d="M1063.67,710.41a2.36,2.36,0,1,0,2.36-2.36A2.36,2.36,0,0,0,1063.67,710.41Z"/><path d="M1082.74,693.14a2.59,2.59,0,1,0-2.59-2.59A2.59,2.59,0,0,0,1082.74,693.14Z"/><path d="M1108.89,679.62a2.91,2.91,0,1,0-2.91,2.91A2.91,2.91,0,0,0,1108.89,679.62Z"/><path d="M1104.1,655.27a3,3,0,1,0,3-3A3,3,0,0,0,1104.1,655.27Z"/><path d="M1078.8,664a2.65,2.65,0,1,0,2.64-2.64A2.64,2.64,0,0,0,1078.8,664Z"/><path d="M1055.28,659.21a2.36,2.36,0,1,0,2.36,2.36A2.36,2.36,0,0,0,1055.28,659.21Z"/><path d="M1051.12,685.66a2.24,2.24,0,1,0,2.24,2.24A2.25,2.25,0,0,0,1051.12,685.66Z"/><path d="M1025.53,670a2,2,0,1,0-2-2A2,2,0,0,0,1025.53,670Z"/><path d="M1020,697.85a1.91,1.91,0,1,0-1.9,1.9A1.91,1.91,0,0,0,1020,697.85Z"/><path d="M1042.75,720.07a2.09,2.09,0,1,0-2.09,2.08A2.09,2.09,0,0,0,1042.75,720.07Z"/><path d="M1013.11,728.09a1.84,1.84,0,1,0,1.84,1.84A1.84,1.84,0,0,0,1013.11,728.09Z"/><path d="M998.77,754.83a1.7,1.7,0,1,0,1.71,1.7A1.7,1.7,0,0,0,998.77,754.83Z"/><path d="M1037,757.3a2,2,0,1,0-2-2A2,2,0,0,0,1037,757.3Z"/><path d="M1021.36,786.55a1.92,1.92,0,1,0-1.93-1.92A1.92,1.92,0,0,0,1021.36,786.55Z"/><path d="M1011.86,817a1.86,1.86,0,1,0-1.86,1.85A1.86,1.86,0,0,0,1011.86,817Z"/><circle cx="975.7" cy="825.52" r="1.62"/><circle cx="984.78" cy="789.38" r="1.62"/><path d="M944.32,795.42a1.37,1.37,0,1,0-1.36-1.37A1.37,1.37,0,0,0,944.32,795.42Z"/><path d="M961.78,752.42a1.45,1.45,0,1,0,1.45,1.45A1.45,1.45,0,0,0,961.78,752.42Z"/><circle cx="912.02" cy="754.66" r="1.2"/><path d="M896.5,810a1.19,1.19,0,1,0,1.18-1.18A1.18,1.18,0,0,0,896.5,810Z"/><path d="M941.16,837.66a1.42,1.42,0,1,0-1.42,1.42A1.42,1.42,0,0,0,941.16,837.66Z"/><path d="M901.84,858.2a1.31,1.31,0,1,0-1.3-1.3A1.31,1.31,0,0,0,901.84,858.2Z"/><path d="M855.45,870.11a1.19,1.19,0,1,0-1.18-1.18A1.18,1.18,0,0,0,855.45,870.11Z"/><circle cx="805.21" cy="901.86" r="1.2"/><path d="M818.91,950.49a1.46,1.46,0,1,0,1.45,1.46A1.45,1.45,0,0,0,818.91,950.49Z"/><path d="M852,918.2a1.35,1.35,0,1,0,1.36,1.35A1.35,1.35,0,0,0,852,918.2Z"/><path d="M861.22,960.18a1.61,1.61,0,1,0-1.6-1.6A1.61,1.61,0,0,0,861.22,960.18Z"/><path d="M874.45,993.45a1.91,1.91,0,1,0-1.9,1.91A1.9,1.9,0,0,0,874.45,993.45Z"/><path d="M836.76,986.15a1.72,1.72,0,1,0,1.72-1.72A1.72,1.72,0,0,0,836.76,986.15Z"/><path d="M810.74,996.89a1.74,1.74,0,1,0-1.73,1.73A1.74,1.74,0,0,0,810.74,996.89Z"/><path d="M784.5,974.8a1.56,1.56,0,1,0-1.56,1.56A1.56,1.56,0,0,0,784.5,974.8Z"/><path d="M776.29,938.65A1.32,1.32,0,1,0,775,940,1.32,1.32,0,0,0,776.29,938.65Z"/><path d="M740.14,909a1.2,1.2,0,1,0,1.2,1.2A1.2,1.2,0,0,0,740.14,909Z"/><circle cx="684.45" cy="895.6" r="1.18"/><path d="M645.58,917.47a1.37,1.37,0,1,0-1.37,1.37A1.37,1.37,0,0,0,645.58,917.47Z"/><path d="M634.29,873.53a1.24,1.24,0,1,0-1.24,1.24A1.24,1.24,0,0,0,634.29,873.53Z"/><path d="M597.94,906.86a1.49,1.49,0,1,0-1.49,1.48A1.49,1.49,0,0,0,597.94,906.86Z"/><path d="M619.34,942.63a1.59,1.59,0,1,0-1.58,1.59A1.58,1.58,0,0,0,619.34,942.63Z"/><path d="M585.33,945.52a1.77,1.77,0,1,0-1.77,1.78A1.77,1.77,0,0,0,585.33,945.52Z"/><path d="M557.86,924.49a1.77,1.77,0,1,0-1.77-1.77A1.77,1.77,0,0,0,557.86,924.49Z"/><path d="M554.9,888.66a1.62,1.62,0,1,0,1.62-1.62A1.62,1.62,0,0,0,554.9,888.66Z"/><path d="M587.84,863.3a1.37,1.37,0,1,0-1.37,1.37A1.37,1.37,0,0,0,587.84,863.3Z"/><path d="M548.73,849.13a1.52,1.52,0,1,0-1.52-1.52A1.52,1.52,0,0,0,548.73,849.13Z"/><path d="M511.2,843a1.77,1.77,0,1,0-1.77-1.77A1.77,1.77,0,0,0,511.2,843Z"/><path d="M520.75,875.44a1.79,1.79,0,1,0,1.79-1.78A1.79,1.79,0,0,0,520.75,875.44Z"/><path d="M523.17,910.94a1.94,1.94,0,1,0,1.94-1.94A1.93,1.93,0,0,0,523.17,910.94Z"/><path d="M529.31,942.41a2.11,2.11,0,1,0-2.1,2.11A2.1,2.1,0,0,0,529.31,942.41Z"/><circle cx="496.89" cy="931.25" r="2.29"/><path d="M502.45,959.42a2.42,2.42,0,1,0,2.42-2.42A2.42,2.42,0,0,0,502.45,959.42Z"/><path d="M535.25,976.37a2.31,2.31,0,1,0-2.3,2.31A2.31,2.31,0,0,0,535.25,976.37Z"/><path d="M555.8,955.73a2,2,0,1,0-2,2A2,2,0,0,0,555.8,955.73Z"/><path d="M565.59,981.69a2.12,2.12,0,1,0,2.12-2.12A2.12,2.12,0,0,0,565.59,981.69Z"/><path d="M546.35,1003.21a2.46,2.46,0,1,0-2.46,2.46A2.46,2.46,0,0,0,546.35,1003.21Z"/><path d="M516.24,1006.27a2.69,2.69,0,1,0,2.69-2.69A2.69,2.69,0,0,0,516.24,1006.27Z"/><path d="M509.71,984.6a2.59,2.59,0,1,0-2.59,2.59A2.59,2.59,0,0,0,509.71,984.6Z"/><path d="M485,983a2.81,2.81,0,1,0-2.81,2.81A2.81,2.81,0,0,0,485,983Z"/><path d="M478,961.13a2.65,2.65,0,1,0-2.64-2.64A2.64,2.64,0,0,0,478,961.13Z"/><path d="M462.77,937.61a2.63,2.63,0,1,0,2.62-2.63A2.62,2.62,0,0,0,462.77,937.61Z"/><path d="M449.34,920.2a2.66,2.66,0,1,0-2.66-2.66A2.66,2.66,0,0,0,449.34,920.2Z"/><path d="M440.43,897.55a2.7,2.7,0,1,0-2.69,2.69A2.69,2.69,0,0,0,440.43,897.55Z"/><path d="M430.32,875a2.63,2.63,0,1,0,2.62-2.62A2.62,2.62,0,0,0,430.32,875Z"/><path d="M425.19,849.59a2.63,2.63,0,1,0,2.62,2.62A2.62,2.62,0,0,0,425.19,849.59Z"/><path d="M400.74,849.88a3,3,0,1,0-3,3A3,3,0,0,0,400.74,849.88Z"/><path d="M394.67,829.2a3,3,0,1,0-3,3A3,3,0,0,0,394.67,829.2Z"/><path d="M371.63,815.37a3.18,3.18,0,1,0,3.18-3.18A3.17,3.17,0,0,0,371.63,815.37Z"/><path d="M361.85,799.12a3.37,3.37,0,1,0-3.36,3.36A3.36,3.36,0,0,0,361.85,799.12Z"/><path d="M363.62,771.68a3.26,3.26,0,1,0,3.26,3.26A3.26,3.26,0,0,0,363.62,771.68Z"/><path d="M380.21,790.73a3,3,0,1,0,3-3A3,3,0,0,0,380.21,790.73Z"/><path d="M405.07,806.5a2.79,2.79,0,1,0-2.79,2.79A2.79,2.79,0,0,0,405.07,806.5Z"/><path d="M417.6,831.06a2.63,2.63,0,1,0-2.63-2.63A2.62,2.62,0,0,0,417.6,831.06Z"/><path d="M429,804.87a2.43,2.43,0,1,0,2.43-2.42A2.43,2.43,0,0,0,429,804.87Z"/><path d="M442.43,780.65a2.26,2.26,0,1,0-2.25-2.25A2.26,2.26,0,0,0,442.43,780.65Z"/><path d="M454.47,753.55a2.14,2.14,0,1,0-2.14-2.14A2.14,2.14,0,0,0,454.47,753.55Z"/><path d="M487.51,754.23a1.82,1.82,0,1,0-1.82-1.82A1.82,1.82,0,0,0,487.51,754.23Z"/><circle cx="474.53" cy="780.06" r="1.95"/><path d="M463.39,806.89a2.11,2.11,0,1,0-2.1,2.1A2.11,2.11,0,0,0,463.39,806.89Z"/><path d="M443.7,831.76a2.33,2.33,0,1,0,2.33-2.32A2.32,2.32,0,0,0,443.7,831.76Z"/><path d="M453.93,859a2.31,2.31,0,1,0,2.3-2.3A2.3,2.3,0,0,0,453.93,859Z"/><path d="M463.77,889.34a2.36,2.36,0,1,0-2.36-2.35A2.35,2.35,0,0,0,463.77,889.34Z"/><path d="M472.54,912.6a2.38,2.38,0,1,0,2.38-2.37A2.39,2.39,0,0,0,472.54,912.6Z"/><path d="M494.88,896.45a2.09,2.09,0,1,0,2.08-2.09A2.09,2.09,0,0,0,494.88,896.45Z"/><path d="M488.11,868.61a2,2,0,1,0-2-2A2,2,0,0,0,488.11,868.61Z"/><path d="M479.32,836a2,2,0,1,0-2,2A2,2,0,0,0,479.32,836Z"/><path d="M495,806.49a1.81,1.81,0,1,0,1.81,1.81A1.81,1.81,0,0,0,495,806.49Z"/><path d="M509.94,776.3a1.64,1.64,0,1,0,1.64-1.63A1.64,1.64,0,0,0,509.94,776.3Z"/><path d="M524.4,736.21a1.56,1.56,0,1,0-1.55,1.55A1.55,1.55,0,0,0,524.4,736.21Z"/><path d="M549.16,766.68a1.39,1.39,0,1,0,1.39,1.38A1.38,1.38,0,0,0,549.16,766.68Z"/><path d="M529.9,809.48a1.55,1.55,0,1,0,1.55-1.55A1.54,1.54,0,0,0,529.9,809.48Z"/><circle cx="571.05" cy="809.84" r="1.32"/><circle cx="612.2" cy="823.34" r="1.17"/><path d="M591.75,758.38a1.19,1.19,0,1,0,1.18-1.19A1.18,1.18,0,0,0,591.75,758.38Z"/><path d="M559.89,718.92a1.34,1.34,0,1,0,1.33-1.33A1.33,1.33,0,0,0,559.89,718.92Z"/><path d="M537.28,686.38a1.52,1.52,0,1,0-1.52,1.52A1.52,1.52,0,0,0,537.28,686.38Z"/><path d="M509.13,701.31a1.69,1.69,0,1,0-1.69,1.69A1.69,1.69,0,0,0,509.13,701.31Z"/><path d="M487.46,724.33a1.84,1.84,0,1,0-1.84-1.84A1.83,1.83,0,0,0,487.46,724.33Z"/><path d="M462.3,720.16a2.09,2.09,0,1,0-2.08,2.09A2.08,2.08,0,0,0,462.3,720.16Z"/><path d="M436.54,729a2.35,2.35,0,1,0-2.34,2.34A2.34,2.34,0,0,0,436.54,729Z"/><path d="M420.44,753.86a2.51,2.51,0,1,0,2.51,2.51A2.51,2.51,0,0,0,420.44,753.86Z"/><path d="M412.58,780a2.63,2.63,0,1,0,2.62,2.62A2.62,2.62,0,0,0,412.58,780Z"/><path d="M391.17,769.59a2.88,2.88,0,1,0-2.87-2.88A2.88,2.88,0,0,0,391.17,769.59Z"/><path d="M391.18,743.32a2.91,2.91,0,1,0-2.91,2.9A2.91,2.91,0,0,0,391.18,743.32Z"/><circle cx="408.78" cy="732.62" r="2.64"/><path d="M414.14,709.49a2.61,2.61,0,1,0-2.61-2.61A2.61,2.61,0,0,0,414.14,709.49Z"/><path d="M414.74,683.28a2.66,2.66,0,1,0-2.66-2.66A2.66,2.66,0,0,0,414.74,683.28Z"/><circle cx="413.66" cy="654.72" r="2.74"/><path d="M389,664.08a3,3,0,1,0,3,3A3,3,0,0,0,389,664.08Z"/><path d="M392.28,692.08a3,3,0,1,0-3,3A3,3,0,0,0,392.28,692.08Z"/><path d="M388.1,719.17a2.93,2.93,0,1,0-2.92-2.93A2.93,2.93,0,0,0,388.1,719.17Z"/><path d="M366.57,723.84a3.23,3.23,0,1,0,3.23,3.23A3.23,3.23,0,0,0,366.57,723.84Z"/><path d="M367.5,703.4a3.3,3.3,0,1,0-3.29,3.3A3.29,3.29,0,0,0,367.5,703.4Z"/><path d="M366,676.38a3.31,3.31,0,1,0,3.31,3.31A3.32,3.32,0,0,0,366,676.38Z"/><path d="M363.87,652a3.41,3.41,0,1,0,3.41,3.41A3.42,3.42,0,0,0,363.87,652Z"/><path d="M386.45,639.92a3.15,3.15,0,1,0,3.14,3.14A3.14,3.14,0,0,0,386.45,639.92Z"/><path d="M383.61,616a3.28,3.28,0,1,0,3.28,3.27A3.27,3.27,0,0,0,383.61,616Z"/><path d="M383.92,596a3.46,3.46,0,1,0-3.46,3.46A3.46,3.46,0,0,0,383.92,596Z"/><path d="M360.35,610.5a3.7,3.7,0,1,0-3.69-3.69A3.7,3.7,0,0,0,360.35,610.5Z"/><path d="M338.62,595a4.07,4.07,0,1,0,4.06,4.07A4.07,4.07,0,0,0,338.62,595Z"/><path d="M321.8,594a4.45,4.45,0,1,0-4.45,4.45A4.45,4.45,0,0,0,321.8,594Z"/><path d="M317.8,617.68a4.35,4.35,0,1,0-4.35-4.35A4.35,4.35,0,0,0,317.8,617.68Z"/><path d="M320.46,636.81a4.22,4.22,0,1,0-4.21-4.22A4.22,4.22,0,0,0,320.46,636.81Z"/><path d="M340.66,618.07a3.94,3.94,0,1,0,3.93,3.93A3.93,3.93,0,0,0,340.66,618.07Z"/><path d="M364.74,632.36a3.55,3.55,0,1,0-3.54,3.55A3.55,3.55,0,0,0,364.74,632.36Z"/><path d="M338.11,651.15a3.84,3.84,0,1,0-3.83-3.83A3.83,3.83,0,0,0,338.11,651.15Z"/><path d="M347.54,668.6a3.67,3.67,0,1,0-3.66,3.66A3.66,3.66,0,0,0,347.54,668.6Z"/><path d="M321.58,667.38a4,4,0,1,0,4,4A4,4,0,0,0,321.58,667.38Z"/><circle cx="299.09" cy="666.51" r="4.43"/><path d="M307.74,649.79A4.28,4.28,0,1,0,312,645.5,4.28,4.28,0,0,0,307.74,649.79Z"/><path d="M289,639.14a4.72,4.72,0,1,0,4.72,4.72A4.72,4.72,0,0,0,289,639.14Z"/><path d="M297.1,620.68a4.65,4.65,0,1,0,4.65,4.65A4.65,4.65,0,0,0,297.1,620.68Z"/><path d="M292.43,602.54a4.79,4.79,0,1,0,4.79-4.79A4.78,4.78,0,0,0,292.43,602.54Z"/><path d="M304.9,574.83a4.77,4.77,0,1,0,4.77,4.77A4.78,4.78,0,0,0,304.9,574.83Z"/><path d="M315.15,557a4.72,4.72,0,1,0,4.71,4.72A4.72,4.72,0,0,0,315.15,557Z"/><circle cx="330.2" cy="577.91" r="4.35"/><path d="M354.85,578a3.92,3.92,0,1,0,3.91,3.92A3.91,3.91,0,0,0,354.85,578Z"/><path d="M373.93,574.24a3.61,3.61,0,1,0,3.61-3.61A3.6,3.6,0,0,0,373.93,574.24Z"/><path d="M363.14,554.73a4,4,0,1,0,4,4A4,4,0,0,0,363.14,554.73Z"/><path d="M340.47,556.22a4.3,4.3,0,1,0,4.3,4.3A4.3,4.3,0,0,0,340.47,556.22Z"/><path d="M319.84,544.49a4.72,4.72,0,1,0,4.72-4.71A4.72,4.72,0,0,0,319.84,544.49Z"/><circle cx="331.76" cy="526.64" r="4.72"/><path d="M336.82,504.45a4.8,4.8,0,1,0,4.8,4.8A4.8,4.8,0,0,0,336.82,504.45Z"/><circle cx="336.74" cy="479.47" r="5.14"/><path d="M325.29,499.11a5.14,5.14,0,1,0-5.13-5.13A5.14,5.14,0,0,0,325.29,499.11Z"/><path d="M315.45,515a5.16,5.16,0,1,0-5.16-5.16A5.16,5.16,0,0,0,315.45,515Z"/><path d="M309.33,533.42a5.1,5.1,0,1,0-5.11-5.1A5.1,5.1,0,0,0,309.33,533.42Z"/><path d="M300.36,549.51a5.12,5.12,0,1,0-5.11-5.12A5.12,5.12,0,0,0,300.36,549.51Z"/><path d="M292.77,566.08a5.14,5.14,0,1,0-5.14-5.13A5.14,5.14,0,0,0,292.77,566.08Z"/><path d="M285.5,583.69a5.12,5.12,0,1,0-5.12-5.12A5.12,5.12,0,0,0,285.5,583.69Z"/><circle cx="278.7" cy="595.8" r="5.12"/><path d="M275.83,619.37a5.11,5.11,0,1,0-5.1-5.1A5.1,5.1,0,0,0,275.83,619.37Z"/><path d="M270.06,637.31a5.14,5.14,0,1,0-5.14-5.14A5.14,5.14,0,0,0,270.06,637.31Z"/><path d="M264.58,655.86a5.14,5.14,0,1,0-5.14-5.14A5.14,5.14,0,0,0,264.58,655.86Z"/><path d="M279.47,656.93a4.8,4.8,0,1,0,4.8,4.8A4.8,4.8,0,0,0,279.47,656.93Z"/><path d="M279.5,676.83a4.76,4.76,0,1,0,4.75,4.76A4.75,4.75,0,0,0,279.5,676.83Z"/><path d="M260.5,676.56a5.14,5.14,0,1,0-5.14-5.13A5.13,5.13,0,0,0,260.5,676.56Z"/><path d="M258.58,698.74a5.12,5.12,0,1,0-5.12-5.12A5.12,5.12,0,0,0,258.58,698.74Z"/><path d="M256.87,718.27a5.12,5.12,0,1,0-5.12-5.12A5.12,5.12,0,0,0,256.87,718.27Z"/><path d="M256.49,739.27a5.11,5.11,0,1,0-5.1-5.1A5.1,5.1,0,0,0,256.49,739.27Z"/><path d="M277.5,725.38a4.72,4.72,0,1,0-4.72-4.71A4.71,4.71,0,0,0,277.5,725.38Z"/><circle cx="277.79" cy="700.95" r="4.73" transform="translate(-108.69 53.55) rotate(-9.22)"/><path d="M297.64,713.87a4.34,4.34,0,1,0-4.34-4.34A4.33,4.33,0,0,0,297.64,713.87Z"/><path d="M300.18,683.48a4.35,4.35,0,1,0,4.35,4.34A4.34,4.34,0,0,0,300.18,683.48Z"/><path d="M320.43,699.45a4,4,0,1,0-4-4A4,4,0,0,0,320.43,699.45Z"/><path d="M345.84,690.71a3.63,3.63,0,1,0-3.63,3.63A3.64,3.64,0,0,0,345.84,690.71Z"/><path d="M341.08,710.63a3.63,3.63,0,1,0,3.63,3.63A3.62,3.62,0,0,0,341.08,710.63Z"/><path d="M350.7,736.9a3.51,3.51,0,1,0-3.51,3.52A3.51,3.51,0,0,0,350.7,736.9Z"/><path d="M366.06,749.51a3.23,3.23,0,1,0,3.23,3.22A3.23,3.23,0,0,0,366.06,749.51Z"/><path d="M341.3,755a3.62,3.62,0,1,0,3.62,3.62A3.62,3.62,0,0,0,341.3,755Z"/><path d="M344.77,783.32a3.63,3.63,0,1,0-3.63,3.63A3.62,3.62,0,0,0,344.77,783.32Z"/><path d="M327.15,769.87a3.88,3.88,0,1,0-3.88,3.88A3.88,3.88,0,0,0,327.15,769.87Z"/><path d="M309.3,751.78a4.05,4.05,0,1,0,4.05-4A4.05,4.05,0,0,0,309.3,751.78Z"/><path d="M322.15,736.44A3.85,3.85,0,1,0,326,732.6,3.85,3.85,0,0,0,322.15,736.44Z"/><path d="M313.8,716.93a4,4,0,1,0,4-4A4,4,0,0,0,313.8,716.93Z"/><circle cx="300" cy="732.18" r="4.28"/><path d="M287.33,753.81a4.42,4.42,0,1,0,4.41-4.41A4.41,4.41,0,0,0,287.33,753.81Z"/><path d="M282.31,738.72a4.7,4.7,0,1,0-4.7,4.7A4.69,4.69,0,0,0,282.31,738.72Z"/><path d="M265.52,756.85a4.82,4.82,0,1,0,4.82-4.82A4.82,4.82,0,0,0,265.52,756.85Z"/><path d="M258.71,756.48a5.16,5.16,0,1,0-5.16,5.16A5.16,5.16,0,0,0,258.71,756.48Z"/><path d="M257,783.12a5.12,5.12,0,1,0-5.12-5.12A5.12,5.12,0,0,0,257,783.12Z"/><path d="M258,805.25a5.15,5.15,0,1,0-5.15-5.15A5.15,5.15,0,0,0,258,805.25Z"/><path d="M270,792.53a4.77,4.77,0,1,0,4.77-4.76A4.77,4.77,0,0,0,270,792.53Z"/><path d="M280,769.16a4.67,4.67,0,1,0,4.67,4.67A4.67,4.67,0,0,0,280,769.16Z"/><circle cx="301.9" cy="772.22" r="4.25"/><path d="M300.23,791.82a4.38,4.38,0,1,0-4.38,4.38A4.38,4.38,0,0,0,300.23,791.82Z"/><path d="M314,790.16a4,4,0,1,0,4-4A4,4,0,0,0,314,790.16Z"/><path d="M316.42,810.2a4.12,4.12,0,1,0-4.11,4.11A4.11,4.11,0,0,0,316.42,810.2Z"/><path d="M326.51,830.66a4,4,0,1,0-3.94-3.95A4,4,0,0,0,326.51,830.66Z"/><path d="M335.28,802.19a3.73,3.73,0,1,0,3.73,3.73A3.73,3.73,0,0,0,335.28,802.19Z"/><path d="M351.8,826.46a3.53,3.53,0,1,0-3.53-3.53A3.53,3.53,0,0,0,351.8,826.46Z"/><path d="M341.8,838.74a3.73,3.73,0,1,0,3.73,3.73A3.73,3.73,0,0,0,341.8,838.74Z"/><path d="M358.15,859.79a3.6,3.6,0,1,0-3.59,3.6A3.59,3.59,0,0,0,358.15,859.79Z"/><path d="M333.42,860.64a4,4,0,1,0-4,4A4,4,0,0,0,333.42,860.64Z"/><path d="M344.68,878.88a3.92,3.92,0,1,0-3.92,3.92A3.91,3.91,0,0,0,344.68,878.88Z"/><path d="M362.61,876.42a3.56,3.56,0,1,0,3.57,3.56A3.56,3.56,0,0,0,362.61,876.42Z"/><path d="M355,899.15a3.73,3.73,0,1,0,3.73-3.73A3.73,3.73,0,0,0,355,899.15Z"/><path d="M371.78,918.53a3.65,3.65,0,1,0-3.65-3.65A3.64,3.64,0,0,0,371.78,918.53Z"/><path d="M384.17,894.37a3.33,3.33,0,1,0-3.33-3.33A3.33,3.33,0,0,0,384.17,894.37Z"/><path d="M379.33,868.56a3.25,3.25,0,1,0-3.25-3.24A3.24,3.24,0,0,0,379.33,868.56Z"/><path d="M369.61,844.73a3.31,3.31,0,1,0-3.31-3.31A3.31,3.31,0,0,0,369.61,844.73Z"/><path d="M404.39,875.3a3,3,0,1,0-3-3A3,3,0,0,0,404.39,875.3Z"/><path d="M414.41,893.88a3,3,0,1,0-3,3A3,3,0,0,0,414.41,893.88Z"/><path d="M393,912.41a3.28,3.28,0,1,0,3.28-3.28A3.28,3.28,0,0,0,393,912.41Z"/><path d="M384.53,934.74a3.57,3.57,0,1,0-3.56-3.57A3.56,3.56,0,0,0,384.53,934.74Z"/><path d="M404.22,936.74a3.3,3.3,0,1,0,3.3-3.3A3.29,3.29,0,0,0,404.22,936.74Z"/><path d="M418.14,917.22a3,3,0,1,0,3-3A3,3,0,0,0,418.14,917.22Z"/><path d="M434.77,935.22a3,3,0,1,0,3,3A3,3,0,0,0,434.77,935.22Z"/><path d="M449.43,955.63a3,3,0,1,0,3,3A3,3,0,0,0,449.43,955.63Z"/><path d="M460.55,980.52a3,3,0,1,0-3,3A3,3,0,0,0,460.55,980.52Z"/><path d="M443.09,1004.08a3.38,3.38,0,1,0-3.38-3.38A3.38,3.38,0,0,0,443.09,1004.08Z"/><path d="M431.88,982.75a3.33,3.33,0,1,0-3.33-3.33A3.33,3.33,0,0,0,431.88,982.75Z"/><circle cx="422.66" cy="958.62" r="3.28"/><path d="M403.84,958.09a3.55,3.55,0,1,0-3.54,3.54A3.55,3.55,0,0,0,403.84,958.09Z"/><path d="M406.75,983.79a3.63,3.63,0,1,0-3.63-3.63A3.62,3.62,0,0,0,406.75,983.79Z"/><path d="M419,1003.48a3.7,3.7,0,1,0-3.7-3.7A3.7,3.7,0,0,0,419,1003.48Z"/><path d="M410.71,1024.46a4,4,0,1,0-4-4A4,4,0,0,0,410.71,1024.46Z"/><path d="M433.32,1023.91a3.7,3.7,0,1,0-3.7-3.69A3.69,3.69,0,0,0,433.32,1023.91Z"/><path d="M456.05,1028.18a3.46,3.46,0,1,0-3.46-3.46A3.46,3.46,0,0,0,456.05,1028.18Z"/><path d="M466.93,1007.23a3.16,3.16,0,1,0-3.16-3.16A3.16,3.16,0,0,0,466.93,1007.23Z"/><path d="M482.4,1026.74a3.25,3.25,0,1,0-3.24,3.24A3.25,3.25,0,0,0,482.4,1026.74Z"/><path d="M495.18,1006.66a2.93,2.93,0,1,0-2.92,2.92A2.92,2.92,0,0,0,495.18,1006.66Z"/><circle cx="505.27" cy="1029.02" r="3.01"/><path d="M519.1,1052.81a3.18,3.18,0,1,0-3.18,3.17A3.18,3.18,0,0,0,519.1,1052.81Z"/><circle cx="539.49" cy="1053.37" r="2.99"/><path d="M530.82,1032.25a2.81,2.81,0,1,0-2.81-2.81A2.81,2.81,0,0,0,530.82,1032.25Z"/><circle cx="555.77" cy="1033.11" r="2.64"/><path d="M567.9,1013.12a2.38,2.38,0,1,0-2.38-2.38A2.38,2.38,0,0,0,567.9,1013.12Z"/><circle cx="583.27" cy="1032.95" r="2.46"/><path d="M613.32,1033.19a2.33,2.33,0,1,0-2.33,2.33A2.32,2.32,0,0,0,613.32,1033.19Z"/><path d="M631.36,1053.19a2.43,2.43,0,1,0-2.42-2.43A2.42,2.42,0,0,0,631.36,1053.19Z"/><path d="M648.93,1071.92a2.59,2.59,0,1,0-2.59,2.59A2.59,2.59,0,0,0,648.93,1071.92Z"/><path d="M624.48,1084.85a2.81,2.81,0,1,0-2.81-2.81A2.81,2.81,0,0,0,624.48,1084.85Z"/><path d="M610.06,1064.89a2.71,2.71,0,1,0-2.71,2.71A2.71,2.71,0,0,0,610.06,1064.89Z"/><path d="M589.32,1056.35a2.73,2.73,0,1,0-2.72,2.72A2.72,2.72,0,0,0,589.32,1056.35Z"/><circle cx="563.12" cy="1057.8" r="2.88"/><path d="M557.37,1082.87a3.2,3.2,0,1,0-3.19-3.2A3.19,3.19,0,0,0,557.37,1082.87Z"/><path d="M537.79,1075.22a3.3,3.3,0,1,0-3.3,3.29A3.3,3.3,0,0,0,537.79,1075.22Z"/><path d="M512.79,1082a3.53,3.53,0,1,0-3.53-3.53A3.53,3.53,0,0,0,512.79,1082Z"/><circle cx="497.08" cy="1065.88" r="3.5"/><path d="M489.7,1050.25a3.36,3.36,0,1,0-3.36-3.36A3.36,3.36,0,0,0,489.7,1050.25Z"/><circle cx="465.53" cy="1047.39" r="3.61"/><path d="M441.78,1045.22a3.83,3.83,0,1,0-3.83-3.83A3.82,3.82,0,0,0,441.78,1045.22Z"/><path d="M447.77,1056.37a4,4,0,1,0,4,4A4,4,0,0,0,447.77,1056.37Z"/><path d="M460.79,1076a4.08,4.08,0,1,0-4.08,4.08A4.08,4.08,0,0,0,460.79,1076Z"/><path d="M475.52,1071.27a3.76,3.76,0,1,0-3.77-3.76A3.76,3.76,0,0,0,475.52,1071.27Z"/><circle cx="490.59" cy="1085.71" r="3.83"/><path d="M502.45,1105.54a3.91,3.91,0,1,0-3.91-3.91A3.91,3.91,0,0,0,502.45,1105.54Z"/><path d="M516.91,1118.33a4.07,4.07,0,1,0-4.06,4.07A4.06,4.06,0,0,0,516.91,1118.33Z"/><circle cx="506.09" cy="1137.96" r="4.4"/><circle cx="520.44" cy="1151.12" r="4.5"/><path d="M513.49,1163a4.84,4.84,0,1,0,4.83,4.84A4.84,4.84,0,0,0,513.49,1163Z"/><circle cx="532.44" cy="1166.94" r="4.62"/><path d="M552.18,1157.14a4.4,4.4,0,1,0,4.4,4.4A4.4,4.4,0,0,0,552.18,1157.14Z"/><path d="M566,1169.8a4.5,4.5,0,1,0,4.5,4.5A4.51,4.51,0,0,0,566,1169.8Z"/><path d="M549.69,1180.49a4.79,4.79,0,1,0-4.78,4.78A4.78,4.78,0,0,0,549.69,1180.49Z"/><path d="M565.24,1190.24a4.8,4.8,0,1,0-4.8,4.8A4.8,4.8,0,0,0,565.24,1190.24Z"/><path d="M582.72,1194.74a4.79,4.79,0,1,0-4.78,4.78A4.78,4.78,0,0,0,582.72,1194.74Z"/><path d="M585.1,1172.82a4.4,4.4,0,1,0,4.4,4.4A4.4,4.4,0,0,0,585.1,1172.82Z"/><path d="M609.32,1175.67a4.25,4.25,0,1,0-4.24,4.25A4.24,4.24,0,0,0,609.32,1175.67Z"/><path d="M616.62,1185.66a4.43,4.43,0,1,0,4.43,4.43A4.43,4.43,0,0,0,616.62,1185.66Z"/><circle cx="628.1" cy="1171.24" r="4.06"/><path d="M636,1185.09a4.34,4.34,0,1,0,4.33,4.34A4.34,4.34,0,0,0,636,1185.09Z"/><path d="M653.13,1186.08a4.27,4.27,0,1,0,4.27,4.27A4.27,4.27,0,0,0,653.13,1186.08Z"/><circle cx="650.36" cy="1167.77" r="3.93"/><circle cx="635.83" cy="1149.83" r="3.68"/><path d="M659.71,1142.89a3.5,3.5,0,1,0-3.5,3.5A3.5,3.5,0,0,0,659.71,1142.89Z"/><path d="M672.28,1154.13a3.68,3.68,0,1,0,3.68,3.68A3.68,3.68,0,0,0,672.28,1154.13Z"/><path d="M689.56,1176.46a3.89,3.89,0,1,0-3.88-3.89A3.88,3.88,0,0,0,689.56,1176.46Z"/><circle cx="669.96" cy="1180.07" r="4.06"/><path d="M685.83,1191.89a4.27,4.27,0,1,0,4.26,4.26A4.27,4.27,0,0,0,685.83,1191.89Z"/><path d="M667.79,1198.24a4.43,4.43,0,1,0,4.43,4.43A4.43,4.43,0,0,0,667.79,1198.24Z"/><path d="M667.41,1220.1a4.8,4.8,0,1,0-4.8,4.8A4.8,4.8,0,0,0,667.41,1220.1Z"/><path d="M682.42,1214.94a4.71,4.71,0,1,0,4.7,4.7A4.71,4.71,0,0,0,682.42,1214.94Z"/><path d="M700.1,1207.48a4.56,4.56,0,1,0,4.55,4.56A4.56,4.56,0,0,0,700.1,1207.48Z"/><path d="M715.15,1219.64a4.75,4.75,0,1,0,4.75,4.75A4.76,4.76,0,0,0,715.15,1219.64Z"/><path d="M719.39,1197.62a4.32,4.32,0,1,0,4.32,4.32A4.31,4.31,0,0,0,719.39,1197.62Z"/><path d="M708.84,1188.08a4.08,4.08,0,1,0-4.08,4.08A4.07,4.07,0,0,0,708.84,1188.08Z"/><path d="M726.05,1183.53a3.92,3.92,0,1,0-3.92-3.91A3.91,3.91,0,0,0,726.05,1183.53Z"/><circle cx="710.87" cy="1164.95" r="3.7"/><path d="M698.55,1149.56a3.5,3.5,0,1,0-3.49,3.5A3.49,3.49,0,0,0,698.55,1149.56Z"/><path d="M678.65,1137.33a3.31,3.31,0,1,0-3.31-3.31A3.31,3.31,0,0,0,678.65,1137.33Z"/><circle cx="661.79" cy="1117.98" r="3.13"/><path d="M643.71,1124.91a3.3,3.3,0,1,0-3.29,3.3A3.29,3.29,0,0,0,643.71,1124.91Z"/><path d="M620.64,1129.31a3.5,3.5,0,1,0,3.5,3.49A3.49,3.49,0,0,0,620.64,1129.31Z"/><path d="M614.89,1160a3.88,3.88,0,1,0-3.88-3.88A3.88,3.88,0,0,0,614.89,1160Z"/><path d="M601.88,1144.35a3.73,3.73,0,1,0-3.73-3.73A3.73,3.73,0,0,0,601.88,1144.35Z"/><circle cx="583.02" cy="1136.47" r="3.78"/><circle cx="593.17" cy="1158.59" r="4.05"/><circle cx="573.91" cy="1156.76" r="4.15"/><path d="M560.63,1146a4,4,0,1,0-4-4A4,4,0,0,0,560.63,1146Z"/><path d="M540.57,1150.41a4.23,4.23,0,1,0-4.23-4.23A4.23,4.23,0,0,0,540.57,1150.41Z"/><path d="M531.14,1132.92a4.15,4.15,0,1,0-4.15,4.15A4.15,4.15,0,0,0,531.14,1132.92Z"/><path d="M536.05,1114.36a3.83,3.83,0,1,0-3.83,3.83A3.83,3.83,0,0,0,536.05,1114.36Z"/><circle cx="522.46" cy="1096.54" r="3.66"/><circle cx="543.79" cy="1097.98" r="3.5"/><path d="M567.08,1102.1a3.42,3.42,0,1,0-3.42,3.41A3.42,3.42,0,0,0,567.08,1102.1Z"/><path d="M549,1127.62a3.85,3.85,0,1,0-3.85-3.84A3.85,3.85,0,0,0,549,1127.62Z"/><path d="M569.67,1126.25a3.67,3.67,0,1,0-3.66-3.66A3.66,3.66,0,0,0,569.67,1126.25Z"/><path d="M600.85,1122.56a3.4,3.4,0,1,0-3.4-3.4A3.4,3.4,0,0,0,600.85,1122.56Z"/><path d="M584.36,1103.27a3.33,3.33,0,1,0,3.33,3.33A3.33,3.33,0,0,0,584.36,1103.27Z"/><circle cx="581.42" cy="1081.08" r="3.01"/><path d="M602.64,1089.3a3,3,0,1,0,3.05,3A3,3,0,0,0,602.64,1089.3Z"/><path d="M621.41,1111.38a3.14,3.14,0,1,0-3.14-3.14A3.14,3.14,0,0,0,621.41,1111.38Z"/><circle cx="643.25" cy="1099.35" r="2.94"/><path d="M668.88,1092.92a2.8,2.8,0,1,0-2.8,2.8A2.79,2.79,0,0,0,668.88,1092.92Z"/><path d="M684.92,1111.77a2.95,2.95,0,1,0-2.94-3A2.94,2.94,0,0,0,684.92,1111.77Z"/><circle cx="702.11" cy="1125.42" r="3.11"/><path d="M718.88,1145.3a3.33,3.33,0,1,0-3.33-3.33A3.33,3.33,0,0,0,718.88,1145.3Z"/><circle cx="734.38" cy="1157.77" r="3.58"/><path d="M750.11,1175.54a3.82,3.82,0,1,0-3.82-3.81A3.82,3.82,0,0,0,750.11,1175.54Z"/><circle cx="740.51" cy="1193.35" r="4.17"/><circle cx="762.94" cy="1187.44" r="4.05"/><circle cx="772.3" cy="1163.53" r="3.68"/><path d="M757.41,1151.4A3.41,3.41,0,1,0,754,1148,3.42,3.42,0,0,0,757.41,1151.4Z"/><path d="M741.56,1135.69a3.2,3.2,0,1,0-3.19-3.19A3.19,3.19,0,0,0,741.56,1135.69Z"/><path d="M722.39,1115.87a3,3,0,1,0,3-3A3,3,0,0,0,722.39,1115.87Z"/><circle cx="708.52" cy="1098.49" r="2.76"/><path d="M688.07,1081.55a2.59,2.59,0,1,0,2.59-2.59A2.59,2.59,0,0,0,688.07,1081.55Z"/><circle cx="712.17" cy="1066.28" r="2.36"/><path d="M689.44,1046.75a2.23,2.23,0,1,0,2.22,2.23A2.23,2.23,0,0,0,689.44,1046.75Z"/><path d="M672.52,1067.68a2.48,2.48,0,1,0-2.47,2.47A2.47,2.47,0,0,0,672.52,1067.68Z"/><path d="M661,1040.33a2.23,2.23,0,1,0,2.22,2.22A2.22,2.22,0,0,0,661,1040.33Z"/><path d="M642.1,1022.26a2.08,2.08,0,1,0,2.07-2.07A2.08,2.08,0,0,0,642.1,1022.26Z"/><path d="M624.83,1003.49a2,2,0,1,0-2,2A2,2,0,0,0,624.83,1003.49Z"/><path d="M594,1007.55a2.16,2.16,0,1,0-2.16-2.16A2.16,2.16,0,0,0,594,1007.55Z"/><path d="M599.29,977.07a1.89,1.89,0,1,0-1.88-1.88A1.88,1.88,0,0,0,599.29,977.07Z"/><path d="M631,974a1.74,1.74,0,1,0,1.74-1.74A1.74,1.74,0,0,0,631,974Z"/><path d="M661.69,952.62a1.52,1.52,0,1,0,1.52,1.52A1.52,1.52,0,0,0,661.69,952.62Z"/><path d="M657.92,994a1.81,1.81,0,1,0,1.81-1.8A1.81,1.81,0,0,0,657.92,994Z"/><path d="M682.07,1016.5a1.93,1.93,0,1,0,1.93-1.92A1.92,1.92,0,0,0,682.07,1016.5Z"/><path d="M716.08,1033a2,2,0,1,0-2,2A2,2,0,0,0,716.08,1033Z"/><path d="M718.58,1000.2a1.74,1.74,0,1,0,1.74-1.74A1.74,1.74,0,0,0,718.58,1000.2Z"/><path d="M695.06,979.27a1.61,1.61,0,1,0-1.61,1.61A1.61,1.61,0,0,0,695.06,979.27Z"/><path d="M699.63,940.83a1.36,1.36,0,1,0-1.35-1.35A1.35,1.35,0,0,0,699.63,940.83Z"/><path d="M734.93,962.49a1.45,1.45,0,1,0,1.45-1.45A1.45,1.45,0,0,0,734.93,962.49Z"/><path d="M757.25,997.52a1.69,1.69,0,1,0-1.68-1.68A1.69,1.69,0,0,0,757.25,997.52Z"/><path d="M747.81,1025a1.94,1.94,0,1,0-1.94,1.94A1.94,1.94,0,0,0,747.81,1025Z"/><path d="M739.69,1055.2a2.23,2.23,0,1,0-2.22,2.22A2.23,2.23,0,0,0,739.69,1055.2Z"/><path d="M767.1,1044.81a2.14,2.14,0,1,0,2.14,2.14A2.14,2.14,0,0,0,767.1,1044.81Z"/><path d="M786.4,1019.28a1.89,1.89,0,1,0-1.89,1.89A1.89,1.89,0,0,0,786.4,1019.28Z"/><circle cx="798.19" cy="1049.46" r="2.19"/><path d="M823.11,1063.14a2.38,2.38,0,1,0-2.37-2.38A2.37,2.37,0,0,0,823.11,1063.14Z"/><path d="M821.58,1030.81a2,2,0,1,0-2-2A2,2,0,0,0,821.58,1030.81Z"/><path d="M849,1014.71a2,2,0,1,0,2,2A2,2,0,0,0,849,1014.71Z"/><circle cx="854.36" cy="1045.95" r="2.32"/><path d="M846.77,1069.07a2.56,2.56,0,1,0,2.56,2.56A2.56,2.56,0,0,0,846.77,1069.07Z"/><circle cx="872.39" cy="1072.41" r="2.67"/><path d="M885.42,1051.94a2.51,2.51,0,1,0,2.51-2.5A2.51,2.51,0,0,0,885.42,1051.94Z"/><path d="M877.37,1025.23a2.21,2.21,0,1,0,2.2-2.2A2.2,2.2,0,0,0,877.37,1025.23Z"/><path d="M912.32,1032.94a2.43,2.43,0,1,0-2.42,2.43A2.42,2.42,0,0,0,912.32,1032.94Z"/><path d="M917.25,1062.48a2.76,2.76,0,1,0-2.76-2.76A2.76,2.76,0,0,0,917.25,1062.48Z"/><path d="M924.15,1088.7a3.1,3.1,0,1,0-3.09-3.09A3.1,3.1,0,0,0,924.15,1088.7Z"/><path d="M946.1,1068.17a3,3,0,1,0-3,3A3,3,0,0,0,946.1,1068.17Z"/><circle cx="937.38" cy="1041.55" r="2.69"/><path d="M930.47,1013.54a2.37,2.37,0,1,0,2.37-2.37A2.37,2.37,0,0,0,930.47,1013.54Z"/><circle cx="959.78" cy="1022.02" r="2.64"/><path d="M955.2,994.77a2.39,2.39,0,1,0,2.39-2.39A2.39,2.39,0,0,0,955.2,994.77Z"/><path d="M980.77,978.68a2.44,2.44,0,1,0,2.44-2.44A2.44,2.44,0,0,0,980.77,978.68Z"/><path d="M985,952.13a2.24,2.24,0,1,0-2.24-2.24A2.24,2.24,0,0,0,985,952.13Z"/><path d="M960.88,932.76a1.94,1.94,0,1,0-1.94,1.94A1.93,1.93,0,0,0,960.88,932.76Z"/><path d="M954.18,964.74a2.14,2.14,0,1,0,2.14-2.14A2.14,2.14,0,0,0,954.18,964.74Z"/><path d="M925.17,950.68a1.86,1.86,0,1,0,1.85-1.85A1.85,1.85,0,0,0,925.17,950.68Z"/><path d="M929,981.29a2.11,2.11,0,1,0,2.11,2.1A2.1,2.1,0,0,0,929,981.29Z"/><path d="M903.71,1005.91a2.13,2.13,0,1,0-2.12-2.12A2.12,2.12,0,0,0,903.71,1005.91Z"/><path d="M897.76,973.09a1.84,1.84,0,1,0-1.84-1.83A1.83,1.83,0,0,0,897.76,973.09Z"/><path d="M891.26,936.47a1.59,1.59,0,1,0,1.58-1.58A1.59,1.59,0,0,0,891.26,936.47Z"/><path d="M894.85,898.6a1.4,1.4,0,1,0-1.4,1.4A1.4,1.4,0,0,0,894.85,898.6Z"/><path d="M926.82,916.2a1.65,1.65,0,1,0,1.65-1.65A1.65,1.65,0,0,0,926.82,916.2Z"/><path d="M933.34,879.73a1.52,1.52,0,1,0,1.52-1.52A1.52,1.52,0,0,0,933.34,879.73Z"/><circle cx="970.07" cy="863.82" r="1.69"/><path d="M962.74,899.78a1.81,1.81,0,1,0,1.81-1.8A1.81,1.81,0,0,0,962.74,899.78Z"/><path d="M991.26,916.43a2.11,2.11,0,1,0,2.11,2.1A2.1,2.1,0,0,0,991.26,916.43Z"/><path d="M997.12,888.36a2,2,0,1,0-2-2A2,2,0,0,0,997.12,888.36Z"/><path d="M1002.27,853.11a1.91,1.91,0,1,0-1.91-1.9A1.9,1.9,0,0,0,1002.27,853.11Z"/><path d="M1033.3,840.49a2.13,2.13,0,1,0,2.12,2.13A2.12,2.12,0,0,0,1033.3,840.49Z"/><path d="M1025.93,876.47a2.19,2.19,0,1,0-2.19-2.19A2.19,2.19,0,0,0,1025.93,876.47Z"/><path d="M1022.16,905.23a2.33,2.33,0,1,0,2.32,2.33A2.32,2.32,0,0,0,1022.16,905.23Z"/><circle cx="1048.1" cy="894.04" r="2.49"/><path d="M1057.12,863.88a2.44,2.44,0,1,0-2.44,2.44A2.44,2.44,0,0,0,1057.12,863.88Z"/><path d="M1075.18,882.11a2.71,2.71,0,1,0-2.71,2.71A2.7,2.7,0,0,0,1075.18,882.11Z"/><path d="M1078,908.68a2.91,2.91,0,1,0-2.91-2.91A2.9,2.9,0,0,0,1078,908.68Z"/><path d="M1059.62,919.18a2.74,2.74,0,1,0-2.74,2.74A2.74,2.74,0,0,0,1059.62,919.18Z"/><path d="M1037.26,929.49a2.59,2.59,0,1,0,2.6,2.59A2.59,2.59,0,0,0,1037.26,929.49Z"/><path d="M1015.21,938.81a2.41,2.41,0,1,0-2.4,2.41A2.4,2.4,0,0,0,1015.21,938.81Z"/><path d="M1010.67,969.11a2.61,2.61,0,1,0-2.61-2.61A2.61,2.61,0,0,0,1010.67,969.11Z"/><path d="M1007.48,995.61a2.78,2.78,0,1,0-2.78-2.77A2.77,2.77,0,0,0,1007.48,995.61Z"/><path d="M984.54,1009.32a2.71,2.71,0,1,0-2.71-2.7A2.71,2.71,0,0,0,984.54,1009.32Z"/><path d="M985.35,1034.21a3,3,0,1,0-3-3A3,3,0,0,0,985.35,1034.21Z"/><path d="M986.57,1058.4a3.23,3.23,0,1,0-3.23-3.22A3.23,3.23,0,0,0,986.57,1058.4Z"/><path d="M962.45,1050.28a2.95,2.95,0,1,0-2.94-3A2.95,2.95,0,0,0,962.45,1050.28Z"/><circle cx="966.83" cy="1070.81" r="3.23"/><path d="M969.79,1095.35a3.51,3.51,0,1,0-3.51-3.51A3.51,3.51,0,0,0,969.79,1095.35Z"/><circle cx="947.94" cy="1093.5" r="3.38"/><path d="M951.9,1120.8a3.73,3.73,0,1,0-3.73-3.73A3.73,3.73,0,0,0,951.9,1120.8Z"/><path d="M932.94,1110.06a3.46,3.46,0,1,0-3.46,3.46A3.46,3.46,0,0,0,932.94,1110.06Z"/><path d="M906.34,1106.2a3.23,3.23,0,1,0-3.23-3.23A3.23,3.23,0,0,0,906.34,1106.2Z"/><path d="M898.94,1080.86a2.88,2.88,0,1,0-2.88-2.87A2.86,2.86,0,0,0,898.94,1080.86Z"/><path d="M881.8,1100.68a3,3,0,1,0-3-3A3,3,0,0,0,881.8,1100.68Z"/><path d="M859.1,1095.26a2.88,2.88,0,1,0-2.88,2.87A2.88,2.88,0,0,0,859.1,1095.26Z"/><path d="M838,1115.08a3.1,3.1,0,1,0,3.1-3.1A3.1,3.1,0,0,0,838,1115.08Z"/><path d="M869.49,1118.09a3.23,3.23,0,1,0-3.22,3.23A3.23,3.23,0,0,0,869.49,1118.09Z"/><path d="M893.52,1121.46a3.4,3.4,0,1,0-3.4,3.39A3.4,3.4,0,0,0,893.52,1121.46Z"/><path d="M879.32,1140.07a3.58,3.58,0,1,0-3.58,3.58A3.58,3.58,0,0,0,879.32,1140.07Z"/><path d="M862,1161.7a3.8,3.8,0,1,0-3.79-3.8A3.8,3.8,0,0,0,862,1161.7Z"/><path d="M855.46,1137.51A3.45,3.45,0,1,0,852,1141,3.44,3.44,0,0,0,855.46,1137.51Z"/><path d="M828.76,1133.36a3.37,3.37,0,1,0,3.37,3.36A3.37,3.37,0,0,0,828.76,1133.36Z"/><path d="M802.21,1136.94a3.3,3.3,0,1,0,3.3-3.3A3.29,3.29,0,0,0,802.21,1136.94Z"/><path d="M792.11,1117.74a2.94,2.94,0,1,0-2.94-2.94A2.94,2.94,0,0,0,792.11,1117.74Z"/><path d="M777.73,1097.65a2.73,2.73,0,1,0-2.73,2.73A2.72,2.72,0,0,0,777.73,1097.65Z"/><path d="M816.12,1116.12a3,3,0,1,0-3-3A3,3,0,0,0,816.12,1116.12Z"/><path d="M829,1093.54a2.74,2.74,0,1,0-2.74-2.74A2.74,2.74,0,0,0,829,1093.54Z"/><path d="M803.26,1088.93a2.63,2.63,0,1,0-2.62-2.63A2.63,2.63,0,0,0,803.26,1088.93Z"/><path d="M779.54,1071.64a2.42,2.42,0,1,0,2.42-2.43A2.42,2.42,0,0,0,779.54,1071.64Z"/><path d="M755.75,1079.76a2.49,2.49,0,1,0-2.49-2.49A2.49,2.49,0,0,0,755.75,1079.76Z"/><path d="M733.44,1086.46a2.6,2.6,0,1,0-2.59,2.59A2.59,2.59,0,0,0,733.44,1086.46Z"/><path d="M749,1108.44a2.83,2.83,0,1,0-2.82-2.82A2.83,2.83,0,0,0,749,1108.44Z"/><path d="M769,1123.44a3.08,3.08,0,1,0-3.08,3.07A3.08,3.08,0,0,0,769,1123.44Z"/><path d="M781.87,1143.08a3.3,3.3,0,1,0-3.29-3.29A3.29,3.29,0,0,0,781.87,1143.08Z"/><path d="M794.71,1163.18a3.63,3.63,0,1,0-3.63-3.63A3.64,3.64,0,0,0,794.71,1163.18Z"/><path d="M817.25,1162.53a3.65,3.65,0,1,0-3.64-3.64A3.64,3.64,0,0,0,817.25,1162.53Z"/><path d="M835.62,1158.2a3.71,3.71,0,1,0,3.71-3.71A3.72,3.72,0,0,0,835.62,1158.2Z"/><path d="M854.12,1177.07a4.07,4.07,0,1,0-4.07,4.06A4.06,4.06,0,0,0,854.12,1177.07Z"/><circle cx="828.01" cy="1179.62" r="4.01"/><path d="M805.44,1183.49a4,4,0,1,0-4-4A4,4,0,0,0,805.44,1183.49Z"/><path d="M783.74,1185.77a4,4,0,1,0-4-4A4,4,0,0,0,783.74,1185.77Z"/><path d="M797.64,1201a4.3,4.3,0,1,0-4.3,4.3A4.31,4.31,0,0,0,797.64,1201Z"/><path d="M778.76,1204.61a4.35,4.35,0,1,0-4.35,4.35A4.35,4.35,0,0,0,778.76,1204.61Z"/><path d="M786.38,1218a4.72,4.72,0,1,0,4.71,4.72A4.72,4.72,0,0,0,786.38,1218Z"/><circle cx="804.48" cy="1220.11" r="4.7"/><path d="M822.65,1214.83a4.72,4.72,0,1,0,4.72,4.71A4.71,4.71,0,0,0,822.65,1214.83Z"/><path d="M816.32,1199.36a4.33,4.33,0,1,0-4.33,4.34A4.33,4.33,0,0,0,816.32,1199.36Z"/><path d="M833.66,1200.79a4.39,4.39,0,1,0-4.38,4.39A4.38,4.38,0,0,0,833.66,1200.79Z"/><circle cx="845.91" cy="1196.96" r="4.4"/><path d="M863.8,1190.46a4.45,4.45,0,1,0,4.45,4.45A4.45,4.45,0,0,0,863.8,1190.46Z"/><path d="M871.87,1180.55a4.15,4.15,0,1,0-4.15-4.15A4.15,4.15,0,0,0,871.87,1180.55Z"/><path d="M882.24,1198a4.48,4.48,0,1,0-4.49-4.48A4.49,4.49,0,0,0,882.24,1198Z"/><circle cx="894.3" cy="1180.76" r="4.35"/><path d="M888.88,1160.83a3.95,3.95,0,1,0-3.94,3.94A3.94,3.94,0,0,0,888.88,1160.83Z"/><circle cx="906.15" cy="1166.05" r="4.17"/><circle cx="924.6" cy="1172.37" r="4.4"/><path d="M912.19,1185.59a4.6,4.6,0,1,0,4.6,4.6A4.6,4.6,0,0,0,912.19,1185.59Z"/><path d="M935.94,1191.73a4.77,4.77,0,1,0-4.77,4.77A4.77,4.77,0,0,0,935.94,1191.73Z"/><circle cx="944.48" cy="1177.69" r="4.62"/><path d="M968.12,1179.25a4.81,4.81,0,1,0-4.8,4.8A4.8,4.8,0,0,0,968.12,1179.25Z"/><path d="M984.28,1167.61a4.77,4.77,0,1,0-4.77,4.77A4.77,4.77,0,0,0,984.28,1167.61Z"/><circle cx="974.17" cy="1149.55" r="4.4"/><path d="M962.68,1161.26a4.49,4.49,0,1,0-4.48,4.48A4.48,4.48,0,0,0,962.68,1161.26Z"/><path d="M938.57,1160.75a4.22,4.22,0,1,0-4.21-4.21A4.22,4.22,0,0,0,938.57,1160.75Z"/><path d="M919.27,1153.55a4,4,0,1,0-4-4A4,4,0,0,0,919.27,1153.55Z"/><path d="M902,1144.08a3.75,3.75,0,1,0-3.75,3.75A3.75,3.75,0,0,0,902,1144.08Z"/><path d="M916.34,1126.77a3.6,3.6,0,1,0-3.59,3.59A3.6,3.6,0,0,0,916.34,1126.77Z"/><path d="M934.15,1137a3.83,3.83,0,1,0-3.83-3.83A3.83,3.83,0,0,0,934.15,1137Z"/><path d="M953.52,1144.78a4.1,4.1,0,1,0-4.09-4.1A4.09,4.09,0,0,0,953.52,1144.78Z"/><circle cx="971.52" cy="1129.9" r="4.1"/><path d="M977.87,1111.47a3.85,3.85,0,1,0-3.85,3.85A3.86,3.86,0,0,0,977.87,1111.47Z"/><circle cx="991.71" cy="1099.05" r="3.83"/><path d="M990.57,1081.7a3.55,3.55,0,1,0-3.55-3.54A3.55,3.55,0,0,0,990.57,1081.7Z"/><path d="M1013.69,1090.28a3.88,3.88,0,1,0-3.88-3.88A3.88,3.88,0,0,0,1013.69,1090.28Z"/><path d="M1008.7,1067.57a3.55,3.55,0,1,0-3.55-3.54A3.54,3.54,0,0,0,1008.7,1067.57Z"/><path d="M1005.19,1041.82a3.28,3.28,0,1,0,3.27-3.27A3.27,3.27,0,0,0,1005.19,1041.82Z"/><circle cx="1010.72" cy="1019.79" r="3.08"/><circle cx="1029.11" cy="1004.39" r="3.09"/><path d="M1041.67,1024.42a3.4,3.4,0,1,0-3.39,3.39A3.4,3.4,0,0,0,1041.67,1024.42Z"/><path d="M1027.11,1046.33a3.56,3.56,0,1,0,3.56-3.57A3.56,3.56,0,0,0,1027.11,1046.33Z"/><circle cx="1028.91" cy="1068.06" r="3.78"/><path d="M1053.55,1066.08a4,4,0,1,0-4,4A4,4,0,0,0,1053.55,1066.08Z"/><path d="M1036.52,1090.91a4.12,4.12,0,1,0-4.11-4.11A4.11,4.11,0,0,0,1036.52,1090.91Z"/><circle cx="1057.47" cy="1087.66" r="4.37"/><path d="M1080.6,1097.27a4.74,4.74,0,1,0-4.73,4.73A4.74,4.74,0,0,0,1080.6,1097.27Z"/><circle cx="1072.51" cy="1075.21" r="4.4"/><path d="M1067.79,1060.3a4.1,4.1,0,1,0-4.1-4.09A4.1,4.1,0,0,0,1067.79,1060.3Z"/><path d="M1057,1041.93a3.77,3.77,0,1,0-3.77,3.77A3.77,3.77,0,0,0,1057,1041.93Z"/><path d="M1064.5,1025.3a3.66,3.66,0,1,0-3.66-3.66A3.66,3.66,0,0,0,1064.5,1025.3Z"/><path d="M1052.71,1004.36a3.33,3.33,0,1,0-3.33-3.33A3.33,3.33,0,0,0,1052.71,1004.36Z"/><path d="M1037.47,981.9a3,3,0,1,0-3,3A3,3,0,0,0,1037.47,981.9Z"/><circle cx="1038.08" cy="958.64" r="2.81"/><path d="M1061.21,980.29a3.23,3.23,0,1,0-3.22-3.23A3.23,3.23,0,0,0,1061.21,980.29Z"/><path d="M1084.55,983.21a3.6,3.6,0,1,0,3.6-3.6A3.59,3.59,0,0,0,1084.55,983.21Z"/><path d="M1108.21,967.87a3.67,3.67,0,1,0-3.67,3.66A3.66,3.66,0,0,0,1108.21,967.87Z"/><path d="M1121.47,956.4a3.78,3.78,0,1,0-3.78-3.78A3.78,3.78,0,0,0,1121.47,956.4Z"/><path d="M1097.77,949.72a3.41,3.41,0,1,0-3.42-3.41A3.41,3.41,0,0,0,1097.77,949.72Z"/><path d="M1080.1,957.59a3.31,3.31,0,1,0,3.31,3.31A3.31,3.31,0,0,0,1080.1,957.59Z"/><path d="M1060.82,950.15a3,3,0,1,0-3-3A3,3,0,0,0,1060.82,950.15Z"/><path d="M1084.86,931a3.1,3.1,0,1,0-3.09,3.09A3.09,3.09,0,0,0,1084.86,931Z"/><path d="M1102.15,916.32a3.25,3.25,0,1,0-3.24-3.25A3.25,3.25,0,0,0,1102.15,916.32Z"/><path d="M1110.09,931.78a3.55,3.55,0,1,0,3.54-3.55A3.54,3.54,0,0,0,1110.09,931.78Z"/><circle cx="1130.28" cy="918.16" r="3.7"/><path d="M1148.26,911.32a3.88,3.88,0,1,0-3.88-3.88A3.88,3.88,0,0,0,1148.26,911.32Z"/><circle cx="1165.27" cy="894.3" r="4.06"/><path d="M1175.1,915.92a4.3,4.3,0,1,0-4.3,4.29A4.29,4.29,0,0,0,1175.1,915.92Z"/><circle cx="1155.51" cy="928.48" r="4.15"/><path d="M1137.9,942.42a3.92,3.92,0,1,0-3.91-3.91A3.91,3.91,0,0,0,1137.9,942.42Z"/><circle cx="1144.79" cy="958.08" r="4.18"/><path d="M1168.39,975.77a4.7,4.7,0,1,0-4.7-4.7A4.7,4.7,0,0,0,1168.39,975.77Z"/><path d="M1181.1,960.05a4.77,4.77,0,1,0-4.77-4.77A4.77,4.77,0,0,0,1181.1,960.05Z"/><circle cx="1161.97" cy="948.76" r="4.4"/><path d="M1179.23,939.7a4.59,4.59,0,1,0-4.58-4.59A4.58,4.58,0,0,0,1179.23,939.7Z"/><path d="M1194,925.51a4.74,4.74,0,1,0-4.73-4.74A4.73,4.73,0,0,0,1194,925.51Z"/><path d="M1189,902.38a4.43,4.43,0,1,0-4.43,4.43A4.43,4.43,0,0,0,1189,902.38Z"/><circle cx="1202.77" cy="899.37" r="4.75"/><path d="M1211.72,881a4.72,4.72,0,1,0-4.71,4.72A4.71,4.71,0,0,0,1211.72,881Z"/><path d="M1208,858.57a4.67,4.67,0,1,0,4.66,4.67A4.67,4.67,0,0,0,1208,858.57Z"/><path d="M1218.25,850.92a4.79,4.79,0,1,0-4.78-4.79A4.78,4.78,0,0,0,1218.25,850.92Z"/><path d="M1217.23,828.16a4.57,4.57,0,1,0-4.57,4.56A4.57,4.57,0,0,0,1217.23,828.16Z"/><circle cx="1197.37" cy="845.03" r="4.4"/><path d="M1184.4,866.36a4.22,4.22,0,1,0-4.21-4.22A4.22,4.22,0,0,0,1184.4,866.36Z"/><path d="M1185.81,877.76a4.35,4.35,0,1,0,4.35,4.35A4.35,4.35,0,0,0,1185.81,877.76Z"/><circle cx="1163.56" cy="874.05" r="3.93"/><path d="M1159.69,858.27a3.8,3.8,0,1,0-3.8-3.8A3.8,3.8,0,0,0,1159.69,858.27Z"/><path d="M1176.19,845a4,4,0,1,0-4-4A4,4,0,0,0,1176.19,845Z"/><path d="M1194.15,824.73a4.18,4.18,0,1,0-4.18,4.18A4.19,4.19,0,0,0,1194.15,824.73Z"/><path d="M1183.55,808.47a4,4,0,1,0-4-4A4,4,0,0,0,1183.55,808.47Z"/><path d="M1179.38,787.85a3.93,3.93,0,1,0-3.93-3.93A3.93,3.93,0,0,0,1179.38,787.85Z"/><path d="M1200,795.06a4.3,4.3,0,1,0-4.3-4.3A4.3,4.3,0,0,0,1200,795.06Z"/><circle cx="1205.05" cy="809.16" r="4.42"/><path d="M1229.27,811.89a4.77,4.77,0,1,0-4.77,4.77A4.78,4.78,0,0,0,1229.27,811.89Z"/><path d="M1240.8,808.2a5.14,5.14,0,1,0,5.14,5.13A5.13,5.13,0,0,0,1240.8,808.2Z"/><circle cx="1233.94" cy="828.54" r="4.97"/><path d="M1234.28,839.65a5.16,5.16,0,1,0,5.15,5.16A5.16,5.16,0,0,0,1234.28,839.65Z"/><path d="M1230.34,857.5a5.05,5.05,0,1,0,5.06,5A5,5,0,0,0,1230.34,857.5Z"/><path d="M1228.29,875.13a5.12,5.12,0,1,0,5.12,5.12A5.12,5.12,0,0,0,1228.29,875.13Z"/><path d="M1223.57,892.78a5.12,5.12,0,1,0,5.12,5.12A5.13,5.13,0,0,0,1223.57,892.78Z"/><path d="M1215,908.89a5.07,5.07,0,1,0,5.07,5.07A5.07,5.07,0,0,0,1215,908.89Z"/><path d="M1210.75,925.84a5.12,5.12,0,1,0,5.12,5.12A5.12,5.12,0,0,0,1210.75,925.84Z"/><path d="M1200.35,938.74a5,5,0,1,0,5,5A5,5,0,0,0,1200.35,938.74Z"/><path d="M1198.89,955.77a5.12,5.12,0,1,0,5.12,5.11A5.12,5.12,0,0,0,1198.89,955.77Z"/><path d="M1188.89,971.34a5.09,5.09,0,1,0,5.09,5.08A5.07,5.07,0,0,0,1188.89,971.34Z"/><path d="M1180.69,987.47a5.11,5.11,0,1,0,5.1,5.11A5.11,5.11,0,0,0,1180.69,987.47Z"/><path d="M1161.25,987.11a4.75,4.75,0,1,0,4.75,4.75A4.75,4.75,0,0,0,1161.25,987.11Z"/><path d="M1171,1005a5.12,5.12,0,1,0,5.12,5.12A5.12,5.12,0,0,0,1171,1005Z"/><circle cx="1158.8" cy="1025.19" r="5.05"/><path d="M1149.05,1012.68a4.72,4.72,0,1,0-4.72-4.71A4.71,4.71,0,0,0,1149.05,1012.68Z"/><path d="M1137.37,1019.42a4.7,4.7,0,1,0,4.7,4.7A4.69,4.69,0,0,0,1137.37,1019.42Z"/><path d="M1149.69,1037.71a5.12,5.12,0,1,0,5.12,5.12A5.12,5.12,0,0,0,1149.69,1037.71Z"/><circle cx="1136.21" cy="1058.37" r="5.07"/><path d="M1121.87,1070.06a5.12,5.12,0,1,0,5.12,5.12A5.12,5.12,0,0,0,1121.87,1070.06Z"/><circle cx="1115.93" cy="1055.64" r="4.75"/><circle cx="1126.56" cy="1039.93" r="4.73"/><path d="M1101.28,1046.52a4.39,4.39,0,1,0-4.38-4.39A4.4,4.4,0,0,0,1101.28,1046.52Z"/><path d="M1112.48,1028.59a4.34,4.34,0,1,0-4.33-4.34A4.33,4.33,0,0,0,1112.48,1028.59Z"/><path d="M1124.33,1012a4.33,4.33,0,1,0-4.33-4.33A4.33,4.33,0,0,0,1124.33,1012Z"/><path d="M1137,996.38a4.38,4.38,0,1,0-4.38-4.38A4.39,4.39,0,0,0,1137,996.38Z"/><path d="M1149.47,981a4.43,4.43,0,1,0-4.43-4.43A4.43,4.43,0,0,0,1149.47,981Z"/><path d="M1132,972.53a4,4,0,1,0-4,4.05A4.05,4.05,0,0,0,1132,972.53Z"/><path d="M1113.52,984.14a4,4,0,1,0,4,4A4,4,0,0,0,1113.52,984.14Z"/><path d="M1100.62,1008.07a4,4,0,1,0-3.95-4A4,4,0,0,0,1100.62,1008.07Z"/><path d="M1076.2,1004.8a3.62,3.62,0,1,0-3.61-3.61A3.62,3.62,0,0,0,1076.2,1004.8Z"/><path d="M1089.44,1017.66a4,4,0,1,0,4,4A4,4,0,0,0,1089.44,1017.66Z"/><path d="M1078.65,1043.23a4,4,0,1,0-4-4A4,4,0,0,0,1078.65,1043.23Z"/><path d="M1088.28,1064a4.42,4.42,0,1,0-4.42-4.42A4.41,4.41,0,0,0,1088.28,1064Z"/><path d="M1108.33,1070.08a4.76,4.76,0,1,0-4.75,4.75A4.75,4.75,0,0,0,1108.33,1070.08Z"/><path d="M1095.12,1083.75a4.77,4.77,0,1,0-4.77,4.77A4.77,4.77,0,0,0,1095.12,1083.75Z"/><circle cx="1108.17" cy="1091.86" r="5.09"/><circle cx="1094.23" cy="1106.01" r="5.09"/><path d="M1080.34,1113.46a5.11,5.11,0,1,0,5.11,5.11A5.1,5.1,0,0,0,1080.34,1113.46Z"/><path d="M1062.89,1117.2a4.77,4.77,0,1,0-4.77-4.76A4.76,4.76,0,0,0,1062.89,1117.2Z"/><path d="M1047.38,1109.07a4.5,4.5,0,1,0-4.5-4.5A4.49,4.49,0,0,0,1047.38,1109.07Z"/><circle cx="1043.17" cy="1124.34" r="4.72"/><path d="M1063.58,1127.37a5.12,5.12,0,1,0,5.12,5.11A5.11,5.11,0,0,0,1063.58,1127.37Z"/><path d="M1049,1139.76a5.14,5.14,0,1,0,5.14,5.14A5.14,5.14,0,0,0,1049,1139.76Z"/><path d="M1031.78,1152.23a5.14,5.14,0,1,0,5.14,5.13A5.13,5.13,0,0,0,1031.78,1152.23Z"/><path d="M1030.3,1144.83a4.81,4.81,0,1,0-4.8-4.8A4.8,4.8,0,0,0,1030.3,1144.83Z"/><path d="M1015.67,1144.26a4.67,4.67,0,1,0-4.67,4.66A4.67,4.67,0,0,0,1015.67,1144.26Z"/><path d="M1018.55,1120.68a4.45,4.45,0,1,0,4.45,4.45A4.45,4.45,0,0,0,1018.55,1120.68Z"/><path d="M1029,1111.29a4.32,4.32,0,1,0-4.31-4.32A4.31,4.31,0,0,0,1029,1111.29Z"/><path d="M1010,1110.7a4.08,4.08,0,1,0-4.08-4.08A4.08,4.08,0,0,0,1010,1110.7Z"/><path d="M995.92,1125.51a4.2,4.2,0,1,0-4.2-4.2A4.19,4.19,0,0,0,995.92,1125.51Z"/><circle cx="990.97" cy="1138.59" r="4.4"/><path d="M1000.48,1157.57a4.74,4.74,0,1,0-4.74,4.74A4.74,4.74,0,0,0,1000.48,1157.57Z"/><path d="M1014.93,1160.27a5.06,5.06,0,1,0,5.05,5A5,5,0,0,0,1014.93,1160.27Z"/><path d="M1000.11,1171.9a5.12,5.12,0,1,0,5.12,5.12A5.12,5.12,0,0,0,1000.11,1171.9Z"/><path d="M983.69,1180.42a5.1,5.1,0,1,0,5.1,5.1A5.1,5.1,0,0,0,983.69,1180.42Z"/><path d="M968.4,1188.64a5.14,5.14,0,1,0,5.14,5.13A5.13,5.13,0,0,0,968.4,1188.64Z"/><path d="M951.9,1193a5,5,0,1,0,5.05,5A5,5,0,0,0,951.9,1193Z"/><path d="M938.7,1203.47a5.12,5.12,0,1,0,5.12,5.12A5.12,5.12,0,0,0,938.7,1203.47Z"/><path d="M921.49,1205.6a5,5,0,1,0,5,5A5,5,0,0,0,921.49,1205.6Z"/><path d="M907.33,1213.38a5.11,5.11,0,1,0,5.1,5.1A5.1,5.1,0,0,0,907.33,1213.38Z"/><path d="M898.22,1198.88a4.77,4.77,0,1,0,4.76,4.77A4.77,4.77,0,0,0,898.22,1198.88Z"/><path d="M890.4,1219.22a5.12,5.12,0,1,0,5.12,5.12A5.12,5.12,0,0,0,890.4,1219.22Z"/><path d="M872.37,1224.74a5.12,5.12,0,1,0,5.12,5.12A5.12,5.12,0,0,0,872.37,1224.74Z"/><path d="M878,1206.25a4.79,4.79,0,1,0,4.79,4.78A4.78,4.78,0,0,0,878,1206.25Z"/><path d="M859.33,1209.67a4.77,4.77,0,1,0,4.76,4.77A4.77,4.77,0,0,0,859.33,1209.67Z"/><path d="M841.44,1212.89a4.74,4.74,0,1,0,4.74,4.74A4.74,4.74,0,0,0,841.44,1212.89Z"/><path d="M854,1228.83a5.11,5.11,0,1,0,5.1,5.11A5.11,5.11,0,0,0,854,1228.83Z"/><path d="M835.57,1231.8a5.12,5.12,0,1,0,5.12,5.12A5.12,5.12,0,0,0,835.57,1231.8Z"/><path d="M817.34,1234.23a5.11,5.11,0,1,0,5.1,5.1A5.1,5.1,0,0,0,817.34,1234.23Z"/><path d="M799.59,1236.11a5.1,5.1,0,1,0,5.1,5.1A5.1,5.1,0,0,0,799.59,1236.11Z"/><path d="M781.7,1237.86a5.12,5.12,0,1,0,5.12,5.12A5.12,5.12,0,0,0,781.7,1237.86Z"/><path d="M763.5,1238.76a5.11,5.11,0,1,0,5.1,5.11A5.1,5.1,0,0,0,763.5,1238.76Z"/><circle cx="767.43" cy="1224.61" r="4.73"/><path d="M753.91,1203.7a4.42,4.42,0,1,0,4.41,4.42A4.42,4.42,0,0,0,753.91,1203.7Z"/><path d="M733.35,1211.24a4.59,4.59,0,1,0,4.58,4.58A4.59,4.59,0,0,0,733.35,1211.24Z"/><path d="M747.76,1222.92a4.79,4.79,0,1,0,4.79,4.79A4.78,4.78,0,0,0,747.76,1222.92Z"/><path d="M745.68,1239.79a5.11,5.11,0,1,0,5.1,5.11A5.11,5.11,0,0,0,745.68,1239.79Z"/><path d="M729.51,1235a5,5,0,1,0,5,5A5,5,0,0,0,729.51,1235Z"/><circle cx="712.64" cy="1243.54" r="5.12"/><path d="M697.27,1232a5,5,0,1,0,5,5A5,5,0,0,0,697.27,1232Z"/><path d="M681.23,1234.9a5.12,5.12,0,1,0,5.12,5.12A5.12,5.12,0,0,0,681.23,1234.9Z"/><path d="M664.35,1232a5.12,5.12,0,1,0,5.12,5.12A5.12,5.12,0,0,0,664.35,1232Z"/><path d="M647.4,1228a5.11,5.11,0,1,0,5.1,5.1A5.1,5.1,0,0,0,647.4,1228Z"/><path d="M646.12,1215.55a4.67,4.67,0,1,0-4.67-4.67A4.67,4.67,0,0,0,646.12,1215.55Z"/><path d="M631,1223a5.06,5.06,0,1,0,5.06,5A5,5,0,0,0,631,1223Z"/><path d="M614.29,1220.79a5.11,5.11,0,1,0,5.1,5.11A5.11,5.11,0,0,0,614.29,1220.79Z"/><path d="M632.61,1208.26a4.72,4.72,0,1,0-4.72,4.72A4.72,4.72,0,0,0,632.61,1208.26Z"/><path d="M614.53,1207.52a4.82,4.82,0,1,0-4.82,4.82A4.82,4.82,0,0,0,614.53,1207.52Z"/><path d="M595.7,1201.06a4.65,4.65,0,1,0-4.65-4.65A4.65,4.65,0,0,0,595.7,1201.06Z"/><path d="M596.83,1215.11a5.12,5.12,0,1,0,5.12,5.12A5.13,5.13,0,0,0,596.83,1215.11Z"/><path d="M581.12,1209.38a5.1,5.1,0,1,0,5.1,5.1A5.1,5.1,0,0,0,581.12,1209.38Z"/><path d="M565.3,1203.28a5.1,5.1,0,1,0,5.1,5.1A5.1,5.1,0,0,0,565.3,1203.28Z"/><path d="M548.62,1197.71a5.12,5.12,0,1,0,5.13,5.12A5.11,5.11,0,0,0,548.62,1197.71Z"/><path d="M534.82,1189.86a5.12,5.12,0,1,0,5.12,5.12A5.12,5.12,0,0,0,534.82,1189.86Z"/><path d="M522.49,1180.82a5,5,0,1,0,5,5A5,5,0,0,0,522.49,1180.82Z"/><path d="M507.22,1177.56a5.14,5.14,0,1,0,5.13,5.14A5.14,5.14,0,0,0,507.22,1177.56Z"/><path d="M493.45,1167.89a5.11,5.11,0,1,0,5.1,5.1A5.11,5.11,0,0,0,493.45,1167.89Z"/><path d="M504,1155.62a4.77,4.77,0,1,0-4.76,4.77A4.76,4.76,0,0,0,504,1155.62Z"/><path d="M490,1143.38a4.72,4.72,0,1,0-4.72,4.72A4.73,4.73,0,0,0,490,1143.38Z"/><path d="M479.35,1157.84a5.09,5.09,0,1,0,5.09,5.09A5.08,5.08,0,0,0,479.35,1157.84Z"/><path d="M469,1145.08a5,5,0,1,0,5,5A5,5,0,0,0,469,1145.08Z"/><path d="M453.59,1144.08a5.12,5.12,0,1,0,5.12,5.12A5.13,5.13,0,0,0,453.59,1144.08Z"/><path d="M441.85,1131.25a5.12,5.12,0,1,0,5.12,5.12A5.11,5.11,0,0,0,441.85,1131.25Z"/><path d="M428.71,1122.47a5.12,5.12,0,1,0,5.11,5.12A5.13,5.13,0,0,0,428.71,1122.47Z"/><circle cx="445.66" cy="1116.35" r="4.75"/><circle cx="427.34" cy="1111.01" r="4.94"/><path d="M412.14,1111.74a5.16,5.16,0,1,0,5.15,5.16A5.15,5.15,0,0,0,412.14,1111.74Z"/><path d="M402.59,1094.76a5.07,5.07,0,1,0,5.07,5.07A5.06,5.06,0,0,0,402.59,1094.76Z"/><path d="M389.46,1087.63a5.16,5.16,0,1,0,5.16,5.15A5.16,5.16,0,0,0,389.46,1087.63Z"/><path d="M418.86,1089.37a4.8,4.8,0,1,0,4.8,4.8A4.8,4.8,0,0,0,418.86,1089.37Z"/><circle cx="411.98" cy="1077.62" r="4.65"/><path d="M393.7,1068.56a4.87,4.87,0,1,0,4.87,4.87A4.87,4.87,0,0,0,393.7,1068.56Z"/><path d="M376.62,1073.07a5.17,5.17,0,1,0,5.17,5.17A5.17,5.17,0,0,0,376.62,1073.07Z"/><circle cx="368.13" cy="1061.56" r="5.09"/><circle cx="354.4" cy="1052.47" r="5.17"/><path d="M356.5,1036a5.05,5.05,0,1,0-5.05,5A5,5,0,0,0,356.5,1036Z"/><circle cx="368.06" cy="1023.03" r="4.63" transform="translate(-71.59 28.66) rotate(-4.07)"/><circle cx="351.71" cy="1014.43" r="4.82" transform="translate(-672.61 1336.19) rotate(-88.32)"/><circle cx="337" cy="1027.12" r="5.14"/><path d="M337.15,1010a5.06,5.06,0,1,0-5.06,5A5.06,5.06,0,0,0,337.15,1010Z"/><path d="M320.14,994.66a5.16,5.16,0,1,0,5.16,5.16A5.16,5.16,0,0,0,320.14,994.66Z"/><circle cx="331.6" cy="987.83" r="4.85"/><path d="M354.17,995.85a4.65,4.65,0,1,0-4.65,4.65A4.66,4.66,0,0,0,354.17,995.85Z"/><circle cx="346.71" cy="974.55" r="4.5"/><circle cx="362" cy="960.06" r="4.13"/><path d="M342.27,958a4.39,4.39,0,1,0-4.38-4.38A4.38,4.38,0,0,0,342.27,958Z"/><path d="M339.29,936.39a4.37,4.37,0,1,0-4.36,4.36A4.37,4.37,0,0,0,339.29,936.39Z"/><circle cx="326.34" cy="917.93" r="4.4"/><circle cx="304.88" cy="918.51" r="4.75"/><path d="M312.9,939.68a4.74,4.74,0,1,0-4.73-4.73A4.74,4.74,0,0,0,312.9,939.68Z"/><path d="M318.64,957.13a4.75,4.75,0,1,0-4.75-4.75A4.75,4.75,0,0,0,318.64,957.13Z"/><circle cx="327.58" cy="968.35" r="4.75"/><path d="M317.76,980.28a5.11,5.11,0,1,0-5.11,5.1A5.11,5.11,0,0,0,317.76,980.28Z"/><circle cx="303.5" cy="964.31" r="5.15"/><path d="M300.48,946a5.12,5.12,0,1,0-5.12,5.12A5.12,5.12,0,0,0,300.48,946Z"/><path d="M293.27,928.82a5.14,5.14,0,1,0-5.14,5.13A5.14,5.14,0,0,0,293.27,928.82Z"/><path d="M285.67,911.91a5.17,5.17,0,1,0-5.17,5.17A5.17,5.17,0,0,0,285.67,911.91Z"/><circle cx="296.02" cy="902.24" r="4.8"/><circle cx="297.66" cy="883.64" r="4.65"/><path d="M282.51,893.17a5.1,5.1,0,1,0-5.1,5.1A5.1,5.1,0,0,0,282.51,893.17Z"/><path d="M275.93,877.34a5.14,5.14,0,1,0-5.14,5.13A5.14,5.14,0,0,0,275.93,877.34Z"/><circle cx="268.51" cy="857.79" r="5.09"/><path d="M286.38,872.8a4.82,4.82,0,1,0-4.82-4.81A4.81,4.81,0,0,0,286.38,872.8Z"/><circle cx="290.33" cy="848.44" r="4.65" transform="translate(-566.27 1113.72) rotate(-88.32)"/><path d="M280.22,836.34a4.79,4.79,0,1,0-4.79-4.78A4.78,4.78,0,0,0,280.22,836.34Z"/><path d="M268,841.26a5.14,5.14,0,1,0-5.13,5.13A5.14,5.14,0,0,0,268,841.26Z"/><path d="M264.32,823.46a5.17,5.17,0,1,0-5.17,5.17A5.17,5.17,0,0,0,264.32,823.46Z"/><circle cx="273.1" cy="812.05" r="4.85"/><path d="M291.56,816.12a4.49,4.49,0,1,0-4.49-4.48A4.49,4.49,0,0,0,291.56,816.12Z"/><path d="M302,834a4.35,4.35,0,1,0-4.35-4.35A4.35,4.35,0,0,0,302,834Z"/><path d="M315.2,849.18A4.19,4.19,0,1,0,311,845,4.18,4.18,0,0,0,315.2,849.18Z"/><path d="M306.42,868A4.42,4.42,0,1,0,302,863.6,4.41,4.41,0,0,0,306.42,868Z"/><path d="M323.51,880.52a4.28,4.28,0,1,0-4.28,4.28A4.29,4.29,0,0,0,323.51,880.52Z"/><path d="M315.57,904.27a4.45,4.45,0,1,0-4.45-4.45A4.45,4.45,0,0,0,315.57,904.27Z"/><path d="M336.74,903.19a4.1,4.1,0,1,0-4.1-4.1A4.11,4.11,0,0,0,336.74,903.19Z"/><path d="M352.37,919a4,4,0,1,0-4,4A4,4,0,0,0,352.37,919Z"/><path d="M359.78,941.26a4,4,0,1,0-4-4A4,4,0,0,0,359.78,941.26Z"/><path d="M383.79,949.21A3.77,3.77,0,1,0,380,953,3.76,3.76,0,0,0,383.79,949.21Z"/><path d="M382.47,973.56a3.9,3.9,0,1,0-3.9-3.9A3.89,3.89,0,0,0,382.47,973.56Z"/><path d="M369.53,982.49a4.25,4.25,0,1,0-4.25,4.25A4.25,4.25,0,0,0,369.53,982.49Z"/><path d="M367.2,1003.56a4.35,4.35,0,1,0,4.35-4.35A4.35,4.35,0,0,0,367.2,1003.56Z"/><path d="M385.79,992.43a4,4,0,1,0-4-4A4,4,0,0,0,385.79,992.43Z"/><path d="M396.52,1008a4,4,0,1,0-4-4A4,4,0,0,0,396.52,1008Z"/><path d="M387.5,1026.55a4.34,4.34,0,1,0-4.34-4.34A4.33,4.33,0,0,0,387.5,1026.55Z"/><path d="M397.86,1043.08a4.39,4.39,0,1,0-4.38-4.39A4.39,4.39,0,0,0,397.86,1043.08Z"/><path d="M373.59,1045.64a4.74,4.74,0,1,0-4.73-4.73A4.73,4.73,0,0,0,373.59,1045.64Z"/><path d="M390.87,1055.72a4.72,4.72,0,1,0-4.72,4.71A4.72,4.72,0,0,0,390.87,1055.72Z"/><path d="M407,1061.35a4.45,4.45,0,1,0-4.45-4.45A4.45,4.45,0,0,0,407,1061.35Z"/><path d="M420.42,1043.47a4.07,4.07,0,1,0-4.06-4.06A4.07,4.07,0,0,0,420.42,1043.47Z"/><path d="M426.62,1064.25a4.23,4.23,0,1,0-4.23-4.23A4.23,4.23,0,0,0,426.62,1064.25Z"/><path d="M434.66,1082.91a4.35,4.35,0,1,0-4.35-4.35A4.34,4.34,0,0,0,434.66,1082.91Z"/><path d="M441.23,1097.39a4.59,4.59,0,1,0-4.59,4.58A4.59,4.59,0,0,0,441.23,1097.39Z"/><path d="M457,1095.17a4.35,4.35,0,1,0-4.35,4.34A4.35,4.35,0,0,0,457,1095.17Z"/><path d="M471.45,1094.59a4.1,4.1,0,1,0-4.1-4.1A4.1,4.1,0,0,0,471.45,1094.59Z"/><path d="M487,1107.37a4.2,4.2,0,1,0-4.2,4.2A4.2,4.2,0,0,0,487,1107.37Z"/><path d="M493.73,1127.68a4.3,4.3,0,1,0-4.29-4.3A4.29,4.29,0,0,0,493.73,1127.68Z"/><path d="M475.29,1132.86a4.6,4.6,0,1,0-4.6-4.6A4.6,4.6,0,0,0,475.29,1132.86Z"/><path d="M468.29,1111.59a4.47,4.47,0,1,0-4.46,4.46A4.47,4.47,0,0,0,468.29,1111.59Z"/><circle cx="458.86" cy="1132.17" r="4.85"/></svg>