<svg id="Abstract_Shape" data-name="Abstract Shape" xmlns="http://www.w3.org/2000/svg" viewBox="0 0 1500 1500"><path d="M1212.09,554.79A503.17,503.17,0,1,0,1251.5,750,499.68,499.68,0,0,0,1212.09,554.79ZM1232,877.64c-1.48-.43-4-1.12-8.49-2.31l-20-5.36A468.71,468.71,0,0,0,1219,751.49h29.49A497.55,497.55,0,0,1,1232,877.64Zm-128.48,223.79-20.85-20.85a468.71,468.71,0,0,0,72.82-94.73l25.54,14.75A498.39,498.39,0,0,1,1103.55,1101.43ZM499.4,1181.06a498.39,498.39,0,0,1-100.83-77.51l20.85-20.85a468.37,468.37,0,0,0,94.72,72.82l-13.24,22.93ZM318.94,1000.6l25.54-14.75a468.71,468.71,0,0,0,72.82,94.73l-20.85,20.84A498,498,0,0,1,318.94,1000.6ZM251.51,751.5H281A468.71,468.71,0,0,0,296.46,870l-25.56,6.85-2.94.8A497.84,497.84,0,0,1,251.51,751.5ZM268,622.39l28.5,7.63A468.71,468.71,0,0,0,281,748.5H251.51A497.7,497.7,0,0,1,268,622.39ZM1248.49,748.5H1219A468.71,468.71,0,0,0,1203.54,630l28.5-7.63A497.7,497.7,0,0,1,1248.49,748.5Zm-32.49,0h-53a412.37,412.37,0,0,0-13.56-104l51.22-13.72A465.73,465.73,0,0,1,1216,748.5Zm-461.62-9.12c9.29-34.66,18.55-69.24,27.64-103.15a118,118,0,0,1,25.73,10.7C790.21,677.32,772.31,708.31,754.38,739.38Zm56-90.94a118.46,118.46,0,0,1,22.08,17L757,740.87ZM751.48,738.6V631.84a117.74,117.74,0,0,1,27.64,3.62C770,669.36,760.77,704,751.48,738.6Zm-3-.14-27.6-103a117.92,117.92,0,0,1,27.6-3.62Zm-2.86.92-53.37-92.45A118,118,0,0,1,718,636.23C726.88,669.43,736.13,703.94,745.62,739.38Zm-2.6,1.49-75.45-75.45a118.46,118.46,0,0,1,22.08-17C706.78,678.1,724.63,709,743,740.87ZM740.9,743l-92.44-53.37a118.94,118.94,0,0,1,17-22.08Zm-1.51,2.59L636.26,718A117.7,117.7,0,0,1,647,692.22Zm-.78,2.9H631.86a118.18,118.18,0,0,1,3.62-27.63Zm0,3L635.47,779.11a118.1,118.1,0,0,1-3.61-27.63Zm.78,2.9-92.44,53.37A117.55,117.55,0,0,1,636.25,782Zm1.49,2.6-75.45,75.45a118.58,118.58,0,0,1-17-22.09Zm2.12,2.13-53.37,92.43a118.94,118.94,0,0,1-22.08-17Zm2.59,1.5C736.3,795.27,727,829.85,718,863.76a117.33,117.33,0,0,1-25.73-10.71Zm2.9.78V868.16a117.59,117.59,0,0,1-27.63-3.63C729.93,830.63,739.19,796.05,748.48,761.39Zm3-.14,27.68,103.28a118,118,0,0,1-27.68,3.63Zm2.94-.64c18.27,31.64,36.13,62.59,53.36,92.44a117.33,117.33,0,0,1-25.73,10.71Zm2.59-1.5,75.45,75.44a118.94,118.94,0,0,1-22.08,17Zm2.12-2.13,92.42,53.36a118.58,118.58,0,0,1-17,22.09Zm1.49-2.6L863.75,782a117.55,117.55,0,0,1-10.69,25.74Zm.78-2.9H868.14a118.26,118.26,0,0,1-3.61,27.64Zm0-3,103.13-27.63a118.18,118.18,0,0,1,3.62,27.63Zm-.78-2.9L853,692.22A117.7,117.7,0,0,1,863.74,718Zm-1.5-2.59,75.44-75.45a118.94,118.94,0,0,1,17,22.08Zm75.44-79.69a121.77,121.77,0,0,0-22.7-17.46l54.91-95.11a232.51,232.51,0,0,1,45.41,35Zm-25.3-19a120.12,120.12,0,0,0-26.46-11c9.77-36.43,19.31-72,28.42-106.05a227.3,227.3,0,0,1,53,21.93ZM779.9,632.56a121.07,121.07,0,0,0-28.42-3.72V519.14a232.23,232.23,0,0,1,56.83,7.38C799.2,560.54,789.66,596.13,779.9,632.56Zm-31.42-3.72a120.73,120.73,0,0,0-28.38,3.72l-28.41-106a231.91,231.91,0,0,1,56.79-7.38Zm-31.27,4.5a120.12,120.12,0,0,0-26.46,11c-19.29-33.41-37.69-65.29-54.92-95.12a227.3,227.3,0,0,1,53-21.93C697.71,560.57,707.23,596.11,717.21,633.34Zm-29.06,12.5a121.77,121.77,0,0,0-22.7,17.46l-77.61-77.61a232.15,232.15,0,0,1,45.4-35Zm-24.82,19.58a122.43,122.43,0,0,0-17.46,22.7l-95.11-54.91a232.39,232.39,0,0,1,35-45.4Zm-19,25.3a121,121,0,0,0-11,26.45L527.31,688.76a227.69,227.69,0,0,1,21.94-53Zm-11.78,29.35a121,121,0,0,0-3.72,28.41H519.16a231.67,231.67,0,0,1,7.39-56.82Zm-3.72,31.41a120.91,120.91,0,0,0,3.72,28.41l-106,28.42a232.29,232.29,0,0,1-7.38-56.83Zm4.49,31.31a120.6,120.6,0,0,0,11,26.46l-95.12,54.91a227.84,227.84,0,0,1-21.93-52.95Zm12.5,29.05a122.11,122.11,0,0,0,17.45,22.71l-77.61,77.61a231.86,231.86,0,0,1-35-45.41Zm19.57,24.83a121.72,121.72,0,0,0,22.7,17.47l-54.91,95.11a232.45,232.45,0,0,1-45.4-35Zm25.3,19a120,120,0,0,0,26.45,11c-9.76,36.43-19.3,72-28.41,106.06a228.23,228.23,0,0,1-53-22Zm29.35,11.78a120.92,120.92,0,0,0,28.41,3.73v109.7a231.67,231.67,0,0,1-56.82-7.39Zm31.41,3.73a120.73,120.73,0,0,0,28.45-3.73l28.41,106a231.93,231.93,0,0,1-56.86,7.39Zm31.35-4.51a120,120,0,0,0,26.45-11l54.92,95.11a228.23,228.23,0,0,1-53,22Zm29-12.51a121.72,121.72,0,0,0,22.7-17.47l77.61,77.62a232.45,232.45,0,0,1-45.4,35Zm24.82-19.59a122.11,122.11,0,0,0,17.45-22.71l95.11,54.92a232.1,232.1,0,0,1-35,45.4Zm18.95-25.3a120.6,120.6,0,0,0,11-26.46L972.7,811.21a227.84,227.84,0,0,1-21.93,52.95Zm11.77-29.36a120.91,120.91,0,0,0,3.72-28.41h109.7a232.29,232.29,0,0,1-7.38,56.83Zm3.72-31.41a121,121,0,0,0-3.72-28.41l106-28.41a231.67,231.67,0,0,1,7.39,56.82Zm-4.5-31.31a121,121,0,0,0-11-26.45l95.11-54.91a227.69,227.69,0,0,1,21.94,53Zm-12.51-29a122.17,122.17,0,0,0-17.46-22.71l77.62-77.61a232.39,232.39,0,0,1,35,45.4Zm62.28-102.44,11.42-11.42,56.6-56.6a331.94,331.94,0,0,1,50.76,65.93l-69.44,40.09-13.91,8A235.22,235.22,0,0,0,916.41,585.69Zm9.29-13.54-11.41,11.42a235.34,235.34,0,0,0-46-35.44l8-13.89,40.1-69.45a331.94,331.94,0,0,1,65.93,50.76Zm-52-39.41-8,13.88A230.52,230.52,0,0,0,812,524.39q2.09-7.8,4.15-15.49l20.76-77.47a326,326,0,0,1,76.89,31.85Zm-60.45-24.61q-2.06,7.68-4.15,15.49a235.13,235.13,0,0,0-57.61-7.48V500c0-28.9,0-55.65,0-80.06A331.47,331.47,0,0,1,834,430.67ZM748.48,500v16.14a234.88,234.88,0,0,0-57.57,7.48c-9-33.52-17.34-64.7-24.91-92.95a331.78,331.78,0,0,1,82.49-10.73ZM688,524.39a230.52,230.52,0,0,0-53.68,22.23c-17.35-30.06-33.49-58-48.12-83.34a326,326,0,0,1,76.89-31.85C670.68,459.69,679,490.88,688,524.39Zm-56.27,23.74a235.34,235.34,0,0,0-46,35.44l-68-68a331.94,331.94,0,0,1,65.93-50.76Zm-48.15,37.56a235.22,235.22,0,0,0-35.43,46L464.81,583.6a331.94,331.94,0,0,1,50.76-65.93Zm-36.94,48.62A230.73,230.73,0,0,0,524.41,688l-92.95-24.9a325.82,325.82,0,0,1,31.84-76.89Zm-23,56.57a235.12,235.12,0,0,0-7.49,57.6H420A331.88,331.88,0,0,1,430.69,666ZM500,751.48h16.16a235,235,0,0,0,7.48,57.6l-15.51,4.16L430.69,834A331.33,331.33,0,0,1,420,751.49Zm8.9,64.66L524.4,812a231,231,0,0,0,22.23,53.69l-13.89,8-69.45,40.1a326.07,326.07,0,0,1-31.84-76.9Zm25.34,60.14,13.9-8a235.58,235.58,0,0,0,35.43,46L572.15,925.7l-56.6,56.61a331.51,331.51,0,0,1-50.75-65.93Zm40,51.55,11.42-11.42a235,235,0,0,0,46,35.44l-8,13.9-40.09,69.44a331.57,331.57,0,0,1-65.93-50.76Zm52,39.42q4-6.88,8-13.89A231,231,0,0,0,688,975.61l-4.15,15.48-20.75,77.47a326.27,326.27,0,0,1-76.89-31.85Zm60.45,24.62q2.06-7.7,4.15-15.5a235.06,235.06,0,0,0,57.6,7.49v96.2A331.42,331.42,0,0,1,666,1069.32C672.32,1045.63,679.26,1019.73,686.73,991.87Zm64.75,8.13V983.86a235.32,235.32,0,0,0,57.64-7.49c9,33.59,17.35,64.75,24.9,92.95a331.58,331.58,0,0,1-82.53,10.74C751.48,1055.65,751.48,1028.9,751.48,1000ZM812,975.61a231,231,0,0,0,53.68-22.25l48.11,83.35a326.38,326.38,0,0,1-76.88,31.85C829.36,1040.31,821,1009.13,812,975.61Zm56.27-23.76a235,235,0,0,0,46-35.44l68,68a331.79,331.79,0,0,1-65.92,50.76C901.78,1009.86,885.64,981.91,868.29,951.85Zm48.14-37.56a235.58,235.58,0,0,0,35.43-46l83.34,48.12a331.51,331.51,0,0,1-50.75,65.93Zm36.94-48.62A231,231,0,0,0,975.6,812l92.95,24.91a325.4,325.4,0,0,1-31.84,76.89Zm23-56.59a235,235,0,0,0,7.48-57.6H1080a331.86,331.86,0,0,1-10.72,82.5Zm23.64-60.6H983.84a235.12,235.12,0,0,0-7.49-57.6l15.52-4.15L1069.31,666A331.94,331.94,0,0,1,1080,748.49Zm-8.91-64.65L975.59,688a230.73,230.73,0,0,0-22.24-53.67l13.9-8,69.45-40.09a326.45,326.45,0,0,1,31.85,76.89Zm48.21-99.14,66.59-38.45a411,411,0,0,1,39.86,96.16l-74.31,19.9A329.21,329.21,0,0,0,1039.3,584.69Zm-1.51-2.59a335.06,335.06,0,0,0-51.24-66.55l54.41-54.4a409.73,409.73,0,0,1,63.41,82.51Zm-53.35-68.67a335.12,335.12,0,0,0-66.56-51.24l38.45-66.58A409.78,409.78,0,0,1,1038.84,459Zm-69.15-52.75a328.82,328.82,0,0,0-77.61-32.15l19.91-74.3a410.22,410.22,0,0,1,96.15,39.86Zm-80.51-32.91a334.86,334.86,0,0,0-83.29-10.83V340a409.58,409.58,0,0,1,103.2,13.46Zm-86.29-10.83a334.56,334.56,0,0,0-83.26,10.83c-1.8-6.72-3.57-13.29-5.27-19.66l-14.65-54.65A409.37,409.37,0,0,1,748.49,340Zm-86.17,11.59a328.82,328.82,0,0,0-77.61,32.15l-10.18-17.62-28.27-49a410.22,410.22,0,0,1,96.15-39.86C648.17,375.71,654.86,400.68,662.32,428.53Zm-80.2,33.66a334.78,334.78,0,0,0-66.55,51.24l-14.5-14.5L461.17,459a409.44,409.44,0,0,1,82.5-63.42Zm-68.67,53.36a334.35,334.35,0,0,0-51.23,66.55l-17.65-10.19-48.94-28.25A409.73,409.73,0,0,1,459,461.15ZM460.7,584.69a329,329,0,0,0-32.14,77.61L408.89,657,354.26,642.4a410.46,410.46,0,0,1,39.85-96.16ZM427.79,665.2A334.79,334.79,0,0,0,417,748.49H340a409.58,409.58,0,0,1,13.46-103.2ZM417,751.49a334.78,334.78,0,0,0,10.83,83.28l-74.31,19.92A409.13,409.13,0,0,1,340,751.49Zm11.59,86.18a328.69,328.69,0,0,0,32.14,77.62L394.1,953.74a410.64,410.64,0,0,1-39.85-96.16Zm33.65,80.21a334.64,334.64,0,0,0,51.23,66.55l-54.4,54.4a409.09,409.09,0,0,1-63.41-82.51Zm53.35,68.67a334.4,334.4,0,0,0,66.55,51.24l-38.44,66.59A409.78,409.78,0,0,1,461.15,1041Zm69.14,52.75a328.51,328.51,0,0,0,77.61,32.16l-19.91,74.3a410,410,0,0,1-96.15-39.86Zm80.51,32.92a334.33,334.33,0,0,0,83.29,10.84V1160a409.14,409.14,0,0,1-103.2-13.47C651,1125.2,657.68,1100.29,665.2,1072.22Zm86.29,10.84a334.55,334.55,0,0,0,83.31-10.84c7.48,27.92,14.16,52.87,19.91,74.31A409.23,409.23,0,0,1,751.49,1160Zm91.48,8.06-5.27-19.66a328.51,328.51,0,0,0,77.61-32.16c14.39,24.93,27.32,47.31,38.45,66.6a410,410,0,0,1-96.15,39.86Zm85.11-35.7c-3.29-5.71-6.7-11.6-10.17-17.63a335,335,0,0,0,66.54-51.24l54.4,54.41a409.78,409.78,0,0,1-82.51,63.42Zm73-56.49-14.5-14.5a334.64,334.64,0,0,0,51.23-66.55l66.58,38.44a409.43,409.43,0,0,1-63.41,82.52Zm55.87-73.47-17.63-10.17a328.69,328.69,0,0,0,32.14-77.62l74.3,19.91a410.64,410.64,0,0,1-39.85,96.16Zm35-85.42-19.68-5.27A334.78,334.78,0,0,0,1083,751.49H1160a409.13,409.13,0,0,1-13.46,103.2ZM1083,748.49a334.79,334.79,0,0,0-10.83-83.29l74.31-19.91A409.58,409.58,0,0,1,1160,748.49Zm65.6-106.87a411.05,411.05,0,0,0-18.1-52.38,415.46,415.46,0,0,0-22-44.5l45.93-26.51a466.12,466.12,0,0,1,45.45,109.67ZM1107,542.16A412.66,412.66,0,0,0,1043.08,459l37.49-37.49a465.44,465.44,0,0,1,72.34,94.1ZM1080.58,417.3a468.35,468.35,0,0,0-94.73-72.82l14.75-25.54a498.39,498.39,0,0,1,100.83,77.51Zm-2.12,2.12L1041,456.91A412.35,412.35,0,0,0,957.83,393l26.52-45.94A465.64,465.64,0,0,1,1078.46,419.42ZM955.25,391.49a413.39,413.39,0,0,0-96.89-40.15c5.55-20.69,10.16-37.9,13.73-51.23a465.56,465.56,0,0,1,109.67,45.46Zm-99.78-40.93a412.44,412.44,0,0,0-104-13.56V284A465.41,465.41,0,0,1,869.2,299.34ZM751.49,281c0-15.87,0-25.89,0-29.47A497.84,497.84,0,0,1,877.62,268c-.2.71-.45,1.65-.8,2.94L870,296.44A468.71,468.71,0,0,0,751.49,281Zm-3,0A468.57,468.57,0,0,0,630,296.44l-5.36-20c-1.19-4.46-1.88-7-2.31-8.49A497.49,497.49,0,0,1,748.5,251.51Zm0,3v53a412.35,412.35,0,0,0-104,13.56L630.8,299.34A465.84,465.84,0,0,1,748.5,284ZM641.64,351.34a409.83,409.83,0,0,0-52.4,18.11,414.15,414.15,0,0,0-44.48,22L521,350.26l-2.71-4.69a465.56,465.56,0,0,1,109.67-45.46C631.5,313.52,636.12,330.77,641.64,351.34ZM542.17,393A412.91,412.91,0,0,0,459,456.91L425.3,423.17l-3.75-3.75a465.49,465.49,0,0,1,94.1-72.35ZM419.43,417.3l-20.86-20.85A498.39,498.39,0,0,1,499.4,318.94l14.75,25.54A468,468,0,0,0,419.43,417.3ZM456.92,459A412.66,412.66,0,0,0,393,542.16l-45.94-26.52a465.44,465.44,0,0,1,72.34-94.1Zm-65.41,85.72a412.57,412.57,0,0,0-40.15,96.87L300.13,627.9a466.12,466.12,0,0,1,45.45-109.67Zm-40.93,99.77a412.37,412.37,0,0,0-13.56,104H284A465.71,465.71,0,0,1,299.36,630.8ZM284,751.49h53a412.37,412.37,0,0,0,13.56,104l-51.23,13.73A465.72,465.72,0,0,1,284,751.49Zm67.35,106.87a413.07,413.07,0,0,0,40.15,96.88l-45.93,26.52a466.21,466.21,0,0,1-45.44-109.67ZM393,957.82A413,413,0,0,0,456.91,1041l-14.16,14.16-23.33,23.33a465.8,465.8,0,0,1-72.34-94.1Zm28.52,122.75L459,1043.08a412.71,412.71,0,0,0,83.13,63.9l-26.52,45.94A465.49,465.49,0,0,1,421.54,1080.57Zm123.2,27.93a413.46,413.46,0,0,0,96.88,40.16l-5.15,19.21-8.57,32a466,466,0,0,1-109.67-45.46Zm99.77,40.93a412,412,0,0,0,104,13.57v53a465.84,465.84,0,0,1-117.7-15.36Zm104,69.59v29.47A497.7,497.7,0,0,1,622.39,1232c.89-3.34,3.5-13.06,7.63-28.48A468.71,468.71,0,0,0,748.5,1219Zm3,0A468.72,468.72,0,0,0,870,1203.56c4.12,15.35,6.73,25.13,7.63,28.48a497.76,497.76,0,0,1-126.11,16.45C751.5,1244.91,751.5,1234.89,751.49,1219Zm0-3v-53a412.15,412.15,0,0,0,104-13.57c5.51,20.6,10.13,37.84,13.72,51.23A465.94,465.94,0,0,1,751.49,1216Zm106.89-67.36a413.46,413.46,0,0,0,96.88-40.16l26.51,45.93a466,466,0,0,1-109.67,45.46ZM957.84,1107a412.71,412.71,0,0,0,83.13-63.9l37.49,37.49a465.49,465.49,0,0,1-94.1,72.35Zm122.74-24.28,20.85,20.85a498.26,498.26,0,0,1-100.86,77.52c-.74-1.36-2.05-3.63-4.35-7.61l-10.36-17.94A468.73,468.73,0,0,0,1080.58,1082.7Zm0-4.24-37.49-37.5A413,413,0,0,0,1107,957.82l45.94,26.53A466.14,466.14,0,0,1,1080.58,1078.46Zm27.92-123.22a413.07,413.07,0,0,0,40.15-96.88l51.22,13.73a466.21,466.21,0,0,1-45.44,109.67Zm40.92-99.78a412.37,412.37,0,0,0,13.56-104h53a465.72,465.72,0,0,1-15.35,117.7Zm81.85-236-3,.78-25.55,6.84A469.68,469.68,0,0,0,1157,516.73L1182.56,502a498.34,498.34,0,0,1,48.71,117.51Zm-50.21-120.1-25.55,14.74a468.68,468.68,0,0,0-72.81-94.72l20.85-20.85A498.75,498.75,0,0,1,1181.06,499.4Zm-183-182L983.26,343a469.12,469.12,0,0,0-110.39-45.76c4.13-15.42,6.74-25.14,7.64-28.47A497.93,497.93,0,0,1,998,317.44ZM556,290.67a496.36,496.36,0,0,1,63.53-21.93c.9,3.34,3.53,13.14,7.64,28.47A469.12,469.12,0,0,0,516.74,343L502,317.44A498.75,498.75,0,0,1,556,290.67ZM396.45,398.57l20.85,20.85a468.68,468.68,0,0,0-72.81,94.72L318.94,499.4A498.75,498.75,0,0,1,396.45,398.57ZM290.67,556a498.75,498.75,0,0,1,26.77-54L343,516.73a469.68,469.68,0,0,0-45.75,110.39l-20-5.35c-4.46-1.2-7-1.88-8.51-2.25A496.83,496.83,0,0,1,290.67,556ZM268.74,880.51c3.35-.91,13.15-3.53,28.49-7.64A469.21,469.21,0,0,0,343,983.26L320.05,996.5c-1.15.66-2,1.14-2.61,1.51a497.93,497.93,0,0,1-48.7-117.5Zm233.25,302L516.73,1157a469,469,0,0,0,110.39,45.75l-7.63,28.48a497.93,497.93,0,0,1-117.5-48.7ZM944,1209.33a495.83,495.83,0,0,1-63.53,21.93l-7.63-28.48A469,469,0,0,0,983.27,1157L998,1182.56A498.75,498.75,0,0,1,944,1209.33ZM1209.33,944a501.12,501.12,0,0,1-26.78,54c-1.32-.81-3.6-2.12-7.59-4.42L1157,983.26a469.21,469.21,0,0,0,45.75-110.39c15.37,4.11,25.15,6.74,28.49,7.64A496.36,496.36,0,0,1,1209.33,944Z"/></svg>