<svg id="Abstract_Shape" data-name="Abstract Shape" xmlns="http://www.w3.org/2000/svg" viewBox="0 0 1500 1500"><path d="M400,750V350A199.88,199.88,0,0,1,200,550,199.88,199.88,0,0,1,400,750Z"/><path d="M600,750V350A199.88,199.88,0,0,1,400,550,199.88,199.88,0,0,1,600,750Z"/><path d="M800,750V350A199.88,199.88,0,0,1,600,550,199.88,199.88,0,0,1,800,750Z"/><path d="M1000,750V350A199.88,199.88,0,0,1,800,550,199.88,199.88,0,0,1,1000,750Z"/><path d="M1200,750V350a199.88,199.88,0,0,1-200,200A199.88,199.88,0,0,1,1200,750Z"/><path d="M1100,750v400a199.88,199.88,0,0,1,200-200A199.88,199.88,0,0,1,1100,750Z"/><path d="M900,750v400a199.88,199.88,0,0,1,200-200A199.88,199.88,0,0,1,900,750Z"/><path d="M700,750v400A199.88,199.88,0,0,1,900,950,199.88,199.88,0,0,1,700,750Z"/><path d="M500,750v400A199.88,199.88,0,0,1,700,950,199.88,199.88,0,0,1,500,750Z"/><path d="M300,750v400A199.88,199.88,0,0,1,500,950,199.88,199.88,0,0,1,300,750Z"/></svg>