<svg id="Abstract_Shape" data-name="Abstract Shape" xmlns="http://www.w3.org/2000/svg" viewBox="0 0 1500 1500"><path d="M341.15,936.48h.5a15.13,15.13,0,0,0,9-3C377.12,913.76,380,875.74,382.17,848c2.53-33,3.31-65.67,3.88-96.31.21-10.77.63-21.59,1.08-33,1.76-44.8,3.57-91.12-8.32-132.56-5.36-18.68-15.24-31.71-27.1-35.74-9.81-3.33-20.57-.75-32,7.67-24.25,17.9-37.74,49.32-46.79,74.69-19.08,53.5-23.57,117.51-12.65,180.23C266.66,849.45,287.27,934.63,341.15,936.48ZM273.88,633c9-25.23,22.41-56.47,46.44-74.21,8-5.92,15.67-8.89,22.87-8.89a25.19,25.19,0,0,1,8.2,1.36c11.55,3.92,21.19,16.71,26.46,35.07,11.85,41.28,10,87.52,8.28,132.24-.45,11.46-.87,22.29-1.08,33.07-.57,30.63-1.35,63.29-3.88,96.25-2.11,27.57-5,65.33-31.09,84.77a14.17,14.17,0,0,1-8.89,2.81C288,933.66,267.6,849,261.28,812.74,250.38,750.18,254.86,686.35,273.88,633Z"/><path d="M311.54,896.15a26.57,26.57,0,0,0,11.95,2.9,31.5,31.5,0,0,0,15.23-4.27,19.33,19.33,0,0,0,5.89-5.07c13.19-16.9,16.19-42.29,18.61-62.7l.11-.91c2.42-20.49,3.91-41.5,4.43-62.46q.18-6.85.37-13.78c1.19-42.37,2.42-86.18-7.53-127.3-3-12.57-9-28.88-20.26-35.2-5.29-3-11.28-3.43-17.8-1.35-24.21,7.73-37.41,40.58-44.5,58.23-16.91,42.06-22,94.84-14.3,148.6C267.14,816.64,282.36,881.58,311.54,896.15ZM279,644.61c7-17.5,20.12-50.06,43.89-57.65a24.42,24.42,0,0,1,7.43-1.23,19.28,19.28,0,0,1,9.57,2.5c10.93,6.15,16.79,22.19,19.78,34.56,9.91,41,8.69,84.74,7.51,127q-.19,6.93-.38,13.78c-.52,20.93-2,41.92-4.43,62.37l-.11.92c-2.39,20.28-5.38,45.52-18.4,62.2a18.21,18.21,0,0,1-5.58,4.8c-9.14,5-18,5.48-26.25,1.35-28.8-14.37-43.88-78.9-47.26-102.55C257.07,739.1,262.13,686.51,279,644.61Z"/><path d="M288.33,828.82c2.38,4.1,10.25,15.06,14.69,17.69a16.34,16.34,0,0,0,8.33,2.58c3.68,0,6.71-1.64,9.47-3.59a38.89,38.89,0,0,0,11.8-13.34C344.49,810,344.79,775.8,345,750.81c0-3.15.06-6.16.11-9l0-2c.5-28.95,1.07-61.75-11-87.77-5.2-11.23-11.36-16.66-18.31-16.17C299.34,637,283.7,671,279.09,686.32c-8.48,28.2-10.53,61.13-5.77,92.7C276.54,800.44,281.59,817.19,288.33,828.82ZM280.05,686.6c5.06-16.81,20.77-48.67,35.87-49.74l.78,0c6.18,0,11.74,5.25,16.55,15.62,12,25.81,11.4,58.49,10.9,87.33l0,2c-.05,2.82-.08,5.83-.11,9-.22,24.88-.52,59-12.27,80.89a38,38,0,0,1-11.49,13c-4.34,3.07-9.37,5.31-16.72,1-4.3-2.54-12-13.3-14.33-17.34-6.68-11.51-11.69-28.14-14.89-49.44C269.57,747.44,271.61,714.67,280.05,686.6Z"/><path d="M1212.09,554.79A503.17,503.17,0,1,0,1251.5,750,499.68,499.68,0,0,0,1212.09,554.79Zm-451.92,693.6a176.83,176.83,0,0,0,78-35.06A191.86,191.86,0,0,0,895.22,1139c14.56-33.41,19-66.93,12.92-96.93-7-34.59-32.55-57.61-73.78-66.55-22-4.77-44.75-6-66.76-7.11l-1.3-.07q7.92-.57,15.72-1.72c25.66-.87,54.19-.66,78.73,5.7,36,9.32,56.43,29.84,62.59,62.72,5.78,30.83,1.32,64.52-12.88,97.41-13.25,30.68-34.4,58.78-59.55,79.13-24.94,20.17-53.83,32.92-82.55,36.61Q764.27,1248.32,760.17,1248.39ZM460.05,934.84l-.1-2.78c-.68-19.56-2.53-39.38-4.33-58.55-1.34-14.34-2.73-29.17-3.61-43.78a1070.21,1070.21,0,0,1,4.53-184.17c1.24-11.19,2.65-22.54,4-33.52,2.59-20.82,5.27-42.35,6.84-63.67,2.1-28.65,3.16-61.35-11.08-86.82-11.49-20.56-26.47-30.69-44.52-30.12-24.76.78-49.86,21.4-66.56,38.55a277.24,277.24,0,0,0-33.13,41.57q7.72-14.19,16.36-27.83C341,466,355.1,450.92,370.09,439.54c21.55-16.37,46.31-23.79,66.22-19.85,14.53,2.88,26.08,11.47,34.31,25.53,16.2,27.65,14,64.61,10.59,97.09-2.33,22.44-5.93,45.16-9.42,67.13-1.37,8.63-2.78,17.56-4.1,26.34a830.83,830.83,0,0,0-6.14,196.45c1.71,19.28,4,38.84,6.16,57.75,1.69,14.53,3.43,29.55,4.91,44.35,3.41,34.23,5.73,73.43-10.12,105.3-14.49,29.16-47.35,38.28-79.91,22.2s-53.92-46-69-70.63q-2.19-4-4.31-8c12.72,20.8,27.27,37.85,43.5,50.9,18.17,14.59,39.65,21.87,57.47,19.47,13.18-1.78,24.09-8.54,32.42-20.07C462.58,1006,461.18,966.54,460.05,934.84ZM287.84,573.27q15.57-31.57,31.75-50.37c10.74-11.93,23.25-21.57,37.66-26.51.9-.31,1.78-.58,2.66-.83a51.26,51.26,0,0,1,7.26-1.16,38,38,0,0,1,19.65,3.14c.75.4,1.5.83,2.23,1.29,13.85,8.81,21.05,26.88,24.74,41.53a211.46,211.46,0,0,1,4.35,30.21,634.28,634.28,0,0,1,1.41,64.75C419.05,654,418,672.61,417,691c-1.34,23.88-2.73,48.58-2.87,72.63,0,3.8,0,7.62,0,11.44,0,.86,0,1.71,0,2.57,0,10.1.11,20.38.19,30.32.21,26.68.42,54.28-.46,81.38l0,.63c-.73,22.53-1.91,58.58-15.92,81.36a49.88,49.88,0,0,1-15.38,15.43,40.18,40.18,0,0,1-4.48,2.42,39.68,39.68,0,0,1-6.67,2.13c-4.19.94-13.06,1.9-24.59-2.56-21.63-9.35-39.68-33.88-46.46-44.06-1.15-1.71-2.27-3.47-3.38-5.25s-2.07-3.55-3.1-5.41c-15.23-27.42-26.5-59.32-34.42-97.39-.69-3.71-1.31-7.42-1.9-11.11-1.32-8.64-2.42-16.43-3.31-24.5-.5-4.54-.92-9.07-1.3-13.58q-1.37-18.6-1.37-37.43,0-6.37.16-12.73c-.28,16,.29,30.19,1.12,41.81,2.62,36.59,8.5,68.9,17.48,96,12,36.14,29.5,63.25,52.11,80.58,11,8.46,21.05,12.7,29.91,12.7a25.25,25.25,0,0,0,11-2.46c14.59-7,25.06-28.68,31.14-64.54,4.92-29.07,5.71-59.59,6.13-76l.05-2c1.7-64.8,2.77-130.93,3.18-196.52,1-32.5-.39-78.24-23.84-100.15-7.88-7.36-16.72-10.41-26.28-9.07-11.13,1.56-23.15,9-35.72,22a191.31,191.31,0,0,0-24.91,33c-20.85,34.73-31.72,73.6-37,109.72q1.68-12.35,4-24.54a408.09,408.09,0,0,1,22.25-72.35c.37-.89.75-1.78,1.13-2.68C284.8,579.61,286.29,576.41,287.84,573.27Zm6.05-.06a190.59,190.59,0,0,1,24.77-32.79c12.41-12.89,24.23-20.2,35.14-21.73a31.25,31.25,0,0,1,4.18-.29c7.65,0,14.8,3.05,21.28,9.1,23.15,21.64,24.51,67.09,23.52,99.39h0c-.41,65.6-1.48,131.71-3.18,196.51l-.05,2C398.77,856,396.37,949,362.85,965c-10.9,5.2-24.31,1.79-39.87-10.13-22.45-17.21-39.87-44.16-51.77-80.1-9-27.06-14.82-59.3-17.43-95.8C250.47,732.62,251.27,644.19,293.89,573.21Zm2.61,367.45c6.08,10.06,15.81,24.18,28.12,35.26,10.53,9.5,21,15.1,31.39,16.79a38.67,38.67,0,0,0,7.35.75,35.5,35.5,0,0,0,15-3.36c8.76-3.67,15.36-10.14,20.34-18.25,15-23.09,15.72-58.43,16.28-85.82.08-3.69.15-7.21.25-10.53.71-22.54.42-45.5.14-67.71-.13-10.74-.27-21.76-.29-32.74,0-26.21,1.45-53,2.84-78.93,1.07-20,2.16-40.41,2.62-60.81.69-25.44.39-50.95-2.32-76a144.27,144.27,0,0,0-3.47-19.2c-4.14-18.1-10.65-30.79-19.67-38.44a34.85,34.85,0,0,0-7.93-5.09c-8.07-4.26-17.3-4.93-27.5-2C345.52,497.86,332,507,318.88,522.21c-15.93,17.68-28,40.31-36.45,60.23q-5.61,12.48-10.27,25.8c7.85-24.89,19.1-54.19,37.12-80.65,37.42-55,67.94-59.79,87-54.18,21.94,6.48,34.73,26.7,39.11,61.84,3.67,29.51.48,63.3-1.85,88-.56,5.86-1.08,11.39-1.43,16.09-5.15,68.61-6.62,131.39-4.5,191.95q.21,6.19.45,12.39c1,27.86,2.09,56.67.53,85-1.69,30.69-7.48,72.84-38.18,84.32-15.12,5.66-31.54,2.06-48.82-10.69C324.81,989.9,312,972.37,305.83,963c-18-27.29-31.11-58.86-41.28-99.12-.12-.49-.23-1-.35-1.47C272.19,892.91,283,919.15,296.5,940.66Zm-19.89-34A277.15,277.15,0,0,0,305,963.57c6.19,9.41,19.1,27,36,39.49,17.56,13,34.31,16.61,49.76,10.83,31.25-11.69,37.13-54.23,38.83-85.21,1.56-28.34.5-57.17-.53-85.06q-.24-6.2-.45-12.39c-2.12-60.52-.65-123.27,4.49-191.84.35-4.69.88-10.21,1.43-16.07,2.34-24.72,5.54-58.58,1.85-88.19C432,500.05,418.57,479,396.52,472.45c-19.33-5.7-50.31-.87-88.06,54.57a263,263,0,0,0-25.06,47.14q1.8-4.75,3.7-9.49A298.31,298.31,0,0,1,315.6,511c44.64-65.77,84.1-60.46,95.14-57.27,54,15.63,43.34,103.75,37,156.4-1,8.1-1.82,15.11-2.36,21.12-5.15,57.86-9.84,126.68-5.62,198.44.47,8,1,16.18,1.53,24.08,1.64,25,3.33,50.93,3.3,76.34,0,25.62-.1,73.33-28,96a40.46,40.46,0,0,1-26.1,9.32c-20.55,0-42.36-14.07-58.9-31-19.25-19.66-35.39-46.52-49.35-82.13-.5-1.24-1-2.5-1.46-3.76Q278.59,912.64,276.61,906.66Zm54.21,98.51c7.3,7.45,22.24,20.94,40.26,27.57a56.57,56.57,0,0,0,19.44,3.76,41.32,41.32,0,0,0,26.65-9.62c28.32-23,28.38-71,28.42-96.75,0-25.45-1.66-51.35-3.31-76.4-.51-7.9-1-16.06-1.52-24.08-4.22-71.69.47-140.47,5.62-198.29.53-6,1.37-13,2.35-21.09,6.38-53,17.07-141.62-37.71-157.48-17.46-5.05-36.15-.4-55.55,13.82-18.93,13.86-33.63,33.42-40.7,43.85Q307.6,521,301.18,532.78c1-2,2-4.07,3-6.1,8.09-14.88,22.64-36.36,41.75-56,16.57-17,41.45-37.48,65.88-38.25,17.65-.56,32.32,9.4,43.62,29.61,14.1,25.22,13,57.75,10.95,86.25-1.57,21.3-4.24,42.82-6.83,63.63-1.37,11-2.78,22.34-4,33.53A1071.2,1071.2,0,0,0,451,829.79c.89,14.62,2.27,29.46,3.62,43.81,1.79,19.16,3.64,39,4.33,58.5l.09,2.78c1.12,31.55,2.52,70.81-17.17,98.07-8.16,11.31-18.84,17.92-31.75,19.67-17.55,2.37-38.75-4.83-56.7-19.26C331.86,1016,313.26,991.55,298,960.55q-2.42-5.17-4.71-10.42C304.4,972.67,316.78,990.83,330.82,1005.17Zm51.33,57.55a72.78,72.78,0,0,0,32.15,8c20.93,0,39.21-10.74,49.1-30.63,16-32.11,13.64-71.48,10.21-105.85-1.48-14.81-3.22-29.83-4.9-44.37-2.19-18.9-4.46-38.45-6.17-57.72a829.87,829.87,0,0,1,6.14-196.21c1.32-8.78,2.73-17.7,4.1-26.34,3.49-22,7.09-44.71,9.42-67.18,3.39-32.63,5.63-69.78-10.71-97.69-8.39-14.32-20.16-23.07-35-26-20.19-4-45.24,3.49-67,20a191.16,191.16,0,0,0-32.87,32.5c.73-1.08,1.47-2.15,2.21-3.23,23.36-32,48.67-52.54,75.36-61,34.31-10.9,65.6,3.48,77.86,35.79,16.92,44.58,5.25,98.79-5.06,146.62-3.24,15.05-6.3,29.26-8.5,42.92-11.71,72.69-14.06,137.76-7.19,198.92,3.58,31.89,8.37,64.15,13,95.35l.1.65c5.76,38.85,9.85,73.65,1.44,106.21-5.22,20.23-16.48,36.11-31.71,44.72-13.86,7.84-30.27,9.28-47.46,4.18-35-10.4-59.91-39.74-79.63-68.35q-1.81-2.89-3.59-5.81C337.66,1028.72,356.45,1050,382.15,1062.72Zm-44.19-32c17.83,23,39.73,44.06,68.42,52.58,17.46,5.18,34.13,3.7,48.23-4.27,15.47-8.75,26.9-24.85,32.19-45.34,8.46-32.74,4.36-67.65-1.42-106.6l-.1-.66c-4.63-31.19-9.42-63.44-13-95.31-6.86-61.07-4.51-126,7.19-198.65,2.19-13.64,5.25-27.84,8.49-42.87,10.33-48,22-102.32,5-147.19C480.51,409.6,448.72,395,413.87,406,392,413,371,428,351.22,450.77q4.53-6,9.24-11.91c26.26-29.24,51.56-41.07,66.48-45.79,18.73-5.91,37.47-4.35,52.76,4.41,16,9.17,27.44,25.49,32.13,45.95,10.58,46.16-1.65,96-13.47,144.2-4,16.44-7.85,32-10.75,47.25a652.73,652.73,0,0,0-7.22,196.6c2.71,23.59,7,47.34,11.14,70.31,2,11,4,22.26,5.86,33.41l.88,5.31c5.85,35.1,11.9,71.39,3.21,105.7-4.47,17.66-14.07,32.61-27,42.1-13.76,10.07-30.38,13.59-48.08,10.15-27.76-5.38-56.75-25.5-79.54-55.18l-2.21-3Q341.25,1035.54,338,1030.74Zm19.73,26.91c20.75,22.29,45.05,37.24,68.51,41.79a69,69,0,0,0,13.19,1.3,59.48,59.48,0,0,0,35.67-11.63c13.13-9.62,22.86-24.77,27.39-42.66,8.74-34.5,2.67-70.9-3.19-106.11l-.88-5.3c-1.85-11.16-3.89-22.48-5.87-33.42-4.14-23-8.42-46.69-11.13-70.26a651.74,651.74,0,0,1,7.21-196.3c2.9-15.25,6.71-30.77,10.74-47.19,11.85-48.32,24.1-98.28,13.47-144.66-4.75-20.74-16.33-37.28-32.6-46.6-15.54-8.89-34.56-10.49-53.56-4.49s-37.2,17.14-54.35,33.19q-1.64,1.54-3.25,3.13l.75-.88c31.28-33.92,62.56-51,93.14-50.85,33.45.2,58.65,23.39,65.75,60.52,9,47.07-5,97.29-18.53,145.85-5.16,18.5-10,36-13.65,53.16-14.2,67.56-16.55,134.69-7,199.53,3.22,21.85,8.6,44.76,13.81,66.92,11.36,48.34,23.11,98.33,15.31,145.9-6.37,38.86-32.34,64.12-66.16,64.36-33.57.25-63.51-22.6-82.74-41.8-3-3-5.95-6.17-9-9.69Zm13.14,16c27.21,26.55,55.39,40.44,81.63,40.3,34.33-.24,60.69-25.83,67.14-65.19,7.83-47.78-3.94-97.87-15.33-146.3-5.2-22.14-10.58-45-13.79-66.83-9.53-64.73-7.17-131.74,7-199.18,3.6-17.16,8.47-34.62,13.63-53.1,13.57-48.68,27.61-99,18.56-146.31-7.21-37.62-32.77-61.12-66.74-61.33-26.76-.14-54.1,12.81-81.45,38.58,1.79-2,3.61-3.92,5.44-5.86,23.77-23.06,58.22-47.13,96.05-43.35,26.52,2.66,59,23.66,63.33,74.13,3.93,46-10.56,92.63-24.57,137.75-6.63,21.37-13.5,43.48-18.08,64.77a529,529,0,0,0-4.37,204c3.81,22.32,10.09,45.57,16.16,68,13,48.19,26.49,98,18.54,146.3-6.38,38.8-34.34,64.87-68.78,64.87q-2.22,0-4.47-.15c-28.92-1.87-59.18-17.74-83.29-43.6Q374.1,1077.48,370.83,1073.65Zm18.24,20.2c21.85,19,47.19,30.4,71.59,32,1.53.1,3,.15,4.54.15,34.94,0,63.3-26.4,69.77-65.71,8-48.49-5.51-98.43-18.56-146.72-6.07-22.46-12.35-45.68-16.14-68a528,528,0,0,1,4.35-203.65c4.58-21.25,11.44-43.33,18.07-64.69,14-45.2,28.55-91.95,24.6-138.13-1.62-19-8.19-36.71-18.5-49.83a65.18,65.18,0,0,0-45.72-25.2c-32.37-3.24-62.24,13.67-85.17,33q3.77-3.75,7.58-7.41c18.22-15.74,55.06-41.47,95.32-34.89a66.94,66.94,0,0,1,45,28.58c9.7,13.93,15.55,32.36,16.49,51.9,2.22,46.49-14,93.3-29.68,138.57-6.84,19.74-13.91,40.15-19.11,59.8a465.22,465.22,0,0,0-8.71,200.86c4.76,27.12,13.05,54.68,21.06,81.34,13.2,43.89,26.85,89.28,25.54,134.79-.56,19.7-5.5,37.69-14.27,52-10,16.32-24.18,26.89-42.17,31.43-35.41,8.93-69.53-10.09-91.92-27.63-3.33-2.6-6.64-5.44-10-8.55C391.69,1096.59,390.38,1095.22,389.07,1093.85Zm32-718.45c11.77-9.27,28.88-20.37,49.43-26.76,21.9-6.81,42.14-6.52,60.17.88,17.63,7.23,30.68,20.45,38.79,39.28,8.77,20.38,9.32,41.67,8.24,55.95-3.19,42.15-18.65,83-33.6,122.52-9.2,24.3-18.71,49.43-25.2,74.48-17.56,67.82-19.21,136.07-4.9,202.88,7,32.73,17.43,65,27.52,96.31l4,12.49c12,37.07,24.38,75.41,20.91,114.24-3.88,43.3-30.38,74.2-67.51,78.71-15.84,1.93-32.68-.73-50-7.89a147.65,147.65,0,0,1-39.85-24.81q-3.48-3.27-6.92-6.62l.27.22c40.89,32,73,32.79,92.79,27.81,18-4.54,32.78-15.56,42.77-31.88,8.87-14.48,13.86-32.65,14.42-52.52C553.7,1005,540,959.55,526.81,915.58c-8-26.63-16.28-54.16-21-81.22a464.07,464.07,0,0,1,8.69-200.44c5.19-19.6,12.25-40,19.09-59.72,15.71-45.36,32-92.27,29.73-139-.95-19.72-6.87-38.34-16.67-52.42a68,68,0,0,0-45.66-29c-26.35-4.3-56.7,5.16-84.52,25.7Q418.75,377.45,421.08,375.4Zm-1.45,747.93C441.69,1139.2,466.25,1148,489,1148a84.32,84.32,0,0,0,10.11-.6c37.62-4.58,64.46-35.83,68.38-79.62,3.5-39-8.93-77.47-20.94-114.64l-4-12.49C532.4,909.4,522,877.1,515,844.42c-14.27-66.65-12.62-134.75,4.9-202.42,6.48-25,16-50.1,25.16-74.38,15-39.58,30.46-80.5,33.67-122.79,1.09-14.39.53-35.86-8.33-56.43-8.21-19.08-21.44-32.47-39.32-39.81-18.25-7.48-38.72-7.79-60.84-.91a150.77,150.77,0,0,0-39.4,19.37c2.1-1.76,4.2-3.49,6.33-5.21,29.24-21.07,70.19-36.27,106.46-21.5C561.43,347.6,575.38,361,584,379c7.72,16.2,11,35.65,9.62,56.23-3,44.12-21.09,86.75-38.56,128-8.86,20.92-18,42.56-24.94,63.83-22,67.85-26.08,137.28-12,206.37,6.49,31.89,18.27,63.29,29.66,93.65,15,40,30.53,81.39,34,124.26,1.18,14.28.82,35.66-7.57,56.45-7.76,19.23-20.4,33-37.58,41-40,18.51-80.05-.3-100.37-13.16-4.4-2.79-8.73-5.81-13.07-9.14C422,1125.41,420.81,1124.38,419.63,1123.33Zm16.08,13.1c14.33,9.07,38.4,21.07,65.4,21.07a84.6,84.6,0,0,0,35.93-7.85c17.42-8.06,30.23-22,38.09-41.5,8.46-21,8.82-42.51,7.64-56.9-3.54-43-19.08-84.45-34.11-124.53C537.28,896.39,525.52,865,519,833.22c-14-68.92-10-138.18,12-205.86,6.9-21.23,16.06-42.85,24.91-63.75,17.5-41.31,35.59-84,38.64-128.3,1.43-20.75-1.93-40.37-9.71-56.73C576.18,360.31,562,346.77,544,339.42c-32.52-13.25-68.72-2.68-97.05,14.7,1.73-1.32,3.46-2.64,5.21-3.94l.52-.35c32.31-21.25,80.21-35.34,117.78-11.15,30.6,19.71,44.54,58.39,37.29,103.48-6.49,40.3-24.21,78.39-41.35,115.24-11.24,24.16-22.87,49.15-31.17,74.47-23.2,70.73-26.49,140.67-9.76,207.9,8.95,36,22.89,70.85,36.4,104.64q2.92,7.3,5.94,14.66c13.75,33.68,28,68.5,29.79,105.3,1.74,35.1-10.88,78.55-51.56,95.23-16.78,6.89-36.47,8.07-56.93,3.44a135.37,135.37,0,0,1-49-22.53q-3.88-3.1-7.73-6.28C433.47,1135,434.58,1135.72,435.71,1136.43Zm14.68,12.07A135.11,135.11,0,0,0,488.88,1164a109.82,109.82,0,0,0,24.26,2.8,87.41,87.41,0,0,0,33.27-6.28c41.16-16.88,53.94-60.77,52.18-96.21-1.84-37-16.09-71.87-29.86-105.63-2-4.9-4-9.78-6-14.73-13.47-33.68-27.39-68.5-36.33-104.44-16.68-67-13.4-136.79,9.74-207.34,8.28-25.26,19.89-50.22,31.13-74.36,17.17-36.91,34.92-75.07,41.43-115.5,7.32-45.49-6.79-84.55-37.74-104.48-34.29-22.09-77-12.65-109,5.17,2.31-1.64,4.64-3.25,7-4.85,43.46-26.48,84.26-23.5,108.86-11.12C595.48,335.91,609,350.73,617,369.9c7.31,17.51,9.81,37.74,7.22,58.5-5.62,45-27.18,86.94-48,127.48-11.57,22.51-23.54,45.79-32.49,69.12a357,357,0,0,0-23.27,105.58,348.72,348.72,0,0,0,10.19,107.57c8.54,33.63,23.58,66,38.12,97.31,18,38.64,36.53,78.61,42.85,121.07,3,20.11,1.74,39.87-3.61,57.14-6.13,19.76-17.16,35.16-32.78,45.78-27.87,18.94-66.57,19.57-103.51,1.69a168.83,168.83,0,0,1-17.51-9.79ZM471.28,1162c37.27,18,76.34,17.38,104.51-1.77,15.81-10.74,27-26.32,33.17-46.3,5.4-17.42,6.66-37.33,3.65-57.59-6.34-42.6-24.94-82.63-42.93-121.34-14.53-31.26-29.55-63.59-38.06-97.14a347.3,347.3,0,0,1-10.16-107.26,355.91,355.91,0,0,1,23.2-105.28c8.93-23.28,20.89-46.53,32.45-69,20.89-40.62,42.49-82.63,48.13-127.82,2.61-20.93.09-41.34-7.29-59-8.09-19.39-21.81-34.38-39.66-43.36s-38.92-11.52-61.23-7.5a143.4,143.4,0,0,0-38.68,13.24q3.12-2,6.27-4l1-.53c33.69-18,83-26.95,120.34,1.68,29.62,22.71,41.32,63.45,31.29,109-9,41-30.25,78.69-50.77,115.18-14,24.93-28.53,50.71-39,77.25C520.4,699.33,516.42,771.74,536,839.87c11.24,39.12,29.45,76.52,45.64,108.51q2.91,5.76,5.89,11.56c16.81,32.86,34.2,66.84,39.65,103.57,3.19,21.49,1.26,42.57-5.59,60.94-7.57,20.29-21,36.17-38.77,45.94-16.84,9.24-36.75,13.08-57.58,11.11a127.67,127.67,0,0,1-55.09-18.85q-3.44-2.34-6.84-4.73Q467.22,1160.06,471.28,1162Zm9.73,7.78a127.29,127.29,0,0,0,44.15,12.68c3.57.34,7.12.5,10.64.5a98.31,98.31,0,0,0,47.51-11.74c18-9.88,31.57-26,39.22-46.46,6.91-18.53,8.87-39.78,5.65-61.44-5.48-36.89-22.9-70.94-39.75-103.88q-3-5.79-5.89-11.55C566.37,916,548.19,878.63,537,839.6c-19.52-67.92-15.56-140.11,11.46-208.78,10.43-26.48,24.91-52.23,38.92-77.13,20.56-36.55,41.82-74.35,50.88-115.45,10.11-45.94-1.72-87.07-31.66-110-34.57-26.5-79.2-21.12-112.56-6.11l2.93-1.75c18.84-9.6,38.44-15.29,57-16.5,23.43-1.53,44.3,3.93,62,16.24a92.17,92.17,0,0,1,35.7,49.62c5.74,18.95,6.27,40.37,1.54,61.94-9.38,42.76-33.37,81.26-56.58,118.5-14.52,23.32-29.54,47.42-40.71,72.2a323.81,323.81,0,0,0-27.79,104.24,284.87,284.87,0,0,0,10.53,107.21c11.23,37.72,30.64,72.53,49.41,106.19,19.42,34.83,39.5,70.84,50.31,109.86,6.08,22,7.23,44.09,3.31,63.94-4.49,22.7-15.16,41-31.73,54.31-28,22.52-67.53,27.4-105.77,13a150.26,150.26,0,0,1-19.32-8.89C483.59,1171.46,482.3,1170.65,481,1169.82Zm22.84,12.28a124.25,124.25,0,0,0,43.71,8.18c23.43,0,45.48-7.25,63-21.38,16.76-13.49,27.56-32,32.09-54.9,4-20,2.8-42.27-3.33-64.4-10.84-39.13-31-75.2-50.4-110.08-18.74-33.61-38.12-68.37-49.32-106A283.89,283.89,0,0,1,529.14,726.7a322.92,322.92,0,0,1,27.7-103.92C568,598.06,583,574,597.49,550.7c23.25-37.31,47.29-75.89,56.7-118.81,4.77-21.74,4.23-43.33-1.55-62.45a93.16,93.16,0,0,0-36.09-50.15c-17.89-12.44-39-18-62.64-16.42a144,144,0,0,0-46.58,11.55q5.39-3,10.87-5.88l1.51-.65c21.52-8.95,45.24-12.38,66.81-9.64,23.78,3,44.34,13.3,59.46,29.72,26.86,29.17,33.29,71.93,17.65,117.33-13.07,37.92-36.06,72-58.3,104.94-18.74,27.76-38.11,56.47-51.59,87.48-31.11,71.57-31.75,150.71-1.8,222.83,14.75,35.52,35,68.64,54.65,100.66l4.15,6.77c20.93,34.16,42.57,69.47,48,109.52a116,116,0,0,1-8.35,61.64c-8.81,19.94-23.18,35.7-41.55,45.56-30.25,16.24-71.07,15.4-106.82-2.12-2.42-1.39-4.82-2.8-7.22-4.23C497.79,1179.7,500.81,1181,503.85,1182.1Zm7.66,5.78a132,132,0,0,0,48.38,9.44c17.76,0,34.81-3.9,49.42-11.74,18.57-10,33.1-25.89,42-46a117,117,0,0,0,8.43-62.19c-5.46-40.25-27.16-75.66-48.14-109.9l-4.15-6.77c-19.59-32-39.85-65.08-54.57-100.53a281.51,281.51,0,0,1,1.79-222c13.44-30.92,32.79-59.59,51.5-87.32,22.27-33,45.31-67.12,58.42-105.17,15.76-45.75,9.25-88.88-17.86-118.32-15.28-16.6-36.06-27-60.07-30-19.24-2.44-40.17,0-59.76,6.82l1.52-.76c20.14-8.21,40.75-12.28,59.92-11.79,23.84.63,44.66,8.07,61.89,22.13,33,26.93,45.53,71.55,32.75,116.45C670.7,473.19,642.88,510.19,616,546c-17.37,23.1-35.33,47-48.84,72.21a302.56,302.56,0,0,0-27,69.08,221.1,221.1,0,0,0-5.35,103.24,255.9,255.9,0,0,0,9.5,40.32c13.62,42.24,38.56,78.94,62.67,114.43,22.28,32.79,45.32,66.69,59.16,104.7,17,46.59,9.39,92.46-20.28,122.69-27.1,27.6-70,36.94-111.85,24.36a149.28,149.28,0,0,1-19.58-7.54ZM548,294.12c2.05-.73,4.12-1.43,6.23-2.09,49.26-15.33,99.55-1.34,128.11,35.64,25.49,33,28,79.59,6.62,124.64-16.33,34.47-40.89,64.51-64.65,93.55S576,605,559.41,639.71c-2.37,5-4.56,10-6.61,15q-3.59,7.41-6.6,15A308.51,308.51,0,0,1,568,618.65c13.47-25.15,31.41-49,48.76-72.08,27-35.86,54.83-72.93,67.15-116.19,12.9-45.29.22-90.31-33.08-117.49-17.4-14.21-38.43-21.73-62.49-22.36-16.11-.42-33.22,2.37-50.21,8.1Q543.05,296.32,548,294.12Zm463.59,54.47c29.72,38.29,46.81,80.76,55.92,109.66,16,54,21.19,110.78,21.73,158.57.08,19.58-.51,38.58-1.34,56.69-.3,6.53-.54,13.07-.76,19.63-1.48,43.53-1.6,87.24-1.72,129.76q0,18-.13,36.06-.1,6-.22,11.92c-3.66,169.1-55,284-152.7,341.84-3.9,2.1-7.72,4-11.45,5.7l-1.16.42c23.37-11.62,45.1-29,64.73-51.76a289.5,289.5,0,0,0,24-32.32l.58-.89c.5-.78,1-1.57,1.49-2.36a354.71,354.71,0,0,0,30.17-60,389.59,389.59,0,0,0,20.58-74c6.44-35.12,9.1-73.06,8.05-114.43,0-.58,0-1.17-.05-1.75,0-2.72-.11-5.45-.19-8.21-.45-16.2-1.8-32.63-3.11-48.51-1.24-15-2.5-30.46-3-45.82-.79-28.79,2.1-57.54,4.92-85.4.53-5.31,1.07-10.64,1.59-16,.19-2,.37-4,.56-6l.51-4.63c1.74-16.31,3.42-38,3.75-63,1.15-47.14-2.29-95.75-16.09-144.57q-2.17-8.29-4.72-16.56c-12-38.72-28.92-72-50.43-98.81a225.52,225.52,0,0,0-20.46-22.3,203.06,203.06,0,0,0-25.36-22.37,222.52,222.52,0,0,1,39,31.4Q1004.14,339,1011.62,348.59Zm16.61,21.88a292.88,292.88,0,0,1,15.91,27.84C1039.45,389.14,1034.17,379.79,1028.23,370.47Zm50.29,593.21a479.73,479.73,0,0,1-12.12,59A535.69,535.69,0,0,0,1078.52,963.68ZM1043.9,418c-11.34-27.19-26.62-54.75-45.61-78.61Q1026,372.13,1043.9,418ZM936.83,287.7q3.46,1.71,6.87,3.54a175.3,175.3,0,0,1,20.82,14.83A212.77,212.77,0,0,0,933,286.18Zm10.51,4.4,1.14.48a176.11,176.11,0,0,1,19.7,12.72A220.59,220.59,0,0,0,947.34,292.1ZM962.2,832c-9.38,15.6-20.75,30.09-33.16,44.09,1.81-2.56,3.56-5.17,5.25-7.79q6.35-8.65,12.23-17.75c26.44-41.12,36.54-87.15,28.42-129.61-5.11-26.73-16.71-53.2-35.91-81.48q-4-6.81-8.52-13.36c7.67,9.09,14.69,18.26,21.15,27.65,14.58,21.17,24.74,42.46,30.21,63.29q1.74,6.63,2.84,13.22C989.73,763.68,982.2,797.73,962.2,832Zm-345.6,398.5c31.24,4.72,60.7,0,86-13.78A128.74,128.74,0,0,0,765.3,1136c8.4-32.67,3.27-66-14.44-93.76-21.17-33.21-53.29-57.18-84.35-80.36-13-9.68-26.2-19.57-38.68-30.16q2.88,1.95,5.81,3.8c13.51,10.08,27.52,19.55,41.26,28.82,5.42,3.66,11,7.45,16.48,11.19,53,36.38,110.85,88.08,87.33,165.54-9.33,30.72-31.55,58.28-61,75.61-28.4,16.73-60.21,22.57-90.21,16.69Q622.07,1232,616.6,1230.47ZM556,1209.33l-2.25-1c36.52,10.64,71.18,7.7,99-8.71a111.52,111.52,0,0,0,54.88-96.2c-.24-43-24.31-79.71-45.25-106.87-8.45-11-17.12-21.81-25.5-32.3-19.13-23.92-37.68-47.14-54-71.89,6.09,8.63,12.8,17.42,20.16,26.46,10.63,13,22.85,25.92,35.8,39.56,21.23,22.36,43.18,45.48,59.27,70.89,18.21,28.76,26,56.24,23.67,84-2.93,35.75-22.32,67.48-53.19,87.06a121.65,121.65,0,0,1-104.21,12.37C561.51,1211.63,558.73,1210.5,556,1209.33Zm27-929.15a136.12,136.12,0,0,1,41.69-3.88c25,1.55,48,10,66.6,24.37,34.82,26.91,50.66,72.7,40.35,116.65-9.13,39-37.22,70.37-62.84,96.76q-6.91,7.13-13.9,14.22c-24.08,24.57-48.64,49.65-69.53,77.48q-4.39,5-8.45,10.21a391.75,391.75,0,0,1,29.67-41.13C616.31,563,627,551.43,638.28,539.2c34.55-37.38,70.28-76,79.92-125.27,7.62-38.91-5.09-79.06-33.19-104.77-24-22-52-28.88-77.84-28.88a167.39,167.39,0,0,0-35.2,4Q577.43,282.15,582.94,280.18Zm29-9.34c37.46-7.43,77,.76,106.24,23.14,31.82,24.38,50.17,63.72,47.87,102.67-1.9,32.34-18.09,63-49.5,93.75-17.28,16.93-36.49,32.43-55.06,47.43-16.84,13.59-34,27.47-50,42.62q-4,3.3-7.9,6.8c13.57-14.81,28.45-28.56,43-42l1.69-1.56c4.76-4.41,9.75-8.92,14.58-13.29,21.12-19.1,43-38.85,59.73-61.5,19-25.7,28.49-51.41,28.91-78.58.54-35.61-14.66-67.69-42.8-90.33A132.64,132.64,0,0,0,605,272.89C607.35,272.19,609.67,271.5,612,270.84Zm170.5,109.91c-3-33.89-19.43-64.44-46.34-86.05A141.16,141.16,0,0,0,648,264.08q-6,0-12.08.51,3.5-.81,7-1.59c34.42-4.57,69.59,3.59,97.84,23.4C773,309,793,343.78,795.6,381.77c2.55,37.39-12.15,73.84-40.34,100C731.32,504,703,521.63,675.65,538.69c-9.1,5.68-18.32,11.44-27.46,17.4q-4.66,2.46-9.22,5.15c13.13-10.25,27.6-21,44.07-32.76C736.57,490.26,788.34,447.38,782.49,380.75ZM692.08,254.83h.5c70.88,0,133.22,49.89,148.35,118.81,17.64,80.36-45.8,121.88-85.19,139.48-12.22,5.46-25,10.31-37.29,15-9.57,3.64-19.36,7.37-29,11.42l-1.53.44,7.26-3.23c34.61-15.38,70.41-31.29,97.82-57.05,24.93-23.42,37.48-55.47,35.35-90.23-2.52-41.13-24.62-80.75-59.11-106a148.11,148.11,0,0,0-81.08-28.2c1.18-.15,2.37-.28,3.56-.42ZM891.94,409c-3-43.42-28.51-92.26-63.45-121.52-18.1-15.16-45.7-30.6-75.59-36h2.28c33.56,4.26,65,19,91,42.65a185.19,185.19,0,0,1,53.38,86.64c10.47,36.94,8.18,72.43-6.27,97.36C880.5,500.24,856.68,515,822.47,522c-16.22,3.31-32.88,5-49,6.63-7.51.76-15.19,1.55-22.86,2.49H750c42.62-6,89.29-13.85,117.1-44.61C885.44,466.14,894,439.37,891.94,409ZM771.62,252c31.93,4.66,64,20.42,89.6,44.81s47.16,61.65,56.46,97.58c11.05,42.74,4.29,80.41-19,106.05-29.14,32-80,31.85-125,31.68H771q-6.54-.62-13.15-.84c5.28-.59,10.53-1.13,15.7-1.65,16.13-1.63,32.81-3.32,49.08-6.65,34.5-7.05,58.55-21.94,71.48-44.26,14.58-25.17,16.9-60.93,6.36-98.13a186.15,186.15,0,0,0-53.67-87.11c-24.21-22-53.14-36.38-84.11-41.78C765.7,251.73,768.66,251.84,771.62,252Zm62.28,6.54c31.6,8.68,63.05,28.64,88,56.6s46.09,68.1,56.17,107c15.08,58.26,2.72,96-10.3,117.33-11.7,19.21-31.28,27.73-59.83,26.06-22.56-1.33-47.11-8.72-69.42-15.87q-7.81-3.45-15.91-6.28l5.74,1.15c19.21,3.86,39.07,7.87,59,8.63,37.38,1.42,62-13,73.31-42.76,7.54-19.93,13.75-54,.56-103.2-9.69-36.09-27.66-69.25-52-95.89-23.86-26.16-53-44.8-84.6-54.28C827.76,257.49,830.83,258,833.9,258.51Zm36.91,7.71A165,165,0,0,1,901,281.7a224.48,224.48,0,0,1,51.89,46.91c25.77,31.74,44.44,71.12,54,113.87,14.89,66.7,5,107.39-5.88,129.78-9,18.43-22.57,27.17-41.57,26.7-16.51-.4-34.51-7.64-51.51-15.4-9.28-4.24-18.65-8.85-27.7-13.3-6.74-3.31-13.56-6.67-20.47-9.93,18.84,7.14,39.06,14,58.7,18.32,37.68,8.3,63.47-6.15,74.58-41.79,12-38.42,6-80.75-1.16-109.5-9.49-38.18-27.91-75.31-51.86-104.56-23.38-28.54-51.35-48.89-81.6-59.51Q864.61,264.67,870.81,266.22Zm68.39,57.22c23.86,29.13,42.21,66.12,51.66,104.16,7.12,28.62,13.09,70.76,1.18,109-10.94,35.06-36.33,49.27-73.42,41.1-22.15-4.88-45.06-13-65.88-21.1-2.36-1.25-4.75-2.46-7.15-3.62,20.33,6.36,42.09,12.39,62.31,13.57q3.55.21,6.93.21c25.23,0,42.87-8.79,53.82-26.74,13.12-21.54,25.57-59.51,10.41-118.1-10.12-39.07-31.2-79.24-56.39-107.45a203.26,203.26,0,0,0-53-42.51,166.74,166.74,0,0,0-26.76-11.83q2.61.5,5.21,1C882,270.46,913.39,291.92,939.2,323.44ZM750,965.92A216,216,0,0,1,537.6,789a244.15,244.15,0,0,1,2.54-90.1A216,216,0,1,1,750,965.92ZM966.2,784.56a200,200,0,0,0,2.58-41.83,219.56,219.56,0,0,0-6.31-45.8,194.34,194.34,0,0,1-5.53,124.78A216.83,216.83,0,0,0,966.2,784.56Zm-17.77,58.16c28.22-53.38,30.17-115.06,6-171.32a216.86,216.86,0,0,0-9-20.16c14.81,24,24.07,46.83,28.47,69.85,8.07,42.22-2,88-28.28,128.89q-2.13,3.3-4.34,6.55Q945.14,849.75,948.43,842.72ZM908.54,312c24.2,26.52,42.09,59.54,51.73,95.48,13.13,48.92,7,82.79-.52,102.59-11.1,29.35-35.43,43.52-72.34,42.11-19.85-.76-39.67-4.75-58.84-8.61-4.48-.91-9-1.82-13.6-2.7-1-.31-2-.6-3-.89,17.29,2.58,35.16,4.94,52.2,4.94,27,0,52-5.93,69.19-26.26,27.29-32.26,20.91-83.16,14.68-110.63-9.08-40-29.37-77.42-57.14-105.32a195.31,195.31,0,0,0-53.53-38.2,157.8,157.8,0,0,0-22.92-8.87c.84.1,1.68.21,2.51.33C851.29,264.56,882.94,283.93,908.54,312Zm-18.32-8.58c27.64,27.76,47.84,65,56.88,104.83,6.18,27.29,12.54,77.83-14.47,109.76-29.44,34.81-82.24,26.83-128.9,19.7-2.77-.69-5.55-1.32-8.35-1.91a532.06,532.06,0,0,0,55.12-.24c36.59-2.21,61.88-15.56,75.19-39.66,8.7-15.75,20.82-50.56,4.34-106.79a213.38,213.38,0,0,0-54.51-90.9c-23.44-23-50.5-38.18-79-44.55q5.29.48,10.57,1.08C840.09,262.71,870.23,283.32,890.22,303.4Zm-15.4-4.5a212.38,212.38,0,0,1,54.25,90.47c16.38,55.89,4.37,90.42-4.25,106-13.14,23.78-38.16,37-74.38,39.14a546.3,546.3,0,0,1-61.89-.09q-4.32-.75-8.67-1.34c43.54.1,91.4-1.14,119.5-32,12.5-13.73,20.32-30.57,23.24-50,2.62-17.46,1.28-36.61-4-56.93-9.33-36.1-31.07-73.68-56.73-98.06-23.67-22.5-52.74-37.69-82.18-43.68q3.56.21,7.09.46C818.61,257.68,848.93,273.53,874.82,298.9ZM680.94,256.22c30-.61,62,9.26,87.69,28.06,34.26,25.07,56.21,64.42,58.71,105.25C829.46,424,817,455.75,792.3,479c-27.28,25.64-63,41.52-97.54,56.87-5,2.22-10,4.46-15.07,6.74-2.41.81-4.8,1.67-7.17,2.56,15.94-9,32.11-18.09,48-27.21,32.42-18.58,55.64-37.62,71-58.2,19.49-26.17,26.3-55.48,20.23-87.13-6.61-34.5-26.31-65.43-55.47-87.1-24.46-18.17-52.93-27.75-81.72-27.75-1.46,0-2.92,0-4.38.08Q675.55,257,680.94,256.22Zm27.14,44.53c27.9,22.45,43,54.24,42.43,89.54-.41,26.95-9.81,52.47-28.72,78-16.71,22.56-38.51,42.28-59.59,61.35-4.83,4.37-9.83,8.88-14.59,13.29l-1.69,1.56c-17.34,16-35.13,32.49-50.65,50.65l-.07.06c-.78.78-1.54,1.58-2.3,2.37,19.29-24.32,41.16-46.64,62.66-68.57q7-7.11,13.9-14.23c25.71-26.48,53.91-58,63.1-97.22C743,373.22,727,327,691.84,299.88c-18.78-14.52-42-23-67.15-24.57a136.86,136.86,0,0,0-33.84,2.12q2.73-.92,5.47-1.8C635.38,266.48,677.15,275.87,708.08,300.75ZM904.8,595.2q-3.82-3.81-7.8-7.42c15.46,11.36,30.4,23.47,45.06,35.36l2.5,2c2.84,2.31,5.75,4.77,8.56,7.15,10.52,8.91,21.4,18.12,33.69,23.63A29.71,29.71,0,0,0,999,658.77a23.11,23.11,0,0,0,9-1.82c12.26-5.16,20-20.37,24.41-32.22,15.15-41.12,18.43-89.87,9.48-141-8.28-47.29-26.83-94.11-52.26-131.84a238.51,238.51,0,0,0-52.78-56.43A184.37,184.37,0,0,0,906,276.38c1.08.35,2.16.7,3.23,1.07C949.11,294,983.77,325.79,1010,370.18c24.2,41,40.84,92.23,46.85,144.13,5.23,45.24,2.31,93.36-8.68,143-.3,1.33-.61,2.78-.94,4.34-3.77,17.58-10.79,50.29-26.34,56.7-8,3.31-13.87-4.48-19.51-12-.74-1-1.48-2-2.21-2.92-3.46-4.47-6.78-9.25-10-13.87-2.08-3-4.23-6.07-6.38-9-24.87-34.15-50.89-62.63-77.48-84.87Zm-7.16-321.49a177.48,177.48,0,0,1,38.65,22.58,237.71,237.71,0,0,1,52.56,56.19c25.34,37.61,43.84,84.3,52.1,131.45,8.91,50.93,5.65,99.5-9.44,140.46-4.3,11.66-11.92,26.62-23.86,31.64-6.24,2.62-13.11,2.28-20.43-1-12.16-5.46-23-14.62-33.45-23.48-2.82-2.39-5.74-4.85-8.58-7.16l-2.5-2c-17.55-14.24-35.52-28.8-54.3-42l-.34-.27c18.93,11.42,38.39,23,57.9,33.61,15.2,8.22,31.31,15.76,46.51,9.81,14.18-5.54,24.36-20.77,31.12-46.55,11.75-44.81,6.06-91.74-.79-123.22-8.95-41.19-25.92-79.75-49-111.51-24-33-53.25-57.07-86.94-71.73Q892.23,272,897.64,273.71Zm-18.82-5.42c36.74,14.16,68.4,39.24,94.11,74.52,23.05,31.64,40,70.07,48.89,111.14,6.82,31.37,12.49,78.13.79,122.75-6.67,25.44-16.65,40.45-30.52,45.87-14.79,5.79-30.67-1.65-45.67-9.76C924.66,601,903,587.91,882,575.23l-.39-.24q-7-5.26-14.28-9.93,6.27,3,12.46,6.1c9.06,4.45,18.43,9.06,27.72,13.31,17.1,7.8,35.22,15.08,51.91,15.49l1.46,0c18.66,0,32.09-8.94,41-27.28,11-22.53,20.92-63.45,6-130.44-9.58-42.9-28.31-82.42-54.19-114.28-22.24-27.39-48.91-48.21-75.93-60l.93.25Zm-51,20c34.74,29.1,60.1,77.65,63.09,120.82,2.09,30.05-6.43,56.57-24.62,76.69C837.21,518,787,524.94,742.78,531.08l-1.37.18c-4.34.17-8.66.45-12.95.87,4.71-1.17,9.4-2.29,14-3.4,15-3.6,30.57-7.32,45.58-12.13,22.59-7.25,54.62-20.06,72-47.48,17.25-27.26,20.57-64.1,9.11-101.06a174.51,174.51,0,0,0-56.52-82.93c-23.81-19.26-50.67-30.64-78.46-33.38q6.12-.18,12.27-.23C778.52,255.71,808.58,272.16,827.85,288.29ZM724.34,252.15c31,.78,61.24,12.38,87.66,33.76a173.46,173.46,0,0,1,56.19,82.44c11.38,36.69,8.1,73.22-9,100.23-8.23,13-24.58,32-71.44,47.07-15,4.8-30.49,8.52-45.5,12.11-7,1.68-14.19,3.41-21.35,5.24-1.59.21-3.18.44-4.77.68l3.93-1.14c40.49-11.81,82.35-24,112-53.42,20.42-20.23,30.31-47.36,28.58-78.46-2.33-42.09-26.8-88.51-60.89-115.5A152.67,152.67,0,0,0,717,252.57C719.47,252.41,721.9,252.27,724.34,252.15Zm74.82,33.79c33.87,26.83,58.19,72.95,60.51,114.78,1.71,30.8-8.07,57.67-28.29,77.69-29.48,29.22-71.22,41.39-111.59,53.17-4.06,1.18-8.16,2.38-12.27,3.6q-5.29,1-10.51,2.33c7.29-2.93,14.6-5.72,21.79-8.46,12.34-4.69,25.1-9.55,37.35-15,39.66-17.72,103.55-59.55,85.76-140.61C827.19,306.35,768.05,257.18,699.66,254q4.49-.44,9-.8C740.54,253.68,772.9,265.15,799.16,285.94ZM660,259.58c33.42-3.81,67.28,5.62,95.68,26.73,28.95,21.51,48.52,52.23,55.08,86.48,6,31.36-.73,60.41-20,86.34-15.26,20.47-38.37,39.42-70.68,57.94-18,10.34-36.44,20.7-54.43,30.81-3.07,1.29-6.12,2.63-9.13,4.06,6.58-4.2,13.17-8.33,19.7-12.4,27.41-17.09,55.75-34.76,79.76-57,28.41-26.37,43.23-63.11,40.66-100.8-2.62-38.29-22.76-73.32-55.26-96.12a139.46,139.46,0,0,0-89.28-24.49Q656,260.3,660,259.58ZM626,267l3.56-.74c38-5,76.66,5.66,106,29.2,26.7,21.43,43,51.75,46,85.36,5.81,66.1-45.74,108.78-99,146.82-19.41,13.86-36.05,26.33-51,38.21q-5.44,3.52-10.69,7.37c13.47-12.1,27.54-23.46,41.38-34.64,18.59-15,37.81-30.53,55.13-47.48,31.59-30.93,47.88-61.81,49.8-94.42,2.31-39.27-16.18-78.94-48.27-103.51-27.1-20.77-63-29.41-98-24.82C622.55,267.91,624.27,267.46,626,267ZM562.93,287.8l1.86-.65,2.05-.71c59.82-14.74,96.91,4.62,117.5,23.46,27.84,25.47,40.43,65.26,32.88,103.84-9.59,49-45.21,87.51-79.67,124.78-11.31,12.24-22,23.8-31.79,35.71a387,387,0,0,0-35.49,50.7q-5.85,8.36-10.86,17.18c.3-.65.59-1.31.91-2,16.5-34.59,41-64.62,64.8-93.65s48.39-59.17,64.78-93.76c21.5-45.39,19-92.37-6.74-125.67C655,290.6,606,276.3,557.41,290.07Q560.16,288.92,562.93,287.8ZM525.2,1195.07c2.73,1,5.57,2,8.53,2.89,42.26,12.68,85.5,3.25,112.85-24.62,29.95-30.52,37.62-76.77,20.51-123.74-13.88-38.12-37-72.07-59.27-104.91-24.07-35.43-49-72.07-62.55-114.18-1.72-5.33-3.24-10.7-4.6-16.1a216,216,0,0,0,8.3,22.52q4.34,11.94,9.86,23.71c16,34,37.91,64.15,62.77,97.25q3.14,4.18,6.32,8.38c25.13,33.24,51.1,67.61,60,108.59,9.68,44.86-6.56,89.64-41.36,114.08-30.33,21.31-70,25.13-111.73,10.75l-1.26-.56-1.16-.52Q528.78,1196.87,525.2,1195.07Zm58,14.19c23.63,0,45.47-6.55,63.9-19.5,35.13-24.68,51.52-69.86,41.76-115.11-8.89-41.2-34.94-75.66-60.13-109q-3.18-4.2-6.32-8.38c-24.83-33-46.68-63.17-62.67-97.07-1.55-3.29-3-6.59-4.41-9.89a218.24,218.24,0,0,0,18,29c18.33,30,40.14,57.33,62.75,85.62,8.38,10.48,17,21.32,25.49,32.28,20.84,27,44.8,63.55,45,106.26a110.52,110.52,0,0,1-54.39,95.34c-29.88,17.64-67.8,19.57-107.41,5.64l-3.5-1.61A146.27,146.27,0,0,0,583.19,1209.26ZM575,1216.9a121.73,121.73,0,0,0,28.35,3.35,123.07,123.07,0,0,0,65.73-19c31.14-19.75,50.7-51.75,53.66-87.81,2.3-28-5.49-55.7-23.82-84.64-16.15-25.5-38.13-48.66-59.4-71-12.93-13.63-25.14-26.49-35.74-39.5-6.65-8.16-12.74-16.11-18.35-23.92q2.6,2.94,5.29,5.81c16.64,20.54,35.78,39,54.45,56.93,22.11,21.28,45,43.28,63.34,68.5,23.55,32.34,32.74,73.17,24.59,109.22-7.27,32.11-26.85,57.61-56.63,73.74-29.38,15.91-64.73,19.26-98.31,9.57Zm101.95-7.52c30-16.28,49.79-42,57.12-74.39,8.22-36.34-1-77.47-24.75-110-18.42-25.29-41.31-47.32-63.46-68.63-15.85-15.24-32-30.84-46.75-47.76q2.52,2.4,5.1,4.69c15,15.46,31.07,29.56,45.91,42.61l6.85,6c25.53,22.36,54.47,47.7,73.64,76.45,21.92,32.87,27.93,65.46,18.37,99.63-9,32.24-29.41,57.49-59,73-27.35,14.39-60.58,19.15-93.58,13.42q-4.27-1.39-8.55-2.87C618.6,1228,650.2,1223.84,676.9,1209.38Zm-53.24,18.39c23.8,0,46.83-5.42,66.78-15.9,29.8-15.68,50.36-41.14,59.45-73.65,9.64-34.47,3.59-67.33-18.5-100.46-19.25-28.86-48.23-54.25-73.81-76.64l-6.85-6c-12.05-10.6-24.89-21.89-37.34-34,2.08,1.67,4.18,3.31,6.31,4.9,14.6,13.11,30.61,25.07,46.21,36.71,31,23.13,63,47,84.1,80.09,17.57,27.56,22.65,60.58,14.32,93a127.74,127.74,0,0,1-62.2,80.06c-27.7,15.13-60.41,19.22-95,11.93-1.53-.45-3.06-.91-4.58-1.38A159.9,159.9,0,0,0,623.66,1227.77Zm14.66,8.2a122.1,122.1,0,0,0,12.25.63c23,0,46.32-6.47,67.69-19.06,29.62-17.45,52-45.22,61.41-76.18,23.7-78.08-34.43-130.08-87.72-166.66-5.46-3.74-11.07-7.53-16.49-11.19-10.85-7.32-21.87-14.77-32.67-22.54q4.26,2.4,8.61,4.6c11.46,7.35,23.64,14.3,35.54,21.07,39.18,22.3,79.7,45.36,100.53,85.15,14.65,28,16.41,61.07,5,93.17-10.81,30.28-32.63,57-59.88,73.34a140.36,140.36,0,0,1-91.06,18.38Zm94.74-16.82c27.45-16.44,49.43-43.36,60.31-73.86,11.55-32.36,9.76-65.73-5-94-21-40-61.61-63.19-100.92-85.56-9.73-5.54-19.16-10.91-28.2-16.45q3.51,1.6,7.06,3.08c8.33,4.39,16.71,8.63,25,12.78,11.94,6,24.28,12.23,36.16,18.77,31,17.09,61.9,37.22,77.51,68.52,13.67,27.41,14.36,62.91,1.84,95a147.86,147.86,0,0,1-59.64,71.32,145.27,145.27,0,0,1-88.44,21.43q-3.9-.72-7.78-1.5A141.31,141.31,0,0,0,733.06,1219.15Zm-66,22.5c1.18,0,2.36,0,3.55,0a147,147,0,0,0,77.07-22.09,148.94,148.94,0,0,0,60-71.8c12.62-32.31,11.92-68.12-1.88-95.78-15.73-31.54-46.75-51.78-77.92-68.94-11.89-6.55-24.25-12.77-36.19-18.79-5.62-2.83-11.3-5.69-17-8.61q8.88,3.24,18,5.71c49.34,19.41,107.47,44.18,129.59,92.16,28.2,61.16-10.49,134.47-62.49,167.31-26,16.44-56.85,23.75-89.58,21.33Zm93.37-19.94c52.36-33.07,91.29-106.93,62.87-168.58-20.34-44.13-70.75-68.69-117-87.45l5.71,2c16,5.54,32.6,11.27,48.52,17.9,24.67,10.28,59.38,27.64,75.79,59.47,13.7,26.57,14.44,62.47,2,96C815,1203.69,757,1244.43,690.24,1245c-3.5-.42-7-.87-10.48-1.36C709.14,1244.09,736.74,1236.66,760.4,1221.71Zm78.78-80.3c12.54-33.83,11.78-70-2-96.85-7.93-15.38-24.47-38.34-76.3-59.93-15.94-6.65-32.53-12.38-48.57-17.92l-6.46-2.24q3.48.71,7,1.31c6.54,1.89,13.32,3.72,20.33,5.61,49,13.22,104.56,28.2,123.08,78.75,13.62,37.16,4.58,72.43-5.4,95.46-12.91,29.82-35.46,57.12-61.86,74.91-25.3,17-54.58,26.1-83.6,26q-4-.36-8-.78C761.45,1242.51,816.62,1202.22,839.18,1141.41ZM714.35,1247.25a151.7,151.7,0,0,0,75.14-25.91C816,1203.45,838.72,1176,851.71,1146c10-23.2,19.15-58.73,5.42-96.2-18.7-51-74.51-66.1-123.76-79.38q-6.48-1.74-12.7-3.46c2.7.36,5.4.68,8.12.94l2.79.56c20.32,4,41.32,8.24,61.54,14.12,43.18,12.55,69.17,33.2,79.44,63.13,9.6,28,7.33,61.85-6.39,95.4A177.28,177.28,0,0,1,808,1216.3c-25.73,19.15-55.29,30-85.69,31.44C719.67,1247.6,717,1247.43,714.35,1247.25Zm16.18.88c27.71-2.86,54.5-13.47,78.09-31a178.31,178.31,0,0,0,58.48-75.61c13.81-33.77,16.08-67.9,6.4-96.11-10.38-30.25-36.58-51.11-80.1-63.76-18.54-5.39-37.71-9.36-56.41-13.1,1.73.1,3.48.18,5.22.24,6.38,1,12.94,2,19.78,2.93,54.78,7.75,116.88,16.53,129.57,79.18,6,29.74,1.65,62-12.65,93.23-13.35,29.18-34.6,55.35-59.84,73.7a158.35,158.35,0,0,1-84.86,30.45Zm19.47.37c-2.28,0-4.57,0-6.85,0a159,159,0,0,0,76.51-29.84c25.38-18.45,46.74-44.76,60.16-74.1,14.39-31.44,18.79-63.89,12.72-93.84-12.83-63.34-75.3-72.18-130.41-80q-6.35-.9-12.41-1.79H750c2.24,0,4.47,0,6.69-.12,3.65.21,7.27.4,10.86.59,22,1.14,44.68,2.33,66.6,7.08,28.46,6.18,64.23,22.6,73,65.78,6.06,29.79,1.62,63.11-12.85,96.33a191,191,0,0,1-56.77,74,175.53,175.53,0,0,1-84.3,35.93Zm27-.72c26.05-5,51.89-17.15,74.51-35.45,25.27-20.44,46.52-48.68,59.83-79.5,14.29-33.08,18.77-67,13-98-6.24-33.3-27-54.08-63.32-63.51-18.44-4.78-39.08-6.1-59.07-6.1-3.5,0-7,0-10.42.11l8.18-.79c21.73-2.12,44.2-4.31,66.36-2.46,40.32,3.36,65.46,24.47,72.69,61,5.89,29.74,1.85,63.86-11.66,98.66-25.84,66.55-80.27,114.36-142.52,125.53C782.05,1247.49,779.54,1247.65,777,1247.78Zm15.51-1.06C851.86,1233,903.13,1186.23,928,1122.15c13.58-35,17.64-69.28,11.71-99.21-7.32-37.06-32.77-58.44-73.59-61.85-22.25-1.85-44.76.34-66.54,2.46l-2,.19c5.91-1.3,11.75-2.86,17.51-4.64,26.74-5.07,56.11-9.14,81.57-5.67,18,2.46,32.4,10.34,42.65,23.41,9.28,11.84,15,27.6,17,46.84,3.39,32.32-2.54,67.08-17.15,100.52-14.07,32.19-35,60.74-60.5,82.55a174.19,174.19,0,0,1-82.61,39.65Zm12.87-1.25a175.51,175.51,0,0,0,74-38c25.62-21.91,46.64-50.58,60.77-82.91,14.68-33.59,20.64-68.53,17.22-101-4.32-41.13-25.82-66.4-60.54-71.13a154.55,154.55,0,0,0-20.64-1.3c-17.7,0-36.32,2.49-54.05,5.65l2.74-1,2.55-.66c25.4-6.56,51.67-13.34,78-14.31,22.89-.85,40.25,6.71,51.62,22.46,26.23,36.37,14.14,108.34.37,145.16-12.36,33-32.6,64.46-57,88.53-25.14,24.81-53.76,40.94-83.25,47Q811.29,1244.82,805.41,1245.47Zm22-2.92c26.12-7.45,51.31-22.71,73.73-44.84,24.5-24.17,44.82-55.74,57.23-88.89,8.15-21.78,13.76-49.29,15-73.6,1.11-21.72-.67-51.93-15.5-72.5-11.57-16-29.22-23.74-52.46-22.87-24.43.9-48.78,6.79-72.44,12.87q2.59-1.08,5.18-2.2c6.62-2.13,13.21-4.39,19.67-6.61,20.7-7.11,42.1-14.47,64-17.19,15.82-2,29.29,1.31,40,9.72,17.62,13.79,23.83,37.62,25.94,55.19,3.88,32.37-.36,67.67-12.25,102.07a264.64,264.64,0,0,1-51.82,89.09c-26.9,30.15-59.72,50.88-93.55,59.32Zm12.17-2c30.77-9.73,60.31-29.46,84.92-57a265.52,265.52,0,0,0,52-89.42c11.94-34.55,16.2-70,12.3-102.52-3.86-32.17-16.44-48.13-26.31-55.86-8.92-7-19.64-10.48-32-10.48a70.28,70.28,0,0,0-8.8.56c-22,2.73-43.47,10.1-64.21,17.23-3.82,1.31-7.69,2.64-11.59,3.95q6.5-3.17,12.77-6.76l6.47-3c23-10.52,46.74-21.39,71.12-27.28,21-5.08,37.49-1.36,48.88,11.08,17.61,19.23,19.91,55.46,18.73,82.46-1.4,32-8.27,65-14.47,83.36-12,35.67-30.89,68.42-54.65,94.7-25.29,28-55.71,47.86-88.15,57.66C844.24,1239.63,841.89,1240.08,839.54,1240.5Zm15.39-3c29.58-10.57,57.24-29.51,80.54-55.29,23.85-26.38,42.82-59.25,54.86-95,10.64-31.62,29.34-129.9-4.48-166.82-11.65-12.72-28.42-16.55-49.84-11.37-23.92,5.77-47.19,16.3-69.71,26.61l1.54-1c11.42-5.76,22.54-12.23,33.37-18.53,14.5-8.44,29.5-17.17,45.06-24.1,18.23-8.13,41.15-14.6,56.76,7.61,11.52,16.38,15,39.85,16.61,56.07,7.47,74.92-18,157.56-66.41,215.68-26.39,31.66-59.15,54.16-95.22,65.49Zm12.5-2.85c32.65-12.15,62.3-33.56,86.57-62.68,48.59-58.32,74.13-141.24,66.64-216.42-1.63-16.34-5.14-40-16.79-56.55-8.19-11.65-18.31-15.63-28.72-15.63-10,0-20.19,3.64-29.27,7.68-15.61,7-30.63,15.7-45.15,24.15-8.28,4.82-16.73,9.74-25.34,14.36q6-4.24,11.81-8.91c11.42-8,22.47-16.31,33.32-24.52,15-11.36,30.53-23.11,46.65-33.49,13.76-8.87,24.92-12.15,34.11-10,6.85,1.57,12.7,6.27,17.38,14,9.67,15.9,12.94,35.56,15.7,56,5.3,39.41,2.09,82.71-9.29,125.22-24.11,90.09-77.84,157.21-147.47,184.29Q872.51,1233.39,867.43,1234.62Zm17.83-4.66C951.62,1201,1002.67,1135.24,1026,1048c11.41-42.64,14.63-86.07,9.31-125.62-2.77-20.54-6.06-40.3-15.84-56.37-4.82-7.94-10.88-12.79-18-14.43-9.46-2.17-20.87,1.15-34.88,10.17-16.14,10.4-31.68,22.16-46.71,33.53-7.84,5.93-15.79,12-23.91,17.83,3-2.69,5.95-5.46,8.82-8.33.45-.45.88-.91,1.33-1.37,24.83-21.2,50.91-45.9,73.34-74.72,2.45-3.16,4.89-6.47,7.25-9.68,3.92-5.34,8-10.85,12.26-15.85,6.34-7.37,11.64-13,17.31-12.87,3.28.08,6.44,2.13,9.65,6.26,10.86,14,15,36.64,18.31,54.86.54,3,1.07,5.89,1.61,8.64,18.34,94.06,1.25,195.68-45.71,271.83-28.66,46.46-66.57,80.11-107.77,96C890,1228.59,887.64,1229.29,885.26,1230ZM1001,1132.42c47.09-76.35,64.22-178.24,45.84-272.54-.54-2.74-1.06-5.64-1.61-8.63-3.34-18.33-7.49-41.13-18.5-55.29-3.41-4.39-6.82-6.56-10.41-6.65h-.23c-6,0-11.44,5.74-17.86,13.22-4.32,5-8.38,10.56-12.32,15.91-2.35,3.2-4.79,6.51-7.23,9.65-20.17,25.92-43.32,48.52-65.85,68.23l.8-.9a392.11,392.11,0,0,0,32.14-37.26,251.07,251.07,0,0,0,17.39-25.84,182.39,182.39,0,0,0,19.93-45.79,130.18,130.18,0,0,0,2.62-56.39,143.22,143.22,0,0,0-6.43-26c-12.73-36.65-37-68.88-60.61-93.71q-3.13-3.8-6.45-7.45c23.88,21.14,47.26,47.33,69.71,78.15,2.15,3,4.29,6,6.37,9,3.22,4.63,6.56,9.42,10,13.91.73.94,1.46,1.92,2.2,2.9,5.59,7.48,11.93,16,20.69,12.35,16-6.6,22.86-38.41,26.93-57.41.34-1.56.65-3,.94-4.33,11-49.79,14-98,8.7-143.38-6-52-22.71-103.36-47-144.52-24-40.69-55.09-70.86-90.84-88.45l1.86.68a212.4,212.4,0,0,1,58.39,38.56C1017,357.67,1042.63,409.72,1056,455c.44,1.5.86,3,1.28,4.5,13.3,50.65,16.59,102.1,16,144.22-.56,22.94-2.2,45.53-4.25,67.62-.4,3.6-.79,7.2-1.19,10.79-3.23,29.11-6.57,59.21-6.09,89.08,0,2.52.11,5,.2,7.57,0,1.49.08,3,.14,4.46.62,15.18,1.82,30.58,3,45.47,1.33,17.23,2.7,35,3.21,52.63.79,43.2-1.81,81.35-8,116a399.15,399.15,0,0,1-24.93,84.27q-5.51,13-11.42,24.49a308.41,308.41,0,0,1-39.52,59.27c-22.92,26.6-48.86,46-77.24,57.86l-5.13,1.68C939.87,1207.66,974.41,1175.53,1001,1132.42Zm-69.63,82.06,1.51-.89c40.19-21.67,88.32-65.22,122-152.63,21-54.42,30.95-117,31.42-197,0-1.67,0-3.33,0-5,.36-22.17.44-44.49.51-66.17.11-32.67.24-66.26,1.34-99.67q.48-14.28,1.18-28.53c.71-14.38,1.11-30.48.92-47.75-.21-50.77-4.94-105.46-21.77-158.87h0c-1.17-3.92-2.37-7.83-3.65-11.71q-23.71-72-68.09-116.64a201.21,201.21,0,0,0-40.11-33.4l4.28,2c23.28,13.4,44.56,32.77,63.54,57.9,22.3,29.53,41.28,67.15,54.88,108.81,23,70.41,25.31,144.58,24.77,201.33q-.18,17.49-.3,35c-.43,55.83-.88,113.55-3.68,170.1-3.68,74.42-16.34,139.29-37.64,192.82-27,67.92-68,117.2-121.72,146.51Q936.09,1212.63,931.37,1214.48Zm132.06-149.94c21.34-53.63,34-118.61,37.71-193.14,2.8-56.57,3.25-114.31,3.68-170.14q.14-17.52.3-35c.54-56.83-1.79-131.1-24.82-201.65-13.63-41.76-32.66-79.49-55-109.1-16.79-22.23-35.38-40-55.55-53.08.55.27,1.11.53,1.66.81,51.78,29.88,90.41,81,114.91,152.08,19.47,56.5,30.17,126.12,31.81,206.94l0,2.14c2.52,124.46,5.38,265.53-40.86,385.65-19.68,51.1-57.15,118.48-124.88,155.66l-3.7,1.63C999,1177.49,1037.57,1129.51,1063.43,1064.54ZM961.82,1201.39c62.38-38.16,97.54-102,116.39-151,46.32-120.31,43.46-261.48,40.93-386l0-2.13c-1.64-80.92-12.36-150.65-31.86-207.25-22.88-66.37-58-115.37-104.69-146q7.16,3.78,14.17,7.77c55.79,39.64,87.8,110.76,103.06,154.32,23.63,67.47,29.11,138.51,31.36,199.1a1592.34,1592.34,0,0,1-5.53,202.56c-6.63,73-21,134.39-43.8,187.66-15.81,36.88-50.48,102.15-108.1,135.27Q967.82,1198.58,961.82,1201.39Zm23-11.55c51.52-34.76,83-94.44,97.87-129.11,22.88-53.36,37.23-114.85,43.88-188a1594.38,1594.38,0,0,0,5.53-202.69c-2.25-60.66-7.74-131.79-31.42-199.39-13.79-39.37-31.84-75-52.2-102.93a238.87,238.87,0,0,0-38.49-42c80.68,60.48,125.33,174.94,132.81,340.76,3.28,72.87,2.36,132.67-2.92,188.19-6.57,69.18-19.79,129-40.41,183-13.11,34.29-29.49,64.76-48.7,90.57-18.87,25.37-40,45.5-63.06,60.08Zm13.27-7.34c19.34-13.91,37.26-31.88,53.49-53.69,19.25-25.89,35.68-56.44,48.82-90.81,20.66-54,33.9-114,40.48-183.24,5.28-55.57,6.21-115.41,2.92-188.33-7.49-166.06-52.25-280.75-133.11-341.43q6.33,3.88,12.55,8c32.27,25.11,68.38,69.21,96.12,146.67,19.89,55.53,31.91,119.7,35.72,190.73,3.14,58.4,1,122.11-6.61,194.78-11,105.67-45.07,245.07-144.28,313.79Q1001.19,1180.73,998.13,1182.5Zm16.16-9.71c39.25-30.23,70.85-74.28,94.06-131.23,20.3-49.8,34.14-109.12,41.16-176.32,7.58-72.72,9.75-136.48,6.61-194.93-3.82-71.13-15.85-135.4-35.77-191-13.3-37.11-29.77-69.6-49-96.58A251.23,251.23,0,0,0,1035.54,342c41,34.24,72.68,82.45,94.19,143.58,18.69,53.09,29.9,115.07,34.28,189.47,3.8,64.66,2.6,125.36-3.57,180.42-7.19,64.27-21.38,123.09-42.17,174.83-25.11,62.5-59.56,110.06-102.5,141.59C1015.28,1172.17,1014.79,1172.49,1014.29,1172.79Zm11.57-7.46c38.7-31.5,70-76.69,93.34-134.69,20.82-51.82,35-110.73,42.24-175.09,6.17-55.12,7.37-115.88,3.56-180.59-4.38-74.5-15.6-136.56-34.32-189.75-20.91-59.4-51.37-106.64-90.7-140.78q5.94,4.26,11.77,8.69c29.45,25.95,62.24,68.85,87.13,139.57,18.74,53.26,30.58,112.86,35.19,177.14,4.09,57,2.53,117.95-4.64,181.06-16,141.26-59.83,242-133.82,307.78Q1030.77,1162.06,1025.86,1165.33Zm16.51-11.48c70.5-66,112.42-165.25,128.05-302.85,7.18-63.16,8.74-124.14,4.65-181.25-4.62-64.36-16.48-124-35.25-177.39-22.4-63.65-51.2-104.85-78.25-131.45,69.45,64.88,109.85,168.5,120.12,308.27,9.75,132.77-4.17,247.73-41.38,341.69-23.92,60.39-54.49,106.17-93.22,139.52C1045.52,1151.55,1044,1152.71,1042.37,1153.85Zm14.48-10.91c34.57-32.64,62.31-76,84.39-131.7,37.26-94.1,51.21-209.21,41.44-342.14-9.89-134.58-47.68-235.74-112.43-301.16q4.13,3.46,8.18,7c33.82,33.47,60.75,79.39,80.28,137,32.59,96.19,42.49,210.1,28.61,329.4-15.47,133-54.67,228.88-119.79,292.95Q1062.25,1138.71,1056.85,1142.94Zm95.47-142.75c17.14-45.89,28.91-97.8,36-158.7,13.89-119.44,4-233.5-28.67-329.83-17.73-52.36-41.59-95.08-71.16-127.62,1.81,1.67,3.61,3.35,5.39,5.06,30.9,33.29,55.44,75.88,73.06,126.86,16.14,46.69,26.61,100.69,31.11,160.48,8.78,116.59-3.93,222.66-37.78,315.28-19.49,53.3-46.78,97.89-81.21,132.76l-3.2,2.8C1107.69,1093.58,1133.39,1050.89,1152.32,1000.19Zm-63.74,115.69c30.41-33.48,54.78-75,72.63-123.82,33.9-92.75,46.63-199,37.84-315.69-4.51-59.89-15-114-31.16-160.73-15.88-46-37.39-85.11-64.09-116.81q5.58,5.61,11,11.38c23,28.32,42.34,64.64,57.89,108.55,32,90.44,42.7,197.38,30.83,309.26-5.84,55.05-16.53,105-31.77,148.54-17.64,50.36-42,93.71-72.24,128.92Q1094.09,1110.78,1088.58,1115.88Zm18.77-18.32c27.08-33.69,49-74.2,65.3-120.67,15.27-43.59,26-93.64,31.82-148.76,11.89-112,1.21-219.12-30.87-309.71-13.82-39-30.67-72-50.34-98.83,26.38,33.67,47.37,74.3,62.45,121,14.44,44.76,23.56,95.23,27.11,150,6.59,101.74-5,196.3-34.33,281.06-16.36,47.24-39.21,88.38-68,122.56Q1109,1095.92,1107.35,1097.56Zm13-13.83c24.62-32,44.46-69.38,59.12-111.69,29.41-84.89,41-179.58,34.38-281.46-3.56-54.87-12.7-105.42-27.16-150.25-13.46-41.71-31.61-78.56-54.09-110q4,4.8,7.92,9.7c20.46,28.85,37.45,64.16,51.5,106.84,27.21,82.66,35.52,180.17,24,282-11.35,100.63-39.84,182.08-84.71,242.24Q1125.93,1077.52,1120.32,1083.73Zm20.44-24.13c40-58.95,65.65-136.39,76.27-230.6,11.49-102,3.16-199.62-24.09-282.42-12.12-36.83-26.45-68.18-43.29-94.66.84,1.12,1.66,2.25,2.49,3.37,41,62.52,65.35,143,72.52,239.43,6.55,88.11-3.22,175.28-28.25,252.07-13.89,42.6-31.52,78.86-53.68,110.33C1142.08,1058,1141.41,1058.78,1140.76,1059.6Zm12.15-15.93c17.89-28.2,32.55-60.06,44.45-96.57,25.07-76.91,34.86-164.21,28.3-252.45-6.66-89.56-28.15-165.36-64-225.86q4,5.86,7.87,11.85c14.9,25.48,27.28,54.55,37.45,87.9,22.54,73.92,29.77,159.51,20.92,247.52-8.6,85.47-31.6,158.81-68.36,218.23Q1156.31,1039,1152.91,1043.67Zm76-227.51c8.87-88.14,1.62-173.86-21-247.91a434.35,434.35,0,0,0-28.17-71q4.68,8,9.07,16.09c25.19,51,40.52,114.44,45.66,189,5.27,76.48-2.57,152.26-22.65,219.15-9.91,33-21.43,61.35-35,86q-3.77,6.23-7.7,12.34C1201,963.12,1221,894.75,1228.94,816.16Zm-42,174a478.38,478.38,0,0,0,25.86-68.33c20.13-67,28-142.91,22.7-219.51-4.49-65.18-16.78-121.86-36.62-169.25q3,6.29,5.91,12.66a468.81,468.81,0,0,1,15.87,49,605.54,605.54,0,0,1,18.49,201.12c-5.08,66.26-21.47,130.18-47.51,185.59Q1189.4,985.75,1187,990.11Zm53.21-194.26a606.79,606.79,0,0,0-18.52-201.46q-4.52-16.8-9.62-31.82,5.09,12.49,9.45,25.2c28.29,88.58,31,195.6,6.46,295.54a497.17,497.17,0,0,1-21.56,67.48c-1.58,3.57-3.19,7.13-4.84,10.65C1222.46,910.86,1235.72,854.26,1240.2,795.85Zm-.53,47.09A556.12,556.12,0,0,0,1242.46,674,540.25,540.25,0,0,1,1239.67,842.94Zm2.24-172.86c-.07-.43-.13-.87-.2-1.3C1241.78,669.21,1241.84,669.65,1241.91,670.08Zm-24.52,253.64c4.29-12.91,8.13-26.25,11.56-40.17,18.22-74.07,21.46-152,10.42-223.54,13.49,83.26,8,168.93-15.87,246.33Q1220.61,915.07,1217.39,923.72Zm21.29-75.3c-.06.31-.11.63-.17,1C1238.57,849.05,1238.62,848.73,1238.68,848.42Z"/></svg>