<svg id="Abstract_Shape" data-name="Abstract Shape" xmlns="http://www.w3.org/2000/svg" viewBox="0 0 1500 1500"><path d="M1258.29,755.59l3.86-5.59-3.86-5.59h0l-.06-.08c-68.33-99-148.1-175.68-237.08-227.94C934.87,465.7,843.64,440,750,440s-184.87,25.7-271.15,76.38c-89,52.27-168.75,129-237.08,227.94l-.06.08h0L237.85,750l3.86,5.59h0l.06.08c68.33,99,148.1,175.67,237.08,227.94C565.13,1034.3,656.36,1060,750,1060s184.87-25.7,271.15-76.38c89-52.27,168.75-129,237.08-227.94l.06-.08ZM740,740H493.91V645c78.6-22.36,161.29-34.11,246.09-35Zm0,20V889.94c-84.79-.85-167.49-12.6-246.08-35V760Zm20,0h246.08v95c-78.59,22.36-161.29,34.11-246.08,35Zm0-20V610.06c84.79.85,167.49,12.6,246.08,35v95Zm266.08-89c70.43,21.86,134.75,51.73,191.76,89H1026.08Zm-20-26.73c-78.73-21.87-161.4-33.36-246.08-34.2V460.11c84.76,1.73,167.47,25.48,246.08,70.66ZM740,590.05c-84.69.84-167.35,12.34-246.09,34.2V530.77c78.62-45.18,161.33-68.93,246.09-70.66ZM473.91,740H282.16c57-37.29,121.33-67.16,191.75-89Zm0,20v89c-70.43-21.86-134.74-51.73-191.76-89Zm20,115.75C572.65,897.61,655.31,909.11,740,910v129.94c-84.76-1.73-167.47-25.48-246.08-70.66ZM760,910c84.68-.84,167.35-12.34,246.08-34.2v93.48c-78.61,45.18-161.32,68.93-246.08,70.66Zm266.08-150h191.76c-57,37.29-121.33,67.16-191.76,89Zm182.42-49.52c-55-33.4-116.15-60.36-182.42-80.43V542.78C1092.66,584.53,1153.8,640.77,1208.5,710.48ZM473.91,542.78v87.27c-66.26,20.07-127.37,47-182.41,80.43C346.2,640.77,407.34,584.53,473.91,542.78ZM291.5,789.52c55,33.4,116.15,60.36,182.42,80.43v87.27C407.34,915.47,346.2,859.23,291.5,789.52Zm734.58,167.7V870c66.27-20.07,127.38-47,182.42-80.43C1153.8,859.23,1092.66,915.47,1026.08,957.22Z"/></svg>