<svg id="Abstract_Shape" data-name="Abstract Shape" xmlns="http://www.w3.org/2000/svg" viewBox="0 0 1500 1500"><path d="M642.08,1065.75a87.08,87.08,0,1,0,75.52,43.64A87.22,87.22,0,0,0,642.08,1065.75Z"/><path d="M857.92,1065.75A87.13,87.13,0,1,0,945,1152.87,87.46,87.46,0,0,0,857.92,1065.75Z"/><path d="M837.13,965.91A87.13,87.13,0,1,0,750,1053,87.16,87.16,0,0,0,837.13,965.91Z"/><path d="M1088.5,969.44A87.21,87.21,0,0,0,1045,957.75h0a87.14,87.14,0,0,0-43.65,162.6,87.13,87.13,0,1,0,87.12-150.91Z"/><path d="M1237,835.43a87.15,87.15,0,0,0-159.62-21,87.1,87.1,0,0,0,31.89,119,87.13,87.13,0,0,0,127.73-98Z"/><path d="M980.55,782.5a87.17,87.17,0,0,0-43.47-11.69h0a87.14,87.14,0,1,0,75.37,130.71,87.14,87.14,0,0,0-31.89-119Z"/><path d="M1077.44,598.37a87.13,87.13,0,1,0,150.87.09,86.53,86.53,0,0,0-52.9-40.59,87.73,87.73,0,0,0-22.69-3,87.31,87.31,0,0,0-75.28,43.51Z"/><path d="M1045,542.25h0a87.16,87.16,0,1,0-75.55-43.58A87.11,87.11,0,0,0,1045,542.25Z"/><path d="M1012.44,598.48a86.57,86.57,0,0,0-52.91-40.59,87.61,87.61,0,0,0-22.69-3,87.16,87.16,0,0,0,.24,174.31h0a87.15,87.15,0,0,0,75.36-130.71Z"/><path d="M857.92,434.25a87.08,87.08,0,1,0-75.52-43.64A87.22,87.22,0,0,0,857.92,434.25Z"/><path d="M642.08,434.25A87.13,87.13,0,1,0,555,347.13,87.46,87.46,0,0,0,642.08,434.25Z"/><path d="M662.87,534.09A87.13,87.13,0,1,0,750,447,87.16,87.16,0,0,0,662.87,534.09Z"/><path d="M411.5,530.56A87.21,87.21,0,0,0,455,542.25h0a87.16,87.16,0,1,0-22.46-171.31,87.13,87.13,0,0,0-21,159.62Z"/><path d="M303.58,717.48A87.12,87.12,0,1,0,263,664.57,87.24,87.24,0,0,0,303.58,717.48Z"/><path d="M638.43,598.39a87.12,87.12,0,1,0-75.51,130.8h0a87.16,87.16,0,0,0,75.5-130.8Z"/><path d="M422.56,901.63a87.13,87.13,0,1,0-150.87-.09,87.14,87.14,0,0,0,150.87.09Z"/><path d="M455,957.75h0a87.16,87.16,0,1,0,75.55,43.58A87.11,87.11,0,0,0,455,957.75Z"/><path d="M562.92,770.81h0a87.16,87.16,0,1,0,75.55,43.58A87.15,87.15,0,0,0,562.92,770.81Z"/></svg>