<svg id="Abstract_Shape" data-name="Abstract Shape" xmlns="http://www.w3.org/2000/svg" viewBox="0 0 1500 1500"><path d="M932.33,435.43l-.24-.11c-8.26-3.72-17.17-7.55-25.58-11-7.69-3.16-15-6-20.9-8.17-18-6.52-47.77-15.49-66.44-20-8.85-2.13-20.82-4.6-33.2-6.87-2.86-.52-5.74-1-8.6-1.53q-3.57-.62-7-1.18c-6.92-1.12-13.41-2.07-18.77-2.74-11-1.36-26-2.59-40.23-3.38l-2.23-.12-4.42-.21c-7.29-.34-14.14-.54-19.85-.56A585.42,585.42,0,0,0,621,383.47a489.84,489.84,0,0,0-59,12c-8.3,2.35-19.15,6.07-29.53,10.05-6.22,2.38-12.28,4.86-17.53,7.2l-.93.42c-1.47.66-3,1.35-4.42,2.06-.83.4-1.69.82-2.57,1.27-3.53,1.77-7.4,3.86-11.37,6.12-2,1.13-4,2.3-6,3.49-8.05,4.79-16.05,10-22.09,14.38-.76.55-1.48,1.09-2.17,1.62a252.17,252.17,0,0,0-33.31,31.65c-.47.55-.91,1.08-1.33,1.6-1,1.24-2.07,2.6-3.16,4C420,489.53,411.18,504,406.7,514A174.58,174.58,0,0,0,399,535.63a170.11,170.11,0,0,0-4.9,21.11c-1.86,12.3-2.21,32.75-.79,45.59.53,4.82,1.56,10.8,2.88,17.07.22,1.05.45,2.1.69,3.16a240,240,0,0,0,7.44,26.75c.29.82.6,1.66.93,2.54,3,7.86,7.53,17.94,12.25,27.36,3.15,6.27,6.38,12.25,9.28,17.07,3.37,5.6,8.12,12.66,13.27,19.85,1.48,2.06,3,4.12,4.51,6.17s3.05,4.08,4.57,6.06c3.8,4.94,7.53,9.57,10.84,13.41.63.73,1.3,1.49,2,2.29s1.46,1.64,2.26,2.52l1.23,1.34c1.26,1.38,2.63,2.84,4.11,4.41,10.77,11.36,23.84,24,33.29,32.13,2.29,2,4.8,4.07,7.44,6.21,13.5,11,31.55,24.27,43.89,32.38,15.3,10.05,41.39,25,58.16,33.34l2,1c10.37,5.08,24.8,11.51,39.1,17.4l2,.93,4.16,1.91q2.14,1,4.38,2c8.18,3.6,17,7.2,23.54,9.58,9.32,3.39,24,7.89,35,10.76,1.57.41,3.06.78,4.45,1.12,8.41,2,21.37,4.53,32.17,6.19,17.47,3.58,37.3,6.94,50.51,8.57,18.72,2.31,48.66,4.22,66.74,4.26h.8c10.8,0,25.39-.62,39.33-1.64,3.21-.23,6.39-.49,9.48-.77,5.39-.47,10.17-1,14.21-1.51,11-1.42,26.76-4.3,41-7.51,6.93-1.55,13.15-3.11,18-4.5,10.67-3,25.12-8.17,37.45-13.18,5.61-2.27,10.78-4.52,15-6.54,13.41-6.47,33.24-18.54,44.22-26.9,1.37-1,2.81-2.19,4.3-3.42,10.44-8.6,23.22-21.1,30.34-29.82l2.3-2.84h0a156.3,156.3,0,0,0,20.53-33.21c.21-.43.4-.86.6-1.29l0,0a.14.14,0,0,0,0-.06c.14-.28.27-.56.4-.84a1,1,0,0,0,0-.1l.1-.22c1-2.23,2-4.83,3.21-7.95,1.07-2.9,2.11-6,3.1-9.16.19-.59.37-1.17.55-1.76.3-1,.6-2,.89-3,.09-.33.19-.67.29-1a166.1,166.1,0,0,0,4.55-19.92c.45-2.94.81-6.36,1.08-10a225.15,225.15,0,0,0,0-33c0-.37-.06-.76-.09-1.12s-.08-.8-.12-1.2l0-.25c-.18-1.61-.41-3.35-.69-5.18a260.24,260.24,0,0,0-10.33-41.81c-4.64-13-14.71-34.09-22.45-47l-.86-1.41c-5-8.11-12.42-18.72-19.76-28.4l-2.2-2.88c-1.46-1.89-2.9-3.73-4.31-5.49-.71-.89-1.41-1.75-2.09-2.59-1.38-1.68-2.71-3.26-4-4.73-4-4.61-9.18-10.19-14.81-16-9.37-9.6-19.94-19.71-28.09-26.74-2.82-2.43-6.11-5.15-9.69-8l-.49-.39q-2-1.62-4.13-3.27c-8.85-6.94-18.86-14.38-27.73-20.59-2.19-1.54-4.32-3-6.34-4.36-1-.68-2-1.34-3-2-15.25-10-41.34-25-58.15-33.33C944.35,441,938.8,438.36,932.33,435.43Zm73.06,43.63a589.93,589.93,0,0,1,51,38.37c6.47,5.58,14.48,13.12,22.19,20.79q1.46,1.44,2.88,2.88c6.65,6.72,12.9,13.36,17.51,18.7,3.77,4.37,8.1,9.79,12.47,15.55,7.27,9.6,14.62,20.11,19.58,28.15l.49.81.36.58c7.65,12.72,17.61,33.54,22.2,46.41s9.46,33.64,10.86,46.31l0,.27c0,.35.08.71.1,1.06,0,0,0,0,0,.06.07.8.15,1.63.21,2.47.32,4.22.49,9,.5,13.84a192.28,192.28,0,0,1-1.62,27.13c-.26,1.69-.59,3.54-1,5.5a203.23,203.23,0,0,1-5.19,19.71c-.73,2.36-1.49,4.65-2.27,6.85-.26.74-.52,1.46-.79,2.17-.84,2.29-1.63,4.29-2.39,6.07-.25.59-.5,1.15-.74,1.69s-.35.78-.57,1.24-.38.83-.58,1.25a168.5,168.5,0,0,1-20.17,32.63l-2.28,2.82c-8,9.81-23.33,24.51-34.14,32.76s-30.45,20.18-43.7,26.58-36.55,15.16-51.93,19.54c-4.79,1.37-11,2.91-17.83,4.46-13.29,3-27.84,5.68-38.64,7.17l-2.1.28c-3.51.46-7.58.91-12.12,1.33l-2,.18c-16.74,1.49-36.13,2.44-49.35,2.39-18,0-47.75-1.94-66.38-4.24-13.13-1.62-32.87-5-50.34-8.54-10.8-1.67-23.66-4.14-32-6.16-11-2.65-28.58-7.94-39.15-11.78-7.53-2.74-18.1-7.11-27.25-11.24-.88-.39-1.75-.79-2.59-1.18-1.39-.63-2.72-1.26-4-1.87-10.5-4.33-21-8.92-30-13.06-4.06-1.88-7.79-3.66-11-5.28-1.57-.78-3.21-1.62-4.92-2.5-2.28-1.18-4.68-2.44-7.15-3.77l-3.76-2c-14-7.62-29.66-16.83-40.57-23.9l-1.46-1L553.49,819c-12.12-8.14-28.68-20.42-41.28-30.64l-1.94-1.58c-1.91-1.57-3.73-3.1-5.43-4.57-9.38-8.09-22.36-20.63-33.07-31.92-3.92-4.15-7-7.57-9.51-10.46a403.32,403.32,0,0,1-31.38-42.61c-.53-.85-1-1.67-1.51-2.46-1-1.59-1.95-3.31-3-5.12-1.52-2.72-3.09-5.65-4.65-8.69-1.05-2-2.09-4.11-3.11-6.2a277.56,277.56,0,0,1-11.49-26.42c-1.71-4.83-3.47-10.77-5.07-17-.27-1-.53-2.07-.79-3.12-1-4.18-2-8.41-2.77-12.45-.2-1-.39-2-.58-3-.72-3.93-1.29-7.6-1.64-10.77s-.59-6.78-.73-10.63c-.06-1.92-.1-3.9-.12-5.91-.06-7,.2-14.37.75-20.73.24-2.73.53-5.28.87-7.55.22-1.41.48-2.92.8-4.52.94-4.81,2.33-10.4,4-16.19,1.45-5,3.06-9.9,4.68-14.23,1-2.59,1.94-5,2.87-7,5-11.15,15.61-28.17,23.61-38,.41-.51.83-1,1.28-1.55a249.66,249.66,0,0,1,32.85-31.21c10.9-8.29,30.51-20.21,43.7-26.56,1.75-.85,3.52-1.67,5.27-2.44a402.49,402.49,0,0,1,46.66-17.11l1.47-.41c9-2.48,21.23-5.24,33.15-7.54l2-.38c7.92-1.49,15.6-2.76,22-3.59,5.64-.73,12.54-1.41,19.91-2,9.5-.75,19.78-1.33,29.11-1.64l1.17,0c2.38-.08,4.69-.14,6.9-.17,1.95,0,3.82-.05,5.6-.05h.76c4,0,8.5.12,13.35.29,1.38.05,2.79.1,4.22.17,5,.21,10.26.49,15.52.83,12,.77,24.06,1.82,33.27,3,5.33.66,11.78,1.6,18.67,2.72,2.29.38,4.63.77,7,1.18l5.71,1c13.33,2.4,26.42,5.08,35.9,7.36,16.84,4.06,42.78,11.77,60.8,18,1.86.64,3.64,1.27,5.32,1.88,12.35,4.49,30.51,12,46.26,19.1l.31.13c5.1,2.31,9.64,4.44,13.56,6.34l2.82,1.38c10.45,5.2,24.51,13,37.29,20.48C992.49,470.9,999.7,475.33,1005.39,479.06Z"/><path d="M926.32,466.77c-2.42-1.18-5-2.39-7.64-3.62-10.3-4.76-22.19-9.86-32.62-14-4.74-1.89-9.18-3.6-13-5-2-.72-4.13-1.47-6.4-2.25-15.87-5.42-37.74-11.89-52.07-15.35-11-2.65-27.18-5.84-42.35-8.33-6.62-1.09-12.38-1.93-17.11-2.51-15.35-1.9-39.46-3.51-55.62-3.73l-3.12,0a518.22,518.22,0,0,0-56.17,3.46c-9.4,1.22-22,3.52-33.5,6-6.88,1.5-13.34,3.07-18.44,4.53-6.83,1.94-15.42,4.86-23.77,8l-3.12,1.19c-2.06.8-4.1,1.6-6.07,2.4-4.94,2-9.49,4-13.16,5.77-3.32,1.61-7.12,3.61-10.93,5.76l-.08,0A265.46,265.46,0,0,0,503.22,467c-9.66,7.37-23.35,20.5-30.52,29.27-1.51,1.85-3.15,4-4.88,6.47s-3.54,5.14-5.4,8c-1.13,1.78-2.22,3.56-3.27,5.31-2.61,4.38-4.9,8.58-6.62,12.15-.34.71-.66,1.4-1,2a147.26,147.26,0,0,0-5.85,16,160.77,160.77,0,0,0-5.25,21.69A167.63,167.63,0,0,0,439,590.47v0c0,.92,0,1.84,0,2.75.05,5.39.3,10.57.77,14.83a183.81,183.81,0,0,0,3.64,20c.7,3,1.45,6.06,2.24,9,.49,1.81,1,3.59,1.5,5.29s1,3.34,1.54,4.87c.26.77.51,1.52.77,2.23.51,1.44,1.09,3,1.74,4.61a287,287,0,0,0,18,36.71q.67,1.13,1.44,2.34c3.54,5.65,8.39,12.7,13.61,19.76s10.13,13.28,14.18,18l.52.59c.73.83,1.49,1.7,2.28,2.57,8.77,9.74,21.93,22.82,32,31.82l2.94,2.59c2.17,1.86,4.64,3.91,7.32,6.08,11.59,9.36,27,20.75,37.84,27.87,13.44,8.83,36.4,22,51.17,29.33,8.31,4.12,20,9.4,32.1,14.48l.12.06c10.34,4.76,22.88,10,31.21,13,2.06.75,4.39,1.55,6.87,2.38,9.95,3.32,22.52,7,31.75,9.37l2.24.56,3,.7c7.29,1.66,17,3.54,26.19,5.06h.11c14.18,2.8,29.52,5.35,40.06,6.67,16.43,2,42.77,3.7,58.72,3.74h.64a523.88,523.88,0,0,0,55.22-3.41l.31,0c10-1.3,23.94-3.88,36.32-6.66,2.85-.65,5.62-1.3,8.24-2s5.18-1.33,7.38-2c5.13-1.46,11.39-3.51,18.12-5.93,10.6-3.82,21.07-8.09,28-11.43,11.81-5.7,29.26-16.32,38.91-23.68s23.34-20.48,30.51-29.27l.66-.82a146.41,146.41,0,0,0,20.32-32.84l.11-.23.06-.11a135.06,135.06,0,0,0,5-13.45,165.94,165.94,0,0,0,6-24.22c0-.29.09-.61.13-.91.47-3.33.83-7.39,1.06-11.85.11-2.11.19-4.3.24-6.55.09-4.78,0-9.53-.2-13.8-.13-2.56-.31-4.94-.54-7-1.24-11.29-5.58-29.86-9.69-41.38-1-2.69-2.19-5.8-3.62-9.16-2.38-5.6-5.32-11.9-8.45-18.08-1.66-3.29-3.32-6.43-4.91-9.28-1-1.72-1.89-3.33-2.79-4.81a352.89,352.89,0,0,0-29.21-40.05A437.93,437.93,0,0,0,1025,531.23a520.76,520.76,0,0,0-45.16-34c-13.38-8.8-36.34-22-51.17-29.33Zm96.75,66.74a430.53,430.53,0,0,1,37.44,37.25,347.8,347.8,0,0,1,28.92,39.63c2.35,3.9,5,8.7,7.59,13.9A255.66,255.66,0,0,1,1109,651.18c.75,2.13,1.52,4.5,2.27,7,3.26,10.92,6.27,24.67,7.26,33.68.07.69.14,1.41.21,2.15.38,4.46.58,9.89.54,15.5,0,.93,0,1.87,0,2.81-.06,2.71-.16,5.34-.31,7.83v.08c0,.25,0,.49-.05.74-.25,3.88-.6,7.4-1,10.27a174.64,174.64,0,0,1-9.61,33.93c-.42,1-.83,2-1.24,2.91a1.86,1.86,0,0,1-.1.2l-.06.14a143.91,143.91,0,0,1-19.93,32.22l-.66.82c-6.61,8.1-18.86,19.95-28.19,27.37l-1.82,1.42c-9.51,7.25-26.74,17.73-38.39,23.36-1.28.62-2.69,1.27-4.2,1.94-6.53,2.92-15,6.29-23.52,9.37-5,1.79-9.73,3.38-13.92,4.68-1.4.43-2.74.83-4,1.19-2.17.62-4.62,1.26-7.28,1.92-1.74.44-3.54.87-5.38,1.3-12.94,3-28.2,5.87-38.89,7.26h-.19a511.89,511.89,0,0,1-55.55,3.4c-15.85,0-42-1.71-58.35-3.72-3.28-.41-7-.94-11-1.56-8.87-1.36-19.13-3.16-28.86-5.08l-.21,0c-10.42-1.72-21.48-3.91-28.89-5.71-11.43-2.76-29.61-8.24-40.54-12.21-1-.37-2.13-.78-3.28-1.22-8-3-18.67-7.52-27.64-11.65l-.3-.13c-12-5-23.64-10.3-31.89-14.39-14.69-7.31-37.5-20.38-50.87-29.15-3.31-2.18-7-4.76-11-7.56-11.78-8.39-25.25-18.75-33.86-26.16-.92-.81-1.89-1.65-2.9-2.56-10-8.93-23.08-21.92-31.78-31.59-.79-.87-1.54-1.72-2.25-2.54l-.52-.58c-2.49-2.89-5.32-6.37-8.36-10.29-1.82-2.35-3.72-4.86-5.66-7.49l-2.2-3c-5-7-9.59-13.71-12.7-18.86-6.72-11.16-15.47-29.45-19.51-40.78a201.78,201.78,0,0,1-5.88-20.71,183.94,183.94,0,0,1-3.65-20,160,160,0,0,1-.76-17.24c0-1.78,0-3.57.1-5.34,0-.89,0-1.77.09-2.65a137.35,137.35,0,0,1,1.24-14.17,159.71,159.71,0,0,1,5.15-21.25,142.73,142.73,0,0,1,5.73-15.63A165,165,0,0,1,465,512.34,162.5,162.5,0,0,1,475,498.13c7.05-8.62,20.52-21.53,30-28.79,2.88-2.19,6.57-4.74,10.65-7.4,5.25-3.42,11.15-7,16.83-10.19l.09,0c3.82-2.16,7.57-4.13,10.82-5.71a340.84,340.84,0,0,1,45.64-17.19,427.2,427.2,0,0,1,51.5-10.46,510,510,0,0,1,55.79-3.44,584.26,584.26,0,0,1,58.37,3.74c4.69.57,10.41,1.41,17,2.49l5.69,1c13.36,2.3,26.91,5,36.44,7.33,16.28,3.92,42.37,11.78,58.15,17.5,12.25,4.45,30.5,12.06,45.41,18.94,3.52,1.63,6.86,3.23,9.94,4.75C942.1,478,964.92,491,978.23,499.77A518.65,518.65,0,0,1,1023.07,533.51Z"/><path d="M900.81,500.71h0l0,0c-13.28-6.27-31.47-13.93-43.25-18.21-13.89-5-36.75-11.92-51-15.34-10.6-2.55-27-5.72-40.81-7.89-4.47-.7-8.09-1.2-11-1.56-14.24-1.76-37.21-3.23-51.19-3.27a443.53,443.53,0,0,0-49,3c-.82.11-1.67.22-2.54.35-11.33,1.61-26.77,4.7-37.93,7.56-1.71.44-3.33.88-4.81,1.3l-2.3.67A307.25,307.25,0,0,0,569,481.77c-4.4,2.12-9.92,5.15-15.48,8.47-1.86,1.11-3.72,2.25-5.55,3.4-5.17,3.24-9.63,6.27-12.91,8.78q-.8.6-1.62,1.26a200.66,200.66,0,0,0-22.4,21.25c-.94,1.06-1.81,2.07-2.59,3a163,163,0,0,0-17.66,28c-.28.58-.54,1.14-.79,1.68-1,2.17-2,4.72-3,7.47-.49,1.38-1,2.8-1.45,4.26-.23.72-.46,1.46-.69,2.2a138.44,138.44,0,0,0-4.59,19c-.09.57-.17,1.16-.25,1.78l-.06.48c-.09.81-.19,1.66-.27,2.54a177.65,177.65,0,0,0-.66,19.61c.09,3.86.3,7.52.64,10.62a193.11,193.11,0,0,0,8.46,36.1c.34,1,.72,2,1.14,3.05,1.81,4.65,4.29,10.25,7,15.85l.72,1.49c.28.55.55,1.11.82,1.66,1.17,2.35,2.37,4.66,3.55,6.87,1.31,2.46,2.66,4.86,4,7.11.94,1.6,2.08,3.41,3.6,5.7,3,4.57,6.79,9.92,10.62,15,1.52,2.06,3,4,4.48,5.9,2.43,3.11,4.72,5.92,6.78,8.3,2.66,3.09,6.24,7,10.33,11.19,1.37,1.4,2.79,2.85,4.26,4.32l2.43,2.43c5.7,5.62,11.38,10.93,15.91,14.83A450,450,0,0,0,603.21,795a513.29,513.29,0,0,0,44.6,25.57c1.25.62,2.61,1.28,4,2l.86.41c4.73,2.24,10.29,4.76,16.15,7.3h0c.44.18.88.38,1.35.6,10.09,4.48,21.12,9,28.8,11.78,12.11,4.4,32.24,10.46,44.86,13.51,6.53,1.57,15.65,3.44,25,5.1,11.32,2.13,22.36,3.91,30.29,4.9,14.25,1.76,37.22,3.23,51.19,3.27h.6c11.26,0,27.59-.88,40.27-2.11,2.93-.29,5.66-.59,8.09-.9,5.81-.76,13.36-2,21.26-3.62,9.09-1.79,17.84-3.84,24-5.6,4.13-1.18,9-2.76,14.17-4.59,5.74-2,11.8-4.36,17.08-6.56,3.48-1.45,6.5-2.79,9-4,1.41-.67,2.9-1.44,4.56-2.3,3.77-2,7.87-4.32,11.88-6.73a205.5,205.5,0,0,0,17.5-11.62,195,195,0,0,0,24-22.5c1-1.07,1.82-2.09,2.61-3.05l.55-.68a129.75,129.75,0,0,0,12-17.41q3.15-5.49,5.74-11.25l.15-.31a151.84,151.84,0,0,0,9.67-32.88,161.71,161.71,0,0,0,.61-35,191.53,191.53,0,0,0-8.47-36.1c-1.14-3.22-2.77-7.21-4.84-11.84a249,249,0,0,0-12.39-24.21A308.47,308.47,0,0,0,1023,591.17c-1-1.17-2.13-2.42-3.33-3.74s-2.47-2.69-3.81-4.11l-2-2.15c-7.67-8-16.81-16.78-23.73-22.76-7.51-6.47-19.32-15.56-29.69-22.94-3.45-2.46-6.75-4.73-9.68-6.65A513.7,513.7,0,0,0,906,503.25C904.42,502.44,902.66,501.59,900.81,500.71ZM700.05,839.78c-7.61-2.77-18.57-7.25-28.57-11.69-.49-.23-1-.45-1.43-.63-4.92-2.22-9.09-4.17-12.37-5.81-11.32-5.63-28.8-15.65-39-22.34a395.91,395.91,0,0,1-34.33-25.83A331.4,331.4,0,0,1,555.71,745a265.31,265.31,0,0,1-22.12-30.33c-1.19-2-2.39-4.12-3.57-6.37a149.09,149.09,0,0,1-4.78-22.43c0-.07,0-.13,0-.19.68-2.53,1.49-5.23,2.35-7.85a157,157,0,0,1,16.77-16.27c1.32-.7,2.67-1.39,4-2a263.2,263.2,0,0,1,34.93-13.16,331,331,0,0,1,39.41-8,392.73,392.73,0,0,1,42.72-2.62c12.07,0,32.12,1.31,44.69,2.86s32.8,5.24,45.3,8.25,32.51,9.05,44.53,13.41,31,12.48,42.39,18.15a443,443,0,0,1,38.95,22.33,391,391,0,0,1,34.34,25.82A331.28,331.28,0,0,1,944.29,755a265.31,265.31,0,0,1,22.12,30.33c1.17,1.95,2.37,4.08,3.56,6.31a152.31,152.31,0,0,1,4.79,22.49,1.49,1.49,0,0,1,0,.21c-.71,2.66-1.52,5.35-2.35,7.82a157.44,157.44,0,0,1-16.74,16.27c-1.62.85-2.91,1.5-4,2a265.47,265.47,0,0,1-34.94,13.16,330.73,330.73,0,0,1-39.42,8,400.42,400.42,0,0,1-42.72,2.62,446.75,446.75,0,0,1-44.68-2.86c-5.54-.69-12.81-1.82-20.48-3.18h0c-9.29-1.66-18.34-3.51-24.82-5.07C732.06,850.16,712.08,844.15,700.05,839.78ZM520.18,594A137.6,137.6,0,0,1,536,568.57c.34-.42.7-.84,1.07-1.28A165.93,165.93,0,0,1,559,546.57c.9-.69,1.89-1.42,3-2.17a213.21,213.21,0,0,1,26.41-15.71c5.57-2.69,13.78-6,21.68-8.82.79-.29,1.58-.56,2.36-.83q2.34-.82,4.58-1.55c2.24-.73,4.36-1.39,6.3-1.94a324.19,324.19,0,0,1,39.42-8,403.71,403.71,0,0,1,42.72-2.64c12.14,0,32.19,1.32,44.7,2.86,2.28.28,4.65.61,7,1,11.82,1.77,26.37,4.51,36.31,6.82l1.92.46c3.1.75,6.68,1.68,10.49,2.73l5.85,1.66,3,.88c9,2.67,18.36,5.65,25.19,8.13s16.21,6.31,25,10.16c5.29,2.31,10.42,4.64,14.77,6.74.87.41,1.7.82,2.58,1.25,11.27,5.61,28.75,15.62,39,22.32a402.07,402.07,0,0,1,34.33,25.82,339,339,0,0,1,28.68,28.53,265.53,265.53,0,0,1,22.11,30.33c.33.54.65,1.09,1,1.66a214.33,214.33,0,0,1,14,29.54,167.35,167.35,0,0,1,7.3,31.11c.12,1.07.22,2.21.3,3.41.2,3,.29,6.36.27,9.76a125.63,125.63,0,0,1-1.1,16.93h0a130.83,130.83,0,0,1-8.26,28.13l-.14.29A110.3,110.3,0,0,1,1004.43,800l-.16.2c-.12.15-.24.29-.32.4a147,147,0,0,1-12.26,12.82c-2.71,2.55-5.49,5-8.06,7.11-.85.7-1.72,1.4-2.62,2.07-.37.29-.76.58-1.16.87-1.21.89-2.55,1.83-3.93,2.76l-1.54,1.05c-1.57,1-3.21,2.1-4.92,3.16l-1.75,1.08c2.69-2.67,5.21-5.32,7.21-7.65l.31-.38.69-.84.88-1.07c.34-.42.68-.84,1-1.24l.08-.12,5-6.07,2.07-2.54a2.14,2.14,0,0,0,.2-.32s2.53-5.62,5.6-12.48A123.19,123.19,0,0,0,998,775.49c.22-1.07.4-2.09.54-3a130.66,130.66,0,0,0,.5-28.15,154.42,154.42,0,0,0-6.8-29,192.52,192.52,0,0,0-13.84-28.93,245.74,245.74,0,0,0-20.43-28,307.58,307.58,0,0,0-26.4-26.27A368.83,368.83,0,0,0,900,608.35c-9.4-6.18-25.45-15.37-35.78-20.5s-27.83-12.64-38.9-16.66-29.36-9.53-40.86-12.31-30.21-6.17-41.59-7.58-29.87-2.58-41-2.61a361,361,0,0,0-39.27,2.4,301.67,301.67,0,0,0-36.32,7.41A242.13,242.13,0,0,0,594,570.63a190.19,190.19,0,0,0-27.24,16.58,152.23,152.23,0,0,0-21.37,20.51,128.7,128.7,0,0,0-14.83,23.83c-1,2.18-2,4.83-3,7.68A120.76,120.76,0,0,0,522.75,658c-.17,1.11-.32,2.35-.45,3.68-.31,3.23-.52,7-.57,10.82,0,2.76,0,5.62.11,8.28.06,1.34.15,2.61.25,3.76q.06.6.12,1.17h0c0,.08,0,.16,0,.23l0,.2c.3,2.74.88,6.15,1.62,9.78-.27-.6-.55-1.2-.82-1.78-1.11-2.44-2.14-4.84-3-7.14-.5-1.24-1-2.43-1.34-3.54-.62-1.74-1.22-3.62-1.81-5.59a165.3,165.3,0,0,1-5.48-25.53,138.37,138.37,0,0,1,.51-30.08A130.5,130.5,0,0,1,520.18,594ZM972.81,790.67c-.64-2.17-1.27-4.11-1.86-5.76A192,192,0,0,0,957.12,756a244,244,0,0,0-20.44-28,307.52,307.52,0,0,0-26.4-26.27A364.75,364.75,0,0,0,878.71,678c-8.74-5.75-23.39-14.2-33.76-19.51l-2-1c-10.51-5.22-28-12.68-38.91-16.64s-29.36-9.53-40.86-12.31-30.1-6.17-41.57-7.58-29.87-2.59-41-2.62H680a362.07,362.07,0,0,0-38.67,2.41A301.78,301.78,0,0,0,605,628.08c-4.19,1.19-9.32,2.91-14.45,4.79-6.6,2.43-13.2,5.13-17.82,7.36-3.09,1.49-6.74,3.46-10.45,5.62l-3.72,2.22c-4.93,3-9.68,6.15-13.07,8.73-.94.72-1.92,1.5-2.91,2.33h0c-3.93,3.25-8.29,7.29-12.07,11.14l.18-.41.11-.24c.12-.24.24-.49.38-.75A123.24,123.24,0,0,1,544.33,648a141.86,141.86,0,0,1,20.15-19.33A179.37,179.37,0,0,1,590.29,613,230.34,230.34,0,0,1,621,601.45a289.3,289.3,0,0,1,34.65-7,344.59,344.59,0,0,1,37.55-2.31c2.68,0,5.79.09,9.12.22,10,.4,22,1.28,30.17,2.29,6.93.86,16.51,2.46,25.37,4.17,5.32,1,10.38,2.1,14.46,3.09,9.67,2.34,24.33,6.68,34.89,10.29,1.51.52,2.94,1,4.26,1.5,10.61,3.85,27.34,11,37.28,16s25.42,13.84,34.24,19.64a350.63,350.63,0,0,1,30.19,22.69,299,299,0,0,1,24,23.67l1.22,1.4a234.85,234.85,0,0,1,19.45,26.66,184.09,184.09,0,0,1,13.12,27.42,145.12,145.12,0,0,1,6.41,27.32c.1.93.18,1.93.25,3a126.64,126.64,0,0,1-.69,23.38,1.51,1.51,0,0,0,0,.28c-.06.41-.14.85-.22,1.29l0,.17C975.65,801.5,974.29,795.79,972.81,790.67ZM557.8,652l1.32-.81.68-.42,1.55-.94.46-.27,2-1.19.4-.23,1.59-.92.69-.38,1.28-.71.74-.41,1.2-.64.71-.38,1.23-.64.6-.31,1.72-.85c3-1.46,6.94-3.13,11.13-4.79,7-2.77,14.76-5.49,20.66-7.18s14.35-3.57,22.43-5.1c4.85-.91,9.55-1.69,13.45-2.19a359.63,359.63,0,0,1,38.89-2.39c11.07,0,29.32,1.2,40.69,2.6s29.86,4.77,41.23,7.52,29.59,8.23,40.54,12.21,28.17,11.33,38.59,16.5,26.22,14.26,35.47,20.34A364.74,364.74,0,0,1,908.32,704a301.65,301.65,0,0,1,26.09,25.95c.8.93,1.64,1.94,2.51,3s1.77,2.19,2.69,3.35L941,738a233,233,0,0,1,13.57,19.48l0,.08c.33.55.67,1.13,1,1.73l.36.62.77,1.38.37.66c.32.58.63,1.17.95,1.77l.18.32,1.12,2.16.33.66c.28.55.56,1.1.83,1.65l.35.69,1,2,.15.31,1.1,2.33c.08.16.15.33.22.49.29.61.57,1.23.84,1.83,0,.11.1.21.14.32a277.68,277.68,0,0,0-17.71-23.43,335.7,335.7,0,0,0-29-28.83,398.6,398.6,0,0,0-34.65-26,449,449,0,0,0-39.26-22.5C832.18,670,813,661.77,801,657.4s-32.22-10.46-44.85-13.51-33.06-6.76-45.64-8.31-32.88-2.85-45.05-2.88h-.6a400.69,400.69,0,0,0-42.5,2.64,334,334,0,0,0-39.85,8.11c-7.12,2-16.73,5.44-25,8.79Zm-33,24.53v0l-.09.25v-.07c0-1.42,0-2.84,0-4.25a112.64,112.64,0,0,1,1-14.09,118.68,118.68,0,0,1,7.55-25.64,126.62,126.62,0,0,1,12.51-20.72c.65-.88,1.29-1.69,1.9-2.44a148.46,148.46,0,0,1,20.87-20,188.22,188.22,0,0,1,26.72-16.26,241.54,241.54,0,0,1,31.79-12c7-2,17.8-4.34,27.18-6,3.12-.54,6.09-1,8.7-1.34a369,369,0,0,1,38.89-2.38c11,0,29.3,1.19,40.67,2.59s29.79,4.77,41.25,7.52c10.69,2.58,27.35,7.56,38.4,11.45l2.14.76c7.21,2.61,17.13,6.7,26,10.66,4.65,2.07,9,4.1,12.56,5.86,6.4,3.18,15,7.93,22.86,12.55l2.32,1.37,4.44,2.69c2.13,1.31,4.11,2.57,5.86,3.71a366.75,366.75,0,0,1,31.25,23.52,300.16,300.16,0,0,1,26.08,26c2,2.33,4.28,5.14,6.58,8.14a235.19,235.19,0,0,1,13.56,19.46c2.64,4.37,5.72,10.32,8.41,16.08,2.09,4.49,3.95,8.86,5.18,12.31A151.56,151.56,0,0,1,996,744.62a128,128,0,0,1-.48,27.37A118,118,0,0,1,988,797.62c-1.19,2.65-2.29,5.12-3.2,7.14l-2.32,5.16-1,1.18-1,1.19-3.13,3.82.33-1.2c.24-.91.47-1.79.68-2.64.06-.24.1-.47.16-.71.54-2.25.95-4.3,1.23-6.1a1,1,0,0,0,0-.17,128.46,128.46,0,0,0,.47-27.2,148.09,148.09,0,0,0-6.57-28,185.46,185.46,0,0,0-13.37-28,237.94,237.94,0,0,0-19.75-27.08,297,297,0,0,0-25.51-25.39,353.61,353.61,0,0,0-30.5-22.91c-6.68-4.4-17.06-10.5-26.12-15.41-3-1.64-5.89-3.15-8.43-4.41-10-5-26.9-12.2-37.6-16.09S784.15,601.65,773,599c-11-2.64-29-5.93-40.17-7.32-1.38-.17-2.86-.33-4.43-.5-10.95-1.12-25.75-2-35.21-2h-2.1c-10,.09-24.16,1-33.77,2.07h-.09l-2,.24c-8.25,1.08-20.19,3.39-29.31,5.62-2.1.52-4.06,1-5.78,1.52s-3.64,1.08-5.64,1.74a230.77,230.77,0,0,0-25.53,10,181.92,181.92,0,0,0-26.33,16A145.07,145.07,0,0,0,542,646.14a126.41,126.41,0,0,0-13.55,21.38c-.3.57-.56,1.14-.79,1.66C526.77,671.19,525.81,673.67,524.82,676.56Zm428.8-142.14c11.26,7.75,25.76,18.77,34.45,26.27,1.87,1.61,3.9,3.43,6,5.39,9.2,8.49,20.07,19.52,26.57,27,2,2.33,4.23,5,6.51,8a301.3,301.3,0,0,1,18.66,26.55c1.86,3.08,4,6.91,6.07,11l.79,1.56c1.85,3.67,3.69,7.54,5.37,11.29,1.36,3,2.52,5.79,3.47,8.22.48,1.21.91,2.35,1.29,3.4a182.65,182.65,0,0,1,5.63,20.2,148.56,148.56,0,0,1,2.68,15.23c.27,2.41.45,5.19.56,8.13.07,2.21.11,4.52.09,6.84a143.62,143.62,0,0,1-1.24,19.28,147.59,147.59,0,0,1-5.84,22.74c-1.17,3.46-2.4,6.68-3.58,9.31l-.15.31a125.39,125.39,0,0,1-17.35,28l-.57.71A185.22,185.22,0,0,1,1016.94,819a237.11,237.11,0,0,1-29,18.07c-1.34.69-2.56,1.32-3.72,1.89l-.75.37c-1.82.88-3.95,1.84-6.34,2.87l-2.49,1.06c-2,.81-4,1.65-6.15,2.48-3.54,1.38-7.22,2.76-10.77,4-5.09,1.8-9.92,3.37-14,4.53s-9.61,2.52-15.51,3.81c-2.69.59-5.47,1.17-8.28,1.73-7.84,1.56-15.32,2.84-21.06,3.58l-2.3.28-.69.08-1.87.21-.66.07q-2.62.27-5.48.53l-.41,0-2.82.23h-.09c-7.26.59-15.15,1-22.35,1.31,5.69-.42,11.08-.94,15.41-1.49a333.73,333.73,0,0,0,39.86-8.11A266.59,266.59,0,0,0,953,843.21c1.2-.58,2.56-1.27,4.28-2.17,4.43-2.35,9.34-5.2,13.82-8,2.31-1.43,4.52-2.86,6.56-4.27s3.66-2.53,5.21-3.71c.93-.7,1.85-1.43,2.72-2.16A178.46,178.46,0,0,0,999.47,810c2.63-2.69,5-5.29,6.84-7.53l.28-.36.17-.21a113.19,113.19,0,0,0,15.64-25.25l.14-.29a134,134,0,0,0,8.51-28.95,142,142,0,0,0,.55-30.89,170.3,170.3,0,0,0-7.46-31.79A213.86,213.86,0,0,0,1009,653a270,270,0,0,0-22.42-30.75,340.43,340.43,0,0,0-29-28.84c-7.21-6.21-18.82-15.09-28.41-21.81-2.21-1.55-4.32-3-6.24-4.24-.64-.43-1.31-.86-2-1.31-10.46-6.7-26.61-15.9-37.34-21.24-.81-.4-1.66-.82-2.54-1.23-11.67-5.63-28.89-12.94-40.07-17-12.23-4.43-32.36-10.49-44.86-13.5-10-2.41-25.8-5.43-38.48-7.32-2.42-.38-4.82-.72-7.14-1-12.6-1.55-32.81-2.84-45.06-2.88h-.32c-11.57,0-29.08,1-40.57,2.39l-2.21.27a339.25,339.25,0,0,0-35.61,7c-1.51.39-2.94.77-4.25,1.15A264,264,0,0,0,587,526a207.15,207.15,0,0,0-29.89,18.2,165.38,165.38,0,0,0-23.44,22.48,121,121,0,0,0-7.8,11,127.07,127.07,0,0,0-8.47,15.17A129.55,129.55,0,0,0,511.26,611a103.84,103.84,0,0,0-2.34,10.78,141.12,141.12,0,0,0-.53,30.86A169,169,0,0,0,514,678.7c.61,2,1.23,3.94,1.86,5.73.41,1.15.87,2.38,1.39,3.65.93,2.34,2,4.79,3.1,7.26l.81,1.79c1.93,4.19,4.08,8.54,6.16,12.41,1.23,2.34,2.48,4.57,3.72,6.64a269.73,269.73,0,0,0,22.43,30.75,337.27,337.27,0,0,0,29,28.83c2.47,2.13,5.47,4.58,8.73,7.15l-.64-.46-.7-.51-2.21-1.63-.55-.41-1.88-1.4-.6-.46-2.24-1.69-.53-.41-1.94-1.48-.46-.36-2.22-1.72-.47-.38-2-1.54-.3-.24c-.72-.57-1.42-1.13-2.1-1.69l-.44-.35L570,766.61l-.11-.09L568,764.93l-.38-.32-1.78-1.52c-3.2-2.75-7-6.22-10.95-10-2.38-2.28-4.82-4.67-7.23-7.09-5.81-5.82-10.94-11.27-14.44-15.35-2.84-3.29-6.14-7.41-9.63-12l-1.5-2c-3.8-5.07-7.53-10.36-10.52-14.9-1.49-2.24-2.6-4-3.52-5.57-1.33-2.22-2.66-4.57-3.94-7-1.92-3.58-3.86-7.42-5.67-11.23-3-6.34-5.7-12.58-7.38-17.28a194.57,194.57,0,0,1-6.61-24.91c-.76-3.87-1.35-7.5-1.69-10.53A158.84,158.84,0,0,1,483.3,591a147.53,147.53,0,0,1,9.47-32.1,158.65,158.65,0,0,1,16.86-27.54l1.17-1.46a185.24,185.24,0,0,1,26.11-25.06c3.21-2.45,7.59-5.43,12.69-8.62,1.8-1.14,3.64-2.26,5.47-3.36,5.5-3.28,10.94-6.26,15.26-8.35a299.86,299.86,0,0,1,39.75-15c5.14-1.46,11.88-3.07,18.92-4.55,3-.64,6.1-1.25,9.13-1.83q3-.57,6-1.07c3.9-.67,7.59-1.24,10.83-1.66.81-.11,1.65-.21,2.53-.31l.32,0,2.39-.27h.15c12.06-1.27,28.44-2.23,40.37-2.35h2.82c13.87,0,36.68,1.5,50.83,3.25,2.93.35,6.51.85,10.95,1.54l2.6.42c13.15,2.13,28.09,5.05,38,7.43,14.12,3.4,36.83,10.23,50.64,15.24,9.4,3.41,22.92,9,34.73,14.31,2.87,1.29,5.64,2.56,8.22,3.78l.08,0h0c1.83.87,3.56,1.71,5.15,2.5,12.82,6.37,32.7,17.76,44.32,25.39C950.47,532.28,952,533.32,953.62,534.42Z"/><path d="M1250.4,775.33c-1.81-16.3-8.06-42.93-13.93-59.37-3-8.27-7.8-19.56-13.32-31v0c-5.66-15.73-17.74-40.93-26.92-56.17-9.31-15.47-27.25-40.06-40-54.81s-35.88-37.79-51.68-51.43A716.18,716.18,0,0,0,1042.73,476c-18.28-12-49.72-30-70.07-40.17-9.4-4.66-21.83-10.35-35-16h0l0,0-.16-.08h0c-15.74-6.91-32.06-13.55-43.66-17.76-20-7.27-53.17-17.25-73.93-22.26-10.47-2.53-25.1-5.53-40.16-8.23h0l-.65-.12-.57-.11h0c-16.26-3-32.1-5.53-43.48-6.94-22.49-2.77-58.56-5.08-80.4-5.14s-56.35,2.07-76.9,4.72-52.53,9.17-71.09,14.47-46.95,16-63.12,23.76a384.3,384.3,0,0,0-48.83,29.12,359.22,359.22,0,0,0-32.68,21.43c-13.82,10.53-33.47,29.37-43.79,42-9.95,12.19-23,33-29.68,47.37-7.69,11.53-15,24.31-19.08,33.38-6.52,14.5-13.78,39.14-16.17,54.91a245.25,245.25,0,0,0-2.13,34c-.16.93-.32,1.85-.44,2.73-2.36,15.5-2.81,41.35-1,57.61s8.06,42.93,13.93,59.37A339.11,339.11,0,0,0,277,815.24c5.63,15.66,17.66,40.76,26.83,56,9.29,15.44,27.22,40,40,54.81s35.9,37.8,51.69,51.43S439,1012,457.27,1024s49.72,30,70.07,40.17,54.54,24.75,76.23,32.62,57.55,18.67,80,24.11,59,12.07,81.46,14.84,58.56,5.08,80.4,5.14h.92c21.82,0,55.65-2.1,76-4.72,20.63-2.68,52.52-9.17,71.1-14.47s46.94-16,63.11-23.76a382.78,382.78,0,0,0,48.82-29.12,359.84,359.84,0,0,0,32.7-21.43c13.81-10.52,33.45-29.36,43.79-42,.42-.53.85-1,1.27-1.56l.69-.85a201.2,201.2,0,0,0,27.59-44.63l.16-.36c7.84-11.79,15-24.25,19-33.36l.19-.41a207,207,0,0,0,15.89-53.91l.09-.57a245.2,245.2,0,0,0,2.13-34c.16-.95.32-1.85.44-2.74C1251.75,817.42,1252.2,791.59,1250.4,775.33ZM1082.63,513.21c.47.41.94.8,1.39,1.2,14.49,12.5,35.76,33.66,47.42,47.18,5.87,6.8,13.46,16.52,20.8,26.66,2.34,3.24,4.57,6.41,6.65,9.44.1.13.19.27.28.4q1.71,2.5,3.26,4.84l1.49,2.26c.93,1.44,1.83,2.83,2.64,4.14.53.85,1,1.67,1.51,2.46,8.52,14.17,19.61,37.36,24.73,51.7a253.52,253.52,0,0,1,7,24.41q.83,3.45,1.55,6.83c1.66,7.7,2.91,14.89,3.52,20.36,1.55,14.11,1.16,36.5-.86,49.88l-.08.52c-2.11,13.47-8.26,34.24-13.71,46.31v0l-.18.4-.14.32-1.14,2.53-.12.27-1.15,2.57-.89,2-1.94,4.31-.9,2a.93.93,0,0,0,0,.1h0v0a.36.36,0,0,0,0,.09l0,.06a1,1,0,0,0-.11.23l-.06.12s0,0,0,0l0,.1v0l0,.08a.36.36,0,0,0,0,.09s0,.1-.08.15l0,.11-.06.14h0v.06l0,.06a.89.89,0,0,0-.08.17l0,0h0l0,.06a.52.52,0,0,0-.06.13s0,0,0,.06h0l0,0s0,0,0,0h0l0,.05,0,.07,0,0,0,.11a.59.59,0,0,0-.06.14h0s0,0,0,0,0,.09-.08.14l0,.07a.31.31,0,0,0,0,.1.41.41,0,0,0-.05.09l0,.06-.06.11,0,0a.37.37,0,0,0,0,.11.2.2,0,0,0,0,.08,1.28,1.28,0,0,0-.11.2v0l-.09.15a2.11,2.11,0,0,0-.16.3.11.11,0,0,1,0,0,1.59,1.59,0,0,0-.14.47c-.05.1-.14.27-.29.52s-.56.93-1.13,1.78a.56.56,0,0,0,0,.08l-.06.1-.15.25c-1.17,1.73-2.66,3.83-3.82,5.46l-.34.45-.26.35-.37.49-.16.23a4.65,4.65,0,0,0-.29.43l0,.07a1.47,1.47,0,0,0-.1.13l0,0-.07.08-.09.12a1,1,0,0,0-.14.17l0,.06-.11.14-.06.06-.06.07-.12.15-.07.09-.43.53-1,1.22-.6.74c-6.81,8.44-22.76,28.2-44.78,45.23l-.38.29-.65.5c-4.91,3.73-11.43,8.14-18.43,12.54a338.07,338.07,0,0,1-30.23,17c-12,5.79-31.35,13.32-47.39,18.56-3.7,1.21-7.23,2.29-10.44,3.21-1.61.45-3.32.92-5.11,1.39-1.2.32-2.44.64-3.71.95l-1.93.48c-17,4.16-39.15,8.46-54.48,10.44l-2,.25c-4.76.59-10.2,1.14-15.88,1.62h-.07c-18.12,1.54-38.81,2.48-52.7,2.47-20.1-.06-53.26-2.18-73.89-4.73-2.86-.35-6-.78-9.37-1.27-11.19-1.63-24.7-3.94-37.63-6.43-3.88-.75-7.7-1.51-11.4-2.27-8.43-1.26-18.64-3.11-27.17-4.91-2.84-.6-5.5-1.19-7.84-1.75-11.43-2.76-29.61-8.24-40.54-12.21-10.07-3.65-26.14-10.48-36.58-15.54l0,0-.09,0c-6.48-2.65-13.11-5.46-19.52-8.26q-3.21-1.39-6.32-2.78L610.1,898c-7.11-3.2-13.66-6.28-19-9-2.93-1.46-6.11-3.1-9.46-4.86C568.24,877.1,552.27,868,539.13,860l-1.94-1.19c-2.57-1.59-5-3.12-7.29-4.58-1.13-.72-2.23-1.44-3.28-2.12C469,814.23,420.65,767,389.8,718.45q-2.06-3.23-4-6.47c-8.5-14.11-19.6-37.3-24.73-51.69S350.51,622.8,349,608.68c-1.14-10.26-1.26-25.94-.29-39,.27-3.87.68-7.64,1.16-10.91,2-13.41,8.21-34.4,13.78-46.78.41-.92.85-1.86,1.34-2.86,2.63-5.42,6.15-11.71,10-17.92a212.78,212.78,0,0,1,15-21.51c3.47-4.23,8.38-9.52,13.88-15,1.5-1.49,3.05-3,4.62-4.5,1.05-1,2.1-2,3.17-3,6-5.53,11.62-10.37,16.37-14,10.17-7.75,27.31-18.41,41.29-25.84l1.54-.81,3-1.53,2.85-1.41c7.64-3.68,18.58-8.23,30-12.47l.07,0c10.33-3.84,20.18-7.13,27.74-9.27,17.06-4.86,46.32-10.82,65.22-13.27s50.61-4.37,70.65-4.34,53.26,2.17,73.91,4.73l3.48.44c8.45,1.12,19,2.79,30.22,4.79h0l.55.1.66.13c13.51,2.5,26.5,5.21,36.57,7.63,22.4,5.42,58.17,16.19,79.73,24l2.09.77c10.68,3.94,24.62,9.56,38.68,15.62a1.32,1.32,0,0,0,.27.12c10.11,4.45,19.23,8.67,26.36,12.2,18.72,9.33,47.62,25.89,64.42,36.92A671.76,671.76,0,0,1,1082.63,513.21Zm101.68,315.57-.06,0,.07,0Zm-739.6-424c16-7.74,44.14-18.32,62.64-23.58s50.14-11.7,70.65-14.37c13.86-1.79,34.11-3.34,52.48-4.13-6.69.44-13.25,1-19.26,1.55l-.22,0-1.77.17-.49.05-1.45.15-.64.07-1.26.14-.72.07-1.18.14-.7.08-1.2.14-.6.08-1.73.21c-19,2.47-48.48,8.47-65.66,13.37-1.91.54-4,1.15-6.14,1.83-6.51,2-14.06,4.62-21.87,7.52l-.09,0c-9.73,3.61-19.11,7.44-26.43,10.79l-1.24.57-2.54,1.2-1.42.69c-14.88,7.35-36,20.22-47.77,29.22-3,2.3-6.39,5.08-10,8.21-2.15,1.88-4.37,3.88-6.63,6-1.64,1.53-3.26,3.06-4.83,4.58a231.33,231.33,0,0,0-17.12,18.21c-8.35,10.25-19.23,27.45-25.32,40q-.74,1.51-1.38,2.94c-1.77,3.93-3.6,8.72-5.34,13.86-3.83,11.31-7.25,24.33-8.66,33.71-.38,2.51-.7,5.3-1,8.2-.09,1-.16,1.94-.24,2.93-1,13.44-.87,29,.31,39.56.4,3.58,1,7.73,1.86,12.16a287.16,287.16,0,0,0,10.4,40.12c5.18,14.56,16.39,38,25,52.23q3.63,6,7.62,12c31.16,47,78.29,92.4,134.15,129.06,7.89,5.19,18.47,11.61,29.42,17.93l4.4,2.52c2.2,1.25,4.4,2.5,6.59,3.72,8.76,4.88,17.26,9.42,24.33,12.94,9,4.47,21.2,10,33.86,15.47,4.74,2,9.53,4.05,14.25,6h0l2.07,1,.05,0c.87.42,1.78.84,2.7,1.27,1.7.78,3.47,1.59,5.29,2.4,9.13,4.08,19.35,8.29,26.74,11,2.06.75,4.38,1.55,6.87,2.38,10.77,3.6,24.63,7.66,34,9.93s24,5,35.19,6.69c19.69,4.08,43.22,8.1,58.55,10,7.13.88,15.74,1.71,24.8,2.42,17.29,1.36,36.19,2.29,49.46,2.33h.8c13.9,0,34.12-1,51.91-2.47h.27c6.54-.55,12.79-1.2,18.05-1.88,19-2.46,48.45-8.45,65.67-13.36s43.44-14.76,58.31-22,37-20.61,49.16-29.9c.24-.17.46-.34.69-.52l.37-.28c22.3-17.25,38.41-37.2,45.29-45.72l.59-.74c.36-.44.68-.83,1-1.18l.18-.23a.93.93,0,0,0,.15-.13,1.41,1.41,0,0,0,.27-.37l0-.06,0-.06,0-.05,0,0,.13-.16.08-.09.05-.06.17-.22.1-.12a.86.86,0,0,0,.07-.1,1.25,1.25,0,0,0,.26-.39h0l0-.09.62-.84.24-.31c.09-.11.21-.28.4-.54,1.18-1.65,2.68-3.77,3.87-5.53l.11-.18.07-.12a.86.86,0,0,0,.07-.1l.08-.12a22.65,22.65,0,0,0,1.61-2.64,3.48,3.48,0,0,0,.23-.66v0a.22.22,0,0,0,0-.08l.06-.12.09-.16v0l.06-.11,0-.1,0,0,0,0h0l0,0,0-.06h0l0-.07,0-.09.06-.1h0a.76.76,0,0,0,.09-.18.89.89,0,0,0,.08-.17h0a.1.1,0,0,0,0,0s.05-.09.07-.14v0l0-.06.06-.12v0a1,1,0,0,0,.1-.21l.06-.12,0-.07a.83.83,0,0,0,.07-.13l0-.07v0l0,0s.05-.09.07-.14a.52.52,0,0,0,.07-.15,1.75,1.75,0,0,0,.11-.24l0-.05h0a2.29,2.29,0,0,0,.1-.23.42.42,0,0,0,0-.1v0h0v0l0-.08s0,0,0-.05l0-.07a.36.36,0,0,0,0-.09s0,0,0-.08c4.09-9.11,5.66-12.61,6.26-14,.09-.2.16-.36.21-.49l0,0c5.53-12.28,11.79-33.4,13.93-47l.08-.53c.52-3.41.93-7.38,1.23-11.66.91-12.82.83-28.3-.35-39h0a246.32,246.32,0,0,0-5.13-27.56c-.84-3.48-1.71-6.88-2.61-10.14-1.49-5.42-3-10.41-4.52-14.57-1.23-3.46-2.81-7.43-4.61-11.66a365.42,365.42,0,0,0-20.37-40.59c-3.85-6.39-9.52-14.82-16-23.75-6.09-8.41-12.15-16.29-17.44-22.68-1.22-1.48-2.4-2.87-3.52-4.18-1.84-2.13-3.91-4.44-6.15-6.88A573.63,573.63,0,0,0,1086,512.13l-1.79-1.52-.49-.42c-.51-.43-1-.87-1.57-1.31l-.36-.31-2-1.64-.43-.35-1.73-1.42-.49-.39-2.19-1.77-.11-.08c-.7-.57-1.41-1.13-2.13-1.7l-.57-.45-2-1.6-.3-.23-2.32-1.82a1.84,1.84,0,0,1-.22-.17c13,9.61,26.17,19.94,35.34,27.85,15.71,13.55,38.75,36.48,51.36,51.11s30.45,39,39.69,54.39c9.09,15.1,21,40.05,26.65,55.6a2,2,0,0,0,.08.22l.07.18q.35,1,.69,2c1.64,4.81,3.33,10.49,4.94,16.6.12.43.22.85.33,1.27l.15.6c.25.94.5,1.93.76,3,.35,1.4.71,2.91,1.11,4.6.29,1.22.57,2.42.83,3.65.15.66.31,1.34.45,2l0,.1c.24,1.15.49,2.3.72,3.44.33,1.58.65,3.17.94,4.75s.58,3.13.84,4.67l.5,3c.39,2.65.64,4.5.82,6.16.63,5.85,1,13.09,1,20.95a235.57,235.57,0,0,1-2,33.16,224.86,224.86,0,0,1-8.61,34,173.15,173.15,0,0,1-6.33,16.7l-3.3,7.34-.36.8-.07.16a141.08,141.08,0,0,1-17.69,28.85,1.72,1.72,0,0,1-.16.2l-1.29,1.58c-.79,1-1.62,2-2.46,3-1,1.25-2.08,2.54-3.14,3.85-9.67,11.84-28.16,29.58-41.21,39.55l-1.25.94c-12,8.92-31.63,21-46.77,28.76q-2.45,1.26-4.7,2.35c-2,1-4.19,2-6.52,3-1.17.52-2.37,1.05-3.61,1.58-2.47,1.06-5.06,2.14-7.74,3.23-14.74,6-32,12.13-44.77,15.77q-4.91,1.39-10,2.69c-31.8,8.17-68.1,13.56-104,15.53-11.13.61-22.23.9-33.16.84a801.65,801.65,0,0,1-80-5.11c-3.09-.38-6.46-.84-10-1.36-15.53-2.26-35-5.7-52.49-9.31l-7.81-1.65c-4-.88-7.6-1.7-10.78-2.47-16.8-4-41.11-11.12-61.32-17.71-6.74-2.19-13-4.34-18.41-6.3-5.18-1.88-11.21-4.19-17.71-6.79-2.16-.87-4.38-1.76-6.64-2.69q-5.43-2.24-10.8-4.52c-42.92-18.35-82.52-39.69-118.17-63.69q-13.37-9-26-18.49c-42.79-32.18-78-67.88-104.85-106.37q-7.45-10.7-14.08-21.67l-.87-1.47a389.24,389.24,0,0,1-18.28-35.89c-.28-.62-.55-1.24-.82-1.85-1.09-2.46-2.12-4.86-3.08-7.17-.47-1.15-.93-2.28-1.37-3.39s-.86-2.18-1.25-3.22-.77-2-1.12-3c-5.54-15.53-11.41-40.61-13.1-55.9-.11-1-.2-1.94-.29-3-.28-3.12-.48-6.63-.6-10.5-.09-2.68-.14-5.41-.14-8.16,0-3.73.05-7.48.18-11.14a197.57,197.57,0,0,1,1.78-21.33,188.16,188.16,0,0,1,4.76-21.24c.19-.7.38-1.4.58-2.09,1.18-4.17,2.44-8.25,3.74-12.1,1.94-5.77,3.95-11,5.86-15.26.74-1.65,1.6-3.43,2.55-5.31a262.79,262.79,0,0,1,16-27c3.17-4.68,6.12-8.75,8.79-12.11.38-.48.75-.95,1.12-1.4,9.69-11.86,28.17-29.59,41.21-39.53,1.22-.93,2.62-2,4.28-3.17A387.78,387.78,0,0,1,444.71,404.8ZM320.43,496.55c10.2-12.48,29.62-31.1,43.29-41.52,3.39-2.58,7.59-5.54,12.28-8.66l-2.1,1.91-.51.47-2.1,1.94c-.22.21-.44.42-.67.62l-2.46,2.35-.45.43-2.09,2-.67.66-2.38,2.36-.35.36c-.69.69-1.37,1.39-2,2.07l-.63.65c-.76.78-1.51,1.56-2.24,2.33l-.25.27c-.66.69-1.3,1.38-1.93,2.07l-.56.61c-.69.75-1.37,1.5-2,2.23l-.12.14c-.62.69-1.21,1.37-1.78,2l-.47.55c-.59.7-1.18,1.39-1.72,2.06-3,3.68-6.4,8.3-10.07,13.73-.48.7-.95,1.41-1.42,2.12A240.39,240.39,0,0,0,319.56,521a220.25,220.25,0,0,0-10.34,29.88c-2,7.15-3.5,13.76-4.45,19.29-.14.79-.26,1.56-.37,2.3s-.2,1.35-.29,2a259.21,259.21,0,0,0-1.57,39.13c.17,5.23.48,9.85.91,13.71,1.71,15.48,7.65,40.86,13.26,56.57,1.66,4.66,3.89,10.16,6.45,16,4.47,10.18,9.94,21.39,15.12,30.94.31.58.63,1.15.94,1.71.62,1.13,1.24,2.24,1.85,3.31q1.37,2.42,2.69,4.59c28.39,47.16,68.66,90.52,119.68,128.9a635.33,635.33,0,0,0,58.74,39.12,1.45,1.45,0,0,0,.59.66h0c3.91,2.33,8,4.69,12.52,7.24h0a1.54,1.54,0,0,0,.74.19l.13,0a760.23,760.23,0,0,0,82.9,39.89l3.37,1.37c7.79,3.15,15,6,21.1,8.15,7.44,2.71,16.57,5.76,26.26,8.83,18.49,5.84,39,11.72,53.79,15.28,3.19.77,6.78,1.59,10.84,2.47,2.44.54,5.05,1.09,7.85,1.67,21.57,4.46,46.21,8.66,62.77,10.71,22.46,2.78,58.53,5.08,80.39,5.13H891l3.67,0h.65c1.45,0,2.91,0,4.37-.08h0a575.21,575.21,0,0,0,99-10.73l.22,0,4.09-.84.42-.09,3.83-.82.63-.13,3.58-.81.83-.18,3.37-.8,1-.22,3.19-.79,1.11-.27,3-.77,1.2-.31,3-.81,1.15-.31c1.38-.37,2.74-.75,4.1-1.14,4.09-1.16,8.64-2.58,13.42-4.18,1.37-.45,2.76-.92,4.15-1.4,2.1-.72,4.23-1.46,6.37-2.23,14.28-5.11,29.12-11.1,39.18-16a377.21,377.21,0,0,0,36.61-20.89l1.71-1.1q2.55-1.67,4.94-3.27c3.71-2.51,7.1-4.91,10-7.11,13.21-10.08,31.92-28,41.72-40,1.06-1.31,2.11-2.6,3.13-3.84.85-1,1.68-2.05,2.47-3l1.27-1.56a3.1,3.1,0,0,0,.21-.25h0a127.47,127.47,0,0,0,17.64-28.55c.08-.17.15-.34.23-.52l.24-.53c.11-.25.23-.5.36-.78l3.31-7.37a181,181,0,0,0,6.44-17c4.08-12.35,7.34-25.25,8.72-34.5a218.18,218.18,0,0,0,2-26.32c0-.26,0-.52,0-.77,0-1.29,0-2.57,0-3.86v-2.67a212.08,212.08,0,0,0-1-21.25c-.23-2.15-.55-4.38-.84-6.3l-.08-.52c-.14-.84-.27-1.69-.42-2.56-.53-3.12-1.13-6.33-1.8-9.54v0l-.2-1c-.17-.86-.35-1.72-.54-2.55s-.31-1.41-.46-2.07q-.27-1.25-.57-2.49l-.27-1.19-.49-2c0-.24-.11-.47-.17-.7-.1-.41-.19-.81-.29-1.19s-.12-.51-.19-.76-.16-.67-.25-1-.13-.51-.19-.76l-.16-.61c1.57,3.78,2.94,7.29,4,10.36,5.8,16.26,12,42.6,13.77,58.71s1.33,41.53-1,56.82v0c-.12.91-.28,1.82-.45,2.78s-.35,1.93-.54,2.93c-3,15-9.18,35.28-14.68,47.53L1226,896.38l-.12.25c-.54,1.22-1.11,2.42-1.69,3.62a122.27,122.27,0,0,1-15.06,23.48l-8.26,10.12c-3.25,4-7.6,8.76-12.58,13.84a314.21,314.21,0,0,1-30.71,27.68c-13.64,10.42-38.47,25.52-55.35,33.67s-46.45,19.27-65.79,24.77c-4.2,1.2-9.25,2.5-14.82,3.84q-2.77.66-5.69,1.32l-.08,0c-17.41,4-36.55,7.55-50.82,9.54l-2.78.37c-21.33,2.76-57.2,5-80.07,4.94h-.27c-15.77,0-38.51-1.21-58.8-2.87-9.22-.75-17.94-1.61-25.26-2.52-4.39-.54-9.31-1.22-14.55-2-21.84-3.3-49.31-8.47-68.38-13l-2.25-.54c-2.94-.71-6.1-1.51-9.42-2.37-23.26-6.09-54.49-15.65-74.3-22.84-21.19-7.69-53.94-21.62-75.54-32.07l-4.16-2c-9.63-4.8-21.6-11.26-33.59-18.06-14.6-8.28-29.22-17.06-39.69-23.93l-1.82-1.21c-9.91-6.61-22.07-15.36-33.71-24.17-1.46-1.1-2.9-2.2-4.34-3.3-9.31-7.15-18.05-14.15-24.71-19.9-7.73-6.66-17.5-15.83-27.11-25.36-5.77-5.71-11.48-11.56-16.66-17.08l-.1-.1c-.93-1-1.84-2-2.72-2.93-2.08-2.24-4-4.37-5.76-6.38l-1.6-1.83c-7.06-8.17-15.64-19.24-23.59-30.22-3.27-4.53-6.43-9-9.34-13.34q-1.25-1.83-2.43-3.62c-2.35-3.56-4.49-6.91-6.3-9.93-3-5-6.36-11.09-9.67-17.51l-2-3.9-1-2a356.65,356.65,0,0,1-15.5-35.43,305.81,305.81,0,0,1-9.8-35.69c-.64-3-1.24-5.93-1.78-8.81l-.36-2c-.82-4.53-1.43-8.64-1.83-12.24-.37-3.41-.65-7.28-.83-11.43a294.17,294.17,0,0,1,.73-35.93c.09-1,.18-2,.28-3,.07-.61.13-1.2.19-1.78.2-1.72.4-3.27.62-4.7,1.79-11.9,6.48-29.08,11.47-42.77,1.4-3.84,2.82-7.4,4.21-10.49.2-.44.4-.88.6-1.3a.77.77,0,0,0,.07-.16C297.8,529,310.63,508.55,320.43,496.55Zm734.86,598.65c-16,7.74-44.14,18.32-62.63,23.58s-50.16,11.71-70.66,14.37a698.66,698.66,0,0,1-76.52,4.7c-21.73-.06-57.64-2.36-80-5.12s-58.71-9.38-81.12-14.78-58.17-16.19-79.73-24-55.65-22.41-75.91-32.48-51.56-28-69.77-40-45.79-32.72-61.5-46.27S358.66,938.73,346,924.09,315.57,885,306.36,869.7c-3.81-6.33-8.11-14.36-12.23-22.7.05.09.11.18.17.27.56.9,1.15,1.82,1.75,2.76l.21.31c.63,1,1.29,2,2,3l.06.09c.67,1,1.36,2.05,2.07,3.09l.24.35c.68,1,1.37,2,2.08,3.06l.35.51,2.11,3c.14.2.28.39.41.59l2.17,3.06.41.57,2.24,3.13c.12.16.24.33.37.49.77,1.08,1.56,2.15,2.34,3.22l.26.34c.81,1.11,1.63,2.21,2.45,3.31l.09.12,2.46,3.26.26.34c.79,1.05,1.59,2.08,2.38,3.1l.35.47,2.31,3,.38.48c.76,1,1.52,1.92,2.27,2.85.12.16.24.31.37.46.75.94,1.49,1.86,2.23,2.76l.31.38c.75.92,1.5,1.82,2.23,2.69.06.08.13.15.2.23.76.91,1.51,1.8,2.24,2.65,13.41,15.52,37.76,39.74,54.28,54S433.7,991,453,1003.73s52.3,31.58,73.57,42.16q3,1.5,6.38,3.11c21.62,10.34,53,23.67,73.64,31.15,22.86,8.29,60.56,19.64,84,25.3l2.24.53c19.81,4.67,48.84,10.1,71.22,13.4,4.3.64,8.36,1.19,12.06,1.65,23.55,2.92,61.42,5.34,84.41,5.4h4.83l1.23,0h1.1l1.23,0,1.17,0,1.24,0,1.19,0,1.3,0,1.2,0,1.32,0,1.21,0,1.4,0,1.17,0,1.47-.06,1.13,0,1.56-.06,1.07-.05,1.6-.07,1.09,0,1.63-.07,1-.05,1.73-.09,1,0,1.77-.09,1-.06,1.8-.1.91,0,1.8-.11.95-.06,1.68-.1,1.07-.07,1.64-.11,1.07-.07,1.68-.11,1-.08,1.7-.12,1-.07,1.69-.13,1-.07,1.67-.13.95-.08,1.65-.14.95-.08,1.55-.13,1-.09,1.41-.12,1.11-.1,1.26-.12,1.2-.12,1.22-.12,1.18-.11,1.15-.12,1.2-.13,1.07-.11,1.2-.13,1.1-.13,1.11-.12,1.17-.14.95-.12,2.05-.25a637.84,637.84,0,0,0,70.8-14.13c1.33-.36,2.61-.71,3.83-1.06l2.95-.86.47-.14,3-.9.56-.18c1-.31,2.06-.64,3.11-1l.37-.12,3.19-1,.27-.09,3.32-1.12.61-.2,3.3-1.15.57-.19,3.47-1.23.15-.06,3.45-1.24.48-.18,3.41-1.26.63-.24,3.39-1.28.47-.18,3.39-1.31.17-.07,3.39-1.33.57-.23,3.22-1.3.55-.22,3.21-1.33.26-.11c1-.43,2-.85,3-1.28l.37-.16,2.92-1.27.29-.12C1067.58,1088.89,1060.89,1092.49,1055.29,1095.2ZM1181.54,1001l-.7.85-1.27,1.57c-10.21,12.49-29.63,31.11-43.28,41.52a358.66,358.66,0,0,1-32.45,21.26c-8.41,4.94-16.34,9.23-22.91,12.41-16.87,8.13-46.39,19.25-65.79,24.77l-1.87.52a638.61,638.61,0,0,1-66,13.69q-3.3.5-6.32.88c-21.45,2.77-57.49,5-80.35,4.93s-60.59-2.47-84.05-5.38-61.79-9.87-85.18-15.52-60.94-16.94-83.72-25.2c-17-6.17-41.35-16.32-61.45-25.48l-2.49-1.14c-1.64-.76-3.25-1.5-4.82-2.24-3.93-1.84-7.61-3.61-10.94-5.26-2.65-1.32-5.48-2.77-8.44-4.32q-2.24-1.16-4.54-2.39l-2.34-1.25-3.21-1.73-4-2.18c-1.27-.69-2.54-1.4-3.82-2.11l-2.19-1.22-4.78-2.69c-14.64-8.3-29.38-17.14-40-24.09-9.17-6-20.55-14.15-31.72-22.51l-3.3-2.48-1.06-.8-2.59-2-3.83-3-3.73-2.9q-2.64-2.07-5.16-4.08c-1.6-1.28-3.17-2.55-4.68-3.78-3.09-2.51-5.95-4.91-8.51-7.12-16.43-14.16-40.64-38.24-54-53.67-5-5.79-10.74-13-16.48-20.62-9.57-12.69-19.14-26.46-25.18-36.5-3-4.93-6.29-11-9.67-17.54q-1.12-2.19-2.26-4.45l0-.05q-1.42-2.87-2.85-5.8c-5.56-11.53-10.42-22.82-13.33-31-5.8-16.26-12-42.6-13.77-58.7a262,262,0,0,1-.71-38.43c0,.08,0,.15,0,.22l0,.36c.08.82.16,1.62.24,2.39,1.41,12.6,5.55,32.06,10.32,48.42.18.58.35,1.16.52,1.72,1.19,4,2.28,7.3,3.32,10.2,6,16.75,18.9,43.81,28.85,60.34.48.8,1,1.64,1.53,2.49,2.21,3.57,4.79,7.52,7.7,11.81a.64.64,0,0,0,.1.13c1.3,1.93,2.65,3.88,4,5.85,9.64,13.79,20.72,28.26,29.29,38.2,13.56,15.71,38.3,40.32,55.16,54.87C403.52,932,419,944.1,434,955c1.5,1.09,3,2.17,4.46,3.23q3.31,2.4,6.53,4.67c5,3.53,9.75,6.78,14,9.58,4.87,3.21,10.63,6.82,16.86,10.6l4.75,2.86,2.43,1.44c2.45,1.45,4.95,2.92,7.46,4.38,3.36,2,6.76,3.9,10.15,5.81,11.86,6.71,23.63,13.06,33.13,17.78,8.13,4,18.34,8.77,29.15,13.54l2.71,1.19c17.26,7.56,35.71,15.09,49.48,20.09,11.83,4.3,27.66,9.42,43.52,14.18l3.46,1c2.64.78,5.28,1.55,7.89,2.3l3.8,1.09q2.52.72,5,1.4c7.9,2.21,15.35,4.17,21.78,5.72l4.66,1.1c23.34,5.37,57.45,11.55,80,14.45l2.29.29c23.9,3,62.38,5.43,85.79,5.5H878l1.73,0h.58l2,0h.36l2.23-.05h.22l2.43-.06h.08c19.68-.54,43.53-2.11,61.07-4h.08l1.9-.22.36,0,1.91-.23.25,0,2.09-.26c2.75-.36,5.68-.78,8.75-1.25a653.09,653.09,0,0,0,65.21-13.64l1.9-.54c2.39-.68,5-1.45,7.66-2.3,11.7-3.68,25.88-8.78,38.83-14,8.08-3.25,15.29-6.39,20.86-9.08a394.76,394.76,0,0,0,37.17-21.07l1.85-1.18c1.84-1.19,3.64-2.36,5.38-3.52,4.64-3.1,8.88-6.08,12.41-8.77,1.85-1.41,3.79-3,5.79-4.62,1.25-1,2.52-2.09,3.81-3.21l0,0,.06,0c12.88-11.08,26.86-25.07,34.8-34.8l.59-.73A198.14,198.14,0,0,1,1181.54,1001Zm62.32-131.81-.09.57A204,204,0,0,1,1228.1,923l-.19.42c-4,9-11.1,21.35-18.89,33a.64.64,0,0,0-.08.14l-.84,1.25c-.22.31-.43.64-.65,1s-.55.81-.82,1.21l-.69,1c-.28.4-.56.79-.83,1.19l-.66.93-.86,1.19c-.2.28-.4.57-.6.84l-.8,1.09-.64.86-.76,1-.63.83-.74,1c-.2.26-.41.54-.62.79-.44.57-.88,1.11-1.3,1.63-3.66,4.49-8.64,9.9-14.2,15.51-6.32,6.38-13.39,13-20.17,18.86l-.05,0,0,0-2.49,2.12c-2.45,2.06-4.81,3.95-7,5.66-14,10.65-39.23,26-56.29,34.22-5.51,2.66-12.66,5.78-20.68,9l-3,1.19c-15,5.95-31.34,11.62-43.2,15-5.56,1.58-12.23,3.26-19.43,4.92-18.42,4.25-40.31,8.38-56,10.41l-3.15.39a771.06,771.06,0,0,1-78.54,4.64c-23.3-.07-61.62-2.53-85.43-5.48s-62.69-10-86.59-15.78c-2.24-.54-4.61-1.13-7.08-1.77-23.88-6.13-57.19-16.28-78-23.85-3.61-1.31-7.54-2.79-11.69-4.41q-2.49-1-5.07-2l-2.6-1-5.32-2.15-5.41-2.23c-18.18-7.55-37.44-16.15-50.93-22.86-12.85-6.39-29.84-15.74-45.6-25l-3.39-2c-3.79-2.23-7.48-4.45-11-6.6-5.32-3.25-10.24-6.35-14.49-9.14-16.38-10.76-39.91-28.2-57-42.09-3.16-2.57-6.09-5-8.71-7.29-16.77-14.46-41.37-38.93-54.84-54.55-5.49-6.36-12-14.6-18.53-23.32-5.07-6.79-10.12-13.86-14.68-20.58a.64.64,0,0,0-.1-.13q-2.18-3.22-4.11-6.19c-.55-.85-1.09-1.68-1.61-2.5-1.2-1.88-2.32-3.67-3.33-5.35a405.51,405.51,0,0,1-20.45-39.9c-1.19-2.65-2.32-5.25-3.38-7.76q-.8-1.87-1.53-3.69c-1.22-3-2.31-5.85-3.24-8.45-.29-.81-.59-1.67-.89-2.56-.9-2.68-1.86-5.71-2.89-9.2-4.72-16.2-8.83-35.46-10.22-47.9-.09-.83-.17-1.69-.25-2.58s-.16-1.79-.23-2.73c-.41-5.62-.63-12.1-.61-18.79a242.09,242.09,0,0,1,2.09-33.68c2.36-15.56,9.52-39.84,15.95-54.13a206.55,206.55,0,0,1,10.26-19.31l0,0c-.25.74-.51,1.49-.76,2.24-.07.19-.13.38-.2.58-.2.62-.41,1.25-.62,1.88l-.15.47c-.25.76-.49,1.52-.73,2.29l-.17.53c-.2.63-.39,1.27-.59,1.91-.06.19-.11.38-.17.57-.24.77-.47,1.55-.7,2.34,0,.12-.07.25-.11.37-.2.68-.39,1.35-.58,2l-.18.61c-.22.79-.44,1.57-.65,2.36l0,.08c-.21.76-.41,1.51-.61,2.26,0,.21-.11.42-.16.62-.18.68-.35,1.36-.52,2l-.09.31c-.19.77-.37,1.52-.55,2.28,0,.19-.1.38-.14.57-.15.62-.29,1.23-.43,1.84,0,.16-.08.32-.11.48-.17.73-.33,1.46-.48,2.17,0,.16-.07.32-.11.48l-.36,1.74c0,.18-.07.36-.11.53-.14.7-.27,1.38-.4,2.06,0,.1,0,.2-.05.31-.11.58-.21,1.15-.31,1.71l-.09.52c-.11.65-.21,1.29-.3,1.91s-.15,1-.22,1.51c-.22,1.55-.42,3.24-.61,5.12-.81,7.86-1.24,17.15-1.27,26.2a230.89,230.89,0,0,0,1.09,24.76c.4,3.67,1,7.85,1.86,12.45.11.66.24,1.32.37,2,.54,2.9,1.14,5.88,1.79,8.89a306.83,306.83,0,0,0,9.91,36.05c.36,1,.75,2.1,1.17,3.2s.86,2.24,1.32,3.41.95,2.36,1.46,3.58a412.31,412.31,0,0,0,24.42,49.16c1.23,2,2.59,4.21,4.06,6.5a526.78,526.78,0,0,0,37.9,51l2.3,2.63c2.4,2.69,5.06,5.61,8,8.71l.1.1c13.86,14.76,31.49,31.85,43.9,42.56,16.48,14.2,45.59,36.1,64.9,48.8,19.14,12.58,52.15,31.5,73.58,42.17l2,1c19.52,9.56,49.45,22.46,71.26,30.74,2.34.88,4.58,1.72,6.71,2.49l4.43,1.58c22.95,8.07,57.47,18.38,79.61,23.73,13.28,3.2,31.23,6.81,48.58,9.87,3.86.68,7.69,1.33,11.43,2q2.81.46,5.53.89c2.73.44,5.39.84,8,1.22,1.71.25,3.39.5,5,.72,2.44.34,4.78.65,7,.92,23.51,2.91,61.38,5.34,84.41,5.41h.76a756.79,756.79,0,0,0,77.94-4.71l2-.25c14.56-1.89,35.17-5.7,53.81-10l.08,0c8-1.82,15-3.58,20.74-5.22,19.48-5.53,49.21-16.73,66.27-25s42.1-23.46,55.87-34a315.72,315.72,0,0,0,31-28q1.89-1.93,3.66-3.79c3.52-3.73,6.62-7.22,9.1-10.25l8.26-10.12A124.81,124.81,0,0,0,1224,907c1.65-3,3.19-6,4.59-9.13l.12-.25,4.78-10.63c.33-.74.66-1.52,1-2.31l.28-.67c.28-.66.56-1.34.83-2,.07-.16.14-.32.2-.49.34-.84.67-1.71,1-2.59l.27-.7c.26-.7.53-1.42.79-2.16l.27-.74c.33-.92.66-1.86,1-2.81l.18-.54c.28-.81.55-1.63.83-2.45.09-.28.18-.57.28-.86l.9-2.79.07-.22q.48-1.51.93-3c.09-.29.18-.58.26-.87.25-.83.5-1.65.74-2.48.06-.22.13-.44.19-.66.29-1,.58-2,.86-3.06.07-.23.13-.46.19-.7.23-.83.45-1.66.67-2.48.07-.26.13-.52.2-.77s.09-.35.14-.52C1245.21,857.91,1244.63,864.17,1243.86,869.22Z"/></svg>