<svg id="Abstract_Shape" data-name="Abstract Shape" xmlns="http://www.w3.org/2000/svg" viewBox="0 0 1500 1500"><polygon points="1219.7 643.94 1219.7 553.03 1189.39 553.03 1189.39 674.24 1219.7 674.24 1219.7 825.76 1189.39 825.76 1189.39 946.97 1219.7 946.97 1219.7 856.06 1250 856.06 1250 643.94 1219.7 643.94"/><polygon points="977.27 340.91 977.27 371.21 1037.88 371.21 1037.88 401.51 1068.18 401.51 1068.18 431.82 1098.48 431.82 1098.48 462.12 1128.79 462.12 1128.79 522.73 1159.09 522.73 1159.09 553.03 1189.39 553.03 1189.39 492.42 1159.09 492.42 1159.09 431.82 1128.79 431.82 1128.79 401.51 1098.48 401.51 1098.48 371.21 1068.18 371.21 1068.18 340.91 1007.58 340.91 1007.58 310.61 946.97 310.61 946.97 340.91 977.27 340.91"/><polygon points="1159.09 977.27 1128.79 977.27 1128.79 1037.88 1098.48 1037.88 1098.48 1068.18 1068.18 1068.18 1068.18 1098.48 1037.88 1098.48 1037.88 1128.79 977.27 1128.79 977.27 1159.09 946.97 1159.09 946.97 1189.39 1007.58 1189.39 1007.58 1159.09 1068.18 1159.09 1068.18 1128.79 1098.48 1128.79 1098.48 1098.48 1128.79 1098.48 1128.79 1068.18 1159.09 1068.18 1159.09 1007.58 1189.39 1007.58 1189.39 946.97 1159.09 946.97 1159.09 977.27"/><polygon points="1098.48 583.33 1068.18 583.33 1068.18 674.24 1098.48 674.24 1098.48 825.76 1068.18 825.76 1068.18 916.67 1098.48 916.67 1098.48 856.06 1128.79 856.06 1128.79 643.94 1098.48 643.94 1098.48 583.33"/><polygon points="946.97 462.12 946.97 492.42 977.27 492.42 977.27 522.73 1007.58 522.73 1007.58 553.03 1037.88 553.03 1037.88 583.33 1068.18 583.33 1068.18 522.73 1037.88 522.73 1037.88 492.42 1007.58 492.42 1007.58 462.12 977.27 462.12 977.27 431.82 916.67 431.82 916.67 462.12 946.97 462.12"/><polygon points="1037.88 946.97 1007.58 946.97 1007.58 977.27 977.27 977.27 977.27 1007.58 946.97 1007.58 946.97 1037.88 916.67 1037.88 916.67 1068.18 977.27 1068.18 977.27 1037.88 1007.58 1037.88 1007.58 1007.58 1037.88 1007.58 1037.88 977.27 1068.18 977.27 1068.18 916.67 1037.88 916.67 1037.88 946.97"/><polygon points="977.27 613.64 946.97 613.64 946.97 674.24 977.27 674.24 977.27 825.76 946.97 825.76 946.97 886.36 977.27 886.36 977.27 856.06 1007.58 856.06 1007.58 643.94 977.27 643.94 977.27 613.64"/><polygon points="674.24 280.3 825.76 280.3 825.76 310.61 946.97 310.61 946.97 280.3 856.06 280.3 856.06 250 643.94 250 643.94 280.3 553.03 280.3 553.03 310.61 674.24 310.61 674.24 280.3"/><polygon points="916.67 583.33 916.67 613.64 946.97 613.64 946.97 553.03 886.36 553.03 886.36 583.33 916.67 583.33"/><polygon points="916.67 916.67 886.36 916.67 886.36 946.97 946.97 946.97 946.97 886.36 916.67 886.36 916.67 916.67"/><polygon points="825.76 1219.7 674.24 1219.7 674.24 1189.39 553.03 1189.39 553.03 1219.7 643.94 1219.7 643.94 1250 856.06 1250 856.06 1219.7 946.97 1219.7 946.97 1189.39 825.76 1189.39 825.76 1219.7"/><polygon points="674.24 401.51 825.76 401.51 825.76 431.82 916.67 431.82 916.67 401.51 856.06 401.51 856.06 371.21 643.94 371.21 643.94 401.51 583.33 401.51 583.33 431.82 674.24 431.82 674.24 401.51"/><polygon points="825.76 1098.48 674.24 1098.48 674.24 1068.18 583.33 1068.18 583.33 1098.48 643.94 1098.48 643.94 1128.79 856.06 1128.79 856.06 1098.48 916.67 1098.48 916.67 1068.18 825.76 1068.18 825.76 1098.48"/><polygon points="674.24 522.73 825.76 522.73 825.76 553.03 886.36 553.03 886.36 522.73 856.06 522.73 856.06 492.42 643.94 492.42 643.94 522.73 613.64 522.73 613.64 553.03 674.24 553.03 674.24 522.73"/><path d="M856.06,643.94h-30.3v-30.3H674.24v30.3h-30.3v30.3h-30.3V825.76h30.3v30.3h30.3v30.3H825.76v-30.3h30.3v-30.3h30.3V674.24h-30.3Zm0,151.51h-30.3v30.31H795.45v30.3h-90.9v-30.3H674.24V795.45h-30.3v-90.9h30.3V674.24h30.31v-30.3h90.9v30.3h30.31v30.31h30.3Z"/><polygon points="825.76 977.27 674.24 977.27 674.24 946.97 613.64 946.97 613.64 977.27 643.94 977.27 643.94 1007.58 856.06 1007.58 856.06 977.27 886.36 977.27 886.36 946.97 825.76 946.97 825.76 977.27"/><rect x="734.85" y="734.85" width="30.3" height="30.3"/><polygon points="583.33 583.33 613.64 583.33 613.64 553.03 553.03 553.03 553.03 613.64 583.33 613.64 583.33 583.33"/><polygon points="583.33 916.67 583.33 886.36 553.03 886.36 553.03 946.97 613.64 946.97 613.64 916.67 583.33 916.67"/><polygon points="462.12 553.03 492.42 553.03 492.42 522.73 522.73 522.73 522.73 492.42 553.03 492.42 553.03 462.12 583.33 462.12 583.33 431.82 522.73 431.82 522.73 462.12 492.42 462.12 492.42 492.42 462.12 492.42 462.12 522.73 431.82 522.73 431.82 583.33 462.12 583.33 462.12 553.03"/><polygon points="553.03 1037.88 553.03 1007.58 522.73 1007.58 522.73 977.27 492.42 977.27 492.42 946.97 462.12 946.97 462.12 916.67 431.82 916.67 431.82 977.27 462.12 977.27 462.12 1007.58 492.42 1007.58 492.42 1037.88 522.73 1037.88 522.73 1068.18 583.33 1068.18 583.33 1037.88 553.03 1037.88"/><polygon points="340.91 522.73 371.21 522.73 371.21 462.12 401.52 462.12 401.52 431.82 431.82 431.82 431.82 401.51 462.12 401.51 462.12 371.21 522.73 371.21 522.73 340.91 553.03 340.91 553.03 310.61 492.42 310.61 492.42 340.91 431.82 340.91 431.82 371.21 401.52 371.21 401.52 401.51 371.21 401.51 371.21 431.82 340.91 431.82 340.91 492.42 310.61 492.42 310.61 553.03 340.91 553.03 340.91 522.73"/><polygon points="522.73 825.76 522.73 674.24 553.03 674.24 553.03 613.64 522.73 613.64 522.73 643.94 492.42 643.94 492.42 856.06 522.73 856.06 522.73 886.36 553.03 886.36 553.03 825.76 522.73 825.76"/><polygon points="522.73 1159.09 522.73 1128.79 462.12 1128.79 462.12 1098.48 431.82 1098.48 431.82 1068.18 401.52 1068.18 401.52 1037.88 371.21 1037.88 371.21 977.27 340.91 977.27 340.91 946.97 310.61 946.97 310.61 1007.58 340.91 1007.58 340.91 1068.18 371.21 1068.18 371.21 1098.48 401.52 1098.48 401.52 1128.79 431.82 1128.79 431.82 1159.09 492.42 1159.09 492.42 1189.39 553.03 1189.39 553.03 1159.09 522.73 1159.09"/><polygon points="401.52 825.76 401.52 674.24 431.82 674.24 431.82 583.33 401.52 583.33 401.52 643.94 371.21 643.94 371.21 856.06 401.52 856.06 401.52 916.67 431.82 916.67 431.82 825.76 401.52 825.76"/><polygon points="280.3 825.76 280.3 674.24 310.61 674.24 310.61 553.03 280.3 553.03 280.3 643.94 250 643.94 250 856.06 280.3 856.06 280.3 946.97 310.61 946.97 310.61 825.76 280.3 825.76"/></svg>