<svg id="Abstract_Shape" data-name="Abstract Shape" xmlns="http://www.w3.org/2000/svg" viewBox="0 0 1500 1500"><path d="M1214,935.83c-.88-.81-2.42-2-3.42-2.74s-3.1-2.13-4.56-3-4-2.43-5.76-3.45-4.87-2.75-6.94-3.87-5.71-3-8.1-4.27-6.54-3.33-9.21-4.66-7.33-3.61-10.27-5-8-3.81-11.27-5.35-8.74-4.06-12.22-5.66-9.39-4.26-13.12-5.93-10-4.45-14-6.18-9.43-4.12-12.18-5.3-8.5-3.65-12.79-5.47-11.37-4.79-15.73-6.61-11.47-4.76-15.8-6.53-11.34-4.61-15.59-6.32-11.15-4.45-15.32-6.1-10.89-4.27-14.94-5.83-10.58-4.07-14.5-5.55-10.2-3.84-14-5.24-9.77-3.59-13.35-4.88-9.27-3.33-12.65-4.51-8.72-3-11.87-4.11-8.11-2.73-11-3.68-7.39-2.38-10.08-3.21-6.71-2-9.06-2.72-5.92-1.67-8-2.21-5.1-1.28-6.82-1.66-3.9-.82-4.89-1-2.76-.39-3.93-.49a21.1,21.1,0,0,0-4.13,0,7.32,7.32,0,0,0-4.79,2.63,6.18,6.18,0,0,0-.32,6.52,14.14,14.14,0,0,0,2.55,3.13,40.6,40.6,0,0,0,3.42,2.74c1.08.78,3.08,2.11,4.56,3s4,2.43,5.75,3.45,4.87,2.74,7,3.87,5.71,3,8.1,4.27,6.54,3.34,9.21,4.66,7.32,3.6,10.27,5,8,3.81,11.27,5.35,8.73,4.06,12.22,5.66,9.39,4.26,13.12,5.93,10,4.45,13.95,6.18,9.43,4.12,12.18,5.3,8.5,3.65,12.79,5.47,11.36,4.79,15.73,6.61,11.47,4.76,15.79,6.53,11.34,4.61,15.6,6.32,11.15,4.45,15.31,6.09,10.9,4.28,15,5.84,10.58,4.07,14.5,5.55,10.2,3.84,14,5.24,9.77,3.59,13.35,4.88,9.28,3.33,12.65,4.51,8.73,3,11.88,4.11,8.11,2.73,11,3.68,7.46,2.4,10.08,3.21,6.7,2,9,2.72,5.92,1.67,8,2.21,5.12,1.28,6.83,1.66,3.89.82,4.89,1,2.76.39,3.93.49c.59.05,1.33.09,2.07.09a15.88,15.88,0,0,0,2.06-.12,7.32,7.32,0,0,0,4.79-2.63,6.21,6.21,0,0,0,.32-6.52A14.14,14.14,0,0,0,1214,935.83Zm-19.8-.51c-2-.52-5.45-1.48-7.73-2.13s-6.28-1.87-8.87-2.67-7-2.22-9.93-3.17-7.76-2.57-10.9-3.64-8.43-2.89-11.78-4.07-9-3.19-12.57-4.48-9.53-3.48-13.27-4.86-10-3.73-13.9-5.21-10.4-4-14.43-5.52-10.74-4.18-14.89-5.82-11-4.37-15.25-6.07-11.23-4.54-15.54-6.3-11.39-4.69-15.74-6.5-11.39-4.78-15.66-6.59-10-4.26-12.74-5.44-8.19-3.56-12.13-5.28-10.17-4.49-13.88-6.15-9.57-4.31-13-5.9-8.93-4.11-12.14-5.61-8.28-3.92-11.17-5.31-7.48-3.63-10.16-5-6.7-3.37-9.07-4.6-5.9-3.08-7.93-4.18-5-2.77-6.72-3.74l-1-.58c.75.18,1.48.37,2.09.53,2,.51,5.45,1.47,7.72,2.13s6.28,1.87,8.88,2.67,7.1,2.24,9.93,3.17,7.76,2.57,10.9,3.64,8.42,2.89,11.78,4.07,9,3.19,12.57,4.48,9.53,3.48,13.27,4.86,10,3.73,13.9,5.21,10.39,4,14.43,5.52,10.74,4.18,14.89,5.82,11,4.37,15.25,6.07,11.23,4.54,15.54,6.3,11.38,4.69,15.73,6.5,11.4,4.78,15.67,6.59,10,4.26,12.74,5.44,8.19,3.56,12.12,5.28,10.18,4.49,13.89,6.15,9.57,4.31,13,5.9,8.92,4.11,12.13,5.61,8.28,3.91,11.18,5.31,7.46,3.63,10.16,5,6.7,3.37,9.07,4.6,5.9,3.08,7.93,4.18,5,2.76,6.71,3.74l1,.58C1195.57,935.67,1194.85,935.48,1194.24,935.32Z"/><path d="M1107.86,1093.75c-.66-1.46-1.94-4-2.9-5.68s-2.67-4.55-3.87-6.44-3.36-5.09-4.83-7.2-4-5.65-5.74-7.94-4.69-6.17-6.64-8.65-5.32-6.66-7.5-9.3-5.89-7.09-8.3-9.92-6.49-7.52-9.09-10.48-7-7.9-9.83-11-7.53-8.23-10.53-11.44-7.12-7.6-9.23-9.82-6.45-6.71-9.76-10.11-8.72-8.9-12.06-12.24-8.84-8.8-12.18-12.08-8.77-8.53-12.08-11.7-8.67-8.24-11.94-11.28-8.51-7.89-11.71-10.81-8.3-7.51-11.42-10.27-8.09-7.12-11.07-9.7-7.81-6.67-10.66-9.05-7.43-6.16-10.16-8.37-7-5.61-9.63-7.62-6.61-5-9-6.82-6.16-4.47-8.34-6-5.63-3.82-7.62-5.09-5.09-3.14-6.86-4.15-4.52-2.43-6.09-3.16c-1.39-.65-3.48-1.55-4.6-1.94a27.48,27.48,0,0,0-4.09-1,14,14,0,0,0-5,.07,8.56,8.56,0,0,0-4.72,3.16,9.71,9.71,0,0,0-1.53,5.06,19.6,19.6,0,0,0,.71,4.77,43,43,0,0,0,1.89,5c.66,1.47,1.93,4,2.89,5.68s2.66,4.55,3.87,6.44,3.36,5.1,4.83,7.2,4,5.66,5.75,7.94,4.68,6.17,6.64,8.65,5.29,6.64,7.49,9.31,5.91,7.11,8.31,9.92,6.46,7.5,9.08,10.47,7,7.89,9.83,11,7.5,8.19,10.53,11.44,7.13,7.6,9.23,9.81,6.49,6.75,9.76,10.11,8.73,8.9,12.06,12.25,8.84,8.8,12.18,12.07,8.79,8.55,12.08,11.7,8.68,8.24,11.94,11.29,8.49,7.87,11.71,10.8,8.31,7.51,11.42,10.28,8.09,7.12,11.08,9.69,7.8,6.67,10.65,9.06,7.43,6.15,10.17,8.36,7,5.63,9.62,7.62,6.62,5.07,9,6.83,6.15,4.46,8.34,6,5.64,3.81,7.62,5.08,5.1,3.15,6.86,4.15,4.5,2.42,6.09,3.17c1.4.65,3.48,1.55,4.59,1.94a29.75,29.75,0,0,0,4.11,1,15.83,15.83,0,0,0,2.42.18,11.09,11.09,0,0,0,2.57-.26,8.55,8.55,0,0,0,4.73-3.15,9.81,9.81,0,0,0,1.52-5.07,19,19,0,0,0-.71-4.76A44.82,44.82,0,0,0,1107.86,1093.75Zm-9.47,7.63c-.59-.2-2.27-.91-3.65-1.55s-3.81-1.92-5.39-2.81-4.54-2.69-6.41-3.88-5.17-3.39-7.3-4.87-5.76-4.08-8.1-5.81-6.29-4.72-8.83-6.68-6.77-5.32-9.46-7.5-7.2-5.88-10-8.25-7.54-6.38-10.53-9-7.87-6.85-11-9.6-8.17-7.31-11.33-10.19-8.4-7.72-11.62-10.72-8.55-8-11.84-11.2-8.66-8.34-12-11.62-8.75-8.63-12.1-12-8.68-8.78-12-12.16-7.6-7.84-9.69-10S931,957,928,953.82s-7.68-8.31-10.43-11.34-7.15-8-9.73-10.88-6.62-7.58-9-10.35-6-7.16-8.19-9.78-5.46-6.73-7.36-9.14-4.82-6.22-6.48-8.45-4.15-5.66-5.56-7.68-3.46-5.08-4.6-6.86-2.74-4.45-3.57-5.94-2-3.7-2.51-4.9a33.26,33.26,0,0,1-1.37-3.65,3.57,3.57,0,0,1-.1-.35,16.18,16.18,0,0,1,1.82.48c.59.2,2.27.91,3.65,1.55s3.8,1.9,5.39,2.8,4.56,2.7,6.41,3.88,5.18,3.4,7.3,4.87,5.75,4.08,8.1,5.81,6.3,4.73,8.83,6.69,6.79,5.33,9.46,7.49,7.2,5.88,10,8.26,7.54,6.37,10.53,9,7.88,6.85,11,9.59,8.17,7.32,11.33,10.19,8.39,7.71,11.62,10.72,8.55,8.05,11.84,11.2,8.68,8.37,12,11.63,8.74,8.62,12.09,12,8.68,8.77,12,12.15,7.63,7.89,9.69,10,6.19,6.56,9.16,9.74,7.66,8.27,10.44,11.34,7.13,7.93,9.73,10.87,6.6,7.57,9,10.36,6,7.18,8.19,9.77,5.44,6.71,7.36,9.15,4.82,6.21,6.48,8.44,4.16,5.67,5.57,7.69,3.46,5.08,4.59,6.86,2.74,4.44,3.58,5.93,2,3.71,2.5,4.91a35.8,35.8,0,0,1,1.38,3.64l.09.36C1099.53,1101.71,1098.76,1101.51,1098.39,1101.38Z"/><path d="M950.76,1186.11c-.34-2.44-1-6.66-1.57-9.4s-1.48-7.39-2.16-10.39-1.9-8.07-2.73-11.31-2.31-8.71-3.29-12.17-2.7-9.28-3.83-13-3.09-9.83-4.36-13.7-3.46-10.32-4.87-14.37-3.81-10.73-5.36-15-3.71-10-4.81-12.83-3.43-8.79-5.19-13.23-4.69-11.59-6.54-16-4.86-11.51-6.72-15.8-4.93-11.15-6.81-15.31-4.95-10.75-6.85-14.76-5-10.35-6.83-14.13-4.93-9.83-6.8-13.45-4.86-9.28-6.7-12.69-4.77-8.69-6.58-11.86-4.68-8.08-6.41-11-4.53-7.39-6.2-10-4.36-6.64-6-9S836,911,834.5,909s-4-5-5.4-6.73-3.72-4.18-5.09-5.54a62.1,62.1,0,0,0-4.86-4.31,35.87,35.87,0,0,0-4-2.73,19.18,19.18,0,0,0-4.15-1.53,11.92,11.92,0,0,0-5.5.07,10.78,10.78,0,0,0-4.71,3,16,16,0,0,0-2.61,4.6,29.67,29.67,0,0,0-1.23,5.4,57.63,57.63,0,0,0-.37,6.3c0,1.89.14,5.11.32,7.33s.61,5.92,1,8.38,1.06,6.66,1.57,9.41S800.9,940,801.57,943s1.91,8.07,2.74,11.31,2.31,8.7,3.29,12.17,2.69,9.28,3.83,13,3.08,9.83,4.36,13.71,3.45,10.3,4.87,14.36,3.82,10.77,5.36,15,3.7,10,4.81,12.84,3.43,8.81,5.19,13.22,4.69,11.61,6.53,16,4.85,11.47,6.73,15.79,4.93,11.17,6.81,15.31,4.94,10.75,6.84,14.76,5,10.33,6.84,14.14,4.93,9.84,6.79,13.45,4.88,9.31,6.71,12.68,4.79,8.72,6.58,11.86,4.67,8.08,6.41,11,4.53,7.39,6.2,10,4.36,6.65,6,9,4.16,5.86,5.69,7.88,4,5.06,5.39,6.73,3.73,4.18,5.1,5.54a64.47,64.47,0,0,0,4.86,4.32,36.56,36.56,0,0,0,4,2.72,19.18,19.18,0,0,0,4.15,1.53,12.64,12.64,0,0,0,2.71.29,10.33,10.33,0,0,0,2.8-.35,11,11,0,0,0,4.71-3,16.12,16.12,0,0,0,2.61-4.6,31.32,31.32,0,0,0,1.23-5.39,60.27,60.27,0,0,0,.37-6.31c0-1.89-.14-5.11-.32-7.33S951.12,1188.58,950.76,1186.11Zm-9,20.73a21.71,21.71,0,0,1-.73,3.32,7.78,7.78,0,0,1-.66,1.3l0,0c-.13,0-.35,0-.44,0a9.24,9.24,0,0,1-1.67-.59,30.34,30.34,0,0,1-2.65-1.84c-1-.75-2.81-2.39-3.92-3.49s-3.25-3.43-4.54-4.94-3.61-4.4-5-6.28-3.89-5.3-5.43-7.53-4.14-6.13-5.77-8.68-4.35-6.91-6.06-9.75-4.52-7.65-6.28-10.75-4.67-8.33-6.48-11.68-4.76-8.94-6.61-12.51-4.85-9.53-6.71-13.29-4.9-10.05-6.77-14-4.92-10.53-6.78-14.62-4.88-10.9-6.74-15.16-4.85-11.3-6.67-15.65-4.72-11.49-6.47-15.87-4.06-10.26-5.15-13.1-3.22-8.56-4.75-12.71-3.91-10.79-5.31-14.8-3.56-10.38-4.81-14.2-3.19-9.89-4.3-13.51-2.81-9.36-3.77-12.76S814.81,955,814,951.82s-2-8.11-2.66-11-1.59-7.41-2.09-10-1.17-6.64-1.5-9S807,916,806.85,914s-.3-4.9-.29-6.5a50.24,50.24,0,0,1,.28-5,21.57,21.57,0,0,1,.74-3.32,7.43,7.43,0,0,1,.66-1.3l0,0c.21,0,.35,0,.44,0a10.42,10.42,0,0,1,1.67.59,29.17,29.17,0,0,1,2.64,1.84c1,.75,2.81,2.39,3.93,3.49s3.25,3.43,4.54,4.94,3.62,4.42,5,6.28,3.9,5.31,5.43,7.53,4.14,6.14,5.77,8.68,4.35,6.92,6,9.75,4.52,7.65,6.29,10.75,4.68,8.36,6.47,11.68,4.79,9,6.62,12.52,4.86,9.53,6.71,13.29,4.89,10,6.77,14,4.92,10.53,6.77,14.62,4.9,10.91,6.75,15.17,4.84,11.27,6.66,15.65,4.74,11.5,6.48,15.86,4.06,10.28,5.14,13.11,3.22,8.52,4.76,12.7,3.92,10.82,5.31,14.8,3.55,10.37,4.81,14.2,3.18,9.88,4.3,13.51,2.81,9.36,3.77,12.77,2.41,8.75,3.22,11.93,2,8.11,2.67,11,1.59,7.41,2.09,10,1.16,6.64,1.5,9,.73,5.84.89,7.79.29,4.9.29,6.5A49.88,49.88,0,0,1,941.76,1206.84Z"/><path d="M785.13,1054c-.12-4.64-.37-12.08-.57-16.58s-.56-11.68-.82-16-.74-11.19-1.07-15.32-.92-10.65-1.31-14.57-1.08-10.06-1.53-13.76-1.24-9.44-1.75-12.86-1.38-8.76-1.94-11.89-1.52-8-2.13-10.87-1.65-7.23-2.32-9.76-1.78-6.41-2.49-8.61-1.93-5.55-2.7-7.41-2.08-4.65-2.93-6.18a38.4,38.4,0,0,0-3.3-5,23.65,23.65,0,0,0-3.28-3.31,13.69,13.69,0,0,0-4.13-1.95,11.46,11.46,0,0,0-5.67,0,14.23,14.23,0,0,0-4.83,2.63,25.08,25.08,0,0,0-3.74,4.16,47.94,47.94,0,0,0-3.15,5.37c-.82,1.65-2.07,4.55-2.84,6.6s-1.93,5.48-2.63,7.81-1.78,6.35-2.43,9-1.66,7.18-2.26,10.14-1.52,8-2.07,11.21-1.39,8.73-1.88,12.23-1.24,9.41-1.67,13.16-1.09,10.05-1.46,14-.92,10.64-1.23,14.83-.75,11.17-1,15.55-.57,11.65-.74,16.2-.36,10.76-.43,13.89-.16,9.58-.2,14.32,0,12.56,0,17.34.17,12.44.29,17.1.37,12.08.56,16.58.56,11.68.82,16,.75,11.2,1.07,15.32.92,10.65,1.31,14.57,1.08,10.09,1.53,13.75,1.24,9.45,1.75,12.86,1.38,8.75,1.94,11.9,1.52,8,2.13,10.86,1.66,7.24,2.32,9.76,1.78,6.41,2.5,8.61,1.92,5.55,2.69,7.41,2.08,4.65,2.93,6.19a39,39,0,0,0,3.3,5,23.13,23.13,0,0,0,3.28,3.31,13.73,13.73,0,0,0,4.13,2,10.68,10.68,0,0,0,2.84.35,11.16,11.16,0,0,0,2.84-.35,14.42,14.42,0,0,0,4.83-2.63,25.37,25.37,0,0,0,3.73-4.16,48.76,48.76,0,0,0,3.15-5.38c.82-1.65,2.07-4.55,2.84-6.59s1.93-5.48,2.63-7.81,1.78-6.35,2.43-9,1.66-7.19,2.26-10.14,1.53-8,2.07-11.21,1.39-8.71,1.88-12.23,1.24-9.42,1.67-13.17,1.09-10,1.46-14,.92-10.63,1.23-14.83.76-11.19,1-15.55.57-11.64.74-16.19.36-10.81.43-13.9.16-9.55.2-14.32,0-12.56,0-17.34S785.24,1058.65,785.13,1054Zm-9.72,34.36c0,4.72-.13,11.08-.2,14.18s-.25,9.21-.42,13.75-.49,11.68-.73,16-.68,11.2-1,15.36-.85,10.71-1.22,14.63-1,10.13-1.43,13.82-1.16,9.47-1.64,12.92-1.31,8.81-1.84,12-1.43,8-2,10.89-1.55,7.21-2.17,9.74-1.66,6.36-2.3,8.5-1.73,5.39-2.4,7.15-1.77,4.33-2.44,5.68a38.39,38.39,0,0,1-2.37,4.06,15.58,15.58,0,0,1-2,2.27,5.69,5.69,0,0,1-1,.64,2,2,0,0,1-.43,0,5.54,5.54,0,0,1-.78-.33,17.83,17.83,0,0,1-1.5-1.61,30.26,30.26,0,0,1-2.29-3.47c-.67-1.22-1.78-3.58-2.43-5.16s-1.79-4.69-2.43-6.68-1.72-5.71-2.34-8.07-1.62-6.6-2.21-9.34-1.52-7.46-2.07-10.51-1.4-8.28-1.89-11.61-1.27-9-1.71-12.61-1.12-9.67-1.51-13.53-1-10.31-1.29-14.37-.8-10.85-1.06-15.12-.62-11.36-.81-15.81-.44-11.82-.56-16.41-.24-12.21-.28-16.93,0-12.44,0-17.17.13-11.07.2-14.18.26-9.27.42-13.75.5-11.69.73-16,.68-11.23,1-15.36.85-10.71,1.22-14.64,1-10.12,1.43-13.81,1.17-9.49,1.65-12.93,1.3-8.78,1.83-12,1.43-8,2-10.89,1.55-7.22,2.17-9.74,1.66-6.37,2.3-8.5,1.74-5.39,2.4-7.16,1.77-4.32,2.45-5.68a39.25,39.25,0,0,1,2.36-4.05,16.32,16.32,0,0,1,2-2.28,6.21,6.21,0,0,1,1-.63h.43a5.09,5.09,0,0,1,.78.34,17.33,17.33,0,0,1,1.5,1.6,30.05,30.05,0,0,1,2.29,3.48c.67,1.21,1.78,3.57,2.44,5.16s1.78,4.69,2.42,6.68,1.72,5.71,2.34,8.06,1.62,6.61,2.21,9.34,1.52,7.48,2.07,10.52,1.39,8.26,1.89,11.61,1.27,9,1.71,12.6,1.13,9.71,1.51,13.54,1,10.31,1.29,14.36.8,10.87,1.06,15.13.62,11.35.81,15.81.44,11.81.56,16.41.24,12.2.28,16.93S775.45,1083.61,775.41,1088.35Z"/><path d="M702.82,899.3a23.82,23.82,0,0,0-1.6-5.12,14.5,14.5,0,0,0-2.52-3.74,10.82,10.82,0,0,0-4.13-2.26,12.23,12.23,0,0,0-5.51-.06,20.82,20.82,0,0,0-5,2.08,40.85,40.85,0,0,0-4.78,3.48c-1.32,1.13-3.48,3.2-4.92,4.72s-3.71,4.13-5.2,5.94-3.93,5-5.49,7.13-4.16,5.83-5.78,8.24-4.34,6.6-6,9.32-4.51,7.35-6.27,10.33-4.66,8-6.47,11.27-4.79,8.69-6.63,12.14-4.86,9.27-6.74,13-4.92,9.81-6.81,13.68-5,10.33-6.85,14.36-5,10.76-6.83,15-4.44,10-5.67,12.83-3.75,8.8-5.59,13.23-4.77,11.59-6.53,16-4.53,11.51-6.16,15.79-4.19,11.18-5.69,15.32-3.83,10.78-5.2,14.77-3.48,10.37-4.7,14.15-3.1,9.83-4.18,13.47-2.72,9.32-3.66,12.71-2.32,8.72-3.1,11.89-1.92,8.1-2.55,11-1.5,7.44-2,10.06-1.08,6.72-1.37,9.07-.64,6-.76,8-.16,5.2-.1,7a46.73,46.73,0,0,0,.63,6,24.7,24.7,0,0,0,1.61,5.13,14.83,14.83,0,0,0,2.51,3.73,10.82,10.82,0,0,0,4.13,2.26,10.33,10.33,0,0,0,2.8.35,12.57,12.57,0,0,0,2.71-.29,20.25,20.25,0,0,0,5-2.08,39.88,39.88,0,0,0,4.78-3.47c1.33-1.13,3.49-3.21,4.93-4.73s3.71-4.13,5.19-5.94,3.94-5,5.5-7.12,4.15-5.82,5.78-8.25,4.34-6.61,6-9.32,4.52-7.34,6.28-10.33,4.66-8,6.47-11.26,4.78-8.67,6.62-12.15,4.87-9.26,6.74-13,4.94-9.83,6.82-13.68,5-10.29,6.84-14.36,5-10.78,6.84-15,4.41-9.92,5.66-12.83,3.77-8.85,5.6-13.22,4.77-11.61,6.53-16,4.52-11.5,6.16-15.79,4.18-11.17,5.68-15.32,3.85-10.8,5.2-14.77,3.47-10.33,4.71-14.15,3.11-9.88,4.18-13.47,2.72-9.32,3.65-12.71,2.33-8.75,3.11-11.89,1.92-8.11,2.54-11,1.51-7.43,2-10.06,1.08-6.72,1.37-9.07.63-6,.75-8,.17-5.19.1-7A46.73,46.73,0,0,0,702.82,899.3Zm-9.45,12.39c-.11,1.85-.43,5.22-.69,7.38s-.87,6.1-1.3,8.58-1.29,6.87-1.9,9.69S687.77,945,687,948s-2.12,8.3-3,11.64-2.53,8.94-3.59,12.5-2.91,9.49-4.12,13.27-3.3,10-4.65,14S668,1009.9,666.47,1014s-4,10.91-5.63,15.16-4.35,11.27-6.1,15.65-4.64,11.48-6.47,15.87-4.3,10.22-5.54,13.1-3.77,8.58-5.62,12.72-4.88,10.77-6.77,14.8-4.92,10.39-6.77,14.21-4.88,9.88-6.74,13.53-4.84,9.38-6.65,12.78-4.75,8.79-6.53,12-4.63,8.15-6.35,11.07-4.48,7.45-6.14,10.1-4.28,6.69-5.87,9-4.06,5.89-5.55,7.92-3.82,5-5.17,6.7-3.49,4.1-4.72,5.4-3.09,3.08-4.15,4a30.76,30.76,0,0,1-3.37,2.47,11.37,11.37,0,0,1-2.15,1,3.84,3.84,0,0,1-.52,0c-.12-.2-.25-.43-.36-.66a15.35,15.35,0,0,1-.8-2.68,35.35,35.35,0,0,1-.46-4.49c-.06-1.47,0-4.23.09-6s.42-5.22.69-7.37.87-6.11,1.3-8.59,1.29-6.87,1.89-9.69,1.72-7.62,2.48-10.7,2.13-8.33,3-11.64,2.52-8.94,3.59-12.5,2.92-9.53,4.12-13.27,3.28-10,4.64-14,3.66-10.5,5.15-14.61,4-10.9,5.63-15.16,4.34-11.26,6.09-15.65,4.66-11.5,6.48-15.87,4.31-10.26,5.54-13.1,3.74-8.52,5.61-12.71,4.9-10.8,6.77-14.81,4.9-10.36,6.78-14.2,4.89-9.9,6.74-13.54,4.83-9.36,6.65-12.78,4.74-8.77,6.52-12,4.63-8.15,6.36-11.07,4.47-7.45,6.13-10.1,4.3-6.7,5.87-9,4.06-5.88,5.55-7.92,3.82-5,5.18-6.71,3.49-4.1,4.71-5.4,3.09-3.08,4.15-4a30.39,30.39,0,0,1,3.38-2.47,10.75,10.75,0,0,1,2.15-1,2.55,2.55,0,0,1,.52,0c.11.2.25.43.36.66a15.35,15.35,0,0,1,.8,2.68,39.46,39.46,0,0,1,.46,4.49C693.52,907.13,693.47,909.89,693.37,911.69Z"/><path d="M560.37,980.56c3.3-3.38,8.5-8.8,11.61-12.07s8-8.53,11-11.71,7.56-8.25,10.3-11.3,7-7.92,9.58-10.82,6.51-7.54,8.83-10.29,5.93-7.11,8-9.72,5.33-6.67,7.22-9.1,4.72-6.19,6.34-8.41,4.08-5.69,5.45-7.7,3.4-5.15,4.51-7,2.71-4.59,3.55-6.18,2-4,2.56-5.44a35.51,35.51,0,0,0,1.53-4.88,14.71,14.71,0,0,0,.17-4.84,9,9,0,0,0-1.91-4.26,8.94,8.94,0,0,0-4.19-2.31,14,14,0,0,0-5-.07,31.74,31.74,0,0,0-5,1.41c-1.44.54-3.9,1.63-5.6,2.49s-4.47,2.39-6.35,3.5-5,3.1-7.11,4.47-5.6,3.77-7.87,5.38-6.11,4.42-8.57,6.27-6.6,5-9.22,7.1-7,5.57-9.82,7.87S573,899.13,570,901.6s-7.79,6.65-10.8,9.28-8.06,7.08-11.2,9.89-8.3,7.49-11.53,10.46-8.52,7.89-11.79,11-8.68,8.24-12,11.43-7.85,7.6-10.09,9.81-6.79,6.73-10.16,10.11-8.74,8.84-12.06,12.24-8.48,8.79-11.6,12.08-8,8.5-11,11.71-7.55,8.24-10.29,11.29-7.06,7.92-9.59,10.82-6.5,7.54-8.83,10.3-5.92,7.1-8,9.72-5.33,6.66-7.21,9.09-4.73,6.2-6.35,8.42-4.07,5.68-5.44,7.7-3.4,5.14-4.52,6.95-2.71,4.59-3.54,6.17-2,4-2.57,5.45a33.77,33.77,0,0,0-1.52,4.88,14.69,14.69,0,0,0-.18,4.84,9.18,9.18,0,0,0,1.9,4.25,8.86,8.86,0,0,0,4.2,2.31,11.09,11.09,0,0,0,2.57.26,16,16,0,0,0,2.43-.18,33.48,33.48,0,0,0,5-1.41c1.44-.55,3.9-1.64,5.6-2.5s4.48-2.39,6.34-3.49,5-3.1,7.12-4.47,5.6-3.78,7.86-5.39,6.11-4.42,8.58-6.27,6.61-5,9.22-7.09,7-5.61,9.81-7.88,7.42-6.14,10.33-8.6,7.75-6.61,10.8-9.27,8.08-7.1,11.2-9.89,8.3-7.49,11.53-10.46,8.5-7.87,11.79-11,8.66-8.22,12-11.43,7.86-7.61,10.09-9.81,6.82-6.76,10.16-10.11S557.06,984,560.37,980.56Zm-19.14,5.19c-3.33,3.33-7.85,7.84-10.09,10s-6.71,6.55-10,9.74-8.65,8.28-11.9,11.35-8.52,8-11.71,10.88-8.33,7.6-11.43,10.38-8.07,7.16-11.09,9.8-7.82,6.75-10.69,9.18-7.46,6.24-10.21,8.49-7.08,5.72-9.67,7.76-6.62,5.13-9,7-6.15,4.54-8.35,6.1-5.59,3.89-7.58,5.2-5,3.2-6.72,4.21-4.31,2.45-5.75,3.17-3.51,1.65-4.6,2.06a24.17,24.17,0,0,1-2.53.77c.2-.73.56-1.81.88-2.61.43-1.08,1.43-3.19,2.13-4.52s2.22-4,3.22-5.61,3-4.67,4.26-6.56,3.68-5.27,5.25-7.42,4.35-5.84,6.18-8.2,5-6.38,7.08-8.91,5.64-6.87,7.92-9.58,6.21-7.29,8.72-10.17,6.76-7.67,9.48-10.7,7.29-8,10.21-11.19,7.82-8.4,10.88-11.62,8.27-8.64,11.52-12,8.66-8.83,12-12.15,7.88-7.87,10.09-10,6.72-6.56,10-9.75,8.63-8.25,11.91-11.34,8.49-7.94,11.7-10.89,8.33-7.59,11.43-10.37,8.09-7.19,11.1-9.8,7.77-6.72,10.68-9.18,7.47-6.26,10.21-8.5,7.11-5.74,9.67-7.75,6.63-5.15,9-7,6.15-4.55,8.35-6.11,5.6-3.89,7.58-5.19,5-3.21,6.72-4.22,4.32-2.45,5.75-3.17,3.51-1.65,4.61-2.06a25.79,25.79,0,0,1,2.52-.77,25.22,25.22,0,0,1-.88,2.62c-.43,1.07-1.43,3.18-2.13,4.51s-2.22,4-3.22,5.61-3,4.67-4.26,6.56-3.67,5.27-5.25,7.42-4.35,5.84-6.18,8.2-5,6.38-7.07,8.92-5.64,6.86-7.92,9.57-6.21,7.28-8.73,10.17-6.75,7.67-9.48,10.71-7.29,8-10.21,11.19-7.79,8.36-10.88,11.61-8.25,8.63-11.52,12S544.54,982.43,541.23,985.75Z"/><path d="M417.74,907c4.09-1.6,10.88-4.26,15.08-5.93s11.13-4.44,15.41-6.17,10.15-4.12,13-5.31,8.82-3.64,13.18-5.46,11.45-4.79,15.73-6.61,11.14-4.76,15.23-6.53,10.61-4.62,14.48-6.33,10-4.45,13.68-6.1,9.42-4.27,12.83-5.84,8.76-4.07,11.91-5.56,8-3.83,10.94-5.24,7.29-3.58,9.92-4.9,6.56-3.34,8.85-4.54,5.74-3.05,7.72-4.14,4.91-2.76,6.55-3.73,4.07-2.47,5.36-3.31,3.18-2.16,4.16-2.91a31.6,31.6,0,0,0,3.08-2.72,9.47,9.47,0,0,0,2.26-3.87,5.92,5.92,0,0,0-1.69-5.84,7.5,7.5,0,0,0-4.05-1.66,21.1,21.1,0,0,0-4.13,0c-1.19.1-3.35.4-4.92.69s-4.2.85-6,1.28-5.07,1.27-7.22,1.85-5.91,1.66-8.33,2.38-6.69,2-9.41,2.89-7.4,2.38-10.39,3.37-8.05,2.7-11.31,3.82-8.7,3-12.15,4.25-9.24,3.31-12.89,4.64-9.75,3.58-13.56,5-10.19,3.83-14.16,5.34-10.56,4.06-14.65,5.65-10.88,4.26-15.08,5.93-11.14,4.44-15.42,6.17-10.14,4.12-13,5.31-8.82,3.64-13.19,5.46-11.44,4.79-15.73,6.61-11.14,4.76-15.22,6.53S384,886,380.09,887.75s-10,4.45-13.68,6.09-9.42,4.28-12.82,5.85-8.77,4.07-11.91,5.56-8.11,3.86-10.94,5.24-7.29,3.58-9.92,4.9-6.58,3.35-8.85,4.54-5.72,3-7.72,4.14-4.91,2.76-6.55,3.73-4.05,2.45-5.36,3.31-3.19,2.17-4.16,2.91a29.49,29.49,0,0,0-3.09,2.73,9.35,9.35,0,0,0-2.26,3.86,5.93,5.93,0,0,0,1.7,5.85,7.57,7.57,0,0,0,4.05,1.65,15.61,15.61,0,0,0,2.05.12c.74,0,1.48,0,2.07-.09,1.19-.1,3.35-.4,4.92-.69s4.2-.85,6.05-1.28,5.09-1.27,7.21-1.85,5.9-1.65,8.34-2.38,6.64-2,9.41-2.89,7.39-2.38,10.39-3.37,8.06-2.7,11.31-3.82,8.69-3,12.14-4.25,9.25-3.31,12.9-4.64,9.74-3.58,13.56-5,10.19-3.83,14.15-5.34S413.64,908.57,417.74,907Zm-32.31,1.62c-3.79,1.42-9.87,3.66-13.49,5s-9.39,3.39-12.81,4.61-8.85,3.11-12.05,4.21-8.25,2.81-11.2,3.79-7.57,2.47-10.27,3.33-6.87,2.13-9.24,2.83-6,1.75-8.12,2.32c-1.26.35-3,.8-4.52,1.18,1.6-.93,3.79-2.16,5.35-3,1.95-1.08,5.33-2.89,7.53-4s6.13-3.17,8.7-4.46,7-3.48,9.8-4.85,7.67-3.69,10.84-5.19,8.44-4,11.83-5.52,9.11-4.17,12.74-5.81,9.75-4.36,13.61-6.07,10.35-4.53,14.42-6.29,10.89-4.69,15.16-6.5,11.32-4.78,15.67-6.59,10.26-4.26,13.14-5.44,8.72-3.56,13-5.28,11.18-4.5,15.36-6.16,10.94-4.31,15-5.9,10.64-4.12,14.59-5.62,10.29-3.9,14.08-5.32,9.87-3.66,13.49-5,9.39-3.39,12.82-4.61,8.85-3.11,12-4.21,8.26-2.82,11.2-3.79,7.56-2.47,10.27-3.33,6.82-2.12,9.23-2.83,6-1.75,8.12-2.32c1.29-.35,3-.8,4.52-1.18-1.6.92-3.78,2.16-5.34,3-1.92,1.06-5.3,2.87-7.53,4s-6.15,3.18-8.7,4.46-7,3.48-9.8,4.85-7.73,3.72-10.85,5.19-8.44,4-11.82,5.52-9.12,4.17-12.74,5.81-9.76,4.36-13.62,6.07-10.34,4.53-14.41,6.29-10.9,4.69-15.16,6.5-11.32,4.78-15.67,6.59l-13.14,5.44c-2.88,1.18-8.72,3.56-13,5.28s-11.18,4.5-15.36,6.16-10.94,4.31-15,5.9-10.64,4.12-14.59,5.62S389.23,907.18,385.43,908.6Z"/><rect x="250" y="745" width="350.55" height="10"/><path d="M285.09,563.25a29.16,29.16,0,0,0,3.08,2.72c1,.75,2.81,2,4.17,2.92s3.71,2.34,5.36,3.31,4.58,2.64,6.55,3.73,5.47,3,7.72,4.14,6.24,3.22,8.85,4.54,7.08,3.52,9.92,4.9,7.74,3.73,10.94,5.24,8.5,4,11.91,5.56,9.17,4.2,12.82,5.85,9.81,4.38,13.68,6.09,10.4,4.56,14.49,6.33,10.94,4.71,15.22,6.53,11.37,4.79,15.73,6.61l13.19,5.47,13,5.3c4.28,1.73,11.22,4.51,15.42,6.17s11,4.33,15.08,5.93,10.69,4.13,14.65,5.65,10.34,3.91,14.16,5.34,9.92,3.68,13.56,5,9.45,3.42,12.89,4.64,8.92,3.14,12.15,4.25,8.34,2.84,11.31,3.82,7.65,2.51,10.39,3.37,6.94,2.16,9.41,2.89,6.16,1.79,8.33,2.38,5.38,1.41,7.22,1.85,4.55,1,6,1.28,3.73.59,4.92.69c.59,0,1.34.09,2.08.09a15.72,15.72,0,0,0,2-.12,7.5,7.5,0,0,0,4.05-1.66,5.91,5.91,0,0,0,1.69-5.83,9.45,9.45,0,0,0-2.25-3.87,30.32,30.32,0,0,0-3.09-2.72c-1-.76-2.81-2-4.16-2.92s-3.7-2.33-5.36-3.31-4.58-2.64-6.55-3.73-5.44-2.94-7.72-4.14-6.25-3.23-8.85-4.54-7.08-3.52-9.92-4.9-7.81-3.76-10.94-5.24-8.51-4-11.91-5.56-9.18-4.2-12.83-5.84-9.8-4.39-13.68-6.1S509.5,630.8,505.41,629s-10.94-4.71-15.23-6.53-11.36-4.79-15.73-6.61-10.3-4.28-13.18-5.47l-13-5.3c-4.28-1.73-11.21-4.5-15.41-6.17s-11-4.33-15.08-5.93-10.69-4.13-14.66-5.65-10.33-3.91-14.15-5.34-9.92-3.68-13.56-5-9.45-3.42-12.9-4.64-8.91-3.14-12.14-4.25S342,565.31,339,564.32s-7.66-2.51-10.4-3.37-7-2.17-9.4-2.89-6.18-1.79-8.34-2.38-5.36-1.41-7.21-1.85-4.56-1-6.05-1.28-3.73-.59-4.92-.69a21.8,21.8,0,0,0-4.12,0,7.57,7.57,0,0,0-4.05,1.65,5.92,5.92,0,0,0-1.7,5.84A9.33,9.33,0,0,0,285.09,563.25Zm23.17,2.08c2.09.57,5.73,1.61,8.11,2.32s6.52,2,9.24,2.83,7.3,2.35,10.27,3.33,8,2.68,11.2,3.79,8.62,3,12.05,4.21,9.19,3.29,12.81,4.61,9.7,3.56,13.49,5,10.14,3.81,14.09,5.32,10.51,4,14.59,5.62,10.84,4.24,15,5.9,11.09,4.43,15.35,6.16,10.11,4.1,13,5.28l13.14,5.44c4.35,1.81,11.4,4.78,15.67,6.59s11.09,4.74,15.16,6.5,10.56,4.59,14.42,6.29,10,4.44,13.61,6.07,9.36,4.25,12.74,5.81,8.7,4,11.82,5.52,8,3.81,10.85,5.19,7.2,3.54,9.8,4.85,6.46,3.28,8.7,4.46,5.61,3,7.53,4c1.56.86,3.74,2.1,5.34,3-1.52-.38-3.22-.83-4.52-1.18-2.11-.57-5.76-1.61-8.12-2.32s-6.56-2-9.23-2.83-7.31-2.35-10.27-3.33-8-2.67-11.2-3.79-8.63-3-12-4.21-9.19-3.29-12.82-4.61-9.69-3.56-13.49-5-10.13-3.81-14.08-5.32-10.52-4-14.59-5.62-10.84-4.24-15-5.9-11.1-4.43-15.36-6.16-10.11-4.1-13-5.28-8.79-3.63-13.14-5.44-11.4-4.78-15.67-6.59-11.09-4.73-15.16-6.5-10.56-4.59-14.42-6.29-10-4.44-13.61-6.07-9.36-4.25-12.75-5.81-8.7-4-11.82-5.52-8-3.83-10.84-5.19-7.21-3.54-9.8-4.85-6.47-3.29-8.7-4.46-5.58-3-7.53-4c-1.56-.86-3.74-2.09-5.35-3C305.27,564.53,307,565,308.26,565.33Z"/><path d="M391.45,404.51c.57,1.4,1.69,3.79,2.57,5.45s2.43,4.36,3.54,6.17,3.14,4.93,4.52,6.95,3.81,5.47,5.44,7.7,4.47,6,6.35,8.42,5.11,6.51,7.21,9.09,5.73,7,8,9.72,6.29,7.38,8.83,10.3,6.83,7.76,9.59,10.82,7.36,8.11,10.29,11.29,7.89,8.46,11,11.71,8.33,8.71,11.6,12.08,8.72,8.9,12.06,12.24,7.93,7.92,10.16,10.11,6.77,6.61,10.09,9.81,8.69,8.32,12,11.43,8.56,8,11.79,11,8.4,7.66,11.53,10.46,8.16,7.25,11.2,9.89,7.85,6.79,10.8,9.28,7.56,6.33,10.33,8.6,7.22,5.83,9.81,7.87,6.77,5.25,9.23,7.1,6.3,4.66,8.57,6.27,5.8,4,7.87,5.38,5.27,3.38,7.11,4.47,4.72,2.68,6.35,3.5,4.16,1.95,5.6,2.49a31.74,31.74,0,0,0,5,1.41,14.58,14.58,0,0,0,2.42.19,11.66,11.66,0,0,0,2.57-.26,8.94,8.94,0,0,0,4.19-2.31,9.05,9.05,0,0,0,1.91-4.25,14.69,14.69,0,0,0-.17-4.84,34.67,34.67,0,0,0-1.53-4.88c-.56-1.4-1.69-3.79-2.56-5.45s-2.44-4.36-3.55-6.18-3.13-4.91-4.51-7-3.81-5.46-5.45-7.7-4.47-6-6.34-8.42-5.12-6.5-7.22-9.09-5.72-7-8-9.72-6.28-7.37-8.83-10.29-6.83-7.76-9.58-10.82-7.36-8.12-10.3-11.3-7.87-8.43-11-11.71-8.31-8.69-11.61-12.07-8.72-8.9-12.06-12.25-7.9-7.89-10.15-10.11-6.77-6.6-10.1-9.81-8.71-8.34-12-11.43-8.58-8-11.79-11-8.4-7.66-11.53-10.46-8.14-7.23-11.2-9.89-7.9-6.82-10.8-9.27-7.54-6.32-10.33-8.6-7.18-5.81-9.81-7.88-6.75-5.23-9.22-7.09-6.31-4.66-8.58-6.27-5.79-4-7.86-5.39-5.28-3.37-7.12-4.46-4.71-2.68-6.34-3.5-4.16-1.95-5.61-2.5a33,33,0,0,0-5-1.41,14,14,0,0,0-5,.08,8.85,8.85,0,0,0-4.19,2.3,9.18,9.18,0,0,0-1.91,4.26,14.69,14.69,0,0,0,.18,4.84A33.77,33.77,0,0,0,391.45,404.51ZM641.16,637.2ZM402.37,398.93c1.1.41,3.26,1.37,4.61,2.06s4.08,2.18,5.75,3.17,4.78,2.94,6.72,4.21,5.39,3.64,7.58,5.2,6,4.3,8.35,6.1,6.48,4.95,9,7,6.93,5.52,9.67,7.76,7.33,6.06,10.21,8.49,7.66,6.55,10.68,9.18,8,7,11.1,9.8,8.23,7.43,11.43,10.38,8.44,7.8,11.71,10.88,8.59,8.16,11.9,11.35,7.81,7.56,10,9.74,6.76,6.71,10.09,10,8.68,8.78,12,12.16,8.44,8.74,11.52,12,8,8.46,10.88,11.61,7.49,8.17,10.21,11.19,7,7.84,9.48,10.71,6.44,7.45,8.73,10.17,5.83,7,7.92,9.57,5.23,6.54,7.07,8.92,4.6,6,6.18,8.2,3.93,5.48,5.25,7.42,3.24,4.89,4.26,6.56,2.48,4.2,3.22,5.61,1.7,3.44,2.13,4.51a25.22,25.22,0,0,1,.88,2.62,23.4,23.4,0,0,1-2.52-.78c-1.1-.4-3.25-1.37-4.61-2.05s-4.06-2.17-5.75-3.17-4.78-2.94-6.72-4.22-5.38-3.63-7.58-5.19-6-4.3-8.35-6.11-6.47-4.93-9-7-6.9-5.49-9.67-7.75-7.32-6.06-10.21-8.5-7.7-6.58-10.68-9.18-8-7-11.1-9.8-8.23-7.43-11.43-10.37-8.46-7.83-11.7-10.89-8.62-8.18-11.91-11.34-7.8-7.56-10-9.75-6.74-6.68-10.09-10-8.68-8.77-12-12.15-8.42-8.72-11.52-12-7.94-8.43-10.88-11.62-7.49-8.17-10.21-11.19-7-7.83-9.48-10.7-6.43-7.45-8.73-10.17-5.83-7-7.91-9.57-5.23-6.54-7.08-8.92-4.6-6-6.18-8.2-3.93-5.48-5.25-7.42-3.23-4.89-4.26-6.56-2.48-4.21-3.22-5.61-1.7-3.44-2.13-4.52c-.32-.8-.68-1.88-.88-2.61A23.31,23.31,0,0,1,402.37,398.93Zm-2.75-2.49Z"/><path d="M702.6,579.7c-.29-2.35-.91-6.42-1.37-9.07s-1.34-7.14-2-10.06-1.76-7.84-2.54-11-2.17-8.48-3.11-11.89S691,528.58,690,525s-3-9.63-4.19-13.47-3.33-10.17-4.7-14.15-3.69-10.6-5.2-14.77-4-11-5.68-15.32-4.4-11.38-6.16-15.79-4.69-11.59-6.53-16-4.34-10.31-5.6-13.22-3.8-8.66-5.66-12.83-4.93-10.88-6.84-14.95-5-10.5-6.84-14.36-4.94-10-6.82-13.68-4.9-9.5-6.74-12.95-4.82-8.92-6.62-12.15S607.67,333,605.91,330s-4.58-7.62-6.27-10.33-4.42-6.89-6-9.32-4.23-6.13-5.78-8.25-4-5.32-5.5-7.12-3.81-4.47-5.19-5.94-3.6-3.6-4.93-4.73a39.88,39.88,0,0,0-4.78-3.47,20.25,20.25,0,0,0-5-2.08,12.09,12.09,0,0,0-5.51.06,10.72,10.72,0,0,0-4.12,2.26,14.67,14.67,0,0,0-2.52,3.73,24.7,24.7,0,0,0-1.61,5.13,46.73,46.73,0,0,0-.63,6c-.06,1.78,0,4.85.1,7s.46,5.67.76,8,.91,6.42,1.37,9.07,1.34,7.14,2,10.06,1.77,7.85,2.55,11,2.18,8.51,3.1,11.89,2.57,9.09,3.66,12.71,3,9.68,4.18,13.47,3.33,10.13,4.7,14.15,3.7,10.61,5.2,14.77,4,11,5.69,15.32,4.39,11.36,6.16,15.79,4.69,11.61,6.53,16,4.35,10.36,5.59,13.23,3.77,8.6,5.67,12.83,4.94,10.9,6.83,14.95,4.95,10.47,6.85,14.36,4.94,10,6.81,13.68,4.9,9.49,6.74,13,4.81,8.9,6.63,12.15,4.71,8.29,6.47,11.26,4.57,7.61,6.27,10.33,4.42,6.9,6,9.32,4.22,6.11,5.78,8.24,4,5.33,5.49,7.13,3.82,4.48,5.2,5.94,3.6,3.59,4.92,4.72a40.85,40.85,0,0,0,4.78,3.48,20.72,20.72,0,0,0,5,2.08,12.52,12.52,0,0,0,2.7.28,10.46,10.46,0,0,0,2.81-.35,10.69,10.69,0,0,0,4.12-2.25,14.5,14.5,0,0,0,2.52-3.74,23.82,23.82,0,0,0,1.6-5.12,46.73,46.73,0,0,0,.63-6c.07-1.79,0-4.85-.1-7S702.9,582.07,702.6,579.7Zm-9.14,14.63a39.42,39.42,0,0,1-.46,4.5,14.41,14.41,0,0,1-.81,2.68c-.1.23-.24.46-.35.66a3.25,3.25,0,0,1-.5,0,11.06,11.06,0,0,1-2.17-1,31.47,31.47,0,0,1-3.38-2.46c-1.06-.91-3-2.73-4.15-4s-3.38-3.77-4.71-5.4-3.73-4.73-5.18-6.71-4-5.59-5.55-7.92-4.21-6.4-5.87-9-4.41-7.18-6.13-10.1-4.58-7.89-6.36-11.07-4.71-8.56-6.52-12-4.81-9.15-6.65-12.78-4.88-9.71-6.74-13.54S623,496,621.15,492s-4.91-10.66-6.77-14.81-4.39-9.89-5.61-12.71-3.71-8.72-5.54-13.11-4.73-11.48-6.48-15.86-4.48-11.41-6.09-15.65-4.15-11.06-5.63-15.16-3.8-10.67-5.15-14.61-3.44-10.24-4.64-14-3-9.7-4.12-13.27-2.68-9.17-3.59-12.5-2.28-8.53-3-11.64-1.87-7.88-2.48-10.7-1.45-7.17-1.89-9.69-1-6.41-1.3-8.59-.59-5.52-.69-7.37-.15-4.56-.09-6a35.74,35.74,0,0,1,.46-4.5,15.47,15.47,0,0,1,.8-2.67c.11-.23.24-.46.36-.66a2.38,2.38,0,0,1,.5,0,10.92,10.92,0,0,1,2.17.95A30.76,30.76,0,0,1,565.7,292c1.06.91,3,2.73,4.15,4s3.39,3.77,4.72,5.4,3.72,4.73,5.17,6.7,4,5.59,5.55,7.92,4.22,6.41,5.87,9,4.41,7.18,6.14,10.1,4.57,7.88,6.35,11.06,4.71,8.55,6.53,12,4.8,9.14,6.65,12.78,4.88,9.72,6.74,13.53,4.89,10.19,6.77,14.21,4.92,10.67,6.77,14.81,4.37,9.83,5.62,12.71,3.73,8.76,5.54,13.1,4.73,11.5,6.47,15.87,4.48,11.4,6.1,15.65S665,481.87,666.47,486s3.8,10.68,5.14,14.61,3.43,10.2,4.64,14,3.07,9.74,4.13,13.27,2.68,9.17,3.59,12.5,2.28,8.56,3,11.64,1.87,7.88,2.47,10.7,1.46,7.17,1.9,9.69,1,6.4,1.3,8.58.58,5.53.69,7.38S693.52,592.87,693.46,594.33Z"/><path d="M785.21,397.25c-.07-3.09-.26-9.32-.43-13.9s-.5-11.81-.74-16.19-.68-11.33-1-15.55-.86-10.85-1.23-14.83-1-10.29-1.46-14-1.18-9.65-1.67-13.17-1.34-9-1.88-12.23-1.47-8.26-2.07-11.21-1.61-7.5-2.26-10.14-1.74-6.69-2.43-9-1.88-5.83-2.63-7.81-2-4.94-2.84-6.59a48.76,48.76,0,0,0-3.15-5.38,25,25,0,0,0-3.74-4.16,14.27,14.27,0,0,0-4.82-2.63,11.62,11.62,0,0,0-5.68,0,13.73,13.73,0,0,0-4.13,2,23.13,23.13,0,0,0-3.28,3.31,39,39,0,0,0-3.3,5c-.85,1.54-2.14,4.25-2.93,6.19s-2,5.18-2.69,7.41-1.84,6.06-2.5,8.6-1.7,6.91-2.32,9.77-1.57,7.71-2.13,10.86S722.48,302,722,305.4s-1.29,9.18-1.75,12.86-1.13,9.83-1.53,13.75-1,10.46-1.31,14.57-.81,11-1.07,15.32-.63,11.49-.82,16-.45,11.94-.56,16.58-.25,12.33-.29,17.1,0,12.56,0,17.34.13,11.17.2,14.32.26,9.37.43,13.89.5,11.81.74,16.2.68,11.36,1,15.55.86,10.84,1.23,14.83,1,10.27,1.46,14,1.18,9.66,1.67,13.16,1.33,9,1.88,12.23,1.48,8.27,2.07,11.21,1.61,7.51,2.26,10.14,1.74,6.69,2.43,9,1.88,5.84,2.63,7.81,2,5,2.84,6.6a47.94,47.94,0,0,0,3.15,5.37,25.47,25.47,0,0,0,3.73,4.16,14.37,14.37,0,0,0,4.84,2.63,11.38,11.38,0,0,0,5.68,0,13.56,13.56,0,0,0,4.12-2,23.09,23.09,0,0,0,3.28-3.3,38.4,38.4,0,0,0,3.3-5c.85-1.53,2.14-4.25,2.93-6.18s2-5.19,2.7-7.41,1.83-6.06,2.49-8.61,1.7-6.91,2.32-9.77,1.57-7.72,2.13-10.86,1.43-8.46,1.94-11.89,1.3-9.19,1.75-12.86,1.14-9.87,1.53-13.76,1-10.46,1.31-14.57.81-11,1.07-15.32.63-11.47.82-16,.45-11.94.57-16.58.24-12.33.28-17.1,0-12.56,0-17.34S785.28,400.38,785.21,397.25Zm-9.8,31.57c0,4.73-.16,12.33-.28,16.93s-.37,12-.56,16.41-.55,11.55-.81,15.81-.74,11-1.06,15.13-.9,10.5-1.29,14.37-1.06,9.89-1.51,13.53-1.21,9.25-1.71,12.6-1.35,8.56-1.89,11.61-1.47,7.76-2.07,10.52-1.58,6.92-2.21,9.34-1.69,6-2.34,8.06-1.75,5-2.42,6.68-1.77,4-2.44,5.16a29,29,0,0,1-2.29,3.47A16.73,16.73,0,0,1,751,590a5.1,5.1,0,0,1-.78.35h-.42a5.84,5.84,0,0,1-1.05-.63,16.32,16.32,0,0,1-2-2.28,39.25,39.25,0,0,1-2.36-4.05c-.68-1.36-1.8-4-2.45-5.68s-1.76-5-2.4-7.16-1.7-6-2.3-8.5-1.59-6.89-2.17-9.74-1.48-7.74-2-10.89-1.35-8.53-1.83-12-1.22-9.24-1.65-12.93-1.07-9.89-1.43-13.81-.91-10.49-1.22-14.64-.74-11-1-15.36-.56-11.52-.73-16-.35-10.65-.42-13.75-.16-9.47-.2-14.18,0-12.43,0-17.17.17-12.31.28-16.93.37-12,.56-16.41.55-11.54.81-15.81.74-11.06,1.06-15.12.9-10.51,1.29-14.37,1.07-9.93,1.51-13.53,1.21-9.26,1.71-12.61,1.34-8.54,1.89-11.61,1.48-7.77,2.07-10.51,1.58-6.93,2.21-9.35,1.69-6,2.34-8.06,1.75-5,2.43-6.68,1.76-3.94,2.43-5.15a29.62,29.62,0,0,1,2.29-3.48,18.11,18.11,0,0,1,1.49-1.6,5.21,5.21,0,0,1,.79-.34,1.84,1.84,0,0,1,.41,0,5.84,5.84,0,0,1,1,.63,16.32,16.32,0,0,1,2,2.28,36.77,36.77,0,0,1,2.36,4.06c.68,1.35,1.8,3.95,2.45,5.68s1.77,5,2.4,7.15,1.7,6,2.3,8.5,1.59,6.9,2.17,9.74,1.48,7.75,2,10.9,1.35,8.5,1.84,11.94,1.21,9.25,1.64,12.93,1.07,9.89,1.43,13.82.92,10.48,1.22,14.63.74,11.06,1,15.36.56,11.52.73,16,.36,10.71.42,13.75.16,9.46.2,14.18S775.45,424.09,775.41,428.82Z"/><path d="M798.16,604.2a15.84,15.84,0,0,0,2.61,4.59,9.52,9.52,0,0,0,7.51,3.38,12.64,12.64,0,0,0,2.71-.29,19.29,19.29,0,0,0,4.14-1.53,35.87,35.87,0,0,0,4-2.73,60.29,60.29,0,0,0,4.85-4.31c1.38-1.36,3.62-3.8,5.11-5.54s3.86-4.71,5.39-6.73,4.08-5.56,5.69-7.88,4.28-6.35,6-9,4.46-7.1,6.2-10,4.61-7.79,6.41-11,4.76-8.49,6.58-11.86,4.85-9.1,6.7-12.69,4.92-9.65,6.8-13.44,4.93-10.13,6.84-14.14,5-10.63,6.84-14.76,4.94-11,6.81-15.31,4.88-11.38,6.72-15.8,4.78-11.6,6.54-16,4.1-10.37,5.19-13.22,3.25-8.62,4.81-12.84,4-10.94,5.36-15,3.6-10.49,4.87-14.37,3.23-10,4.36-13.7,2.85-9.51,3.83-13,2.46-8.93,3.29-12.17,2.06-8.32,2.73-11.31,1.65-7.66,2.16-10.39,1.23-7,1.57-9.4.79-6.23,1-8.38.32-5.44.32-7.33a60.27,60.27,0,0,0-.37-6.31,31.32,31.32,0,0,0-1.23-5.39,16.12,16.12,0,0,0-2.61-4.6,11,11,0,0,0-4.71-3,12.09,12.09,0,0,0-5.51-.06,18.9,18.9,0,0,0-4.14,1.53,35.7,35.7,0,0,0-4,2.72,64.47,64.47,0,0,0-4.86,4.32c-1.37,1.36-3.61,3.8-5.1,5.54s-3.85,4.69-5.39,6.73-4.08,5.55-5.69,7.88-4.28,6.34-6,9-4.46,7.09-6.2,10-4.62,7.8-6.41,11-4.74,8.46-6.58,11.86-4.83,9.06-6.71,12.68-4.91,9.64-6.79,13.45-4.95,10.15-6.84,14.14-5,10.63-6.84,14.76-4.93,11-6.81,15.31-4.9,11.4-6.73,15.79-4.77,11.6-6.53,16-4.09,10.34-5.19,13.22-3.27,8.65-4.81,12.84-3.95,10.9-5.36,15-3.6,10.5-4.87,14.36-3.23,10-4.36,13.71-2.85,9.51-3.83,13-2.46,8.93-3.29,12.17S802.25,554,801.57,557s-1.64,7.66-2.16,10.38-1.22,7-1.57,9.41-.78,6.22-1,8.38-.33,5.44-.32,7.33a58,58,0,0,0,.37,6.31A29.75,29.75,0,0,0,798.16,604.2ZM806.85,586c.16-2,.57-5.52.89-7.79s1-6.34,1.5-9,1.43-7.13,2.09-10,1.85-7.86,2.66-11,2.27-8.53,3.23-11.94,2.65-9.12,3.77-12.76,3-9.69,4.3-13.51,3.41-10.18,4.81-14.2,3.78-10.65,5.31-14.8,3.66-9.86,4.75-12.71,3.4-8.72,5.15-13.1,4.65-11.5,6.47-15.87,4.81-11.37,6.67-15.65,4.88-11.07,6.74-15.16,4.9-10.65,6.78-14.62,4.9-10.22,6.77-14,4.87-9.72,6.71-13.29,4.81-9.19,6.61-12.51,4.72-8.58,6.48-11.68,4.58-7.92,6.28-10.75,4.43-7.21,6.06-9.75,4.22-6.44,5.77-8.68,4-5.61,5.43-7.53,3.72-4.75,5-6.28,3.37-3.78,4.54-4.94,3-2.74,3.92-3.49a30.34,30.34,0,0,1,2.65-1.84,9.38,9.38,0,0,1,1.66-.59,2.72,2.72,0,0,1,.45,0h0l0,0a7,7,0,0,1,.68,1.31,21.71,21.71,0,0,1,.73,3.32,49.88,49.88,0,0,1,.29,5c0,1.6-.13,4.57-.29,6.5s-.57,5.52-.89,7.79-1,6.34-1.5,9-1.44,7.13-2.09,10-1.85,7.86-2.67,11-2.26,8.54-3.22,11.94-2.66,9.12-3.77,12.76-3,9.69-4.3,13.51-3.42,10.19-4.81,14.2-3.77,10.61-5.31,14.79-3.67,9.89-4.76,12.71-3.39,8.7-5.14,13.11-4.65,11.48-6.48,15.87S892,462.78,890.16,467s-4.88,11.06-6.75,15.17-4.89,10.65-6.77,14.62-4.92,10.24-6.77,14-4.87,9.72-6.71,13.29-4.8,9.16-6.62,12.52-4.7,8.55-6.47,11.68-4.59,7.92-6.29,10.75-4.42,7.2-6,9.75-4.22,6.44-5.77,8.68-4,5.6-5.43,7.53-3.72,4.73-5,6.28-3.38,3.77-4.55,4.94a52.4,52.4,0,0,1-3.92,3.49,26.44,26.44,0,0,1-2.64,1.83,9,9,0,0,1-1.65.59,2.71,2.71,0,0,1-.46,0l0,0a7.28,7.28,0,0,1-.67-1.31,21.57,21.57,0,0,1-.74-3.32,50.28,50.28,0,0,1-.28-5C806.55,590.89,806.69,587.92,806.85,586Z"/><path d="M939.68,519.44c-3.27,3.36-7.65,7.89-9.76,10.11s-6.25,6.61-9.23,9.81-7.75,8.38-10.53,11.44-7.22,8-9.83,11-6.69,7.67-9.08,10.47-6.13,7.26-8.31,9.92-5.56,6.85-7.49,9.31-4.94,6.36-6.64,8.64-4.28,5.85-5.75,8-3.63,5.33-4.83,7.2-2.94,4.78-3.87,6.43-2.23,4.22-2.89,5.69a43,43,0,0,0-1.89,5,19.59,19.59,0,0,0-.71,4.76,9.79,9.79,0,0,0,1.52,5.07,8.62,8.62,0,0,0,4.73,3.16,11.66,11.66,0,0,0,2.57.26,14.71,14.71,0,0,0,2.43-.19,27.48,27.48,0,0,0,4.09-1c1.12-.39,3.21-1.29,4.6-1.94,1.57-.73,4.25-2.12,6.09-3.17s4.85-2.86,6.86-4.14,5.41-3.56,7.62-5.09,5.92-4.19,8.34-6,6.44-4.83,9-6.82,6.9-5.43,9.62-7.62,7.29-6,10.16-8.37,7.63-6.44,10.66-9.05,8-6.92,11.07-9.69,8.24-7.38,11.42-10.28,8.46-7.77,11.71-10.81,8.62-8.1,11.94-11.28,8.74-8.42,12.08-11.7,8.81-8.69,12.18-12.08,8.75-8.84,12.06-12.24,7.68-7.94,9.76-10.11,6.25-6.62,9.23-9.82,7.73-8.35,10.53-11.44,7.21-8,9.83-11,6.68-7.66,9.09-10.48,6.14-7.28,8.3-9.92,5.54-6.82,7.5-9.3,4.93-6.36,6.64-8.65,4.28-5.85,5.74-7.94,3.64-5.34,4.83-7.2,2.94-4.78,3.87-6.44,2.24-4.22,2.9-5.68a45.45,45.45,0,0,0,1.88-5,19.19,19.19,0,0,0,.71-4.77,9.81,9.81,0,0,0-1.52-5.07,8.55,8.55,0,0,0-4.73-3.15,14,14,0,0,0-5-.08,29.25,29.25,0,0,0-4.1,1c-1.12.39-3.2,1.29-4.6,1.94-1.59.75-4.26,2.14-6.09,3.17s-4.83,2.86-6.86,4.15-5.4,3.55-7.62,5.08-5.93,4.2-8.34,6-6.43,4.83-9,6.83-6.89,5.41-9.62,7.62-7.3,6-10.17,8.36-7.63,6.45-10.65,9.06-7.95,6.92-11.08,9.69-8.24,7.38-11.42,10.28-8.48,7.78-11.71,10.8-8.62,8.11-11.94,11.28-8.71,8.41-12.08,11.71-8.8,8.69-12.18,12.07S943,516,939.68,519.44Zm19.14-5.19c3.35-3.36,8.78-8.74,12.1-12s8.72-8.49,12-11.62,8.61-8.18,11.84-11.2,8.43-7.81,11.62-10.72,8.24-7.45,11.33-10.19,8-7,11-9.6,7.72-6.6,10.53-9,7.34-6.07,10-8.25,6.94-5.54,9.46-7.5,6.49-5,8.83-6.68,6-4.34,8.1-5.81,5.4-3.66,7.3-4.87,4.8-3,6.41-3.88,4.05-2.18,5.39-2.81,3.06-1.35,3.65-1.55c.37-.13,1.14-.33,1.82-.48l-.09.36a35.8,35.8,0,0,1-1.38,3.64c-.54,1.2-1.69,3.45-2.5,4.9s-2.48,4.22-3.58,5.94-3.19,4.85-4.59,6.86-3.91,5.47-5.57,7.69-4.57,6-6.48,8.44-5.22,6.54-7.36,9.15-5.81,7-8.19,9.77-6.41,7.44-9,10.36-7,7.82-9.73,10.87-7.47,8.15-10.44,11.34-7.08,7.55-9.16,9.74-6.4,6.66-9.69,10-8.66,8.83-12,12.15-8.78,8.74-12.09,12-8.71,8.48-12,11.63-8.6,8.17-11.84,11.2-8.45,7.82-11.62,10.72-8.24,7.44-11.33,10.19-8,7-11,9.6-7.72,6.6-10.53,8.95-7.34,6.08-10,8.26-6.92,5.52-9.46,7.49-6.48,5-8.83,6.69-6,4.34-8.1,5.81-5.4,3.65-7.3,4.87-4.79,3-6.41,3.87-4.06,2.19-5.39,2.81-3.06,1.35-3.65,1.55a16.18,16.18,0,0,1-1.82.48,3.57,3.57,0,0,1,.1-.35,33.26,33.26,0,0,1,1.37-3.65c.55-1.2,1.69-3.45,2.51-4.9s2.47-4.21,3.57-5.94,3.2-4.85,4.6-6.85,3.91-5.48,5.56-7.69,4.57-6,6.48-8.45,5.21-6.51,7.36-9.14,5.83-7,8.19-9.78,6.4-7.41,9-10.35,6.94-7.81,9.73-10.88S925,549.4,928,546.18s7.08-7.54,9.16-9.73,6.44-6.7,9.69-10S955.51,517.57,958.82,514.25Z"/><path d="M1087.25,591.11c-4,1.56-10.78,4.19-15,5.84s-11,4.38-15.31,6.09-11.27,4.56-15.6,6.32-11.43,4.71-15.79,6.53-11.45,4.79-15.73,6.61-10,4.28-12.79,5.47-8.23,3.57-12.18,5.3-10.23,4.51-13.95,6.18-9.63,4.34-13.12,5.93-9,4.14-12.22,5.66-8.35,3.94-11.27,5.35-7.56,3.67-10.27,5-6.8,3.42-9.21,4.66-6,3.15-8.1,4.27-5.2,2.87-7,3.87-4.34,2.56-5.75,3.45-3.48,2.26-4.56,3a40.6,40.6,0,0,0-3.42,2.74,14,14,0,0,0-2.54,3.12,6.18,6.18,0,0,0,.31,6.53,7.32,7.32,0,0,0,4.79,2.63,15.72,15.72,0,0,0,2.05.12c.74,0,1.49,0,2.08-.09,1.17-.1,2.89-.31,3.93-.49s3.14-.6,4.89-1,4.78-1.13,6.83-1.66,5.62-1.53,8-2.21,6.41-1.9,9.05-2.72,7.21-2.27,10.08-3.21,7.84-2.6,11-3.68,8.49-2.92,11.87-4.11,9.07-3.21,12.65-4.51,9.59-3.49,13.35-4.88,10.05-3.75,14-5.24,10.44-4,14.5-5.55,10.78-4.19,14.94-5.83,11.06-4.39,15.32-6.1,11.27-4.56,15.59-6.32,11.43-4.71,15.8-6.53,11.44-4.79,15.73-6.61,10-4.28,12.79-5.47,8.23-3.57,12.18-5.3,10.23-4.51,14-6.18,9.63-4.34,13.12-5.93,9-4.14,12.22-5.66,8.34-3.94,11.27-5.35,7.54-3.67,10.27-5,6.8-3.42,9.21-4.66,6-3.15,8.1-4.27,5.18-2.86,6.94-3.87,4.35-2.57,5.76-3.45,3.46-2.25,4.56-3,2.54-1.93,3.42-2.74a14,14,0,0,0,2.54-3.12,6.2,6.2,0,0,0-.31-6.53,7.32,7.32,0,0,0-4.79-2.63,21.1,21.1,0,0,0-4.13,0c-1.17.1-2.9.31-3.93.49s-3.15.61-4.89,1-4.77,1.12-6.83,1.66-5.63,1.53-8,2.21-6.41,1.9-9.06,2.72-7.13,2.25-10.07,3.21-7.84,2.6-11,3.68-8.5,2.92-11.88,4.11-9.07,3.21-12.65,4.51-9.58,3.49-13.35,4.88-10,3.75-14,5.24S1091.3,589.54,1087.25,591.11Zm31.94-1.41c3.74-1.38,9.71-3.57,13.27-4.86s9.22-3.3,12.57-4.48,8.65-3,11.78-4.07,8-2.7,10.9-3.64,7.35-2.37,9.93-3.17,6.58-2,8.87-2.67,5.74-1.61,7.72-2.13c.62-.16,1.34-.35,2.09-.53l-1,.58c-1.7,1-4.71,2.65-6.72,3.74s-5.59,3-7.93,4.18-6.44,3.29-9.07,4.6-7.25,3.56-10.16,5-7.92,3.78-11.18,5.31-8.67,4-12.13,5.61-9.34,4.25-13,5.9-10,4.43-13.89,6.15-9.38,4.1-12.12,5.28-8.47,3.63-12.74,5.44-11.32,4.78-15.67,6.59-11.43,4.74-15.73,6.5-11.3,4.6-15.54,6.3-11.1,4.44-15.25,6.07-10.85,4.26-14.89,5.82-10.53,4-14.43,5.52-10.16,3.82-13.9,5.21-9.71,3.57-13.28,4.86-9.21,3.3-12.57,4.48-8.65,3-11.77,4.08-8,2.69-10.9,3.63-7.29,2.35-9.93,3.17-6.58,2-8.88,2.67-5.74,1.62-7.72,2.13c-.61.16-1.33.35-2.08.53l1-.58c1.69-1,4.7-2.65,6.72-3.74s5.58-3,7.93-4.18,6.44-3.29,9.07-4.6,7.24-3.55,10.16-5,7.9-3.78,11.17-5.31,8.67-4,12.14-5.61,9.33-4.24,13-5.9,10-4.43,13.89-6.15,9.38-4.1,12.12-5.28,8.47-3.63,12.74-5.44,11.32-4.78,15.67-6.59,11.43-4.74,15.73-6.5,11.3-4.6,15.54-6.3,11.1-4.44,15.25-6.07,10.85-4.25,14.89-5.82,10.53-4,14.43-5.52S1115.44,591.09,1119.19,589.7Z"/><rect x="899.56" y="745" width="350.44" height="10"/></svg>