<svg id="Abstract_Shape" data-name="Abstract Shape" xmlns="http://www.w3.org/2000/svg" viewBox="0 0 1500 1500"><path d="M1196.7,1194.67h-36.31a2.94,2.94,0,0,0,.15-.94c0-2.51-2.07-2.57-5-2.65q-2.53-.08-7.69-.15c-21.5-.32-81.75-.59-158-.94l-39.29-.17c-43.88-.2-94.14-.39-147.34-.58-59.84-.21-121.72-.44-176.56-.7l-9.5,0c33.46-.22,69.26-.43,104.16-.63,59.8-.34,121.64-.7,173.89-1.11l18.94-.15c84.16-.66,156.85-1.23,187.55-2,6.56-.16,11.3-.31,14.51-.46,5-.23,7.13-.33,7.12-2.94s-2.38-2.65-5.12-2.82c-1.86-.12-4.57-.23-8.29-.35-7-.22-17.52-.46-32.21-.74-34.23-.63-92.42-1.17-159.8-1.79-23.94-.22-48.86-.45-74-.7-38.34-.37-80.48-.72-121.24-1.06-59.85-.5-121.73-1-171.18-1.61-34.16-.41-66.3-.8-93.39-1.19,36.49-.66,86.68-1.25,139.44-1.88,28.9-.34,58.95-.69,88.66-1.08,33.36-.43,68.78-.84,103-1.23,62.31-.72,121.17-1.39,167.16-2.2,81.88-1.45,122.05-2.37,128.83-3.68,2.68-.51,3-2.09,2.88-3-.21-2.58-2.7-2.75-8.71-3.15-4.06-.28-10-.55-18.19-.85-17.11-.61-43-1.24-66-1.78-38.1-.89-90.68-1.67-146.35-2.49-32.83-.48-66.79-1-99.59-1.53-27.79-.47-56.29-.91-84.19-1.33-61.17-.94-118.94-1.83-160.45-2.89-15.67-.41-38.38-1-57.13-1.68,21.91-.81,51.89-1.6,81.31-2.37,37.59-1,85.28-1.86,135.76-2.77,36-.65,73.13-1.32,107.91-2.06,21.49-.47,43.08-.9,64.15-1.33,59.77-1.2,116.23-2.34,152.64-3.71,20.89-.79,35.07-1.45,44.63-2.07,5.26-.35,9.08-.68,11.71-1,3.09-.4,6-.78,6.13-3.39.14-2.85-3.15-3.29-6.63-3.75-13.72-1.84-62.65-3.3-124.59-5.15l-11.13-.33c-35.85-1.07-78.34-2-123.33-3-38.18-.84-77.66-1.7-113.21-2.67-15-.41-29.89-.8-44.41-1.18-60.32-1.59-112.41-3-142.82-4.69-8.74-.5-15.34-1-20.31-1.35,20.93-1.79,66.49-3.32,118.89-5.08l28.95-1c33.08-1.13,71.91-2.17,109.47-3.16,39.52-1.06,80.39-2.14,115.6-3.36l24.69-.85c58.31-2,108.67-3.73,132.62-5.9,6.36-.58,11-1.12,14.09-1.65s6.65-1.14,6.65-4-3.18-3.51-8.41-4.3c-4.1-.61-10.2-1.26-18.66-2-23.51-2-67.07-3.64-117.5-5.54-14-.52-28.54-1.07-43.19-1.65-29.56-1.16-62.68-2.23-94.71-3.26-40-1.29-81.42-2.63-115.22-4.13l-5.52-.25c-57.34-2.55-102.89-4.58-120.26-7.17,6.27-.9,16.49-1.92,30.59-3.05,25.44-2,67.15-3.82,111.3-5.7,17.72-.75,36.05-1.53,54.28-2.36,25.43-1.16,52.84-2.24,79.35-3.28,41.65-1.64,81-3.18,112.57-5,54.24-3.15,90.41-5.45,98.77-8.68,2.38-.93,3.46-2.27,3.21-4-.5-3.46-3-5.18-57.31-9.56-26.12-2.11-63.84-3.93-103.77-5.85-20.56-1-41.82-2-62.46-3.13-20.9-1.12-42.71-2.17-63.79-3.18-40.77-2-79.27-3.82-107.81-6-18.35-1.41-54.05-4.16-65.33-6.91,10.66-2.59,43.12-5.31,65.62-7.2,25.46-2.13,59-4,94.46-5.94,22.6-1.25,46-2.54,68-4,16.17-1,32.62-2,48.53-3,39.36-2.34,76.54-4.55,101.55-7.18,42.88-4.51,47.93-6.78,48.68-10.57.24-1.22,0-3-2.78-4.48-7-3.77-34.51-6.39-82.61-10.71l-2-.18c-24-2.15-53.31-4-84.32-6-23.85-1.53-48.52-3.1-70.9-4.84-11.37-.88-22.69-1.72-33.72-2.53-37.5-2.79-72.92-5.41-93.71-8.52-16.24-2.43-22.55-4.16-24.93-5.24a24.1,24.1,0,0,1,3.17-1.22c10.93-3.56,41.87-6.57,77.71-10l14.19-1.39c21.73-2.14,47.88-4.09,73.17-6,24.41-1.83,49.66-3.72,71.62-5.81l19.63-1.85c37.2-3.48,69.32-6.48,85.93-10.23,12.34-2.78,16.73-5,16.79-8.68.06-3.42-3.81-5.71-14.29-8.45-13.89-3.63-41.79-6.61-74.09-10-7.64-.82-15.49-1.65-23.41-2.53-19.07-2.1-40.85-4-61.91-5.9-24.26-2.15-49.34-4.38-70-6.85l-6.42-.77c-34.93-4.16-65.1-7.76-76.58-12.09a15.38,15.38,0,0,1-4.55-2.31c1-.93,4.71-2.93,18.27-6.16,14.7-3.51,40.49-6.57,67.78-9.8,9.82-1.17,20-2.37,30-3.65,15.94-2,33.42-3.88,50.33-5.69,24.72-2.64,48.07-5.14,67.07-8,35.47-5.45,57.51-9.14,64.37-14.49,2.75-2.14,3-4.28,2.65-5.69-1-4.61-8.45-7.76-30.62-12.95-15-3.51-37.62-6.54-61.56-9.76-11.3-1.51-23-3.08-34.3-4.76-12.76-1.89-26.25-3.65-39.29-5.36-23.43-3.07-45.56-6-62.17-9.34-12.4-2.52-41.43-8.42-42.72-13.19,0,0,0-.09.08-.28,2.41-4.08,23.32-9.14,34.55-11.87,14-3.39,33.27-6.37,53.64-9.52,12.15-1.88,24.71-3.83,36.52-5.93,9.48-1.68,19.24-3.28,28.67-4.82,21.95-3.59,42.68-7,56.95-11,19.52-5.45,27.62-9.25,29.88-14a6.29,6.29,0,0,0,0-5.38c-2.89-6.57-17.88-10.78-44.14-17.65-12.84-3.36-29-6.3-46-9.41-12.37-2.26-25.15-4.59-36.67-7.11-6.38-1.4-12.79-2.74-19-4-19.93-4.16-38.75-8.09-50-12.6-9.38-3.78-14.45-7-15-9.63-.09-.35-.33-1.42,1.44-3.39,4.45-5,20.78-9.72,38.06-14.76l6.07-1.77c10.9-3.21,24.43-6.19,37.51-9.07,12.14-2.67,24.69-5.43,35.53-8.44q5.16-1.44,10.18-2.8c19.11-5.2,35.6-9.69,44.57-15.27,6.24-3.88,9.3-7.53,9.62-11.49.28-3.48-1.6-6.93-5.76-10.55-6.4-5.59-20-10.1-35.7-15.32-3.38-1.12-6.85-2.27-10.32-3.46-9.06-3.1-19.62-6-29.84-8.79-11.33-3.09-23-6.3-32.52-9.75l-2.45-.89c-16.72-6.09-31.16-11.34-36.74-17.29-2-2.14-2.92-4.07-2.8-5.91.18-2.66,2.46-5.68,7.17-9.51,5.9-4.8,17.23-9.21,29.22-13.89,4.2-1.63,8.54-3.32,12.78-5.08,6.85-2.85,14.58-5.55,22.05-8.17,10.39-3.64,21.13-7.4,29.37-11.51,14.36-7.15,25.63-13.24,29.15-21.07,4-9-2.73-16.4-10.65-23.07-6-5.05-15.33-9.46-25.21-14.14-4.45-2.11-9.06-4.29-13.39-6.55-5-2.62-10.38-5.12-15.59-7.54-9.34-4.33-18.16-8.43-24.5-12.94-9.62-6.85-16.19-12.73-17-19.19-.73-5.82,3.85-11.39,12-19.06,4.77-4.48,11.79-8.66,19.23-13.08,4.38-2.61,8.91-5.3,13.06-8.13,3.25-2.21,6.69-4.39,10-6.48,8.17-5.16,15.88-10,21.19-15.58s7-10.62,8.77-15.62a56.27,56.27,0,0,1,2.79-7,2.5,2.5,0,1,0-4.46-2.25,57.46,57.46,0,0,0-3,7.58c-1.64,4.7-3.18,9.14-7.65,13.8-4.9,5.11-12.36,9.82-20.26,14.81-3.36,2.12-6.83,4.31-10.15,6.58-4,2.74-8.49,5.39-12.81,8-7.68,4.57-14.93,8.88-20.09,13.74-7.77,7.29-14.64,14.56-13.56,23.31,1,8.27,8.37,15,19.06,22.65,6.71,4.78,15.74,9,25.29,13.41,5.16,2.39,10.49,4.87,15.38,7.43,4.42,2.31,9.07,4.51,13.57,6.64,9.58,4.53,18.63,8.82,24.13,13.45,9,7.59,11.54,12.25,9.32,17.18-2.85,6.31-13.84,12.19-26.83,18.66-8,4-18.08,7.51-28.79,11.26-7.54,2.64-15.34,5.37-22.31,8.27-4.2,1.74-8.51,3.42-12.69,5-12.37,4.83-24,9.38-30.55,14.67-6,4.83-8.73,8.86-9,13.06-.22,3.29,1.13,6.45,4.14,9.66,6.4,6.82,21.36,12.26,38.68,18.57l2.45.89c9.66,3.52,21.48,6.75,32.91,9.88,10.14,2.77,20.63,5.64,29.54,8.69,3.49,1.2,7,2.35,10.37,3.48,14.57,4.84,28.34,9.41,34,14.33,2.83,2.48,4.2,4.62,4,6.39-.17,2.18-2.62,4.76-7.27,7.64-8.35,5.19-25.3,9.81-43.24,14.7q-5,1.37-10.21,2.8c-10.71,3-23.19,5.72-35.26,8.38-13.17,2.9-26.78,5.9-37.85,9.15l-6.06,1.77c-19.54,5.69-35,10.19-40.38,16.22-2.33,2.6-3.2,5.24-2.59,7.86,1.05,4.54,6.45,8.47,18.05,13.14s30.66,8.65,50.81,12.85c6.19,1.3,12.6,2.63,19,4,11.6,2.54,24.43,4.88,36.84,7.14,17,3.1,33,6,45.64,9.33,18.18,4.76,38.78,10.15,40.84,14.84a1.33,1.33,0,0,1,0,1.22c-2.12,4.49-20,9.47-26.71,11.35-14,3.91-34.6,7.28-56.41,10.84-9.45,1.55-19.22,3.15-28.73,4.84-11.76,2.09-24.3,4-36.42,5.9-20.48,3.17-39.82,6.17-54,9.62-23.16,5.61-34.71,9.16-37.67,14.17a5.25,5.25,0,0,0-.61,4.14c1.42,5.25,8.75,9.1,46.56,16.78,16.78,3.41,39,6.32,62.51,9.4,13,1.7,26.49,3.47,39.21,5.35,11.35,1.68,23,3.25,34.37,4.77,23.81,3.2,46.31,6.21,61.08,9.67,20.59,4.82,26,7.57,26.82,9a3.38,3.38,0,0,1-.79.78c-6.32,4.93-35.93,9.47-62.05,13.48-18.89,2.9-42.18,5.39-66.84,8-16.93,1.81-34.44,3.68-50.43,5.7-10.06,1.27-20.2,2.48-30,3.64-27.45,3.25-53.37,6.33-68.36,9.9-16.42,3.92-22,6.64-22.31,10.79-.23,3.65,4.14,5.78,8,7.23,12.05,4.55,41.05,8,77.76,12.38l6.41.76c20.77,2.48,45.89,4.71,70.19,6.87,21,1.87,42.79,3.79,61.8,5.89,7.93.88,15.79,1.72,23.43,2.53,32.1,3.42,59.83,6.38,73.36,9.92,6.38,1.67,9,2.87,10,3.53-1.18.71-4.27,2.06-12.36,3.88-16.29,3.68-48.27,6.67-85.29,10.14l-19.64,1.84c-21.91,2.09-47.14,4-71.53,5.8-25.31,1.89-51.49,3.85-73.28,6l-14.19,1.39c-37.61,3.66-67.32,6.55-78.77,10.27-4.1,1.34-7.85,3-7.58,6.29.31,3.68,4.9,6.1,30.15,9.87,21,3.14,56.49,5.77,94.08,8.56,11,.82,22.34,1.66,33.7,2.54,22.42,1.73,47.1,3.31,71,4.84,31,2,60.24,3.84,84.19,6l2,.18c37.55,3.37,70.27,6.31,79.28,9.53-5.18,1.74-19.48,3.84-42.65,6.28-24.89,2.62-62,4.82-101.32,7.16-15.91.95-32.37,1.92-48.55,3-22,1.41-45.36,2.7-67.95,4-35.52,2-69.07,3.81-94.6,6-66.17,5.55-72.9,7.25-73,12.12-.07,4.71,5.88,6.82,72.72,12,28.61,2.2,67.14,4.06,107.95,6,21.08,1,42.88,2.06,63.76,3.19,20.65,1.11,41.92,2.13,62.49,3.12,39.89,1.93,77.57,3.74,103.61,5.84,12.1,1,37.36,3,48.34,5-13.34,2.49-48.82,4.7-92.9,7.26-31.52,1.82-70.84,3.37-112.48,5-26.51,1-53.93,2.12-79.38,3.29-18.22.83-36.54,1.61-54.27,2.36-44.2,1.88-85.94,3.65-111.49,5.71-13.56,1.09-22.82,2-29.16,2.85-9.75,1.31-12.31,2.35-12.41,5-.13,3.1,3.68,4,9.5,4.9,16.77,2.72,63.18,4.78,121.93,7.4l5.52.24c33.83,1.51,75.24,2.85,115.28,4.14,32,1,65.13,2.1,94.67,3.26,14.66.58,29.16,1.12,43.21,1.65,50.36,1.9,93.86,3.54,117.26,5.52,5.66.48,10,.9,13.24,1.28-1.93.21-4.22.45-6.94.69-23.81,2.16-74.1,3.88-132.34,5.88l-24.7.85c-35.18,1.22-76,2.31-115.56,3.36-37.56,1-76.4,2-109.5,3.16l-29,1c-54.76,1.83-102.06,3.42-121.79,5.33-12.1,1.18-15.14,1.88-15.08,4.87s3.13,3.44,11.26,4.28c5.83.6,14.64,1.23,26.91,1.93,30.49,1.73,82.62,3.1,143,4.69l44.41,1.19c35.56,1,75,1.83,113.23,2.67,45,1,87.46,1.92,123.29,3l11.13.33c45.37,1.35,83.75,2.5,106.27,3.72-13.24.73-29.22,1.34-37.56,1.65-36.36,1.37-92.8,2.51-152.55,3.72-21.07.42-42.67.86-64.16,1.32-34.77.74-71.94,1.41-107.89,2.06-50.5.91-98.19,1.78-135.8,2.77-75.44,2-111.47,3.1-115.95,4.78a2.74,2.74,0,0,0-2,3c.4,2.37,2.78,2.67,8.63,3.15,4.06.34,10,.67,18.14,1,14,.59,34.61,1.22,67,2,41.52,1.07,99.31,2,160.49,2.9,27.9.42,56.4.86,84.19,1.33,32.8.55,66.76,1.05,99.6,1.53,55.66.82,108.22,1.6,146.3,2.49,11.17.26,25,.58,38.37.94-21.57.5-48.32,1-77.12,1.51-46,.81-104.82,1.49-167.13,2.2-34.25.39-69.67.8-103,1.23-29.71.39-59.76.74-88.66,1.08-60.23.72-117.12,1.39-154.11,2.16-22.85.48-38.3.86-48.64,1.21-5.79.2-10,.38-12.89.57-4.32.28-6.7.43-6.75,3,0,2.76,2.06,2.87,9.05,3.25,19.94,1.1,88.23,1.92,167.29,2.87,49.46.6,111.35,1.11,171.2,1.61,40.75.34,82.89.69,121.24,1.06,25.11.25,50,.48,74,.7,21.23.2,41.54.38,60.48.57l-64.23.51-18.94.15c-52.25.41-114.08.77-173.87,1.11-46.55.27-94.68.55-136.73.84l-58,.4c-70.62.48-131.62.9-160.7,1.38-8.22.14-14.16.27-18.17.39-2,.06-3.58.12-4.6.18-1.45.08-3.87.22-3.87,2.67s2.26,2.6,4.86,2.71c1.67.07,4.12.14,7.48.22,6.46.14,16.18.28,29.71.44,35.53.42,97.71.74,171.26,1.09l-77.57.16-23.22.06c-78.78.18-135.7.31-146.48.46-.61,0-1.21,0-1.76.07h0c-1.56.15-2.75.65-2.74,2.5,0,2.47,2.28,2.5,4.28,2.53,1.2,0,3,0,5.36,0l20.78.09c18.18.05,44.78.1,78.49.15,69.43.1,179.61.17,286.16.23l31.76,0c86.36,0,179.85.08,257,.11l76.16,0,101.6,0h34.33a2.5,2.5,0,0,0,0-5Z"/></svg>