<svg id="Abstract_Shape" data-name="Abstract Shape" xmlns="http://www.w3.org/2000/svg" viewBox="0 0 1500 1500"><circle cx="461.66" cy="1103.76" r="45.97" transform="matrix(0.96, -0.29, 0.29, 0.96, -300.04, 181.14)"/><circle cx="416.72" cy="1017.49" r="36.78"/><path d="M423.13,922.62a27.58,27.58,0,1,0-27.58,27.59A27.58,27.58,0,0,0,423.13,922.62Z"/><path d="M381.76,825.54a18.39,18.39,0,1,0,18.39-18.38A18.39,18.39,0,0,0,381.76,825.54Z"/><path d="M421,733.1a9.19,9.19,0,1,0,9.19-9.2A9.18,9.18,0,0,0,421,733.1Z"/><circle cx="396.24" cy="461.66" r="45.97" transform="translate(-210.39 415.4) rotate(-45)"/><circle cx="482.51" cy="416.72" r="36.78" transform="translate(-106 661.93) rotate(-63.44)"/><path d="M605,395.55a27.59,27.59,0,1,0-27.58,27.59A27.58,27.58,0,0,0,605,395.55Z"/><path d="M692.85,400.15a18.39,18.39,0,1,0-18.39,18.39A18.4,18.4,0,0,0,692.85,400.15Z"/><path d="M766.9,439.41a9.2,9.2,0,1,0-9.19-9.2A9.2,9.2,0,0,0,766.9,439.41Z"/><circle cx="1038.34" cy="396.24" r="45.97" transform="translate(-72.6 427.52) rotate(-22.5)"/><path d="M1046.51,482.51a36.78,36.78,0,1,0,36.77-36.78A36.78,36.78,0,0,0,1046.51,482.51Z"/><circle cx="1104.45" cy="577.38" r="27.58"/><path d="M1081.46,674.46a18.39,18.39,0,1,0,18.39-18.39A18.39,18.39,0,0,0,1081.46,674.46Z"/><path d="M1079,766.9a9.2,9.2,0,1,0-9.19,9.2A9.19,9.19,0,0,0,1079,766.9Z"/><circle cx="1103.76" cy="1038.34" r="45.97" transform="translate(-313.34 501.43) rotate(-22.5)"/><circle cx="1017.49" cy="1083.28" r="36.78"/><circle cx="922.62" cy="1104.45" r="27.58"/><circle cx="825.54" cy="1099.85" r="18.39"/><path d="M733.1,1060.59a9.2,9.2,0,1,0,9.19,9.2A9.2,9.2,0,0,0,733.1,1060.59Z"/><circle cx="964.17" cy="988.08" r="9.19"/><path d="M1032.41,944a18.39,18.39,0,1,0,18.39-18.39A18.39,18.39,0,0,0,1032.41,944Z"/><path d="M1122.71,851a27.59,27.59,0,1,0,27.58,27.59A27.59,27.59,0,0,0,1122.71,851Z"/><circle cx="1174.81" cy="796.52" r="36.78" transform="translate(-10.65 1577.09) rotate(-67.5)"/><circle cx="1204.03" cy="703.74" r="45.97" transform="translate(-177.66 514.33) rotate(-22.5)"/><path d="M988.08,545a9.2,9.2,0,1,0-9.2-9.19A9.2,9.2,0,0,0,988.08,545Z"/><circle cx="943.96" cy="449.2" r="18.39"/><path d="M906.14,377.29a27.59,27.59,0,1,0-27.59,27.59A27.58,27.58,0,0,0,906.14,377.29Z"/><circle cx="796.51" cy="325.19" r="36.78"/><circle cx="703.74" cy="295.97" r="45.97" transform="translate(-59.69 291.84) rotate(-22.5)"/><path d="M545,511.92a9.2,9.2,0,1,0-9.2,9.2A9.2,9.2,0,0,0,545,511.92Z"/><circle cx="449.2" cy="556.04" r="18.39"/><path d="M377.29,649a27.59,27.59,0,1,0-27.58-27.59A27.59,27.59,0,0,0,377.29,649Z"/><circle cx="325.19" cy="703.49" r="36.78"/><circle cx="295.97" cy="796.26" r="45.97" transform="translate(-476.35 442.5) rotate(-45)"/><path d="M511.92,955a9.2,9.2,0,1,0,9.2,9.2A9.2,9.2,0,0,0,511.92,955Z"/><circle cx="556.04" cy="1050.8" r="18.39"/><path d="M621.44,1095.12A27.59,27.59,0,1,0,649,1122.71,27.58,27.58,0,0,0,621.44,1095.12Z"/><circle cx="703.49" cy="1174.81" r="36.78"/><circle cx="796.26" cy="1204.03" r="45.97" transform="translate(-400.15 396.36) rotate(-22.5)"/></svg>