<svg id="Abstract_Shape" data-name="Abstract Shape" xmlns="http://www.w3.org/2000/svg" viewBox="0 0 1500 1500"><path d="M1212.09,554.79A501.08,501.08,0,0,0,750,248.5h0a501.5,501.5,0,1,0,0,1003h0a501.78,501.78,0,0,0,462.09-696.71Zm-11.45,402.4-2.07,4.59-2.26,4.2.45-.92Zm-49,82.68-20.35,28-21.65,22.68Zm-111.76,115.74-35.76,20.4,72.44-52.64L1046.23,1151Q1043.1,1153.34,1039.93,1155.61ZM934.48,1210.9l-32.93,10.7,61.19-24.27ZM692.2,1242.61l-5-.55-4.69-.86Zm-93.76-21-32.92-10.7-28.26-13.57Zm-144.78-70.66-30.3-27.58L495.84,1176l-35.65-20.34C458,1154.13,455.83,1152.54,453.66,1150.94Zm-63.36-60.38-21.64-22.68-20.35-28,1.49,1.79ZM303.72,966l-2.28-4.22-2.09-4.63,2.12,4.29ZM263.64,847.26l-1-4.93L262,837.6l.09.54Zm13.15-254.47,17.17-38-27.67,85.16L274.76,599Q275.75,595.91,276.79,592.79ZM315,513.15l14.89-27.59,20.35-28ZM507.22,317.49l4.36-2.49,4.29-2.06ZM750,251.5q2.37,0,4.74,0l40,4.43H705.22l40-4.42Q747.63,251.5,750,251.5Zm90.82,11.55,30.84,5.64,32.93,10.69Zm143.25,49.86,4.32,2.07,4.39,2.51Zm102.24,72.53,3.72,3.39,3.29,3.45Zm63.5,72.1,20.35,28,14.89,27.59ZM1225.24,599l8.46,40.87L1225,613.22l-19-58.47,17.17,38C1223.89,594.85,1224.58,596.94,1225.24,599ZM1238,837.53l-.64,4.76-1,5,.33-1.92ZM357.86,1048.26l-20.79-25.1,22.52,19.16,35.91,30.55,7.06,21.66,4.13,12.68ZM881.94,275.65l41.57,10.64L868.06,282,847,280.42l-29.22-21.2ZM1235.76,839,1225,901.8c-.15.44-.28.89-.43,1.34l-10-3.26,27.6-98.09Zm-72.83,184.21-69.63,84.05,8.48-26,2.71-8.31,38.11-32.42Zm-77.9,91.62-91.63,66.58,35-48.18,28.43-9.24Zm-96.66,70.1-20,0H950.57l16-10.65,57.12-38-21.79,30Zm-4.73,2-101.45,40.24,33.39-20.55,31.95-19.67h36.11ZM687.23,258.06l20,6.49,37.17,12.08-38.74,1.61-49,2,26-18.9Zm489.29,261.78-9.9-7.2-16.2-39.32-13-31.63,58.43,92.19Zm60.74,137.84-8.79,27.11-2.87,8.86-8.19-29.27-15.48-55.32,5.36,7.37Zm-88.48,338.16-2.19-1.76,19.35-26.64L1209.86,907l-39.31,106.34ZM326.09,520.42l6-4.37-30.57,82.34V538.28ZM926.84,313.79l-1.32,4.87-50.33-24.48L851.8,282.8l81.77,6.27Zm-58.4,906.55-6.9-18.21,8.7-1.54,72-12.78-69.84,43ZM551.75,1184l-76.44-50.83,70.95-3.31,5.49-.26Zm185-894.72L750,278.68l4.56,3.65,55.53,44.45H689.9ZM847,282.67l75.39,36.67L815,326.63l10-13.69ZM473,1131.3l-20.36-74.23,97.24,70.65Zm456.69-1.7-109.1,12.54,51.54-58.64,72.16,44.42Zm-71.5,70.68-105.41-3.68,65.15-51.74,15.27,21Zm-108.16-4-56.28-44.69-9-7.11H815.22L796,1159.72Zm-79.78-35,11.88-16.36,65.15,51.74-105.41,3.68ZM397.82,449.29l87.45-59L463,470.46Zm13,382.13,38.66,16.24L397.14,934,356.41,808.58ZM562.31,495.93l-105,55.22L464.55,473ZM527.57,390.7l43.36,1.86L465.39,469.24,487.71,389ZM774,368.76l38.59-39.2,25.86,62.78L845,408.26l-48.64-9L752,391.09Zm197.84,22,40.44-1.73,22.32,80.25L929.07,392.56Zm121.93,240.52-3.07,5.92L1045.65,554l84.87,6.51Zm49.81,177.34L1102.86,934l-24.48-40.38-27.82-45.91,38.66-16.24ZM1034,471.26l-18.45,4.33-79.79,18.74-3.28-39.26-5.13-61.29,95.41,69.31Zm-96.3,24.67,97.76-23,7.28,78.18ZM858,1008.28,870.68,1081l-117.51-17.08Zm-109,54.55-105.47-56L749,959Zm-121.67,17.9L542.1,1040l97.89-31.8-8.65,49.55Zm-86.92-42.27V934.72l98.67,71.68-16.2,5.27Zm394.28-541,52.4,107.31L930.47,593.2l-56.84-11.66L928.52,506Zm23.38,435.85-98,71.19L872.75,919l38.35,6.47ZM473.9,724l37.43-115.18,40.05,76.69ZM814.82,479.65l76.24,10.75,42,5.93-61.06,84-8.19-14.42Zm59.41,104.06,113.15,23.2L947.11,684Zm-422.06,262L472.85,728.1l1,1.11L551,813.62l-12.33,4Zm21.68-119.49,77.9-38.71v124L478.16,731ZM751,544l118.06,38.36-51.38,21.9L751,632.64V544Zm119.76,39.81L859.34,712.35,752,634.38l78.72-33.54ZM816.33,844.72,750,955.46,683.67,844.72H816.33ZM849.9,716.49,751,748.62V636.12l107,77.74ZM817.75,841.55l-47-64.69-19.13-26.33,107-34.77L819.13,837.3ZM642,713.86l107-77.74v112.5l-96.31-31.29Zm40.25,127.69L641.38,715.76l107,34.77ZM750,751.7,815.59,842l.54.74H683.87ZM639.42,716.19l41,126.16-4.59-1.05L554.6,813.49ZM819.59,842.35l41-126.16,84.82,97.3-100.26,23ZM748,634.38l-107.32,78L629.23,583.78l40,17.05Zm-109.29,78.4-25.25-8.2-59.07-19.2,73-100.42ZM555.13,815.66l20,4.6,105.05,24.1-52.12,71.73-71-97.69ZM871.91,916.09l-52.12-71.73,100.15-23,24.93-5.72-29.36,40.41ZM749,586.21v46.43l-71.16-30.32-46.9-20L749,544ZM553.75,687.29l84.32,27.39-84.32,96.74V687.29Zm72.58,229.78-85.77,14.48,12.89-114.79Zm55.5-71.54L700,875.84l47.79,79.79L629.71,917.27Zm121.84,24.22,14.5-24.22,52.12,71.74L752.23,955.63Zm58.25-155.07,84.33-27.39V811.42Zm83.71-29.3-62.79,20.41-21.53,7,4.34-48.86,7-79,35.73,49.18ZM552.89,684l-40.27-77.11,113.15-23.2ZM520.63,825.58l31-10.06-12.93,115.1-85.86-83Zm119.29,179-98-71.19L627.25,919l5.3,35.79Zm-10.6-85.3,117.92,38.32-105.18,47.73L634.46,954Zm241.36,0-12.74,86L752.76,957.56Zm3-2.17,72.87-100.31,12.9,114.79-47.81-8.07Zm74.58-105.56v-124l77.9,38.71-5.76,6.3ZM932,494.15l-40.52-5.71-77-10.87,32.48-66.31,19.6,19.11ZM812.73,480l36,63.41,21,37L751.84,542.15l7.48-7.64Zm-64.58,62.13L630.23,580.46l15.47-27.23L687.26,480l26.33,26.86Zm-63-62.5L628,580.36l-61.06-84,42-5.93ZM626.37,581.54,571,592.89l-58.12,11.92,52.4-107.31ZM751,959l105.47,47.87-105.47,56Zm210.35-28.33-12.93-115.1,18.63,6.06,80.16,26ZM949,813.62l59.57-65.22,18.54-20.3,2.2,12.5,18.48,105.12-80.51-26.16ZM1049.56,844,1029,727.12l73.1,10.39-2.79,5.65Zm-23.47-120-77.48-38.5,40.06-76.7,3.53,10.88ZM933.63,493l-85-82.83,76.6-17.24,4,48.37ZM810.56,479.36l-53.9,55-6.66,6.8L715.5,506l-26.06-26.59H810.56Zm-157.5-68.1,32.49,66.31L606,488.8l-38,5.35,71.34-69.53ZM471,727.11,450.44,844,397.89,737.51ZM452.4,850l85.33,82.48-65.26,34.56-17.14-99.94Zm86,84.39v102.91l-65-68.46Zm95.07,122.73,8.53-48.87,104.82,55.66L629.32,1081Zm227.44-50.75,98.66-71.68v103.74L872,1010Zm100.66-30.94v-41l34.64,18.33,30.41,16.11-65.05,68.47Zm38.89-22.72-38.2-20.23L1047.6,850l-20.08,117Zm27.65-229-24.07-74.11-13.61-41.9,98.67,32.07-39.33,54.12Zm-37.35-118,36.85-35.71,16-15.52,45,83Zm51.43-52.63-16.59,16.08-36.43,35.31L937.09,497.88l98.64,51.85ZM845.15,410.32l-32.37,66.11-15.21-20.92-45.29-62.34,41.35,7.64ZM750,393.44l61,83.92H689L707.46,452ZM566.36,493l6-72.2,2.33-27.87,76.61,17.24ZM509.23,605.76l-97.89,31.81,45-83Zm.33,2-37.69,116-61-83.92,94.31-30.64Zm-99.63,34.15,60.5,83.25-72.89,10.37,6.7-50.65ZM450.36,850l20.06,117-72.11-31.08Zm422.31,230.75L860,1008.21l31.84,10.34,66,21.47-34.27,16.37Zm177-230.75,52,85.88L1029.57,967Zm1.55-4.77,52.52-106.41,40.07,67.53-89.13,37.43Zm53.73-108.29,20.29-17.26L1169.45,682l-24.7,122Zm-2.45-1.39-72.89-10.37,6.85-9.43,53.64-73.83,5.76,43.49ZM923.41,391.28l-22.56,5.08-53.61,12.06-13-31.52L815,330.07l106.84,60.3Zm-175.69,1.89-60.5,83.27-32.39-66.11,34.5-6.37ZM466,471.26l6.3-4.58,100.34-72.9-8.41,100.55-79.78-18.74Zm-5.73,80.57,102.62-54L510.82,604.52l-53-51.38Zm-51,85.33-8.8-16.95-31-59.67L454.35,554ZM408,641l-5.8,43.79-6.61,49.94-64.83-55.15L384.09,653Zm-77.49,41,46.51,39.56,18,15.34-39.84,67.14-3.84-18.94Zm25.69,124.31,40.07-67.53,52.51,106.41-3.17-1.33ZM459,964.19l11.58,5-2.79,11.53-17.15,70.83L398.85,938.28Zm94.54,162.75-12.83-85.38L626,1082.32l-70.54,43.42Zm76.55-44,117.43-17.06-65.59,76-34.81-39.6Zm119.83-16.78.11-.12,65.91,76.4H684.09Zm68.21,75.76-65.59-76,117.43,17.06-43.35,49.32Zm55.9-59.59,49.86-23.83,35.45-16.93-12.82,85.38-.88-.54Zm295.21-402.71-64.84,55.15-6.6-49.86L1092,641l13.16,6.57Zm-101.66-125.9L1044.81,552l-1.1-11.84-6.13-65.9,91.72,84.22ZM1037,470.46l-22.29-80.15,87.45,59ZM748,391.09l-59.43,11L655,408.26l17.11-41.53,15.31-37.17,32.45,33Zm-62.93-61L665.74,376.9l-13,31.52-52-11.7-24.19-5.44L605.4,375ZM455.19,552l-23.14,1.78-61.35,4.7,91.72-84.22Zm-87.08,10.28,39.8,76.61-11,5.47-66.27,33.11Zm-14.65,243.1L288,784.07l40.66-101.21Zm98.77,248,20-82.73,65.13,68.55-16.52,2.75Zm72.28-10,14.07-2.34,12.82,85.37-98-71.19Zm31.22,84.58,72.17-44.42,51.54,58.64-119.66-13.75ZM961.42,1041l13.77,2.29,71.39,11.89-98,71.19Zm1.19-1.83,65.13-68.55,1,4.12,19,78.61-69.16-11.52Zm69.63-58.46-2.79-11.53,9.47-4.08,62.22-26.82-51.75,113.26Zm72.32-44.12,69.33-46L1144.82,992Zm29.47-92.1,11.25-34.64,5.56,14.9,23.55,63.14-69.42,46Zm12.51-39.15,24.79-122.48L1212,784.07l-61.06,19.84Zm22.78-127.91-75.9-37.92-1.33-.66,39.8-76.61,7.29,22.44Zm-131-205.28,2-.67,63.4-20.59,26.59,105.77ZM1019,390.77l-4.54-3.06,21.89-30.13,64,88Zm-8.71-3.69-83.12,3.56v-68.5l52.54,41ZM925.16,390,816.35,328.55l108.81-7.39ZM750,390.31l-60.56-61.53H810.56Zm-66.35-61.76L574.83,390V321.16Zm-110.82-6.41v68.5l-83.12-3.56,25-19.53Zm-111.11,150-92,84.51,26.59-105.77,57.89,18.81ZM334.46,659.33l-5.54,17-27.17-72,64.31-42.3Zm-47.3,121.5-11.58-83L327.26,681ZM395,933.92l-69.42-46,29.11-78Zm.41,2.67L355.18,992,326.1,890.62Zm1.23,1.72L448.6,1052l-92.38-58ZM556,1130l124.14,14.27-22.75,31.31-17.7,24.36-34.46-28.8Zm304.41,69.94-24.47-33.67-16-22L944.05,1130l-63.33,52.93Zm243-261.59L1143.78,994l-92.38,58Zm67.75-261.94-37.14-114.31,64.31,42.3ZM1012.84,386.53l-81.59-63.74,103.47,33.62ZM577.65,319.34,653,282.67l31.94,44Zm-90.49,67.19-21.89-30.12,103.48-33.62Zm-1.62,1.18L468,399.52l-68.33,46.09,64-88ZM366.47,559.4l-63.94,42.05,32-86.07Zm379.77,639.24,2.76-.1v37.24l-103.48-33.62Zm4.76-.1,2.45.09,101,3.53L751,1235.78Zm296.38-141.47L1027,1131.3l-76.89-3.58Zm2.41-1.21,51.74,16.81-72,57,8.73-31.85Zm1.65-1.56,91.13-57.2-39.44,74Zm141.07-159.47,19.18,6.23-64,88,28.54-99.52Zm-16.92-9.44-.41-1.11-28.66-76.83,65.15-21.17-6.51,17.87ZM1172.73,681l51.69,16.8-11.58,83Zm-8.23-167.63-32,44L1128.94,543l-22.62-90,27.25,28.28Zm-351.75-187L753.63,279l-.62-.5,91.72,3.8ZM393.68,453,367.44,557.34l-31.94-44,24.24-25.15Zm-93,154.17,27,71.59-51.74,16.82,12.79-45.74ZM288.33,786.28l65.15,21.17-29.07,77.94-20.59-56.54Zm0,114.78,19.62-6.37,15.79-5.13,28.54,99.52ZM448.55,1054.3l-51.68,16.79-39.44-74Zm105.2,130.77v-54.35l82.55,69-76-13.47Zm386,1.15-76.09,13.49,82.55-69v54.35ZM1176.9,887.66,1208,802.13l4.28-11.77v108.8Zm47.16-192.08-51.75-16.82,27-71.59,12.14,43.38Zm-26.6-94.13-63.93-42.05,22-30.34,9.94-13.68,23.29,62.72ZM1106,449.78l25.65-16.8,31.23,75.83Zm24.41-18.38-25.72,16.85-63.27-87.09,22.07,17.42Zm-203-112,8.07-29.66,94.31,62.92Zm-171.76-42.8,57.15-18.57,30.59,22.2Zm-8.64,1.9-59.74,47.81-1.64-2.26-30.34-41.76,49.7-2.05Zm-116.7,13-55.8,27.15-8.05-29.59,81.76-6.27Zm-57.66,27.92L470.24,352.69l94.3-62.92ZM286.51,650.37,274.4,693.64l-11.66-36L298.07,609Zm-1,133.26-29.18-1.41-1.45-.07,19.31-79.7Zm4.24,12.46,33.33,91.57-35.41,11.5V790.36ZM331,963.19l22.44,30.89-24,19.25L290.14,907Zm67.49,109.48,51.75-16.81,20.23,73.8-20.58-16.29Zm227.33,127.21,12.67,2.25-6.63,17.48-4.25,11.19-69.83-43Zm14.63,2.72,81.47,26.47,20.91,6.8-113.28-4.53Zm140,25.71,79.13-25.71,3,8,7.86,20.72-113.28,4.53ZM948.25,1184v-54.41l5.8.27,70.63,3.3-60.81,40.45Zm266.06-290.75V785.64l30.7-1.48-14.42,51.26Zm30.79-111.14-2,.1-28.63,1.38.84-6.07,10.48-75.11.87,3.58Zm-46.63-243.86V598.4l-7.84-21.11L1167.9,516l7,5.08Zm-160.75-182.6,6.14-8.46,1.59,1.18,72.25,70.42Zm4.52-9.63-6.14,8.46-10.63-7.09L951.33,298l89.35,47C1041.2,345.31,1041.73,345.68,1042.24,346.06Zm-563.87-1.19-14.47,9.65-6.15-8.46,1.57-1.13,89.34-47Zm-19.78,16.29-63.28,87.09L369.6,431.4,406,402.68ZM368.36,433,394,449.78l-56.89,59,.28-.68Zm-18.78,40.34-16.2,39.32-9.18,6.68-20,14.55,58.41-92.18Zm-50.05,72.86v57.45l-35,48.17,35-107.72ZM255,784.16l30.71,1.48V893.29l-7.54-26.78ZM276.07,905l9.8-3.19.21-.06,35.33,95.58-44.88-90.94C276.38,906,276.23,905.5,276.07,905Zm54.49,110,23.91-19.2L393,1068.13l-34.66-29.48Zm67.8,60.15,44.26,35,24.6,19.47-57.16-18.57-5.34-16.38Zm73.24,58,35,48.18L415,1114.78Zm40,51.69-23.08-31.77-12.24-16.85,73.13,48.64H511.62Zm179.6,50.93,57.78,2.31v10.37h-2.52l-99.3-14.43ZM751,1248.49v-10.37l57.85-2.32,44-1.75-99.31,14.43Zm338.93-137.4-57.14,18.56,68.85-54.51-1.94,6Zm17-43,38.56-72.33,23.91,19.2-30.27,25.75Zm107-166.34.74.24,9.27,3-.45,1.37-44.9,91Zm30.71-130.07-6.28-25.91-11.78-48.66,3.9-12,7.23-22.3,4.18,65.73Zm-9.17-119.92-27.26-37.51-7.73-10.65V544.09l7.93,24.39ZM806.63,258l-35.55,11.55L750,276.36,693.37,258H806.63Zm-124.41,1.26-1.36,1L653,280.43l-24,1.84-52.48,4,42-10.74ZM454.54,348.41l1.6-1.17,6.14,8.45-80,63.14,66.1-64.43ZM262.29,662.8l11.14,34.35L266,727.74l-10.65,44,2.75-43.19Zm-4.42,139,27.59,98.09-10,3.26c-.15-.45-.29-.91-.43-1.37l-7.28-42.42Zm258.49,385.1H520l32.46,0,32,19.67,33.39,20.55-101.38-40.21Zm729-435.29-1.74-27.42-2.43-38.28,4.17,31.07Zm-611.83-482-38.11,9.76,32.93-10.69,30.84-5.64ZM408.94,390.07l-2.31,2.25,3.31-3.47,3.75-3.41ZM254.65,751.59V717l4.17-31.07Zm559.86,490.05,3-.44-4.71.86-5,.55Zm424.85-399,8-59.4v0s0-.06,0-.08v-66.2a.66.66,0,0,0,0-.14l-8-59.4v-.06h0l-6.91-33.42a502.87,502.87,0,0,1,0,252.26Zm-30-286.67q2.58,6.13,5,12.31l-13.95-30.9h0a.08.08,0,0,0,0-.05h0l-28.46-52.75-.07-.11-38.91-53.55h0l-.06-.07s0,0,0,0l-41.37-43.37-.06-.05-23.62-21.49q18,14.92,34.71,31.63A496.74,496.74,0,0,1,1209.33,556ZM1018.45,329.83l-29.14-16.62-54-25.95h0l-.09,0h0l-62.94-20.45-.13,0-59-10.76h-.08l-31.63-3.49a496.66,496.66,0,0,1,237,77.36ZM556,290.67a494.15,494.15,0,0,1,162.56-38.2L686.94,256h-.07l-59,10.76-.13,0-62.95,20.45h0l-.08,0h0l-54,25.95-.06,0-29.05,16.56A498.92,498.92,0,0,1,556,290.67ZM290.67,556A496.9,496.9,0,0,1,397.51,397.51q16.69-16.69,34.7-31.63l-23.67,21.54-41.37,43.37s0,0,0,0l-.06.07h0l-38.9,53.55a.41.41,0,0,0-.07.11L299.65,537.3s0,0,0,0v0l-14,30.94Q288.08,562.11,290.67,556Zm-23.11,68-6.91,33.38v0a.07.07,0,0,0,0,0h0l-8,59.4v66.34a.22.22,0,0,0,0,.08s0,0,0,0l8,59.4a.2.2,0,0,0,0,.07l6.91,33.37a502.89,502.89,0,0,1,0-252.15ZM290.67,944q-2.6-6.13-5-12.33l14,31,28.46,52.75a.18.18,0,0,0,.05.07l0,0,38.9,53.55.09.1,41.37,43.37,0,0h0l23.61,21.5q-18-14.94-34.7-31.63A496.74,496.74,0,0,1,290.67,944Zm191,226.2,29,16.51h0l0,0h0l54,25.94.12,0,62.95,20.46h.13l59,10.76h.07l31.57,3.49a496.83,496.83,0,0,1-236.86-77.29ZM944,1209.33a494.08,494.08,0,0,1-162.59,38.2l31.67-3.5,59-10.76h.13l62.94-20.46.13,0,54-25.94,0,0h0l29.15-16.63A498.93,498.93,0,0,1,944,1209.33ZM1209.33,944a496.9,496.9,0,0,1-106.84,158.45q-16.77,16.79-34.88,31.77l23.79-21.64h0l.06,0,41.37-43.37a.39.39,0,0,0,.08-.1l38.91-53.55,0,0s0,0,.05-.07l28.46-52.75,0-.06,14-31Q1211.92,937.89,1209.33,944Z"/></svg>