<svg id="Abstract_Shape" data-name="Abstract Shape" xmlns="http://www.w3.org/2000/svg" viewBox="0 0 1500 1500"><path d="M750,250c-276.14,0-500,223.86-500,500s223.86,500,500,500,500-223.86,500-500S1026.14,250,750,250Zm486.69,409.08,6.57,49q1.68,20.24,1.73,40.74l-10.38-.09-10-.08L1207.86,624.5l19.71-5.22Q1233,639,1236.69,659.08Zm-364.5,366.13-71.84,8.62,16.53-23.1,64.84-8Zm1.68,1.87,65.69-27.22c-.72,19.42-.58,15.67-.74,19.8l-71.94,29.51Zm7.81-537.34-64.8-8.59-16.46-22.28,71.77,9.25ZM866.92,445,938.82,475l.74,19-65.69-27.81C871.09,457.74,872.17,461.06,866.92,445Zm214.25,301.45-9.09-.31c-1.3-10-7.67-59.29-9-69.41l8.19-5.17Zm-7.78-76.13,10.49-5.28,10.93,81.78-11.37-.3ZM1021.3,845.24,1008,852.06l19.9-16.68,5.07-2.74-2.4,3.7Zm4-.74c-.42.67-.14.32-3.07,3C1023,846.69,1022.41,847.28,1025.31,844.5Zm-21,35.84-28.14,23.93,9.9-14.89,24.54-21.62C1006.76,875.4,1008.07,872.78,1004.28,880.34Zm25.9-33.27-1,8-26.52,37,3.51-10.56Zm21.77-93-.9-10h2.78c.31,2.55.41.56-.7,9.87Zm.9,2.15c0,.23-.12,1-.15,1.25-.28-1-.23-.84-.33-1.19Zm-1.8-14.4.9-10,.43,0,1.19,9.94Zm.42-52.76,2.49-3.61,7.61,60.17-3.16-.23Zm0,35.44c-.42,1.5-.07.27-1.38,4.87l-53.21-6,4.36-14.38L1051,720Zm-56.85-1.34-52.09-5.81c2.16-6.84,1.16-3.7,6.27-19.91l50.25,11.1Zm1.81,2.46,53.27,6c-.1,1.06-.82,9.11-.92,10.24l-53.92,0Zm-114.9,18.66,3.05,29-51.47,6.09-3.8-34.92Zm-52.22-2.09,3.8-34.85,51.47,5.79L881.55,742Zm54.48,2.09,53.77-.11,2.27,22.67-53,6.16Zm53.77-2.35-53.77.11,3-28.66,53,5.92Zm4.49-22.38,52.15,5.82-1.59,16.48-52.8.08Zm-1.79-2.45-52.95-5.92,8.48-25.56,50.82,11.33Zm-43.44-33.54,13.07-21.48,47.37,15.87-9.77,16.9Zm14.68-23.31,16.78-16.41,42.84,19.31L958.62,676Zm19.09-17.83L950.14,632l37.38,21.37L973,661.52Zm22.83-11.09,21.15-3.57,31.06,21.67L990,652.21Zm-6-26.56,26.19,4.16L996,629l-20.7-3.51Zm24.66,21.14-21.7,3.66L915.44,608.7l27.37-4.57Zm-24.2,4.78L928,641.25l-40.79-19,25-12.92Zm-21.76,12.15-17,16.61L863.6,643.87l21.31-20.18Zm-18.38,18.5c-2.57,4.23-10.71,17.58-13.21,21.7l-49.12-11.1L862,645.67Zm-14.13,23.79-8.56,25.8-51.39-5.79L844.35,674Zm-62.23,19.75L779.64,699c3.18-8.87,6.39-17.86,13.18-36.86l49.34,11.38Zm-.47,2.21-3.83,35.11-52.66.18,4.68-41.2Zm-3.83,37.35,3.83,35.18L779.1,785.9l-4.68-41.29Zm4.3,37.38c1.19,3.48,9.63,28.2,10.78,31.58l-49.34,11.77-13.18-37.07Zm2.27-.28,51.4-6.08c3.62,11,2,5.92,8.57,26l-49.27,11.45C843.18,809.44,835.14,785.88,833.65,781.53Zm60.87,22,13.23,22-45.79,16L845.4,814.93Zm14.61,23.85,17,16.95-41.23,19.55-21.35-20.56ZM928,845.89l19.9,11-35.72,21.78-25-13.37ZM950.38,858,972.17,862l-29.36,22.34-27.48-5Zm24.93,4.5,20.88-3.17-22.58,20.81-26.41,3.75Zm-.72-2.26-21.26-4L990,834.89l15.76,3.12Zm-24.45-4.71-19.58-10.78L973,825.25l14.57,8.46Zm-21.83-12.21-16.82-16.75,47.13-16.08,12.54,13.16Zm-18.39-18.58L896.82,803l50.68-11.55,9.79,17.11Zm-14.11-23.8c-2.9-8.79-1.78-5.38-8.49-25.73l53-6.14,6.35,20.29Zm44-56.75,52.8-.08,1.59,16.53-52.15,6C941,756.05,941.58,761.65,939.83,744.16Zm10-48.81,9.65-16.69,47.25,15.59-6.78,12.18ZM961,676.81l12.33-12.7,43.29,19-8.6,9.18Zm14.58-14.16,14.23-8,38.45,21.16-9.81,5.68Zm55,14.44,13,6.93,3.66,9.91L1021,682.62Zm3.36-.75,6.39-1.14,2.09,5.66Zm-3.19-1.7-37.62-20.71,15.16-2.7,30.65,20.21.6,1.63ZM979.6,628.51l19.56,3.32,24.1,19.71L1009,649Zm1.58-15.81L1001.43,623l14.82,15.38-16-8.5Zm-6.4-5.76-18.11-18.05,27.81,13.57,13.35,16.17Zm-3.91-.73-27.31-4.33-26.26-21L950.58,586Zm-30.44-4-27.95,4.67-33.62-21.09L913,580.35ZM910,608l-25.31,13.1-40-19.24,31-15.39Zm-27.24,14.66c-7.85,7.43-13.34,12.61-21.54,20.38L816,627.17l26.35-24Zm-23,22.26L843.1,671.4l-49.18-11.33L814.33,629ZM791.6,659.53l-47.22-11.17,24.27-36,43.51,15.79Zm-1,2.07-13.27,37.11-49.75-5.78,15.65-42.53Zm-13.76,39.31-4.71,41.47-50.66.23,5.55-47.49Zm-4.71,43.71,4.71,41.55-49.82,6.25c-2.59-22.2-1-9-5.55-47.57Zm5.2,43.75,13.27,37.32-47.38,11.67L727.6,794.6Zm14.24,39.39,20.57,31.68-43.52,16.29L744.37,839.4Zm2.31-.55,49.19-11.74,16.7,26.78-45.47,16.4Zm67.29,16.91,21.57,20.77-40.4,19.92L816,860.43Zm23.48,22.33L910,880l-34.35,22.07-31-15.88Zm27.8,14.64,28,5.15L913,908.75l-34.26-6Zm31.08,5.55,27.45-3.9-20.43,20.94-33.46,4.61Zm31.22-4.55,23.33-11.44-13.63,17.08-28.22,13.34Zm5.76-5.32,19.75-18.2,16.46-8.47-15.33,16.43Zm18.62-20.19-19.83,3,29.61-21.11,14.54-2.3Zm14.18-21.06,26.43-17.77-2.88,7.89-10.05,7.74Zm-5.07.7-15.27-3,37.72-21.11,10.36,2.07Zm25.53-25.8,10.77-5.82-2.71,7.43Zm-3.24-.8-9.61-5.76,27.64-12.07-.32,2.67c-1,2.71-.45,1.22-2.54,7Zm-2.26,1.26-38.49,21.54-14.3-8.3L1018.43,805Zm-55,11.76-12.36-13,47-15.75,8.63,9.39Zm-13.87-14.83-9.66-16.9,50.12-11.26,6.8,12.34Zm-10.63-19-6.27-20.05,52.09-6,4.43,14.72Zm46.06-44.75,53.92,0,.92,10.26-53.27,6.05Zm7.32-37.15,6.67-12,40.68,13.3,1.12,9.35Zm8.16-13.84,8.43-9,29.39,12.68,1.08,9Zm38.39-2.25-15.81-42.07-.35-2.66,16.55,42.75C1048.82,690.51,1048.9,690.1,1048.75,690.84Zm-14.26-30.63c.83,1.25.26-.05,3.12,7.69l-23.95-15.79,13.18,2.34Zm-25.33-23.1,12.13,6.47,6.13,6,2.78,4.19C1027.17,652,1030.39,654.48,1009.16,637.11Zm-6.24-15.82-7.4-9,17.78,15.93,4.69,7.07Zm1.36-10.24,6,11.5L986,600.81l-9.38-13.63Zm-1.36-10.64,26.28,37c.24,1.79,0,.38.93,7.13l-23.94-34.75Zm-21.07-1.73L951.8,584l-16.94-19L970,581.52ZM948.2,583.36l-34.38-5.25-24.53-21.24,40.53,5.87Zm-37.42-4.92L876,584l-31.75-21.1,41.08-6.52Zm-37.27,6.61-31.34,15.58-38-19.12,37-18Zm-33.3,17.1-26.59,24.17-43.26-15.7,31.4-27.78ZM768,609.75l-42.44-16,36.88-31.64,37.22,19.64Zm-1.48,1.83-24.43,36.23-46.75-11.43,28.47-40.92Zm-25.43,38.29c-7.74,21-4.77,13-15.74,42.79l-49.52-5.91c5.81-15.31,13.34-35.13,18.35-48.34Zm-16.24,45-5.58,47.77-50.52.26,6.5-53.94Zm-5.58,50c1.7,14.59,1.16,9.89,5.58,47.84l-49.6,6.46-6.5-54Zm6.08,50,15.75,43-46.92,12-18.36-48.58ZM742.06,840l24.44,36.58-42.72,16.69L695.29,852ZM768,878.38l31.69,28.48L762.41,927.1,725.49,895Zm2.36-.89,43.29-16.19,26.62,24.6-38.48,19.84Zm71.84,9.93,31.38,16.07-32.4,22.08-37.08-18.5ZM876,904.53l34.85,6.12-25.53,22.68-41.17-7.1ZM913.82,911l34.5-4.75-18.5,21.36-40.68,5.32Zm38-5.36L982,891.37l-12,18-35.44,16.13ZM994,879.35l8.9-11.14,16.76-15.34-6.38,9.5ZM1032.94,843l15.75-41.68.46,2.6-16.67,42.85Zm16-53.77-30.11,13.14-8.46-9.2L1050,780.06Zm-40,2.06-6.68-12.13,49.23-11-1.13,9.42Zm-7.61-14.22-4.36-14.49,53.21-6,1.9,6.74-.31,2.57Zm57.13-29.42,3.2.23c-.85,6.76-6.85,54.09-7.6,60l-2.52-4.12Zm-2.5-64.78,5.17-4.49,8.75,67.67-6-.27C1063,739.33,1056.8,690,1055.89,682.85Zm-.73-2.34-22.24-55.92,3.16-9,24.48,60.25Zm-1.72,1.74-2.85,4.13c-5.41-14-13.36-34.49-19.17-49.5.22-1.83.69-5.89.9-7.72Zm-21.75-30.41c-18.41-27.67-16.41-24.6-17-25.7l16.14,23.42ZM1029.5,634l-29.16-41.09-2.21-12.43,32.43,44.44Zm-31.18-40,4.43,12.75-31.08-26.85c-2.75-5-1-1.86-8.49-15.37Zm-30.18-15.86-37-17.36c-1.5-1.92-12.53-16.1-15.15-19.48l42.52,19.37Zm-40.34-18-41.62-6-22.66-21.48,48.15,6.77Zm-44.56-5.71-41.73,6.62-30.15-21.37,48.47-7.45ZM839,562.08l-37.43,18.16L764.77,560.8l43.57-20.48Zm-76.73-2.6-34.64-19.35L777.78,517,806.3,538.8Zm-2,1.46-37.16,31.88L683,576.94l42.33-35.55Zm-38.68,33.69L693,635.81,648.6,624.53l32.64-45.88ZM692,637.86l-18.45,48.61-47.1-5.81,21-54.12Zm-19,50.81-6.54,54.23-48.09.3,7.45-60.35Zm-6.54,56.47L673,799.46l-47.19,6.42-7.44-60.44Zm7,56.51L692,850.5l-44.55,11.94-21-54.37ZM693,852.55c2.79,4,25.5,37,28.67,41.55l-40.41,16.61-32.66-46.26Zm30.17,43.36,37.19,32.36-35,20.2L683,912.42Zm39.16,33.82,44,21.24-28.58,22.45-50.15-23.68Zm2.41-1.33,36.89-20L839.08,927l-30.75,22.4Zm76.79-.35,41.8,7.21c-19.6,19.09-15.58,15.17-23.48,22.88l-48.56-8.06Zm44.67,7.54,41.7-5.46L911.66,951.6l-48.27,6.2Zm44.93-6,37.13-16.9L958.48,931l-42.71,18.91C916.76,948.57,915.66,950,931.11,929.57ZM971.68,911c8.34-7.1,6.15-5.24,31.17-26.5-2.37,7.13-1.38,4.14-4.53,13.63l-35.38,29.23Zm28.66-11.77,29.14-40.7,1.08,9.85-32.49,44.16Zm12.82-31.61c2.53-5.07.11-1.19,14.37-22.4,2.18-3.23,1-1.5,4.84-7.2l-1.53,4.17Zm37.37-61.1,2.92,4.77c-12.48,31.24-20.34,50.9-21.1,52.82,0-.2-.9-8.22-.93-8.46Zm4.59,6.63,5.46,5.31-24.46,60-3.21-9.69C1035.46,862.37,1052.54,819.61,1055.12,813.15Zm.76-2.38,7.95-62.77,6,.28-8.74,67.54Zm6.56-136.28-25.19-62,5.82-10.16,27.71,66.88Zm-26.55-64.11-38.78-52,2.08-14.62,42.7,56.16Zm-1.14,2.23-3.38,9.63-34.08-46.71-.18-13.44Zm-37.11-22.1-37.43-31.38-7.08-16.88,42,34.26Zm-46.3-52.61c-2.75-9.51-1.92-6.67-5-17.43l48.52,38.72.2,14.33Zm5.81,19.71L913,537.52l-13.41-20.16,49.88,22ZM910,537,860.75,530,840,508.28l55.87,7.55C899.36,521,907.06,532.58,910,537Zm-52.05-6.65-49.16,7.55-28-21.4,55.93-8.51Zm-79.66-15.75-26.16-21.72,63.72-9.43,19.07,22.54Zm-2.41.91-50.57,23.31-33-19.71,57-25.66Zm-52.56,24.73L680.64,576l-38.86-16.23,48.15-39.47Zm-44.17,37.59-32.83,46.15-43.36-11.56L640,561.45ZM645.24,626l-21.12,54.41-46.28-6c2.7-6.79,21.55-54.18,23.88-60.06Zm-21.65,56.6-7.48,60.65-47.33.35,8.46-67Zm-7.48,62.89c.31,2.54,5.22,42.35,7.49,60.73l-46.36,6.66-8.46-67Zm8,62.92L645.25,863l-43.53,12.3L577.83,815Zm22.16,56.7,32.85,46.53-39.12,17L602.9,877.34Zm34.36,48.31,42.67,36.3-33.39,20.63-48.17-40Zm44.64,37.72L775.88,975l-26.62,22.8-57.07-26.25Zm53,24.81,56.68,9.25-19.13,23.3L752,998.39Zm2.37-1.88,28.13-22.11L858,960.1l-21.35,23.08Zm80.13-13.65L910,954.07,895.9,976l-56,6.92ZM913,953.54,957.21,934l-7.71,19-50,21.53Zm38.32,1L995,919.38l-.21,15.1-48.57,38.28Zm1.67-4.22,7.2-17.76,37.45-30.95c-.27,1.6-2.3,13.5-2.53,14.84Zm44.27-32.89,34-46.28,3.42,10.35L997.1,931.61C997.14,929,997.25,920.91,997.29,917.39Zm38.56-33.66,6.05,11.2-42.69,55.78c-.36-2.61,0,.08-2.1-15.38Zm1.4-2.14,25.16-61.67,8.39,5.92-27.7,66.6Zm25.85-63.93,9-69.29,9.11.3-9.87,74.79Zm20.33-68.92,11.39.3c-1.27,9.48-9.67,72.27-10.93,81.68l-10.5-5.89ZM1086,664l13.37-5.68,12,88.83-14.31-.3C1095.81,737.37,1087,671.44,1086,664Zm-.63-2.17-31.15-74.17,10.77-11,33.82,79.51Zm-2,.94-10.6,5.34L1044.52,600l8.09-10.36ZM1043.25,598l-43.56-57.28,4.34-14.86c4.71,6.12,42.15,54.71,47.46,61.59Zm-45.4-59-56-43.8-.72-18.58,61.15,47.18Zm-.59,2.38c0,.09-2.14,15.06-2.16,15.15l-49.81-39.76-3-18.36Zm-48.64-4.85-51.26-22.64-11.29-20.46,57.25,24.76C947.12,531.37,946.36,528.73,948.62,536.55Zm-54.11-23.18-56.9-7.68-18.62-22,63.81,8.46Zm-80.26-32-64.45,9.55L726,469.12l71.49-10.49Zm-66.82,10.41-57.51,25.88L659.4,498l63.86-28.31ZM687.92,519l-48.46,39.74-36.21-16.12,53.87-43.46Zm-50,41.5L600.6,611.74,560,600.31l41.47-56Zm-38.36,53.24-24,60.36-43.41-5.85,26.68-66ZM575,676.32l-8.5,67.27-44.45.38c.94-7.3,8.52-66.22,9.45-73.51ZM519.81,744l-43,.44,10.49-80.29,42,6Zm-45.29.46-39.68.47c1.13-8.54,10.06-76.07,11.51-87l38.72,5.94Zm0,2.24c3.6,27.58,6,45.7,10.54,80.73l-38.73,6.87c-1.33-10.09-10-76.06-11.51-87.13Zm2.25,0,43-.44,9.5,73.94-42,6.88Zm45.29-.46,44.45-.38,8.5,67.35-43.5,6.64Zm53.49,69.16,24,60.61-40.75,12.25L532.12,822ZM600.61,878l37.32,51.6-36.45,17L560,890.21Zm38.85,53.36L688,971.6l-30.84,20.61-53.89-44ZM689.93,973l57.53,26.46-24.21,22.88-63.91-28.91Zm59.88,27.33,64.48,10.19L797.45,1034l-71.54-11.14Zm69.09,7.92c14.62-17.81,11.11-13.53,18.72-22.79l56.94-7.05-11.76,22Zm78.47-30.34,51.29-22.08-5.34,19.13L886,999.17Zm47.92-1.52,49.8-39.25c1.54,11.26.91,6.65,2.17,15.92l-55,42.5Zm52.54-20.94,4.45,15.93-61.16,46.72.73-19.36Zm1.86-1.66,43.53-56.87c5.74,7.78,3.94,5.35,8.28,11.24l-47.45,61.2Zm44.82-58.89L1072.73,827l10.63,6-30.72,72.9ZM1085.36,834l13.47,6.35L1065,919.65l-10.8-11.73Zm.64-2.18c.55-4.1,10.53-78.71,11.07-82.74l14.33.3c-1.26,9.33-10.54,77.82-12,88.75Zm15.52-174.38,15.15-5.64,13,95.68-16-.29Zm-.62-2.16-34.18-80.36,12.69-11,36.68,85.7ZM1065.53,573l-52.83-67.7,8.84-15.65,56.76,72.28Zm-1.64,1.54L1053,585.72l-48.15-62.48,6.77-15.65Zm-60.78-52.91-62-47.87,1.17-14.59.38-4.72L1010,505.77Zm-60.29-6.09-58.46-25.29-9.24-21,64.62,27.35Zm-3.9-42.89-10.66-4.46-62.19-26-4.72-21.8,79.15,32.65Zm-67.57-6.91-72.72-9.37-14.19-22.55L864.25,444Zm-75.25-9.18-72.22,10.6L702.22,445l79.45-11.41ZM721.54,468l-64.37,28.54-28.52-20,71-30.9Zm-66.36,29.88L601,541.61l-34.39-16.5,59.84-47.46Zm-55.76,45.48-41.7,56.29-39-11.73,46.07-61.16Zm-42.77,58.31L529.85,668l-42-6,29.64-72.07Zm-71,60L447,655.7l32.51-78.16,35.91,11.67Zm-40.93-6.28-36.49-6.07,35.48-84.43,33.67,12C475.37,581.58,446.17,651.8,444.69,655.34Zm-.56,2.18c-1.34,10.21-10.42,78.86-11.56,87.43l-37.56.52,12.56-94Zm-11.55,89.67c1.31,10,10.36,78.41,11.56,87.51l-36.57,7.11c-1.41-10.54-11.26-84.33-12.56-94.1Zm12.12,89.68,32.66,78.75-33.69,13L408.18,844Zm2.26-.41,38.66-6.86,29.78,72.65-35.93,12.6Zm40.93-7.24,42-6.87,26.81,66.55-39.13,12.63Zm69.84,61.69,41.71,56.68L564.81,965,518.73,903.5ZM601,949.32l54.23,44.24-28.8,21.06c-5.26-4.2-53.19-42.59-59.87-47.94Zm56.2,45.57,64.4,29.13-22,23.25-71-31.47Zm66.7,29.95,72.25,11.25-14.47,23.76-79.5-12Zm74.75,11.45,72.74-8.72-7.13,22.52-79.85,9.59C796.52,1039.77,793.92,1044,798.63,1036.29Zm67.44,15.64L938.92,1022l1.58,20.39-79.17,32.13Zm73.67-54.57-64.67,26.8,9.29-21.87,58.47-24.71Q941.27,987.54,939.74,997.36Zm63.35-23.79c6,14.38,4.57,11,6.89,16.6L942.64,1041l-1.56-20.09Zm1.76-1.61L1053,909.89l10.92,11.85-52.25,66.6Zm60.66-48.64L1078.32,935l-56.75,72-8.88-16.33Zm1.21-1.93,34.17-80.12,15.22,6.26L1079.43,933Zm34.8-82.28,12.13-89.66,16,.29-13,95.6Zm17.3-188.06,17.78-6,14.05,102.73-18.7-.28Zm-.61-2.16-37-86.44,15.21-11.56,39.6,92ZM1080,560.53l-57.26-72.92c.51-.73,10.74-15.57,11.24-16.31l61.28,77.63Zm-58.9-74.48-73.9-56,6.1-20,79.09,59.6C1021.56,485.43,1023.68,482.35,1021.14,486.05Zm-1.2,1.91L1011,503.74l-68.1-51.88,3.78-19.38Zm-79.1-37.19-80-33-2.36-22,86.17,35.39Zm-77.18-9.07L783,431.38l-11.83-22.85,87.76,11Zm-83.15-10.17L700.32,443l-19.09-22.22,87.28-12.44ZM698,443.82,626.54,475l-25.72-20,77.91-33.59Zm-73.47,32.44L564.35,524,533,507.61l65.67-51.53Zm-61.77,49.47-46.32,61.48-35.78-11.63,50.54-66.35Zm-84.35,49.1-33.56-11.94L500,491.23l29.21,16.9C522.88,516.48,483.55,568.12,478.44,574.83Zm-35.76-12.76-30-11.84c8.59-11.11,53.12-68.62,59.6-77l25.81,16.81Zm-1.1,2-35.65,84.83-32.74-6,38.34-90.71Zm-36.22,87L392.75,745.5l-33.76.55,13.58-101Zm-12.61,96.69c1.47,11,11.12,83.31,12.62,94.52l-32.81,7.11L359,748.29Zm13.19,96.69,35.65,85-30.07,12.95-38.35-90.89Zm36.76,87,55.45,72.34-25.84,17.86-59.62-77.27Zm2.15-.87,33.61-12.95,50.81,67L500,1002.54Zm35.81-13.75,35.82-12.56,46.33,61.85-31.59,17.41Zm83.7,51L624.59,1016l-26,21.07-65.69-52Zm62.19,49.54,71.52,31.7-19.35,23.34-78-34.12Zm73.78,32.47L780.54,1062l-12,24-87.33-13Zm82.63,12.3,80.72-9.69-4.81,22.95-87.79,10.46Zm77.89,15.06,80-32.46c4.5,23.87,3.65,19.35,3.84,20.35L858.48,1100Zm82.06-33.53L1011,992.22l9,16.49-73.24,55.07Zm78.21-33,11.33,17.09L953.35,1087c-1.45-4.93-4.92-16.73-6.12-20.78Zm1.65-1.55L1080,936.49l15.3,12.23L1034,1026.08Zm58.44-74.51,37-86.23L1136,854.9l-39.59,91.85Zm37.61-88.39,13.13-96.4,18.71.28-14.05,102.67Zm20-201.79,19-5.85,15,109.57-19.8-.26C1146.1,698,1149.49,722.83,1138.77,644.39Zm-.61-2.16-39.88-92.69,16.66-11.39,42.22,98.22Zm-41-94.61-61.72-78.2,13-16.17,65.4,83Zm-63.35-79.75-79.67-60,8.19-20,84.53,63.82Zm-81.65-61.13-93.75-38.3,2.36-22.61,99.61,40.84Zm-.76,2.11L945.23,429,858.3,393.3c0-8.79,0-14.4,0-22.47Zm-92.82,8.42-88.61-11.14L760.54,383l95.62,12.06C856.62,399.4,858.12,413.36,858.54,417.27Zm-97.33-36.45-1.56-.2-6.89-23.43,103.29,13v22.63Zm6.35,25.43-6.28.9-81.73,11.64-16.64-22.6,95.16-13.32ZM677.3,419.53l-78.46,33.82-23.31-20.44,85-36.2C662.36,399.23,675.47,417,677.3,419.53Zm-80.42,35.08-66.07,51.84-29.06-16.82L573.41,434ZM499.7,488.4,474,471.66l77.43-59.74c16.83,17,11.72,11.84,20.34,20.54Zm-27.64-18.07-22.84-17.15,83.22-63.89,17.48,21ZM470.49,472l-59.91,77.39-27.1-12.16,64.1-82.43Zm-61,79.34-38.52,91.15-29.88-6.15,41.24-97.18Zm-39.1,93.32L356.73,746.09l-30.9.59,14.61-108.23ZM356.73,748.33l13.64,101.54-29.94,7.35L325.82,748.93ZM371,852l38.53,91.33-27.19,13.35L341,859.38Zm39.64,93.28L470.51,1023l-22.95,18.33-64.12-82.67Zm61.49,79.27L549.94,1085l-17.52,22-83.24-64.18Zm1.88-1.37,25.75-17.8,72.08,56.34-20.38,21.56Zm27.76-19.07,29.11-17.81,66.08,52.28-23.52,21.55Zm97.13,35.73,78.48,34.35L660.5,1098l-85-36.68ZM679.56,1075l88,13.12-9.52,24.27-95.2-13.85Zm80.09,39.65L856.06,1103v23.47L752.75,1139C757.33,1122.81,755.67,1128.66,759.65,1114.61Zm.86-2.36,9.43-24,88.61-10.55c-2.17,20.86-1.61,15.5-2.4,23Zm97.79-9.78,86.91-35.21c5.4,18.32,3.52,11.93,6.16,20.91l-93.08,37.61C858.29,1113.6,858.3,1107.83,858.3,1102.47Zm93.81-12.18c3.36,8.48,1.73,4.36,8.24,20.82l-99.61,40.51-2.37-23.45Zm2-1.08,79.66-59.67,13.08,16.88L962.3,1110Zm81.3-61.22,61.71-77.91,16.73,12-65.41,82.73Zm62.88-79.83c4.35-10.08,35-81.11,39.88-92.51l19,6.4L1115,960.13Zm40.49-94.67,14.15-103.4,19.82.26c-11,80.59-9.84,72-15,109.53Zm21.16-215.61,21.28-6.13c1.54,11.3,13.64,100,15.91,116.64l-22.12-.25Zm-.6-2.15c-4.5-10.47-35.85-83.4-42.48-98.84L1135.76,525l44.85,104.58ZM1115.69,535l-65.81-83.47,15.25-16.76,69.5,88.34Zm-67.42-85-85-64.21,10.46-20.57,89.85,68Zm-87-65.31L861.06,343.54l4.77-23.08L971.75,364ZM858.89,343,747.55,328.82l-1.65-24.05,117.76,15.1C861,332.89,861.58,329.94,858.89,343Zm-.35,2.21-2.37,22.71-104-13.06-4.29-23.73ZM756.16,376.69l1.18,4-21.55,3-74.32,10.4c-7.14-11.7-4.21-6.91-13.87-22.73l102.8-14.29Zm-96.9,18.12-85.55,36.44-20.23-20.44,91.82-38.88ZM551.85,409.07l-17.41-20.88,98.62-41.48L644.24,370Zm74.36-88.32,117.44-16c.92,13.39.51,7.39,1.65,24.08L634.36,344Zm6,23.89L533,386.35,519,365.47,624,321.32C626.26,327.67,624.54,322.76,632.2,344.64ZM531.09,387.5l-83.67,64.24-19.13-17.07L517,366.58Zm-85.25,65.83-64.43,82.86-23.1-12.05,68.37-87.9Zm-65.56,84.8L338.83,635.8l-25.68-6.07,44-103.67Zm-42,99.84L323.56,746.73l-26.6.62,15.59-115.46ZM323.57,749l14.68,108.82-25.71,7.31L297,749.6Zm15.27,111,41.46,97.81L357.14,971l-44-103.78Zm42.59,99.74,64.43,83.08L426.66,1061,358.28,973Zm66,84.66,83.67,64.52L517,1130.92l-88.74-68.3ZM533,1110l99.17,42L624,1176.42,518.93,1132C520.48,1129.61,531.54,1112.37,533,1110Zm101.33,42.66,110.94,15.55c-.59,8.83-1.1,16.47-1.66,25L626.19,1177ZM633,1150l-98.63-41.81,17.46-22,92.39,39.53Zm-79.6-65.55L573.73,1063l85.55,36.91-14,23.85Zm108,16.14,95.87,14c-.84,3-6.11,21.53-7,24.51l-102.83-14.75Zm90.69,40.72,104-12.58,2.38,23.54L747.86,1166C750.92,1148.45,750,1153.9,752.17,1141.28Zm106.71,13.18,4.79,24-117.78,14.83,1.66-25Zm2.17-.55,100.21-40.75c2.33,4.74,8.16,16.58,10.5,21.35l-105.93,43.33Zm102.17-41.84,85-63.92c8.35,9.53,5.32,6.06,15.3,17.43l-89.85,67.8Zm86.65-65.48,65.8-83.24,19,12.46L1065.15,1064Zm67-85.16,42.48-98.69,21.31,6.67-44.85,104.47Zm43.09-100.84L1175,750.38l22.12.25-15.9,116.61Zm23.46-229.46,6.58-1.78,15.72-4.27,16.7,123.55-23-.21C1198.05,738.74,1183.93,635.14,1183.38,631.13Zm-.6-2.16c-2.38-5.56-43.44-101.29-45.08-105.13L1158,512.1l47.11,110.82Zm-46.22-107.06L1066.7,433.1l17.08-16.66,73.06,93.73Zm-71.46-90.38-90.31-68.35,12.84-20.59,94.56,72.28Zm-92.25-69.47L866.39,318.27c6.39-19.39,5.84-17.7,7.67-23.26l111.62,46.47ZM864.23,317.68,745.88,302.51l1.74-24.37,124.27,16.3ZM749.9,354.91l-70.21,9.76-33.28,4.63-11.13-23.13,110.3-15.1Zm-6.27-52.41-118,16.07-4.34-23.68,124.1-16.72ZM623.44,319.14,517.83,363.51l-9.91-21.28,111.19-46.72C620.55,303.37,622,311.2,623.44,319.14ZM515.88,364.62,426.7,433.06,412,415.67l94-72.28Zm-90.79,70L356.36,523,338,510.75l72.48-93.47Zm-69.88,90.3L311,629.16,290.16,623l46.68-110.32ZM310.37,631.32,294.7,747.41l-21.65.67,16.53-122.91ZM294.7,749.66l15.67,116.12-20.8,7.47C288.65,866.44,274,757.12,273,750.32ZM311,867.94l44.24,104.32L336.82,985.8c-14.16-33.46-32.3-76.38-46.68-110.37Zm45.4,106.25,68.72,88.51-14.7,18.62-72.48-93.55Zm70.33,90.08,89.17,68.63L506,1155.33l-94-72.39ZM517.85,1134l105.59,44.6L619.16,1203h0l0,.13h0c0,.06,0,.12,0,.21L507.9,1156.5Zm107.77,45.17,118,16.34,1.74,25.32L621.26,1204Zm9.64-28.65,11.16-24.16,103.49,14.85c-.71,4-3.79,21.66-4.34,24.78Zm229,30.09c1,3.13,6.81,21.37,7.68,24.08l-124.28,16.17c-2.13-31-1.58-23-1.74-25.35Zm2.16-.58,106.46-43.55,10,16.59,2.84,4.71-111.63,46.35Zm118.3-28.27-9.9-16.39,90.31-68.14,17.11,17.26-94.56,72.18Zm82-86.1L1136.54,977l20.31,12.25-73.06,93.65Zm71-90.58,45.09-105,22.32,6.51L1158,987.34Zm45.69-107.19,2.34-17.19,13.65-100.05,23,.22-16.7,123.53Zm17.22-323.08,11.16,26.49q8.76,22.59,15.22,45.81l-19.71,5.21L1159.94,511l18-10.07A493.48,493.48,0,0,1,1200.6,544.82ZM1176.76,499l-18,10.07-73.39-94.17,15.27-14.23A494.68,494.68,0,0,1,1176.76,499Zm-77.67-99.92-15.27,14.24-95-72.6L1000.67,323A495,495,0,0,1,1099.09,399.06ZM928.72,288.25l26.44,11.14q22.41,10.2,43.57,22.51l-11.82,17.66L874.8,292.89l7.58-20Q905.87,279.39,928.72,288.25ZM750.49,255q20.85,0,41.42,1.74l49,6.56q19.83,3.69,39.3,9l-7.57,20-124.8-16.37Zm-91.4,8.3,49-6.56Q728,255.09,748.23,255l-1.2,9.48-1.45,11.39-124.64,16.8-2.35-20.06Q638.63,267.1,659.09,263.3ZM544.85,299.38l26.41-11.12q22.26-8.64,45.14-15l2.35,20-111.7,46.94-6.78-17.68A493.14,493.14,0,0,1,544.85,299.38Zm-46.54,24.25,6.76,17.64-94.44,72.65-10.42-14.17A495.16,495.16,0,0,1,498.31,323.63Zm-99.69,77.73L409,415.48l-72.87,94-13.23-9.89A494.71,494.71,0,0,1,398.62,401.36ZM288.26,571.25l11.12-26.38q10.14-22.3,22.38-43.36l13.2,9.87c-5.68,13.44-45.46,107.46-46.95,111l-15.07-4.94Q279.43,594,288.26,571.25ZM256.74,708.08l6.56-49q3.7-20,9.05-39.54l15.06,4.94c-.93,6.89-15.66,116.41-16.63,123.65L255,748.7Q255.06,728.26,256.74,708.08ZM263.3,840.9l-6.56-49Q255,771.58,255,751l15.77-.55,16.64,123.66-15.16,6.06Q267,860.7,263.3,840.9Zm36.08,114.25-11.12-26.41q-8.88-22.9-15.4-46.45L288,876.22l46.94,111-13.35,11Q309.48,977.32,299.38,955.15Zm23.39,45.07,4.47-3.7,8.92-7.37,72.86,94-10.53,15.34A494.61,494.61,0,0,1,322.77,1000.22Zm77.32,99.91,10.57-15.39,94.42,72.74-6.85,18.84A495.09,495.09,0,0,1,400.09,1100.13Zm171.19,111.62-26.45-11.14a495.69,495.69,0,0,1-44.64-23.14c1-2.76,5.88-16.15,6.88-18.89l111.68,47.05-2.37,21.15Q593.54,1220.38,571.28,1211.75Zm136.81,31.51-49-6.56q-20.46-3.79-40.53-9.32c1.35-12,1-9.08,2.38-21.19l124.64,16.94c1.36,11.07,1.31,10.7,2.68,21.86Q728,1244.92,708.09,1243.26Zm132.82-6.56-49,6.56q-20.55,1.71-41.39,1.74c-1-8.38-1.67-13.63-2.69-21.9l124.8-16.24,7.64,20.84Q860.79,1233,840.91,1236.7Zm114.27-36.1-26.47,11.15q-22.82,8.85-46.28,15.35l-7.64-20.84,112.11-46.54,11.9,18.34Q977.62,1190.38,955.18,1200.6Zm45.55-23.67-11.9-18.35,95-72.49,15.34,14.78A494.76,494.76,0,0,1,1000.73,1176.93Zm100-77.64-15.34-14.78,73.39-94.08,18,10.52A495.06,495.06,0,0,1,1100.74,1099.29Zm111-170.6-11.16,26.49A493.07,493.07,0,0,1,1177.93,999l-18-10.51c2.59-6.1,44.55-104.76,47.34-111.3l19.73,5.6Q1220.54,906.05,1211.76,928.69Zm24.93-87.77Q1233,861,1227.6,880.64l-19.74-5.6,16.78-124.14,20.35.18q0,20.55-1.73,40.83Z"/></svg>