<svg id="Abstract_Shape" data-name="Abstract Shape" xmlns="http://www.w3.org/2000/svg" viewBox="0 0 1500 1500"><path d="M1056.78,896.14a33.91,33.91,0,0,0-16-2.68,47.25,47.25,0,0,0-15.81,4.31,83.16,83.16,0,0,0-15.6,9.54,142.21,142.21,0,0,0-15.47,14c-5,5.15-10.16,10.83-15.11,16.31l-.25.28c-4.44,4.93-8.95,10.24-13.32,15.38l-2,2.37c-4.89,5.74-10.09,11.8-15.26,17.3s-10.45,11.65-15.36,17.42l-2,2.35c-4.35,5.13-8.85,10.43-13.28,15.33l-.24.27c-4.93,5.47-10,11.12-15,16.24a139.08,139.08,0,0,1-15.15,13.71,80.26,80.26,0,0,1-15,9.21,44.4,44.4,0,0,1-14.81,4,31,31,0,0,1-14.6-2.45,47.75,47.75,0,0,1-14.84-10.48,115.15,115.15,0,0,1-15.1-19.56,275.82,275.82,0,0,1-15.23-27.91c-4.9-10.18-10-21.86-15.27-34.7-4.87-11.95-10-25.39-15.29-39.94-4.57-12.6-9.57-27.14-15.3-44.44-5-15.17-10.12-31-15-46.38l-.25-.78c-4.44-13.8-9-28.13-13.31-42l-2-6.34c-4.9-15.55-10.11-32.06-15.31-48s-10.42-32.43-15.31-48l-2-6.37c-4.36-13.85-8.87-28.18-13.3-42l-.24-.75c-4.94-15.36-10-31.24-15.08-46.43-5.73-17.34-10.74-31.9-15.32-44.52-5.29-14.59-10.45-28.07-15.33-40-5.26-12.9-10.42-24.64-15.35-34.88a280.73,280.73,0,0,0-15.39-28.21,118,118,0,0,0-15.52-20.07,1.5,1.5,0,1,0-2.12,2.12A114.63,114.63,0,0,1,595.63,439a275.82,275.82,0,0,1,15.23,27.91c4.9,10.19,10,21.87,15.27,34.71,4.87,12,10,25.39,15.29,39.94C646,554.17,651,568.71,656.72,586c5,15.18,10.12,31.06,15.06,46.41l.24.75c4.44,13.78,8.94,28.1,13.3,42l2,6.38c4.89,15.54,10.11,32,15.31,48s10.41,32.42,15.31,48l2,6.34c4.36,13.87,8.87,28.2,13.31,42l.25.78c4.94,15.35,10,31.22,15.07,46.4,5.73,17.33,10.74,31.9,15.32,44.52,5.29,14.59,10.45,28.06,15.33,40,5.26,12.9,10.42,24.63,15.35,34.87A281,281,0,0,0,810,1020.65a118,118,0,0,0,15.52,20.07,50.9,50.9,0,0,0,15.78,11.13,34.17,34.17,0,0,0,13.39,2.77c.87,0,1.75,0,2.63-.1a47.53,47.53,0,0,0,15.81-4.3c.67-.31,1.35-.63,2-1l-.5.45c-.92.36-1.84.74-2.77,1.16a84.1,84.1,0,0,0-15.6,9.55c-1.55,1.17-3.15,2.48-4.81,3.9a92.65,92.65,0,0,0-10.31,4.89,107.73,107.73,0,0,0-10.56,6.67c-1.46.43-3,.9-4.51,1.42a112.92,112.92,0,0,0-13.16,5.43c-.62.06-1.23.1-1.86.18-1.67.21-3.37.49-5.08.81a136.21,136.21,0,0,1-8.76-12.87A289.63,289.63,0,0,1,782,1041.43c-4.86-10.68-10-23.13-15.27-37-4.87-12.84-9.87-26.9-15.29-43-4.75-14.1-9.75-29.57-15.3-47.3-4.47-14.31-9.34-30.2-15.3-50q-5.12-17-10.22-34.1l-5.09-17c-4.54-15.16-9.91-33-15.32-50.58s-10.76-35.38-15.3-50.55l-5.11-17.07q-5.1-17.07-10.2-34c-6-19.83-10.84-35.73-15.32-50-5.55-17.75-10.56-33.24-15.32-47.37-5.43-16.11-10.44-30.2-15.33-43.08-5.29-13.95-10.45-26.46-15.34-37.2a291.84,291.84,0,0,0-15.4-29.73c-5.28-8.71-10.5-15.67-15.53-20.7a1.5,1.5,0,1,0-2.12,2.12c4.86,4.86,9.93,11.63,15.09,20.14a288.82,288.82,0,0,1,15.23,29.42c4.86,10.67,10,23.13,15.27,37,4.87,12.84,9.87,26.89,15.29,43,4.75,14.11,9.75,29.58,15.3,47.31,4.47,14.3,9.34,30.19,15.3,50,3.4,11.29,6.8,22.66,10.2,34L672,712.75c4.55,15.17,9.92,33,15.32,50.57s10.76,35.41,15.3,50.56l5.09,17c3.41,11.39,6.82,22.79,10.22,34.1,6,19.82,10.84,35.72,15.32,50,5.55,17.75,10.56,33.25,15.32,47.37C754,978.5,759,992.6,763.91,1005.47c5.29,13.95,10.46,26.47,15.34,37.2a290.78,290.78,0,0,0,15.4,29.73,143.21,143.21,0,0,0,8,12c-2.33.51-4.7,1.11-7.17,1.82-2.13.61-4.31,1.32-6.54,2.08-2.71,0-5.51.08-8.46.29-3.66.25-7.53.69-11.93,1.33q-.95-2.09-1.9-4.27c-4.74-10.8-9.74-23.51-15.27-38.84-4.48-12.42-9.34-26.63-15.3-44.72-4.78-14.56-9.79-30.54-15.29-48.85-4.6-15.31-9.47-32-15.31-52.37-3.86-13.5-7.72-27.12-11.58-40.75l-3.73-13.16c-4.86-17.17-10.09-35.54-15.31-53.48s-10.44-36.3-15.31-53.45l-3.74-13.21c-3.85-13.61-7.71-27.23-11.57-40.71C638.43,665.64,633.56,649,629,633.66c-5.52-18.34-10.53-34.35-15.32-48.93-6-18.1-10.83-32.34-15.33-44.8-5.55-15.39-10.57-28.16-15.35-39a336.25,336.25,0,0,0-15.38-31.26C562.11,460,557,453,552,448a1.5,1.5,0,0,0-2.12,2.12c4.8,4.8,9.73,11.68,15.07,21a333.07,333.07,0,0,1,15.24,31C585,512.92,590,525.62,595.49,541c4.49,12.43,9.35,26.64,15.3,44.72,4.78,14.56,9.79,30.54,15.29,48.85,4.61,15.32,9.47,32,15.31,52.37,3.85,13.49,7.71,27.1,11.57,40.71l3.74,13.2c4.86,17.17,10.09,35.53,15.31,53.48s10.44,36.29,15.31,53.45l3.73,13.17c3.86,13.63,7.72,27.26,11.58,40.75,5.84,20.44,10.71,37.09,15.31,52.41,5.52,18.34,10.53,34.35,15.33,48.93,6,18.11,10.83,32.35,15.32,44.8,5.55,15.39,10.57,28.16,15.35,39l1.57,3.53-.44.06c-2.28.37-4.66.83-7.17,1.38-2.59-.37-5.19-.66-7.77-.88-4-.34-8-.52-12.06-.54q-1-2.68-2-5.47c-4.71-13.23-9.71-28.1-15.29-45.46-4.78-14.87-9.79-31.39-15.3-50.49-4.57-15.86-9.43-33.27-15.3-54.82-4.32-15.84-8.7-32.18-12.94-48l-2.37-8.82c-4.65-17.31-10-37.37-15.31-56.47s-10.45-38.33-15.31-56.44l-2.34-8.73c-4.25-15.84-8.65-32.22-13-48.09-5.87-21.56-10.74-39-15.32-54.86-5.52-19.14-10.53-35.69-15.32-50.58-5.59-17.39-10.61-32.3-15.33-45.56-5.45-15.32-10.46-28.35-15.34-39.85a307.42,307.42,0,0,0-15.39-31.85c-5.31-9.34-10.54-16.61-15.55-21.61a1.5,1.5,0,0,0-2.12,2.12c4.81,4.81,9.88,11.87,15.07,21a308.74,308.74,0,0,1,15.23,31.54c4.85,11.44,9.85,24.42,15.28,39.69,4.71,13.23,9.71,28.1,15.29,45.47,4.78,14.86,9.79,31.38,15.3,50.49,4.57,15.85,9.44,33.27,15.3,54.82,4.33,15.86,8.72,32.24,13,48.07l2.34,8.73c4.87,18.12,10,37.4,15.31,56.47S667.36,860.8,672,878.1l2.37,8.82c4.24,15.81,8.63,32.15,12.94,48,5.88,21.57,10.74,39,15.32,54.87,5.52,19.14,10.53,35.68,15.32,50.57,5.59,17.39,10.61,32.3,15.33,45.56.54,1.52,1.07,3,1.61,4.48h-.23q-3.06.06-6.14.26c-2.82-.78-5.79-1.55-8.81-2.22s-6.11-1.23-9-1.63c-1.71-5.26-3.46-10.71-5.26-16.45-4.64-14.74-9.64-31.75-15.29-52-5.35-19.13-10.71-39.11-15.31-56.34-5.25-19.64-10.44-39.79-15.31-58.76l-2.26-8.82c-4.28-16.67-8.7-33.91-13.05-50.49s-8.76-33.81-13-50.47L629,784.65c-4.87-19-10.06-39.16-15.31-58.79-4.6-17.23-10-37.21-15.31-56.36-5.67-20.28-10.68-37.32-15.33-52.09-5.47-17.41-10.49-32.51-15.32-46.18C562.3,556,557.28,543,552.35,531.48A301.68,301.68,0,0,0,537,500c-5.3-9.19-10.53-16.39-15.55-21.41a1.49,1.49,0,0,0-2.12,0,1.51,1.51,0,0,0,0,2.12c4.84,4.83,9.91,11.83,15.07,20.78a297.8,297.8,0,0,1,15.23,31.17c4.91,11.46,9.91,24.41,15.28,39.57,4.82,13.63,9.83,28.71,15.29,46.08,4.64,14.74,9.64,31.75,15.3,52,5.34,19.14,10.7,39.12,15.3,56.34,5.24,19.62,10.44,39.78,15.31,58.76l2.27,8.84c4.27,16.66,8.69,33.9,13,50.48s8.77,33.81,13,50.48l2.27,8.82c4.87,19,10.06,39.13,15.31,58.79,4.61,17.23,10,37.22,15.32,56.36,5.66,20.28,10.67,37.32,15.32,52.09,1.65,5.26,3.26,10.28,4.84,15.14-1.12-.11-2.23-.21-3.32-.28-2-.13-4.16-.36-6.35-.66-2.93-1-5.83-1.81-8.69-2.52l-1.7-.46c-4-13.33-8.15-27.56-12.52-43.23-4.81-17.19-9.82-35.73-15.31-56.67C655,965.12,650,945.65,644.28,923c-5.1-20.19-10.29-40.94-15.3-61s-10.21-40.81-15.32-61c-5.72-22.62-10.72-42.11-15.31-59.58-5.5-21-10.51-39.51-15.31-56.72-5.4-19.32-10.41-36.46-15.33-52.42-5.27-17.14-10.43-32.86-15.32-46.71C547.14,570.77,542,557.46,537,546a289.1,289.1,0,0,0-15.4-31c-5.25-8.95-10.48-16.06-15.54-21.11a1.49,1.49,0,0,0-2.12,0,1.51,1.51,0,0,0,0,2.12c4.88,4.88,9.95,11.78,15.08,20.51a284.05,284.05,0,0,1,15.22,30.69c4.92,11.36,10.05,24.61,15.28,39.38,4.88,13.81,10,29.49,15.29,46.59,4.9,15.93,9.9,33.06,15.3,52.35,4.8,17.19,9.81,35.73,15.3,56.67,4.58,17.47,9.59,36.95,15.31,59.55,5.1,20.2,10.29,40.94,15.31,61s10.2,40.81,15.31,61c5.72,22.63,10.73,42.12,15.31,59.58,5.5,21,10.51,39.51,15.32,56.72,4.18,15,8.13,28.63,12,41.45-3.3-1-6.65-2.1-10-3.39-2.27-.88-4.58-1.84-6.9-2.87-2.38-8.12-4.87-16.84-7.5-26.26-5.35-19.12-10.71-39.11-15.31-56.34C639,973,633.84,952.86,629,933.89L626.7,925c-4.27-16.65-8.69-33.88-13-50.45s-8.77-33.83-13-50.51l-2.26-8.79c-4.87-19-10.06-39.14-15.31-58.79-4.6-17.23-10-37.21-15.31-56.36-5.67-20.28-10.68-37.32-15.33-52.09-5.47-17.41-10.49-32.51-15.32-46.18-5.4-15.23-10.42-28.23-15.35-39.75a302.93,302.93,0,0,0-15.39-31.49c-5.3-9.18-10.53-16.38-15.55-21.4a1.49,1.49,0,0,0-2.12,0,1.51,1.51,0,0,0,0,2.12c4.84,4.83,9.91,11.83,15.07,20.78A297.8,297.8,0,0,1,519,563.28c4.91,11.46,9.9,24.4,15.28,39.57,4.82,13.63,9.83,28.7,15.29,46.08,4.64,14.74,9.64,31.75,15.3,52,5.34,19.14,10.7,39.12,15.3,56.34,5.25,19.63,10.44,39.79,15.31,58.76l2.25,8.79c4.28,16.68,8.71,33.93,13.06,50.53s8.76,33.78,13,50.43l2.28,8.87c4.87,19,10.06,39.14,15.31,58.79,4.61,17.24,10,37.23,15.32,56.36,2.37,8.48,4.62,16.39,6.78,23.81-1.55-.73-3.1-1.48-4.66-2.27-3.26-1.66-6.6-3.49-10-5.44q-2.24-7.56-4.59-15.7c-4.57-15.87-9.44-33.29-15.3-54.82-4.32-15.84-8.7-32.19-12.94-48l-2.37-8.81c-4.65-17.31-10-37.37-15.31-56.47S587.9,843.76,583,825.65l-2.34-8.73c-4.25-15.84-8.65-32.22-13-48.09-5.87-21.56-10.74-39-15.32-54.87-5.52-19.14-10.53-35.68-15.32-50.57-5.6-17.4-10.61-32.3-15.33-45.56-5.45-15.32-10.46-28.35-15.34-39.85A307.42,307.42,0,0,0,491,546.13c-5.31-9.34-10.54-16.61-15.55-21.61a1.49,1.49,0,0,0-2.12,0,1.51,1.51,0,0,0,0,2.12c4.81,4.81,9.88,11.87,15.07,21a306.65,306.65,0,0,1,15.23,31.54c4.85,11.44,9.85,24.42,15.28,39.69,4.7,13.22,9.71,28.1,15.29,45.47,4.78,14.86,9.79,31.37,15.3,50.49,4.57,15.85,9.44,33.27,15.3,54.82,4.33,15.86,8.72,32.24,13,48.07l2.34,8.73c4.87,18.12,10.05,37.4,15.32,56.47s10.66,39.15,15.3,56.44l2.37,8.82c4.24,15.81,8.63,32.16,12.94,48,5.87,21.56,10.74,39,15.32,54.87q1.88,6.49,3.67,12.61l-1.44-.88c-3.79-2.35-7.69-4.92-11.62-7.65-1-3.28-2-6.61-3-10-4.6-15.31-9.47-31.95-15.31-52.37-3.86-13.5-7.72-27.12-11.58-40.75l-3.73-13.16c-4.86-17.18-10.09-35.54-15.31-53.48s-10.44-36.3-15.31-53.45L564,818.64c-3.85-13.61-7.71-27.23-11.57-40.71-5.84-20.43-10.71-37.08-15.31-52.41-5.51-18.34-10.53-34.35-15.32-48.93-6-18.1-10.83-32.34-15.33-44.8-5.55-15.39-10.57-28.16-15.35-39a337.83,337.83,0,0,0-15.38-31.27c-5.47-9.59-10.56-16.67-15.55-21.66a1.49,1.49,0,0,0-2.12,0,1.51,1.51,0,0,0,0,2.12c4.8,4.8,9.73,11.68,15.07,21a333.07,333.07,0,0,1,15.24,31c4.74,10.8,9.74,23.51,15.27,38.84,4.49,12.43,9.35,26.64,15.3,44.72,4.79,14.55,9.79,30.53,15.29,48.85,4.61,15.32,9.47,32,15.31,52.37,3.85,13.48,7.71,27.1,11.57,40.71l3.74,13.2c4.86,17.17,10.09,35.52,15.31,53.48s10.44,36.29,15.31,53.45l3.73,13.17c3.86,13.63,7.72,27.26,11.58,40.75,5.84,20.44,10.71,37.09,15.31,52.41l1.92,6.34c-4-2.91-8.19-6.06-12.39-9.4-.65-2-1.3-4.13-2-6.25-4.47-14.32-9.34-30.21-15.3-50q-5.1-17-10.2-34L583,935.5c-4.55-15.17-9.92-33-15.32-50.58s-10.76-35.4-15.3-50.55l-5.1-17q-5.1-17.08-10.21-34.07c-6-19.82-10.84-35.72-15.32-50-5.55-17.75-10.56-33.24-15.32-47.37C501,669.74,496,655.64,491.13,642.77c-5.29-13.95-10.45-26.46-15.34-37.2a291.84,291.84,0,0,0-15.4-29.73c-5.27-8.71-10.5-15.68-15.53-20.7a1.49,1.49,0,0,0-2.12,0,1.51,1.51,0,0,0,0,2.12c4.86,4.86,9.93,11.63,15.09,20.14a288.82,288.82,0,0,1,15.23,29.42c4.86,10.67,10,23.13,15.27,37,4.87,12.83,9.87,26.89,15.29,43,4.75,14.11,9.76,29.58,15.3,47.31,4.47,14.3,9.34,30.19,15.3,50,3.41,11.3,6.81,22.68,10.21,34.06l5.1,17c4.55,15.15,9.92,33,15.32,50.57s10.76,35.39,15.3,50.56l5.11,17.06q5.1,17.07,10.2,34c6,19.82,10.84,35.72,15.32,50,.21.67.41,1.32.62,2-3.77-3.08-7.64-6.35-11.56-9.77l-1.51-4.56c-5-15.14-10.1-31-15-46.28L583,978c-4.44-13.8-8.95-28.13-13.31-42l-2-6.34c-4.9-15.55-10.11-32.06-15.31-48s-10.42-32.43-15.31-48l-2-6.37c-4.37-13.85-8.87-28.18-13.31-42l-.24-.75c-4.94-15.36-10-31.24-15.07-46.44-5.74-17.33-10.75-31.89-15.33-44.51-5.29-14.59-10.45-28.07-15.33-40-5.25-12.9-10.42-24.64-15.35-34.88a278.09,278.09,0,0,0-15.39-28.22,118.33,118.33,0,0,0-15.52-20.06,1.49,1.49,0,0,0-2.12,0,1.51,1.51,0,0,0,0,2.12,114.64,114.64,0,0,1,15.11,19.55A277.91,277.91,0,0,1,457.76,620c4.9,10.19,10,21.86,15.27,34.71,4.87,12,10,25.39,15.29,39.94,4.57,12.59,9.57,27.13,15.3,44.44,5,15.18,10.13,31,15.06,46.41l.24.75c4.44,13.78,8.94,28.1,13.3,42l2,6.37c4.9,15.55,10.11,32.06,15.32,48s10.41,32.42,15.3,48l2,6.34c4.36,13.87,8.87,28.2,13.31,42l.29.88c4.89,15.2,9.94,30.92,14.92,46q-4.64-4.14-9.45-8.64c-1-2.62-1.93-5.28-2.92-8-4.59-12.71-9.45-26.53-15.3-43.49-4.47-13-9-26.3-13.41-39.2l-1.9-5.56c-4.9-14.38-10.12-29.67-15.31-44.59s-10.41-30.19-15.31-44.58L519.85,826c-4.39-12.87-8.93-26.18-13.39-39.12-5.86-17-10.72-30.8-15.32-43.53-5.51-15.27-10.53-28.64-15.32-40.85-5.49-14-10.5-26.17-15.33-37.28-5.4-12.42-10.42-23.16-15.35-32.83a296,296,0,0,0-15.39-27,125,125,0,0,0-15.51-19.7,1.49,1.49,0,0,0-2.12,0,1.51,1.51,0,0,0,0,2.12,121.64,121.64,0,0,1,15.12,19.23,290.83,290.83,0,0,1,15.23,26.68c4.9,9.61,9.89,20.29,15.27,32.66,4.81,11.08,9.81,23.24,15.29,37.18,4.78,12.18,9.78,25.52,15.29,40.77,4.59,12.71,9.45,26.53,15.3,43.49,4.46,12.93,9,26.24,13.39,39.11l1.92,5.65c4.91,14.39,10.13,29.69,15.31,44.59s10.41,30.2,15.31,44.58l1.9,5.56c4.39,12.9,8.94,26.24,13.41,39.21,5.86,17,10.73,30.8,15.32,43.52.29.82.58,1.61.87,2.41q-3.74-3.57-7.64-7.4-2.85-7-5.74-14.19c-4.91-12.33-10.06-25.63-15.3-39.51-4.47-11.86-9.33-24.84-15.3-40.87q-5.12-13.72-10.23-27.49L516.7,855.82q-5.12-13.79-10.25-27.56c-6-16-10.85-29-15.31-40.88-5.24-13.89-10.4-27.2-15.32-39.56-5.22-13.07-10.37-25.56-15.33-37.14-5.73-13.38-10.74-24.65-15.33-34.46-5.51-11.78-10.53-21.75-15.36-30.47-5.5-10-10.54-18.27-15.38-25.39a131.51,131.51,0,0,0-15.49-19.29,1.49,1.49,0,0,0-2.12,0,1.51,1.51,0,0,0,0,2.12,129.87,129.87,0,0,1,15.13,18.86c4.79,7,9.78,15.27,15.24,25.15,4.79,8.67,9.78,18.57,15.26,30.29,4.58,9.78,9.58,21,15.29,34.37,4.95,11.55,10.09,24,15.3,37.08,4.92,12.33,10.07,25.62,15.3,39.5,4.46,11.84,9.33,24.83,15.31,40.87l10.25,27.56L524,884.11q5.12,13.75,10.24,27.49c6,16,10.83,29,15.31,40.88,5.24,13.9,10.39,27.21,15.32,39.56q1.5,3.78,3,7.48l-.52-.55-2.07-2.17-4.76-5c-2.65-5.85-5.37-12-8.19-18.43-4.81-11-9.81-22.76-15.3-36-4.58-11-9.58-23.25-15.31-37.42-5.13-12.7-10.3-25.64-15.33-38.2s-10.19-25.49-15.29-38.11c-5.72-14.18-10.73-26.43-15.31-37.45-5.5-13.23-10.51-25-15.32-36-5.4-12.36-10.42-23.45-15.33-33.89-5.28-11.21-10.44-21.65-15.34-31-5.25-10-10.41-19.29-15.35-27.47-5.24-8.67-10.42-16.48-15.39-23.2a163.28,163.28,0,0,0-15.46-18.23,1.49,1.49,0,0,0-2.12,0,1.51,1.51,0,0,0,0,2.12,159.16,159.16,0,0,1,15.17,17.89c4.92,6.65,10,14.38,15.23,23,4.91,8.13,10,17.32,15.26,27.31,4.89,9.34,10,19.75,15.28,30.92,4.91,10.42,9.91,21.48,15.3,33.81,4.8,11,9.81,22.77,15.3,36,4.57,11,9.58,23.26,15.3,37.42,5.1,12.62,10.28,25.58,15.31,38.15S513.83,888.4,519,901.11c5.73,14.19,10.74,26.44,15.32,37.45,5.5,13.24,10.51,25,15.32,36,1.64,3.76,3.24,7.38,4.81,10.92-.79-.81-1.59-1.62-2.38-2.41-1-1-1.95-1.94-2.93-2.9-3.81-7.44-7.79-15.46-12.09-24.35-4.56-9.44-9.42-19.75-15.3-32.46-4.62-10-9.62-21.09-15.3-34-5.18-11.76-10.4-23.82-15.3-35.15S481,830.9,475.79,819.09c-5.68-12.9-10.69-24-15.32-34-5.88-12.71-10.75-23-15.32-32.5-5.52-11.44-10.54-21.46-15.33-30.63-4.95-9.47-10.11-18.76-15.35-27.61-4.91-8.31-10.08-16.54-15.35-24.47-5-7.5-10.16-14.57-15.39-21a222.85,222.85,0,0,0-15.42-17.16,1.49,1.49,0,0,0-2.12,0,1.51,1.51,0,0,0,0,2.12,220.8,220.8,0,0,1,15.21,16.93c5.17,6.37,10.29,13.36,15.22,20.78,5.24,7.89,10.38,16.07,15.27,24.34,5.21,8.8,10.35,18,15.27,27.47,4.78,9.14,9.78,19.13,15.29,30.55,4.57,9.45,9.43,19.76,15.3,32.45,4.62,10,9.62,21.09,15.3,34,5.2,11.8,10.41,23.84,15.3,35.16s10.13,23.4,15.32,35.17c5.68,12.9,10.69,24,15.32,34,5.89,12.72,10.76,23.05,15.32,32.5,2.61,5.41,5.1,10.48,7.52,15.31l-.33-.35q-2.28-3.76-4.55-7.61c-5.07-8.64-10.21-17.67-15.29-26.85s-10.21-18.75-15.29-28.46-10.22-19.84-15.29-30.09-10.22-20.91-15.3-31.7-10.24-21.48-15.32-31.75-10.24-20.41-15.33-30.14S434.89,766.18,429.8,757s-10.23-18.24-15.32-26.91-10.26-17-15.35-24.79-10.27-15.23-15.36-22.11-10.28-13.43-15.37-19.43S358.11,652.1,353,647a1.49,1.49,0,0,0-2.12,0,1.51,1.51,0,0,0,0,2.12c5.05,5,10.17,10.62,15.23,16.56s10.18,12.43,15.25,19.27,10.19,14.23,15.26,22,10.2,16,15.27,24.67,10.22,17.68,15.29,26.85,10.22,18.74,15.29,28.46,10.22,19.84,15.3,30.08,10.22,20.92,15.29,31.7,10.25,21.49,15.33,31.76,10.24,20.41,15.32,30.14S514,929.91,519,939.1q3,5.48,6.07,10.84-1.75-2.57-3.51-5.19c-4.87-7.26-10.08-15.09-15.3-23.2-5.63-8.75-10.62-16.86-15.27-24.78-4.5-7.66-9.84-16.8-15.3-26.51-5.6-10-10.6-19.21-15.29-28.29s-9.72-18.39-15.33-28.38c-5.48-9.73-10.82-18.89-15.32-26.56-4.67-7.95-9.69-16.09-15.35-24.88-5.22-8.14-10.45-16-15.32-23.25-5.24-7.81-10.4-15.21-15.35-22-5.21-7.17-10.38-13.91-15.35-20-5.26-6.49-10.42-12.6-15.36-18.16-5.23-5.9-10.4-11.41-15.37-16.37a1.49,1.49,0,0,0-2.12,0,1.51,1.51,0,0,0,0,2.12c4.92,4.92,10.05,10.39,15.25,16.24,4.9,5.53,10,11.6,15.27,18.06,4.94,6.09,10.07,12.8,15.26,19.93,4.92,6.76,10.06,14.13,15.28,21.91,4.86,7.26,10.08,15.09,15.29,23.2,5.63,8.76,10.63,16.87,15.28,24.78,4.5,7.66,9.83,16.8,15.29,26.51,5.6,10,10.6,19.21,15.29,28.29s9.72,18.4,15.33,28.38c5.48,9.73,10.82,18.89,15.33,26.56,4.67,8,9.69,16.1,15.34,24.89,5.17,8,10.34,15.79,15.16,23-4.31-5.2-8.58-10.5-12.72-15.8-5.16-6.62-10.3-13.46-15.27-20.32-5.16-7.13-10.31-14.51-15.28-21.94-5.15-7.68-10.29-15.66-15.28-23.72-5.15-8.31-10.29-17-15.29-25.7s-10.17-17.45-15.33-25.79c-5-8.1-10.18-16.11-15.34-23.82-5-7.46-10.16-14.87-15.34-22-5-6.89-10.15-13.76-15.35-20.41-5-6.38-10.14-12.76-15.34-19-5-5.92-10.12-11.88-15.34-17.71-4.94-5.51-10.1-11.11-15.34-16.63-4.9-5.15-10.06-10.44-15.34-15.72a1.49,1.49,0,0,0-2.12,0,1.51,1.51,0,0,0,0,2.12c5.27,5.26,10.41,10.53,15.28,15.67,5.23,5.5,10.37,11.07,15.28,16.56,5.2,5.81,10.34,11.74,15.28,17.64,5.18,6.18,10.32,12.53,15.28,18.88,5.17,6.63,10.31,13.47,15.28,20.33,5.16,7.12,10.3,14.5,15.28,21.93,5.14,7.68,10.28,15.66,15.28,23.73,5.14,8.31,10.28,16.95,15.28,25.7s10.17,17.45,15.34,25.79c5,8.09,10.17,16.1,15.34,23.81,5,7.46,10.15,14.87,15.34,22,5,6.89,10.15,13.76,15.34,20.4,4.65,6,9.47,11.93,14.33,17.76-.62-.64-1.24-1.29-1.87-1.93-3.34-3.43-6.79-7-10.19-10.57-5.94-6.29-10.79-11.73-15.24-17.12-5.72-6.93-10.73-13.08-15.3-18.79-5.48-6.86-10.48-13.27-15.28-19.59C455,875,449.89,868,445,861.06c-5.23-7.46-10.37-15.13-15.27-22.8s-10.1-15.4-15.35-22.89c-4.89-7-10.05-14-15.34-21-4.81-6.34-9.83-12.76-15.34-19.65-4.58-5.73-9.6-11.89-15.32-18.82C363.91,750.44,359,745,353,738.62c-3.41-3.61-6.87-7.17-10.22-10.61l-5.1-5.25c-5.22-5.41-10.45-10.42-15.35-15.09l-2.05-1.94c-4.34-4.13-8.83-8.39-13.24-12.8a1.49,1.49,0,0,0-2.12,0,1.51,1.51,0,0,0,0,2.12c4.44,4.43,8.94,8.71,13.3,12.85l2,2c4.88,4.64,10.08,9.63,15.26,15l5.11,5.26c3.34,3.44,6.8,7,10.19,10.58,5.95,6.28,10.79,11.72,15.25,17.12,5.71,6.92,10.71,13.06,15.29,18.79,5.49,6.86,10.49,13.27,15.29,19.58,5.27,6.94,10.41,14,15.27,20.92,5.23,7.46,10.37,15.13,15.28,22.79s10.09,15.41,15.34,22.9c4.89,7,10.05,14,15.35,21,4.81,6.33,9.83,12.76,15.33,19.64,4.58,5.73,9.59,11.89,15.33,18.83,4.5,5.45,9.38,10.94,15.37,17.27,3.41,3.6,6.87,7.16,10.22,10.6l5.1,5.26c5.23,5.41,10.46,10.42,15.36,15.08l2,1.93,2.48,2.37c.82,1.1,1.64,2.19,2.46,3.26.67,1.09,1.34,2.15,2,3.22-2.23-2.3-4.56-4.67-6.89-7-5.54-5.55-11.11-10.86-15.34-14.86l-6.15-5.82q-4.58-4.3-9.15-8.65c-6-5.73-10.86-10.49-15.28-15-5.54-5.64-10.53-11-15.25-16.38-5.11-5.83-10.3-11.6-15.33-17.19S450,885,444.93,879.23c-5.71-6.52-10.71-12.41-15.27-18-5.48-6.73-10.47-13.2-15.26-19.79S404.55,828.27,399,821.5c-4.6-5.64-9.62-11.56-15.35-18.1-5.11-5.83-10.3-11.6-15.33-17.19s-10.2-11.33-15.29-17.14c-4.76-5.43-9.79-10.83-15.37-16.51-4.45-4.53-9.32-9.31-15.34-15-3.07-2.93-6.14-5.82-9.21-8.72L307,723c-4.21-4-9.76-9.29-15.28-14.8a1.49,1.49,0,0,0-2.12,0,1.51,1.51,0,0,0,0,2.12c5.54,5.54,11.11,10.85,15.34,14.86,2,1.93,4.07,3.85,6.11,5.76,3.07,2.89,6.13,5.78,9.2,8.71,6,5.71,10.85,10.47,15.27,15,5.54,5.64,10.53,11,15.25,16.39,5.11,5.82,10.3,11.59,15.33,17.18s10.2,11.33,15.29,17.15c5.71,6.51,10.71,12.4,15.28,18,5.47,6.73,10.47,13.2,15.26,19.79s9.85,13.15,15.36,19.92c4.59,5.64,9.61,11.56,15.34,18.11C447.78,887,453,892.8,458,898.39s10.19,11.33,15.29,17.14c4.76,5.44,9.79,10.84,15.37,16.51,4.44,4.52,9.32,9.3,15.35,15.05,3.05,2.91,6.1,5.79,9.16,8.67l6.15,5.8c4.21,4,9.76,9.29,15.28,14.81s11.07,11.32,15.28,15.76l2.38,2.5c1.75,2.63,3.51,5.23,5.27,7.76,2.46,4.41,5,8.76,7.46,13q2.34,4,4.76,7.87l-2.41-2.38c-5.17-5.15-10.41-10.49-15.3-15.49q-5.29-5.43-10.59-10.91l-4.71-4.86c-4.58-4.72-10-10.26-15.33-15.61s-10.75-10.61-15.32-15l-4.69-4.54c-3.54-3.42-7.08-6.84-10.62-10.3-4.87-4.76-10.1-9.88-15.3-15.1-5.63-5.66-10.63-10.83-15.27-15.8-5.13-5.48-10.32-10.67-15.35-15.69s-10.19-10.17-15.27-15.61c-3-3.25-6.11-6.46-9.08-9.57l-6.24-6.54c-4.2-4.45-9.74-10.39-15.25-16.94s-11.14-12.59-15.37-17.06q-3.12-3.3-6.25-6.56c-3-3.1-6-6.31-9-9.54C363.23,810.23,358,805,353,800s-10.17-10.16-15.25-15.6c-4.66-5-9.68-10.18-15.34-15.86-5.22-5.24-10.45-10.37-15.33-15.13q-5.31-5.19-10.62-10.32l-4.69-4.53c-4.57-4.43-10-9.67-15.3-15a1.49,1.49,0,0,0-2.12,0,1.51,1.51,0,0,0,0,2.12c5.36,5.35,10.75,10.61,15.33,15l4.69,4.54q5.31,5.13,10.61,10.3c4.87,4.76,10.1,9.88,15.3,15.1,5.64,5.67,10.64,10.84,15.28,15.8,5.11,5.48,10.3,10.66,15.35,15.7s10.18,10.17,15.27,15.61c3,3.24,6.1,6.46,9.08,9.57,2.08,2.17,4.15,4.34,6.23,6.54,4.21,4.44,9.74,10.39,15.25,16.93s11.14,12.59,15.37,17.07l6.25,6.55c3,3.11,6,6.31,9.06,9.54,5.12,5.49,10.32,10.68,15.34,15.69s10.18,10.17,15.28,15.62c4.66,5,9.68,10.18,15.34,15.87,5.21,5.23,10.44,10.36,15.32,15.13,3.55,3.46,7.09,6.88,10.63,10.31l4.69,4.54c4.56,4.42,10,9.67,15.29,15S530,987,534.58,991.71l4.72,4.86c3.53,3.65,7.06,7.3,10.6,10.91,4.89,5,10.14,10.36,15.32,15.52,4.06,4,7.78,7.66,11.28,11q1.9,3,3.84,5.87l.47.69c5.06,9.65,10,18.54,14.81,26.43q3.32,5.51,6.59,10.51c.83,1.67,1.66,3.31,2.47,4.91L261.14,738.86a1.49,1.49,0,0,0-2.12,0,1.51,1.51,0,0,0,0,2.12l350.36,350.35c.51.94,1,1.88,1.52,2.79,4.15,7.51,8,14.08,11.77,19.9q1.77,3.63,3.51,7a292.46,292.46,0,0,0,15.4,27c1.4,2.14,2.8,4.17,4.19,6.11,3.76,7.32,7.49,13.9,11.1,19.6a127.46,127.46,0,0,0,13.28,17.72c.68,1.17,1.35,2.31,2,3.41,5.28,8.71,10.5,15.68,15.53,20.7a52.55,52.55,0,0,0,7,5.91,75,75,0,0,0,8.31,10.12c5.09,5.09,10.33,8.26,16,9.67l.2,0c4.84,4.6,9.92,7.6,15.11,8.87a25.87,25.87,0,0,0,6.08.73,28.72,28.72,0,0,0,7.14-.94c.69.24,1.37.45,2.06.64a26.4,26.4,0,0,0,6.74.87,29.36,29.36,0,0,0,9.44-1.61c5-1.69,10.14-4.69,15.6-9.16a48.18,48.18,0,0,0,15.5-9,111.88,111.88,0,0,0,15.52-16.25,235.5,235.5,0,0,0,14-19.71c.43-.49.85-1,1.28-1.49a193.66,193.66,0,0,0,15.44-21.59c5.36-8.47,10.73-17.75,15.34-25.79,4.86-8.46,9.66-17.46,14.21-26.07.37-.6.72-1.19,1.09-1.8,4.32-7.24,8.72-14.83,13-22.17l2.35-4c3.17-5.47,6.69-11.52,10.27-17.52.9.8,1.79,1.63,2.68,2.52a1.5,1.5,0,1,0,2.12-2.13c-1.06-1.06-2.14-2.06-3.22-3,1.14-1.91,2.29-3.81,3.44-5.66,2.07-3.38,4.16-6.85,6.22-10.32a57.08,57.08,0,0,1,6.75,5.81,1.5,1.5,0,1,0,2.12-2.13,60.32,60.32,0,0,0-7.33-6.28c2.64-4.47,5.2-8.87,7.57-12.95l1.41-2.44a43.08,43.08,0,0,1,11.54,8.49,1.5,1.5,0,1,0,2.12-2.13,46.25,46.25,0,0,0-12.15-9l3-5.26c1.86-2.76,3.7-5.52,5.5-8.25.73.11,1.46.24,2.18.42,5.13,1.28,9.91,4.18,14.61,8.88a1.5,1.5,0,0,0,2.12-2.13c-5.09-5.09-10.33-8.25-16-9.66l-1.11-.24c.67-1,1.35-2,2-3l3.73-5.7,2.64-4a22.84,22.84,0,0,1,7.33.56c5,1.22,9.9,4.22,14.61,8.94a1.5,1.5,0,0,0,2.12-2.13c-5.11-5.1-10.5-8.37-16-9.72a25.38,25.38,0,0,0-6-.72c2.31-3.52,4.63-7,6.93-10.48l.8-1.2a24,24,0,0,1,12.87-.2c5,1.32,9.9,4.4,14.64,9.14a1.5,1.5,0,1,0,2.12-2.13c-5.12-5.11-10.5-8.45-16-9.91a26.73,26.73,0,0,0-11.21-.49c2.58-3.79,5-7.23,7.25-10.4a32.24,32.24,0,0,1,4-1.58,24.27,24.27,0,0,1,14.43-.23c4.95,1.47,9.89,4.64,14.68,9.43a1.5,1.5,0,1,0,2.12-2.13c-5.15-5.14-10.51-8.57-15.94-10.18a27.3,27.3,0,0,0-16.05.21c.5-.69,1-1.36,1.51-2l2-2.64a44.91,44.91,0,0,1,12.58-7,24.4,24.4,0,0,1,14.44-.68c5,1.32,9.9,4.4,14.64,9.14a1.5,1.5,0,0,0,2.12-2.13c-5.12-5.11-10.5-8.45-16-9.91a27.71,27.71,0,0,0-16.17.73,39.68,39.68,0,0,0-3.73,1.49c1.77-1.64,3.48-3.14,5.15-4.49a52.09,52.09,0,0,1,14.88-8.91,24.52,24.52,0,0,1,14.44-1c5,1.22,9.9,4.22,14.61,8.94a1.5,1.5,0,0,0,2.12-2.12c-5.11-5.11-10.49-8.38-16-9.73a27.76,27.76,0,0,0-16.17,1.12,46.57,46.57,0,0,0-9.55,4.86,119.38,119.38,0,0,1,11-9.76c5.39-4.16,10.23-6.79,14.8-8.06a28.1,28.1,0,0,1,14.55-.5c5.13,1.28,9.91,4.18,14.61,8.88a1.5,1.5,0,0,0,2.12-2.12c-5.09-5.1-10.33-8.26-16-9.67a31,31,0,0,0-16.07.52c-5,1.37-10.13,4.18-15.83,8.57a142.79,142.79,0,0,0-15.12,13.93L980.8,949a213.4,213.4,0,0,1,15.2-16.6,95.61,95.61,0,0,1,15.07-12.22,43.83,43.83,0,0,1,14.8-6.29,27.49,27.49,0,0,1,14.52,1c5,1.74,10,5.06,14.75,9.84a1.5,1.5,0,1,0,2.12-2.12c-5.1-5.11-10.45-8.66-15.88-10.56a30.47,30.47,0,0,0-16.09-1.1,46.81,46.81,0,0,0-15.83,6.69,99.58,99.58,0,0,0-15.55,12.6A219.38,219.38,0,0,0,978.5,947c-4.49,5.38-9.37,11.57-15.36,19.47-1.79,2.37-3.6,4.78-5.4,7.18q-3.24,3.15-6.67,7c-1,.74-2,1.5-3,2.33a112.4,112.4,0,0,0-15.52,16.25l-.45.56a126.94,126.94,0,0,0-14.84,15.13l-1.19,1.44a134.81,134.81,0,0,0-11.33,10.91c-.85.6-1.69,1.21-2.56,1.88s-1.94,1.54-2.94,2.38c1.59-1.52,3.23-3.14,4.93-4.88,5-5.16,10.16-10.84,15.11-16.33l.24-.27c4.45-4.94,9-10.25,13.34-15.4l2-2.35c4.89-5.74,10.09-11.8,15.26-17.3s10.45-11.65,15.36-17.42l2-2.37c4.35-5.12,8.85-10.41,13.26-15.31l.25-.28c4.93-5.46,10-11.11,15-16.23a141.09,141.09,0,0,1,15.14-13.71,80.22,80.22,0,0,1,15-9.2,44.34,44.34,0,0,1,14.81-4,30.82,30.82,0,0,1,14.6,2.44,47.74,47.74,0,0,1,14.84,10.49,1.5,1.5,0,0,0,2.12-2.12A50.65,50.65,0,0,0,1056.78,896.14Zm-246.49,311.5-1.24,1c1.13-1.7,2.28-3.46,3.46-5.33,5.1-8.06,10.2-16.85,14.66-24.61a3.92,3.92,0,0,0,.32-.25,129.62,129.62,0,0,0,13-12.31c-5.45,9.86-10.41,18.31-15.18,25.83-.43.69-.86,1.34-1.28,2A118.08,118.08,0,0,1,810.29,1207.64ZM779.93,1238a24.51,24.51,0,0,1-12.45.61,144.26,144.26,0,0,0,14.25-14c1.09-1.21,2.19-2.49,3.31-3.82.64,0,1.28.07,1.93.07a29.61,29.61,0,0,0,9.44-1.6c.64-.22,1.27-.45,1.92-.71q-1.82,2.34-3.54,4.38A122.84,122.84,0,0,1,779.93,1238Zm-30.44,8.2c-.59.22-1.18.41-1.76.58a34.1,34.1,0,0,1-10.44-6.77,50.38,50.38,0,0,0,13.28-7.6,40.44,40.44,0,0,0,10.7,7.27A47.34,47.34,0,0,1,749.49,1246.24Zm-29-7.9a75.94,75.94,0,0,1-8.57-10.57c.56,0,1.13.07,1.69.07a31.87,31.87,0,0,0,6.11-.6c.94-.18,1.89-.43,2.85-.7a96.53,96.53,0,0,0,9,12,27,27,0,0,1-10.88.06Zm-30.38-29.88c-.65-1.15-1.31-2.34-2-3.56l.09,0a34.61,34.61,0,0,0,8.51,2.4c2.07,4.17,4.1,8,6.09,11.5,1,1.67,1.89,3.25,2.83,4.78-.34-.11-.69-.21-1-.33a33.27,33.27,0,0,1-7.72-4C694.65,1216.16,692.4,1212.55,690.06,1208.46Zm-15.55-16.77c-.63-.63-1.27-1.29-1.91-2-2.71-4.71-5.49-10-8.32-15.71a50.7,50.7,0,0,0,7.88,4.86c3,6.71,5.75,12.72,8.45,18.17A58.85,58.85,0,0,1,674.51,1191.69Zm53.69-98c2.13.59,4.17,1.19,6.06,1.75.91.27,1.84.56,2.78.87.13.37.27.73.4,1.09l-3.2,1-4.81,1.49c-3.16-1.83-6.3-3.54-9.37-5.11l-.56-.27h.07C722.43,1094.13,725.32,1093.87,728.2,1093.68Zm22.19,3c2.68-.72,5.21-1.35,7.62-1.88,2.35.33,4.69.71,7,1.16,1.12.21,2.24.45,3.37.69v0c-1.22.56-2.46,1.14-3.75,1.76-2.26,1.07-4.54,2.19-6.82,3.31-2.39-1.16-4.81-2.3-7.23-3.38l-2.44-1.06Zm30.79-2.33c2.88-1.17,5.61-2.19,8.25-3.12,2.18,0,4.3.12,6.37.3.37,0,.75.09,1.13.13-.61.38-1.21.75-1.82,1.15-2.7,1.76-5.54,3.65-8.68,5.76-1.8-.64-3.6-1.25-5.38-1.78-1.13-.34-2.26-.66-3.4-1Zm30.74-7.85c.61-.31,1.22-.6,1.82-.89,1.58-.15,3.15-.26,4.69-.31-2,1.67-4.08,3.48-6.31,5.46-.9-.91-1.81-1.9-2.72-2.94C810.24,1087.41,811.09,1087,811.92,1086.54Zm43.91,50.51c-3.07,6-5.92,11.48-8.62,16.57q-3.33,4.26-6.46,7.75c-3.22,3.56-6.22,6.67-9.1,9.39,4-7.12,7.84-14.45,11.54-21.46l2.27-4.31c2.27-4.31,4.59-8.7,6.91-13,1.85-1.79,3.8-3.74,5.88-5.9,2.36-2.45,4.76-5.14,7.25-8.1C862.29,1124.35,859,1130.78,855.83,1137.05Zm-72.08,80.59a23.68,23.68,0,0,1-2.74-.54,29,29,0,0,1-9.55-4.75c3-3.47,6.16-7.35,9.47-11.7a1.35,1.35,0,0,0,.75-.38,1.45,1.45,0,0,0,.42-1.16c2.71-3.61,5.52-7.51,8.57-11.9a27.61,27.61,0,0,0,4.9,1.74,25.87,25.87,0,0,0,6.08.73c.54,0,1.09,0,1.64-.06-3.07,4.91-5.89,9.26-8.6,13.23C790.82,1208.53,787.21,1213.41,783.75,1217.64Zm-48.86,20a86.42,86.42,0,0,1-9.4-12.09,53.61,53.61,0,0,0,10-5c.62-.4,1.25-.81,1.87-1.23l11,11A44.33,44.33,0,0,1,734.89,1237.68Zm-75.38-73.77c-2.3-5-4.66-10.5-7.06-16.29,1.63,1.08,3.29,2.08,5,3,1.33.71,2.68,1.35,4,1.94,3,8,5.94,15.29,8.74,21.86a55.82,55.82,0,0,1-9.06-6.89C660.62,1166.32,660.06,1165.13,659.51,1163.91ZM598.07,1059c-1.1-1.36-2.19-2.74-3.29-4.15-.84-1.85-1.7-3.77-2.58-5.73l3.64,3.64.61.61c.94,2.4,1.88,4.75,2.8,7.05C598.86,1059.93,598.46,1059.47,598.07,1059Zm225.07,26.35c1.1,0,2.2.09,3.28.19s2.4.24,3.6.41l-4.34,4.8-.24.27q-2,2.16-3.9,4.4c-2.37-1-4.71-1.94-7-2.74C817.64,1089.92,820.46,1087.52,823.14,1085.34Zm20-9.08a48.12,48.12,0,0,1,7.6-.32c-2.43,3-5,6.38-7.88,10.1l-.55-.2a65.83,65.83,0,0,0-6.49-1.85c2.36-2.56,4.73-5.08,7.07-7.48ZM889,1052l1.77-2.56a28,28,0,0,1,3,.2c-2.57,4.35-5.05,8.65-7.34,12.64l-.49.86c-1.15-.46-2.31-.87-3.48-1.22C884.79,1058.38,886.94,1055.1,889,1052Zm15.34-13.9,1.37-2.15c.85-.09,1.69-.15,2.53-.17-2.09,3.62-4.25,7.43-6.48,11.48l-.42.77-.18.23c-.86-.3-1.72-.55-2.59-.77C900.5,1044.35,902.43,1041.19,904.37,1038.14ZM920,1023.2l-2.76,3.69-.61.81c.9-1.47,1.8-2.92,2.69-4.33Zm-20.46,41-.59,1.12-.8,1.22c-.54.84-1.09,1.68-1.64,2.52-.71-.51-1.43-1-2.14-1.48,2.93-5.61,5.67-10.77,8.27-15.53.88.38,1.77.81,2.65,1.28-1.18,2.21-2.34,4.41-3.49,6.58Zm-15.08,22.71c1.57-3.1,3.13-6.2,4.69-9.24,1.32-2.56,2.59-5,3.83-7.41.63.42,1.25.86,1.88,1.32-2.75,4.2-5.53,8.44-8.29,12.55-.66,1-1.31,2-1.95,2.91Zm-58.21,64-1.45-1.43c.72-.15,1.45-.33,2.18-.53l.5-.16Zm-.07-4.85a35.17,35.17,0,0,1-4,.87c-1-.91-1.93-1.83-2.9-2.73,2.82-4.23,5.69-8.48,8.56-12.61l2-2.85c2.06,1.8,4.13,3.69,6.2,5.64-2.08,3.47-4.13,7-6.14,10.39A29.08,29.08,0,0,1,826.15,1146ZM805,1160.32c-2.74-2.67-5.43-5.26-8-7.74l-.52-.49.69-.93,4.44-5.9a30.4,30.4,0,0,0,9.31,4.16l1.11.24-2,3-3.72,5.7Zm-12.12,18.35c-3.07-3.14-6.13-6.36-9.13-9.5l0,0c2.79-3.71,5.6-7.48,8.33-11.15l2.58-3.47.27.25c2.73,2.59,5.55,5.31,8.43,8.12-2.87,4.38-5.78,8.81-8.65,13.1Zm-12.69,18c-3.46-3.48-6.87-7-9.91-10.19,2.28-2.82,4.69-5.88,7.33-9.3.65.73,1.3,1.42,1.95,2.06a41.2,41.2,0,0,0,8.42,6.6C785.23,1189.78,782.66,1193.34,780.19,1196.65Zm-76.68-15.42,1-.28a76.58,76.58,0,0,0,12.3-5l1.2,2.82q4.17,9.63,8.26,17.79-2.4,1.48-4.74,2.68Zm12.49-69.4c.66,1.89,1.31,3.77,2,5.61.33,1,.67,1.88,1,2.81l-.15.07c-4.19,1.7-8.09,3.12-11.83,4.31l-1.92-1.71-6.85-6.07c-.7-2.13-1.4-4.27-2.11-6.46,2.54-.31,5.24-.69,8.2-1.17q3.11-.49,6.46-1.22C712.47,1109.22,714.22,1110.51,716,1111.83Zm55.71.47q3.3,1.86,6.51,3.82c.37.66.73,1.33,1.1,2s.71,1.23,1.06,1.83l-.75.66c-3.1,2.71-6.2,5.53-9.25,8.34-1.39-1.15-2.77-2.29-4.13-3.39q-3.22-2.6-6.42-5l1.19-.81,10.28-7.08Zm71.35-21.5.88-1.17a65.67,65.67,0,0,1,6.19,2.82c-1.9,2.89-3.79,5.79-5.66,8.65-1,.28-1.94.53-2.9.72a28.82,28.82,0,0,1-6.77.5l-.26-.16C837.36,1098.38,840.22,1094.54,843.06,1090.8Zm28.72-9,.74.41-1.08,1.07q-2.12,2.06-4.15,3.85l3.44-5.86C871.08,1081.47,871.43,1081.64,871.78,1081.83Zm-11.09,10.72c-.68.5-1.35,1-2,1.45l-.68-.46c-1.18-.76-2.36-1.48-3.55-2.17,1.33-2,2.65-4,4-6,1.69-2.52,3.28-4.88,4.83-7.13q2.43.78,4.75,1.78C865.56,1084.17,863.11,1088.37,860.69,1092.55Zm-33.19,30.3c-1.76-1.45-3.53-2.84-5.31-4.19,1.95-2.56,3.82-5.05,5.56-7.39l4.6-6.16c.49.06,1,.12,1.49.16,1.8,1.16,3.62,2.41,5.44,3.76-3.27,5-6.68,10.14-10.13,15.22C828.6,1123.78,828.05,1123.3,827.5,1122.85Zm-.06,3.88c-.71,1-1.41,2.07-2.12,3.09-2.8,4-5.59,8.16-8.34,12.28-1.57-1.44-3.16-2.86-4.75-4.25-1-.86-2-1.72-3-2.57l3.18-4c2.7-3.37,5.39-6.84,8-10.21,1.74,1.33,3.48,2.69,5.22,4.12C826.21,1125.67,826.83,1126.21,827.44,1126.73Zm13.49-20.21c-.61-.45-1.21-.89-1.82-1.31,1-.1,2-.25,3-.44Zm.74,4.33q2.77,2.16,5.64,4.65c-2.22,3.74-4.47,7.49-6.73,11.16-1,1.67-2,3.36-3.06,5-2-1.9-4-3.75-6.07-5.5C834.93,1121.07,838.37,1115.88,841.67,1110.85Zm1.66-2.52,3.06-4.68a50.63,50.63,0,0,0,10.84-5.13l-1.36,2.34c-2.27,3.92-4.62,8-7,12Q846.06,1110.46,843.33,1108.33Zm12.61-12.54a51.75,51.75,0,0,1-6.76,3.59c1.19-1.83,2.4-3.66,3.6-5.5C853.84,1094.49,854.89,1095.13,855.94,1095.79Zm-29.89,7.87c1,.34,2,.62,3,.86l-3.69,5c-1.74,2.33-3.61,4.81-5.55,7.37-2.58-1.91-5.17-3.7-7.74-5.37l-.22-.14.54-.64,2-2.38c2-2.37,4.07-4.79,6.13-7.19A35.11,35.11,0,0,0,826.05,1103.66ZM810.42,1114q3.76,2.43,7.57,5.23c-2.57,3.36-5.24,6.8-7.92,10.15-1.05,1.31-2.1,2.64-3.14,4-2.77-2.31-5.6-4.59-8.46-6.81,3.86-4.17,7.7-8.57,11.4-12.89Zm-5.33,21.71c-1.41,1.82-2.8,3.63-4.15,5.41a41.53,41.53,0,0,1-4-3.49,61.8,61.8,0,0,1-4.29-4.8q1.88-2.07,3.73-4.07C799.36,1131,802.25,1133.35,805.09,1135.71ZM794.24,1150c-3.12-2.91-6.19-5.74-9.2-8.44,1.86-2.16,3.74-4.33,5.65-6.48a59.26,59.26,0,0,0,4.18,4.65,45.44,45.44,0,0,0,4.25,3.77c-1.52,2-3,4-4.39,5.85C794.56,1149.58,794.4,1149.81,794.24,1150Zm-16.76,22.38a108.88,108.88,0,0,1-8.44-12.17l.91-1c3.27,3.31,6.49,6.66,9.58,9.9l.26.27-.37.48Zm-102.62-26.26q-2.45-6.87-5-14.36c1.15.16,2.3.29,3.46.39q2.92.25,5.95.25l1.84,0c.41.42.83.83,1.25,1.24q2.53,7.48,5,14.43c.62,1.77,1.25,3.51,1.86,5.22l-.66.1a47.38,47.38,0,0,1-11,.32C676.69,1151.23,675.79,1148.73,674.86,1146.14Zm-34.55-29.78c-2.31-6.3-4.66-12.92-7.09-19.92a88.07,88.07,0,0,0,8.94,5.17c.59.29,1.17.55,1.76.83,2.45,7.37,4.71,14.08,6.85,20.28a70.66,70.66,0,0,1-7.12-4.07C642.53,1117.93,641.42,1117.16,640.31,1116.36ZM583,1028c-.41-1-.83-2-1.25-2.92q3.15,3.06,6.09,5.81c1.17,3.11,2.31,6.13,3.44,9.09q-3-3.23-6-6.67C584.5,1031.57,583.74,1029.81,583,1028Zm15,19c-.44-.44-.88-.91-1.33-1.36q-1.93-5-3.94-10.28c1.09,1,2.17,1.92,3.23,2.83,1.69,1.45,3.38,2.93,5.08,4.41q1.9,5.65,3.73,10.88Q601.34,1050.33,598,1047Zm7.56-.42,5.7,5.06,5.59,5c1.05,3.26,2.07,6.42,3.08,9.53-2.24-1.67-4.49-3.42-6.73-5.26q-1.89-1.58-3.81-3.23Q607.49,1052.3,605.52,1046.55Zm15.69,13.89c1.78,1.56,3.56,3.11,5.33,4.63,2.57,2.21,5,4.25,7.29,6.15l1.6,5.09c-2.37-1.35-4.74-2.78-7.09-4.3-1.44-.93-2.87-1.91-4.32-2.92Q622.64,1064.86,621.21,1060.44Zm66.57,51.28c2.61,2.24,5.23,4.53,7.84,6.84q1.43,4.31,2.83,8.45a92.82,92.82,0,0,1-9.88,1.82c-1.52.19-3,.32-4.52.42-1.91-5.7-3.87-11.66-5.88-17.93,2.87.09,5.85,0,9-.13Zm32.2,11.36c2.06,5.7,4.07,11.07,6,16.17-.48.29-1,.55-1.44.82-1.44-1.29-2.84-2.53-4.22-3.71-3.58-3.07-7.2-6.26-10.77-9.43,3.3-1.1,6.71-2.35,10.35-3.83Zm29.44,4.55q3,6.91,5.87,13c-1.42-1.37-2.85-2.73-4.26-4.07-2.24-2.11-4.33-4-6.3-5.8Zm32.52-5.09c2.35,3.84,4.62,7.22,6.86,10.17-2,2.28-4,4.58-6,6.87l-1.19-1.06q-4.5-4-8.9-7.66c2.93-2.71,5.92-5.42,8.9-8Zm-2.31,18.23,1.22,1.1-1.37,1.61-2,2.35c-2.53,3-5.1,6-7.67,9-1.15-1.14-2.31-2.28-3.46-3.39l-4.72-4.58q-1-1.89-1.92-3.87l4.69-4.37,1.93-1.81,4.15-3.86Q775,1136.69,779.63,1140.77Zm-30.66-2c1.77,1.66,3.54,3.37,5.32,5.08-1.77,1.62-3.54,3.24-5.29,4.82-2.92,2.62-5.58,4.94-8.09,7-1.81-1.82-3.52-3.53-5.17-5.15-1.1-1.08-2.18-2.12-3.24-3.14-.91-2.25-1.83-4.57-2.76-6.93,1.91-1.15,3.83-2.34,5.77-3.6,2.1-1.37,4.3-2.82,6.64-4.39C744.27,1134.43,746.53,1136.49,749,1138.8Zm-28.53,27.79c-2.44-2.43-4.76-4.7-7-6.86-1.16-3-2.33-6.08-3.51-9.24,3.32-1.33,6.7-2.84,10.11-4.57,1.35-.69,2.72-1.42,4.11-2.17,1.87,1.71,3.8,3.51,5.8,5.43q1.68,4.13,3.34,8c.51,1.19,1,2.35,1.52,3.5l-1.05.82c-3.84,3-7.42,5.45-10.85,7.58ZM646.1,1099.5l1.62,1.41-1.36-.63C646.28,1100,646.19,1099.76,646.1,1099.5Zm-1.79-5.43,0-.16c-1.24-3.75-2.48-7.59-3.75-11.54.56.28,1.12.57,1.68.83,3.33,1.58,6.68,3,10,4.15q2.28,7.38,4.49,14.24c.35,1.07.69,2.13,1,3.18-.67-.21-1.35-.44-2-.68C652.26,1100.9,648.3,1097.34,644.31,1094.07Zm18,15.14a72.3,72.3,0,0,0,11,1.85c.54,0,1.1.07,1.65.11q2.7,8.43,5.28,16.18c-1.93-1.87-3.86-3.73-5.78-5.52-3-2.8-6.08-5.72-9-8.56l-2.57-2.43C662.69,1110.3,662.51,1109.75,662.33,1109.21ZM703,1149.83c-4.42-4.19-8.88-8.65-13.22-13l-4.66-4.66c1.25-.09,2.52-.21,3.79-.37a95.09,95.09,0,0,0,10.47-2c1.09,3.19,2.17,6.31,3.24,9.33q1.73,4.9,3.45,9.56c-.85.31-1.69.62-2.52.9Zm4.11,1.73c.41,1.11.82,2.21,1.23,3.29-1-.92-1.93-1.82-2.88-2.7Zm28.92,4.45-.63-1.49q1.53,1.51,3.15,3.16l-1.33,1.08C736.87,1157.85,736.47,1157,736.07,1156Zm-8.75-13.44-.41-.37.22-.12Zm-8.92-3.94c1.12,1,2.25,2,3.4,3-1,.56-2.08,1.12-3.1,1.64-3.3,1.67-6.58,3.14-9.79,4.42-1.14-3.09-2.28-6.24-3.43-9.48-1-2.94-2.09-6-3.15-9.08.72-.19,1.43-.37,2.16-.58l1.77-.54C710.28,1131.55,714.36,1135.16,718.4,1138.63Zm-17-12.36-1.26-3.75,3,2.65.55.49C702.86,1125.88,702.12,1126.07,701.36,1126.27Zm-24.16-18c-.76-2.37-1.52-4.77-2.29-7.23,2.78,2.19,5.72,4.59,8.89,7.26C681.53,1108.39,679.33,1108.39,677.2,1108.3Zm-6.44-10.44q.63,2,1.26,4,1,3.16,2,6.22l-.41,0a69.65,69.65,0,0,1-12.36-2.27l-1.65-5.12q-1.89-5.9-3.84-12.14c.66.22,1.33.44,2,.64l1.17.33C662.65,1091.93,666.57,1094.68,670.76,1097.86Zm-3.25-6.12,1.48.35.28.92Zm-24-11.25c-1.41-.66-2.82-1.37-4.23-2.11-.39-1.23-.79-2.48-1.18-3.73q2,1.59,3.85,3,3.62,2.79,7,5.18C647.08,1082.12,645.27,1081.34,643.47,1080.49Zm-16.77-6c3.33,2.16,6.69,4.13,10,5.92q1.62,5.11,3.22,10c-4.19-3.59-8.19-7.31-11.42-10.36l-1.31-1.24c-.55-1.67-1.12-3.37-1.68-5.09C625.94,1074,626.32,1074.28,626.7,1074.52Zm2.56,10.34c3.72,3.46,8.09,7.4,12.47,11,.29.89.58,1.77.87,2.63a89.1,89.1,0,0,1-11-6.77C630.82,1089.45,630.05,1087.18,629.26,1084.86Zm18.38,19.28c2.2.95,4.37,1.83,6.5,2.59,1.05,1,2.05,1.9,3,2.78s2.09,2,3.14,3q2.64,8.07,5.13,15.43a60.28,60.28,0,0,1-6.75-1.89c-1.37-.47-2.73-1-4.09-1.57C652.39,1118.25,650.11,1111.54,647.64,1104.14Zm17.21,12.72c2.5,2.4,5,4.82,7.58,7.17,1.86,1.73,3.74,3.54,5.62,5.37-1.51,0-3-.09-4.47-.22-1.62-.13-3.22-.34-4.81-.6Q666.85,1122.93,664.85,1116.86Zm25.32,30.2c-1-2.81-2-5.7-3-8.64l.54.54c4,4,8,8,12.07,11.9-2.67.8-5.18,1.43-7.56,1.9C691.54,1150.89,690.86,1149,690.17,1147.06Zm12.11,6.17c.25.24.51.5.77.73,2.5,2.33,5.11,4.81,7.86,7.47q2.39,6.12,4.73,11.74a74.08,74.08,0,0,1-12,4.9c-.53.16-1,.31-1.58.45-2.86-7-5.78-14.64-8.81-22.91A91.79,91.79,0,0,0,702.28,1153.23Zm13.9,13.36,2.14,2.13,2,2c-.54.32-1.08.62-1.62.91l-.35.19C717.6,1170.08,716.9,1168.36,716.18,1166.59Zm3.92,7.63c.78-.43,1.57-.89,2.37-1.35,3.79,3.82,7.57,7.67,11.15,11.34l4,4.1q-2,1.67-3.83,3.07c-1.67,1.27-3.34,2.45-5,3.54q-4-8-8-17.35c-.43-1-.86-2-1.29-3Zm15.66,7.89c-3.42-3.51-7-7.18-10.66-10.84,3.34-2.1,6.81-4.53,10.5-7.38l.49-.37c3,6.66,5.91,12.75,8.78,18.19-1.73,1.68-3.39,3.21-5,4.63Zm2.75-20.51c.73-.57,1.46-1.16,2.2-1.78,2.51,2.56,5.21,5.36,8.21,8.49l4.45,4.7c-1.48,1.58-3,3.15-4.44,4.66l-1.82,1.84Q742.9,1171.46,738.51,1161.6Zm12.57,4.64c-2.93-3.07-5.59-5.82-8.06-8.34,2.48-2.09,5.11-4.39,8-7,1.81-1.62,3.63-3.29,5.45-5l2.71,2.63,0,0c1.63,3.2,3.24,6.21,4.82,9,.44.78.88,1.52,1.32,2.27l-1.13,1.28-.25.28c-2.81,3.11-5.67,6.27-8.53,9.37C754,1169.29,752.53,1167.75,751.08,1166.24Zm15.53-10.11-.33-.6c.52.51,1,1,1.55,1.53l-.4.46Zm15,10.8c-3.13-3.28-6.39-6.67-9.69-10,2.63-3,5.26-6.12,7.83-9.15l2-2.35,1.33-1.56q4.59,4.13,9.34,8.59l-2.79,3.74C787,1159.73,784.31,1163.36,781.62,1166.93Zm9.21-36.51c-2.15-2.87-4.34-6.16-6.61-9.91l.36-.31c3.21,2.14,6.37,4.39,9.46,6.72C793,1128.08,791.9,1129.23,790.83,1130.42Zm-26.46-2.55c1.25,1,2.52,2,3.79,3.1-1.31,1.21-2.6,2.42-3.87,3.61l-1.94,1.8-4,3.74q-3.15-6.63-6.4-14.22l5.3-3.64Q760.78,1125,764.37,1127.87Zm-13.62-4.79c-1.09-2.6-2.19-5.27-3.3-8l1.67,1.19c1.84,1.32,3.72,2.71,5.6,4.12Zm-2.53,1.73c-2.06,1.41-4,2.72-5.82,4-2.4-2.1-4.63-4-6.78-5.66q-2.91-2.3-5.59-4.38c1.7-.78,3.46-1.6,5.31-2.48,2.6-1.24,5.22-2.52,7.84-3.81C744.88,1116.76,746.56,1120.87,748.22,1124.81Zm-14.46.65c1.93,1.52,3.93,3.18,6.06,5l-6,3.93c-1.76,1.14-3.5,2.22-5.23,3.27-1.92-5-3.88-10.21-5.88-15.76,1.35-.57,2.74-1.17,4.17-1.81C729.1,1121.8,731.36,1123.57,733.76,1125.46Zm-12-6.36c-.32-.89-.64-1.76-1-2.66-.16-.46-.32-.94-.49-1.4,1.28,1,2.58,2,3.93,3Zm-28-6.14-2.4-2.07,1.67-.16C693.31,1111.48,693.55,1112.22,693.8,1113Zm-5.15-4.86-.46,0c-5.1-4.36-9.64-8.07-13.82-11.29l-1-.78c-.34-1.08-.68-2.18-1-3.28l.83.17a150.07,150.07,0,0,0,15,2.09q2,6.54,4,12.77C691,1107.92,689.79,1108,688.65,1108.1ZM673.73,1090c-.79-.15-1.59-.32-2.39-.49l-1.68-5.56c1.07.5,2.14,1,3.19,1.46,4.12,1.8,8.41,3.95,12.79,6.37C681.67,1091.35,677.68,1090.76,673.73,1090Zm-16.34-12.44c2.91,1.67,5.79,3.2,8.61,4.62q1,3.36,2,6.59c-2.62-.6-5.25-1.28-7.86-2l-1.18-.75q-2.46-1.54-5-3.27-1.32-4.31-2.67-8.8l.27.13C653.52,1075.28,655.48,1076.46,657.39,1077.56Zm-7.45,2.37q-3-2.16-6.19-4.62c-2.32-1.79-4.74-3.72-7.32-5.84q-.57-1.86-1.17-3.75,3.42,1.9,6.89,3.68c1.77.9,3.59,1.81,5.44,2.73C648.38,1074.78,649.17,1077.38,649.94,1079.93Zm-17.75-14c-1.2-1-2.42-2-3.69-3.14l-4.37-3.79,2.59,1.67q2.34,1.46,4.73,2.85Zm-25.41-6.61,0,.08-.61-.6Zm4.55,3.88q5.05,4.15,10.15,7.75c.38,1.17.77,2.34,1.15,3.49l-.33-.31c-3-2.84-6-5.77-9.07-8.58l-1.6-1.52Zm2.54,7.07c2.14,2,4.27,4,6.36,6l4.41,4.19c.49,1.47,1,2.93,1.46,4.37.41,1.23.82,2.42,1.23,3.62q-4.85-3.79-9.91-8.55Q615.67,1075.2,613.87,1070.28Zm12.74,21.46c.82.63,1.63,1.23,2.45,1.82q3.5,10.18,6.81,19.37-3.69-3-7.28-6.63l0,0c-.55-.54-1.1-1.11-1.65-1.68q-3.52-8.8-7.2-18.53C622.05,1088.11,624.35,1090,626.61,1091.74Zm25.53,35,1.71,4.87-8.14-8.14Q648.89,1125.24,652.14,1126.69Zm3.71,1.53,1.8.65a65.13,65.13,0,0,0,8.85,2.35c1.9,5.58,3.74,10.87,5.54,15.93l1.45,4.06-14.71-14.71Q657.36,1132.49,655.85,1128.22Zm14.62,24.2a52.37,52.37,0,0,1-6.63-2.15q-1.3-3.46-2.64-7.12Zm11.1,4.47a53.09,53.09,0,0,0,7.4-.54c.42,0,.86-.12,1.29-.19q3.71,10.17,7.24,19l-18.4-18.4C679.92,1156.86,680.74,1156.89,681.57,1156.89Zm46,42.35q2.93,5.68,5.78,10.54c.67,1.15,1.34,2.26,2,3.35l-11.66-11.67C725,1200.78,726.32,1200,727.62,1199.24Zm8.36,9c-1.91-3.25-3.85-6.81-5.82-10.64,1.8-1.19,3.61-2.46,5.44-3.85q2-1.51,4.1-3.3l4.5,4.63,4.72,4.87,2.89,3c-1,1-1.91,1.93-2.85,2.84a115,115,0,0,1-9.42,8.24C738.36,1212.2,737.17,1210.29,736,1208.26Zm15.1-10.37-4.72-4.87L742,1188.5c1.41-1.26,2.87-2.6,4.37-4,.79,1.46,1.58,2.88,2.36,4.23,2.24,3.88,4.46,7.38,6.67,10.54l-1.48,1.57Zm.22-10.71c-.9-1.56-1.81-3.21-2.72-4.91.82-.81,1.64-1.64,2.49-2.5q2.17-2.24,4.37-4.58l2.64,2.78q3.06,3.26,6.14,6.49l2.06,2.16-2.12,2.57c-2.33,2.79-4.56,5.36-6.72,7.76Q754.4,1192.54,751.3,1187.18Zm15.1-4.79-6.15-6.48-2.76-2.92c2.92-3.16,5.83-6.38,8.69-9.54l.24-.28.54-.6a109.33,109.33,0,0,0,8.64,12.28c-2.66,3.46-5.11,6.57-7.41,9.43Zm15.28-5.29c-.73-.73-1.47-1.53-2.21-2.36l2.35-3.09.07-.09c3,3.2,6.16,6.46,9.27,9.65l-1.46,2.13A38.1,38.1,0,0,1,781.68,1177.1Zm29.92-30.59a27.46,27.46,0,0,1-8.22-3.65q2-2.58,4-5.21c1,.81,1.92,1.63,2.86,2.46,1.7,1.47,3.38,3,5,4.52-.5.77-1,1.54-1.52,2.3C813.05,1146.82,812.32,1146.68,811.6,1146.51Zm5.94.17.59.55h-1Zm20.62-10.22,2.07,2a59.54,59.54,0,0,1-5.47,3.71Q836.46,1139.32,838.16,1136.46Zm4.46.16c-1-.95-1.91-1.88-2.87-2.81q1.68-2.8,3.39-5.57c2.17-3.53,4.32-7.13,6.45-10.72q2.35,2.13,4.74,4.46-2.19,4-4.39,8.13C847.32,1132.62,844.91,1134.76,842.62,1136.62Zm15.64-15,0-.05-.18-.17.43-.79c2.9-5.26,5.83-10.74,8.73-16.21,1,.9,2,1.84,3,2.8C866,1112.78,862,1117.54,858.26,1121.65Zm-2.4-2.46,0,.06q-2.36-2.28-4.68-4.36c2.5-4.23,5-8.44,7.32-12.52l2-3.45c1.48,1.09,2.95,2.26,4.41,3.49C861.88,1108.08,858.85,1113.76,855.86,1119.19ZM862,1096.3c.33-.57.67-1.14,1-1.72a112.68,112.68,0,0,0,10.54-9.11l.64-.63c-1,1.91-2,3.81-3,5.68l-2.27,4.31c-.85,1.61-1.71,3.24-2.56,4.87C864.88,1098.51,863.43,1097.37,862,1096.3Zm19.91-19.54c2.27-2.5,4.6-5.19,7.05-8.12l.45-.55c.34.18.67.37,1,.57-1.28,2.45-2.58,5-3.94,7.63-1.46,2.86-2.93,5.76-4.4,8.67-1.08-.85-2.18-1.65-3.28-2.4C879.8,1080.63,880.84,1078.69,881.89,1076.76Zm9.44-11,1.63-2c-.39.74-.78,1.5-1.18,2.27Zm12.77-16.31.19-.26c3.22-4.24,6.48-8.62,9.66-12.89l.51.1c-2.63,4.7-5.24,9.52-7.79,14.29C905.81,1050.22,905,1049.8,904.1,1049.43Zm-4.83,1.39c-3.71,4.84-7,9-10,12.74,2.42-4.22,5-8.76,7.76-13.35C897.76,1050.39,898.52,1050.59,899.27,1050.82Zm-14.77,15c-1.7,3-3.4,6.11-5.07,9.2-1.61,1.77-3.18,3.45-4.71,5-.51-.29-1-.58-1.54-.85l-.91-.47,1.5-2.52c2.53-4.23,4.86-8,7.08-11.58A37.06,37.06,0,0,1,884.5,1065.81Zm-13.31,8.84-1.64,2.77q-2.22-1-4.53-1.75c3.08-4.43,5.92-8.36,8.66-12l.22-.29a35.76,35.76,0,0,1,3.86.51C875.7,1067.19,873.52,1070.75,871.19,1074.65Zm-9.18.09c-1.49-.41-3-.76-4.56-1.06-.28-.06-.57-.1-.86-.15l1.73-2.08c2.34-2.8,4.57-5.37,6.73-7.77a42,42,0,0,1,5.19-.42C867.64,1066.76,864.94,1070.52,862,1074.74Zm-5.12,1.88c1.12.22,2.23.47,3.32.75-1.38,2-2.8,4.11-4.29,6.34-1.37,2-2.75,4.13-4.12,6.22-2-1-4-2-6-2.77,3.12-4.07,5.93-7.66,8.56-10.92C855.23,1076.34,856.06,1076.47,856.89,1076.62ZM841,1088.56l-.33.43c-2.89,3.82-5.82,7.75-8.7,11.61-1.59-.93-3.18-1.8-4.74-2.57-1-.47-1.88-.9-2.82-1.34,1.09-1.24,2.18-2.47,3.26-3.67l.25-.27c1.85-2.06,3.73-4.13,5.61-6.2A61.87,61.87,0,0,1,841,1088.56ZM812,1095l.29.1a47.75,47.75,0,0,0,5.7,4.48c-2,2.28-3.91,4.57-5.83,6.83l-2,2.38-.83,1q-4.11-2.54-8.24-4.7C804.64,1101.66,808.32,1098.25,812,1095ZM807.3,1112c-3.65,4.26-7.43,8.58-11.21,12.67-3-2.29-6.09-4.48-9.21-6.58,3.43-3.1,6.82-6.25,10.07-9.29l1.76-1.64Q803,1109.41,807.3,1112Zm-12.39-5.39c-3.43,3.19-7,6.52-10.61,9.77q-1.44-.95-2.88-1.86l-1-.59c-1-1.78-2-3.66-3-5.61l4-2.76,5.37-3.65c2.82,1.06,5.65,2.24,8.45,3.56l.54.27ZM775.43,1111l-1-.56.49-.34Zm-3.89-2.19c-1.84-1-3.69-2-5.55-2.94-1.55-.79-3.14-1.59-4.75-2.39l4.72-2.28c1.27-.61,2.51-1.19,3.72-1.75,1.33,2.79,2.62,5.44,3.9,8Zm-6.91-.27q2.08,1.07,4.14,2.17l-9.45,6.52-2,1.36c-2.18-1.64-4.34-3.25-6.45-4.77q-2.18-1.56-4.32-3l4.11-2.06,7.18-3.57C760.15,1106.25,762.43,1107.4,764.63,1108.51ZM733.9,1106c2.21,1.36,4.45,2.81,6.71,4.32-2.19,1.08-4.39,2.15-6.57,3.19-2.34,1.12-4.57,2.15-6.69,3.11-2.48-1.92-4.83-3.7-7.07-5.38l-1.75-1.3c-.4-1.16-.81-2.33-1.21-3.51l2.45-.65c3.12-.84,6.23-1.76,9.29-2.69C730.67,1104.07,732.28,1105,733.9,1106Zm-1-4.09,2.21-.69,3.35-1c.88,2.34,1.74,4.63,2.6,6.86-1.89-1.24-3.76-2.45-5.61-3.59C734.63,1103,733.78,1102.45,732.93,1101.94Zm-21.5,2.85q-3.33-2.38-6.51-4.56c-2.38-1.63-4.73-3.17-7-4.65,2.08.05,4.15.07,6.22,0s4.2-.14,6.3-.27q1.53,4.61,3,9Zm-8.21-2.09c1.38,1,2.79,1.93,4.21,2.93-1.23.23-2.43.45-3.6.63-3.14.51-6,.9-8.65,1.22q-1.9-6-3.84-12.19l.44,0C695.48,1097.56,699.31,1100,703.22,1102.7Zm-17.07-14.07c-3.42-1.86-6.78-3.55-10.06-5,2.9.83,6,1.7,9.28,2.49Zm-57.83-30.49c-3.37-2.12-6.72-4.37-10-6.72l-.41-1.27c3.1,2.39,6,4.6,8.71,6.64.79.6,1.55,1.16,2.32,1.73Zm-14.11-9.74-1.09-.81c-3.37-2.59-6.7-5.26-10-8-.24-.71-.47-1.41-.71-2.13,3.19,2.86,6.08,5.3,8.83,7.47l2.45,1.93Zm-15.48-12.54-.84-.73c-2.69-2.34-5.36-4.76-8-7.22l-1.26-3.4c2.4,2.33,4.82,4.67,7.23,6.94l2,1.88Zm-13.8-12.72c-.76-.75-1.53-1.49-2.28-2.25-1.55-1.55-3.14-3.18-4.73-4.84-.46-1.1-.92-2.22-1.39-3.33,1.34,1.33,2.68,2.65,4,3.94l3.11,3Zm-13.9-8.8c1.79,1.84,3.48,3.56,5.09,5.18q1.26,3,2.51,6-2.82-3.47-5.65-7.12Q572,1016.37,571,1014.34Zm9.42,18c.74.87,1.49,1.72,2.23,2.57l.57,1.31-.64-.6-1.9-1.78-1.57-3.07Zm5.91,11,0,0,0-.06Zm15.43,15.32c2.41,2.39,4.83,4.75,7.25,7,.6,1.65,1.18,3.28,1.76,4.88s1.08,3,1.62,4.42q-3.55-3.58-7-7.46Q603.62,1063.25,601.79,1058.68Zm9.36,19.35c1.24,1.24,2.47,2.44,3.71,3.61q3.21,8.61,6.32,16.58-3-3.46-5.94-7.39-.82-1.86-1.65-3.78-2.43-5.6-4.94-11.58C609.48,1076.33,610.31,1077.2,611.15,1078Zm27.55,42.62c.91,2.47,1.82,4.92,2.73,7.3q2,5.21,3.92,10.14c-.48-.46-1-.93-1.46-1.42q-3.23-3.23-6.55-7.29-3.69-8.34-7.49-17.58Zm5.53,6.24-.42-1.12,12.38,12.37.54,1.51q1.66,4.59,3.25,8.88l-1.14-.58a57.21,57.21,0,0,1-8.55-5.59Q647.3,1135,644.23,1126.89Zm30.23,49.75c-2.94-6.75-6-14.24-9.2-22.64a56,56,0,0,0,7.91,2.1c.39.08.78.13,1.17.2l1.58,1.58c2.9,7.87,5.69,15.08,8.42,21.79A37.71,37.71,0,0,1,674.46,1176.64ZM681,1163l16.53,16.53a40.76,40.76,0,0,1-8.74.61c-.36,0-.72,0-1.08-.07C685.55,1174.72,683.33,1169.06,681,1163Zm9.33,20.17a45.61,45.61,0,0,0,9.76-1.09l.28.28c.76,1.86,1.53,3.68,2.29,5.46q3.64,8.52,7.2,15.86a39.65,39.65,0,0,1-5.94,1,31.26,31.26,0,0,1-5.3-.06q-4.15-8.5-8.51-18.74l-1.13-2.69ZM706,1188l12.63,12.62a51.6,51.6,0,0,1-5.84,2.24Q709.49,1196,706,1188Zm14,15.32.92-.44,14.28,14.27c-.44.29-.88.59-1.31.86a49.24,49.24,0,0,1-10.08,5c-1-1.66-2.08-3.37-3.13-5.19-2.12-3.69-4.3-7.78-6.51-12.22A54.13,54.13,0,0,0,720,1203.32Zm30.77,25.15a86.6,86.6,0,0,1-9.57-11.94A114,114,0,0,0,751,1208c1-.92,1.9-1.87,2.86-2.85,3.31,3.38,6.84,7,10.35,10.48l.12.09s-.09.1-.14.15A151.55,151.55,0,0,1,750.77,1228.47Zm15.63-15,0,0c-3.52-3.52-7.06-7.12-10.38-10.52l1.16-1.24a74.19,74.19,0,0,0,7.1,8.38c1,1,1.9,1.81,2.87,2.64Zm0-5.54a72.24,72.24,0,0,1-7.15-8.5c2.32-2.57,4.72-5.33,7.24-8.34l1.91-2.31c3.08,3.21,6.52,6.76,10,10.26-3.23,4.25-6.3,8-9.25,11.41C768.19,1209.69,767.28,1208.87,766.37,1208ZM796.29,1186a24.16,24.16,0,0,1-3.89-1.33l.91-1.33,1.56,1.58a1.5,1.5,0,0,0,2.12,0,1.49,1.49,0,0,0,0-2.12l-2-2c.71-1,1.42-2.1,2.16-3.2,2.77-4.14,5.57-8.4,8.33-12.62,1.55,1.52,3.1,3,4.67,4.62a1.5,1.5,0,0,0,2.12,0,1.49,1.49,0,0,0,0-2.12c-1.72-1.72-3.42-3.4-5.11-5.06.52-.81,1-1.62,1.58-2.43l3.72-5.69,2.77-4.22c.8.07,1.6.11,2.42.11a30.41,30.41,0,0,0,3.4-.21c1.21,1.16,2.4,2.33,3.59,3.51l-1.76,3c-4.25,7.33-8.64,14.91-13,22.13-1.63,2.73-3.18,5.27-4.67,7.7A23,23,0,0,1,796.29,1186Zm16.24-5.79c4.32-7.24,8.72-14.83,13-22.17l2.35-4c1.32-2.29,2.68-4.62,4-7a56.39,56.39,0,0,0,10.88-6.74c1-.77,2-1.6,3.05-2.47l-3,5.73-2.27,4.32c-4.86,9.22-10,19-15.28,28.1l-.39.68a50.67,50.67,0,0,1-14.13,8.31c-.45.17-.89.3-1.34.44C810.41,1183.77,811.45,1182.06,812.53,1180.25Zm59.5-75.43c-1.12-1.08-2.25-2.11-3.38-3.12l2.89-5.47,2.27-4.31c1.16-2.21,2.34-4.45,3.54-6.7,1.12.77,2.22,1.6,3.32,2.47-2.86,5.66-5.71,11.35-8.52,17Zm45.42-67.63.21.07-.48.7c-.3.42-.59.86-.88,1.28C916.68,1038.56,917.06,1037.87,917.45,1037.19Zm-1.45-3.53-.08,0,.38-.51Zm15.7-20.85c1.06-1.35,2.12-2.7,3.19-4l.36-.46.32-.1c-1,1.67-2.06,3.38-3.14,5.19l-3.5,5.9-1.12,0C929.09,1017.11,930.39,1015,931.7,1012.81Zm-2.47-1.71c-2.23,2.86-4.44,5.73-6.55,8.51l-1.1.18c1.67-2.58,3.3-5,4.91-7.34,1-.6,2-1.16,2.93-1.66C929.36,1010.89,929.3,1011,929.23,1011.1ZM910,1032.84c-.74,0-1.47,0-2.21,0,1.6-2.42,3.15-4.69,4.65-6.79.78-.4,1.55-.77,2.31-1.1C913.22,1027.47,911.63,1030.09,910,1032.84Zm-6.06.37-.66.11c.31-.34.61-.7.91-1l1.3-1.42Zm-2.24,3.51c-2.09,3.31-4.18,6.73-6.23,10.16-.87-.14-1.75-.24-2.63-.31,2.47-3.44,4.85-6.55,7.15-9.37C900.59,1037,901.15,1036.86,901.72,1036.72Zm-12.48,9.77-1.32.06c.31-.34.63-.68,1-1q2.08-2.16,4-4Q891.09,1043.88,889.24,1046.49Zm-2.2,3.15-.49.71c-2.27,3.33-4.6,6.89-7.09,10.83-1.13-.25-2.27-.45-3.42-.59,3.06-3.95,6-7.48,8.78-10.65Q885.93,1049.76,887,1049.64Zm-14.55,10.64c-1.45,0-2.91,0-4.38.07q2.77-2.94,5.41-5.5c.92-.89,1.82-1.73,2.72-2.56,1.22-.46,2.43-.87,3.63-1.22C877.49,1053.88,875,1056.94,872.49,1060.28Zm-9,.6c-1.32.22-2.64.49-4,.83a88.63,88.63,0,0,1,8.27-5.4C866.42,1057.75,865,1059.28,863.54,1060.88Zm-5.94,4.46c.87-.26,1.73-.49,2.58-.7-1.35,1.56-2.74,3.18-4.16,4.88-1,1.15-1.93,2.33-2.93,3.56a46.75,46.75,0,0,0-6.61-.11q3.43-3.35,6.53-6Q855.33,1066,857.6,1065.34Zm-25.17,18c-1.9-.33-3.82-.59-5.75-.75h0l.81-.64c1.52-1.16,3-2.25,4.43-3.28q3.35-1,6.37-1.57Q835.35,1080.11,832.43,1083.29Zm-10.34-1h-.89l1.81-.72Zm-14.25,8.31c-.8-.21-1.6-.4-2.4-.58l1.26-.71Zm.77,3.33c-3.49,3.17-7,6.42-10.43,9.63-.54-.26-1.08-.54-1.61-.79-2.22-1-4.45-2-6.69-2.89,2.43-1.63,4.7-3.13,6.87-4.55,1.61-1,3.21-2,4.8-3C803.87,1092.76,806.23,1093.3,808.61,1094Zm-28.42,5.74c1,.31,2.09.65,3.14,1l-3.56,2.43-3.69,2.54c-1.21-2.38-2.43-4.87-3.67-7.5l.81-.36C775.55,1098.39,777.88,1099,780.19,1099.7Zm-30.8,1.45c1.68.74,3.36,1.53,5,2.32l-5.16,2.58-4.48,2.23q-1.68-4.32-3.41-9l2.17-.65C745.42,1099.42,747.36,1100.24,749.39,1101.15Zm-30.69-3.7c2.23,1.13,4.49,2.35,6.77,3.62-2.15.64-4.32,1.26-6.48,1.85l-2.64.69c-1-2.78-1.9-5.6-2.86-8.5l.34,0C715.45,1095.84,717.07,1096.62,718.7,1097.45Zm-15.17-6.79c1.48.57,3,1.18,4.46,1.81-1.32.07-2.64.11-4,.14-3.76.07-7.56,0-11.34-.23-.93-.55-1.85-1.1-2.77-1.62-.39-1.29-.79-2.59-1.19-3.9,3,.65,5.73,1.15,8.39,1.53C699.26,1089.09,701.39,1089.84,703.53,1090.66ZM570.94,1007c.39,1,.78,1.89,1.16,2.83-1.56-1.7-3.12-3.43-4.7-5.2-.67-.77-1.37-1.56-2-2.35l-.81-1.73c.23.22.45.45.68.68,1.17,1.17,2.34,2.32,3.5,3.47Zm29,58.84q1.44,1.68,2.9,3.31,2.13,5.2,4.2,10.11c-.73-1.08-1.45-2.18-2.18-3.29Q602.42,1071.16,599.9,1065.86Zm20.59,36.58,3.9,3.9q.87,2.19,1.74,4.32c1.16,2.85,2.32,5.63,3.47,8.37-.28-.41-.56-.8-.84-1.22q-1.72-2.52-3.48-5.27Q622.91,1107.7,620.49,1102.44Zm23.69,41.79c-.89-1.86-1.8-3.78-2.71-5.74l.3.31a73.33,73.33,0,0,0,6.05,5.43c2.4,5.92,4.76,11.5,7.06,16.7q-3.23-3.75-6.55-8.36Q646.26,1148.55,644.18,1144.23Zm32,36.39a40.46,40.46,0,0,0,9.44,2.26c.57,1.4,1.15,2.77,1.72,4.12q3.89,9.18,7.66,17a31.61,31.61,0,0,1-5.69-1.82,35.6,35.6,0,0,1-3.67-1.81C682.67,1194.57,679.53,1188,676.22,1180.62Zm29.15,36.75c-1.69-3-3.41-6.21-5.17-9.69.45,0,.91,0,1.36,0,.88,0,1.75,0,2.63-.1a41.77,41.77,0,0,0,7-1.2c2.32,4.69,4.61,9,6.84,12.88.93,1.6,1.85,3.12,2.77,4.6-.59.15-1.18.28-1.76.4a28.12,28.12,0,0,1-9.36.26C708.29,1222.32,706.84,1219.94,705.37,1217.37Zm47.58,13.2a157.55,157.55,0,0,0,13.44-12.67c1-1.06,2-2.16,3.07-3.31a32.2,32.2,0,0,0,10.77,5.41l1.3.3c-.68.79-1.35,1.57-2,2.31a137.25,137.25,0,0,1-15.14,14.73l-.36.28A35.49,35.49,0,0,1,753,1230.57Zm42.5-14.15a26.52,26.52,0,0,1-8,1.45c3.1-3.91,6.32-8.31,9.74-13.33,3.11-4.56,6.37-9.6,10-15.43a32.8,32.8,0,0,0,4.61-1.28,46.55,46.55,0,0,0,9.45-4.8c-3.56,6.14-7.4,12.61-11.23,18.66-2.73,4.31-5.3,8.16-7.76,11.61A36.74,36.74,0,0,1,795.45,1216.42Zm54.28-61.15q.88-1.12,1.77-2.31c-1.86,3.2-3.79,6.48-5.75,9.74C847,1160.32,848.36,1157.84,849.73,1155.27ZM860,1135.55c4.63-9.09,9.31-18.44,13.87-27.56l.87-1.75c2.83-3.79,5.77-7.91,9-12.57-3.44,6.36-6.9,12.92-10.27,19.32l-2.27,4.3-1.08,2C866.37,1125.48,863.06,1130.79,860,1135.55Zm59.45-100.85c-.16,0-.31-.12-.46-.18l.75-1.32c2-3.46,4.11-7.15,6.32-10.91l1.17,0c-1.36,2.32-2.72,4.64-4.06,7C921.9,1031.06,920.66,1032.89,919.42,1034.7Zm15.25-33.13,1.24-1c-1.13,1.71-2.28,3.47-3.46,5.34l-.17.27c-.62.25-1.25.51-1.88.79q2-2.65,3.88-5.08Zm-15.32,16,.21-.16c-.73,1.11-1.45,2.24-2.19,3.4-.44.13-.87.26-1.31.41.72-.94,1.44-1.83,2.15-2.7Zm-33.79,27.11c-.76.81-1.52,1.64-2.29,2.5-.46.08-.92.17-1.38.28Q883.75,1046,885.56,1044.67Zm-43,27.16,1.7-.91c-.81.8-1.65,1.63-2.5,2.49l-.13,0c-.83.11-1.68.25-2.55.41Q840.87,1072.78,842.58,1071.83ZM804.74,1087c-1.24.7-2.5,1.43-3.76,2.19-1.15-.18-2.28-.34-3.41-.46,2.46-.68,4.84-1.26,7.17-1.74Zm-24.61,4.58-.07,0c-2.26.92-4.63,1.93-7.13,3l-2.43-.57c-.21-.44-.42-.91-.63-1.36C773.62,1092.19,777,1091.82,780.13,1091.58Zm-13.28,1.73-.38-.08.32,0Zm-17.39.56c-1.93.52-3.86,1.08-5.78,1.64-1.48-.57-2.91-1.1-4.32-1.59-.06-.18-.13-.36-.19-.53C742.6,1093.43,746,1093.58,749.46,1093.87Zm-30.41-2.5.47.11-.33,0c-1.6.2-3.21.37-4.82.51l-2.24-1-.33-1C714.12,1090.36,716.52,1090.81,719.05,1091.37Zm-59.64,80.77c-1.09-1.72-2.2-3.53-3.31-5.41l1,1c.53.54,1.07,1,1.61,1.56,1.07,2.28,2.14,4.48,3.2,6.63C661.06,1174.7,660.24,1173.45,659.41,1172.14Zm19,27a48,48,0,0,0,5,3.37c1.37,2.62,2.72,5.11,4.05,7.44.52.92,1,1.81,1.56,2.68A96.79,96.79,0,0,1,678.43,1199.14Zm22.85,26.09c.77.33,1.53.64,2.3.91a30.31,30.31,0,0,0,4.35,1.15,97.46,97.46,0,0,0,6.81,9.24,35.28,35.28,0,0,1-9.61-7Q703.23,1227.59,701.28,1225.23Zm33.77,22a28.35,28.35,0,0,1-10.36-5.21c.38,0,.75,0,1.13,0A34,34,0,0,0,734,1241a41.75,41.75,0,0,0,8.83,6.76A22.7,22.7,0,0,1,735.05,1247.28Zm29.78-.24a25,25,0,0,1-12.13,1.16,56.35,56.35,0,0,0,11.89-7.22l.29.1a26.56,26.56,0,0,0,7.59,1.11c.68,0,1.35,0,2-.08A41.16,41.16,0,0,1,764.83,1247Zm45.24-33.45A109.47,109.47,0,0,1,795,1229.4a57,57,0,0,1-6,4.37c2.61-2.63,5.29-5.58,8.09-8.89,2.3-2.7,4.68-5.79,7.19-9.28a63.44,63.44,0,0,0,7.93-5.64c.64-.53,1.29-1.08,1.94-1.65Q812.08,1211.07,810.07,1213.59Z"/><path d="M1072.15,880.51a40.71,40.71,0,0,0-15.89-3.94,47.7,47.7,0,0,0-15.8,2.18,81,81,0,0,0-15.6,6.73,120.47,120.47,0,0,0-15.51,10.32c-4.62,3.56-9.51,7.68-15.39,13-4.47,4-9,8.25-13.4,12.35l-1.94,1.81c-4.89,4.57-10.1,9.41-15.27,13.93s-10.42,9.4-15.34,14l-1.91,1.77c-4.39,4.1-8.92,8.35-13.38,12.35-5.83,5.24-10.67,9.31-15.23,12.82a118.34,118.34,0,0,1-15.11,10.07,78.89,78.89,0,0,1-15,6.48,44.53,44.53,0,0,1-14.82,2.06,37.57,37.57,0,0,1-14.73-3.65,54.17,54.17,0,0,1-14.89-10.86,121.64,121.64,0,0,1-15.12-19.23A288.62,288.62,0,0,1,812.58,936c-4.9-9.61-9.9-20.29-15.27-32.66-4.82-11.08-9.82-23.24-15.29-37.18-4.79-12.18-9.79-25.52-15.3-40.77-4.59-12.71-9.45-26.53-15.3-43.49-4.46-12.91-9-26.21-13.37-39.06l-1.94-5.7c-4.9-14.38-10.12-29.67-15.31-44.59S710.39,662.35,705.49,648l-1.88-5.51c-4.4-12.92-9-26.28-13.43-39.26-5.86-17-10.73-30.81-15.32-43.52-5.52-15.29-10.53-28.65-15.32-40.86-5.49-14-10.5-26.16-15.33-37.28-5.4-12.42-10.42-23.16-15.35-32.82a294.9,294.9,0,0,0-15.39-27A125,125,0,0,0,598,402a1.5,1.5,0,0,0-2.12,2.12A121.64,121.64,0,0,1,611,423.39a288.62,288.62,0,0,1,15.22,26.68c4.91,9.61,9.9,20.29,15.28,32.66,4.81,11.08,9.81,23.24,15.28,37.18,4.79,12.18,9.79,25.52,15.3,40.77,4.59,12.71,9.45,26.53,15.3,43.49,4.48,13,9,26.33,13.43,39.25l1.88,5.51c4.91,14.39,10.13,29.69,15.31,44.59s10.41,30.2,15.31,44.58l1.94,5.7c4.38,12.85,8.92,26.15,13.37,39.07,5.86,17,10.73,30.8,15.32,43.53,5.52,15.27,10.53,28.64,15.32,40.85,5.49,14,10.5,26.17,15.33,37.28C800,917,805,927.69,809.9,937.35a294.9,294.9,0,0,0,15.39,27A125,125,0,0,0,840.8,984a56.9,56.9,0,0,0,15.73,11.45,40.67,40.67,0,0,0,15.89,3.94c.55,0,1.1,0,1.66,0a49,49,0,0,0,14.14-2.21,81.61,81.61,0,0,0,15.6-6.73,119.89,119.89,0,0,0,15.5-10.33c4.63-3.55,9.52-7.67,15.4-13,4.48-4,9-8.27,13.43-12.39l1.9-1.77c4.9-4.58,10.12-9.42,15.28-13.93s10.43-9.41,15.34-14l1.94-1.81C987,919.22,991.52,915,996,911c5.83-5.24,10.66-9.31,15.22-12.82a117.33,117.33,0,0,1,15.12-10.07,79.34,79.34,0,0,1,15-6.49,45,45,0,0,1,14.82-2.06,37.8,37.8,0,0,1,14.73,3.66,54.17,54.17,0,0,1,14.89,10.86,1.5,1.5,0,1,0,2.12-2.12A56.69,56.69,0,0,0,1072.15,880.51Z"/><path d="M1087.52,864.84a55.47,55.47,0,0,0-15.73-5.5,47.83,47.83,0,0,0-15.8-.25,85.91,85.91,0,0,0-15.58,3.86,115.49,115.49,0,0,0-15.51,6.57,166.57,166.57,0,0,0-15.45,9c-4.5,2.94-9.37,6.2-15.34,10.28q-5.07,3.47-10.16,7l-10.22,7q-5.12,3.54-10.24,7c-6,4.08-10.82,7.33-15.28,10.24A165.1,165.1,0,0,1,933,928.91a113.42,113.42,0,0,1-15.11,6.4,82.48,82.48,0,0,1-15,3.73,44.91,44.91,0,0,1-14.82-.22,52.27,52.27,0,0,1-14.89-5.21,62.11,62.11,0,0,1-14.95-11.27,131,131,0,0,1-15.13-18.86c-4.79-7.05-9.77-15.27-15.24-25.15-4.79-8.67-9.78-18.58-15.26-30.29-4.57-9.78-9.57-21-15.29-34.38-4.95-11.54-10.09-24-15.3-37.07-4.92-12.34-10.07-25.63-15.3-39.5-4.48-11.9-9.35-24.89-15.3-40.88q-5.11-13.73-10.24-27.49L731,641.28q-5.1-13.68-10.18-27.36c-6-16-10.84-29-15.32-40.88-5.23-13.88-10.39-27.19-15.32-39.56-5.21-13.07-10.37-25.57-15.32-37.14-5.73-13.39-10.75-24.66-15.33-34.46C654,450.1,649,440.13,644.14,431.41c-5.5-10-10.54-18.27-15.38-25.39a132.59,132.59,0,0,0-15.49-19.29,1.5,1.5,0,0,0-2.12,2.12,129.87,129.87,0,0,1,15.13,18.86c4.79,7,9.78,15.27,15.24,25.15,4.79,8.66,9.78,18.57,15.26,30.29,4.57,9.77,9.57,21,15.29,34.37,4.94,11.55,10.09,24,15.3,37.08,4.92,12.34,10.07,25.63,15.3,39.5C707.14,586,712,599,718,615q5.1,13.66,10.19,27.36l10.2,27.44q5.11,13.76,10.23,27.49c6,16,10.83,29,15.32,40.88,5.23,13.89,10.39,27.2,15.32,39.56,5.21,13.08,10.37,25.57,15.32,37.14,5.73,13.39,10.75,24.66,15.33,34.47,5.51,11.77,10.53,21.74,15.36,30.47,5.5,10,10.54,18.26,15.38,25.38a132.18,132.18,0,0,0,15.49,19.3,64.94,64.94,0,0,0,15.67,11.8,54.75,54.75,0,0,0,15.73,5.5,43.75,43.75,0,0,0,8.4.79,54.35,54.35,0,0,0,7.39-.53,86.3,86.3,0,0,0,15.59-3.87,115.49,115.49,0,0,0,15.51-6.57,166.57,166.57,0,0,0,15.45-9c4.47-2.92,9.35-6.19,15.33-10.27q5.13-3.51,10.25-7.05l10.22-7,10.15-7c6-4.06,10.81-7.31,15.29-10.23a160.64,160.64,0,0,1,15.17-8.83,113.52,113.52,0,0,1,15.11-6.41,83.43,83.43,0,0,1,15-3.73,45.24,45.24,0,0,1,14.83.22,52.8,52.8,0,0,1,14.89,5.21,62.29,62.29,0,0,1,15,11.28,1.5,1.5,0,1,0,2.12-2.12A65.25,65.25,0,0,0,1087.52,864.84Z"/><path d="M1102.94,848.58a71.51,71.51,0,0,0-15.63-7.7,65.77,65.77,0,0,0-15.67-3.3,74.84,74.84,0,0,0-15.63.36,101.56,101.56,0,0,0-15.54,3.28,155.93,155.93,0,0,0-15.46,5.43c-4.61,1.88-9.64,4.12-15.39,6.86-5.12,2.44-10.31,5-15.39,7.58s-10.16,5.07-15.23,7.49c-5.69,2.71-10.67,4.93-15.23,6.78a151.67,151.67,0,0,1-15.16,5.33,96.76,96.76,0,0,1-15.08,3.18,71.5,71.5,0,0,1-15,.36,62.22,62.22,0,0,1-14.95-3.16,68.45,68.45,0,0,1-15-7.37,93.19,93.19,0,0,1-15.07-12.36,160.22,160.22,0,0,1-15.16-17.9c-4.93-6.65-10-14.38-15.24-23-4.91-8.14-10-17.33-15.26-27.31-4.89-9.35-10-19.76-15.28-30.93-4.9-10.4-9.9-21.46-15.3-33.81-4.8-11-9.8-22.76-15.29-36-4.58-11-9.59-23.25-15.31-37.42-5.07-12.57-10.15-25.26-15.23-37.95l-.1-.25c-5-12.53-10.19-25.48-15.29-38.11-5.72-14.17-10.73-26.43-15.31-37.45-5.5-13.23-10.51-25-15.33-36C700,492.88,695,481.8,690.12,471.35c-5.28-11.2-10.44-21.65-15.34-31-5.25-10-10.41-19.28-15.36-27.47-5.23-8.67-10.41-16.48-15.38-23.2a163.28,163.28,0,0,0-15.46-18.23,1.5,1.5,0,1,0-2.12,2.12,159.14,159.14,0,0,1,15.16,17.89c4.93,6.65,10,14.38,15.24,23,4.91,8.13,10,17.32,15.26,27.31,4.88,9.35,10,19.75,15.28,30.92,4.9,10.42,9.91,21.48,15.3,33.81,4.8,11,9.8,22.77,15.3,36,4.57,11,9.58,23.26,15.3,37.42,5.1,12.62,10.28,25.58,15.31,38.16l.08.2c5.08,12.69,10.15,25.38,15.23,37.95,5.72,14.18,10.73,26.43,15.31,37.46,5.51,13.23,10.52,25,15.33,36C800,742,805,753.09,809.88,763.52c5.28,11.21,10.44,21.65,15.34,31,5.25,10,10.41,19.28,15.36,27.47,5.23,8.67,10.41,16.47,15.38,23.2a164.19,164.19,0,0,0,15.46,18.23A96.11,96.11,0,0,0,887,876.21a71.8,71.8,0,0,0,15.64,7.7,65.56,65.56,0,0,0,15.67,3.3c1.94.17,3.93.26,5.94.26a78.46,78.46,0,0,0,9.69-.62,100.62,100.62,0,0,0,15.54-3.28,155.8,155.8,0,0,0,15.45-5.43c4.61-1.87,9.64-4.11,15.39-6.85,5.1-2.43,10.27-5,15.34-7.55s10.19-5.1,15.28-7.53c5.7-2.71,10.68-4.93,15.23-6.78a156.07,156.07,0,0,1,15.16-5.33,97,97,0,0,1,15.08-3.18,71.58,71.58,0,0,1,15-.35,62.69,62.69,0,0,1,14.95,3.15,68.49,68.49,0,0,1,15,7.38,93.09,93.09,0,0,1,15.07,12.36,1.5,1.5,0,1,0,2.12-2.12A95.72,95.72,0,0,0,1102.94,848.58Z"/><path d="M1118.35,832.32a95.51,95.51,0,0,0-15.56-9.87,105.82,105.82,0,0,0-15.53-6.31,74.34,74.34,0,0,0-15.62-3.14,98.16,98.16,0,0,0-15.55,0c-4.61.32-9.52.92-15.44,1.87a147.54,147.54,0,0,0-15.46,3.41c-5.23,1.41-10.46,3-15.37,4.56s-10.08,3.13-15.25,4.53a147.42,147.42,0,0,1-15.16,3.34c-5.83.94-10.66,1.52-15.18,1.84a94.48,94.48,0,0,1-15.07,0,71.73,71.73,0,0,1-15-3,102.82,102.82,0,0,1-15.08-6.13A92.74,92.74,0,0,1,904,813.78a155.92,155.92,0,0,1-15.16-13.44,222.71,222.71,0,0,1-15.21-16.93c-5.16-6.38-10.29-13.37-15.22-20.79-5.24-7.88-10.38-16.07-15.27-24.33-5.21-8.81-10.35-18-15.27-27.47-4.78-9.15-9.78-19.14-15.29-30.55-4.56-9.45-9.42-19.76-15.3-32.45-4.62-10-9.62-21.1-15.3-34-5.2-11.8-10.41-23.84-15.3-35.15s-10.13-23.41-15.32-35.18c-5.68-12.9-10.69-24-15.32-34-5.88-12.71-10.75-23-15.32-32.5-5.53-11.44-10.54-21.46-15.33-30.63-4.95-9.47-10.11-18.76-15.35-27.61-4.92-8.31-10.08-16.55-15.35-24.47-5-7.5-10.17-14.57-15.39-21a223.06,223.06,0,0,0-15.42-17.16,1.5,1.5,0,1,0-2.12,2.12A221,221,0,0,1,657,375.16c5.16,6.37,10.29,13.36,15.22,20.79,5.24,7.87,10.38,16.06,15.27,24.33,5.21,8.81,10.35,18.05,15.27,27.47,4.77,9.14,9.78,19.13,15.29,30.55,4.56,9.44,9.42,19.75,15.3,32.45,4.62,10,9.62,21.09,15.3,34,5.18,11.76,10.4,23.82,15.3,35.16s10.11,23.36,15.32,35.17c5.68,12.9,10.69,24,15.32,34,5.88,12.71,10.75,23,15.32,32.49C815.41,693,820.43,703,825.22,712.2c4.95,9.48,10.11,18.77,15.35,27.61,4.92,8.31,10.08,16.54,15.35,24.47,5,7.5,10.17,14.57,15.39,21a224.74,224.74,0,0,0,15.42,17.16,158.32,158.32,0,0,0,15.46,13.7A95,95,0,0,0,917.74,826a104.52,104.52,0,0,0,15.53,6.31,74.55,74.55,0,0,0,15.63,3.14,99.18,99.18,0,0,0,15.54,0c4.62-.33,9.52-.93,15.45-1.87a151,151,0,0,0,15.46-3.42c5.22-1.41,10.46-3,15.37-4.56s10.08-3.13,15.25-4.53a146.84,146.84,0,0,1,15.16-3.34c5.83-.94,10.65-1.52,15.17-1.84a94.61,94.61,0,0,1,15.08,0,71,71,0,0,1,15,3,101.82,101.82,0,0,1,15.09,6.13,92.33,92.33,0,0,1,15.06,9.56,156.15,156.15,0,0,1,15.17,13.45,1.49,1.49,0,0,0,1.06.44,1.5,1.5,0,0,0,1.06-2.56A159.51,159.51,0,0,0,1118.35,832.32Z"/><path d="M1133.7,816.65a167.91,167.91,0,0,0-15.45-11.37,133,133,0,0,0-15.48-8.68,109.51,109.51,0,0,0-15.53-6c-5.12-1.52-10.32-2.79-15.45-3.77a147.78,147.78,0,0,0-30.93-2.66,146.29,146.29,0,0,0-15.47,1.12,148.58,148.58,0,0,1-15.15,1.09,144.6,144.6,0,0,1-15.15-.5,151.68,151.68,0,0,1-15.16-2.1c-5-1-10.13-2.21-15.16-3.71a105.18,105.18,0,0,1-15.1-5.81,130.18,130.18,0,0,1-15.14-8.48,168.41,168.41,0,0,1-15.17-11.17c-5-4.16-10.15-8.82-15.2-13.87S894,730.15,888.93,724.2s-10.19-12.43-15.24-19.26-10.2-14.23-15.27-22-10.2-16-15.27-24.67-10.21-17.66-15.29-26.85S817.64,612.7,812.57,603s-10.22-19.83-15.3-30.08S787.06,552,782,541.21s-10.24-21.48-15.33-31.76-10.24-20.4-15.32-30.14S741.09,460,736,450.79s-10.24-18.25-15.33-26.92-10.25-17-15.34-24.79S695.06,383.86,690,377s-10.28-13.43-15.38-19.43-10.28-11.63-15.39-16.74a1.5,1.5,0,0,0-2.12,2.12c5,5.05,10.18,10.63,15.23,16.57s10.18,12.42,15.24,19.26,10.2,14.24,15.27,22,10.2,16,15.27,24.67,10.22,17.68,15.29,26.85S743.59,471,748.67,480.7s10.22,19.84,15.3,30.08,10.22,20.92,15.29,31.7,10.25,21.5,15.33,31.76,10.24,20.41,15.32,30.14,10.24,19.33,15.33,28.53,10.24,18.26,15.33,26.91,10.25,17,15.34,24.79,10.27,15.22,15.36,22.11,10.27,13.43,15.38,19.43,10.28,11.63,15.39,16.74,10.3,9.85,15.41,14.06a171.34,171.34,0,0,0,15.45,11.38A134,134,0,0,0,948.39,777a109.86,109.86,0,0,0,15.52,6c5.13,1.52,10.33,2.79,15.46,3.77a151.94,151.94,0,0,0,15.46,2.15,147.2,147.2,0,0,0,30.93-.61,143.07,143.07,0,0,1,15.16-1.09,144.78,144.78,0,0,1,15.15.5,149.6,149.6,0,0,1,15.16,2.1c5,1,10.13,2.21,15.16,3.7a107.59,107.59,0,0,1,15.1,5.81,130.84,130.84,0,0,1,15.13,8.49A165.13,165.13,0,0,1,1131.79,819c5,4.16,10.16,8.82,15.21,13.87a1.49,1.49,0,0,0,1.06.44,1.5,1.5,0,0,0,1.06-2.56C1144,825.6,1138.82,820.87,1133.7,816.65Z"/><path d="M1149,801c-4.94-4.31-10.11-8.54-15.38-12.58-5-3.82-10.18-7.42-15.43-10.71-5-3.11-10.16-6-15.42-8.72-4.89-2.48-10.14-5.1-15.38-7.43a126.85,126.85,0,0,0-15.5-5.86c-4.53-1.34-9.9-2.88-15.41-4.11A100.68,100.68,0,0,0,1041,749.3a96.47,96.47,0,0,1-15.08-2.25c-5.42-1.21-10.73-2.73-15.2-4.06a123.88,123.88,0,0,1-15.13-5.71c-5.18-2.31-10.39-4.91-15.24-7.37-5.19-2.64-10.3-5.53-15.19-8.59-5.17-3.24-10.28-6.79-15.2-10.55-5.22-4-10.34-8.19-15.23-12.46-5.19-4.52-10.32-9.31-15.24-14.23s-10.05-10.39-15.25-16.25c-4.9-5.53-10-11.6-15.27-18.06-4.93-6.09-10.07-12.8-15.26-19.92-4.92-6.77-10.06-14.14-15.27-21.92-4.88-7.27-10.1-15.11-15.3-23.19-5.63-8.76-10.63-16.87-15.28-24.79-4.5-7.66-9.83-16.8-15.29-26.51-5.6-10-10.6-19.2-15.29-28.29s-9.72-18.39-15.33-28.37c-5.48-9.74-10.82-18.89-15.33-26.57-4.66-7.95-9.68-16.09-15.34-24.88-5.22-8.12-10.45-16-15.32-23.25-5.24-7.81-10.4-15.21-15.35-22-5.22-7.17-10.38-13.91-15.35-20.05-5.26-6.49-10.43-12.59-15.36-18.15-5.23-5.91-10.4-11.42-15.37-16.38a1.5,1.5,0,0,0-2.12,2.12c4.92,4.92,10.05,10.39,15.25,16.25,4.9,5.52,10,11.6,15.26,18.05,4.94,6.1,10.08,12.8,15.27,19.93,4.92,6.76,10.06,14.13,15.27,21.91,4.87,7.26,10.09,15.1,15.3,23.2,5.63,8.76,10.63,16.87,15.28,24.78,4.49,7.66,9.83,16.8,15.29,26.52,5.6,9.95,10.6,19.2,15.29,28.28s9.72,18.4,15.33,28.38c5.48,9.73,10.82,18.89,15.33,26.56,4.66,7.95,9.68,16.09,15.34,24.89,5.21,8.11,10.44,16,15.32,23.24,5.24,7.81,10.4,15.22,15.35,22,5.22,7.17,10.38,13.92,15.35,20,5.26,6.49,10.43,12.6,15.36,18.16,5.24,5.91,10.41,11.42,15.37,16.38s10.14,9.8,15.38,14.37c4.94,4.31,10.12,8.55,15.39,12.58,5,3.82,10.18,7.42,15.42,10.71,5,3.11,10.16,6,15.43,8.72,4.89,2.49,10.13,5.1,15.38,7.44a128.23,128.23,0,0,0,15.49,5.85c4.53,1.34,9.9,2.88,15.41,4.11a101,101,0,0,0,15.54,2.32,97.32,97.32,0,0,1,15.08,2.25c5.42,1.21,10.73,2.73,15.21,4.06a123,123,0,0,1,15.13,5.72c5.18,2.3,10.38,4.9,15.24,7.36,5.18,2.64,10.3,5.53,15.19,8.6,5.16,3.23,10.28,6.78,15.2,10.55,5.21,4,10.34,8.18,15.23,12.45,5.19,4.53,10.32,9.32,15.24,14.24a1.49,1.49,0,0,0,1.06.44,1.5,1.5,0,0,0,1.06-2.56C1159.46,810.44,1154.29,805.6,1149,801Z"/><path d="M1164.4,785.15c-5.25-5-10.41-9.7-15.35-14.06-5.22-4.61-10.39-9-15.36-13-5.21-4.21-10.39-8.16-15.38-11.75-5.2-3.74-10.38-7.21-15.39-10.31-5.21-3.22-10.4-6.15-15.42-8.7a165,165,0,0,0-15.45-6.91,131.12,131.12,0,0,0-15.49-4.93,131.31,131.31,0,0,1-15.13-4.82,163.18,163.18,0,0,1-15.17-6.79c-5-2.51-10.07-5.4-15.2-8.58-4.95-3.06-10.08-6.49-15.23-10.2-4.94-3.55-10.07-7.47-15.24-11.64-4.93-4-10.07-8.32-15.26-12.9-4.91-4.34-10.05-9-15.27-14-4.89-4.63-10-9.64-15.28-14.89S924.38,621.16,919.5,616c-5.23-5.5-10.37-11.07-15.28-16.57-5.2-5.8-10.34-11.73-15.28-17.63-5.18-6.19-10.32-12.54-15.28-18.89-5.17-6.62-10.31-13.46-15.28-20.32-5.15-7.12-10.3-14.5-15.27-21.93C838,513,832.81,505,827.83,497c-5.15-8.31-10.29-16.95-15.29-25.7s-10.18-17.46-15.33-25.79c-5-8.09-10.17-16.1-15.34-23.82-5-7.46-10.16-14.87-15.35-22-5-6.89-10.15-13.76-15.34-20.41-5-6.37-10.14-12.76-15.34-19-5-5.92-10.12-11.88-15.34-17.71-4.94-5.51-10.1-11.11-15.34-16.62-4.91-5.17-10.07-10.46-15.34-15.73a1.5,1.5,0,1,0-2.12,2.12C693,317.56,698.1,322.83,703,328c5.22,5.5,10.37,11.07,15.28,16.56,5.2,5.81,10.34,11.74,15.28,17.64,5.18,6.18,10.32,12.54,15.28,18.89,5.16,6.62,10.3,13.45,15.28,20.32,5.15,7.12,10.3,14.5,15.27,21.93C784.52,431,789.67,439,794.65,447c5.14,8.3,10.29,16.95,15.29,25.7s10.17,17.45,15.33,25.79c5,8.09,10.17,16.1,15.34,23.82,5,7.46,10.16,14.87,15.34,22,5,6.89,10.16,13.76,15.35,20.41,5,6.37,10.13,12.75,15.34,19,5,5.93,10.12,11.88,15.34,17.71,4.94,5.52,10.1,11.11,15.34,16.63,4.91,5.17,10.07,10.46,15.34,15.73s10.43,10.3,15.34,15c5.24,5,10.41,9.7,15.35,14.06,5.22,4.61,10.39,9,15.36,13,5.21,4.2,10.38,8.15,15.37,11.74,5.21,3.74,10.39,7.21,15.4,10.31,5.2,3.23,10.39,6.16,15.42,8.71a165.32,165.32,0,0,0,15.45,6.91,135.42,135.42,0,0,0,15.48,4.93,129.53,129.53,0,0,1,15.14,4.82,161.59,161.59,0,0,1,15.17,6.78c4.95,2.52,10.06,5.4,15.2,8.58,5,3.07,10.07,6.5,15.22,10.2,5,3.55,10.08,7.47,15.25,11.64,4.93,4,10.06,8.32,15.25,12.91,4.92,4.33,10.06,9,15.28,14,4.88,4.64,10,9.65,15.28,14.9a1.49,1.49,0,0,0,1.06.44,1.5,1.5,0,0,0,1.06-2.56C1174.47,794.83,1169.31,789.8,1164.4,785.15Z"/><path d="M1181.81,771.11l-2-2.15c-4.9-5.14-10.12-10.58-15.35-15.62l-5.1-4.94c-3.35-3.26-6.81-6.63-10.22-9.84-6-5.66-10.9-10-15.41-13.52-5.73-4.52-10.75-8.39-15.34-11.83-5.51-4.13-10.54-7.74-15.37-11-5.31-3.64-10.5-6.91-15.41-9.72a159.86,159.86,0,0,0-15.45-7.85,158.49,158.49,0,0,1-15.17-7.7c-4.84-2.78-10-6-15.21-9.6-4.78-3.27-9.77-6.86-15.25-11-4.57-3.43-9.57-7.29-15.28-11.79-4.44-3.51-9.28-7.75-15.21-13.34-3.39-3.2-6.84-6.55-10.18-9.8-1.71-1.66-3.41-3.32-5.12-5-5.18-5-10.38-10.42-15.27-15.54l-2.06-2.17c-4.35-4.56-8.84-9.27-13.27-13.7s-9-8.72-13.31-12.87l-2-1.93c-4.88-4.64-10.08-9.63-15.26-15-1.7-1.77-3.41-3.52-5.11-5.27-3.34-3.43-6.8-7-10.19-10.57-6-6.29-10.79-11.72-15.24-17.12-5.73-6.93-10.73-13.07-15.3-18.79-5.49-6.86-10.49-13.27-15.29-19.59-5.27-6.94-10.41-14-15.27-20.91-5.23-7.46-10.37-15.13-15.28-22.79s-10.09-15.41-15.34-22.9c-4.89-7-10.05-14-15.35-21-4.81-6.34-9.83-12.76-15.33-19.64-4.58-5.73-9.59-11.89-15.32-18.83-4.5-5.45-9.39-10.94-15.38-17.27-3.41-3.6-6.87-7.16-10.22-10.61q-2.55-2.61-5.1-5.25c-5.22-5.4-10.45-10.42-15.36-15.09l-2-1.94c-4.34-4.12-8.83-8.39-13.24-12.8A1.5,1.5,0,1,0,703,297c4.44,4.44,8.94,8.72,13.3,12.86l2,1.94c4.88,4.65,10.08,9.63,15.26,15,1.7,1.77,3.41,3.52,5.11,5.26,3.34,3.44,6.8,7,10.19,10.58,6,6.29,10.79,11.73,15.24,17.12,5.72,6.93,10.73,13.07,15.3,18.79,5.48,6.86,10.48,13.27,15.29,19.59,5.26,6.93,10.4,14,15.27,20.91,5.23,7.46,10.37,15.13,15.28,22.79s10.09,15.41,15.34,22.9c4.89,7,10,14,15.34,21,4.82,6.34,9.84,12.76,15.34,19.64,4.58,5.73,9.59,11.89,15.32,18.83,4.5,5.45,9.39,10.94,15.38,17.27,3.41,3.6,6.87,7.16,10.22,10.61l5.1,5.25c5.23,5.41,10.45,10.42,15.35,15.09l2,1.93c4.34,4.13,8.84,8.4,13.25,12.81s8.88,9.1,13.21,13.65l2.07,2.17c4.91,5.14,10.13,10.58,15.36,15.63l5.11,4.95c3.34,3.25,6.8,6.62,10.21,9.83,6,5.66,10.9,10,15.41,13.51,5.73,4.52,10.75,8.4,15.34,11.84,5.51,4.13,10.54,7.74,15.36,11,5.32,3.63,10.5,6.9,15.41,9.72a163.45,163.45,0,0,0,15.46,7.85,159.55,159.55,0,0,1,15.16,7.7c4.84,2.78,10,6,15.21,9.59,4.79,3.28,9.78,6.87,15.26,11,4.57,3.43,9.57,7.28,15.28,11.79,4.44,3.5,9.27,7.74,15.21,13.34,3.39,3.2,6.85,6.56,10.19,9.81,1.7,1.65,3.4,3.31,5.11,5,5.18,5,10.38,10.42,15.26,15.53l2.05,2.15c4.35,4.57,8.85,9.29,13.29,13.73a1.49,1.49,0,0,0,1.06.44,1.5,1.5,0,0,0,1.06-2.56C1190.64,780.38,1186.15,775.67,1181.81,771.11Z"/><path d="M1195.07,753.72l-6.09-6.44c-3.07-3.25-6.15-6.5-9.22-9.71-6-6.31-10.9-11.28-15.34-15.65-5.59-5.48-10.62-10.14-15.38-14.24-5.1-4.38-10.28-9-15.3-13.44s-10.21-9.07-15.32-13.47c-5.75-4.94-10.77-9.06-15.38-12.61a188.22,188.22,0,0,0-15.43-10.85c-4.76-3-9.73-6.47-15.19-10.68-4.55-3.51-9.54-7.61-15.24-12.51-5.09-4.37-10.27-9-15.3-13.44s-10.21-9.08-15.32-13.47c-4.72-4.05-9.7-8.67-15.24-14.11-4.43-4.35-9.28-9.29-15.28-15.57q-4.57-4.8-9.15-9.65l-6.15-6.5c-4.23-4.45-9.8-10.27-15.34-15.81s-11.11-10.85-15.34-14.86L944,524.94c-3.06-2.89-6.13-5.78-9.2-8.7-6-5.71-10.85-10.47-15.27-15-5.54-5.63-10.53-11-15.25-16.38-5.11-5.83-10.3-11.6-15.33-17.18s-10.18-11.32-15.29-17.15c-5.71-6.51-10.71-12.4-15.28-18-5.48-6.73-10.47-13.2-15.26-19.79s-9.84-13.15-15.36-19.92c-4.58-5.63-9.6-11.55-15.34-18.1-5.12-5.83-10.31-11.6-15.33-17.18s-10.2-11.33-15.29-17.15C777,335,772,329.56,766.38,323.88c-4.44-4.51-9.32-9.3-15.35-15-3-2.91-6.1-5.79-9.16-8.67l-6.15-5.81c-4.21-4-9.76-9.28-15.28-14.8a1.5,1.5,0,0,0-2.12,2.12c5.54,5.54,11.11,10.85,15.34,14.86l6.15,5.81c3.05,2.88,6.1,5.75,9.16,8.66,6,5.72,10.85,10.48,15.27,15,5.54,5.63,10.53,11,15.25,16.38,5.11,5.83,10.3,11.6,15.32,17.18s10.2,11.33,15.3,17.15c5.72,6.52,10.71,12.41,15.28,18,5.47,6.73,10.47,13.2,15.26,19.79s9.84,13.14,15.36,19.92c4.59,5.64,9.61,11.56,15.34,18.1,5.12,5.84,10.31,11.6,15.32,17.18S896.87,481,902,486.86c4.76,5.43,9.79,10.83,15.37,16.51,4.45,4.52,9.32,9.3,15.34,15,3.07,2.93,6.14,5.82,9.21,8.71l6.11,5.77c4.22,4,9.76,9.29,15.28,14.8s11.07,11.32,15.28,15.76l6.15,6.49q4.57,4.84,9.16,9.66c6,6.3,10.9,11.27,15.35,15.64,5.58,5.49,10.61,10.15,15.38,14.25,5.09,4.37,10.28,9,15.3,13.44s10.21,9.08,15.32,13.47c5.74,4.93,10.77,9.06,15.37,12.61,5.54,4.27,10.58,7.81,15.43,10.84s9.74,6.48,15.19,10.69c4.56,3.51,9.55,7.61,15.25,12.5,5.1,4.39,10.28,9,15.29,13.44s10.22,9.08,15.33,13.48c4.72,4,9.7,8.66,15.24,14.1,4.42,4.34,9.27,9.29,15.27,15.58,3.07,3.21,6.14,6.46,9.21,9.7l6.1,6.44c4.23,4.45,9.79,10.27,15.34,15.82a1.49,1.49,0,0,0,1.06.44,1.5,1.5,0,0,0,1.06-2.56C1204.84,764,1199.29,758.15,1195.07,753.72Z"/><path d="M1210.37,738.59l-4.7-4.86q-5.31-5.47-10.61-10.92c-4.9-5-10.14-10.36-15.32-15.52-5.67-5.63-10.69-10.48-15.35-14.82-5.08-4.73-10.26-9.91-15.28-14.93s-10.22-10.24-15.34-15c-3-2.8-6.08-5.73-9-8.56l-6.26-6c-4.24-4-9.82-9.16-15.4-13.7s-11-9.58-15.22-13.54c-2.08-2-4.16-3.95-6.24-5.93-3-2.84-6-5.78-9.08-8.6-5.09-4.72-10.26-9.91-15.27-14.93s-10.22-10.23-15.35-15c-4.65-4.32-9.64-9.15-15.27-14.75-5.21-5.18-10.43-10.51-15.3-15.49-3.53-3.61-7.06-7.26-10.59-10.9L996,530.32c-4.57-4.71-10-10.26-15.32-15.61s-10.75-10.61-15.33-15l-4.68-4.53q-5.31-5.14-10.62-10.32c-4.87-4.75-10.1-9.87-15.3-15.1-5.64-5.66-10.64-10.83-15.27-15.79-5.12-5.48-10.31-10.66-15.35-15.7S894,428.06,888.89,422.62c-3-3.24-6.1-6.45-9.08-9.56q-3.12-3.26-6.24-6.55c-4.21-4.45-9.74-10.39-15.25-16.94S847.18,377,843,372.51q-3.13-3.3-6.26-6.57c-3-3.09-6-6.3-9-9.53-5.13-5.48-10.33-10.67-15.35-15.69S802.11,330.55,797,325.11c-4.68-5-9.69-10.19-15.35-15.87-5.18-5.21-10.43-10.35-15.32-15.13q-5.29-5.17-10.6-10.28L751,279.26c-4.55-4.42-9.93-9.65-15.29-15a1.5,1.5,0,0,0-2.12,2.12c5.37,5.38,10.76,10.62,15.33,15l4.72,4.57c3.52,3.42,7.05,6.83,10.58,10.28,4.89,4.77,10.13,9.9,15.3,15.1,5.63,5.65,10.62,10.82,15.27,15.79,5.12,5.49,10.32,10.68,15.35,15.7s10.18,10.16,15.27,15.61c3,3.24,6.1,6.45,9.07,9.56q3.13,3.25,6.25,6.55C845,379,850.5,385,856,391.51s11.14,12.59,15.37,17.06c2.09,2.21,4.17,4.39,6.26,6.57,3,3.09,6,6.3,9,9.53,5.13,5.48,10.32,10.67,15.37,15.71s10.17,10.16,15.25,15.59c4.66,5,9.68,10.18,15.35,15.87,5.21,5.24,10.44,10.37,15.32,15.13q5.32,5.19,10.64,10.32l4.67,4.53c4.57,4.43,10,9.67,15.3,15s10.73,10.87,15.29,15.58l4.72,4.86q5.29,5.47,10.6,10.92c4.87,5,10.1,10.32,15.32,15.52,5.65,5.62,10.67,10.47,15.35,14.82,5.09,4.73,10.26,9.91,15.27,14.92s10.22,10.24,15.35,15c3,2.8,6.08,5.73,9,8.57,2.08,2,4.17,4,6.25,5.94,4.24,4,9.81,9.16,15.39,13.69s11,9.59,15.23,13.55c2.08,2,4.17,3.95,6.25,5.94,3,2.84,6,5.77,9.07,8.59,5.08,4.72,10.25,9.9,15.27,14.92s10.22,10.24,15.35,15c4.64,4.31,9.63,9.14,15.27,14.75,5.17,5.15,10.41,10.49,15.29,15.49,3.54,3.61,7.07,7.26,10.6,10.91l4.71,4.86c4.57,4.71,10,10.25,15.33,15.61a1.49,1.49,0,0,0,1.06.44,1.5,1.5,0,0,0,1.06-2.56C1220.32,748.82,1214.94,743.29,1210.37,738.59Z"/><path d="M1241,738.86,751.06,248.94a1.5,1.5,0,0,0-2.12,2.12L1238.86,741a1.49,1.49,0,0,0,1.06.44A1.53,1.53,0,0,0,1241,741,1.51,1.51,0,0,0,1241,738.86Z"/></svg>