<svg id="Abstract_Shape" data-name="Abstract Shape" xmlns="http://www.w3.org/2000/svg" viewBox="0 0 1500 1500"><path d="M1214.71,630.4c-25.58-36.28-62.13-68.83-108.64-96.73C1010.89,476.55,884.43,445.1,750,445.1s-260.89,31.45-356.07,88.57c-46.51,27.9-83.06,60.45-108.64,96.73C258.62,668.23,245.1,708.47,245.1,750s13.52,81.77,40.19,119.6c25.58,36.28,62.13,68.83,108.64,96.73,95.18,57.12,221.64,88.57,356.07,88.57s260.89-31.45,356.07-88.57c46.51-27.9,83.06-60.45,108.64-96.73,26.67-37.83,40.19-78.07,40.19-119.6S1241.38,668.23,1214.71,630.4ZM602.86,1010q-15.11-.18-29.73-1.23a429.21,429.21,0,0,1-46.23-5.84c-36.64-8.18-69.79-20.12-98.25-35.31C406.24,949,392,925,387,897,365.6,777.45,511.6,614.54,712.41,533.84c64-25.73,127.45-40.42,184.53-43.81q15.21.18,29.93,1.22a429.21,429.21,0,0,1,46.23,5.84c36.64,8.18,69.79,20.12,98.25,35.31C1093.77,551,1108,575,1113,603,1134.4,722.55,988.4,885.46,787.59,966.16,723.53,991.92,660,1006.62,602.86,1010ZM708.75,524.74c-99,39.77-187.88,100.32-250.41,170.48-63,70.75-91.83,143-81,203.48A126.33,126.33,0,0,0,391,937.59c-20.79-22-33.43-48.25-37-77.31-16-130.31,149-285.57,367.77-346.09,18.55-5.13,37.11-9.45,55.53-13A695.22,695.22,0,0,0,708.75,524.74Zm82.5,450.52c99-39.77,187.88-100.32,250.41-170.48,63-70.75,91.83-143,81-203.48A126.33,126.33,0,0,0,1109,562.41c20.79,22,33.43,48.25,37,77.31,16,130.31-148.95,285.57-367.77,346.09-18.56,5.13-37.12,9.46-55.55,13A695.66,695.66,0,0,0,791.25,975.26ZM719.13,504.75c-107.85,29.83-206.18,83.1-276.89,150-71.29,67.47-106.09,140.88-98,206.71A142.49,142.49,0,0,0,364.9,919.9C338.69,891.79,323.64,859,321,823.55c-10.69-141.1,173.3-288.72,410.15-329.08a721.3,721.3,0,0,1,85.32-9.4A692.58,692.58,0,0,0,719.13,504.75Zm61.74,490.5c107.85-29.83,206.18-83.1,276.89-150,71.29-67.47,106.09-140.88,98-206.71a142.4,142.4,0,0,0-20.66-58.41c26.21,28.1,41.26,60.92,43.94,96.34,10.69,141.1-173.3,288.72-410.15,329.08a725.14,725.14,0,0,1-85.42,9.42A695.43,695.43,0,0,0,780.87,995.25Zm-51.4-510.43C612.74,504.7,505,550.71,426.15,614.36c-38.53,31.09-68.11,64.74-87.93,100-20.67,36.81-29.77,73.79-27,109.92,2.2,29.06,12.18,56.41,29.34,81-33-35.36-51.1-76-52.6-118.54-5.34-151.91,197.69-291.91,452.6-312.08,20.43-1.62,40.8-2.42,61-2.42,19.29,0,38.39.74,57.2,2.2A714.41,714.41,0,0,0,729.47,484.82Zm-79.35,540.76a719.07,719.07,0,0,0,120.41-10.4C887.26,995.3,995,949.29,1073.85,885.64c38.53-31.09,68.11-64.74,87.93-100,20.67-36.81,29.77-73.79,27-109.92-2.2-29.06-12.18-56.42-29.34-81.05,33,35.37,51.1,76,52.6,118.55,5.34,151.91-197.69,291.91-452.6,312.08a757.7,757.7,0,0,1-118.22.22C644.2,1025.55,647.15,1025.58,650.12,1025.58ZM254.9,750C254.9,587.28,477,454.9,750,454.9a803.85,803.85,0,0,1,155.26,14.86,751.65,751.65,0,0,0-165.5-4.82C614.18,474.88,497.08,513.61,410,574c-42.52,29.5-75.58,62.6-98.28,98.38-23.68,37.32-35,75.93-33.62,114.76,1.34,38.23,15.26,74.84,40.64,107.74C278.12,852.05,254.9,802.61,254.9,750ZM750,1045.1a803.75,803.75,0,0,1-155.49-14.91,729.64,729.64,0,0,0,104,7.32c20.43,0,41.06-.81,61.73-2.45,125.59-9.94,242.68-48.67,329.72-109,42.52-29.5,75.58-62.6,98.28-98.38,23.68-37.32,35-75.93,33.62-114.76-1.34-38.23-15.26-74.84-40.63-107.73C1221.88,648,1245.1,697.39,1245.1,750,1245.1,912.72,1023,1045.1,750,1045.1Z"/></svg>