<svg id="Abstract_Shape" data-name="Abstract Shape" xmlns="http://www.w3.org/2000/svg" viewBox="0 0 1500 1500"><path d="M750,876.07a2.5,2.5,0,0,0-2.5,2.5V1050a2.5,2.5,0,0,0,5,0V878.57A2.5,2.5,0,0,0,750,876.07Z"/><path d="M774.86,877.44a2.5,2.5,0,0,0-4.92.86l29.86,170.49a2.51,2.51,0,0,0,2.46,2.07,2.25,2.25,0,0,0,.44,0,2.5,2.5,0,0,0,2-2.89Z"/><path d="M796.91,874.93a2.5,2.5,0,0,0-4.71,1.67l59.4,167.68A2.5,2.5,0,0,0,854,1046a2.47,2.47,0,0,0,.83-.15,2.5,2.5,0,0,0,1.52-3.19Z"/><path d="M818.42,871.09a2.5,2.5,0,1,0-4.4,2.38l88.29,163a2.5,2.5,0,0,0,2.2,1.31,2.56,2.56,0,0,0,1.19-.3,2.51,2.51,0,0,0,1-3.39Z"/><path d="M839.17,866a2.5,2.5,0,0,0-4,3l116.21,156.6a2.48,2.48,0,0,0,2,1,2.5,2.5,0,0,0,2-4Z"/><path d="M858.94,859.61a2.5,2.5,0,0,0-3.6,3.47L998.2,1011.54a2.5,2.5,0,1,0,3.6-3.47Z"/><path d="M877.55,852.09a2.5,2.5,0,1,0-3.19,3.85L1042.3,994.63a2.5,2.5,0,1,0,3.18-3.85Z"/><path d="M1086,970.86,894.77,843.47a2.5,2.5,0,1,0-2.77,4.16L1083.18,975a2.43,2.43,0,0,0,1.38.42,2.5,2.5,0,0,0,1.39-4.58Z"/><path d="M1122.76,948.54,910.43,833.83a2.5,2.5,0,0,0-2.37,4.4l212.32,114.71a2.56,2.56,0,0,0,1.19.3,2.5,2.5,0,0,0,1.19-4.7Z"/><path d="M1155.51,924,924.36,823.28a2.5,2.5,0,1,0-2,4.58l231.15,100.77a2.5,2.5,0,0,0,2-4.59Z"/><path d="M1183.83,897.64,936.4,811.92a2.5,2.5,0,1,0-1.64,4.73l247.43,85.71a2.4,2.4,0,0,0,.82.14,2.5,2.5,0,0,0,.82-4.86Z"/><path d="M1207.42,869.61l-261-69.73a2.5,2.5,0,0,0-1.29,4.83l261,69.73a2.8,2.8,0,0,0,.64.08,2.5,2.5,0,0,0,.65-4.91Z"/><path d="M1226,840.25l-271.73-53a2.5,2.5,0,1,0-1,4.91l271.73,53a2.61,2.61,0,0,0,.48.05,2.5,2.5,0,0,0,.48-5Z"/><path d="M1239.39,809.89,959.92,774.25a2.5,2.5,0,1,0-.63,5l279.47,35.64a1.67,1.67,0,0,0,.32,0,2.5,2.5,0,0,0,.31-5Z"/><path d="M1247.42,778.86,963.27,760.94a2.5,2.5,0,0,0-.31,5l284.14,17.91h.16a2.5,2.5,0,0,0,.16-5Z"/><path d="M1250,747.5H964.29a2.5,2.5,0,0,0,0,5H1250a2.5,2.5,0,0,0,0-5Z"/><path d="M960.62,736.72a2.5,2.5,0,0,0,2.49,2.34h.16l284.15-17.92a2.5,2.5,0,1,0-.32-5L963,734.06A2.51,2.51,0,0,0,960.62,736.72Z"/><path d="M957.12,723.58a2.5,2.5,0,0,0,2.48,2.19l.32,0,279.47-35.64a2.5,2.5,0,0,0-.63-5L959.29,720.79A2.5,2.5,0,0,0,957.12,723.58Z"/><path d="M951.34,710.75a2.51,2.51,0,0,0,2.45,2,2.81,2.81,0,0,0,.49,0l271.73-53a2.5,2.5,0,0,0-1-4.91l-271.73,53A2.51,2.51,0,0,0,951.34,710.75Z"/><path d="M943.34,698.35a2.51,2.51,0,0,0,2.42,1.86,2.35,2.35,0,0,0,.64-.09l261-69.73a2.5,2.5,0,0,0-1.29-4.83l-261,69.73A2.51,2.51,0,0,0,943.34,698.35Z"/><path d="M933.21,686.53a2.5,2.5,0,0,0,2.37,1.68,2.65,2.65,0,0,0,.82-.13l247.43-85.72a2.5,2.5,0,1,0-1.64-4.72L934.76,683.35A2.5,2.5,0,0,0,933.21,686.53Z"/><path d="M921.07,675.43a2.5,2.5,0,0,0,2.29,1.5,2.53,2.53,0,0,0,1-.21L1155.51,576a2.5,2.5,0,0,0-2-4.59L922.36,672.14A2.5,2.5,0,0,0,921.07,675.43Z"/><path d="M907.05,665.16a2.49,2.49,0,0,0,3.38,1l212.33-114.71a2.5,2.5,0,1,0-2.38-4.4L908.06,661.77A2.49,2.49,0,0,0,907.05,665.16Z"/><path d="M891.3,655.84a2.52,2.52,0,0,0,2.09,1.11,2.43,2.43,0,0,0,1.38-.42L1086,529.14a2.5,2.5,0,1,0-2.77-4.16L892,652.37A2.51,2.51,0,0,0,891.3,655.84Z"/><path d="M874,647.58a2.51,2.51,0,0,0,1.93.9,2.47,2.47,0,0,0,1.59-.57l167.93-138.69a2.5,2.5,0,1,0-3.18-3.85L874.36,644.06A2.5,2.5,0,0,0,874,647.58Z"/><path d="M855.41,640.45a2.5,2.5,0,0,0,3.53-.06L1001.8,491.93a2.5,2.5,0,1,0-3.6-3.47L855.34,636.92A2.49,2.49,0,0,0,855.41,640.45Z"/><path d="M835.67,634.55a2.51,2.51,0,0,0,3.5-.52l116.21-156.6a2.5,2.5,0,1,0-4-3L835.15,631.05A2.5,2.5,0,0,0,835.67,634.55Z"/><path d="M815,629.92a2.5,2.5,0,0,0,3.39-1l88.29-163a2.5,2.5,0,1,0-4.4-2.38L814,626.53A2.5,2.5,0,0,0,815,629.92Z"/><path d="M793.72,626.59a2.43,2.43,0,0,0,.83.15,2.5,2.5,0,0,0,2.36-1.67l59.4-167.68a2.5,2.5,0,0,0-4.71-1.67L792.2,623.4A2.5,2.5,0,0,0,793.72,626.59Z"/><path d="M772,624.59a2.09,2.09,0,0,0,.43,0,2.5,2.5,0,0,0,2.46-2.07l29.87-170.49a2.5,2.5,0,0,0-4.93-.86L769.94,621.7A2.49,2.49,0,0,0,772,624.59Z"/><path d="M750,447.5a2.5,2.5,0,0,0-2.5,2.5V621.43a2.5,2.5,0,0,0,5,0V450A2.5,2.5,0,0,0,750,447.5Z"/><path d="M700.2,451.21a2.5,2.5,0,0,0-4.93.86l29.87,170.49a2.5,2.5,0,0,0,2.46,2.07,2.09,2.09,0,0,0,.43,0,2.49,2.49,0,0,0,2-2.89Z"/><path d="M703.09,625.07a2.5,2.5,0,0,0,2.36,1.67,2.43,2.43,0,0,0,.83-.15,2.5,2.5,0,0,0,1.52-3.19L648.4,455.72a2.5,2.5,0,1,0-4.71,1.67Z"/><path d="M681.58,628.91a2.5,2.5,0,0,0,4.4-2.38l-88.29-163a2.5,2.5,0,1,0-4.4,2.38Z"/><path d="M660.83,634a2.5,2.5,0,1,0,4-3L548.64,474.45a2.5,2.5,0,1,0-4,3Z"/><path d="M641.06,640.39a2.5,2.5,0,0,0,3.6-3.47L501.8,488.46a2.5,2.5,0,1,0-3.6,3.47Z"/><path d="M622.45,647.91a2.47,2.47,0,0,0,1.59.57,2.5,2.5,0,0,0,1.6-4.42L457.7,505.37a2.5,2.5,0,1,0-3.18,3.85Z"/><path d="M414.05,529.14,605.23,656.53a2.45,2.45,0,0,0,1.38.42,2.5,2.5,0,0,0,1.39-4.58L416.82,525a2.5,2.5,0,1,0-2.77,4.16Z"/><path d="M377.24,551.46,589.57,666.17a2.5,2.5,0,0,0,2.37-4.4L379.62,547.06a2.5,2.5,0,1,0-2.38,4.4Z"/><path d="M344.49,576,575.64,676.72a2.53,2.53,0,0,0,1,.21,2.5,2.5,0,0,0,1-4.79L346.49,571.37a2.5,2.5,0,0,0-2,4.59Z"/><path d="M316.17,602.36,563.6,688.08a2.65,2.65,0,0,0,.82.13,2.5,2.5,0,0,0,.82-4.86L317.81,597.64a2.5,2.5,0,1,0-1.64,4.72Z"/><path d="M292.58,630.39l261,69.73a2.35,2.35,0,0,0,.64.09,2.5,2.5,0,0,0,.65-4.92l-261-69.73a2.5,2.5,0,1,0-1.29,4.83Z"/><path d="M274,659.75l271.73,53a2.81,2.81,0,0,0,.49,0,2.5,2.5,0,0,0,.47-5L275,654.84a2.5,2.5,0,0,0-1,4.91Z"/><path d="M260.61,690.11l279.47,35.64.32,0a2.5,2.5,0,0,0,.31-5L261.24,685.15a2.5,2.5,0,0,0-.63,5Z"/><path d="M252.58,721.14l284.15,17.92h.16a2.5,2.5,0,0,0,.15-5L252.9,716.15a2.5,2.5,0,1,0-.32,5Z"/><path d="M538.21,750a2.49,2.49,0,0,0-2.5-2.5H250a2.5,2.5,0,0,0,0,5H535.71A2.49,2.49,0,0,0,538.21,750Z"/><path d="M539.38,763.28a2.5,2.5,0,0,0-2.65-2.34L252.58,778.86a2.5,2.5,0,0,0,.16,5h.16L537,765.94A2.51,2.51,0,0,0,539.38,763.28Z"/><path d="M542.88,776.42a2.51,2.51,0,0,0-2.8-2.17L260.61,809.89a2.5,2.5,0,0,0,.31,5,1.67,1.67,0,0,0,.32,0l279.47-35.64A2.5,2.5,0,0,0,542.88,776.42Z"/><path d="M548.66,789.25a2.5,2.5,0,0,0-2.94-2L274,840.25a2.5,2.5,0,0,0,.48,5,2.61,2.61,0,0,0,.48-.05l271.73-53A2.51,2.51,0,0,0,548.66,789.25Z"/><path d="M556.66,801.65a2.5,2.5,0,0,0-3.06-1.77l-261,69.73a2.5,2.5,0,0,0,.65,4.91,2.8,2.8,0,0,0,.64-.08l261-69.73A2.51,2.51,0,0,0,556.66,801.65Z"/><path d="M566.79,813.47a2.51,2.51,0,0,0-3.19-1.55L316.17,897.64a2.5,2.5,0,0,0,.82,4.86,2.4,2.4,0,0,0,.82-.14l247.43-85.71A2.5,2.5,0,0,0,566.79,813.47Z"/><path d="M578.93,824.57a2.5,2.5,0,0,0-3.29-1.29L344.49,924a2.5,2.5,0,1,0,2,4.59L577.64,827.86A2.5,2.5,0,0,0,578.93,824.57Z"/><path d="M593,834.84a2.49,2.49,0,0,0-3.38-1L377.24,948.54a2.5,2.5,0,0,0,1.19,4.7,2.56,2.56,0,0,0,1.19-.3L591.94,838.23A2.49,2.49,0,0,0,593,834.84Z"/><path d="M608.7,844.16a2.5,2.5,0,0,0-3.47-.69L414.05,970.86a2.5,2.5,0,0,0,1.39,4.58,2.43,2.43,0,0,0,1.38-.42L608,847.63A2.51,2.51,0,0,0,608.7,844.16Z"/><path d="M626,852.42a2.5,2.5,0,0,0-3.52-.33L454.52,990.78a2.5,2.5,0,1,0,3.18,3.85L625.64,855.94A2.5,2.5,0,0,0,626,852.42Z"/><path d="M644.59,859.55a2.5,2.5,0,0,0-3.53.06L498.2,1008.07a2.5,2.5,0,0,0,.07,3.54,2.49,2.49,0,0,0,3.53-.07L644.66,863.08A2.49,2.49,0,0,0,644.59,859.55Z"/><path d="M664.33,865.45a2.51,2.51,0,0,0-3.5.52l-116.21,156.6a2.5,2.5,0,0,0,2,4,2.48,2.48,0,0,0,2-1L664.85,869A2.5,2.5,0,0,0,664.33,865.45Z"/><path d="M685,870.08a2.51,2.51,0,0,0-3.39,1l-88.29,163a2.51,2.51,0,0,0,1,3.39,2.56,2.56,0,0,0,1.19.3,2.5,2.5,0,0,0,2.2-1.31l88.29-163A2.5,2.5,0,0,0,685,870.08Z"/><path d="M706.28,873.41a2.5,2.5,0,0,0-3.19,1.52l-59.4,167.68a2.5,2.5,0,0,0,1.52,3.19,2.47,2.47,0,0,0,.83.15,2.5,2.5,0,0,0,2.36-1.67L707.8,876.6A2.5,2.5,0,0,0,706.28,873.41Z"/><path d="M728,875.41a2.49,2.49,0,0,0-2.89,2l-29.87,170.49a2.5,2.5,0,0,0,2,2.89,2.25,2.25,0,0,0,.44,0,2.51,2.51,0,0,0,2.46-2.07L730.06,878.3A2.49,2.49,0,0,0,728,875.41Z"/></svg>