<svg id="Abstract_Shape" data-name="Abstract Shape" xmlns="http://www.w3.org/2000/svg" viewBox="0 0 1500 1500"><path d="M261.09,741.14c5.13-.81,9.61-3.57,14.36-5.48,4.91-2.14,10.15-3.38,15.13-5.33,4.89-1.77,9.39-4.58,14.53-5.62a13.07,13.07,0,0,1,8,1.43,10.32,10.32,0,0,1,5.26,10.63c-.71,5.55-5.69,9.21-7.16,14.47-.33,2.42-.43,5.11,1,7.22,1.37,2.8,4.24,4.43,7.08,5.4,5.58,1.55,11.51-1.73,14.21-6.63,3.5-5.68,3.11-12.7,1.52-18.93-1.19-5.64-4.57-10.87-3.76-16.83.41-4.8,4.44-9.45,9.43-9.51,5.14-.47,9.41,3.36,14.5,3.26,3.47,0,6.63-2,8.89-4.46,3.1-3.67,5.37-8,8.69-11.48,5.16-5.85,12.08-9.8,19.21-12.78,7.54-3.11,14.81-6.81,22.06-10.55,3-1.8,6.24-3.53,8.42-6.39a9,9,0,0,0,1.68-9.1c-1.82-4.43-5.34-7.86-8.86-11-3.74-3.27-7.84-6.54-12.79-7.66-8-1.85-15.88,2.38-23.87.75-4.83-.87-9-3.8-12.54-7-6.35-5.85-12.65-12-20.37-16.07a38.74,38.74,0,0,0-15.51-4.34c-4.06-.18-8.23-.28-12.15,1-3.83,1-7,3.48-10,6-3.1,2.8-6.22,5.94-10.38,7.08-6.18,1.65-12.78-4-12.42-10.31-.33-5.52,3.91-10.43,2.39-16-1-5-6.36-9.31-11.56-7.72s-7.75,7.19-8.88,12.18c-1.45,6.27-2.41,13-.36,19.28,1.37,4.11,4.34,7.48,7.66,10.15a65.49,65.49,0,0,0,14.08,8.44c3.39,1.42,7.16,2.58,10.85,1.68,5.17-.62,9.37-4,13.44-6.94,4.7-3.48,9.7-7.23,15.68-8a20.85,20.85,0,0,1,10.09,1.42,32.29,32.29,0,0,1,12.33,8.42,11.26,11.26,0,0,1,3.18,9.56c-.4,4.35-3.33,8.4-1.88,12.85,1.09,3.75,5.7,5.43,9.16,3.89,5.25-2.19,9.14-6.65,14.22-9.19,6.06-2.9,13.12-4.85,19.77-2.88a8.62,8.62,0,0,1,6,5.88c.67,3.44-1.34,6.71-4.13,8.51-4.94,3.31-10.89,4.34-16.34,6.49a69.48,69.48,0,0,0-19.79,11.63c-3.73,2.9-7.45,6.41-12.26,7.27-5.47.92-10.31-2.62-13.61-6.6s-6.28-9-4.95-14.29c1-5.38,5.83-10.12,4-15.88a7,7,0,0,0-8.46-4.93c-5.68,1.6-8.95,6.9-13.22,10.53-4,3.71-9.5,6.28-15.08,5.37-8-1-14.66-5.81-20.88-10.51-3.27-2.37-6.95-5-11.21-4.69-5.74.41-10.26,6.73-8.51,12.27.9,3.38,3.67,5.88,6.48,7.75,4.13,2.51,8.82,3.81,13.22,5.74,5.46,2.24,10.89,5.1,16.89,5.4,4.87.47,9.7-1.23,14.56-.45,7.22.81,14.16,6.19,15.61,13.48.74,5-3.06,9.85-7.91,10.88-6.74,1.72-13.25-3.09-20-1.3-7.23,1.54-12.11,7.64-18.59,10.75-5.65,3.23-12.33,3.54-18.39,5.62-4.21,1.38-8.3,5.51-7.22,10.28C252.4,739.36,257.1,741.83,261.09,741.14Z"/><path d="M256.88,708.55c5.54,2.46,13.24-1.17,14-7.4.53-6-6.52-10.6-12-8.75a9.35,9.35,0,0,0-7,9.05A8.75,8.75,0,0,0,256.88,708.55Z"/><path d="M286.12,887.39A24,24,0,0,1,300,891.52c7.37,4.49,12.37,11.81,16.88,19,4.35,7.16,9.4,14,15.84,19.42,5.31,4.67,11.89,7.6,18.64,9.52,4.6,1.24,9.29,2.68,14.12,2.12,5-.21,9.38-3.07,13.26-6,6.72-5.36,13-11.39,20.57-15.58,7.38-4.13,15.57-6.61,22.85-11,6.3-3.5,11.52-8.62,16.06-14.15,3.16-4,6.55-8,8.52-12.83a12.51,12.51,0,0,0-.67-10.39,32.26,32.26,0,0,0-7.9-9.27c-5.6-4.91-12.26-8.32-18.43-12.4-2.57-1.62-5.21-3.49-8.32-3.78-2.55-.26-5.3,1.74-5.32,4.39-.14,3.14,1.95,5.72,4,7.9,4.35,4.43,9.37,8.21,13.29,13.07a12,12,0,0,1,2.86,7.21c.18,3.9-2.16,7.33-4.77,10-3.84,3.71-8.15,7.12-13.16,9.06a13.64,13.64,0,0,1-11.51-1.43c-4.55-3-8.37-6.87-12.62-10.22-9.22-7.34-18.58-14.56-28.41-21.08a161.68,161.68,0,0,1-18.69-13.9c-6-5.17-12.14-10.17-18-15.53-5.87-5.59-10.47-12.47-17-17.36-5.87-4.61-13.25-6.52-19.55-10.38-5-2.94-9.12-7.26-14.26-10a11.15,11.15,0,0,0-10.05-.64,10.21,10.21,0,0,0-5.46,11.43c1.3,6.39,6.54,11.61,12.6,13.74,5.22,1.76,10.8.52,16.14,1.39,4.23.56,8.69,2.31,11.07,6.06a7.09,7.09,0,0,1-.78,9c-1.9,1.9-4.65,2.5-7.22,2.82-4.29,0-8.53-1.3-12.83-.64-2.71.3-5.47,1.73-6.63,4.32-1.26,2.19-.53,5,.93,6.95,2.64,3.08,6.88,3.91,10.75,3.81a88.91,88.91,0,0,0,19.34-3.46c3.86-1,7.86-2.22,11.89-1.47,6.47,1.24,11.07,6.46,15.46,10.93,4,4.48,8.35,8.8,13.47,12s10.8,4.54,16.1,7A51.19,51.19,0,0,1,363.41,888c5,4,10.7,7.15,15.08,11.89,2.33,2.42,4.38,5.55,3.9,9.09,0,4-3.2,7.21-6.19,9.51-5.49,4.12-12.4,7-19.37,5.73-6.75-1.46-12.41-5.89-17-10.89-5.3-5.78-8.68-13-13.45-19.15a68.74,68.74,0,0,0-18.61-17.25c-7.09-4.13-15.46-4.58-23.34-6-4.05-.75-8.36-1.23-12.34.1a8,8,0,0,0-5.55,6.88,8.82,8.82,0,0,0,5.37,7.92C276.27,888.2,281.42,887.13,286.12,887.39Z"/><path d="M284.33,750.44c-4.33.07-8,2.52-11.84,4.19-3.73,1.83-7.7,3.08-11.47,4.82-2.72,1.46-5.5,3.27-6.94,6.1-1.07,1.84-1,4.08-.71,6.11,1.49,5.79,8.09,9.31,13.83,8.23,7.39-1.36,13-6.81,18.58-11.4,3.48-3.08,7.67-7.14,6.72-12.28C291.9,752.54,288,750,284.33,750.44Z"/><path d="M298.23,915.23C296.77,910.39,292.48,907,288,905a10.39,10.39,0,0,0-11,1.4,8.14,8.14,0,0,0-2.28,7.79,13.1,13.1,0,0,0,3,6.12c3,3.4,7.07,6.79,11.9,6.14C295.08,926.46,300.05,920.63,298.23,915.23Z"/><path d="M290.61,583c5.37,3.77,10.95,7.26,16.52,10.74,6.45,3.64,14.19,6.81,21.63,4.37,3.91-1.29,7.7-5.11,6.67-9.54-1-4.66-5.59-7.29-9.92-8.2-4.54-1.07-9.35-1-13.71-2.84-6.07-2.07-10.76-6.77-16.68-9.14a8.45,8.45,0,0,0-7.9.66,6.06,6.06,0,0,0-2.45,6.16C285.33,578.52,288,581.08,290.61,583Z"/><path d="M317.11,949.49c1.53-3.55.81-8.3-2.55-10.57-3.68-2.85-8.87-2.36-12.82-.36-3.14,1.74-6.27,3.79-8.23,6.87-1.35,2-2.4,4.51-1.94,7,.49,5.14,5.52,9.49,10.71,8.86,3.46-.39,6.45-2.38,9.08-4.53C313.62,954.66,315.91,952.39,317.11,949.49Z"/><path d="M318.68,781.3c-5.53-1.59-11.44-3.35-17.13-1.45-4.51,1.29-8.89,5.77-7.6,10.78.76,3.19,3.59,5.42,6.56,6.48,4.81,1.68,10.06.58,14.92,2a16.6,16.6,0,0,1,8.39,5.22c5.1,5.68,6.61,13.66,12,19.12a158.29,158.29,0,0,0,16,14c7.7,5.85,14.4,12.85,21.39,19.5,4.67,4.22,8.92,8.87,13.75,12.92a13.6,13.6,0,0,0,5.29,3c2.88,1.11,6.58-.58,7.23-3.71.91-4.23-2-7.85-4.53-10.84-4.76-5.12-9.64-10.13-14.16-15.47-3.17-3.78-6.43-7.92-7.16-13-.78-4.78.12-9.75-1.29-14.47-1.18-4.34-4.44-7.74-7.91-10.44-4.76-3.49-10.49-5.16-15.79-7.61s-9.83-5.69-14.48-8.95A50.58,50.58,0,0,0,318.68,781.3Zm33.37,31c3.47.76,5.05,5.76,2.25,8.17-2.53,2.43-7.28.92-7.9-2.53C345.21,814.56,348.7,811,352.05,812.25Z"/><path d="M299.16,553.68a57.13,57.13,0,0,0,11.74,6.94c2.69,1.06,6.11,1,8.28-1.12s1.7-6,.09-8.45A48.5,48.5,0,0,0,310,540.51c-2.4-2.07-5.4-4-8.71-3.71-4.69,0-8.72,5-7.29,9.65C294.48,549.5,296.89,551.79,299.16,553.68Z"/><path d="M364.6,1003.19c3.63-1.41,7-3.56,10.7-4.71a12.47,12.47,0,0,1,10.34,1.53c5.59,3.28,9.61,9.12,16.07,10.88,5.2,1.61,10.44-.76,15.29-2.43a17,17,0,0,1,12.5.12c4.31,1.76,8.15,4.76,12.83,5.51,3.8.71,8-1.71,8.79-5.57.49-3.55-1.49-6.91-4-9.23-3.93-3.76-8.76-6.93-11-12.08-3.22-6.88-2.08-14.68-.89-21.89,1.37-8.85,7.86-15.71,9.68-24.41a17.33,17.33,0,0,0-2.37-12.59c-1.61-2.45-4.31-4.54-7.39-4.33-3.25.12-5.81,2.83-6.69,5.79-1.05,3.71-.86,7.65-2,11.32a8.07,8.07,0,0,1-8,5.41c-4.87-.49-8.52-4.33-13.19-5.45a12.31,12.31,0,0,0-11.08,3c-1.89,1.87-3.59,4.45-3.08,7.25-.11,2.94,2.09,5.38,4.51,6.75,5.23,3,11.76,1.49,17.09,4.26,5.29,2.55,8.18,8.36,8.81,14,.43,5.56-.92,12-5.64,15.49a9.39,9.39,0,0,1-8.59,1.72c-5-1.33-8.21-5.83-11.82-9.23-5.43-5.84-12.07-10.29-18.32-15.17-4.95-3.75-10.11-7.4-16-9.44-6.27-2.14-12.83-4.4-19.56-3.7-6.38.71-11.42,5.11-15.88,9.35-3.79,3.92-8.09,7.36-11.34,11.77-1.8,2.62-3.13,5.82-2.51,9.06.6,4.77,3.74,8.66,6.71,12.23,3.81,4.36,8.63,8.59,14.57,9.41,5.57.59,11.09-.57,16.59-1.26C354.69,1005.89,359.85,1005.21,364.6,1003.19Zm-27.81-13.3a9.39,9.39,0,0,1-3.73-5.76c-.75-3.68,1.43-7.26,4.32-9.34,5.27-4,12.74-4,18.66-1.48,3.38,1.55,7,3.63,8.35,7.35.42,2.18.65,4.77-1,6.55-2.2,3.21-6.12,4.58-9.75,5.34C348,993.77,341.65,993.3,336.79,989.89Z"/><path d="M1206.61,714.1c4.68-4.15,11.29-5.53,17.4-5.16,5.43-.17,10.89,1.68,16.28.27,4.1-.67,7.88-4,8.28-8.28a8.8,8.8,0,0,0-6.51-8.83c-4.2-1.41-8.69-.07-12.76,1.1-6.63,2.15-13.49,3.59-20,6.12a74.88,74.88,0,0,0-13.22,6.91c-4.94,3-10,7.15-16.18,6.52-6.34-.78-10.78-6.15-13.87-11.3-2.61-4.64-5.28-10-3.83-15.48,1-4.25,4.17-7.6,7.49-10.28a105.12,105.12,0,0,1,25-15c7.24-3.2,14.07-7.23,21-11,5.2-3,11.12-5.48,14.46-10.71,2.74-4.08,1.5-9.4-.22-13.64-3.08-7.34-4.32-15.77-9.92-21.79-5.09-5.26-12.3-7.14-18.81-9.94a97.24,97.24,0,0,1-13.66-7.38c-4.25-2.48-8.82-5.1-13.94-4.74-6.22.12-11,4.53-15.53,8.2-4.06,3.6-8.8,6.84-14.28,7.65-6.35.7-12.69-.31-18.91-1.49a58.21,58.21,0,0,1-20.28-7.56,67.81,67.81,0,0,1-12.48-10.05c-3.6-3.11-6.55-7.18-11-9.12a8.93,8.93,0,0,0-10.85,3.28c-2.63,3.84-1.77,9.23,1,12.76,4.5,6.27,11.82,9.32,18.48,12.66s13,7.87,20.06,10.75a45.78,45.78,0,0,0,18.17,3.17c5.63.23,11.7-.85,17,1.66,3.87,1.67,7,5.72,6.53,10.07-.17,5.08-4.32,9.12-3.94,14.3a7.28,7.28,0,0,0,7.92,6.77c5.25-.51,8.63-5.05,13.1-7.3,4-2.51,8.91-2.72,13.37-4.11,2.2-.81,4.39-2.41,5-4.8.88-2.36-.56-5.05-2.56-6.34-3.72-2.47-8.43-1.94-12.56-3.17a11,11,0,0,1-7.53-5.78,8.45,8.45,0,0,1,1.8-9.69c3.5-3.86,9.23-4.76,14.12-3.57a58.17,58.17,0,0,1,13.86,5.7,29.48,29.48,0,0,1,13.43,15.06c2,5,2.81,10.9.24,15.86-2.9,5.17-8.15,8.45-13.58,10.45-5.71,2.12-11.63,3.77-17,6.65-6.45,3-11.88,7.67-17.78,11.56-2.56,1.64-5.46,3.18-8.58,3-3.56.13-6.65-1.92-9.24-4.14a38.38,38.38,0,0,1-11.3-18.92c-1.19-5-2.29-10.55-6.46-14a9.07,9.07,0,0,0-12.94,1.22c-4.3,4.67-3,11.92.28,16.77A185.48,185.48,0,0,0,1128.24,672c5.11,5.74,11,10.86,15.46,17.13,3.68,5.21,7.5,10.44,10,16.35a10.83,10.83,0,0,1,.06,8.54,7.19,7.19,0,0,1-7.36,3.81c-3.59-.41-6.39-2.95-8.8-5.41-4.78-5.35-8.93-11.22-13.54-16.71-5.92-7.21-12.23-14.1-17.85-21.56-4.17-5.31-8.07-10.83-12.57-15.88-7-7.82-16.31-13-23.82-20.33-6-5.77-11-12.58-17.7-17.56s-14.41-8.88-20.75-14.51c-9.64-8.33-18.79-17.44-25.74-28.19-4.68-6.78-10.59-13.75-19-15.72-8.39-2.22-17.21-.68-25.51,1.23-7,1.44-13.43,5.6-20.74,5.33-4.75,0-9.29-1.52-13.81-2.8-15.24-4.23-31.05-5.54-46.65-7.84-8.71-1.32-17.51-2.28-26.07-4.46-6.06-1.4-12-3.47-18.23-4-7.14-.65-14.32-.35-21.48-.44-5.92,0-12-.07-17.69,1.9-4.09,1.31-8.08,3.22-12.41,3.59a21.94,21.94,0,0,1-11.57-2.63c-6.42-3.2-12.37-7.69-19.48-9.27-6.66-1.71-13.32,2.39-19.95.41a8.78,8.78,0,0,1-6.17-6.85,12.62,12.62,0,0,1,2.2-8.48c2.67-4.12,5.54-8.11,8.26-12.2,2.16-3.2,4.8-6.52,8.68-7.65a7.36,7.36,0,0,1,7,1.86c3.4,3,4.74,7.49,7.16,11.21a26.88,26.88,0,0,0,8.32,9.16c2.9,2.14,6.59,3.55,10.23,2.8,3.89-.58,7.14-4.42,6.63-8.4,0-2.73-1.56-5.12-3.2-7.16-4.06-4.72-10.28-7.5-13-13.33a9.37,9.37,0,0,1-.59-6.77c1.06-3.95,4.24-7.3,4-11.58.16-3.91-2.93-7.29-6.41-8.65-3.87-1.61-8.3-.42-11.7,1.73-5.71,3.75-9.94,9.23-15,13.73-7,6.2-13.68,12.82-18.65,20.75-2.92,4.6-4.76,9.75-7,14.7-1.85,4-4.35,8-8.47,9.88a8.87,8.87,0,0,1-6.5.56c-4.28-.82-7.27-5.2-7.16-9.44,0-4.62,2.86-8.5,5.4-12.11,2.94-4,6-7.88,8.86-11.9,6.54-9,13.86-17.36,20.65-26.15,4.36-5.51,7.84-11.65,12.13-17.21,2.8-3.47,6.37-6.93,11.05-7.34,5.35-.54,10.13,2.39,15,4,6.39,2.46,13.46,1.72,19.87,4.09,5.94,2.31,11.23,7.38,12.17,13.9,1,6.77-3.52,12.88-2.73,19.62.5,6.18,3.53,11.71,5.76,17.38,2.66,6.57,6.3,13.58,13.19,16.47,7.6,3.32,17.53.07,21.34-7.38A8.88,8.88,0,0,0,833,512.6c-3.3-3.42-8.38-3.53-12.62-4.89-6.71-1.89-11.2-9.09-10.37-15.94.13-4.92,3.21-10.11,8.17-11.4,4.5-1,8.57,1.62,11.84,4.39,3.59,3.05,7.05,6.29,11.09,8.76,3.86,2.65,8.31,4.87,10.93,8.92a13,13,0,0,1,2.34,8.84c-.12,4.13-2.15,8-1.7,12.17,0,3.91,2.33,7.44,5.31,9.8,3.46,2.76,7.67,4.32,11.85,5.64,7.55,2.1,15.35,3.85,23.26,3.4,5.78-.3,11.8-.19,17.24,2.05,4.14,1.43,8.14,3.95,12.72,3.29,2.77-.38,5.39-2.83,5.11-5.79.13-3.25-2.3-5.82-4.5-7.89-4-3.38-8.38-6.4-12.12-10.12q-5.34-5.33-10.68-10.65c-2.56-2.57-5-5.67-5.4-9.41-.65-3.5,1.06-7.54,4.59-8.77s7.3.74,10,3.1c4,3.69,7.62,7.79,11.67,11.43,6.57,6.17,13.65,11.94,18.93,19.31,2.77,3.82,4.78,8.14,7.7,11.85,2.35,2.81,5.92,5.56,9.81,4.4,3.18-.73,5.21-4,5.34-7.11,0-3.8-1.95-7.18-3.91-10.3-3.69-5.48-7.53-10.95-12.41-15.46-5.79-5.55-12.61-9.86-18.66-15.11-5.69-4.79-11.16-9.83-17.06-14.36-3.08-2.51-6.25-5.18-8.06-8.8a11.47,11.47,0,0,1,.58-11.21,32.92,32.92,0,0,1,7.7-8.89c2.52-2,5.64-3.85,9-3.12,3.28.46,5.6,3.39,6.71,6.32,1.47,4.09.9,8.54,1.78,12.74.8,5.07,4.12,9.26,7.57,12.86s7.09,7.21,11.83,9c1.48.73,3.13.47,4.73.31,3.71-.54,6.86-4.34,6.31-8.14-.06-4.55-4-7.63-6.86-10.62-4.8-4.34-8.71-9.86-10.12-16.26-1.46-6.57-2.37-13.45-5.82-19.37-2.11-4-5.55-7.71-10.17-8.47-4.13-.64-7.9,1.51-11.16,3.72A142.87,142.87,0,0,0,899,445.93c-3.13,2.8-6.57,5.86-10.94,6.26-4.64.34-8.93-2.84-10.82-6.94s-.64-8.79.79-12.87a53.1,53.1,0,0,0,3.27-15.1c1-16.53,5.85-32.61,6.25-49.21.08-7.62-3-15-1.94-22.68.5-4.76,1.21-9.59.32-14.35-1.14-6.35-3.52-12.43-4.2-18.87-.91-8.24-2.17-16.43-2.86-24.69-.58-5.72-1-11.8-4.35-16.72-2.33-3.47-5.71-6.86-10-7.4-3.89-.53-7.3,2.31-8.71,5.72-1.65,4.41-.37,9.18,1.56,13.26,2.41,5,5.11,9.8,6.85,15,2.08,6.48,3,13.25,4.43,19.88,1.23,5.72,1.82,12.15-1.13,17.44-2.55,5-7.63,8.06-10.63,12.75-1.92,2.49-2.18,6.45,0,8.82,3.59,3.41,9.16,1.64,13.05,4.45a8.73,8.73,0,0,1,3.38,7.45c0,4.15-1.8,8-1.91,12.18-.3,7.21.93,14.49-.28,21.66-1,6.82-3.79,13.16-5.39,19.81-1.33,5-2.19,10.45-5.55,14.61a9.38,9.38,0,0,1-9.9,2.9c-6-1.82-9.66-7.8-15.69-9.49-4.52-1.64-10.37.2-12.44,4.71a7.54,7.54,0,0,0,.92,8.29c2.84,3.91,7.43,5.83,11.81,7.46,7.52,2.59,15,5.17,22.62,7.57,6.59,2.21,13.44,3.71,19.77,6.63,4.79,2.1,9.84,6,10.26,11.59.37,6.12-5.12,10.64-10.52,12.14s-11.19-.1-16-2.72c-10.12-5.58-19.07-13.23-29.89-17.53-5.51-2.23-11.53-2.83-17-5.2-6.07-2.59-11.31-7.54-13.4-13.89-1.28-4-1-8.17-1.32-12.27-.48-6.46-4.41-12.19-9.26-16.26-5.83-5.22-13.06-8.52-18.94-13.65-6.66-5.26-11.15-12.58-16.64-18.93-5.77-6.76-14.28-10.51-19.75-17.58-6-7.07-8.51-16.14-11-24.84-2.19-7.66-6.15-14.64-10.35-21.35a52,52,0,0,0-5.34-7.41c-1.9-1.73-4.3-3.41-7-3.09a7.16,7.16,0,0,0-6,4.67c-1.46,3.52-.43,7.48,1.34,10.66,2.81,4.72,6.37,8.93,9.18,13.63,6,9.61,8.79,20.65,13.7,30.76,1.77,4,4,7.83,4.68,12.18a17.58,17.58,0,0,1-1.61,10.43c-3,6.62-7.69,12.51-9.74,19.59-1,3.65-.93,8.25,2.14,10.93,2.56,2.58,7,1.89,9.36-.61,5.12-4.77,5.24-12.21,8.21-18.16a10.36,10.36,0,0,1,6.57-5.87c3.93-.75,7.47,1.69,9.93,4.49,3.65,4.14,7.21,8.44,11.67,11.74,5.3,4.09,11.31,7.15,16.52,11.34,2.44,1.95,4.7,4.46,5.53,7.53.46,2.47.28,5.38-1.69,7.16-2.66,2.94-7.08,2.94-10.58,1.82-7.91-2.74-13.25-10.15-21.34-12.45-5.92-1.43-11,2.58-14.89,6.48a82.28,82.28,0,0,0-9.72,11.92c-3.27,4.75-5.49,10.1-8.31,15.1-5.34,9.9-12.68,18.46-19.47,27.35-7,8.79-13,18.33-19,27.78-2.43,3.86-4.88,7.89-5.62,12.46a15,15,0,0,0,1.47,7.7,22.14,22.14,0,0,0,17.82,12.08c5.74.33,11.41-1.44,17.15-.56,8,.69,14.93,5.61,23,5.8,7.65.19,15.42-2,23,.13,6,1.73,12.08,5.18,15.24,10.81,2,3.63,1.89,8.07.63,11.94A100,100,0,0,1,765,595.16c-1.93,3.69-4.05,7.53-7.6,9.88a8.87,8.87,0,0,1-6.47,1.55c-3.81-.42-6.83-3.09-9.41-5.69-4.3-4.11-8-8.79-12.27-12.92-3.84-4-8.1-7.82-13.36-9.76a55.32,55.32,0,0,0-14.67-3.11c-4.35-.24-9-.19-13,2-4.62,2.24-7.83,6.39-11.47,9.86a113,113,0,0,1-19,16.52c-7,4.57-14.39,8.74-22.47,11-11,3-22.41,4.32-33.25,7.91-6.6,2.22-12.37,6.22-18.08,10.08C576.16,637.85,567.1,641,558,643c-4.64,1-10,.3-13.55-3a11.25,11.25,0,0,1-3.2-9.27c.7-5.77,4.41-10.54,5.5-16.2.95-5.36.4-10.85-.33-16.21A71.9,71.9,0,0,0,543.88,586c-1.71-5.68-4.53-11-5.17-17-.72-8.34,3.81-16.1,3-24.45-.16-5.21-2.26-10.24-1.8-15.49a15.37,15.37,0,0,1,6.95-11.49c6-3.89,13.37-6.54,20.52-4.87,3.53.88,7,3.5,7.59,7.24.65,4-2,7.31-4.54,10-3.67,3.28-7.34,6.81-9.39,11.36-1.86,3.57-2.3,7.64-2.62,11.58a99,99,0,0,0,3.23,27.84c1.49,5.71,2.65,11.56,2.36,17.49.14,4.53-.48,9.6,2.11,13.61a7.35,7.35,0,0,0,7.49,4,9.31,9.31,0,0,0,6.3-4.38c2.18-3.5,2.54-7.79,2-11.79-.87-5.77-2.38-11.43-3.66-17.12-1.58-6.83-3.84-13.53-4.65-20.51-.14-3.82-.22-7.82,1.24-11.44,2.3-6.14,7.51-11.57,14.14-12.79,3.65-.6,7.33.17,11,.49a28.26,28.26,0,0,0,14.18-2.6c9.15-4.21,15.49-12.86,24.9-16.6,5.67-2.49,12.26-1.79,17.77-4.74,4.73-2.31,8.39-6.22,11.78-10.14,4.44-5.28,8.6-10.79,12.78-16.27,5.78-7.81,12-15.38,16.64-24,2.28-4.42,4.53-9.26,4-14.38-.43-6.48-4.2-12-5.75-18.22-2-6.37-1.2-13.25.49-19.6,2.13-7.58,5.33-14.91,6.28-22.78.65-9.59-2.94-18.79-7.13-27.22-3.13-6.08-6.71-12-11.47-17-3-2.88-7.1-5.27-11.41-4.51-5,.79-8.94,4.24-13.23,6.62-6.5,4-14,5.89-20.55,9.67a41.22,41.22,0,0,1-8.89,3.85c-2.83.38-5.92.23-8.29-1.55-4.36-3.06-5.39-9.22-3.36-13.94,2.21-5.46,6.75-10.46,12.74-11.56,4.6-.41,9.22,1.25,13.8.15a8,8,0,0,0,5.48-9.83c-1.42-5-5.25-9-9.3-12A11.59,11.59,0,0,0,629.5,310c-5,2.48-8.46,7-11.83,11.3-5.8,7.79-11.33,15.92-15.08,24.92a20.85,20.85,0,0,0,.61,16.89c2.18,4.52,4.5,9.1,7.92,12.82,2.57,2.66,6.18,4.74,10,4.22,5-.49,9.28-3.41,13.77-5.46,6.28-3.06,12.84-5.48,19.21-8.36,4.52-2,8.87-4.52,13.77-5.49a13.83,13.83,0,0,1,11.85,4.26c6.12,6.07,8.81,15.19,7.74,23.66-.68,7.82-4.1,15-5.86,22.56a58.51,58.51,0,0,0,.69,29.44c1.08,4.48,2.77,9,2.19,13.67-.37,4.83-2.48,9.33-5.15,13.29a143,143,0,0,1-9.58,12.35c-3.23,3.76-6.46,7.59-10.39,10.64a21.46,21.46,0,0,1-11.3,3.85c-3.1.35-6.29.69-9.11,2.14a31.54,31.54,0,0,0-5.89,4.17c-6.58,6.06-12.79,12.53-19.71,18.22-3.3,2.58-6.92,5.2-11.2,5.68-3.85.61-8.33-1-10.24-4.59a8,8,0,0,1,.9-8.89c3.25-4.07,8.28-6,12.43-8.91,5-3.16,9-7.78,12.16-12.73,3-4.63,6.2-9.15,8.73-14.07,2.52-4.74,3.61-10.06,4.22-15.36.75-6.87,1.72-13.92.21-20.77-1.34-6.16-4.64-12.34-2.41-18.76,2.55-6.94,9.14-11.33,15.58-14.36,7-3.41,15.23-3.57,21.52-8.39,2.77-2.27,5-6,4-9.64-.62-3.63-4.48-6-8-5.66-4,.09-7.42,2.2-10.73,4.12A99.39,99.39,0,0,1,636.68,394c-6.31,2.68-13,4.55-18.7,8.57s-9.31,10.85-8.51,17.78c.63,8.47,4.67,16.35,4.69,24.91.48,9.12-2.95,17.76-6.25,26.07-3.78,9.7-10,18.69-18.93,24.33a22.37,22.37,0,0,1-13.06,3.54c-6.32-.27-12.7-.7-19,.27a35.67,35.67,0,0,1-8.76.16,15,15,0,0,1-12.49-14.94c0-3.66,1.48-7.08,2.9-10.38,3.4-6.87,6.72-13.81,10.78-20.33,2.65-4.51,5.94-8.75,7.53-13.8,1-3.38.7-7.72-2.4-9.95-2.47-2-6.08-1.21-8.41.62-4,3.28-5.89,8.17-8.06,12.66a242.07,242.07,0,0,1-12.59,24.18c-3,5.29-7.23,9.88-9.72,15.49A10.48,10.48,0,0,0,517,493.23c2.42,3.46,5.91,5.95,8.57,9.2,2.61,3,3.65,7.67,1.33,11.08-3.24,4.46-9.05,5.55-14.21,6-5.77.4-11.57,2.33-17.32.69-4.58-1.24-8.13-5.81-7.67-10.63,0-2.86,1.22-5.55,1.64-8.37.16-2.44.28-5.19-1.11-7.34-2.43-4.38-7.19-6.59-11.54-8.61q-7.69-3.42-15.4-6.82c-4.2-1.72-8.73-3.36-13.31-2.32-5.75.87-10,5.72-15.78,6.4-3.72.34-7.19-2-8.87-5.24a21.56,21.56,0,0,1-2.32-9.81c-.09-9.67,0-19.43-1.56-29-.94-6.41-4.87-11.87-5.77-18.27-.61-4.6,2.45-9.72,7.34-10.18,6.14-.41,10.48,4.45,15.12,7.62C443,423,451.64,425,459.73,427.78c5,1.58,9.95,3.59,15.1,4.8a22.53,22.53,0,0,0,11.94-.62c4.45-1.6,8-4.85,11.83-7.46a13.67,13.67,0,0,1,7.07-2.6c2,.22,4.26,1,5.34,2.9,2.11,2.62,1.51,6.35.4,9.26-1.7,3.94-4.62,7.17-7.47,10.31-4,4-8.56,7.92-14.29,8.8a27.78,27.78,0,0,1-12-1.81,185.42,185.42,0,0,1-20.23-7.9c-3.94-1.8-7.94-4.13-12.43-3.84-3.94-.07-7.8,3.63-7.13,7.66.09,3.73,3,6.75,6.13,8.42,4.28,2.34,9.25,2.74,13.92,3.86a91.71,91.71,0,0,1,16.68,5.55c5.25,2.22,10.17,5.26,15.66,6.89a12.61,12.61,0,0,0,8.74-.91c4.19-2.13,7.1-6,10-9.61,4.48-6,8.73-12.22,11.72-19.1,3-6.63,4.31-14.05,8.81-19.93,6-8,16.73-10.43,22.68-18.5,5-6.29,6.44-14.42,9.88-21.54,1.65-3.65,4-7,5.16-10.86.84-3.16.83-7.05-1.81-9.39-2.49-2.54-6.8-2.19-9.43-.07-3.81,3.11-5.67,7.8-7.28,12.29-2.69,7.8-5.47,15.77-10.46,22.44-2.09,2.78-4.75,5.44-8.23,6.27-2.1.21-4.56.14-6.12-1.49-3.32-3-3.16-8-2.08-12.05A129.59,129.59,0,0,1,530.83,369c3.41-6,8-11.75,9-18.8,1.17-7.69-2.81-14.8-3.35-22.34-.38-6.61,3.12-12.43,4.81-18.62,1.12-3.78,0-8.41-3.35-10.7-3-2.06-7.08-1.26-9.9.75-6.07,4.2-10.59,11.68-9.19,19.26.87,6.69,3.88,12.84,5.52,19.34,1.32,4.77,1.44,10.88-2.72,14.28-3.32,2.77-8.29,1.11-10.67-2.09-4.94-6.19-4.68-14.58-7.25-21.75-1.39-3.34-3.79-6.87-7.58-7.57-5-.92-9.67,3.74-9.75,8.61a16.77,16.77,0,0,0,2.95,10,121.67,121.67,0,0,0,9.78,13.92c4.44,5.58,9.35,11.18,11.11,18.27.93,5.11.29,10.34-.59,15.4-.79,4.63-1.92,9.33-4.39,13.38-3.71,6-9.73,10-15.91,13.13-5.13,2.51-10.8,4.43-16.59,3.82-9.94-.61-18.43-6.38-26.38-11.83-5.8-4.11-12.3-7-18.67-10.08-4.8-2.25-9.18-5.7-14.54-6.49-4.83-.62-9.17,2.05-12.46,5.28-2.83,2.93-5.48,6.36-6.1,10.5-.69,4.54,1.17,8.84,2.9,12.92a76.52,76.52,0,0,1,5.88,22.55c1.81,12.89.77,26.23,4.87,38.74,1.67,5.43,4.39,10.88,3.54,16.71-.44,5.66-4,10.74-3.32,16.53,0,3.72,3,8,7.06,7.42a7.65,7.65,0,0,0,5.72-2.88c3.67-4.1,5.6-9.43,9.34-13.48,4.42-4.92,10.63-7.87,17-9.43a26.11,26.11,0,0,1,11.6-.35c4.77,1.12,9.66,3.93,11.44,8.75a8.6,8.6,0,0,1-3.49,9.7c-5.74,3.87-13.13,2.48-19.24,5.35-5.32,2.31-9.27,6.78-12.7,11.31-5.82,7.7-11.3,15.9-19,21.91-2.8,2-6.17,3.86-9.79,3.16-5.19-.86-8.9-5.4-10.62-10.12-2.3-5.81-1.28-12.21-2.53-18.24-1.22-6.56-4.27-12.81-4.09-19.6-.13-5,1.07-9.85,1.15-14.82-.11-8.54-1.92-16.91-3.07-25.35-1.28-9.23-2.78-18.46-3.29-27.79-.31-4.45-.76-9.18-3.32-13-1.62-2.48-4.58-4.35-7.63-4-3.82.33-6.69,3.52-8.4,6.7-2.51,4.39-1.76,10,.48,14.3,2.4,4.57,5,9.11,6.3,14.14,2.21,7.77,1.19,16,2.55,23.87.61,4.4,1.74,8.89.87,13.34a12,12,0,0,1-6.48,9.19c-4,2-8.83.78-12.35-1.64-4.49-3-8.23-8.21-7.31-13.88.88-6.12,5.53-10.78,6.88-16.75,1.32-4.94.13-11.37-4.8-13.92a7.48,7.48,0,0,0-8,1.64c-2.83,2.54-4.16,6.16-5.54,9.59-1.56,4.11-3.08,8.28-5.46,12-2.14,3.62-4.86,7.1-5.58,11.34a11.73,11.73,0,0,0,3.52,9.33c3,3.14,6.85,5.23,10.34,7.73,4.83,3.35,9.39,7.37,15.06,9.25,5,1.65,10.39.12,15.44,1.46a9.64,9.64,0,0,1,7.06,9.19c.41,5-2.8,9.64-1.86,14.67.57,4.58,3.76,8.29,7,11.31,4,3.79,9.08,6.62,11.85,11.55a8.13,8.13,0,0,1-.77,8.58,8.89,8.89,0,0,1-7,2.8c-4.34,0-8-2.55-11.32-5-6.93-5.61-13.22-12.18-17.64-20-3.45-6-7.07-12.08-12-17-4.4-4.28-8.5-8.91-13.36-12.7-2.79-2.13-6.29-4.19-9.95-3.07a6.06,6.06,0,0,0-4,7.56c1.07,4.79,5.52,7.75,8.65,11.17a61.41,61.41,0,0,1,12.52,16.82c2.79,5.44,5.42,11.07,9.45,15.74a40.67,40.67,0,0,0,13.36,10c4.77,2.26,9.74,4.05,14.57,6.17,4,1.63,7.78,3.65,11.84,5.07,3,.88,6.33,1.7,9.45.6,4.81-1.15,8.3-5,10.81-9,3.79-6.3,6.25-14.34,13.49-17.61,6.15-3,12.4,2.83,18.58.19,3-1.12,4.95-4.13,5.56-7.2.57-4.54-1.23-9-.54-13.55a14.43,14.43,0,0,1,3.87-7.68,42.71,42.71,0,0,1,13.7-9.13c3.59-1.64,7.73-2.42,11.57-1.14,4.8,1.41,8.32,7,6.57,11.87-1.65,5.28-6.1,8.93-9.33,13.2-4.48,5.48-7.27,12-11.17,17.87-2.19,3.43-4.68,7.05-4.73,11.28a9.86,9.86,0,0,0,9.2,10,9.16,9.16,0,0,0,6.14-2.34c3.68-3.14,5-8,6.59-12.36a57.35,57.35,0,0,1,6.82-13.34q5.13-7.64,10.05-15.42c3.51-5.51,8-10.88,14.2-13.39,2.44-.76,5.11-1.46,7.63-.65,7.19,1.39,12.23,9.71,9.59,16.71-2.29,6.4-8.38,10.15-13.63,13.93-6.1,4.29-11,10-15.63,15.77a27.52,27.52,0,0,0-4.92,8.43c-1.41,4.2.7,9.38,4.94,11,4.25,2,8.87-.7,11.4-4.12,3.11-3.79,4.54-8.84,8.46-12,2.19-1.65,5.24-2.51,7.81-1.2,4.52,2.35,6.59,7.78,6.34,12.65,0,7.48-4.44,13.94-5.53,21.19-.59,5.17.42,10.28.93,15.39.57,5.53-2,11.38-7,14.13-4.5,3-11,3.54-13.75,8.76a6.76,6.76,0,0,0,.42,6.28c2.77,4.16,8.13,6.08,13,5.64,5.05-.22,9.5-2.93,14-5a31.14,31.14,0,0,1,13.88-2.74c5.19.1,10.28-.9,15.41-1.5,4.86-.64,10.23.78,13.4,4.71,6,6.72,5.56,16.64,11,23.69a40.25,40.25,0,0,0,14.62,11.47c2.84,1.31,6.08,2.16,9.19,1.23,3.78-1,7.1-4.71,6.6-8.74,0-3.91-3-7-5.76-9.35-5.2-4.25-10.75-8.17-15.07-13.39-3-3.56-6-7.87-5.46-12.8.52-4.62,4.13-8.05,7.64-10.72a140.61,140.61,0,0,1,16-10c3.27-1.78,7.12-3,10.83-2,3.38.85,6.24,4.28,5.72,7.86a10.11,10.11,0,0,1-2.75,6.44c-2.61,3-5.87,5.43-8.19,8.69a8.62,8.62,0,0,0,.38,10c3.15,4.28,9.5,5.41,14.16,3.06a18.69,18.69,0,0,0,10.66-17.2c.1-5.16-.55-10.54,1.42-15.46,1.83-4.75,5.46-8.52,9.26-11.8,6.19-5.3,12.78-10.13,19.14-15.23a147.44,147.44,0,0,1,13-9.51c3.2-1.86,6.58-3.74,10.33-4.15A18.71,18.71,0,0,1,711,596.09c5.87,3.28,10.63,8.1,15.73,12.41,4.14,3.59,8.43,7,12.74,10.37s8.46,7.49,10.23,12.85c1.74,4,1.46,8.54,1.15,12.81A37.75,37.75,0,0,1,743,663.84c-3.86,5.29-9.57,9.29-12,15.54-2.12,5.11,1.48,11.74,7.07,12.41,3.9.5,7.51-1.71,10-4.56,3.5-4,5.69-9,7.79-13.84,3.74-9,7.19-18.2,8.22-27.94.71-6.44,0-13.05,1.68-19.38,2.71-9.38,11.05-15.57,14.56-24.55,2.32-5.2,3.22-10.86,4.31-16.41.9-4.81,3-9.55,6.73-12.84,4.66-4.51,11.33-5.86,17.56-6.47a65.36,65.36,0,0,1,18.79.22c6.71,1.16,13,3.94,19.83,4.75a108.46,108.46,0,0,0,15.71-.4,122,122,0,0,1,19.75,1.12,254.94,254.94,0,0,1,35.26,6.83,33.19,33.19,0,0,1,9.19,4.12,16.06,16.06,0,0,1,6.47,9.2c1.1,3.44,1.12,7.16,2.58,10.48a8.37,8.37,0,0,0,4.77,4.76,6.81,6.81,0,0,0,6.57-1.7c4-4.11,3-10.5,4.93-15.55a17.64,17.64,0,0,1,9.37-9.86c6.26-3.18,13.83-4.33,20.53-1.87,3,1.28,6,3.42,6.93,6.7a7.48,7.48,0,0,1-2.2,7.69c-3.38,3.27-8.24,3.81-12.33,5.75-3.46,1.54-6.87,5-5.93,9.08,1,4.4,6.17,6.66,10.34,6,7.14-.78,12.21-6.49,18.77-8.78,5.42-1.78,10.73,1.23,14.81,4.53,6.67,5.43,13.52,10.63,20.49,15.67,13.21,9.62,25.21,20.77,37,32.07,7.48,7.49,14.78,15.23,20.81,23.95,3.83,5.35,7.31,11,11.56,16,3.2,4,7.09,7.33,10.47,11.16,4.78,4.8,9,10.2,14.24,14.5,4.13,3.61,9.06,6.12,13.44,9.39a24.25,24.25,0,0,1,8.52,11.89c1.24,3.81,2.17,7.84,4.63,11.1,2.26,3.13,5.73,5,9.16,6.55,3.12,1.6,6.73,3.06,8.54,6.27,1.87,2.85,1,6.93-1.36,9.22-3.67,3.5-9.13,4.57-14,3.84s-9.63-1.53-14.5-1.33c-5.4,0-11,.81-16.19-1.22-6.81-2.71-11.77-8.39-17.64-12.57a40.59,40.59,0,0,0-16.55-7.75c-8-2.07-16.36-2.82-24.12-5.79-3.2-1.35-6.6-3-8.46-6.08a8.39,8.39,0,0,1-1.08-7.59c1.62-4.17,5.21-7,8.26-10.1a80.09,80.09,0,0,0,12-14.61c2.14-3.32,3.63-7.22,3.28-11.24-.3-4.8-3-9-5.43-13a131.09,131.09,0,0,0-18.35-22.84,186.81,186.81,0,0,0-15.52-14.11c-7-5.82-14-11.56-21.42-16.82-5.08-3.52-10.55-6.94-16.79-7.81-6-.64-11.8,1-17.63,1.9a38.38,38.38,0,0,1-20.13-2c-4.76-1.66-9.44-4.42-14.69-3.4-4.8.72-8.7,6-6.64,10.79,2,5.09,7.68,7.18,12.71,7.76,7.47.68,15,.38,22.49.73,7-.07,14.17-.66,21.2.33s12.87,5.29,18.17,9.66,10.37,8.87,16,12.78c9.24,6.63,17.63,14.61,23.8,24.22,2.45,3.86,4.44,8.42,3.74,13.1-.75,5.44-4.37,9.8-7.83,13.83-6,6.72-12.07,14.13-20.73,17.5-5.26,1.9-10.87,2.37-16.37,3.17-10.12,1.49-19.81,5-29.93,6.51-6.84,1.12-13.8.63-20.68.56-5-.32-10.47,0-14.84-2.86-3.48-2-5.54-6.56-3.8-10.35,1.28-3.09,4.59-4.76,7.75-5.24,5.35-.53,10.49,1.33,15.76,1.84,10.7.94,21.16-1.89,31.54-4,8.78-1.85,17.7-4.33,25.2-9.48,4.66-3.14,9.33-7,11.27-12.45,1.32-4.72-.87-9.65-4.22-13-4.13-4.05-9.29-7.51-15.14-8.26-5.22-.48-10.31,1.06-15.32,2.26-7.84,2-15.9,3.35-24,3-5-.06-10.22-.95-15.08.67-3,.88-5.57,4-4.64,7.22.78,3.94,5.39,5.33,8.87,5.64,6.48.15,12.9-1,19.31-1.82,5.37-.66,10.57-2.27,15.93-3,4.17-.51,9.45.75,11,5.21,1.09,3.7-1.83,7.21-4.9,8.84-4.81,2.44-10.23,3.05-15.48,3.83s-10.76,1.73-16.19,2.11a128.91,128.91,0,0,1-21.6-1.06,28.19,28.19,0,0,1-13-4.78c-6.05-4.2-9-11.58-15.39-15.4A8.49,8.49,0,0,0,920,695.39c-3.25,3.2-4.95,7.49-7.48,11.2-2.73,4.28-6.44,7.81-9.48,11.85-2.26,2.93-3.95,6.57-3.52,10.36a8.64,8.64,0,0,0,5.43,7.89c3,1,6.24-.48,8.26-2.75,3.62-4.21,4.91-10.19,9.6-13.52a7.8,7.8,0,0,1,10,.92c3.48,3.41,4,8.78,2.73,13.29-2.21,8.32-8.23,15.5-8.18,24.41-.43,7.79,1.8,16,7.46,21.62,4.11,4.25,9.72,6.66,15.4,8,6.64,1.58,13.22,3.42,19.94,4.67,8.36,1.39,16.48-1.5,24.66-2.73,5.56-.85,11.14-1.61,16.61-3,5-1.22,10.48-1.78,15.22.48,6.86,2.93,11.48,9.12,17.52,13.28a24.6,24.6,0,0,0,14.8,5c6.81-.14,13.68-.7,20.46.31,5.78.86,11.08,3.42,16.28,6,4.31,2.38,9.63,3.76,14.32,1.58,6.65-3.48,10.39-10.4,16.25-14.87,3.52-2.71,7.87-4.67,12.4-4.52,8.36-.27,16.49,3.87,24.87,1.79,7-1.31,12.38-6.45,18.11-10.34,3-1.84,6.4-3.62,10-3.27,3.46.11,6.66,1.72,9.62,3.4,7.1,4.27,13.39,10.42,16.47,18.22,2.29,5.57,2.89,11.73,5.75,17.08,2.55,4.55,7.29,8.83,12.87,8.06,5.41-.48,9.49-6.24,8.39-11.52-1.17-6.72-6.92-11-10.66-16.33-2.34-3-3.76-7-2.64-10.83,1.45-4.89,5.73-8.11,8.91-11.85,2.73-3.14,5-7.06,4.89-11.36.15-4.9-1.88-9.59-1.43-14.52-.25-5.94,3.49-11.58,1.82-17.51s-7.83-9.47-13.68-9.14c-4.73,0-9.33,1.29-14,1.69-4.44.21-9.61-.4-12.55-4.17C1202.93,721.31,1203.75,716.56,1206.61,714.1ZM875.54,502.76c3.5-.47,6.61,1.73,9.25,3.71,3.67,3,7.8,6.33,9,11.2,1.4,4.29-1,9.63-5.51,10.82-4,1.39-8.19-.52-11.47-2.72-4.46-3.23-8.86-7.61-9.39-13.4C866.83,507.69,870.64,502.64,875.54,502.76Zm232.11,292c-3,2.55-7.37,3-11.09,2-5.13-1.52-9.85-4.23-15.11-5.35-7.71-1.93-16-.27-23.45-3.5-7.5-2.86-12.91-9.09-19.5-13.41a22,22,0,0,0-11.28-4.09c-4.48-.48-8.79,1-13.12,1.92a168.45,168.45,0,0,1-17.29,2.87c-8.95,1.26-18,2.91-27.06,2-6.59-.55-13.38-1.7-19.09-5.21-2.4-1.62-4.73-3.84-5.35-6.78-.22-1.71-.46-3.62.44-5.2,1.37-3.17,5-4.71,8.31-4.71,2.66-.21,5.23.71,7.78,1.34a56.06,56.06,0,0,0,16.72,2.92c10.48-.1,20.73-2.58,30.89-4.91,8-1.75,15.92-4.69,24.21-4,5.68.72,10.71,3.9,15.11,7.4,5.89,4.65,12.13,9.18,19.39,11.4,9.56,2.8,19.83,2.6,29.13,6.44,4.92,2,10.15,4.79,12.43,9.82A7.8,7.8,0,0,1,1107.65,794.71Zm108.64-52.24a14.66,14.66,0,0,1,10.38,8.87,20.28,20.28,0,0,1-3.37,20.35,10.92,10.92,0,0,1-6.89,4c-4.65.86-8.8-2.23-12.32-4.79-9.9-7.81-20.37-14.85-30.79-22-4.3-3.29-9.45-6.91-10.49-12.6-1.16-4.86,2.48-9.89,7.25-10.84,5.67-1.48,10.9,2,15,5.42,5.06,4.23,9.93,9.74,16.81,10.71C1206.67,742.73,1211.58,741.13,1216.29,742.47Z"/><path d="M384.15,1028.76c-.19-4.17-4.22-7.46-8.27-7.44-4.95-.32-9.21,2.69-13.94,3.49-5.48,1.23-10.89-1.65-16.39-.67-4.09.36-8,4.27-6.85,8.59,1.09,5.06,6,7.91,9.57,11.16,4.32,3.25,8.06,8.07,13.75,8.78,3.93.35,7.45-1.94,10.05-4.67,2.85-3,5.51-6.17,8.1-9.39C382.36,1035.83,384.55,1032.47,384.15,1028.76Z"/><path d="M678.08,1089.67a10.4,10.4,0,0,0,3.27-9c-.76-5.16-4.85-8.91-8.57-12.17-5.93-4.91-12-10-19.32-12.67-4.62-1.73-9.48-2.84-13.9-5.08a23.68,23.68,0,0,1-10.32-9.83c-2.82-5.46-2.11-12.15.61-17.51a27.75,27.75,0,0,1,6.92-9.67c4.56-4.19,10.6-6.34,16.61-7.41,6.19-1.18,12.66-1.64,18.44-4.38,7.58-3.66,13.62-9.66,20.26-14.69,3.48-2.61,7.31-5,11.66-5.82,5.2-1,10.39,1,15.61.22,6-.49,11.1-3.9,15.83-7.3,6.68-4.78,12.91-10.67,20.94-13.12,5-1.68,10.7-1.44,15.37-4.22,2.76-1.44,4.83-4.85,3.88-8-.52-3.1-3.38-5.13-6.19-6-4.19-1.17-8.55,0-12.62,1.1-5.14,1.6-10.39,3.17-15,6.1-4.18,2.63-7.72,6.09-11.24,9.51-3,2.73-6.46,5.33-10.65,5.43a8.13,8.13,0,0,1-7.46-5.19c-1.45-3.23-.65-6.87.17-10.16,1.53-4.86,2.46-9.88,3.92-14.76,1.25-3.49,3.3-7,6.88-8.52,4.63-2.46,9.86-.28,14.67.4,3.69.74,7.42.18,11.13-.07a51.85,51.85,0,0,1,12.5.74c3.39.51,7.26.92,10.24-1.14a5.31,5.31,0,0,0,2.11-6.18c-1-3.58-4.62-5.43-7.78-6.75a116.63,116.63,0,0,0-18.58-4.83c-6.49-1.18-12.81,1.39-19.26,1.42-6.64.12-13.27-5-13.93-11.79-.52-5,2.29-9.27,4.76-13.3,2.7-4.11,5.25-8.84,9.77-11.25a9.11,9.11,0,0,1,9.47.84c4,2.88,6.68,7.15,10.27,10.49,5.87,6.16,13.95,9.26,21.43,12.93,6,2.86,11.58,6.71,17.81,9.15a21.51,21.51,0,0,0,13.82.24c8.5-2.66,16.13-7.54,23-13.19,5.44-4.62,10.16-10,15-15.22,3.33-3.31,7-6.59,11.52-8.06,3.43-1.37,7.21-1.14,10.82-.86,5.08.54,10.09,1.59,15.18,2.07a80.81,80.81,0,0,0,18.26-.22c4.26-.47,8.71-.45,12.75,1.17,4.39,1.79,8.08,4.89,11.64,7.94,8.62,7.42,17.22,14.87,26.32,21.69,10,7.63,21.09,13.62,32.28,19.27,10.1,5,19.36,12,25.8,21.34a20.46,20.46,0,0,1,3.67,12.17c-.12,4.22-1.06,8.58.17,12.74a11.45,11.45,0,0,0,6,7.93,7.57,7.57,0,0,0,10-2.61c2.83-3.86,1.62-9,1-13.32-1.07-5.71.81-11.47,0-17.19-.6-4.46-3.85-7.9-7.18-10.63-3-2.52-6.53-4.59-8.59-8a8.92,8.92,0,0,1,.44-10.58,11.73,11.73,0,0,1,9.95-3.72c5.32.42,10.07,3.35,15.42,3.59,7.34.18,14.18-3.2,21.49-3.42,6.36-.28,12.53,2.12,18.91,1.49,2.78-.42,5.91-1.62,7.3-4.27a6.85,6.85,0,0,0-1.39-8.4c-3.68-3.44-9-4.4-13.9-3.9-6,.56-12,1.84-18,2.4-7.07.69-14.49.77-21.18-2-4.36-1.74-8.3-4.45-12.82-5.81a11.07,11.07,0,0,0-10.85,2.88c-4,3.71-5.52,9.31-9.43,13.1-2,1.83-4.67,3.32-7.49,3.1-4.55-.06-8.39-2.77-12.15-5-6.13-3.56-12.43-6.9-17.9-11.43-5.12-4.15-9.61-9-14.75-13.13-4.48-3.85-9.4-7.14-13.81-11.07-3-2.74-6-6-6.77-10.11-1-6.42,2.94-11.94,6-17.18,3.11-5,6-10.43,10.81-14.08,2.34-1.55,5-3,7.9-2.84a18.11,18.11,0,0,1,8.94,2.81c6.09,3.63,10.55,9.36,16.62,13a11,11,0,0,0,7.85,1.63,7.57,7.57,0,0,0,6.31-7.8c-.36-3.37-2.55-6.16-4.91-8.43a111,111,0,0,0-14-10.88,39.69,39.69,0,0,0-14-6.17c-6.94-1.47-14.06,1.88-20.91-.46-6.26-2.05-10.63-7.49-16.66-10a25.93,25.93,0,0,0-8.93-2,84.15,84.15,0,0,0-15.44,1.67c-5.32,1.32-10.82,4-13.54,9-1.92,3.07-2.05,6.88-1.62,10.38a87.86,87.86,0,0,0,2.5,13,11.69,11.69,0,0,0,5.9,7.42,6.7,6.7,0,0,0,8.27-3.26c2.5-4.26,1-9.39,1.69-14,.48-4.66,4.84-8.69,9.59-8.45,6.23,0,11.8,4.72,13.82,10.44a14.8,14.8,0,0,1-1,9.79,151.05,151.05,0,0,1-9,15c-3.75,5.67-9.69,10.28-16.62,10.92-7.82.56-15.32-2.43-23.1-2.35-5.85-.22-11.69.72-17.52,0-5.35-.71-10-3.91-13.64-7.71-2.46-2.73-5-5.53-6.48-8.93A14.75,14.75,0,0,1,831,826c2.69-5.79,6.92-10.91,8.21-17.3.92-5.56-1.18-10.86-2.52-16.16a18.54,18.54,0,0,1,.32-11.2c1.34-3.24,4.5-6.25,8.23-5.92,4.07.19,6.71,3.89,8,7.37,1.26,2.92,2.13,6.22,4.79,8.25a6.39,6.39,0,0,0,7.06.33c3.31-1.8,5.45-5,8.27-7.44a22.61,22.61,0,0,1,12.65-6.34c5.82-.69,11.52,1.94,17.32.74a9.38,9.38,0,0,0,7.73-8.58c-.08-7.94-8.39-14.64-16.2-12.9-5.75,1.24-10.52,4.93-15.82,7.28-3.62,1.6-7.51,3.09-11.55,2.61-5.19-.13-9.64-3.18-13.61-6.22-3.37-2.5-6.76-5.46-11-6.15a11.41,11.41,0,0,0-7.43,2c-3.74,2.7-6.34,6.62-8.81,10.44-3.07,4.94-5.37,10.65-5,16.58.33,8.3,2.5,16.66.63,24.93-1.54,6.29-5,12.72-11,15.68-4.42,2.5-9.72,1.87-14.54,1.2-10-1.64-20.24-1.85-30.12-4.29-5.94-1.49-12-2.47-17.84-4.38-4.88-1.69-9.72-5-11-10.31-1.2-4.8.79-9.48,2.46-13.88,2.35-5.88,3.3-12.37,6.88-17.72,2.62-3.82,6.86-7.06,11.7-6.91,5.6.09,10.06,4.53,15.7,4.38a7.1,7.1,0,0,0,7.24-6.37c.33-3.48-1.5-6.61-3.21-9.48-4.19-6.6-7-14-11-20.67-2.24-3.86-4.58-8.31-3.33-12.91,1.18-5.16,7-9.16,12.19-7.53,3.79,1,6.73,3.94,9.2,6.83,3.56,4.32,6.83,9.11,8.18,14.61,1.82,6,.84,12.5,2.88,18.46,1.11,3.19,3.56,6.18,6.93,7,4.62.74,8.65-2.78,10.36-6.8,2.39-4.57,1.64-10.07-.08-14.74-1.49-3.8-3.18-7.52-4.71-11.31a53,53,0,0,0-6.29-12.08c-4.32-6.29-11.32-10-16-16a15.67,15.67,0,0,1-3.12-11.32c.41-5.4,2.12-10.59,3-15.91,1.3-7.44,2.68-14.88,3.67-22.38.14-3.51.43-7.68-2.23-10.41-1.81-2.1-5.35-1.84-7.2.08-2.24,2.59-2.83,6.06-3.13,9.35a98.42,98.42,0,0,1-2.5,15.83c-1.81,7.1-3.43,14.23-5.45,21.26a41.49,41.49,0,0,1-13.4,20.06,24,24,0,0,1-10.78,6.09,17.56,17.56,0,0,1-6.92-.48c-5.85-1.68-11.12-5-17.07-6.35-5.47-1.48-11.18-1.53-16.77-2.22-9.05-1-17.9-3.3-26.71-5.55a62.12,62.12,0,0,1-14-5.56,90.58,90.58,0,0,1-10.68-7.69c-2.82-2-6.1-4.05-9.76-3.54-5,0-9.38,5.61-7.48,10.39,1,3.3,3.92,5.54,6.86,7.08,5.34,2.59,11.11,4.11,16.66,6.15,10.82,3.88,21.75,7.44,32.85,10.42,9.28,2.61,18.7,4.71,27.88,7.69,6.37,2.09,12.92,3.6,19.33,5.57,6.43,2.16,12.71,6.19,15.55,12.59a10,10,0,0,1-1.11,10.06,11.22,11.22,0,0,1-9.81,4.42c-5.61,0-10-4-14.52-6.81a76.37,76.37,0,0,0-16-8.33c-15.74-6.32-31.42-12.94-47.82-17.36-8.05-2.28-16.54-3.13-24.19-6.64-4.33-1.76-8.91-4.57-13.76-3.06s-7.66,7.19-6.83,12.13c.67,5.64,2.28,11.12,3.07,16.74s2,11.43,1.21,17.18c-.33,4.38-2.09,8.49-2.57,12.84-.08,2.94.54,6.41,3.2,8.15,2.21,1.9,5.59,1.78,8,.44,6.41-4,9.19-12.08,8.75-19.34-.2-6.21-3.74-11.67-4.37-17.81a12.1,12.1,0,0,1,1.71-6.57,10,10,0,0,1,8-4.32c4.63,0,8.92,2,13.3,3.26,5.95,1.79,12.17,2.63,18,4.81,7.65,2.55,14.1,7.58,21,11.52,7.49,4.38,16.42,6.11,23.1,11.88,2.86,2.68,5.14,6.27,5.4,10.27.16,6.18-2.64,11.85-4.57,17.58-1.56,4.29-3.36,8.49-5,12.74a18.66,18.66,0,0,0-1.23,9c.63,5.08,4.19,9.3,8.2,12.22,4.34,3,9.65,4.13,14.83,4.73,6.43.7,12.6,2.75,18.87,4.25,7.9,1.94,16.11,1,24.15,1.57,4.57.35,9.13.89,13.68,1.48a35.42,35.42,0,0,1,12.07,3.34c5.87,2.89,10.48,7.7,14.51,12.75,2.21,2.92,3.94,6.5,3.4,10.26-.51,4.15-3.44,7.46-6.14,10.43a75.39,75.39,0,0,1-15,12c-4,2.16-8.43,3.93-13.05,3.54A28,28,0,0,1,782.94,889c-7.66-3.35-15-7.78-20.71-14-3.94-4-6.5-9-9.42-13.71-2.21-3.85-5.66-7.43-10.22-8.18-5.75-1-10.8,3.4-16.54,2.35-4.29-.51-7.69-3.65-10.33-6.85-7.6-8.7-11.88-19.94-20.46-27.83-6.37-5.9-14.75-8.92-21.33-14.54-3.13-2.81-5.85-6.8-5.39-11.2.29-4.75,3.25-8.75,5.76-12.59,2.62-4.06,6-7.85,7.27-12.62,1.62-5.73-2.44-12-8-13.61a8.68,8.68,0,0,0-10.21,4c-2.24,3.45-2.18,7.76-2.58,11.7a32.27,32.27,0,0,1-3,11.19c-3.14,6.26-7.62,12-13.63,15.71-4.18,2.53-9,4.58-14,4-5.75-.11-10.69-4.39-16.57-3.48-5.45.57-8.74,7.16-6.46,12,2.58,6.47,10,10.32,16.77,9.53,8.52-.63,15.89-5.48,24.12-7.26,5.29-1.11,10.66.82,15,3.73a163,163,0,0,1,15.17,11.51c5.72,4.77,10,11,13.79,17.32a77.19,77.19,0,0,0,11.41,14.38c2.81,2.94,5.62,6.49,5.75,10.74-.19,5.88-4.66,11-10.1,12.92-3.83,1.3-8,.4-11.52-1.29-5.6-2.72-10.75-7-13.13-12.92-2.34-5.49-1.25-11.68-3.2-17.28-1.78-5.31-5.73-9.62-10.07-13-3.41-2.31-7.28-4.25-11.46-4.54-8-.46-15.22,3.5-23,4.57-10,1.65-20.06-2.27-28.11-8-4.71-3.27-9-7.95-9.89-13.81-.75-7.37,3.37-14.31,2.13-21.71-1-7.31-6.28-12.84-9.58-19.16-2.69-4.56-4.14-9.7-6.72-14.31-1.8-3.31-5.25-6.55-9.27-6.11-4.56-.08-8.49,4.4-8,8.88,0,5.29,4,9.26,6.87,13.28,4.86,6.25,9.48,12.86,12.31,20.3,1.42,4.25,1.89,9.85-1.81,13.11-3.14,2.78-8.12,1.42-10.62-1.57-4.17-4.87-6.26-11-9.73-16.36-3.82-6.1-9-11.16-13.27-16.94-3.5-4.59-6-9.83-9-14.68-3.18-5.29-7.19-10-10.76-15-2.3-3.5-4.57-7.56-3.79-11.92.46-3.85,2.65-7.17,4.83-10.26,4.63-6.23,9.58-12.42,16.07-16.82,5.84-4.23,12.74-6.56,19-10,3.34-1.92,6.72-4.24,8.51-7.78a9.4,9.4,0,0,0-.72-9.32c-2.74-3.84-8.07-5.78-12.57-3.95-6.15,2.31-10,8-14.86,12.08-2.43,1.88-5.38,3.63-8.58,3.3-4.11.08-7.5-2.49-10.67-4.77-8.28-6.39-17.77-10.91-26.74-16.22-6.05-3.6-12.29-7-17.54-11.79s-9.82-10.34-15.24-15c-4.69-4.28-10-7.84-15-11.65-3.56-2.73-7.31-5.74-8.84-10.13a7.24,7.24,0,0,1,2.8-8.4c2.7-1.77,6.2-1.32,9.07-.19,4.7,2.08,8.71,5.35,13.13,7.9,6.08,3.52,12.32,6.75,18.26,10.5,4.52,2.72,9.53,5.82,15.05,5a17.33,17.33,0,0,0,12.41-8.63,8.44,8.44,0,0,0-1.61-9.81c-5-5-12.71-3.41-19-4.7-5.68-1-11-3.37-16.41-5.24-5.82-2.14-11.84-3.9-17.25-7-4.7-2.43-8.45-6.27-13.07-8.83-2.31-1.23-5.09-2-7.67-1.18-4.25,1.07-7.32,4.51-10.06,7.71-3.72,4.77-7.24,10.65-6.07,17,1.14,6,5.32,10.86,9.25,15.36,4.93,5.54,10.23,10.73,15,16.43,5.55,6.4,10.17,13.64,16.59,19.25,13.28,11.93,30.06,18.61,45.54,27.06,4.66,2.6,9.62,5.46,12.16,10.38,1.22,2.07.94,4.62.61,6.87-1.5,5.13-6.19,9.36-11.6,9.76-5.19.09-9.16-3.6-12.84-6.73a155.22,155.22,0,0,0-18.87-14.63c-6.48-4.17-12.81-8.57-19.38-12.61-3.57-2.08-7.46-4.17-11.73-4-5.15-.17-9.77,2.34-14.31,4.39-5.35,2.61-10.85,4.86-16.4,7-6.47,2.59-13.23,4.77-18.91,8.92-2.3,1.8-4.66,4.4-4.35,7.54-.26,3.09,2.78,5.52,5.67,5.64,4,.05,7.38-2.19,10.68-4.13a91.58,91.58,0,0,1,19.16-8.74,72.5,72.5,0,0,1,13.21-3.36,24,24,0,0,1,13.26,2.57c7.77,4,13.49,10.82,20.15,16.3a107.39,107.39,0,0,0,16,10.68c4.46,2.63,9,5.26,12.79,8.83,5.06,4.61,8.59,10.54,12.17,16.29,2.58,4.2,5.47,8.21,8,12.44,1.58,2.83,3.1,5.93,2.91,9.27.25,4.06-1.73,7.76-3.64,11.19-2.34,4.27-4.61,8.78-5,13.71a18.37,18.37,0,0,0,3.57,11.22c2,3,5.18,5.38,8.85,5.57a6.25,6.25,0,0,0,5-2.6c2.19-2.67,1.42-6.42.66-9.49a16.61,16.61,0,0,1-.51-9,6.58,6.58,0,0,1,8.14-4.21c3.89,1.34,6.37,5,8,8.56,2.37,4.91,3.45,10.38,6.29,15.07,2.58,4.59,6.77,8,11.27,10.65,5.48,3.08,11.49,5.09,17,8.22,6.82,3.7,13.33,8,20.33,11.37a120.48,120.48,0,0,0,14.26,5.89c3.55,1,7.18,2.11,10.92,1.84,5,.11,9.62-2,14.39-3.12a13.53,13.53,0,0,1,10.78,1.94c4.62,3.2,7.16,8.74,7.69,14.22.09,4.05-.84,8-1.64,11.94s-.36,8.51,2.22,11.81a12.41,12.41,0,0,0,8.38,4.33c4.66.22,9.23-1.47,13.89-.84,5.79.53,11.18,3.27,15.63,6.9,3.24,2.79,6.14,6.19,7.44,10.34a19,19,0,0,1-.5,11.25c-1.95,5.83-3.91,11.74-4.37,17.91-.7,6.51-.38,13.51-3.7,19.39-2.29,4.42-6,7.84-9.66,11.08-5.38,4.64-11.05,9.13-17.6,12-5.55,2.55-11.58,3.79-17.15,6.27-4.15,1.83-8.21,4.1-12.78,4.69-3.56.16-7.41-1.49-9.16-4.72-2.06-3.24-1.81-7.47-.18-10.85,2.76-5.49,7.91-9.35,10.55-14.92,2-3.6,1.87-8.78-1.55-11.49-2.78-2.24-7-1.49-9.56.67-4.64,3.74-7.9,8.86-11.06,13.84-2.86,4.89-5.45,10.19-5.66,16-.7,10.77,6.61,20.27,5.54,31.08-.35,8.11-5,16.33-12.69,19.55-6,2.63-12.7,2.29-18.95,3.89-5.78,1.18-11.1,4-16.91,5-4.38.73-9.89-.63-11.83-5-1.94-3.85,0-8.5,3.16-11,4-3.23,8.93-5,13.9-6,4.1-.91,8.42-1.27,12.24-3.18,2.74-1.43,5.41-3.33,6.81-6.19,2-3.32,2-7.4,1.39-11.12-1.24-7.82-3.86-15.57-2.93-23.59a22.28,22.28,0,0,1,4.07-10.2c3.74-5.18,8.19-9.8,12.07-14.89,5.11-6.55,10.13-13.45,17.14-18.12a26.17,26.17,0,0,1,12.19-5,31.48,31.48,0,0,1,17.12,4.12c4.09,2.22,7.94,6.23,7.71,11.2-.05,5.92-5.1,10.17-6.06,15.84-.28,2.41.37,5.28,2.54,6.67,1.66,1.46,4.1,1.37,6.12.84,4.94-1.94,8.15-6.62,10.48-11.17,2.91-5.62,3.53-12,5-18.07.89-4.48,2.92-9,1.74-13.65a10.16,10.16,0,0,0-8.91-8.25c-5.57-.53-10.86,2.27-16.44,1.31-7.5-1.27-13.8-7.1-16.28-14.2-1.86-4.9-1.47-10.23-2.52-15.29a17.81,17.81,0,0,0-6.8-11c-5.7-4.12-12.87-4.82-19.24-7.43-7-2.56-13.59-6-20.43-8.92-12-5.25-25-8.06-36.13-15.12-5.6-3.28-11-7.2-17.5-8.63-8.06-1.78-16.67,1.55-24.53-1.51-5.48-2.44-9.68-6.89-13.57-11.32-3.52-4.11-7-8.69-7.74-14.21-.71-7,2.22-13.59,3.73-20.29a32.63,32.63,0,0,0,.83-15.08,33.88,33.88,0,0,0-6.8-13.92,66.6,66.6,0,0,0-12.76-12.73c-4.2-3.2-9.1-5.93-14.48-6.23a31.76,31.76,0,0,0-11.36,2.49,144.38,144.38,0,0,0-14.41,6.34c-6.47,3.08-12.23,7.89-19.38,9.37-7.24,1.65-15-.57-22,2.33-5.55,2-10.21,6.13-16.14,7.23-7,1.57-13.75-3.46-20.74-1.49-3.21.88-5.65,4.27-4.56,7.63s4.34,5.31,7.45,6.48c5,1.74,10.61,2.07,15.2,5,4.81,2.57,7.86,7.32,10.72,11.79,3.64,6.17,6.93,12.73,12.18,17.74,4.93,5.26,11.13,9,16.72,13.51,3.36,2.45,6.61,5.33,10.67,6.53a8,8,0,0,0,5.74-.73,5.63,5.63,0,0,0,2.53-5.79c-.52-4-3.57-7-6.11-9.88-6.48-6.85-12.85-13.84-20-20-3.83-3.45-8.1-6.64-10.71-11.2a9.51,9.51,0,0,1-.9-7.92c1.83-4.69,7.42-7.3,12.27-6.4,4.52.68,8.21,3.6,11.57,6.48,3.94,3.54,7.88,7.32,12.83,9.41a27.06,27.06,0,0,0,11.89,2.33c4,0,8.54-1,10.93-4.47a6.06,6.06,0,0,0-1.76-8.55c-4-2.83-9.42-2-13.63-4.45-2.31-1.24-4.23-3.78-3.83-6.53-.09-3.1,2.46-5.47,4.9-7,8.07-4.36,18.68-4.11,26.19,1.34a26.92,26.92,0,0,1,11.28,22.51c.27,6.91-.88,15.1-6.85,19.52-3.89,3.27-9.35,3.17-14.05,2.22-4.62-.77-10.78-1.16-13.48,3.46-2.2,3.58.07,8,3.28,10,4.42,3.31,10.27,2.5,15.4,1.84,4.55-.56,9.52-.58,13.62,1.75,4.71,2.47,8.28,6.54,11.8,10.42s6.84,8.54,7.37,14c.19,5.66-2.47,10.86-5.25,15.61a62,62,0,0,1-9.83,13c-5.88,6.07-13.48,10.13-19.3,16.26-3.46,3.49-6.73,7.61-7.55,12.58-.63,2.66.13,5.39.86,7.93,2.36,6.25,6.64,11.52,9.41,17.56a19.48,19.48,0,0,1,2.11,8c.25,4.14-1.53,8-3.58,11.52-3.45,5.95-7.84,11.52-9.61,18.28-1,4.31,0,9.53,3.77,12.22,3,2.32,7.59,1.32,9.92-1.54,4.67-5.56,3.82-13.52,7.84-19.43,2.32-4.1,6.68-7.22,11.52-7.15,6.2-.22,11.55,4.18,17.79,3.59,5.89.09,10.75-4.4,13-9.54,3.44-7.91,2.18-16.86,5-25,2.23-6.3,5.9-11.94,8.72-18,2.34-5.08,4.88-10.09,6.91-15.32,1.79-4.62,1.77-10.56-1.93-14.25a8.7,8.7,0,0,0-10.89-1.53c-3.81,2.09-5.28,6.62-5.56,10.69,0,4.6.8,9.31-.46,13.8-1.25,4-4.92,7.73-9.38,7.19-3.29,0-6.12-2.16-8.26-4.48-3-3.15-5.65-7.27-5.4-11.8.06-5.14,3.33-9.3,5.65-13.62,3.31-5.55,5.1-11.91,8.89-17.19a16.61,16.61,0,0,1,9.42-6.92c3-.9,6.25-.4,9.23.4,12.35,3.38,21.66,13.56,34.34,16.06,6.46,1.37,13.09,2.07,19.33,4.35a108.65,108.65,0,0,1,26.92,14,51.21,51.21,0,0,1,13.83,14.61c1.57,3,3,6.38,2.35,9.85-.56,5-4.83,9.42-9.93,9.57-4,.1-7.33-2.45-9.86-5.23-4.78-5.48-8-12.21-13.18-17.34a41.3,41.3,0,0,0-15.38-9.82c-3.18-1.06-6.5-2-9.88-1.62a15.9,15.9,0,0,0-11.47,6c-3.63,4.26-5.78,9.47-8,14.51s-4.57,10.33-6.64,15.59A143.71,143.71,0,0,0,532.78,961c-.54,5.22-2.5,10.64-6.81,13.91a18.58,18.58,0,0,1-9,3.37c-6.31.26-12.24-2.26-18.4-3.17a16.22,16.22,0,0,0-7.05.86,7.7,7.7,0,0,0-4.74,6.5,7.51,7.51,0,0,0,1.86,4.65c2.77,3.13,7,4.2,11,4.71,7.88.92,15.84.36,23.71-.38A39.27,39.27,0,0,1,538,993.17c3.88,1.18,8.56,2.08,12.13-.36a7.71,7.71,0,0,0,3.53-7.6c-.86-5.38-5.22-9.33-6.44-14.59-1.29-3.72-1-7.7-.64-11.55,1.05-8.93,2.41-17.88,5.31-26.41,2.8-7.92,5.76-15.94,10.67-22.83,3-3.89,8-7.6,13.07-5.56,4.35,1.46,6.46,6.63,5,10.85-1.53,3.88-4.61,6.82-7.21,10a39.24,39.24,0,0,0-8.82,33.18c.93,4.87,3.57,9.12,5.88,13.41,2.62,4.51,5,9.29,6,14.44.78,4.54.38,9.5-2,13.54-2.51,4.82-6.9,8.33-11.53,11a27.27,27.27,0,0,1-10.1,3.5c-7.87.46-15.13-3.12-22.8-4.13-9.83-1.26-19.78,0-29.64-.86-6.18-.52-11.77-3.36-17.38-5.77-4.06-1.81-9.5-2.12-12.79,1.37-3.17,3.1-2.39,8.48.62,11.41,3.79,3.72,9.22,4.89,14.24,5.9a102.27,102.27,0,0,0,26.54,1.51c6.41-.32,12.9-1.48,19.27-.2,4.06.74,8.44,2.92,9.85,7.06,1.42,3.32-.7,7.31-3.89,8.65-5.15,2.64-10.87.51-16.31.89-6.72-.06-13,2.66-19.6,3.48-8.06.65-15.52-2.84-23.12-4.91-7.22-2.09-14.73-2.63-22.18-3.33-8.91-.82-17.24-4.3-25.95-6.06a30.19,30.19,0,0,0-16.22.63,27.12,27.12,0,0,0-12.1,9.83c-4.45,6.16-7.74,13.15-12.9,18.8-3.22,4-7.75,6.77-10.47,11.16a8.86,8.86,0,0,0,.28,10.39c3.34,4.23,8.41,6.45,13.05,8.9A47.55,47.55,0,0,1,407,1101.05c4.24,5,6.85,11,10.69,16.27a14.37,14.37,0,0,0,7,5.44,10.34,10.34,0,0,0,7-1c3.78-2,6.43-5.42,9.61-8.17,6.9-6.67,14.39-12.89,23-17.32,4.63-2.63,10-5,12.43-10.12,2.14-4.07.14-9.49-3.9-11.52-4.18-2.62-9.65-.8-13.19,2.16-7.49,6.11-12.55,14.73-20.28,20.6-3,2.37-7.24,3.91-10.95,2.4a7.86,7.86,0,0,1-4.53-9.25c2.14-7.8,12.65-10,13.69-18.35.31-4.57-4.85-7.91-9-6.3-6.72,2.19-9.44,10-15.93,12.52a7.69,7.69,0,0,1-5.3.31,8.88,8.88,0,0,1-6.44-9.7c.61-5.21,4.44-9.2,7.83-12.88,4.09-4,8.36-8.09,13.75-10.26a17.53,17.53,0,0,1,10.12-.4c7.91,1.93,14.21,7.86,22.25,9.44,6.51,1.45,12.93-1.42,19.45-1.11a26.19,26.19,0,0,1,15.3,4.3c4.18,2.85,7.42,7.86,6.47,13.09-.39,3.83-2.56,7.49-1.64,11.4a6.78,6.78,0,0,0,6.1,5.49c3.92.26,7.62-2,11.56-1.18a7.08,7.08,0,0,1,4.87,3.1c1.77,2.17,1.59,5.29.7,7.79-2.18,5.25-6.68,8.91-10.15,13.25-5.32,6.17-8.71,13.68-13.76,20-4.62,6.36-10.75,11.38-16.28,16.9-2.56,2.54-5.1,5.48-5.7,9.15-.76,4.11,3,8.58,7.27,7.86,3.62-.07,6.34-2.82,8.76-5.19,4.44-4.95,8.74-10,13.3-14.86a301.8,301.8,0,0,0,21.18-25.35,69,69,0,0,0,7.8-11.74c3.37-6.77,3.37-14.65,6.79-21.39a58.55,58.55,0,0,1,3.53-6c4.66-6.48,9.7-12.79,16-17.79a30.81,30.81,0,0,1,14.82-5.91c7-1.1,14.16-.72,21.15-2,5-.81,9.54-3.12,14.45-4.2,3.09-.49,6.55-.18,9.14,1.74a11.26,11.26,0,0,1,5,8.3c.4,5.36-2.49,10.13-3.39,15.28-1,4.15-.61,8.46-1.23,12.67a22.84,22.84,0,0,1-3.4,9.35c-3.62,6-8.73,10.8-13.51,15.82-4.3,4.18-8.6,9.23-14.8,10.42-5.14.8-9.64-2.15-14-4.28-4.6-2.38-9.85-4.32-15.08-3.21-3.45.51-6.51,2.32-9.28,4.34-5.27,4.23-9.23,9.76-13.57,14.87a212.64,212.64,0,0,1-26.44,26.9c-3,2.67-6.19,5.09-8.59,8.3-1.4,2-2.72,4.33-2.29,6.86a7,7,0,0,0,4.48,6.47c2.71,1.31,6,.38,8.36-1.29,4.16-2.94,6.87-7.36,10.3-11,5.62-6.57,12.78-11.53,19.14-17.31,4.06-3.69,7.37-8.08,10.71-12.41,2.71-3.5,6.44-7.09,11.24-6.74,5.19.66,8.57,5.11,12.86,7.62a13.89,13.89,0,0,0,9.46,1.91c5.1-.8,9.82-3.11,14.31-5.58,6.23-3.52,11.08-8.88,15.63-14.31,5.76-6.91,11.92-13.52,16.81-21.1a30.34,30.34,0,0,0,5.52-13.19c.43-4.73-1.49-9.31-1-14a9.69,9.69,0,0,1,5.3-8.9,8.41,8.41,0,0,1,7.51.18c4.22,2.1,7.09,6,9.93,9.64,3.57,4.54,6.65,9.86,11.9,12.68A9,9,0,0,0,678.08,1089.67ZM500,920.61c3,2.93,6,6.47,6.4,10.8.68,4.73-2.78,9.37-7.19,10.82a10.85,10.85,0,0,1-8-.67c-4.81-2.25-8.18-6.48-11.26-10.64-3.28-4.89-7.56-9.61-8.73-15.54-.33-2.55-.41-5.32,1-7.57a8.11,8.11,0,0,1,8.24-4.42c4,.6,6.79,3.81,9.43,6.58Q494.69,915.53,500,920.61Zm82.6,12.55c2.38-2.82,5.23-5.92,9.16-6.26,5.27-.75,9.64,4.58,9,9.6s-4.16,9.27-7.36,13.06c-2.38,2.69-5.35,5.61-9.19,5.62-3.65.34-6.72-2.89-7.26-6.31C575.9,943,579.16,937.6,582.6,933.16Zm-45.79,132.59c-3.47,4.16-8.29,7.89-13.93,8-5.88.43-11.85-4.24-12.33-10.19-.18-3.66,2.2-6.92,5.16-8.84a25.31,25.31,0,0,1,11.16-3.65c4-.48,8.32.68,10.89,3.92C540.15,1058.22,539.34,1062.88,536.81,1065.75Z"/><path d="M360,734.55c-3.85,2.58-7.17,7.05-6.18,11.92.58,3.65,3.73,6.39,7.16,7.39,6.84,1.75,14.89-1.66,17.83-8.22,1.6-3.81-.12-8.36-3.27-10.81C371.28,730.94,364.5,731.35,360,734.55Z"/><path d="M360.21,610c5.07,3.46,10.39,6.54,15.41,10.09,3.88,2.53,8.13,5.4,13,5,4.49.25,8.74-4.39,7.42-8.86-.33-2.05-1.79-3.66-3.24-5.05-4.94-3.83-11.18-5.26-16.55-8.33-4.09-2.1-7.78-5-12.16-6.53-2.44-.71-5.31-.88-7.48.62a5.62,5.62,0,0,0-2.21,5.53C354.93,605.73,357.65,608.13,360.21,610Z"/><path d="M401.39,743.63c2.89,1.45,6.29.7,9.21-.25,5.35-2.11,10.36-5.06,15.94-6.57,4.57-1.42,9.66-1.83,13.57-4.83,2-1.56,3.46-4.17,2.84-6.76-.66-3.58-4.46-5.55-7.82-5.81-5.59,0-10.81,2.22-16,4.08-6.27,2.37-13.09,3.75-18.59,7.78-1.87,1.74-3.59,4.23-3.21,6.91A6.53,6.53,0,0,0,401.39,743.63Z"/><path d="M435.17,380.32a10.87,10.87,0,0,0,7.91.52,10.69,10.69,0,0,0,6.79-7.72,13.9,13.9,0,0,0-6.41-13.82c-7.08-4.54-16.71,2.48-16.77,10.26C426.89,374.5,430.8,378.51,435.17,380.32Z"/><path d="M481.7,1119.69c1.59-2.69,1.71-6.55-.65-8.85a6.81,6.81,0,0,0-5.53-1.77c-4,.53-7.22,3.28-10.17,5.83-5.5,5.29-11.05,10.51-16.9,15.41-3.06,2.9-6.63,6.6-6.05,11.18.45,4.88,5.81,8.65,10.54,7.24,2.39-.47,4.33-2.11,6.06-3.73,4.23-4.29,7.61-9.34,11.94-13.55C474.64,1127.67,479.14,1124.45,481.7,1119.69Z"/><path d="M456.9,858.51c2.74,3.21,6.86,6.11,11.32,5A9.83,9.83,0,0,0,475,851.1c-1.94-5.82-8.18-10.58-14.5-9.21-4.31.87-7.66,5.35-6.78,9.77C454,854.22,455.44,856.47,456.9,858.51Z"/><path d="M471.28,370.3a10.88,10.88,0,0,1,.22,7.86c-1.9,5-7.35,7.87-8.79,13.13-1.3,4.35,2.8,8.78,7.14,8.59,5.85,0,10.48-4.25,14.36-8.14,3.2-3.4,6.18-7.4,6.85-12.15a19.24,19.24,0,0,0-2.88-11.39c-2.6-4.48-5.48-8.77-8.06-13.26-2.95-4.93-5.27-10.84-10.64-13.66a7.14,7.14,0,0,0-8.6,1.36A8.49,8.49,0,0,0,458.7,350C460.32,358.1,468.22,362.86,471.28,370.3Z"/><path d="M604.34,1160.07c-4.32,0-8.45,1.46-12.62,2.38-8.52,2.16-17.4,1.9-26,3.63-8.18,1.44-15.83,4.92-23,9.06-4.6,2.67-9.33,5.3-13.17,9-2.21,2.16-4.08,5.07-3.94,8.29.21,5.35,6.07,9.34,11.17,8.13,6.64-1.25,10.95-7,16.31-10.66,7-5.3,15.77-7.09,23.89-9.93,4.57-1.42,9.48-3.41,14.31-1.93a9.49,9.49,0,0,1,7.47,10.66c-1.06,7.08-7.94,12.17-14.88,12.4-4.06,0-8.14-.54-12.19-.06a12.62,12.62,0,0,0-9.27,5.9c-2,3.71.27,8.37,4,9.91,4.84,2.66,10.51.76,15.71,1.22,4.31.05,8,2.43,11.45,4.82,2.64,1.8,5.5,3.93,8.9,3.57,3.39-.11,6.06-3,6.81-6.18,1.19-5.09-1.14-10.16-.69-15.28.14-7.12,3.93-13.36,6.56-19.77,1.62-4.15,3.27-8.61,2.23-13.12C616.33,1165.86,610.82,1160.42,604.34,1160.07Z"/><path d="M544.46,728.78c-2.84,2.54-5.46,6.24-4.56,10.28.71,4.81,6.38,7.68,10.84,6.05,8.9-2.76,14.26-11.45,22.9-14.72a10,10,0,0,1,9.51,1.27c4.45,3.24,6.23,8.85,6.93,14.09.71,6.52.91,13.2,3.09,19.44,1.05,2.52,2.16,5.18,4.36,6.92a6.28,6.28,0,0,0,8.59-.06,12.43,12.43,0,0,0,2.51-10.14c-1.14-8.06-3.92-15.81-4.84-23.91-.71-5.47-.33-11.15-2.26-16.41-2.19-6.33-8.43-10.63-14.95-11.43A25.32,25.32,0,0,0,576,711.73c-6.27,2.14-12,5.5-17.87,8.51A75.05,75.05,0,0,0,544.46,728.78Z"/><path d="M563.15,1099.79c4.14-.14,7.89-2.09,11.9-2.92,5.56-1.43,11.84-.37,16.89-3.55,4.29-2.47,7-7.89,5-12.73-2.45-5.69-9.47-8.24-15.26-6.71a67,67,0,0,0-18.3,7.77c-4.14,2.59-9.16,6.29-8.63,11.82C555,1097.52,559.35,1100.22,563.15,1099.79Z"/><path d="M568.82,344.46a12.44,12.44,0,0,0,13-1.49c5.29-4.21,8.76-10.15,12.48-15.68a134.71,134.71,0,0,0,11.28-20.14c3.43-7.2,7.28-15.39,15.06-18.74,6.25-2.77,13.1.47,19.57-.85,6.88-1.11,11.6-7.35,18.46-8.46,6-1.26,12.36,4.34,11.46,10.51-.89,5.76-5.92,9.63-7.4,15.15-1.75,5.7,1.49,12.89,7.39,14.6a7.4,7.4,0,0,0,7.65-2.83c4.41-5.5,2.92-13.32,6.61-19.17,2.88-5.52,8.76-8.32,14.23-10.66,6-2.51,11.68-6.56,14.84-12.44,2.87-5.08,3.69-12.19-.31-16.91-2.42-3.25-7.54-3.54-10.66-1.16-4.92,3.53-6.55,9.91-11.08,13.81a9.19,9.19,0,0,1-10,1.64c-5.69-2.87-9.15-9-15.39-11-5.52-1.79-11.14.68-16,3.24-6.2,3.27-13,5.9-20.15,5.64-6,.18-12.24-.71-18.06,1.2a23.48,23.48,0,0,0-14.52,12.43c-2,4.24-2.47,9-3.41,13.5-1.3,6.79-3.18,13.59-6.86,19.5-2.1,3.78-6.25,7.46-10.89,6.22-3.87-1.05-5.68-5.58-5.2-9.28.47-6.37,4.58-11.59,6.43-17.55,1.17-3.82,1-8.56-2.09-11.45-2.33-2.47-6.22-2.33-9.07-.92-5.4,3-8.12,9.41-8,15.38.22,6.18.61,12.43-.52,18.54-.57,3.73-1.61,7.46-1.21,11.27C557,335.58,562.31,341.71,568.82,344.46Z"/><path d="M595.45,388.91c.23-5.24-1.31-11.48-6.5-13.9-3.67-1.4-7.41,1.12-8.85,4.44-2,4-2.35,8.54-3.19,12.85-.81,4.88-2.28,9.62-3.29,14.45-1.3,6.27-.55,12.71.47,19,1.44,8.79,1.83,18.22-1.84,26.53-2.28,5-6.12,9-9.53,13.26-2,2.6-4,5.78-3.53,9.23.41,5,6.39,8.19,11,6.52,6.11-1.69,10.64-6.6,14.14-11.64,4.51-6.5,6.09-14.5,6.54-22.28,1.2-13.29-2.44-26.67,0-39.9C592,401.15,594.82,395.28,595.45,388.91Z"/><path d="M642.32,556.67c4.07-2.7,8.79-5.12,11-9.69a7,7,0,0,0-2.78-9.29c-2.49-1.56-5.7-1-8.3,0-4.6,2.28-8.38,5.84-12.44,8.91-4.2,3.3-8.89,6.22-14.11,7.53-5.46,1.46-11.27.3-16.68,2-3.9,1.3-7.4,5.24-6.1,9.6.33,2,2,3.52,3.61,4.67,3.89,2.51,8.72,1.68,13,1,4.92-1,9.94-1.81,14.6-3.76C630.74,564.85,636.3,560.34,642.32,556.67Z"/><path d="M605.43,587.32c-4.09,1.75-8,5.9-6.82,10.68.51,3.58,4,6,7.4,6.53a16.47,16.47,0,0,0,14-5.29,7.27,7.27,0,0,0,.33-9.94C616.64,585.13,610.2,585.27,605.43,587.32Z"/><path d="M655.75,1103.84c-4.25-1.11-8.12,2.14-9.42,6-2,5-.89,10.82-3.76,15.5-2.49,4.82-7.81,6.74-12.13,9.5-3,1.76-5.48,5.14-4.9,8.76.51,4.11,3.83,7,6.09,10.21,4.24,5.2,5.75,12.08,5.91,18.66.06,5.31.36,10.79-1.3,15.91-2,6.47-5.59,12.26-7.68,18.67-1.39,4.34-2.48,9-1.48,13.55,1.28,7.56,7.34,13.17,13.72,16.8,3.66,2.13,8.16,3.61,12.3,1.9a8.1,8.1,0,0,0,4.32-4.61,9.25,9.25,0,0,0-2.08-8.28c-3.17-4-8-6.6-10.34-11.29a9.44,9.44,0,0,1,.54-9.77c2.74-4.74,9.59-5.29,11.55-10.69,1.09-3.41-.56-6.9-1.69-10.09-2.6-6.82-3.29-14.15-3.83-21.38-.15-4.41-.35-8.93.84-13.23,1.44-5.8,4.5-11,6.45-16.64,1.83-5.43,3.82-10.91,4.4-16.66C663.62,1111.45,661.14,1105.36,655.75,1103.84Z"/><path d="M645.07,590a11,11,0,0,0,6.84-1.54,54.57,54.57,0,0,0,11.57-10.09c1.88-2.27,4-4.95,3.68-8.11.26-3.76-3.69-7-7.32-6.17-5.21.8-9.09,4.83-13,8-3.45,3.26-7.84,7.25-7.1,12.49C640.05,587.39,642.55,589.39,645.07,590Z"/><path d="M647.19,462c.58,4.42,5.09,8.28,9.66,6.7,5.92-1.78,10.35-8.86,8.33-14.91a8.17,8.17,0,0,0-10.47-5A12.54,12.54,0,0,0,647.19,462Z"/><path d="M656.21,433.64c5.16.17,9.32-5.68,7.59-10.51a7.12,7.12,0,0,0-8-4.72,8.52,8.52,0,0,0-7.14,8.92A7.12,7.12,0,0,0,656.21,433.64Z"/><path d="M659.18,1021.27c-4.85.93-9.33,5.7-8.44,10.86a8.76,8.76,0,0,0,6.67,7c6.79,1.88,14.09-5.53,12-12.28C668.24,1022.6,663.32,1020.13,659.18,1021.27Z"/><path d="M739.8,1197.91c-3.53-2.08-8.13-.5-10.9,2.15-5.43,5.39-8.73,12.48-13.85,18.14-3.54,4-7.72,8.17-13.23,9-5.59.45-10.61-3.16-13.82-7.43-2.48-3.27-3.48-8.24-.91-11.74a10.64,10.64,0,0,1,5-3.86c4.78-2,10.68-1,14.87-4.4a6.67,6.67,0,0,0,1.57-8.87c-3.77-4.86-11.24-4.64-14.64-9.94-2.84-3.86-.74-9.57,3.14-11.85,4.55-2.88,10.13-3,15.08-4.81,6.23-2,11-6.8,16.39-10.25,7-4.9,15.54-6.89,23.87-8.16,4.81-.84,9.79-1.4,14.25-3.52a16.81,16.81,0,0,0,7.8-7.29c2.18-3.93,1.62-8.63,1-12.9-.87-4.83-1.1-9.79-2.7-14.46-1.17-2.57-2.91-5.19-5.69-6.19a7.32,7.32,0,0,0-8.29,3.08c-2.76,4.19-1.55,9.48-1.86,14.18.16,5.21-3.32,10-8,12.13-7.35,3.51-15.81,2.63-23.38,5.42-11.43,3.63-19.78,13.44-31.45,16.5-5.36,1.64-11.33,1.3-16.27,4.19-3.74,2-6.45,6.36-5.74,10.69.85,6.18,6.25,10.37,7.73,16.3a10.93,10.93,0,0,1-4.08,11.22c-2.75,2.24-6.32,3.16-8.92,5.6a6.82,6.82,0,0,0-1.61,6.42c.92,3.84,3.48,7,5.18,10.5,4.27,8.25,8,17.45,15.72,23.11,6.54,5.08,15.71,8.18,23.7,4.74,6.33-2.52,10.44-8.23,14.35-13.51a97.8,97.8,0,0,1,12.85-15c2.78-2.7,5.73-5.6,6.85-9.43A8.25,8.25,0,0,0,739.8,1197.91Z"/><path d="M719.06,652.36a9.42,9.42,0,0,0,7.4,1.21,8.53,8.53,0,0,0,5.95-8.61c.07-4.82-3.35-8.65-6.61-11.78q-6.63-6-13.81-11.39c-4.33-3.11-9.55-5.77-15-4.87-6.1,1.11-11.08,5.05-15.83,8.77a92.13,92.13,0,0,0-12,11.09c-2.4,2.86-4.48,6.54-3.52,10.42.29,2.35,2.23,4.13,4.17,5.28,3.36,1.65,7.22.3,10.1-1.69,4.43-3.24,7.32-8.07,11.45-11.65,2.94-2.68,7.42-4.07,11.16-2.2C709.45,640.37,712.45,648.42,719.06,652.36Z"/><path d="M698.74,665c-5.07.62-9.78,3.11-14.93,3.18-3.89.29-7.9-.52-11.67.72-2.9.91-5.12,4-4.2,7.06.5,2.73,3.13,4.38,5.43,5.53,5.87,2.44,12.42,1.67,18.53,3.08,5.28,1,10.85,3.3,16.19,1.31A9.44,9.44,0,0,0,714,674.32C712,668.16,705.17,663.85,698.74,665Z"/><path d="M727.46,1040.7a9.16,9.16,0,0,0-7,2.45c-3.22,3-5.57,6.79-7.86,10.51s-4.61,7.65-6.89,11.48a63.35,63.35,0,0,0-6.81,18.69,60.27,60.27,0,0,1-8.6,20.14c-3.83,6.14-8.92,11.59-11.44,18.48a14.14,14.14,0,0,0-.55,6.59,7.78,7.78,0,0,0,7,6.61c4.83.25,8.61-3.37,11.48-6.81,5.1-6.15,6.79-14.12,8.91-21.61a134.54,134.54,0,0,1,5.42-15c4-9.59,7.66-19.42,13.25-28.24,2.47-4.06,5.49-7.83,7.3-12.25a9.89,9.89,0,0,0,.71-5.82A6.37,6.37,0,0,0,727.46,1040.7Z"/><path d="M759.57,996c3.6-3.71,7.68-7.15,10.18-11.76a6.29,6.29,0,0,0-1.56-8c-1.84-1.39-4.35-1-6.43-.61-3.48,1.21-6.37,3.63-9.14,6-7.23,6.25-14.19,12.89-22.29,18-4.21,2.61-8.76,4.92-13.74,5.47-5.18.39-10.47-.26-15.52,1.12a15.75,15.75,0,0,0-8.31,6.8c-3.12,5.91-2.55,13-5.71,18.89-2.41,5.47-7.6,10.3-6.68,16.76a7.47,7.47,0,0,0,3.4,5.18c3.19,2,7.46.59,9.87-2,4-4.42,5.83-10.16,8.79-15.21,3.19-5.66,7.69-10.8,13.65-13.61,5-2.7,10.87-3,16.31-4.47,4.31-.84,8.08-3.3,11.43-6C749.54,1007.52,754,1001.28,759.57,996Z"/><path d="M696,799a8.54,8.54,0,0,0,8.71-2.1c3.73-3.64,6.37-9.41,4.44-14.61-1.09-3-4-5.68-7.29-5.4-2.79-.1-5.28,1.59-7.08,3.57-3.09,3.22-4.93,7.79-4,12.26C691.18,795.55,693.48,797.82,696,799Z"/><path d="M726.17,315.12a7.44,7.44,0,0,0,6.81,0c4.06-2.17,4.64-7.88,2.39-11.57-2.21-4.27-6.84-8.31-12-7.2a7.35,7.35,0,0,0-5.37,8.56C718.78,309.4,722.17,313.17,726.17,315.12Z"/><path d="M1187,974.21c-5.48.1-9.93,3.66-14.8,5.65-5.13,2.4-11.13,1.57-16.24-.47-7.77-3-15.78-5.62-24.12-6.33-7.11-.58-13.9,1.73-20.77,3.12-7.71,1.45-15.34-1.26-22.39-4.15-7.24-2.88-14.53-5.79-21.13-10-4.75-2.81-9.09-6.55-14.54-8-3.87-.89-8.55.68-10.25,4.48-1.91,4.07.19,8.81,3.45,11.48,4.24,3.63,9.71,5.14,14.81,7.1,7.87,2.87,15.48,6.39,23.14,9.76,6,2.62,11.81,5.71,18.18,7.31,5.52,1.41,11.32.35,16.6-1.53,7.78-2.65,15.84-5.7,24.23-4.66,4,.57,8.44,2.16,10.24,6.07,1.46,2.9.12,6.55-2.38,8.43-3.72,2.92-8.54,3.59-13,4.82a46,46,0,0,0-13.31,6c-5.24,3.2-11,6.92-17.44,5.81-5.52-.77-10-4.43-14.58-7.3-10.82-7.38-22.89-12.68-35.08-17.35-4.89-1.69-10-3.64-15.29-2.84-7.53.59-13.89,6.26-21.62,5.63-4.09-.13-7.86-1.84-11.43-3.68-5-2.65-9.76-5.89-14.77-8.61-8.15-4.2-16.79-7.52-24.51-12.54-7.23-4.67-14.42-9.39-21.9-13.66a310.51,310.51,0,0,1-26.38-17.49,80.2,80.2,0,0,0-10.09-6.79c-2.77-1.45-6.48-1.94-9.1.06-2.36,1.74-2.35,5.28-.94,7.62,2.14,3.74,6,6,9.44,8.34,13.34,8.43,26.43,17.25,39.76,25.72,9.37,6,19,11.5,28.7,16.95,10.67,5.73,21,12,32.07,17.1,5.37,2.46,11,5.28,17.12,4.76,5.62-.25,10.43-3.4,15.63-5.11,5.21-2,11.09-1.08,16.16.91a91.29,91.29,0,0,1,21.77,11.76c3.43,2.48,6.58,5.65,8.08,9.69a11.61,11.61,0,0,1-.15,7.5c-1.83,4.81-5.18,8.79-8.14,12.92-3.72,4.91-7.66,10.25-13.74,12.32-6.15,1.88-12.61-.34-17.92-3.48-5.23-2.88-9.18-7.53-12.45-12.42-3-4.16-5.66-8.69-9.71-11.93-4.19-3.57-9.31-5.75-14.31-7.91-13.11-5.68-25.11-13.52-37.45-20.64-8.91-5.18-17.83-10.36-26.59-15.77-9-5.59-18.09-11-27.32-16.25-9.44-5.42-18.86-11-27-18.34-6-5.18-11.7-11.2-19.2-14.28-6.54-2.78-13.81-3-20.4-5.67-3.77-1.54-7.59-3.49-10.06-6.85-1.58-2-2.76-4.64-2.25-7.26.52-4.38,3.85-7.69,6.92-10.55,4.63-4.08,9.73-7.95,15.74-9.74,4.44-1.43,9.23-.87,13.64.36,6.17,1.86,11.7,5.24,17.51,7.91,3.37,1.54,6.83,2.9,10.27,4.27,16.85,6.32,30.7,18.24,45.75,27.74,3,1.73,6.39,3.41,10,3a5.9,5.9,0,0,0,4.55-2c1.89-1.78,1.64-4.84.57-7-3.1-5-8.66-7.61-13.66-10.34-10.9-5.61-20.68-13-30.86-19.79-6.66-4.4-13.15-9.15-20.45-12.45-8.91-4.4-19-5.44-28.73-6.57-7.28-.79-15.12-.48-21.52,3.44-7.67,4.62-13.64,11.45-19.75,17.87-3.28,3.37-6.74,6.7-10.92,8.93-6.34,3.57-13.91,4.21-20.14,8-5.5,3.18-10.14,9-9.43,15.7.28,7.57,6.16,13.25,7.74,20.43.57,3.43.22,7.23-1.85,10.11-2.68,4.33-6.78,7.47-9.95,11.39-9.28,10.66-14.51,24-22.68,35.41-4.84,7.11-11,13.42-14.46,21.38-3.4,7.63-5.51,15.76-8.94,23.38-5.21,11.51-10.59,23-17.16,33.81-2.12,3.86-4.85,8-4,12.6.4,3.08,3.15,5.94,6.38,5.71,4.08.06,7.14-3.33,9.14-6.53,2.92-4.64,4.52-10,7.18-14.75,2.66-5,5.83-9.82,8-15.13,2.17-5,3.49-10.28,5.4-15.36a68.05,68.05,0,0,1,9.6-16.46c4.25-5.61,8.21-11.44,11.9-17.44,4.3-7,9.72-13.38,12.66-21.14,2.48-6,4-12.85,9.45-16.9a7.92,7.92,0,0,1,11.15,2c4.54,5.81,2.15,14,6,20.13a18.89,18.89,0,0,0,12.44,9.18,10.5,10.5,0,0,0,11.79-6.24c1.08-2.47.44-5.28-.55-7.66-1.87-3.94-5.05-7-7.83-10.26-5.58-6.37-10.93-13.31-13.38-21.54-1.33-4.44-1.11-9.14-2.09-13.65-1-4.15-3-8-4.82-11.76a14.33,14.33,0,0,1-1.35-9.92c1.35-5,6.78-9.06,12.07-7.63,4.22,1,7.11,4.52,10.06,7.42a29.14,29.14,0,0,0,11.22,8c6.48,2.17,13.57,2.12,19.8,5.1,11.92,5,20.09,15.56,30.55,22.79,5.18,3.77,11.09,6.35,17,8.8,11.76,4.75,22.91,10.82,33.92,17.06,13.53,7.55,26.6,15.86,39.9,23.79,7.63,4.61,15.49,8.88,22.87,13.9,5.57,4.1,11.19,8.68,14.31,15,2.74,5.86,2.19,12.46,2.9,18.73.19,4.67.36,10.38-3.52,13.77-2.35,2.42-6.14,2.51-9.08,1.2-4.28-2-7.52-5.53-11.32-8.22-7.58-5.64-16.81-8.34-24.58-13.66-5.07-3.12-9.44-7.83-15.45-9.14-3.05-.74-6.63.93-7.39,4.1s.83,6,2.78,8.21c6.55,7.19,16.06,10.22,24.4,14.73,7.26,4,13.82,9.13,20.85,13.52,4.1,2.86,9,5.36,11.25,10.06a10.64,10.64,0,0,1-.26,9.8c-1.69,3.62-4.25,6.74-6,10.35a36.11,36.11,0,0,0-3.69,19.32c.27,5.66.33,11.62,2.8,16.85,1.65,3.67,5.62,7,9.88,5.72a10.15,10.15,0,0,0,7.19-7.91c1.39-7.84-5.09-14.34-4.55-22.1a17.89,17.89,0,0,1,7.3-14c2.58-2,5.92-3.48,7.25-6.68,1.34-4-.93-8.13-.35-12.23.12-5.79,4.62-10.22,5.46-15.83,1.08-4.54.16-9.71,2.83-13.79a8.5,8.5,0,0,1,7.1-4.15c3.51-.3,6.74,1.39,9.75,3,4.45,2.45,9,4.68,13.66,6.76a88.18,88.18,0,0,1,15.75,9.17c3.43,2.29,7.33,4.8,11.66,4.35,5-.38,8.79-4.06,12.06-7.47,3.77-4.13,7.73-8.07,11.7-12,2.6-2.73,5.69-5,7.76-8.23a10.15,10.15,0,0,0,2.25-7,9.07,9.07,0,0,0-10.34-8c-2.5.26-4.61,1.77-6.48,3.31-5.83,5.27-8.54,13.24-15,17.91-2.61,1.7-5.92,2.73-9,1.77a9.27,9.27,0,0,1-5.77-4.9,9.57,9.57,0,0,1-.27-6.83c1.88-5.09,6.16-8.65,9.33-12.92,4.08-5.13,6.94-11.11,10.94-16.31,2.66-3.16,6.21-5.95,10.45-6.44,4-.42,7.7,1.57,10.72,4,4,3.22,7.4,7.13,11.76,9.87a11.34,11.34,0,0,0,7.34,2c4.46-.25,8.54-5,6.92-9.47-2-6.09-9.57-7.06-12.4-12.5a6.45,6.45,0,0,1,2.57-8.5c5.64-3.4,12.69.45,18.48-2.56,4.89-2.21,7.18-7.39,10-11.66,3.6-6,9.57-9.89,15-14,2.73-2.23,5.76-5.25,5.4-9.08C1194.83,977.05,1190.69,974.06,1187,974.21Z"/><path d="M739.73,284.69c6.08,7.17,12.8,14.21,16.24,23.13a15.63,15.63,0,0,1-2.46,15.41c-4,5.07-9.88,8.67-12.56,14.71-1.75,3.72-1.65,8.53,1,11.79a6.32,6.32,0,0,0,6.95,2.09c5.21-1.82,6.4-8.29,11-10.88,2.47-1.57,6.21-1.31,8.08,1.08a10.45,10.45,0,0,1,2.86,8.09c0,5.22-2.18,10.21-1.59,15.46.77,7,4.54,13,7.53,19.21,2.54,4.68,5.18,10,10.37,12.16,3.84,1.68,8.6-.63,10.09-4.44,2.12-3.87.8-8.41-.92-12.16-2.91-5.59-6.61-10.85-8.52-16.92-2.6-8.3-2.83-17.16-5.79-25.36-1.94-5.95-5.27-11.32-7.42-17.18-1.82-4.77-2.68-9.8-3.92-14.73-1.79-7-5.64-13.31-10.19-18.87-3.77-4.74-7.67-9.49-10.08-15.11-2.15-4.25-3-9.14-6-13-2-2.89-6-4.73-9.31-2.94-4.43,2.15-5.47,7.79-4.67,12.22C731.53,274.78,735.73,280,739.73,284.69Z"/><path d="M849.13,1225.21c-6.08-.81-12.42-.12-18.28-2.21a24.3,24.3,0,0,1-12.19-8.82c-2.76-3.66-4.37-8-5.8-12.32a67.52,67.52,0,0,0-7.58-16.1c-4.17-6.41-8.15-13-13.31-18.68-3.42-3.53-7.78-6.6-12.8-7-5.89-.29-11.35,2.28-17,3.32-6.62,1.52-13.64.95-20.07,3.32-3.89,1.45-8,5.14-6.87,9.75.88,3.85,5.09,5.94,8.76,6.31,10,1,18.78-6.59,28.83-5.11a19.92,19.92,0,0,1,9.73,4.8c5.92,5.53,9.58,12.87,13.85,19.64,2.5,4.09,5.38,8.52,4.72,13.56-.48,4.72-4.64,7.94-8.72,9.67-5.49,2.33-11.44,3.3-17.32,4-6.33.9-12.61-1-18.95-.52a19.3,19.3,0,0,0-12.22,5.22c-2.1,2.07-3.93,5-3.48,8-.17,2.45,1.59,4.39,3.34,5.83a11.59,11.59,0,0,0,8.3,2c6.24-.63,12.17-3,18.43-3.55,7.9-.73,16.14-.49,23.6-3.62,5.74-2.1,10.74-6.16,16.89-7.11,4.74-.71,9.42.84,13.85,2.35a105.09,105.09,0,0,0,19.62,4.66c4.73.52,10.23.87,14.16-2.36a7,7,0,0,0,1.22-9.75C857.3,1227.17,853.08,1225.86,849.13,1225.21Z"/><path d="M770.13,1212c3.73-.47,7.11-4,6.69-7.82,0-5.13-5.71-9.08-10.53-7.6a7.76,7.76,0,0,0-5.63,8.63A8.39,8.39,0,0,0,770.13,1212Z"/><path d="M799,785.49c-5-.7-9.19,2.44-13.82,3.57-4.53,1.3-9.18-.15-13.71-.64-3.51-.24-7.83.46-9.76,3.81a5.67,5.67,0,0,0-.73,4.61c.3,2.2,2,3.89,3.72,5.14,3.56,2.25,7.82,2.94,11.92,3.49,5.77.58,11.59,1.53,17.4.72,5.44-.81,10.84-4.79,11.81-10.42C806.64,791.26,803.64,786.24,799,785.49Z"/><path d="M767.74,268.53c4.35,5,9.49,9.37,13.2,14.94,3.4,4.73,5.39,10.26,7.46,15.67,2.83,7.78,6.1,15.41,8.31,23.41,2.27,7.76,3.32,15.9,6.54,23.37,2.71,7.15,7.83,13,11.58,19.56,3.2,5.66,5.3,12.34,3.94,18.88-.94,6.43-4.65,11.88-7.72,17.43-1.79,3.46-2.9,7.93-.73,11.43a7.5,7.5,0,0,0,4.5,3.5c2.64.84,5.4-.32,7.54-1.82a20.33,20.33,0,0,0,5.78-9c1.5-4.93,2.29-10.07,4-15,1.55-4.44,3.38-8.84,3.92-13.56.17-3.92-.93-7.73-2.14-11.42-.93-3-1.81-6.13-1-9.24.67-4.48,3.49-8.2,5.88-11.9,4.65-6.67,9-13.86,10.61-22,1.4-7.66-1.83-15.12-5.58-21.6-3.55-6.27-7.14-13.31-6-20.75.56-5.92,3.58-12.39.34-18-1.74-4-7.34-5.09-10.56-2.29-3.66,3.16-4.55,8.23-5,12.8-.58,8.5-1.11,17.37,2.1,25.45,2,5.33,5.07,10.22,6.92,15.61,2.63,7.27,1.92,15.87-2.56,22.27-1.88,2.87-5.47,5.08-9,4.13-3.19-.68-5.13-3.73-6.18-6.59-1.89-6.15-.82-12.78-2.69-19-2-7.68-6.68-14.26-9.4-21.66a17.47,17.47,0,0,1,1.13-15.07c2.38-4.69,6.53-8.91,6.21-14.51a5.73,5.73,0,0,0-5.93-5.89c-5.17,0-8.25,5.49-13.37,5.78-4.86.41-8-3.9-10.71-7.25s-6.75-7.2-11.49-6c-4.08.93-6.22,5.48-5.17,9.37C763.1,263.08,765.54,265.89,767.74,268.53Z"/><path d="M786.43,1063.26c-3.44-1.76-7.48-.21-10.06,2.33-3.09,3.16-5.24,7.68-4.42,12.18.57,4.52,4.75,8.61,9.5,8,4.33-.38,7.84-3.76,9.58-7.58C793.66,1073.06,791.82,1065.79,786.43,1063.26Z"/><path d="M782.37,870c4.37,2.48,9.55,4.49,14.61,2.85a8,8,0,0,0,5.89-7.1,9.1,9.1,0,0,0-3.82-6.81,32.09,32.09,0,0,0-12.76-5.31,13.45,13.45,0,0,0-7.78.76,6.41,6.41,0,0,0-3.61,7.37C775.85,865.53,779.17,868.08,782.37,870Z"/><path d="M837.76,1087.84c-6.1,5.16-13.19,9.59-21.21,10.82-5.4.88-10.77-.8-16.18-.16a12.84,12.84,0,0,0-7.71,3.52,8.11,8.11,0,0,0-2,6.86c.5,3.62,4,6,7.36,6.84,5.37.75,10.52-1.17,15.63-2.51,5.76-1.66,11.69-2.76,17.29-4.94a84.75,84.75,0,0,0,20.89-11.73c5.89-4.48,11.32-10,14.2-16.91,2.77-6.52,4.87-13.83,2.93-20.9a25.59,25.59,0,0,0-15.81-15.91c-5.49-1.67-11.32-.47-16.7,1-4.83,1.37-10.25,1.88-14.84-.56-5.49-2.54-9.12-7.92-14.84-10.07a8.62,8.62,0,0,0-9.53,2.54c-2.83,3-2.53,8,.07,11.08,3.47,4.29,9,6.32,12.18,10.93a11.74,11.74,0,0,1,1.73,5.35c0,4.33-2.4,8.31-2,12.69a6.07,6.07,0,0,0,6.19,5.63c3.89.12,6.72-3.13,8.7-6.08,2.74-4.55,4.43-9.83,8.27-13.67,2.88-2.82,7.12-4.8,11.19-3.61a10.9,10.9,0,0,1,8.41,8.79,12,12,0,0,1-2.5,9.27C846.3,1080.72,841.91,1084.22,837.76,1087.84Z"/><path d="M985.45,1148.12a27,27,0,0,1,2.71-15.36c1.79-4.19,4.12-8.67,3.23-13.37-.55-4-3.15-7.32-5.76-10.26a52.38,52.38,0,0,0-11.45-9,10.67,10.67,0,0,0-8.56-.9,6.37,6.37,0,0,0-3.56,3.55c-1.13,2.25-.28,4.79.88,6.81,2.89,4.5,8.57,6.89,10.31,12.18a8.09,8.09,0,0,1-4.09,10.34c-3.1,1.46-6.73,1-9.79-.29-5-2.28-9-6.07-13.62-8.9a66.87,66.87,0,0,0-16.39-7.58c-7.85-2.56-15.44-6.2-23.71-7.13-4.86-.52-9.75-.4-14.61-.87-5.16-.39-10.32-1.66-15.52-1a29.41,29.41,0,0,0-11.58,3.83c-6.92,3.72-13.59,7.95-20.93,10.79a151.25,151.25,0,0,1-31,8.7c-4.8.8-10,1.07-14.09,4-2.59,1.67-4.57,4.64-4,7.83a8,8,0,0,0,7.88,6.62c5.93.33,10.86-3.4,16.16-5.43,10-4,21-4.58,31-8.68,9.33-3.43,17.89-9,27.81-10.7,7-1,14.17.08,21.12,1.31,9.27,1.69,18.5,4.24,26.85,8.7,5.65,2.94,11.24,6,17.22,8.26,5.74,2.24,11.9,3,17.78,4.74a24.83,24.83,0,0,1,10.28,6.33c3.29,3.32,5.7,7.88,5.36,12.67-.11,5.13-3.85,10.41-9.2,11-4.73.34-8.48-3-11.6-6.11-4.3-4.17-9.2-8.42-15.36-9.21s-12,1.78-18,.49a19.69,19.69,0,0,1-6.52-2.94c-6-4.23-11-9.91-17.78-13-7.73-3.94-17-4.15-25.18-1.73-6.47,1.86-12.08,5.67-18.09,8.56a37.56,37.56,0,0,1-16.6,3.55c-5.4.15-11.06,0-16.1,2.26a10.83,10.83,0,0,0-5.52,5.17,7.09,7.09,0,0,0,3.26,8.56c4.15,2.71,9.28,1,13.59-.3,5.4-1.8,11.55-2.36,16.84.09,6.16,2.6,11.18,7.18,16.62,11,3.89,3,8.22,5.6,11,9.72,1.14,1.81,2.19,4.06,1.49,6.23-.53,3.47-4.57,5.52-7.82,4.87-5.38-.75-9.62-4.55-14.14-7.23-5.16-3.13-10.26-6.89-16.33-8-4.12-.87-9.34,1.64-9.7,6.2-.36,4.13,2.83,7.56,6.21,9.42,7.55,4.16,16.38,4.8,24.32,8,5.33,1.8,10,5,14.45,8.39,3.53,2.52,7.52,5.37,12.12,4.64,6-.76,10.22-5.87,16.08-7,4.67-1.31,9.47.43,14.21-.06,6.87.18,13.1-6.15,12.67-13-.11-5.6-3.41-10.66-2.91-16.32-.06-4.81,3.17-9.91,8.06-10.9,5.67-1.18,11.26,3.39,12.39,8.83,1.08,3.38.05,6.9.36,10.36,0,3,1.24,6.34,4.08,7.73,2.14,1.26,4.79.86,6.94-.18,4.31-2.2,7.34-6.14,11.25-8.91,5.18-4,11.82-5.61,16.87-9.82a13.88,13.88,0,0,0,4.6-13.37C990.19,1164.05,986.75,1156.36,985.45,1148.12Zm-70.27,41.49a14.28,14.28,0,0,1-4.76,9.43c-2.5,2-6,3.06-9.13,1.86-3.58-1.25-6.07-4.35-7.9-7.53-2.95-5-5.95-10.09-10.54-13.75-4.17-3.66-9.57-6-12.81-10.62a6.83,6.83,0,0,1-1.18-2.93c-1.1-4.14,2.29-8.07,6.19-8.91,4.71-1.2,9.52.65,13.49,3.13a158.59,158.59,0,0,1,20.24,15.62C912.46,1179.48,915.4,1184.31,915.18,1189.61Z"/><path d="M838.82,607.6c-.46-4.58-1.21-9.29-3.63-13.3a17.51,17.51,0,0,0-14.79-9.07c-5.32.06-10.06,3-13.77,6.55-6.69,6.78-11.27,16.38-9.77,26.08,1.21,8,4.94,15.36,6.23,23.34,1.78,11.68,2,23.73-.67,35.28-1.07,4.52-1.37,10.31,2.49,13.61,2.4,2.5,6.53,2.06,9.09,0,5.25-3.93,7.2-11.08,6.18-17.36-1.26-7.57-3.81-14.88-4.76-22.52-1-8.06-1.88-16.15-3.5-24.12-.95-5-1.51-10.73,1.41-15.2a6.76,6.76,0,0,1,7.77-2.86c3.1,1,4.85,4.07,5.77,7,1.35,4.52.58,9.27.62,13.89a52.61,52.61,0,0,0,3.5,20.21c2.18,5.86,5.42,11.23,8.65,16.55,5.68,9.16,11.35,18.41,18.53,26.5,5.79,6.53,13.68,11.54,22.47,12.52,6.76.52,14.4-2.22,17.72-8.49a7.56,7.56,0,0,0-.71-8.24,10,10,0,0,0-6.23-3.24c-3.54-.27-7,.52-10.57.5A19.68,19.68,0,0,1,863.68,677a9.38,9.38,0,0,1-1.3-9,9.56,9.56,0,0,1,7.81-4.91c5.58-.27,10.78,2,16.17,3.07,11.15,2.83,23-1.61,33.93,2.5,7.17,2.65,14,6.83,21.77,7.31,6.26.27,12.29-1.81,18.38-3,9.1-2,18.5-1.4,27.73-.82,3.58,0,7.62,0,10.6-2.31a5.45,5.45,0,0,0,1.2-7.4c-1.78-2.51-5.08-3.35-8-3.55-15,.09-30,.87-45,.51-7.2-.31-14.86-3.22-18.93-9.46-2.73-4.06-3.28-9.13-2.8-13.89a44.93,44.93,0,0,0-2.66-20.93c-2.39-6.59-5.65-13.1-10.93-17.85-6.46-5.95-15.27-8.29-23.76-9.41-6.37-.67-12.84-1.47-19.22-.46-4.53.59-9.09,3-11.19,7.19-2.18,3.69-1.38,8.18-.67,12.18,1.28,5.88.2,11.93.86,17.85a9.4,9.4,0,0,0,4.72,7.42c3,1.69,6.51,1,9.75.63,3-.46,6.08-.6,9.06-1.3,2-.59,4-1.73,4.9-3.7a6.84,6.84,0,0,0-1.18-6.62c-2.82-3.45-7.34-5-9.94-8.71a7.65,7.65,0,0,1,.21-9.52c3.38-3.73,9.05-3.87,13.48-2.13a31.75,31.75,0,0,1,14.14,12c3,4.44,4.38,9.72,5.92,14.8,1.39,5.22,3.35,10.9,1.34,16.22a11.36,11.36,0,0,1-8.47,7.18c-4,1.21-8.11.11-12.14.08-5.83-.27-11.77.49-17.48-1-4.35-.94-8.48-3.24-13-2.92-3.66,0-7.39,1-11,0a11,11,0,0,1-7.06-6.57c-2.1-4.52-1.5-9.67-1.39-14.49A115.72,115.72,0,0,0,838.82,607.6Z"/><path d="M832.68,696.08c-4,.93-6.69,4.57-8,8.23-1.44,3.4-1.08,7.17-.82,10.75.88,5.8,2.31,12.35,7.25,16.11,3.69,2.76,8.92.54,11-3.18a30.71,30.71,0,0,0,3.75-17.53,19.44,19.44,0,0,0-3.78-10.4C839.85,697.31,836.34,695.05,832.68,696.08Z"/><path d="M983.93,1056.3c3.41,2.39,6.6,5.35,10.71,6.48,2.78,1,6.54-.45,7.06-3.6a7.62,7.62,0,0,0-2.53-6.26c-3.11-3.09-7.09-5.07-10.87-7.2-8.52-4.51-16.45-10-25.11-14.29-11.91-5.91-23.45-12.56-35.55-18.08a119.69,119.69,0,0,0-18-7.14c-5.12-1.49-10.49-1.62-15.74-2.33a23.6,23.6,0,0,1-14.78-8.36c-6.45-7.81-12.15-16.48-20.47-22.5-3.33-2.53-7.66-4.7-11.93-3.4a7.19,7.19,0,0,0-4.77,8.87c.55,2.49,2.24,4.58,3.91,6.43,5.59,5.83,13.1,10.18,16.72,17.67,2,4.11.76,8.74-.19,13a10.44,10.44,0,0,0,1.21,8.22c2.14,3.1,6.66,3.58,9.89,2,4.71-2.37,8.68-6.39,14.08-7.29,6.54-.85,12.5,2.27,18.48,4.38,5.3,2.05,10.84,3.39,16.14,5.46,7.47,2.66,14.12,7.07,21.24,10.47,5.67,2.76,11.78,4.38,17.8,6.19A70.38,70.38,0,0,1,983.93,1056.3Z"/><path d="M844,404.2c.26,2.85,2.5,5.64,5.47,5.77,3.2.2,5.9-2.26,7.14-5,1.83-3.32,2.2-7.78,0-11.05a5.59,5.59,0,0,0-7.77-1.39A12.63,12.63,0,0,0,844,404.2Z"/><path d="M849.26,829.74c.46,4.07,4.13,8.08,8.45,7.53,2.66.14,4.94-1.81,6-4.12,2.39-4.76-.62-11.4-5.85-12.6C852.78,819.58,848.51,825,849.26,829.74Z"/><path d="M874,721.4c-8-2.17-16.53,5.73-15.54,13.8,1.18,8.07,11.28,13,18.5,9.34,4.53-1.92,8.18-6.73,7.34-11.82C883.62,727.33,879.14,722.89,874,721.4Z"/><path d="M872.46,919.85a3.9,3.9,0,0,0-2.47,5,4.52,4.52,0,0,0,2.17,2.29,3.92,3.92,0,0,0,5.57-2.88A4.06,4.06,0,0,0,872.46,919.85Z"/><path d="M895.64,1042.09c-.21-3.77-4.47-6.48-8-5.4-3.47.64-6.31,4.35-5.48,7.89a6.21,6.21,0,0,0,5.61,5C891.93,1050.12,896.1,1046.3,895.64,1042.09Z"/><path d="M890.43,1089.65c4.34.89,8.63-1.52,11.15-4.94,3.72-4.38,5.4-10.77,11-13.34a7.49,7.49,0,0,1,9.47,2.69c4.12,5.55,1.36,13.35,5.37,18.94,2.83,4.76,9.72,7.13,14.49,3.85,4.73-2.59,5.68-8.86,3.73-13.51-2.17-4.92-5.5-9.22-7.91-14-3.06-5.54-5.61-11.61-10.4-16-2.43-2.34-5.6-4.33-9.1-4.15-4.91-.08-8.7,3.48-12.17,6.45-3.91,3.71-8.06,7.16-12.16,10.66-3.32,3.11-6.87,6.21-8.86,10.39a11,11,0,0,0-.77,6.39A8.4,8.4,0,0,0,890.43,1089.65Z"/><path d="M902.92,312.06c1.3,6.44-.55,13.06.33,19.54.64,5.7,3.37,11,3.63,16.74.53,8.16-1.81,16.09-2.49,24.17-1.08,9.08-1,18.41-3.9,27.17-1.46,4.66-4,9.26-3.21,14.31a6.65,6.65,0,0,0,6.94,5.72c3.32-.42,6.15-2.6,8.16-5.19A21.54,21.54,0,0,0,917.25,402c.3-6.31-.76-12.64,0-18.95.78-8.1,3.94-15.73,5-23.79a57.08,57.08,0,0,0-1.49-17.9c-1.19-4.66-2.09-9.7-.24-14.33,2.45-5.86,8.2-9.78,14.2-11.35a22.32,22.32,0,0,1,18.36,4.63c3.07,2.6,5.19,6.92,3.68,10.92-1.9,5.47-7.62,7.76-12,10.87-3.29,2.2-5.77,6.14-4.77,10.22,1.36,5.71,7.73,9.34,13.38,8.43,6.13-.84,10.82-5.83,13.41-11.17,3.21-6.16,3.52-13.29,6.05-19.7,1.93-5.39,6.36-9.61,7.51-15.32a9.26,9.26,0,0,0-5.58-10c-5.6-2.74-12,.47-17.78-1.21-6.66-1.3-10.25-8.17-16.59-10.08-3.78-1.07-7.42,1.12-9.79,3.87s-4.45,5.5-7.51,7.29a7,7,0,0,1-9.07-2.27c-2.86-4.22-1-9.59.45-14s.65-9.79-3.45-12.32a8.36,8.36,0,0,0-10.55.35c-3.88,3.07-5,8.41-4.38,13.1C896.93,297.22,900.78,304.41,902.92,312.06Z"/><path d="M961.81,409.89c-2.2-4.95-4.72-9.82-5.84-15.16-1.09-4.93-1.67-10.29-4.88-14.41-2.53-3.46-7.52-5.32-11.45-3.12-4.11,2.42-5.89,7.61-5.29,12.18a43.17,43.17,0,0,0,3.44,12.25c4.24,10.18,11.31,18.82,16,28.78,2.09,4.28,3.82,8.71,5.48,13.16,2.43,6.62,4.49,13.61,9,19.18,2.56,2.92,6.4,5.29,10.44,4.17,5.33-1.44,8.28-7.93,6.1-13-2.36-6.29-7.61-10.83-11.13-16.42C967.71,429.21,965.86,419.05,961.81,409.89Z"/><path d="M950.23,845.67c-4.51,0-8.46,4.51-7.64,9,.43,3.94,4.1,7.37,8.17,6.94,5.18,0,9-6.23,6.75-10.88A8.19,8.19,0,0,0,950.23,845.67Z"/><path d="M968.6,869a8.69,8.69,0,0,0-1.38,7c.95,5.41,7.27,8.84,12.41,7.06,5-1.52,8.63-5.64,12.93-8.42,4.63-3.24,10.25-4.65,15.8-5.25,4.37-.47,8.82-1.16,12.75-3.24,3.65-2,7.05-4.81,8.86-8.64,1-2.71.91-6.19-1.33-8.28-3-3.51-8.24-3.5-12.42-2.53-6.22,1.73-11.84,5-17.78,7.45-5,2.07-10.17,3.5-15.26,5.19C977.58,861.1,971.91,864,968.6,869Z"/><path d="M1035.4,450.43c-6,5.1-11.81,10.53-18.65,14.54-6.64,3.89-13.46,7.51-19.76,11.94-8,5.72-16.31,11.53-22.17,19.61-2.94,3.91-4.86,8.82-4,13.78.94,5.79,3.89,11,5.7,16.48,1.86,4.92,3.17,10.7,7.8,13.84,2.94,2.38,6.92,2.2,10.44,1.59,3.9-.72,8.26-.51,11.58,1.88,4,3,6.62,7.3,9.43,11.32,4.74,6.77,11,12.47,14.74,19.92,3.44,6.92,6.48,14.2,11.62,20.1,2.1,2.31,4.51,4.66,7.65,5.4,2.5.63,5.68-.19,6.8-2.71,1.38-2.13.87-4.81,0-7.06-2.46-5.66-7.53-10-9.17-16-1.44-4.65.3-9.86,3.65-13.27,3.26-3.75,7.72-6.1,12.07-8.37,3.12-1.63,6.24-3.78,7.69-7.13,1.12-2.8.21-6-1.35-8.38-2.35-3.54-5.94-6-9.19-8.61-6.46-4.8-12.68-10.19-17-17.08-3.28-4.62-5.36-10.53-10.6-13.39a8.28,8.28,0,0,0-11.31,4.54c-1.77,4.2.61,8.58,3.47,11.59,5.88,6.07,12.12,11.81,17.64,18.22,2.26,2.9,4.54,6.35,4.17,10.22-.33,4.84-4.85,9.5-9.88,8.8-3.69,0-6.6-2.77-8.74-5.47-3-3.71-4.93-8.08-7.48-12.07-2.23-3.69-5.24-7.26-9.47-8.64-4.17-1.64-8.62.4-12.9-.38a11.41,11.41,0,0,1-9.8-8.33c-1.74-5.73,1.87-11.46,5.78-15.37a140.71,140.71,0,0,1,19.85-16c5.53-3.55,11.52-6.42,16.6-10.66,5.44-4.32,9.77-9.79,14.8-14.54,7.9-8,17-14.61,26.53-20.58,4.6-2.87,9.39-5.65,14.7-6.95,6.7-1.64,13.52,1.75,20.23,0,5.49-1.37,10.8-5,13-10.36a11.51,11.51,0,0,0-2.54-11.06c-3.34-4.25-9.16-7.86-14.7-5.85-4.83,1.72-8.43,5.61-12.56,8.47-6.47,4.77-13.84,8.07-20.71,12.19C1057.45,433.67,1045.85,441.33,1035.4,450.43Z"/><path d="M974.05,384.65a10.6,10.6,0,0,0,3.19,6.57c3.5,3.39,8.31,4.51,12.7,6.25,7.37,3,13,8.94,17.79,15.11,2.4,3.41,4.54,7.64,3.19,11.91-1.55,6.35-7.94,9.84-10.32,15.74-1,2.68-.77,6.24,1.66,8.06,3,3,8,1.71,11-.72,5.73-4.73,9.8-11.14,15.57-15.84,6.2-5.3,13.82-8.41,20.93-12.26,12.17-6.33,23.21-14.65,33.41-23.79,3.48-3.09,6.78-7.5,5.49-12.48-1.14-4.2-4.31-7.48-7.51-10.27-3.86-3.32-7.9-6.78-12.94-8.12-6-2.13-12.62,0-18.67-2.06-4.44-1.48-7.83-4.91-11.94-7a10.41,10.41,0,0,0-11.37,1.07c-3.61,2.85-6.2,7.51-5.45,12.21.59,5.19,4.5,9.26,8.58,12.14a14.29,14.29,0,0,0,13.48,1.43c5-1.81,10-4.61,15.51-3.14,5.22.92,9.13,6.93,6.63,12-3.44,6.33-10.77,8.54-16.72,11.74-4.64,2.12-8.63,5.43-13.37,7.34a10.79,10.79,0,0,1-11.29-2.23c-3.84-3.58-6.35-8.25-9.6-12.32-3.83-5.2-8.89-9.34-12.74-14.53-2-2.92-3.67-6.34-3.64-10-.13-6.72,3-13,6.8-18.35,3.58-5.15,9-8.61,12.74-13.64a9.55,9.55,0,0,0,.7-9.89,16.55,16.55,0,0,0-11.42-8.74c-5.58-.58-9.87,4.15-11.77,8.89-2.24,5.15-3.46,10.66-5.48,15.88-3.57,9.12-5.42,19-10.91,27.29C976.13,376.42,973.52,380.29,974.05,384.65Z"/><path d="M977.9,958.05c.78,4.69,7.29,7.68,10.91,4.08s.77-10.17-4-11C980.78,949.57,976.34,953.89,977.9,958.05Z"/><path d="M990.17,423.58a4.68,4.68,0,0,0-2.6-7.17c-3.22-1.13-6.39,2.45-5.26,5.59C982.89,425.6,988.31,426.61,990.17,423.58Z"/><path d="M1002.07,823a80,80,0,0,0,14.21,5.92c3.87,1.2,8.09,2.43,12.11,1.18a8.58,8.58,0,0,0,6.45-6c.75-3.58-1.24-7-4-9.18-4.83-3.83-10.85-5.63-16.66-7.37-4.24-1.12-8.65-2.44-13.06-1.41-4,.61-7.5,4.57-6.38,8.74C995.72,818.62,998.89,821.22,1002.07,823Z"/><path d="M1073.42,1107a14.5,14.5,0,0,0-9.2,3.13c-4.35,3.43-7.61,8.12-12.4,11-3.14,2.11-7.06,2.91-9.85,5.56-1.89,1.84-2.12,4.7-2.13,7.18.1,3.53-.25,7,0,10.57.2,2.42.75,5.13,2.73,6.73a6.14,6.14,0,0,0,7.76.47c3.52-2.65,5.83-6.49,8.36-10a35.63,35.63,0,0,1,13.91-11.57c3.48-1.77,7.14-3.55,9.87-6.44a8.46,8.46,0,0,0,2.33-8.42C1083.14,1110.46,1078.27,1107.46,1073.42,1107Z"/><path d="M1145.38,903.27c1.78-3.79,0-8.17-2.69-11a46.52,46.52,0,0,0-17-11.44c-6.58-2.51-13.67-3.37-20.28-5.79s-12.91-5.68-19.38-8.46a53.37,53.37,0,0,0-20.53-4.08c-6.35,0-13.12-.23-19,2.7-4,1.81-7.85,5.8-6.68,10.52.45,2.42,2.61,4.17,4.85,4.93,3.31,1.14,6.86.17,10.13-.65,3.81-1.07,7.61-2.32,11.58-2.6,7.54-.26,14.83,2.46,21.3,6.15,4.49,2.46,8.79,5.34,13.62,7.13,6.46,2.53,13.6,2.83,19.86,5.92,5.6,2.55,9.61,7.62,15.38,9.82A7.2,7.2,0,0,0,1145.38,903.27Z"/><path d="M1046,933.75c.72,4.78,6.33,7.75,10.82,6.34,3.41-.82,6.38-4,6.19-7.65-.18-4.05-4.08-7.17-8-7.14C1050.47,924.91,1045.32,928.81,1046,933.75Z"/><path d="M1235.94,847.85c-4.12-4.23-11-4-15.8-1.09-6.39,3.33-10.91,10.06-18.36,11.27-7.28,1.13-13.55-4.26-20.75-3.89-7.23-.32-13.31,5.48-20.61,4.33-5.54-.8-10.41-3.88-14.94-7-3.35-2.39-6.72-5.9-6.5-10.34-.1-5,5.16-8.79,9.92-8.16,3.7.36,6.94,2.46,10.6,3,2.8.36,6-.74,7.33-3.45,2-3.35.28-7.49-1.91-10.28-4.86-5.76-12.8-9.08-20.31-7.48-7.12,1.24-12.82,6.63-16.32,12.72-2.94,4.85-5.16,10.78-10.7,13.28-4.67,2.14-9.93,0-14-2.56-7.23-4.61-14.79-8.83-23-11.34-7.92-2.5-17.24-3.36-24.56,1.25-3.86,2.28-7.34,6.65-6.12,11.38,1.09,4.43,6.1,6.85,10.39,6.2,5.57-.44,10.79-3.44,16.48-2.61,5.94.6,11,4,16.14,6.74,6.52,3.81,13.57,7,21.16,7.85,5.91.74,12.12.28,17.68,2.77a64.47,64.47,0,0,1,20,14.07c6.07,6,8.8,14.46,14.39,20.87s12.74,10.8,19.3,16c6.46,4.85,13.06,9.66,20.4,13.1,4,1.87,9.49,2.47,12.76-1a7.07,7.07,0,0,0,1.23-8.56c-1.76-3.45-5.3-5.39-8.6-7.1a110.19,110.19,0,0,1-13.61-7.15c-6.2-4.13-12.6-8-18.37-12.74-3.51-2.93-7-7.35-5.49-12.23,1.6-4.54,7-6.82,11.5-6,7.83,1.35,14.09,6.76,19.67,12.06,4.54,4.25,8.44,9.31,13.81,12.57,2.72,1.47,6.23,2.22,9.1.72a6.89,6.89,0,0,0,3.33-8.41c-1.72-5.76-8.81-7.9-10.18-13.84-.77-2.25.27-4.8,1.87-6.44,4.07-3.67,10.29-4,13.85-8.4A7.49,7.49,0,0,0,1235.94,847.85Z"/><path d="M1059.29,1045.22c4.7,1,10.27-3.2,9.4-8.19.1-3.73-2.89-6.64-6-8.26a8.86,8.86,0,0,0-5.26-.94,7.57,7.57,0,0,0-7.33,7.89C1050.66,1040.46,1054.77,1044.25,1059.29,1045.22Z"/><path d="M1055.79,497.49a4.82,4.82,0,0,0-1.74,5.39,4.76,4.76,0,0,0,6.33,3.05c3.19-1,3.69-5.68,1.32-7.75A4.8,4.8,0,0,0,1055.79,497.49Z"/><path d="M1081.66,468.24c2.59-2.46,5.41-5.05,6.53-8.57a5.55,5.55,0,0,0-1.44-5.79c-2.86-2.78-7.4-1.48-10.33.52-5.28,3.64-10.16,7.82-15.2,11.78-3.31,2.8-7.5,6.36-6.56,11.21a5.77,5.77,0,0,0,5.78,4.88c3.59.46,6.66-1.64,9.39-3.63C1073.93,475.36,1077.75,471.75,1081.66,468.24Z"/><path d="M1091.26,630.75c3.32-2.09,4-6.65,2.24-10a15.39,15.39,0,0,0-8.2-7.22c-2.19-.66-4.76-.92-6.77.34a6.66,6.66,0,0,0-3.49,6.37,13.16,13.16,0,0,0,5,8.6C1083,631.54,1087.66,633,1091.26,630.75Z"/><path d="M1110.21,458.27c-5.38,6-10,12.7-15.27,18.8-4.32,5.11-9,10-12.25,15.9a33,33,0,0,0-4.33,16.73c.06,6.21,2.65,11.94,5.47,17.32a156.47,156.47,0,0,1,7.54,16.77c5.07,14.18,16.91,24.89,30.11,31.51,5.44,2.45,11.43,5.15,17.51,3.63,3.81-.87,7.11-4.66,6-8.74-1.19-4.23-5.52-6.4-9.3-7.91-5.28-1.84-10.73-3.78-15-7.47-7.82-6.38-12.86-15.3-17.92-23.87-3-5.37-6-10.8-7.53-16.77s.09-12.49,3.63-17.49c4.52-6.45,10.56-11.6,15.49-17.71,4.56-5.07,8.3-11.24,14.47-14.56,3.86-2,8.54-.86,11.94,1.57,5.84,4.36,10.82,9.73,16.19,14.63,3.87,3.64,7.48,7.76,12.25,10.27,3,1.68,7.16,1.51,9.42-1.26,1.76-2.06,1.49-5,.73-7.39-1.39-3.46-4.11-6.15-6.66-8.76-7.39-6.73-14.57-13.7-21.3-21.09-3.71-3.87-7-8.45-11.81-11-2.51-1.52-5.68-1.46-8.42-.73-3.4,1.37-6.26,3.76-9,6.17C1118.1,450.55,1113.87,454.12,1110.21,458.27Z"/><path d="M1110.71,941.1c-3.24-2.39-6.59-4.63-9.62-7.28-3.41-2.79-6.74-6.23-11.34-6.77-6.26-.37-11.68,6-10.81,12,.41,3.69,2.93,6.85,6,8.83,3.58,2.23,7.63,3.48,11.48,5.1,4.72,1.8,9.76,5,15,3.37a6.83,6.83,0,0,0,4.89-8.09C1115.59,945.22,1113.07,943,1110.71,941.1Z"/><path d="M1107.11,726c-1.74-4.53-7.29-7.56-11.93-5.42-4.63,1.94-8.38,6.57-8.54,11.68a8.91,8.91,0,0,0,5.74,8.17C1100.56,743.49,1110.38,734.36,1107.11,726Z"/><path d="M1127.89,927c1.39-1.59,1.11-3.91.67-5.82-1.55-3.81-5-6.45-8.57-8.32-2.48-1.34-5.51-2.3-8.26-1.14-3,.84-4.4,4.39-3.4,7.21.51,2.28,2.17,4.07,3.76,5.67,2.61,2.37,5.71,4.45,9.26,5A6.94,6.94,0,0,0,1127.89,927Z"/><path d="M1148.72,493c-2.79-2.24-5.88-5.15-9.75-4.75-3.61-.26-6.3,3.83-5.08,7.12,1.19,3.91,4.58,6.49,7.55,9.05,6.78,5.5,13.53,11,20.6,16.16a117.43,117.43,0,0,1,9.7,7.48c2.75,2.73,5.38,6.51,4.28,10.57-.76,4.22-5.45,6.64-9.46,5.88-5.16-.86-9-4.67-12.79-8-7.86-7-15.85-14-22.49-22.25-2.56-2.95-4.91-6.41-8.62-8a7.29,7.29,0,0,0-5-.26c-3.05,1.09-4.66,4.77-4,7.84.94,5.39,5,9.52,8.36,13.54a119.48,119.48,0,0,0,23.48,20.68c6.23,4.09,11.89,9,18.38,12.73a15.14,15.14,0,0,0,16-.3A60.13,60.13,0,0,0,1194.66,546a12.53,12.53,0,0,0,.77-13.51,73.8,73.8,0,0,0-13.11-15.94c-5-4.82-11.37-7.69-17.31-11.12S1153.83,497.5,1148.72,493Z"/><path d="M1128.74,758.59c4-.55,6.55-5.3,5.14-9-1.06-4.07-5.05-7.69-9.43-7.12-3.82-.11-6.86,3.65-6.73,7.3C1118.05,755.06,1123.38,759.77,1128.74,758.59Z"/><path d="M1201.71,939c-5.36-1.86-11.26-1-16.32,1.35-6.73,2.77-13.42,6.71-21,6.32-4.68,0-9.14-1.52-13.44-3.13-3.45-1.28-7.39-2-10.88-.45-3,1.23-5.24,4.6-4.59,7.89.64,4.44,4.93,7,8.85,8.33,10.92,3.2,22.51,1.67,33.43-.72,6.71-1.6,13.63-.54,20.43-1.21,4.62-.51,9.42-3.53,10.34-8.36C1209.41,944.38,1205.67,940.51,1201.71,939Z"/><path d="M1167.4,929.73a7.24,7.24,0,0,0,3.69-7.81,9.32,9.32,0,0,0-10.25-6.8c-4.49.3-8.45,4.9-7.23,9.45C1155,930.25,1162.61,932.67,1167.4,929.73Z"/><path d="M1192.76,836.54a9,9,0,0,0,9.69-2.44c3.8-4,3-10.28.79-14.88s-4.88-9.07-9.23-11.81a8.7,8.7,0,0,0-7.7-1c-4.29,1.75-6.52,6.76-5.73,11.2a31.54,31.54,0,0,0,4.79,12.09A16.35,16.35,0,0,0,1192.76,836.54Z"/><path d="M1203.26,672.81c-4.62,1.88-9.47,3.55-13.27,6.89-1.72,1.69-3.29,4.09-2.59,6.61a4.82,4.82,0,0,0,3.6,3.82c3.43,1,6.89-.65,9.9-2.19,7.33-4,14.95-7.85,23.28-9.32,5.77-1.3,12.64-1.46,16.8-6.32a7.46,7.46,0,0,0-1.87-11.64c-4.26-2.53-9.31-.58-13.29,1.54A166.79,166.79,0,0,1,1203.26,672.81Z"/><path d="M1213,580.61a9.59,9.59,0,0,0,8.19-7.25,12.94,12.94,0,0,0-6.09-12.83,9.29,9.29,0,0,0-10.35,0,10.36,10.36,0,0,0-4.91,11.12A13.14,13.14,0,0,0,1213,580.61Z"/></svg>