<svg id="Abstract_Shape" data-name="Abstract Shape" xmlns="http://www.w3.org/2000/svg" viewBox="0 0 1500 1500"><polygon points="1142.33 1041.65 1107.41 989.14 1004.23 1021.86 1028.53 1077.94 1142.33 1041.65"/><polygon points="977.28 969.9 1002.08 1017.29 1104.19 984.92 1068.58 941.09 977.28 969.9"/><polygon points="748.79 674.15 718.84 675.86 721.57 735.94 748.54 734.39 748.79 674.15"/><polygon points="718.54 670.87 748.81 669.14 748.89 604.49 713.78 606.49 718.54 670.87"/><polygon points="862.8 824.54 842.23 815.14 844.26 860.47 865.57 870.25 862.8 824.54"/><polygon points="890.48 843.48 892.11 865.6 903.96 861.9 903.41 855.36 890.48 843.48"/><polygon points="845.53 756.7 842.16 809.61 863 819.13 867.24 766.57 845.53 756.7"/><polygon points="953.53 791.7 937.84 837.38 939.16 845.33 941.53 843.72 955.73 804.73 953.53 791.7"/><polygon points="953.58 827.87 953.92 824.29 948.59 838.93 949.71 838.17 953.58 827.87"/><polygon points="816.36 747.35 813.92 800.72 837.26 807.85 840.65 754.74 816.36 747.35"/><polygon points="813.92 805.95 815.15 851.31 839.17 858.68 837.13 813.04 813.92 805.95"/><polygon points="895.02 785.18 890.13 836.37 903.87 848.99 909.37 798.3 895.02 785.18"/><polygon points="344.86 1108.16 250 1062.96 250 1141 315.88 1172.6 344.86 1108.16"/><polygon points="378.98 1044.16 275.12 994.99 250 1028.71 250 1057.43 347.06 1103.68 378.98 1044.16"/><polygon points="250 1146.54 250 1225.55 288.97 1244.37 313.97 1177.23 250 1146.54"/><polygon points="250 1250 287.09 1250 287.35 1249.14 250 1231.1 250 1250"/><polygon points="250 978.35 250 1020.34 270.77 992.45 250 978.35"/><polygon points="748.51 739.4 721.71 740.94 722.34 794.63 748.11 793.13 748.51 739.4"/><polygon points="317.31 940.64 250 895.25 250 972.31 273.95 988.56 317.31 940.64"/><polygon points="318.62 1179.06 293.61 1246.23 305.36 1250 448.85 1250 455.53 1222.69 318.62 1179.06"/><polygon points="720.87 845.05 747.53 843.5 748.06 798.15 722.3 799.63 720.87 845.05"/><polygon points="746.81 883.95 747.45 848.52 720.58 850.08 717.55 882.48 746.81 883.95"/><polygon points="1048.37 1146.69 1025.5 1083.84 901.76 1106.38 913.74 1171.36 1048.37 1146.69"/><polygon points="454 1250 603.01 1250 460.38 1223.9 454 1250"/><polygon points="622.87 1176.9 613.03 1246.44 672.63 1250 764.35 1250 763.91 1185.29 622.87 1176.9"/><polygon points="1028.62 715.92 992 755.62 990.18 774.88 1026.49 739.24 1028.62 715.92"/><polygon points="1022.74 749.93 989.2 782.85 983.27 798.96 1015.5 769.73 1022.74 749.93"/><polygon points="1024.73 683.18 987.64 728.46 991.19 749.12 1029.1 708.02 1024.73 683.18"/><polygon points="973.18 818.48 996.38 798.51 1004.31 786.63 979.31 809.31 973.18 818.48"/><polygon points="988.61 821.71 972.56 828.72 958.1 838.53 957.71 838.79 971.32 833.44 988.61 821.71"/><polygon points="976.29 702.18 985.62 723.04 1023.33 677 1012.06 652.07 976.29 702.18"/><polygon points="1049.63 805.61 1013.36 810.96 981.29 832.72 1012.05 831.16 1049.63 805.61"/><polygon points="999.74 802.24 982.85 818.77 1011.01 806.47 1031.29 786.58 999.74 802.24"/><polygon points="1035.01 567 994.29 618.8 1012.76 643.21 1057.25 596.12 1035.01 567"/><polygon points="365.07 897.7 294.65 850.5 250 879 250 889.22 320.88 937.02 365.07 897.7"/><polygon points="891.64 552.37 926.97 568.15 956.88 508.35 914.75 489.65 891.64 552.37"/><polygon points="961.29 510.71 931.39 570.51 961.94 589.86 997.81 533.68 961.29 510.71"/><polygon points="965.95 592.86 990.82 615.13 1031.62 563.22 1001.8 536.72 965.95 592.86"/><polygon points="885.38 555.38 846.86 543.87 833.97 609.21 866.44 618.97 885.38 555.38"/><polygon points="934.27 655.38 954.73 673.84 987.92 619.25 963.47 597.35 934.27 655.38"/><polygon points="924.93 572.71 890.07 557.15 871.14 620.7 900.47 633.88 924.93 572.71"/><polygon points="1009.44 647.12 991.36 623.22 958.31 677.57 973.37 697.66 1009.44 647.12"/><polygon points="973.28 707.69 947.13 759.07 954.64 776.03 982.19 727.62 973.28 707.69"/><polygon points="977.25 800.84 958.28 829.57 957.22 832.45 975.16 806.51 977.25 800.84"/><polygon points="959.45 594.21 929.34 575.13 904.91 636.24 930.19 652.36 959.45 594.21"/><polygon points="794.49 602.07 829.09 608.07 841.99 542.72 800.98 535.65 794.49 602.07"/><polygon points="906.45 715.07 928.13 656.98 903.27 641.12 885.13 701.38 906.45 715.07"/><polygon points="986.96 754.04 983.7 735.06 956.97 782.04 959.66 798.02 986.96 754.04"/><polygon points="970.49 702.14 955.85 682.63 931.52 737.55 943.96 754.26 970.49 702.14"/><polygon points="925.82 738.68 909.15 723.53 895.79 779.11 910.68 792.73 925.82 738.68"/><polygon points="952.28 678.36 932.24 660.27 910.64 718.13 927.76 733.69 952.28 678.36"/><polygon points="861.13 873.71 845.21 866.41 847.11 876.22 861.13 873.71"/><polygon points="1211.65 610.19 1250 602.22 1250 548.39 1202.75 563.83 1211.65 610.19"/><polygon points="1180.12 514.31 1201.2 559.08 1250 543.13 1250 507.18 1240.18 486.62 1180.12 514.31"/><polygon points="1208.42 661.82 1250 657.85 1250 607.33 1212.02 615.22 1208.42 661.82"/><polygon points="1191.42 712.45 1250 713.43 1250 662.88 1207.52 666.93 1191.42 712.45"/><polygon points="1250 495.57 1250 483.25 1244.88 484.84 1250 495.57"/><polygon points="1160.94 760.51 1218.43 768.36 1250 719.86 1250 718.43 1189.23 717.41 1160.94 760.51"/><polygon points="1242.28 480.42 1250 478.02 1250 410.75 1204.05 431.77 1242.28 480.42"/><polygon points="1246.73 252.05 1215.76 257.93 1250 278.75 1250 254.03 1246.73 252.05"/><polygon points="1250 777.39 1250 729.03 1223.59 769.61 1250 777.39"/><polygon points="1230.72 250 1199.7 250 1209.19 254.08 1230.72 250"/><polygon points="1172.87 275.49 1250 322.57 1250 284.6 1208.72 259.5 1172.87 275.49"/><polygon points="1150.11 384.07 1200.55 427.88 1250 405.25 1250 397.56 1198.43 353.06 1150.11 384.07"/><polygon points="1250 390.95 1250 329.15 1203.23 350.6 1250 390.95"/><polygon points="768.91 1185.29 769.35 1250 860.94 1250 920.36 1246.44 909.61 1176.9 768.91 1185.29"/><polygon points="250 807.99 250 873.07 290.67 847.12 250 807.99"/><polygon points="930.36 1250 1078.53 1250 1071.96 1223.9 930.36 1250"/><polygon points="1243.86 1250 1250 1250 1250 1245.97 1243.6 1249.12 1243.86 1250"/><polygon points="1241.96 1244.35 1250 1240.4 1250 1160.86 1216.57 1177.2 1241.96 1244.35"/><polygon points="1202.67 256.72 1187.06 250 1115.58 250 1167.49 272.41 1202.67 256.72"/><polygon points="847.92 538.97 886.95 550.63 910.06 487.93 863.59 474.13 847.92 538.97"/><polygon points="1182.67 1103.67 1250 1070.97 1250 995.74 1149.72 1044.13 1182.67 1103.67"/><polygon points="1158.98 897.64 1204.53 937.02 1250 905.51 1250 864.63 1227.43 850.51 1158.98 897.64"/><polygon points="1214.63 1172.59 1250 1155.29 1250 1076.53 1184.93 1108.14 1214.63 1172.59"/><polygon points="1250 858.73 1250 828.4 1231.35 847.06 1250 858.73"/><polygon points="1250 985.7 1250 911.59 1208.16 940.59 1250 985.7"/><polygon points="1173.52 820.44 1226.82 844.53 1250 821.33 1250 782.6 1220.38 773.87 1173.52 820.44"/><polygon points="1076.81 1222.68 1083.68 1250 1225.77 1250 1237.33 1246.24 1211.93 1179.07 1076.81 1222.68"/><polygon points="250 481.06 250 513.19 262.38 484.88 250 481.06"/><polygon points="327.46 514.35 267.07 486.65 250 525.67 250 540.04 308.2 559.06 327.46 514.35"/><polygon points="288.57 259.49 250 283.54 250 323.09 325.96 275.56 288.57 259.49"/><polygon points="306.8 563.86 250 545.3 250 599.79 299.76 610.16 306.8 563.86"/><polygon points="250.49 328.95 250 329.39 250 394.38 298.93 350.66 250.49 328.95"/><polygon points="353.11 384.12 303.73 353.07 250 401.09 250 403.27 304.49 427.87 353.11 384.12"/><polygon points="301.09 431.82 250 408.75 250 475.83 264.85 480.4 301.09 431.82"/><polygon points="347.14 820.49 298.35 773.87 250 788.36 250 801.05 295.19 844.53 347.14 820.49"/><polygon points="1124.02 301.5 1162.32 275.63 1102.97 250 1060.53 250 1043.88 266.76 1124.02 301.5"/><polygon points="324.02 712.45 306.1 666.93 250 661.53 250 680.77 262.71 713.49 324.02 712.45"/><polygon points="299.56 615.23 250 604.9 250 656.51 305.02 661.81 299.56 615.23"/><polygon points="250 694.58 250 715.31 257.56 714.06 250 694.58"/><polygon points="259.85 718.75 250 720.38 250 783.14 295.02 769.65 259.85 718.75"/><polygon points="835.96 269.94 840.5 250 751.47 250 751.73 265.3 835.96 269.94"/><polygon points="746.73 265.3 746.47 250 657.49 250 662.71 269.95 746.73 265.3"/><polygon points="657.7 270.55 652.32 250 558.54 250 576.4 284.34 657.7 270.55"/><polygon points="939.56 250 845.63 250 840.95 270.53 922.87 284.33 939.56 250"/><polygon points="250 252.25 250 277.64 281.54 257.98 250 252.25"/><polygon points="1005.03 308.07 1035.31 268.97 970.01 250 945.12 250 927.85 285.54 1005.03 308.07"/><polygon points="1053.48 250 987.93 250 1038.8 264.78 1053.48 250"/><polygon points="331.32 272.42 382.35 250 309.85 250 294.64 256.66 331.32 272.42"/><polygon points="297.38 250 265.58 250 288.06 254.09 297.38 250"/><polygon points="510.28 250 444.57 250 459.98 264.79 510.28 250"/><polygon points="376.25 301.5 454.87 266.82 437.36 250 394.78 250 336.57 275.58 376.25 301.5"/><polygon points="495.21 308.07 571.4 285.57 552.9 250 528.01 250 463.59 268.94 495.21 308.07"/><polygon points="984.62 780.6 986.1 764.91 960.73 805.79 959.49 818.67 984.62 780.6"/><polygon points="334.34 512.4 391.13 547.8 417.02 512.39 364.93 471 334.34 512.4"/><polygon points="413.6 426.9 459.38 473.49 502.61 445.79 464.27 394.66 413.6 426.9"/><polygon points="441.86 738.85 429.61 708.41 377.48 685.7 391.94 721.98 441.86 738.85"/><polygon points="420.35 508.64 455.42 476.6 409.55 429.92 368.31 467.3 420.35 508.64"/><polygon points="430.91 628.3 443.98 597.05 392.77 555.2 377.02 592.31 430.91 628.3"/><polygon points="428.51 702.48 424.49 670.77 370.59 641.47 375.21 679.26 428.51 702.48"/><polygon points="370.24 635.59 424.84 665.27 429.35 633.27 375.81 597.51 370.24 635.59"/><polygon points="674.9 612.99 684.36 676.56 713.57 671.43 708.81 607.07 674.9 612.99"/><polygon points="623.92 406.07 642.54 468.14 692.2 459.58 682.55 396.02 623.92 406.07"/><polygon points="643.86 472.99 659.96 537.83 701.18 530.68 692.88 464.54 643.86 472.99"/><polygon points="661.04 542.72 674.05 608.06 708.38 602.07 701.74 535.66 661.04 542.72"/><polygon points="532.14 364.47 561.89 419.04 617.48 402.44 597 345.21 532.14 364.47"/><polygon points="468.76 392.31 507.03 443.34 557.18 420.84 527.38 366.17 468.76 392.31"/><polygon points="601.91 344.11 622.36 401.26 681.73 391.09 671.09 332.31 601.91 344.11"/><polygon points="361.51 384.02 409.83 423.38 461.02 390.8 420.57 346.68 361.51 384.02"/><polygon points="839.66 864.06 815.68 856.7 818.86 881.27 842.19 877.1 839.66 864.06"/><polygon points="362.14 760 413.58 761.92 388.61 726.3 333.02 718.19 362.14 760"/><polygon points="801.52 530.67 843.05 537.83 858.72 473 809.33 464.54 801.52 530.67"/><polygon points="816.9 886.59 762.42 889.76 762.8 892.33 820.94 888.94 816.9 886.59"/><polygon points="941.77 925.18 919.35 899.53 846 912.68 857.89 940.25 941.77 925.18"/><polygon points="914.05 895.4 895.09 881.74 833.55 892.75 843.63 908.02 914.05 895.4"/><polygon points="883.13 878.8 873.43 876.59 824.65 885.31 829.83 888.33 883.13 878.8"/><polygon points="417.18 862 457.95 843.02 405.94 808.49 357.42 822.15 417.18 862"/><polygon points="455.69 935.18 489.11 901.25 417.19 867.72 374.18 897.02 455.69 935.18"/><polygon points="641.54 1043.31 529.38 1023.13 506.55 1079.09 630.3 1101.47 641.54 1043.31"/><polygon points="451.77 799.52 417.48 767.07 367.31 765.2 407.27 803.19 451.77 799.52"/><polygon points="526.53 1017.28 549.68 969.93 457.14 941.1 423.04 984.88 526.53 1017.28"/><polygon points="386.3 1041.63 501.62 1077.93 524.49 1021.88 419.93 989.15 386.3 1041.63"/><polygon points="638.41 623.8 652.26 686.03 679.48 677.71 670.03 614.18 638.41 623.8"/><polygon points="462.69 477.3 504.29 529.58 540.29 506.35 505.44 449.92 462.69 477.3"/><polygon points="564.13 423.59 591.22 483.26 637.67 469.31 619.04 407.19 564.13 423.59"/><polygon points="509.85 447.56 544.68 503.94 586.53 485.04 559.42 425.32 509.85 447.56"/><polygon points="424.07 512.01 471.25 559.45 500.34 532.64 458.73 480.34 424.07 512.01"/><polygon points="395.19 550.71 446.54 592.68 467.9 563.17 420.75 515.76 395.19 550.71"/><polygon points="478.82 735.23 475.54 710.15 430.05 674.86 433.88 705.09 478.82 735.23"/><polygon points="481.22 673.15 491.76 647.61 447.83 600.82 435.03 631.4 481.22 673.15"/><polygon points="429.49 668.1 475.99 704.17 479.52 678.36 433.86 637.08 429.49 668.1"/><polygon points="662.02 754.74 664.58 807.83 687.57 800.72 685.94 747.38 662.02 754.74"/><polygon points="653.19 690.98 661.49 749.67 685.66 742.24 680.06 682.75 653.19 690.98"/><polygon points="687.45 805.99 664.62 813.05 661.53 858.64 685.17 851.3 687.45 805.99"/><polygon points="593.12 487.91 616.57 550.63 655.09 538.99 638.99 474.13 593.12 487.91"/><polygon points="969.53 966.62 945.37 929.61 859.64 945.02 872.42 984.14 969.53 966.62"/><polygon points="618.16 555.37 637.14 618.96 669.18 609.21 656.18 543.88 618.16 555.37"/><polygon points="463.54 840.73 499.75 832.48 456.89 804.11 413.75 807.67 463.54 840.73"/><polygon points="636.92 878.67 691.2 888.31 695.16 885.47 645.16 876.6 636.92 878.67"/><polygon points="761.48 995.62 658.88 989.61 647.58 1038.98 762.35 1045.73 761.48 995.62"/><polygon points="685.04 908.51 759.14 912.82 758.29 897.32 693.23 893.54 685.04 908.51"/><polygon points="685.91 878.75 701.74 881.56 712.56 882.19 715.49 850.74 689.76 855.32 685.91 878.75"/><polygon points="717.35 795.18 716.72 741.56 690.91 746.11 692.54 799.58 717.35 795.18"/><polygon points="715.85 845.6 717.28 800.27 692.52 804.66 690.24 850.16 715.85 845.6"/><polygon points="552.08 965.44 574.57 928.3 494.09 903.32 460.89 937.03 552.08 965.44"/><polygon points="642.57 1038.42 653.89 988.99 554.62 971.21 531.53 1018.44 642.57 1038.42"/><polygon points="495.99 804.89 469.19 779.61 427.1 769.28 458.7 799.19 495.99 804.89"/><polygon points="420.02 762.4 464.54 773.32 444.64 745.06 396.46 728.79 420.02 762.4"/><polygon points="690.58 741.09 716.59 736.5 713.86 676.46 684.97 681.53 690.58 741.09"/><polygon points="489.42 765.3 479.98 742.03 436.9 713.13 448.21 741.23 489.42 765.3"/><polygon points="493.09 897.59 524.25 874.6 463.05 846.16 422.88 864.86 493.09 897.59"/><polygon points="278.45 991.03 381.51 1039.83 415.21 987.24 321.71 943.23 278.45 991.03"/><polygon points="369.98 677.67 365.22 638.78 304.79 616.88 310.15 662.59 369.98 677.67"/><polygon points="304.62 611.5 365.49 633.56 371.17 594.69 311.55 565.87 304.62 611.5"/><polygon points="372.64 589.84 388.64 552.14 331.87 516.75 312.83 560.93 372.64 589.84"/><polygon points="401.46 804.55 359.95 765.1 304.49 772.82 352.21 818.43 401.46 804.55"/><polygon points="369.13 894.4 412.48 864.88 351.29 824.08 299.77 847.92 369.13 894.4"/><polygon points="300.21 768.37 356.42 760.54 326.38 717.41 265.72 718.44 300.21 768.37"/><polygon points="386.11 720.88 371.06 683.1 311.98 668.21 329.46 712.62 386.11 720.88"/><polygon points="269.65 482.33 329.92 509.97 360.83 468.13 305.59 434.15 269.65 482.33"/><polygon points="364.17 464.31 405.81 426.55 357.32 387.06 309.11 430.44 364.17 464.31"/><polygon points="380.63 305.04 421.44 340.52 490.32 309.98 458.55 270.66 380.63 305.04"/><polygon points="498.25 312.39 529.54 360.02 595.15 340.55 573.59 290.13 498.25 312.39"/><polygon points="425.2 344.32 465.5 388.29 524.77 361.86 493.39 314.09 425.2 344.32"/><polygon points="255.34 325.65 303.27 347.12 371.38 304.3 331.31 278.11 255.34 325.65"/><polygon points="416.83 343.13 375.77 307.44 308.16 349.95 357.24 380.81 416.83 343.13"/><polygon points="320.54 1174.43 456.84 1217.86 476.62 1150.27 349.51 1110.01 320.54 1174.43"/><polygon points="854.6 945.67 765.45 950.89 766.38 990.61 867.34 984.68 854.6 945.67"/><polygon points="840.85 913.37 764.37 917.83 765.31 945.89 852.67 940.78 840.85 913.37"/><polygon points="418.11 983.08 452.33 939.13 369.57 900.38 325.59 939.53 418.11 983.08"/><polygon points="837.98 908.53 828.07 893.53 763.3 897.31 764.15 912.84 837.98 908.53"/><polygon points="883.04 1043.92 767.43 1050.74 768.19 1109.61 895.78 1102.05 883.04 1043.92"/><polygon points="896.79 1107 768.25 1114.62 768.87 1180.28 908.76 1171.94 896.79 1107"/><polygon points="868.82 989.61 766.48 995.61 767.35 1045.73 881.83 1038.98 868.82 989.61"/><polygon points="763.25 1114.62 634.38 1107 623.64 1171.94 763.87 1180.28 763.25 1114.62"/><polygon points="578.56 289.04 600.08 339.35 670.11 327.41 658.87 275.42 578.56 289.04"/><polygon points="658.67 873.91 680.99 877.88 684.46 856.76 660.91 864.07 658.67 873.91"/><polygon points="499.87 1082.62 383.65 1046.04 351.77 1105.48 478.14 1145.5 499.87 1082.62"/><polygon points="629.41 1106.4 504.73 1083.85 483.02 1146.68 618.67 1171.36 629.41 1106.4"/><polygon points="481.47 1151.48 461.69 1219.06 608.07 1245.84 617.91 1176.3 481.47 1151.48"/><polygon points="697.17 459 748.52 456.12 748.11 392.09 687.52 395.47 697.17 459"/><polygon points="1201.79 668.14 1141.8 683.09 1128.23 720.92 1186.05 712.63 1201.79 668.14"/><polygon points="1125.94 726.29 1102.38 761.93 1155.29 760 1182.77 718.15 1125.94 726.29"/><polygon points="1169.44 824.08 1109.97 864.82 1154.87 894.41 1222.3 847.97 1169.44 824.08"/><polygon points="1157.55 765.1 1117.67 804.5 1168.45 818.43 1214.31 772.85 1157.55 765.1"/><polygon points="1199.54 434.13 1144.91 468.08 1177.54 509.99 1237.45 482.37 1199.54 434.13"/><polygon points="1206.88 616.81 1145.89 638.76 1142.68 677.71 1203.34 662.6 1206.88 616.81"/><polygon points="1138.2 594.66 1145.45 633.6 1206.81 611.52 1198.04 565.81 1138.2 594.66"/><polygon points="1119.05 552.1 1136.59 589.88 1196.56 560.97 1175.72 516.7 1119.05 552.1"/><polygon points="1073.39 939.09 1109.15 983.08 1199.84 939.57 1154.51 900.38 1073.39 939.09"/><polygon points="1023.59 1079.11 999.33 1023.13 888.02 1043.3 900.77 1101.48 1023.59 1079.11"/><polygon points="1209.98 1174.44 1180.29 1110.02 1054.84 1150.25 1075.46 1217.86 1209.98 1174.44"/><polygon points="1049.98 1151.48 914.57 1176.29 925.33 1245.84 1070.6 1219.07 1049.98 1151.48"/><polygon points="1203.78 943.23 1112.12 987.2 1147.13 1039.83 1248.16 991.07 1203.78 943.23"/><polygon points="1030.37 1082.6 1053.25 1145.51 1177.97 1105.51 1145.06 1046.03 1030.37 1082.6"/><polygon points="905.47 340.52 971.93 360.02 1002.07 312.41 925.77 290.14 905.47 340.52"/><polygon points="713.35 601.5 748.89 599.48 748.81 532.7 706.7 535.08 713.35 601.5"/><polygon points="706.15 530.11 748.79 527.7 748.54 461.13 697.85 463.98 706.15 530.11"/><polygon points="699.01 888.87 757.74 892.28 757.37 889.8 702.18 886.6 699.01 888.87"/><polygon points="686.71 390.51 748.07 387.08 747.52 327.8 676.07 331.77 686.71 390.51"/><polygon points="752.47 322.8 825.02 326.82 834.94 274.89 751.81 270.31 752.47 322.8"/><polygon points="997.04 1018.46 972.32 971.2 873.83 988.97 886.86 1038.43 997.04 1018.46"/><polygon points="1124.56 307.44 1084.73 343.08 1145.92 380.82 1193.95 350 1124.56 307.44"/><polygon points="1040.32 270.67 1009.9 309.94 1080.1 340.52 1119.7 305.08 1040.32 270.67"/><polygon points="1098.26 426.5 1141.48 464.33 1195.92 430.49 1145.91 387.05 1098.26 426.5"/><polygon points="1245.53 325.7 1167.57 278.12 1128.9 304.24 1198.82 347.12 1245.53 325.7"/><polygon points="675.1 326.82 747.47 322.8 746.8 270.3 663.87 274.89 675.1 326.82"/><polygon points="830 327.4 900.56 339.34 920.82 289.06 839.92 275.43 830 327.4"/><polygon points="976.71 361.83 1037.11 388.29 1076.4 344.36 1006.93 314.09 976.71 361.83"/><polygon points="762.42 1050.74 646.52 1043.92 635.28 1102.05 763.19 1109.61 762.42 1050.74"/><polygon points="576 861.34 625.07 876.49 635.8 873.79 591.92 860.26 576 861.34"/><polygon points="552.07 804.71 563.16 836.87 567.82 839.94 568.14 837.41 553.6 792.88 552.07 804.71"/><polygon points="576.29 816.46 561.31 766.53 555.21 781.67 570.93 829.84 576.29 816.46"/><polygon points="549.94 682.78 536.2 702.12 562.03 754.12 573.7 737.58 549.94 682.78"/><polygon points="589.71 796.83 575.52 743.68 564.4 759.44 579.85 810.91 589.71 796.83"/><polygon points="553.47 678.34 577.43 733.61 593.83 718.15 572.68 660.36 553.47 678.34"/><polygon points="579.55 847.53 577.47 826.96 573.24 837.52 573.94 843.98 579.55 847.53"/><polygon points="562.55 862.42 536.34 873.72 602.03 894.04 619.72 880.07 562.55 862.42"/><polygon points="610.53 860.76 612.15 843.8 600.02 855.36 599.85 856.92 610.53 860.76"/><polygon points="608.65 785.37 595.02 798.29 599.65 848.8 612.7 836.38 608.65 785.37"/><polygon points="630.86 867.04 634.12 827.83 617.66 838.79 615.4 862.27 630.86 867.04"/><polygon points="543.93 838.14 518.82 836.8 562.87 857.22 582.3 855.9 543.93 838.14"/><polygon points="607.98 779.13 595.28 723.66 579.35 738.67 593.75 792.61 607.98 779.13"/><polygon points="667.57 940.24 677.58 912.71 603.56 899.54 582.96 925.14 667.57 940.24"/><polygon points="631.08 769.48 613.34 781.23 617.44 832.93 634.45 821.61 631.08 769.48"/><polygon points="783.83 675.86 753.79 674.15 753.54 734.39 780.59 735.95 783.83 675.86"/><polygon points="789.09 606.49 753.89 604.49 753.81 669.14 784.15 670.87 789.09 606.49"/><polygon points="808.97 799.59 811.41 746.11 785.38 741.55 783.94 795.18 808.97 799.59"/><polygon points="753.06 798.14 752.53 843.51 779.26 845.06 778.9 799.63 753.06 798.14"/><polygon points="576.76 656.96 598.01 715.02 618.7 701.4 600.91 641.16 576.76 656.96"/><polygon points="810.12 850.18 808.89 804.65 783.91 800.25 784.27 845.61 810.12 850.18"/><polygon points="552.19 775.78 558.92 759.1 533.52 707.96 525.52 727.59 552.19 775.78"/><polygon points="518.17 619.23 551.02 673.78 570.66 655.4 541.66 597.41 518.17 619.23"/><polygon points="545.64 594.19 574.71 652.33 599.27 636.26 574.91 575.16 545.64 594.19"/><polygon points="497.75 647.09 533.3 697.56 547.49 677.61 514.79 623.32 497.75 647.09"/><polygon points="850.09 690.98 822.83 682.74 816.7 742.23 841.23 749.69 850.09 690.98"/><polygon points="788.8 676.45 785.57 736.5 811.79 741.1 817.93 681.53 788.8 676.45"/><polygon points="813.88 881.75 810.45 855.31 784.46 850.72 786.34 883.36 813.88 881.75"/><polygon points="521.79 754.01 547.96 797.52 549.96 782.07 524.23 735.6 521.79 754.01"/><polygon points="1113.29 808.49 1062.76 842.95 1105.23 862 1163.32 822.21 1113.29 808.49"/><polygon points="1140.66 641.34 1085.99 670.75 1083.22 702.58 1137.53 679.28 1140.66 641.34"/><polygon points="1064.7 937.08 1029.82 903.31 950.46 928.25 974.74 965.46 1064.7 937.08"/><polygon points="1105.29 867.72 1034.82 901.19 1069.94 935.19 1149.83 897.07 1105.29 867.72"/><polygon points="1135.6 685.54 1082.34 708.4 1071.25 738.96 1122.53 721.99 1135.6 685.54"/><polygon points="1068.75 745.06 1049.89 773.43 1096.08 762.4 1118.41 728.62 1068.75 745.06"/><polygon points="1098.68 767.06 1065.71 799.49 1111.89 803.19 1150.35 765.19 1098.68 767.06"/><polygon points="872.02 769.38 867.82 821.6 885.42 833.02 890.38 781.23 872.02 769.38"/><polygon points="879.36 703.93 854.87 692.85 846.02 751.43 868.03 761.43 879.36 703.93"/><polygon points="1024.9 899.62 992.38 876.86 924.7 898.06 947.37 923.98 1024.9 899.62"/><polygon points="868 827.68 870.68 872 887.21 867.13 885.12 838.79 868 827.68"/><polygon points="943.9 861.4 926 860.26 883.09 873.66 895.59 876.5 943.9 861.4"/><polygon points="985.41 873.8 957.41 862.41 901.21 879.98 920.74 894.06 985.41 873.8"/><polygon points="945.28 420.81 996.4 443.35 1033.9 392.34 974.16 366.17 945.28 420.81"/><polygon points="659.46 815.22 639.41 824.54 635.75 868.55 637.76 869.17 656.4 860.47 659.46 815.22"/><polygon points="884.26 402.42 940.57 419.04 969.4 364.49 903.72 345.22 884.26 402.42"/><polygon points="819.56 391.08 879.37 401.26 898.81 344.12 829.13 332.32 819.56 391.08"/><polygon points="753.07 387.08 814.59 390.51 824.15 331.78 752.52 327.81 753.07 387.08"/><polygon points="624.43 703.92 635.16 761.4 656.69 751.43 648.41 692.89 624.43 703.92"/><polygon points="655.22 866.53 644.88 871.36 653.75 873.04 655.22 866.53"/><polygon points="1049.27 476.55 1085.68 508.66 1137.33 467.34 1094.54 429.9 1049.27 476.55"/><polygon points="1140.81 470.96 1089.09 512.34 1116.45 547.83 1173.11 512.44 1140.81 470.96"/><polygon points="1133.63 597.41 1079.66 633.24 1085.47 665.35 1140.74 635.62 1133.63 597.41"/><polygon points="635.9 766.57 639.3 819.08 659.66 809.61 657.11 756.75 635.9 766.57"/><polygon points="1063.6 597.01 1077.96 628.36 1132.22 592.34 1114.94 555.12 1063.6 597.01"/><polygon points="1038.41 394.65 1000.84 445.75 1045.26 473.5 1090.44 426.94 1038.41 394.65"/><polygon points="1081.04 346.68 1041.61 390.75 1094.19 423.38 1141.67 384.07 1081.04 346.68"/><polygon points="751.81 883.95 781.35 883.65 779.41 850.07 752.45 848.51 751.81 883.95"/><polygon points="1019.38 773.04 1005.55 793.77 1042.58 775.39 1059.23 750.34 1019.38 773.04"/><polygon points="1099.52 864.92 1057.69 846.16 997.76 874.52 1030.73 897.6 1099.52 864.92"/><polygon points="1060.73 804.11 1019.09 832.42 1057.14 840.73 1105.57 807.7 1060.73 804.11"/><polygon points="1045.54 779.61 1019.66 804.98 1058.88 799.19 1089.46 769.12 1045.54 779.61"/><polygon points="530.27 818 513.55 802.24 484.92 787.57 504.94 806.47 530.27 818"/><polygon points="529.17 871.37 556.28 859.67 505.73 836.25 470.73 844.22 529.17 871.37"/><polygon points="1049.96 844.28 1013.18 836.24 963.74 859.59 992.73 871.37 1049.96 844.28"/><polygon points="506.81 831.16 535.49 832.68 502.61 810.96 468.41 805.74 506.81 831.16"/><polygon points="1075.24 636.91 1028.95 678.32 1033.53 704.32 1080.89 668.12 1075.24 636.91"/><polygon points="480.52 707.99 517.43 748.86 520.13 728.49 483.87 683.47 480.52 707.99"/><polygon points="472.12 775.39 507.09 793.31 492.76 773.05 454.88 750.91 472.12 775.39"/><polygon points="577.49 923.97 598.29 898.12 529.6 876.87 498.84 899.56 577.49 923.97"/><polygon points="1080.64 674.61 1034.17 710.13 1031.86 735.44 1077.98 705.11 1080.64 674.61"/><polygon points="526.85 798.03 520.66 782.87 489.01 750.98 496.6 769.71 526.85 798.03"/><polygon points="519.33 774.42 516.82 755.65 481.4 716.43 484.38 739.22 519.33 774.42"/><polygon points="1075.44 712.76 1030.96 742.02 1022.33 765.61 1065.11 741.24 1075.44 712.76"/><polygon points="919.1 855.35 923.63 817.26 913.79 803.95 908.41 853.48 912.18 858.61 919.1 855.35"/><polygon points="789.52 601.5 796.01 535.08 753.81 532.7 753.89 599.48 789.52 601.5"/><polygon points="865.17 623.8 833.11 614.17 823.45 677.7 851.04 686.04 865.17 623.8"/><polygon points="828.23 612.99 794.06 607.07 789.12 671.43 818.57 676.57 828.23 612.99"/><polygon points="760.45 950.9 671.06 945.68 660.16 984.67 761.38 990.6 760.45 950.9"/><polygon points="682.66 913.38 672.7 940.77 760.31 945.88 759.37 917.84 682.66 913.38"/><polygon points="625.67 881.75 608.46 895.33 679.61 908 687.93 892.81 625.67 881.75"/><polygon points="753.79 527.69 796.55 530.11 804.36 463.98 753.54 461.13 753.79 527.69"/><polygon points="932.7 837.54 927.63 825.98 924.44 852.83 931.17 849.65 932.7 837.54"/><polygon points="1000.38 836.76 973.11 838.14 935.54 855.85 957.03 857.22 1000.38 836.76"/><polygon points="655.12 984.13 666.05 945.04 579.62 929.62 557.23 966.59 655.12 984.13"/><polygon points="951.67 781.7 944.76 766.06 928.9 816.43 934.98 830.3 951.67 781.7"/><polygon points="898.8 638.61 869.88 625.62 855.78 687.78 880.63 699.01 898.8 638.61"/><polygon points="891.4 775.95 904.86 719.99 883.94 706.55 872.65 763.84 891.4 775.95"/><polygon points="941.59 759.46 929.68 743.45 914.73 796.81 925.32 811.14 941.59 759.46"/><polygon points="522.04 722.88 530.46 702.21 495.26 652.24 485.05 676.97 522.04 722.88"/><polygon points="507.19 533.66 543.15 589.84 572.86 570.53 542.73 510.73 507.19 533.66"/><polygon points="916.63 485.02 959.3 503.95 993.61 447.58 943.1 425.31 916.63 485.02"/><polygon points="579.31 572.7 603.7 633.86 632.44 620.71 613.48 557.16 579.31 572.7"/><polygon points="864.87 469.29 911.93 483.27 938.38 423.61 882.76 407.19 864.87 469.29"/><polygon points="605.36 638.6 623.2 698.99 647.53 687.79 633.69 625.64 605.36 638.6"/><polygon points="1004.7 532.6 1034.93 559.47 1081.96 512.05 1045.98 480.31 1004.7 532.6"/><polygon points="547.11 508.33 577.25 568.14 611.89 552.39 588.44 489.67 547.11 508.33"/><polygon points="998.05 449.9 963.71 506.32 1000.7 529.59 1041.96 477.33 998.05 449.9"/><polygon points="548.69 817.49 547.11 805.81 523.27 766.17 525.2 780.58 548.69 817.49"/><polygon points="536.27 807.29 535.57 806.19 535.68 806.45 536.27 807.29"/><polygon points="809.96 459.57 859.99 468.14 877.88 406.08 818.81 396.03 809.96 459.57"/><polygon points="594.42 854.41 595.06 853.5 590.55 804.34 581.51 817.25 584.83 849.97 594.42 854.41"/><polygon points="753.52 456.12 804.99 459 813.84 395.47 753.11 392.09 753.52 456.12"/><polygon points="599.57 719.98 612.36 775.88 630.53 763.85 619.85 706.62 599.57 719.98"/><polygon points="753.51 739.4 753.11 793.14 778.95 794.63 780.39 740.94 753.51 739.4"/><polygon points="516.88 798.51 536.1 815.71 531.58 809.32 510.71 789.78 516.88 798.51"/><polygon points="554.32 837.01 541.75 828.72 531.49 824.05 545.72 833.45 554.32 837.01"/><polygon points="474.57 563.19 515.27 615.09 539.17 592.89 503.25 536.76 474.57 563.19"/><polygon points="450.25 596.08 494.42 643.15 511.85 618.84 471.25 567.07 450.25 596.08"/><polygon points="1085.37 515.72 1038.35 563.13 1060.94 592.72 1112.39 550.75 1085.37 515.72"/><polygon points="1015.51 647.58 1027.13 673.25 1073.87 631.43 1059.8 600.7 1015.51 647.58"/></svg>