<svg id="Abstract_Shape" data-name="Abstract Shape" xmlns="http://www.w3.org/2000/svg" viewBox="0 0 1500 1500"><path d="M1148,820.26a282.74,282.74,0,0,0-114.9-170.84,284.12,284.12,0,0,0-566.22,0A284.12,284.12,0,0,0,750,1139.77a284.1,284.1,0,0,0,398-319.51ZM937.27,475.88a271.34,271.34,0,0,1,82.64,162.58q-3-1.83-6-3.58a289.36,289.36,0,0,0-47.78-22q.2-4.61.19-9.3a215.1,215.1,0,0,0-61.53-151.1q-4.8-4.92-9.86-9.5A273.22,273.22,0,0,1,937.27,475.88ZM744.78,401.27v0q2.61-.06,5.22-.06t5.22.06h0A202.37,202.37,0,0,1,952.35,603.54c0,1.6,0,3.2-.06,4.79a286.3,286.3,0,0,0-202.29,15,286.28,286.28,0,0,0-202.28-15c0-1.58-.06-3.18-.06-4.79A202.34,202.34,0,0,1,744.78,401.27Zm-10.91,230.2a285.76,285.76,0,0,0-93.67,81.91,216.1,216.1,0,0,0-67.44-12.16,199.18,199.18,0,0,1-24.22-78.55,269.18,269.18,0,0,1,98.7-11.58A272.17,272.17,0,0,1,733.87,631.47ZM478.64,652.71A272.5,272.5,0,0,1,605.09,443q-5.05,4.57-9.86,9.49a215.08,215.08,0,0,0-61.53,151.1c0,5,.17,9.92.49,14.64a213.34,213.34,0,0,0,28.44,93.47A216.45,216.45,0,0,0,745.9,819.81a202.6,202.6,0,0,1,23.32,125,276,276,0,0,1-43.9-.44,271.8,271.8,0,0,1-247.44-271C477.88,666.55,478.13,659.61,478.64,652.71ZM742,1022.18A199.39,199.39,0,0,1,686,1082.43a272.22,272.22,0,0,1-85-164.89A285.66,285.66,0,0,0,718.75,957.7,215.19,215.19,0,0,0,742,1022.18ZM357.18,872.36A272.59,272.59,0,0,1,464,666.32q-.09,3.51-.09,7a289,289,0,0,0,4.79,52.42q-4.18,2.19-8.14,4.47A215,215,0,0,0,360.24,859.9Q358.52,866.11,357.18,872.36Zm38.08,149.37h0c-.6-1-1.19-2-1.78-3.06s-1.14-2-1.7-3h0a202.36,202.36,0,0,1,75.77-273.41q2.06-1.18,4.18-2.34a283.31,283.31,0,0,0,40.56,92.59,286.44,286.44,0,0,0,73.55,75.1,286.22,286.22,0,0,0,28.26,101.25A283.2,283.2,0,0,0,674,1090.31c-1.36.84-2.73,1.65-4.11,2.45a202.34,202.34,0,0,1-274.64-71ZM747,1127.94a272.48,272.48,0,0,1-244.88-4.62q6.09,2,12.33,3.59a215.07,215.07,0,0,0,162.47-22.07c4.25-2.47,8.43-5.07,12.41-7.73A213.47,213.47,0,0,0,756,1025.74a216.45,216.45,0,0,0,2-212.79,202.72,202.72,0,0,1,96.55-82.69c3.55,5.27,7,10.74,10.2,16.32,4.06,7,7.88,14.39,11.38,21.92a271.79,271.79,0,0,1-111,349.81C759.21,1121.78,753.08,1125,747,1127.94ZM891.06,767.52a216,216,0,0,0,44.23-52.35,199.74,199.74,0,0,1,80.16,18.33,269.41,269.41,0,0,1-39.33,91.26,272.15,272.15,0,0,1-61,64.84A285.73,285.73,0,0,0,891.06,767.52ZM949,1143.3a271.28,271.28,0,0,1-182.89-9.48q3.07-1.68,6.1-3.42a288.32,288.32,0,0,0,43-30.37c2.57,1.64,5.23,3.25,7.93,4.82a215.08,215.08,0,0,0,162.46,22.06q6.24-1.62,12.31-3.58A272.45,272.45,0,0,1,949,1143.3Zm159.24-127.6h0c-.57,1-1.14,2-1.72,3s-1.17,2-1.76,3h0a202.35,202.35,0,0,1-274.63,71c-1.39-.81-2.76-1.62-4.12-2.45a286.3,286.3,0,0,0,88.17-182.68,286.44,286.44,0,0,0,73.55-75.1A283.31,283.31,0,0,0,1028.27,740q2.13,1.15,4.18,2.34a202.35,202.35,0,0,1,75.77,273.41Zm31.54-155.8a215,215,0,0,0-100.34-129.7c-4.09-2.36-8.43-4.67-12.91-6.89a213.86,213.86,0,0,0-95.11-22.13h-.08A216.52,216.52,0,0,0,746,805.85a202.7,202.7,0,0,1-119.88-42.29c2.84-5.81,5.86-11.51,9-17,4.16-7.19,8.63-14.19,13.3-20.82A271.8,271.8,0,0,1,1006.92,647c5.9,3.39,11.78,7.08,17.47,11a272.54,272.54,0,0,1,118.43,214.39Q1141.49,866.11,1139.76,859.9Z"/></svg>