<svg id="Abstract_Shape" data-name="Abstract Shape" xmlns="http://www.w3.org/2000/svg" viewBox="0 0 1500 1500"><path d="M347.76,963.9l22.88,3.32,26,.44,28.46-2.42,7.75-1.33,15.26-25.21c.12-.19.23-.37.36-.54L458.4,924l-11.9-13c-.09-.09-.17-.19-.25-.28l-29.54-34.83a2.43,2.43,0,0,1-.2-.25l-18.85-23.74c-.08-.09-.14-.18-.21-.27l-26.86-36.3-.25-.36L346,778.8c-.09-.13-.18-.26-.26-.4l-9.29-15.26-1.53,2.19-16.43,27.14-13.05,25.71-9.65,24.11-6.26,22.3-2.93,20.25.31,18,3.39,15.72,6.33,13.45L306,943.47l12.65,9.44L335,960.34Z"/><path d="M656.25,608.56l-33.61-25.37L589.15,560l-32.06-20.22-33.91,26.43L505,581.46l16.68,27.38,24.12,35.73,26.63,36L591,704.06l29.31,34.55,6.8,7.44,13.49-11.33.29-.23,36-28.07.29-.22,36.88-26.65.29-.2,13.81-9.25L722.83,665l-33.1-29.12Z"/><path d="M1149.1,888.84,1140.54,861l-11.65-29.75-2.13-4.56-10.41,11.93c-.1.12-.21.23-.32.34l-30,31.38-.3.3-32.52,31.18-.24.23-22.55,20.21-.24.21-34.92,29.34-.28.23L979.7,963.94l8.48,18.1c.09.2.17.39.25.59l11.92,30.4c.09.24.17.48.25.72l.84,2.76,4.7,1.6,27.65,6.83,25.75,3.58,23.13.22,13.14-1.6,17.45-4.91,14.1-7.52,11.2-10,8.58-12.59,6-15.32,3.35-18.09.51-20.82-2.44-23.34Z"/><path d="M793.5,408.14l33.91,25.61.3.24,33.77,27.57.14.12.14.11,33.37,29.36.27.25,32.76,31,.26.25,27,27.42L977,542.11l.5-.17L1012,531.27l.59-.16,33-8.07a5.63,5.63,0,0,1,.69-.14l13.55-2.32,10.25-20.2,9.65-24.12L1086,454l2.92-20.26-.31-18.05-3.38-15.73-6.34-13.45-9.36-11.4-12.66-9.44-16.4-7.44-12.71-3.55-22.89-3.31-26-.46-28.45,2.43-30.58,5.23-32.4,7.92L853.46,377l-35.21,13-31.69,13.38,6.61,4.58Z"/><path d="M447.78,452.2l4.82,15.65L467.84,473c.23.08.46.16.68.26l31.25,13.22.56.25,32.24,16,.48.25,33,18.68c.14.08.28.16.41.25L600,543.15l.37.24,33.84,23.48.32.23,33.92,25.61.3.24,33.77,27.57.28.23,33.37,29.36.27.24,14.7,13.91,18.06,17.09.26.25L801.38,714l.25.27L832.46,748a3.33,3.33,0,0,1,.25.28L842.6,760l9.72-7.57L887,723.28l22.3-20,32.24-30.92,29.73-31,19.41-22.26-14.12-16.66-30.76-33.59-.07-.08-.06,0L914.28,536.8l-32.5-30.75-33.1-29.12L815.21,449.6l-33.6-25.38-20.87-14.47L748.1,401,715,380.07l-32.56-18.44-31.73-15.78L620,332.9l-29.28-10-27.66-6.85-25.74-3.57-23.13-.21-13.15,1.59-17.44,4.92-14.1,7.52-11.2,10L449.74,349l-6,15.3-3.34,18.11-.52,20.81,2.44,23.35Z"/><path d="M1218.79,599.67,1215.4,584l-6.5-13.79L1108.83,428.72l.09,5.46a9.49,9.49,0,0,1-.1,1.6l-3.13,21.7a9.4,9.4,0,0,1-.27,1.28l-6.59,23.43c-.1.34-.21.68-.34,1l-10,25q-.17.4-.36.81l-12.72,25.08-.67,1.33c-.12.23-.25.46-.38.69l-16.79,27.73c-.11.18-.23.37-.35.54l-20.14,28.87c-.11.15-.22.31-.34.46l-23.47,29.84c-.1.14-.21.27-.32.4l-1.54,1.76-25.22,28.92c-.1.12-.21.24-.32.35l-30,31.36-.3.31L923,717.85l-.25.23-22.54,20.2-.24.21-34.92,29.34-.29.24-17.52,13.64-18.51,14.42-.28.22L791.58,823l-.29.2-37.46,25.11-.3.2L740,856.9l8.19,7.2,33.47,27.34,33.6,25.37L848.77,940,881.93,961l32.57,18.43,6.7,3.34,25.57-18.49,14.19-11,.15-.13,21.4-16.66,34.65-29.12,22.3-20,32.24-30.92,29.73-31L1121.77,802l6.1-7L1151,765.59l19.79-28.37,16.43-27.13,13-25.72,9.65-24.11,6.26-22.28,2.93-20.27Z"/><path d="M1083.13,1048.74l-24.43-.23a11,11,0,0,1-1.28-.09l-26.9-3.74a9.18,9.18,0,0,1-1-.2l-28.58-7.06-.81-.24-10-3.38-.27-.1L970.08,1027c-.23-.07-.45-.16-.67-.25l-31.26-13.22c-.19-.08-.38-.16-.57-.26l-19.74-9.82-12.49-6.22c-.16-.08-.32-.16-.47-.25l-33-18.68c-.14-.08-.28-.16-.41-.25l-33.55-21.17-.36-.24-33.84-23.46-.33-.24-33.91-25.61-.3-.23-33.76-27.57-.28-.24L716.68,863l-14.93-13.13-.27-.24-32.76-31c-.08-.08-.17-.16-.25-.25L636.55,786a3.07,3.07,0,0,1-.25-.26l-17.4-19L605.45,752l-.24-.28-29.54-34.82-.21-.26-18.84-23.75-.21-.27-26.85-36.3c-.09-.11-.17-.23-.25-.35l-24.38-36.1-.25-.39-21.16-34.74c-.13-.21-.25-.42-.37-.63L465,550.52c-.09-.16-.17-.33-.25-.51l-15-32c-.09-.2-.18-.39-.26-.6L437.58,487c-.09-.23-.18-.47-.25-.7L435,478.61l-6.45-21c-.08-.28-.16-.56-.22-.85l-5.68-26.63a8.84,8.84,0,0,1-.17-1.05L419.9,404.6a11,11,0,0,1,0-1.28l.55-22.25a10.31,10.31,0,0,1,.16-1.57l1.24-6.7L299.51,495.09l-8.73,12.81-6,15.32-3.35,18.1-.52,20.8,2.45,23.36,5.47,25.68L297.38,639,309,668.72l14.77,31.5,17.88,33.09,3.86,6.34,17.14,28.15,24.12,35.74,26.63,36L432.07,863l29.31,34.56,17.5,19.14L492,931l18.91,19.23.13.12a2.39,2.39,0,0,1,.23.22l12.4,12.62,32.5,30.74,33.1,29.12,33.47,27.34,33.6,25.37L689.82,1099l16.39,10.35L723,1119.92l32.56,18.44,31.73,15.78,30.63,12.95,29.29,10,27.66,6.84,25.74,3.56,23.13.23,13.14-1.59,17.45-4.92,13.86-7.39,126.35-126.35-10.08,1.22A9.36,9.36,0,0,1,1083.13,1048.74Z"/><path d="M644.75,1092.09l-.32-.24-33.92-25.6-.31-.24-33.75-27.58a3.11,3.11,0,0,1-.28-.23l-33.38-29.36a3.07,3.07,0,0,1-.26-.25l-32.77-31-.25-.25-8.26-8.4-7.54,2.33-.58.16-33,8.08c-.22.06-.46.11-.69.15L428.08,985a8,8,0,0,1-.84.11l-29.39,2.5c-.34,0-.68,0-1,0l-27.17-.47a8.91,8.91,0,0,1-1.26-.1l-24.15-3.5a9.44,9.44,0,0,1-1.26-.27l-12.68-3.54,95.93,135.6,9.92,12.07,12.65,9.45,16.41,7.43,12.71,3.56,22.89,3.31,26,.45,28.45-2.43,30.57-5.23,32.4-7.92,34-10.5,26.68-9.82-.3-.2Z"/></svg>