<svg id="Abstract_Shape" data-name="Abstract Shape" xmlns="http://www.w3.org/2000/svg" viewBox="0 0 1500 1500"><path d="M847.27,1239a507.44,507.44,0,0,1-194.54,0,507.37,507.37,0,0,1-93.63-28.1,497.09,497.09,0,0,1-86.46-45.75q-20.47-13.48-39.56-28.95t-36.63-32.63a495.46,495.46,0,0,0,707.1,0c-48,46.91-103.2,83-162.65,107.33A507.37,507.37,0,0,1,847.27,1239Z"/><path d="M903,1198.79c-16.52,2-33.14,3.07-49.8,3.59-40.15,1.3-75.43-.56-125.29-.36a607.93,607.93,0,0,1-74.77-4,596.54,596.54,0,0,1-97.86-19.6c-64.18-18-124.26-50-175.78-92.64,6.19,5.27,9.5,8.42,24.23,19.9,1.23.95,8.81,6.59,10.07,7.49,13.37,9.49,6.75,4.77,15.48,10.73,3.48,2.33,7,4.55,10.54,6.83s7.12,4.41,10.74,6.52,7.23,4.25,10.92,6.23a464.33,464.33,0,0,0,45.31,21.78c42.69,17.63,92.3,31,145.8,37.46a602.16,602.16,0,0,0,62.77,4.2c90.79.37,104.37,1.44,138,.19,16.75-.64,33.51-1.86,50.17-4,33.64-4.16,66.77-12.06,96.71-27.07,7.55-3.73,14.78-8,21.9-12.47,36.12-22.37,70.7-53.35,98.31-77.82-25.72,21.51-51.28,43.15-78.79,61.86C1002.08,1174.63,969.61,1190.88,903,1198.79Z"/><path d="M972.45,1167.31c-1.89.58.09.08-12.41,3.16-59.47,13-124.46,5.48-205.12-2.55-57-5.28-55-1.24-103.33-3.65-53.84-2.75-111.7-13.49-152.08-25.57-48.23-14.42-88.29-34.2-136-71.51,58.56,48.59,110.14,71.32,185.25,87.6,80.82,17.46,135.32,15,154.37,15.09,55.29.31,135.29,15.64,206.33,11.48,103.33-5.93,141.54-51.47,227.09-114.17-55.43,38.21-97,76.61-151.87,96.24C982.79,1164.18,981.88,1164.42,972.45,1167.31Z"/><path d="M986.13,1146.89c-20.22,8.08-49.51,12.68-71.22,13.13-43.78,1.7-102.61-6.77-158.76-15.29-94.82-14.27-115.71-3.54-212.54-18.83-53.65-8.92-98.87-17.74-151.24-48-1.44-.79-10-6-11.39-6.91a393.38,393.38,0,0,1-32.61-23.15c38,31.6,74.17,50.68,116.35,64.18,6.69,2,10.34,3.3,25.85,7,8.68,2.08,17.39,3.93,26.13,5.7,87.91,17.93,126.35,13.63,185.9,18.49,55.86,4.53,145,24.18,212.49,21.12a240.86,240.86,0,0,0,53.15-7.81c4.29-1.32,8.65-2.44,12.85-4,46.48-17.11,87.36-49.27,131.16-79.61,15.51-10.48,12.08-8.18,27.92-18.23,3.78-2.34,7.64-4.55,11.46-6.83-16.84,9.43-19.45,10.79-40,24.08C1061.29,1105.24,1030.2,1129.14,986.13,1146.89Z"/><path d="M934.3,1145.67c-88.19,9.49-194.58-29.22-286.58-35.81-39.73-2.56-59.78,1.14-164.48-16.78-62.16-10.59-93.51-19.53-149-65.28,55.1,48,87.73,57.23,148.47,68.39,104.52,19.23,126.38,15.67,164.71,18.39,88.28,6.66,185.32,41.66,273.48,36.5,14.67-.87,22.26-2.18,27.71-3.25,55.79-11.78,116.67-60.55,168.92-93.31,18.36-11.33,29.73-17.8,48.27-26.72-8.4,3.76-16.75,7.67-24.88,12C1073.48,1074.92,1001.32,1139.68,934.3,1145.67Z"/><path d="M953.66,1127.73c-87.16,24.08-212-24.11-307.35-40.18-50.8-8.52-38.21,1.11-113.53-10.28-67.55-10.61-49-7.7-84.51-13.24-49.21-7.86-72.85-9.82-127.2-56.95,20.63,18.87,43.88,37.49,71,47.21,20.33,7.29,39.08,9.71,83.88,17.25,55.07,9.33,75.05,13.06,98.79,15.24,15.07,1.47,28.57.84,42.8,1.74,7.18.44,14.44,1.34,28,3.7,60.83,10.6,130.89,33,195.16,42,96.2,14,131-3.51,190.87-40.87,61.94-38.76,97.64-66.27,147.38-86.31-37,13.95-67.33,32.51-100.65,53.47C1017.84,1098.78,985.87,1118.89,953.66,1127.73Z"/><path d="M959,1110.27a149.74,149.74,0,0,1-34.9,9.22,237.56,237.56,0,0,1-50.79.41c-70.56-6.52-153.24-35.81-227.9-54.2-90.44-22.11-66.83-5.86-159.87-22-26.35-4.67-59.08-7.64-87.36-11.7-9.34-1.39-23.48-3.07-41.84-12.12-17.49-8.67-32.93-21-47.37-34.18,14.53,14,29,26.06,46.78,35.36A121.93,121.93,0,0,0,390.58,1033c34.31,5.8,51.77,7.07,79.92,11.57,21.88,3.54,50.26,10.3,87.45,11.8A256.2,256.2,0,0,1,587,1058.5c75.79,10,196.19,58.38,285.86,66.1,25.78,2.14,47.16.5,59.14-2,64.27-12.47,144.24-82.39,211.94-116.54,24.64-12.52,34.44-15.69,47.09-20.36-11.15,3.8-16.51,5.24-34.31,13.06C1085.15,1030.92,1019.55,1087.14,959,1110.27Z"/><path d="M924.75,1103c-74.39,13-193.09-36.37-279.5-63.45-90.55-28.16-101.09-20.19-148.29-25.81-2.53-.26-7.67-1-14.79-2.21l-14.85-2.65c-53.75-9.23-63.53-5.75-90.16-7-2.07-.11-5.88-.26-11.18-1-12.42-2.06-16.16-3.59-25.09-7.15a116.49,116.49,0,0,1-13.27-7c-10.9-6.58-20.93-15-29.72-23,21.67,20.65,41.93,35.36,71.61,39.24,2.51.36,5,.51,7.54.7,26.8,1.77,37.18-1.42,89.71,8.24,24.53,4.67,28.42,5.75,59.88,8,21.77,1.52,32.09,2.45,48.33,5.57,107,22.86,241.56,90.8,335.34,83.64a159.57,159.57,0,0,0,18.94-2.46c5.1-1.11,6-1.29,7.45-1.69,74.26-18.5,161.46-102.38,244.07-133.78,10.23-3.91,5.6-2.29,21.33-7.44l-7.22,2.17C1097,995.31,1008,1089,924.75,1103Z"/><path d="M1175.38,953.48c-1.74.69-12.47,5.44-14.16,6.25a498.28,498.28,0,0,0-47.47,26c-43.36,27.18-76.39,51.34-117.72,73.71-57.64,31.33-88.78,32.93-147.17,20.93-92.11-19.16-171.6-64.77-261.54-92.74-60.08-18.48-77.86-13.49-122.12-19.06-20.36-2.89-41.12-4.93-61.82-3.78-42.77,2.45-63.67,18.7-115.44-23.43,3.91,3.35,7.91,6.6,12,9.7,13.59,10,23,14.27,34.26,17.68,15.13,3.72,22.82,3.15,38.59,1.47,20-2.21,37.7-5.54,76.68-.64,5.1.62,10.13,1.42,15.28,2.13,32.72,4.48,55.54,3,91.62,11.81,99.16,24,211.36,93.56,322.13,106.75,38.78,4.48,68.54.88,119.33-27.47,61.53-34.19,102.09-70.43,163.87-102,1.56-.78,12.13-5.7,14-6.48,14.1-5.82,8.64-3.72,21.57-8.37,2.56-.92.21-.18,14.76-4.56-14.76,4-12.25,3.33-14.87,4.2C1184.52,949.8,1189.07,948.13,1175.38,953.48Z"/><path d="M910.21,1065.06c-1.43.06-2.26,0-7.78-.11-50.59-3.53-96.46-21.59-142.43-42.12C707.92,999.7,644.12,966.92,586.85,945c-59.36-23-86.9-19.6-108.58-20.87-10.84-.66-40.27-4.32-63.3-2.85-1.32,0-2.65.14-4,.26a155,155,0,0,0-19.72,2.67c-18.2,3.51-35.54,12-53.5,13.68-21.77,2-39.95-7.88-58.67-19.37,13.44,8.69,27.16,17,42.88,19.85,24.83,4.51,43.26-7.26,73.59-12.56a194,194,0,0,1,35.24-2c19.86.57,37.86,3,47.23,3.67,18.29,1.27,27.08.15,47,3.87,31.94,6,61.74,16.86,118.22,42.62,98.86,44.69,170.78,87.08,250.94,95.06,39.07,3.64,72.57-8.93,106.67-27.68,82.61-45.17,148.63-106.3,220-122.8-72.22,14.91-140.88,76.34-221.81,119.43C970.7,1053.14,942.15,1064.54,910.21,1065.06Z"/><path d="M972,1031.51c-38.72,15.29-71.66,20.46-155.25-13.74-19.94-8.23-39.36-17.72-58.52-27.72-54.12-28.13-116.19-66.58-172.62-90.8-10-4.28-20.11-8.28-30.47-11.8-35.69-11.71-67.36-11.89-96.72-13.46a298.34,298.34,0,0,0-32.63-.24c-43.59,2.59-66.6,24.07-91.94,31.35-23.6,7.12-46.17-3-62.47-9.91,16.64,7.48,34,15.51,54.8,12.82,28.89-4,52.45-29.16,99.76-31.45a295.71,295.71,0,0,1,32.32.58c28.67,1.84,60.37,2.33,95.55,14.29,63.75,22.23,137.1,69.13,202.12,103.06,19.26,10,38.83,19.52,59,27.79,38.52,15.67,82.74,30.72,123.31,23.79,24.15-4.79,43.14-13.13,64.79-25,80.72-44.2,143.3-109.67,225.57-125.91-74,12.82-134,66.71-199.37,106.32C1012.54,1011.66,992.32,1023.48,972,1031.51Z"/><path d="M843.62,1001.47c-30.65-12.89-60.15-29.26-88.31-46.7-19-11.65-37.62-23.84-56.35-36s-37.58-24.12-56.76-35.59c-35-20.92-82.24-46.36-122.3-54.68-11.66-2.47-21.16-2.94-33.62-3-5.6,0-11.17,0-16.71-.08-14.05-.3-31.69-.64-50.32,2.62-62.49,11-72.06,53.67-121.67,50-11.1-.8-22-3.66-32.7-6.58,16.4,4.86,32.55,9.4,49.42,7,27.41-3.73,43.52-24.76,73.75-38.39,28.57-12.94,59.8-12,81.44-11.37,31.43.9,49.58-3.14,111.82,26.43,20,9.6,39.41,20.52,58.45,32s37.86,23.46,56.54,35.63,37.36,24.4,56.39,36.12,38.47,22.85,58.5,32.89c24.51,12,55.88,25.73,82.52,31.16,3.7.74,8.93,1.73,12.54,2.12,29.89,4,50.54-3.5,58.68-6.05,1.07-.35,6.51-2.32,7.94-2.93a260.68,260.68,0,0,0,30.34-14.64c90-50.26,155.52-117.5,231.91-130-77.21,10.89-144.26,77.88-233.75,126.68C945.16,1028.82,909.82,1029.55,843.62,1001.47Z"/><path d="M870.41,986.79A472.66,472.66,0,0,1,809.19,956c-19.69-11.7-38.7-24.54-57.38-37.86-56.64-40.34-138.46-107.47-202.89-130.56A174.36,174.36,0,0,0,528,781.46c-1.42-.31-2.82-.68-4.25-.93-2.86-.54-5.7-1.14-8.57-1.54-22.43-3.59-46.6-3.49-69.22-1.57a153,153,0,0,0-34.08,6.76c-58.62,18.7-68.86,65.25-118.13,66.63-11.46.35-22.89-1.52-34.23-3.24,25.3,4.4,45,7.85,67.44-4.86,19.83-11.18,32.78-28.2,54.83-41.61,19.28-11.66,39.32-18.63,64.43-20.53,22.45-1.69,46.32-1.54,68.33,2.21,2.82.43,5.6,1.05,8.39,1.6,4.29.79,12.82,3.23,14.46,3.69,67.93,21.81,143,85.12,211.51,134.09,18.77,13.34,37.92,26.23,57.79,38,2.46,1.51,5,2.91,7.5,4.33l7.54,4.26c2.53,1.39,5.1,2.71,7.65,4.06s5.09,2.74,7.69,4l7.8,3.79,3.9,1.9c81,37.35,115.45,30,212-36.81,69.69-48.28,120.55-90.42,179.65-98.1-60,6.47-113.13,49.24-181.43,95.51C972,1002,936.14,1013.54,870.41,986.79Z"/><path d="M1058.53,923.12q-14.6,10.15-29.54,19.72c-62.43,40-99.69,49.45-164,17a503.94,503.94,0,0,1-60.34-36.93c-2.41-1.7-4.84-3.38-7.24-5.12l-7.14-5.25-3.57-2.62-3.53-2.69-7.06-5.37q-14-10.89-27.77-22.13C671.53,817.19,584.11,736,510.05,728.05c-18.59-2-46.11-.58-62.55,1.69-3,.34-5.91,1-8.86,1.52A143.5,143.5,0,0,0,374.53,762c-28.34,22.52-41.5,56.47-83.72,61.71-11.74,1.48-23.66.68-35.46-.29,18.13,1.87,35.85,3.25,53-2.82C340,809.48,355,776.65,386.7,756c6.48-4.18,4.2-2.79,11.28-6.89,20.09-10.75,37.85-15.21,58.72-17.11,16.38-1.31,36.62-2,52.92-.12,71.4,8,158.8,89.07,235.57,151.68Q759,894.84,773.1,905.73l7.1,5.39,3.55,2.7,3.6,2.63,7.2,5.27c2.41,1.74,4.87,3.43,7.29,5.15,34,23.81,60.79,37.85,77.33,44.65,4.08,1.77,12.77,5,16.91,6.16a139.8,139.8,0,0,0,17.54,4.3,113.1,113.1,0,0,0,18,1.8,103.8,103.8,0,0,0,18.09-1.23c1.17-.15,7.76-1.42,8.89-1.73,2.92-.74,5.86-1.43,8.71-2.39,10.34-3.06,23.61-9,33-14.17,88.21-49.13,163.64-131.11,239.91-140.33l4.42-.53-4.43.44C1181.13,829.73,1122,879.06,1058.53,923.12Z"/><path d="M1026.52,924A357.94,357.94,0,0,1,995,942.27c-10.86,5.39-22.11,10.05-33.8,12.92-2.94.62-5.85,1.41-8.83,1.79a71.44,71.44,0,0,1-8.91,1.07,33.1,33.1,0,0,1-4.48.22A59.64,59.64,0,0,1,930,958a41.14,41.14,0,0,1-4.45-.45A127.77,127.77,0,0,1,908,953.7c-20.77-6.24-33.26-13.26-41.67-17.72C841.72,922,821.81,907.5,799,889,780,873.67,761.8,857.4,743.89,840.76c-49.46-46.18-115.65-111.49-169.78-140.31a205.52,205.52,0,0,0-38.32-16.37,148.83,148.83,0,0,0-18.16-4c-13.95-2.35-31.44-3.06-50.81-1.06-1.88.16-3.08.34-9.18,1.16a207.2,207.2,0,0,0-27.09,6C418.28,690,414.35,692,405,697c-1,.55-6.32,3.83-7.85,5-5.61,3.93-3.23,2.23-7.46,5.5-17.34,13.57-32,32.8-43.31,47.62-28,36.66-47.72,45.8-94,43.92,27.22,1.66,48.7.35,70-16.15,25.89-20.09,39.15-53,76.28-78.56,1.47-1.07,6.71-4.23,7.71-4.77,9.22-4.84,13-6.68,25-10.41a204.26,204.26,0,0,1,20-4.55c29.38-4.63,54.47-4.48,83.21,3.46C603.94,711,663.74,773.33,740.49,844.43c18,16.64,36.31,33,55.4,48.4,9.51,7.77,19.33,15.16,29.26,22.4s20.19,14,30.84,20.28A252.13,252.13,0,0,0,889.15,952,157.6,157.6,0,0,0,925,961.91a42.84,42.84,0,0,0,4.68.44,63.09,63.09,0,0,0,9.39.22,35.44,35.44,0,0,0,4.68-.25,74.09,74.09,0,0,0,9.29-1.16c3.1-.41,6.1-1.25,9.14-1.92,30.22-7.73,63.26-29.12,96.51-53.28,71.79-52.19,125.23-102.13,189-106.93-64.26,3.51-119.61,53.68-190.8,104.37C1046.88,910.5,1036.81,917.4,1026.52,924Z"/><path d="M1145.06,815.85c-10.48,7.08-20.74,14.46-30.87,22-20.25,15.12-40,30.82-60.39,45.67-19.44,14.15-42.64,30-63.76,40-23,10.86-47.29,16.63-72.12,11.27a99.67,99.67,0,0,1-13.35-3.92c-19.7-7-36.63-16.56-53.7-28.37-10.3-7.12-20.2-14.87-29.83-22.94-4.83-4-9.56-8.16-14.28-12.32l-7-6.34c-2.32-2.12-4.67-4.21-6.94-6.39-18.39-17.19-36-35.19-53.46-53.42-34.9-36.4-69.12-73.78-107.52-106.9-19.14-16.54-39.23-32.3-61.55-44.69a183.35,183.35,0,0,0-35.21-15c-31.59-9.37-75.05-7.89-112.56,7.69a137.12,137.12,0,0,0-17.06,8.67c-16.45,9.56-29.62,24.62-40.33,40.16-18.81,27.13-25.46,44.22-44.42,60.75-19.88,17.23-43.62,22.84-70.13,22.7,26.67.67,50.47-4.45,71-21.69,18.6-15.32,28.58-36.62,45.57-60.35,21.8-31.19,40-39.22,48.06-43.48,1-.53,7.47-3.46,8.54-3.84,37-15,79.68-15.93,110.14-6.59,35.28,10.78,66.62,34.56,94.86,59.21,38,33,72.12,70.26,107,106.77,17.49,18.23,35.22,36.28,53.74,53.54,2.29,2.19,4.66,4.29,7,6.42l7,6.37c4.75,4.18,9.52,8.34,14.4,12.39,9.73,8.13,19.74,16,30.24,23.13a257.27,257.27,0,0,0,32.86,19.41,186,186,0,0,0,22.06,9.26,105.46,105.46,0,0,0,13.9,4c38.87,8.19,74.59-9.44,107.62-31.18,10.57-7,20.88-14.32,31-21.85,20.29-15.09,39.95-30.94,60-46.26,15.38-11.81,30.1-22.53,46.16-32.92,5.9-3.64,1-.8,12.09-7.39,11.49-6.47,22.78-12.51,38.49-17.82,1.42-.53,8-2.48,9-2.75,3.19-.75,6.86-1.85,13.85-3,.61-.08,6.43-.86,7-.92l7.08-.5c-25.78.74-49.35,9.16-72,21.48A363,363,0,0,0,1145.06,815.85Z"/><path d="M399.64,613.2c2.51-2,5.2-3.79,7.84-5.63,6-3.66,5.88-3.87,16.9-9.3a148.72,148.72,0,0,1,18.07-6.78,156.27,156.27,0,0,1,18.81-4.34,167.48,167.48,0,0,1,19.2-2,164.79,164.79,0,0,1,24.12.71,160.45,160.45,0,0,1,59.61,17.94c22.24,12.12,43.39,29.33,61.69,46.68,36.76,34.84,74.31,80,104.89,115.47,17.06,19.7,34.19,39.38,52.21,58.31s37,37.06,57.5,53.32c32.66,26.13,51.68,33.24,58.56,36.14,1.53.64,3.11,1.14,4.67,1.71A105,105,0,0,0,928,921c3.33.15,6.67.52,10,.36.83,0,1.67,0,2.5-.06a73.31,73.31,0,0,0,7.46-.72c25.61-3.45,50.12-17.44,71.73-31.6,10.93-7.19,21.5-14.89,31.87-22.81s20.54-16.08,30.7-24.23,20.3-16.36,30.4-24.57c40.27-32.66,85.51-66.66,137.38-67.42-52.13-.24-97.94,33.26-138.91,65.51l-15.29,12.18-15.32,12.1c-10.24,8.07-20.47,16.12-30.86,23.93s-21,15.36-31.87,22.39c-23,14.76-48.2,28.76-75.11,30.85-7.65.52-9.42.06-14.26-.18-1.58-.19-3.15-.45-4.72-.67a34.71,34.71,0,0,1-4.69-.87,76.75,76.75,0,0,1-9.26-2.41c-1.86-.49-8-2.77-9-3.19a168.69,168.69,0,0,1-25.73-13.14,308.87,308.87,0,0,1-31.51-22.59,564.5,564.5,0,0,1-56.92-53c-17.88-18.84-34.94-38.51-52-58.22-30-34.81-69.71-82.19-105.43-115.65C610,629.17,589.46,612.56,566.27,600c-23.35-12.48-49.79-18.59-76.11-18.75-3.3-.08-6.59.11-9.88.21a172.37,172.37,0,0,0-19.62,2.2,164.18,164.18,0,0,0-19.21,4.61c-11.95,4-11.63,4.15-18.43,7.11-11.07,5.56-11.08,5.84-17.23,9.68-9.93,7-10.38,7.73-15.52,12.23-8.44,8.28-11.55,11.79-19,22.63-14.78,22.27-23.66,47.15-38,68.3-20,29.16-48.09,41.24-83.29,41.82C353.17,750.27,342.33,655.22,399.64,613.2Z"/><path d="M281.32,720.05c6.61-2.26,5.36-1.81,6.81-2.42,8.38-3.54,4.06-1.72,8.77-4,2.92-1.36,5.61-3.15,8.39-4.77,1.34-.89,2.65-1.83,4-2.74a41.07,41.07,0,0,0,3.87-2.9,81.76,81.76,0,0,0,7.33-6.29c1.32-1.14,5.91-5.89,6.77-6.89a145.7,145.7,0,0,0,17-23.43c12.79-21.7,25.33-46.39,41.35-64.36a130.77,130.77,0,0,1,13.52-13.32,120,120,0,0,1,11.46-8.41c1.33-.84,2.72-1.6,4.08-2.41,43.32-24.77,100.75-27.48,145.87-4.28a243.17,243.17,0,0,1,32.59,19.67A366.34,366.34,0,0,1,623,617.24c9.58,8.41,18.86,17.19,27.94,26.18,51.39,50.94,84.78,94.73,130.78,140.8,18.15,18.19,37.18,35.61,57.69,51.22,2.51,2,5.15,3.87,7.78,5.74l7.86,5.63c75.37,52,117.54,39.79,194.45-14.2,21-14.71,41.4-30.29,62.18-45.25,10.36-7.51,20.86-14.84,31.59-21.81q8-5.24,16.28-10.16t16.72-9.39a204.89,204.89,0,0,1,35.31-14.8,124.26,124.26,0,0,1,37.81-5.76c-39.17-.75-77.55,16.69-139.13,59.93-48,33.74-90.47,68-128.86,82.36-3.54,1.36-8,2.83-9,3.14a118.34,118.34,0,0,1-18.36,4.36c-1.56.19-3.12.31-4.67.47a34.88,34.88,0,0,1-4.68.27,69.87,69.87,0,0,1-9.39-.2c-2,0-8.33-.9-9.33-1.11a89,89,0,0,1-9.2-2c-8.9-2.07-25.15-8.19-43.16-19.22-5.44-3.27-10.74-6.79-16-10.43L850,837.4c-2.59-1.86-5.19-3.7-7.66-5.71a575,575,0,0,1-57.1-50.91C741.17,736.55,706,691,654.36,640c-9.15-9-18.49-17.87-28.23-26.31a371.85,371.85,0,0,0-30.39-23.91,249.11,249.11,0,0,0-33.26-19.87,147.27,147.27,0,0,0-27.23-10.5c-42.33-11.38-87.54-4.23-122.19,16-4.59,2.8-1.68.78-10.16,6.7-13.48,10.79-22.39,19.66-36.48,41.78-6.74,10.45-16.57,29.11-23.8,41.8-6.87,11.57-9.42,14.87-16.47,23.4-.84,1-5.33,5.79-6.59,6.91a103.08,103.08,0,0,1-9,7.85,104.22,104.22,0,0,1-23.8,13.6L280,719.88c-8,2.32-6.48,1.91-8.08,2.26a129.06,129.06,0,0,1-21.33,3.3,133.35,133.35,0,0,0,22.61-3.12C281.11,720.21,280.18,720.44,281.32,720.05Z"/><path d="M485.29,532.83c41.59-4.15,72,7,105.78,28.67q7.84,5.13,15.43,10.67c5,3.73,10,7.54,14.85,11.51,9.73,7.9,19.17,16.18,28.42,24.69,4.62,4.25,9.18,8.58,13.74,12.89,51.84,50.69,78,81.86,118.84,121.65A721,721,0,0,0,839,793.32c20.16,15.8,41.55,29.94,65.32,38.85,1.47.62,3,1.05,4.52,1.58,5.17,1.67,1.74.71,9.19,2.75a44.1,44.1,0,0,0,4.67,1.13,70.18,70.18,0,0,0,9.49,1.67c4.86.55.23.32,9.64.72a45.75,45.75,0,0,0,4.83-.07c1.61-.08,3.22-.07,4.82-.23a115.78,115.78,0,0,0,14.27-2.13c12.38-3,24.93-6.47,48.72-19.1,30.65-16.36,68-42.72,95.72-61,10.49-7,21.08-13.77,31.88-20.22,32.57-19.51,67.87-37.26,105.57-36.3-43.39-2-86,20.53-138.78,54.48-45,29-91.21,62.38-130.42,74.72-3,.85-5.94,1.85-9,2.49a108.1,108.1,0,0,1-11.39,2.26c-.54.08-6.37.68-6.91.74-1.54.14-3.08.11-4.62.18a44.5,44.5,0,0,1-4.62,0,78.17,78.17,0,0,1-9.18-.75c-5-.76-.92.12-11.37-2.14l-6.72-1.87c-1-.3-7.69-2.54-8.81-3-23.26-8.85-44.24-22.9-63.91-38.47a730.91,730.91,0,0,1-56.15-50.19c-39.54-38.67-66.7-70.79-118.9-121.67-4.6-4.33-9.19-8.67-13.84-12.94-9.32-8.53-18.83-16.89-28.71-24.82-4.92-4-10-7.81-15.08-11.57-39.77-28.85-76-44.67-124.34-39.42-116.83,13.44-119.59,98.37-164.82,141.94-18.26,17.74-42.47,26.66-67.71,30,25.51-2.88,49.79-11.3,68.62-29.06C367.78,628.16,370.3,545,485.29,532.83Z"/><path d="M403.18,545.91c2.33-2,4.59-4,7-5.89,1.21-.94,2.38-1.92,3.62-2.82,6.41-4.61,4.36-3.16,7.52-5.23a133.19,133.19,0,0,1,24.32-12.63,188,188,0,0,1,58-12.75c3-.1,6.09-.26,9.14-.18A143.46,143.46,0,0,1,540,509.15c3,.58,1.45.23,8.86,2.09,40.58,12.5,70.5,35.94,101.26,61.66,2.37,2,4.66,4,7,6s4.64,4,6.93,6.1c4.55,4.15,9.18,8.22,13.65,12.46C728.71,645,785.35,708.37,839.31,750.25c19.57,15.23,40.56,29,63.58,38.8,28.2,11.91,48.59,12.87,73.6,6.71,40.53-10.18,88.21-42,131.66-68.1,42.2-25.36,88.95-53.7,136.5-51.08-37.18-2.8-72.76,13.12-105.42,30.79-78.94,43-144.54,94.24-199.7,87.52C905.69,791,869,767.56,842.22,746.53,785.7,701.91,735.75,644.67,681,593.9c-4.5-4.25-9.16-8.33-13.73-12.5-2.31-2.07-4.67-4.08-7-6.12s-4.64-4.1-7-6.06c-4.76-4-9.48-8-14.33-11.85s-9.76-7.66-14.75-11.36a320.08,320.08,0,0,0-31.19-20.46,206.59,206.59,0,0,0-34-15.65c-36.9-13.1-78.53-8.11-114.58,6.23a142.28,142.28,0,0,0-20.87,10.61c-1.34.81-2.61,1.71-3.92,2.56a155.25,155.25,0,0,0-18.41,14.39c-39.48,36.55-48.93,73.62-79.8,101.9-18.47,17-41.59,26.23-66,31C346.69,660.7,346.05,597.82,403.18,545.91Z"/><path d="M400.9,532.64a160.8,160.8,0,0,1,13.45-11.84c2.39-1.8,4.73-3.65,7.21-5.32A172.8,172.8,0,0,1,487.18,488c40.84-8,75.69-4.49,112.53,15.42,12.7,6.9,9.64,5.17,15.65,8.82,20.23,12.3,38.71,25.06,65.22,47.87,18.22,15.69,35.64,32.32,52.9,49.15,59,57.38,114,114.57,176.76,140.23a91.4,91.4,0,0,0,8.61,3.21,40.39,40.39,0,0,0,4.4,1.36,79.26,79.26,0,0,0,9,2.19c54.22,11.22,108.16-22.9,173.16-58.66,51.52-28.51,93.15-48.33,135.12-45.19a129.56,129.56,0,0,0-36.07,1.81c-85.65,16.59-184.2,108.12-258.21,99.82-13-1.29-23-3.19-42.54-12.11C847.4,716.13,795.42,662.73,737,605.69c-17.3-16.84-34.84-33.51-53.21-49.27s-37.58-30.68-58.2-43.51c-15-9-10.2-6.34-27.74-15.7a173.09,173.09,0,0,0-25.44-10.36c-28.57-9.22-56.64-8.66-86-2.61-23.82,4.95-46.83,14.48-66.66,28.66-2.51,1.73-4.89,3.64-7.3,5.49-12.39,10.36-21.8,19-42.46,47.23-7.1,9.76-14,19.62-21.5,29-4.17,5.36-9.46,11.45-11.69,13.71a144,144,0,0,1-13.09,12.34c-18.41,15.49-40.78,25.94-64.18,31.69C342.85,632.79,353.85,580.44,400.9,532.64Z"/><path d="M524.83,463.19c11.29-1.32,23.38-1.82,34.67-.41,60.77,7.36,131.08,66.86,176.72,108.31,56.21,51,108.37,103.74,165.42,131.8a222.31,222.31,0,0,0,24.63,10.33,109.08,109.08,0,0,0,18.51,4.58c6.58.79,6.74.83,7.81.88a115.72,115.72,0,0,0,17.91,0c1.34-.05,7.79-.77,8.89-1a166.64,166.64,0,0,0,26-6c58.47-18.37,134.47-70.95,194.64-81.82a126,126,0,0,1,35.06-1.52,126.45,126.45,0,0,0-35.18.78c-49.81,8.12-109.22,43.67-162.74,66.85-27.18,11.87-42.18,15.5-58.31,18-1.07.17-7.37.81-8.65.84a109.92,109.92,0,0,1-23.75-1,102.87,102.87,0,0,1-10.58-2.2c-5.08-1.4-.74,0-10.32-3.18-2.84-1.11-12.57-4.78-22-9.56-40.16-20-78.75-53.56-112.1-83.81-17.37-15.8-34.47-31.93-51.89-47.77s-35.23-31.3-53.88-45.77c-26-20.16-60.32-43.12-91-54.56-31.2-11.66-55.15-11.39-87.88-5.25-5.79,1.11-11.6,2.29-17.35,3.79a185,185,0,0,0-64.09,30,202.9,202.9,0,0,0-26.43,23.66c-33.27,34.87-51.52,71-101.35,96.2a199.11,199.11,0,0,1-32.69,13C391.36,593.41,370.81,481,524.83,463.19Z"/><path d="M359.66,553.43c38.16-35.26,63.59-79,134.53-100.9,44.05-13.23,91.43-13.17,132.45,5.41,29.2,13.32,51.21,28.69,62.41,36.36,8,5.52,21.67,16.09,23.94,17.83,4.45,3.54,8.91,7.08,13.33,10.67s8.81,7.22,13.15,10.92c17.45,14.66,34.55,29.79,51.85,44.73l13,11.15,13.17,11c8.83,7.26,17.73,14.47,26.85,21.41,32.33,24.66,82.38,57.63,123.23,58.34,66.64,1.15,155.45-64.65,226.9-75.15a124.74,124.74,0,0,1,34.09-.41,125.07,125.07,0,0,0-34.19-.34c-72.19,9.31-161.69,73.86-226.71,72.07-50.67-1.38-114.35-52.61-147.1-79.64l-13.1-11-13-11.15c-17.24-14.94-34.33-30.11-51.83-44.86-34.66-29.18-72.28-57.43-114.1-76.27C586.3,434.73,537.4,434.89,493,448.86c-85.57,27.39-104.72,84.91-160.87,125a231.44,231.44,0,0,1-60.76,30.88A225.63,225.63,0,0,0,332.94,575,240.47,240.47,0,0,0,359.66,553.43Z"/><path d="M338.69,552.43c60.06-38.55,83.19-88.24,160.44-114.36a249.46,249.46,0,0,1,48-10.92C610.32,419.77,644.54,438,659,444.47c15.18,7.58,39.52,19.27,83.71,52.6,35.23,26.56,68.54,55.78,104.07,82.35,17.76,13.26,36.07,25.94,55.51,36.81,68.85,38.47,94.36,30.21,190.67-7,10.3-4,20.62-8,31-11.66,19.65-6.9,33.34-11.49,53.67-15.34,14.11-2.19,19.46-2.42,30.9-2.11a116,116,0,0,1,12.35,1.4l-4.09-.68c-35.22-5.88-78,8.77-124.72,26.11-50,18.65-91.46,35.26-127,29.72-37.59-5.78-85-38-115.43-61-62.47-47.06-112-96.57-181.08-131.81-20.76-10.32-30-13.32-38.75-15.83-40.4-11.45-88-8.72-131.89,6.43C419.69,461.78,396.76,512.16,338,551.32A284.85,284.85,0,0,1,309.4,568a292.38,292.38,0,0,1-30.29,13.44,296.57,296.57,0,0,0,30.63-12.76A287.57,287.57,0,0,0,338.69,552.43Z"/><path d="M504.68,424.73c5-1.68,10-3.51,15.16-4.89,2.55-.72,5.08-1.53,7.66-2.17,12.63-3.08,9.15-2.28,15.51-3.57,2.6-.5,5.19-1.09,7.81-1.52,15.78-2.34,24.44-3.87,47.48-4,5.29.19,10.6.17,15.87.7,6.25.49,6.73.51,7.91.68,15.45,2,7.87,1,15.67,2.37,5.49,1,6.32,1.16,7.75,1.57,5.11,1.35,10.26,2.52,15.25,4.27,47.87,14.61,98.63,53.54,136.43,81.36,17.27,12.62,34.41,25.41,51.89,37.79q13.11,9.28,26.52,18.19c8.95,5.93,18,11.61,27.16,17.21,29.23,17.58,44,22.93,58.71,26.76,49.46,11.82,94.88-10.6,156.27-29.92,30.11-9.4,63.12-17.65,94.33-11-31.24-7.46-64.17.17-94.87,9.17-43.34,12.81-63.79,21.71-92,27.58-22,4.57-34.86,3.93-41.37,3.72-1.06,0-.92,0-5.9-.51a106.94,106.94,0,0,1-19.31-3.82C939.65,589.3,920.31,578.33,905,569c-9-5.62-18.08-11.34-26.93-17.27s-17.61-12-26.29-18.24c-17.35-12.44-34.51-25.21-51.74-37.88-41.38-30.57-66.78-50-107.73-70.16a246.86,246.86,0,0,0-30.12-11.87c-5.11-1.78-10.4-3-15.64-4.34a40.58,40.58,0,0,0-4-.85c-8.86-1.66-10-1.89-12-2.09-11.71-1.44-8.55-1.08-12.07-1.35-14-1-7.68-.54-20.21-.92a267.78,267.78,0,0,0-32.28,2c-33,3.77-67.43,15-92.22,28.14-4.85,2.34-9.45,5.16-14.14,7.79-2.31,1.38-4.55,2.88-6.83,4.31-47.28,30.15-70.28,65.47-135.81,98.95q-14.25,7.32-29.11,13.42,15-5.75,29.45-12.74C404.52,503.38,417.29,457.11,504.68,424.73Z"/><path d="M455.52,438.72A269.32,269.32,0,0,1,540,402.57c36.41-8.53,84.68-13.16,121.95-5.74,5,1.1,10,1.94,14.91,3.44,64.4,17.74,117.3,60.81,173.33,98.63,27.3,18.5,70.7,47.68,108.05,61,9.83,3.5,20.13,6.1,30.68,6.64,42.61,2.25,91.45-18.76,151.89-30,20.73-3.69,40.92-5.52,61.34-.46-20.59-5.64-40.57-4.19-61.56-.84-62.76,10.47-109.76,30.45-151.47,27.77-20-1.23-39.7-10.3-57.56-19.4-9.15-4.65-18.13-9.67-27-14.94-17.66-10.53-34.74-22.08-51.75-33.75-56.09-38.23-105.32-78.08-167.19-97.36-18.28-5-9.86-2.73-22.82-5.55-37.9-7.43-87-2.54-123.83,6.41a273,273,0,0,0-85.16,37.57c-45.35,29.69-65.32,54.46-128,86.67q-13.76,7.1-27.9,13.42,14.28-6,28.24-12.75C389.11,492.59,412.69,466.07,455.52,438.72Z"/><path d="M603.45,379.55c64.29-5.07,89.44,1.27,123.85,13.61,42.88,15.59,92,48.08,123.6,68,52.73,33.09,90,59.53,133,67.39,62.62,11.88,145.45-32.5,207.16-14.26-61.27-19.8-145.82,23.06-206.51,10.83-41.3-8.05-78-34.16-131.11-67.94-54.49-34.77-112.07-72.94-175.34-82a281.15,281.15,0,0,0-45.08-1.9c-73.3,2.23-120.58,16.91-171.27,47.93-40.84,25-65.31,47.38-126.17,79.59q-13.17,7-26.62,13.52c76.18-34.33,112.43-65.41,154.43-90.4C505.91,398.48,547.27,383.88,603.45,379.55Z"/><path d="M372.15,466.45c81.7-44.51,121.64-82.7,206.08-97l7.06-1.15c40.49-6.15,100.87-6,114.18-4.72a128.32,128.32,0,0,1,14,1.85c4.5.73,1.61.14,13.91,2.84C774.25,381,806.29,400,850.69,424.56c49.13,27.45,96.49,56.11,128.17,65.51,44.75,12.84,87.92-1.06,143.4-3.51,28.28-1.31,44.4,2,56.67,6.34-31.83-12.23-74-7.37-114.11-3.28-67.37,7.1-84.11,1.72-136.78-26.74-63.12-34-123.52-74.15-178.54-93.25-16.62-5.3-18.76-5.68-31.56-8.45a203.33,203.33,0,0,0-21.67-2.79c-28.62-.95-76,.24-104.5,4.56-8.13,1.16-2.87.29-14.28,2.22-83,14.08-129.35,56.41-206,100.13q-12.47,7.13-25.1,14T321.07,492.9Q334,486.54,346.75,480T372.15,466.45Z"/><path d="M382.69,445.31c84.88-47.94,113.81-65.7,160.23-80.74,31.63-10.18,54.35-14.37,80.65-17.25a583.18,583.18,0,0,1,68.86-2.92c45.89,1.22,83.26,8.68,157.36,45,33.08,16.22,65.16,34.71,98.92,50,13.49,6.06,27.34,12,38.82,15.47,56.72,17.17,121.64-7.54,178.25,17.29-51.3-24.18-110.22-6.4-164-17.1C938.65,441.6,840.9,365.75,748,345.54c-34.87-7.58-75.34-7.09-111.08-4.16a384,384,0,0,0-108.4,24.07C487,381.35,458.31,399,382,444.16l-23.87,14.07q-11.93,7-23.94,13.95,12.18-6.58,24.31-13.29Z"/><path d="M746.47,328.1c38.71,3.86,65.82,12.23,102.26,27,68.7,28,98.57,50.25,146.56,65,49.75,15.19,107.76,6.49,156.34,32.09-23.78-13.4-49.49-18.14-76.77-21.75-50.59-6.72-69.71-5.18-127.74-33.68-16-7.81-31.67-16.21-47.75-24C804.65,326.83,761,318.93,673.22,321.34c-1.52,0-1.42,0-13.41.72-116.95,7.88-201.33,59.34-311.44,130.07,101.8-61.4,182-111.27,291.92-123.46C676.19,324.72,717.43,325.22,746.47,328.1Z"/><path d="M496.82,354.06c10-4.77,16.15-7.46,23.47-10.71,1.32-.55,15.47-6.63,23.88-9.64,38.34-14.26,74.48-22.13,112.44-26.49,19-2.38,45.08-3.2,64.26-3.32,25.8.31,47.68.93,76.8,6A310.38,310.38,0,0,1,847.22,323C976.3,368.77,958.6,376.32,1040,397.45c16.71,4.27,33.48,8.25,49.81,13.68s32.22,12.28,46.71,21.66A169.35,169.35,0,0,0,1108.3,417c-2-.86-3.93-1.79-5.94-2.58-4-1.57-8-3.2-12.12-4.58-16.29-5.8-33-10.16-49.61-14.79-45.45-12.58-52-16.77-95.84-37.58-31.19-14.94-63.56-27.21-96-39-6.69-2.46-18.45-6.19-24.86-7.78-40.75-11.21-86.85-13-129-11.2a490,490,0,0,0-51.73,4.57A446.84,446.84,0,0,0,530.76,335c-8.69,3.65-18.35,8.15-23.66,10.6C453,371.82,414.46,396,363.48,432.79c25.78-17.5,53.25-35.7,87.58-54.85C466.07,369.5,481.3,361.49,496.82,354.06Z"/><path d="M747.76,279.49c52.64,1.13,100.28,10.48,147,26.57,15.76,5.45,31.24,11.74,46.58,18.37s30.55,13.69,45.81,20.61q11.45,5.19,23,10.24l23.08,9.94c15.37,6.63,30.58,13.6,45.29,21.56q11.06,5.94,21.58,12.78a248.45,248.45,0,0,1,20.39,14.65,265.24,265.24,0,0,0-41.32-28.58c-14.59-8.31-29.7-15.66-45-22.64-7.61-3.49-15.31-6.84-22.93-10.27s-15.22-7-22.79-10.53c-15.16-7.13-30.27-14.37-45.58-21.26s-30.81-13.42-46.69-19c-47-16.57-94.41-26.16-148.35-27.44-107.41-2.07-198.46,25.27-287.34,80.2a663.65,663.65,0,0,0-81,59.51C491.7,325.35,606.45,276.43,747.76,279.49Z"/><path d="M847.25,261a508.17,508.17,0,0,1,93.63,28.11,496.49,496.49,0,0,1,86.48,45.73q20.46,13.47,39.56,28.93t36.63,32.63A491.27,491.27,0,0,0,941.86,286.79c-122.14-51.21-261.75-51.22-383.75-.05a492.3,492.3,0,0,0-161.66,109.7c48.43-47.31,103.66-83.25,162.64-107.33A504.26,504.26,0,0,1,847.25,261Z"/></svg>