<svg id="Abstract_Shape" data-name="Abstract Shape" xmlns="http://www.w3.org/2000/svg" viewBox="0 0 1500 1500"><rect x="649.85" y="1029.9" width="15.3" height="30.6" transform="translate(-529.41 704.64) rotate(-41.82)"/><rect x="641.16" y="552.09" width="30.6" height="15.3" transform="translate(-191.88 716.45) rotate(-50.92)"/><rect x="435.61" y="535.15" width="15.3" height="30.6" transform="translate(-263.3 534.72) rotate(-49.88)"/><rect x="864.72" y="938.06" width="30.6" height="15.3" transform="translate(-376.71 646.68) rotate(-33.68)"/><rect x="589.39" y="475.93" width="30.6" height="15.3" transform="translate(-168.91 451.32) rotate(-36.26)"/><rect x="379.58" y="455.35" width="15.3" height="30.6" transform="translate(-213.06 576.08) rotate(-60.51)"/><rect x="686.36" y="450.49" width="15.3" height="30.6" transform="translate(-17.36 26.97) rotate(-2.2)"/><rect x="685.74" y="948.24" width="30.6" height="15.3" transform="translate(-431.21 604.91) rotate(-36.52)"/><rect x="841.23" y="1193.57" width="30.6" height="15.3" transform="translate(-243.27 217.85) rotate(-12.71)"/><rect x="598.75" y="951.87" width="15.3" height="30.6" transform="translate(-144.06 106.97) rotate(-9.02)"/><rect x="1007.14" y="977.46" width="30.6" height="15.3" transform="translate(-213.5 1683.89) rotate(-73.42)"/><rect x="742.19" y="1019.38" width="15.3" height="30.6" transform="translate(-288.02 289.24) rotate(-18.38)"/><rect x="685.26" y="275.77" width="15.3" height="30.6" transform="translate(335.23 952.06) rotate(-84.37)"/><rect x="463.1" y="1105.34" width="15.3" height="30.6" transform="translate(-743.64 1068.68) rotate(-64.76)"/><rect x="350.25" y="711.16" width="15.3" height="30.6" transform="translate(-106.59 63.07) rotate(-8.77)"/><rect x="414.21" y="950.02" width="15.3" height="30.6" transform="translate(-595.45 1238.96) rotate(-81.45)"/><rect x="1114.53" y="456.64" width="15.3" height="30.6" transform="translate(-46.76 811.94) rotate(-39.03)"/><rect x="1108.47" y="625.38" width="30.6" height="15.3" transform="translate(-162.66 726.18) rotate(-33.53)"/><rect x="1091.56" y="1026.6" width="15.3" height="30.6" transform="translate(-405.91 1210.5) rotate(-49.86)"/><rect x="966.92" y="562.56" width="30.6" height="15.3" transform="translate(229.85 1420.99) rotate(-78.65)"/><rect x="1029.04" y="1106.29" width="30.6" height="15.3" transform="translate(-482.56 1123.45) rotate(-47.2)"/><rect x="542.32" y="700.34" width="15.3" height="30.6" transform="translate(-345.2 600.43) rotate(-45.12)"/><rect x="1172.04" y="550.02" width="15.3" height="30.6" transform="translate(-126.22 488.74) rotate(-22.25)"/><rect x="780.62" y="935.88" width="30.6" height="15.3" transform="translate(-286.22 1537.44) rotate(-78.61)"/><rect x="1041.17" y="379.55" width="15.3" height="30.6" transform="translate(51.11 905.24) rotate(-47.72)"/><rect x="742.25" y="857.89" width="30.6" height="15.3" transform="translate(-377.13 677.01) rotate(-39.37)"/><rect x="895.72" y="742.06" width="15.3" height="30.6" transform="translate(-129.47 189.11) rotate(-11.16)"/><rect x="274.5" y="730.01" width="15.3" height="30.6" transform="translate(-92.79 42.09) rotate(-7.33)"/><rect x="851.75" y="849.91" width="30.6" height="15.3" transform="translate(-231.16 327.36) rotate(-18.91)"/><rect x="320.14" y="543.03" width="30.6" height="15.3" transform="translate(-308.61 581.9) rotate(-61.43)"/><rect x="1194.55" y="761.08" width="30.6" height="15.3" transform="translate(279.78 1859.44) rotate(-81.98)"/><rect x="798.56" y="775.77" width="30.6" height="15.3" transform="translate(-315.14 744.9) rotate(-41.95)"/><rect x="950.86" y="319.11" width="15.3" height="30.6" transform="translate(450.03 1213.06) rotate(-79.17)"/><rect x="731.04" y="539.75" width="30.6" height="15.3" transform="translate(-161.25 728.89) rotate(-47.57)"/><rect x="499.43" y="339.62" width="30.6" height="15.3" transform="translate(-104.26 298.35) rotate(-29.49)"/><rect x="380.61" y="622.47" width="30.6" height="15.3" transform="translate(-305.37 879.12) rotate(-77.41)"/><rect x="554.2" y="863.31" width="15.3" height="30.6" transform="translate(-480.22 919.97) rotate(-59.67)"/><rect x="779.81" y="267.73" width="15.3" height="30.6" transform="matrix(0.15, -0.99, 0.99, 0.15, 388.68, 1018.68)"/><rect x="515.01" y="949.57" width="15.3" height="30.6" transform="translate(-239.12 175.04) rotate(-15.52)"/><rect x="748.71" y="1199.59" width="15.3" height="30.6" transform="translate(-553.42 1791.51) rotate(-81.86)"/><rect x="1029.33" y="867.88" width="30.6" height="15.3" transform="translate(-277.29 1207.71) rotate(-54.07)"/><rect x="283.59" y="833" width="30.6" height="15.3" transform="translate(-563.75 1068.42) rotate(-85.22)"/><rect x="593.48" y="300.9" width="15.3" height="30.6" transform="translate(-48.93 119.32) rotate(-10.89)"/><rect x="912.93" y="1006.34" width="30.6" height="15.3" transform="translate(-427.72 1240.24) rotate(-57)"/><rect x="1040.71" y="776.25" width="30.6" height="15.3" transform="translate(-252.33 917.69) rotate(-42.43)"/><rect x="876.26" y="1102" width="30.6" height="15.3" transform="translate(-420.38 557.38) rotate(-28.39)"/><rect x="1188.82" y="663.74" width="30.6" height="15.3" transform="translate(370.51 1769.46) rotate(-81.94)"/><rect x="938.83" y="1162.38" width="30.6" height="15.3" transform="translate(-402.59 507.73) rotate(-24.78)"/><rect x="644.32" y="870.01" width="30.6" height="15.3" transform="translate(-332.51 407.47) rotate(-27.72)"/><rect x="551.53" y="1159.41" width="15.3" height="30.6" transform="translate(-737.6 1069.96) rotate(-59.93)"/><rect x="792.39" y="1109.24" width="15.3" height="30.6" transform="translate(-132.76 107.42) rotate(-7.09)"/><rect x="637.42" y="708.71" width="30.6" height="15.3" transform="translate(-274.99 436.05) rotate(-30.85)"/><rect x="546.29" y="1058.23" width="30.6" height="15.3" transform="translate(-626.32 1266.82) rotate(-71.82)"/><rect x="979.87" y="723.79" width="30.6" height="15.3" transform="translate(-239.01 684.91) rotate(-34.16)"/><rect x="439.07" y="389.75" width="15.3" height="30.6" transform="translate(-135.49 562.08) rotate(-57.29)"/><rect x="878.62" y="577.51" width="30.6" height="15.3" transform="translate(-71.6 1042.63) rotate(-58.56)"/><rect x="752.91" y="361.34" width="30.6" height="15.3" transform="translate(-26.57 61.37) rotate(-4.5)"/><rect x="549.75" y="545.06" width="15.3" height="30.6" transform="translate(-220.53 700.08) rotate(-55.33)"/><rect x="398.74" y="786.67" width="15.3" height="30.6" transform="translate(-492.46 821.45) rotate(-64.37)"/><rect x="966.42" y="1068.84" width="30.6" height="15.3" transform="translate(-455.37 1316.06) rotate(-57.1)"/><rect x="470.31" y="1022.71" width="15.3" height="30.6" transform="translate(-498.35 444.09) rotate(-33.96)"/><rect x="764.01" y="447.43" width="30.6" height="15.3" transform="translate(-112.6 317.53) rotate(-21.52)"/><rect x="1185.01" y="866.87" width="30.6" height="15.3" transform="translate(-78.25 1630.05) rotate(-66.66)"/><rect x="1021.14" y="641.73" width="30.6" height="15.3" transform="translate(164.6 1507.16) rotate(-76.6)"/><rect x="837.31" y="677.12" width="30.6" height="15.3" transform="translate(-240.69 708.23) rotate(-40)"/><rect x="949.88" y="814.32" width="30.6" height="15.3" transform="translate(-131.81 186.51) rotate(-10.34)"/><rect x="550.56" y="403.72" width="30.6" height="15.3" transform="translate(-110.19 231.44) rotate(-21.11)"/><rect x="855.76" y="303.2" width="30.6" height="15.3" transform="translate(216.96 964.72) rotate(-64.63)"/><rect x="441.78" y="701.09" width="15.3" height="30.6" transform="translate(-394.61 769.26) rotate(-61.48)"/><rect x="951.53" y="400.58" width="15.3" height="30.6" transform="translate(303.08 1229.84) rotate(-74.57)"/><rect x="284.59" y="636.04" width="30.6" height="15.3" transform="translate(-384.55 832.95) rotate(-80.48)"/><rect x="317.68" y="932.27" width="15.3" height="30.6" transform="translate(-400.15 256.62) rotate(-27.45)"/><rect x="708.58" y="1110.17" width="15.3" height="30.6" transform="translate(-126.92 91.66) rotate(-6.73)"/><rect x="652.08" y="374.64" width="30.6" height="15.3" transform="translate(-100.04 433.35) rotate(-33.61)"/><rect x="692.86" y="783.86" width="30.6" height="15.3" transform="translate(-89.7 90.52) rotate(-6.88)"/><rect x="620.95" y="1110.05" width="15.3" height="30.6" transform="translate(-576.68 668.34) rotate(-40.05)"/><rect x="848.67" y="399.01" width="30.6" height="15.3" transform="translate(336.67 1202.77) rotate(-81.69)"/><rect x="380.88" y="1030.69" width="15.3" height="30.6" transform="translate(-674.3 706.21) rotate(-51.89)"/><rect x="1019.3" y="471.47" width="15.3" height="30.6" transform="translate(44.65 1058.29) rotate(-55.55)"/><rect x="493.58" y="467.78" width="15.3" height="30.6" transform="translate(-191.74 416.8) rotate(-38.48)"/><rect x="372.16" y="865.63" width="15.3" height="30.6" transform="translate(-450.24 399.99) rotate(-36.59)"/><rect x="597.65" y="783.83" width="15.3" height="30.6" transform="translate(-368.04 1039.15) rotate(-66.71)"/><rect x="935.31" y="646.19" width="15.3" height="30.6" transform="translate(-188.97 448.22) rotate(-24.38)"/><rect x="482.21" y="625.14" width="30.6" height="15.3" transform="translate(-288.68 460.03) rotate(-39.43)"/><rect x="785.33" y="609.27" width="30.6" height="15.3" transform="translate(-202.13 490.16) rotate(-30.41)"/><rect x="586.4" y="634.38" width="30.6" height="15.3" transform="translate(-261.83 473.04) rotate(-35.78)"/><rect x="831.02" y="1019.07" width="15.3" height="30.6" transform="translate(-219.02 225.31) rotate(-13.55)"/><rect x="825.54" y="504.42" width="15.3" height="30.6" transform="translate(-60.62 113) rotate(-7.49)"/><rect x="1107.69" y="707.68" width="15.3" height="30.6" transform="matrix(0.77, -0.63, 0.63, 0.77, -205.79, 868.93)"/><rect x="1066.23" y="552.43" width="30.6" height="15.3" transform="translate(-128.45 699.14) rotate(-33.93)"/><rect x="452.63" y="874.55" width="30.6" height="15.3" transform="translate(-475.3 1210.14) rotate(-81.23)"/><rect x="1116.47" y="822.66" width="30.6" height="15.3" transform="translate(-228.6 1176.33) rotate(-50.54)"/><rect x="1088.76" y="924.52" width="30.6" height="15.3" transform="translate(-334.1 1072.09) rotate(-45.73)"/><rect x="743.63" y="704.14" width="30.6" height="15.3" transform="translate(-229.52 386.86) rotate(-24.97)"/><rect x="697.28" y="622.41" width="15.3" height="30.6" transform="translate(-187.09 966.2) rotate(-62.35)"/><rect x="653.17" y="1192.17" width="15.3" height="30.6" transform="translate(-607.7 1741.81) rotate(-84.15)"/><rect x="1149.94" y="965" width="30.6" height="15.3" transform="translate(-267.82 1472.84) rotate(-59.09)"/><rect x="912.13" y="476.14" width="15.3" height="30.6" transform="translate(139.79 1183.62) rotate(-69.7)"/><rect x="497.44" y="779.89" width="15.3" height="30.6" transform="translate(-387.05 492.67) rotate(-38.85)"/><rect x="954.46" y="897.83" width="15.3" height="30.6" transform="translate(-67.97 77.43) rotate(-4.45)"/></svg>