<svg id="Abstract_Shape" data-name="Abstract Shape" xmlns="http://www.w3.org/2000/svg" viewBox="0 0 1500 1500"><path d="M1148.6,805.61a352.5,352.5,0,0,0-122-76.91l-.18-.07c-11.5-4.65-23.38-7.87-35.58-11.5-30.77-7-18.52-5.08-136.94-21.44-45.63-6.37-35.82-5-49.47-6.86l3,3.8L936.33,793l14.33-2c10.15-1.64,20.44-1.82,30.18-2.47h.52q3.5.06,7,.07c7.65,0,15.55.11,23.5.95,41.11,3.07,83.17,15.59,121.64,36.22a337.67,337.67,0,0,1,55.07,37.56q8.67,7.47,16.94,15.58-5.79-10.12-12.18-19.76A354.87,354.87,0,0,0,1148.6,805.61Z"/><path d="M978.88,593.24l-.15,0c-10.12,1.47-19.93,3.87-30.32,6.41l-6.26,1.52-5.34,1.63c-10.16,3.1-20.66,6.3-30.51,10.36l-.16.07c-6.84,2.6-12.68,5-18.06,7.13l-.56.23C877,625,877.07,624.93,766.65,669.81l4.4,1.77L791,674.39l25.8,3.5,38.85,5.42c51.08,7.07,70.57,9.75,77.32,10.71l11.35-8.83a217.92,217.92,0,0,1,18.62-13.13c2.06-1.35,4.14-2.7,6.2-4.09l.44-.26c1.87-1,3.74-2.11,5.62-3.17a239.82,239.82,0,0,1,21.39-11.22c37.16-17.88,79.84-28.05,123.42-29.4a340.34,340.34,0,0,1,66.53,4.92l.1,0q11.3,2.17,22.49,5.07-10.1-5.88-20.54-11.09A357.73,357.73,0,0,0,1123,599,353.58,353.58,0,0,0,978.88,593.24Z"/><path d="M869.71,499.9C859.53,508,850,517.52,842,525.06c-8.21,8.93-17.35,18.33-25,28.32l-.12.15c-7.23,8.88-1.79,2.18-42.92,54.9L726.3,669.67l-2,2.55,4.66-.64c25-10.1,143.92-58.41,151.4-61.53l5.49-13.36c3.77-9.72,8.69-18.75,12.86-27.28l4.29-7.23A226.15,226.15,0,0,1,915.23,543c23.13-34,55-64.19,92.15-87.21a338.76,338.76,0,0,1,60.07-29q10.86-3.78,22-6.88-11.68,0-23.33.66a358.84,358.84,0,0,0-68.65,12,354.09,354.09,0,0,0-127.65,67.2Z"/><path d="M1067.31,997.5a351.84,351.84,0,0,0-67.11-127.58l-.1-.12C992.44,860.13,984,851.5,975,842,964.79,832.57,956,824.22,946.6,817l-.09-.07c-5.17-4.14-10.16-8.08-15.69-12.39l-4.12-3.19-8.21-6.37-26.92-21-63.81-49.61.65,4.62,1.83,4.48,0-.06c7,17.35,3.66,9,15.53,38.38C879.33,854.1,890,880.47,890,880.47l13.35,5.4c9.16,3.55,17.47,8.12,27.24,12.94l6.44,3.77a227.56,227.56,0,0,1,20,12.65c34.12,23.28,64.27,55.14,87.2,92.15a340.71,340.71,0,0,1,28.9,60.09q3.78,10.74,6.91,22,0-11.73-.69-23.23A352.41,352.41,0,0,0,1067.31,997.5Z"/><path d="M906.73,978.73c-1.76-12-4.71-23.56-7.84-36.56-9.93-31.6-4.11-16.54-38.18-100.66L830.9,768.26l-.66-1.62-1.83,4.5-2.63,18.55-3.67,27.07-5.42,38.85-8.92,64.49c-.61,4.31-1.17,8.41-1.74,12.72l8.88,11.48c6.43,8,11.7,16.75,17.12,24.8.3.5,3.14,5.55,3.43,6.06a237,237,0,0,1,11.21,21.38c17.94,37.1,28.14,79.78,29.49,123.43a339.92,339.92,0,0,1-5,66.55q-2.17,11.31-5.07,22.53,5.89-10.14,11.07-20.58a345,345,0,0,0,29.61-209.58Z"/><path d="M692.63,692.63l3-3.86h-.1c18.93-24.23,90.92-116.71,97.43-125.11l-2-14.33a217.1,217.1,0,0,1-2-22.61c-.62-11.88-.43-3.9-.38-15.15a234.36,234.36,0,0,1,1-23.48c3.06-41,15.58-83.07,36.21-121.63a345.06,345.06,0,0,1,37.55-55.07q7.49-8.68,15.59-16.95-10.1,5.78-19.76,12.18a355.68,355.68,0,0,0-53.42,44.76,351.84,351.84,0,0,0-77,122l-.07.18c-4.33,10.73-7.4,21.66-11.49,35.56-2.93,13.09-5.88,25-7.44,37.07l0,.18c-1.84,11.61-3.83,26.35-14,99.71l-6.89,49.48Z"/><path d="M811.17,804.42l-3.8,3c-37.13,47.74-4.52,6-52.44,67.47-43,55.32-46.07,59.17-48,61.59l2,14.23c1.68,10.35,1.92,20.86,2.56,30.09,0,.23-.07,6.5-.07,6.8-.07,7.93-.15,16.13-1,24.35-3.06,41-15.58,83.07-36.21,121.63a336.23,336.23,0,0,1-37.57,55.08q-7.47,8.69-15.62,17,10.15-5.8,19.9-12.23a346.67,346.67,0,0,0,130.42-166.79l0-.12c4.43-11.22,7.68-22.65,11.43-35.61,2.58-11.35,5.87-24.38,7.52-37.07l0-.17c2.17-13.92,1.46-9.1,14-99.72l5.42-38.84Z"/><path d="M630.31,1000c9.67-7.58,18.26-16.09,27.75-25.07l3.56-3.82c7.31-7.83,14.88-15.93,21.41-24.49l.12-.14c7.87-9.73,54.16-69.34,61.92-79.32,28.35-36.36,22.28-28.55,30.66-39.4l-4.59.65C616.73,891,619.54,890,619.54,890l-5.39,13.31c-3.74,9.76-8.93,19.2-12.87,27.3-.25.46-3.25,5.53-3.52,6-4,6.79-8.11,13.81-12.9,20.37-23.11,33.95-55,64.13-92.23,87.28a338,338,0,0,1-60,28.91q-10.8,3.78-22,6.91,11.75,0,23.27-.69a346,346,0,0,0,196.32-79.24Z"/><path d="M521.12,906.76l.15,0c11.93-1.74,23.46-4.68,36.56-7.92l5.36-1.64c10.16-3.1,20.66-6.3,30.51-10.36l.14-.06c6.06-2.33,11.43-4.49,16.11-6.38v0c1.74-.68,76.18-31,77.18-31.38l46.24-18.74-4.43-1.8-4.76-.66,0,0c-74.33-10.32-157-21.84-157-21.84l-11.46,8.86c-8.15,6.64-17.06,12-24.82,17.22l-6.07,3.44a240.69,240.69,0,0,1-21.37,11.2c-36.92,17.85-79.63,28.05-123.5,29.49a339.44,339.44,0,0,1-66.48-5q-11.36-2.17-22.59-5.07Q301,872,311.44,877.15a345.56,345.56,0,0,0,209.68,29.61Z"/><path d="M593.27,521.26c1.73,11.82,4.7,23.24,7.93,36.51,3,9.69,6.9,23.49,12,35.94l.06.15c2.86,7.52,1.58,4.09,26.12,64.63L651,687.14c17.33,42.79,13.61,33.64,18.76,46.24l1.78-4.42.65-4.75,0,0C688.39,607.67,694,567,694,567l-8.83-11.35c-6.54-8-12-17-17.22-24.83-.2-.34-3.13-5.5-3.44-6-3.88-6.84-7.89-13.9-11.21-21.39-17.88-37.16-28.05-79.84-29.4-123.43a333.13,333.13,0,0,1,5-66.46q2.13-11.33,5-22.54-5.87,10.05-11.1,20.52a346.88,346.88,0,0,0-29.6,209.66Z"/><path d="M432.61,502.52a354.09,354.09,0,0,0,67.2,127.65l.11.14c8,10.19,17.22,19.4,25,27.73,2,1.81,4,3.64,6,5.48,7.2,6.66,14.65,13.55,22.46,19.51l.14.12c4.35,3.53,8.68,7,13.48,10.72h0c3.14,2.51-12.06-9.35,105.19,81.82l-.66-4.63c-5.34-13.26-11.1-27.43-61.47-151.43l-13.4-5.47c-9.8-3.72-18.92-8.79-27.3-12.87l-6.12-3.6c-6.75-4-13.73-8.06-20.3-12.82-34.07-23.23-64.23-55.13-87.22-92.23a338.12,338.12,0,0,1-29-60q-3.78-10.92-6.88-22.08,0,11.65.66,23.31A358.84,358.84,0,0,0,432.61,502.52Z"/><path d="M351.4,694.31a354.74,354.74,0,0,0,122,77l.14.05c10.89,4.32,22.05,7.42,35.61,11.42l5.76,1.33c10.23,2.38,20.81,4.83,31.29,6.19l.17,0c6.52,1,12.84,1.94,19.84,2.89h0c4.77.63,10,1.32,15.38,2.09l33.82,4.75,80.17,11.15h0l-2.83-3.67C591.39,728.59,563.47,707,563.47,707l-14.12,2c-10.49,1.69-21.13,1.92-30.24,2.48-.2,0-5.19,0-5.36,0a250.84,250.84,0,0,1-25.65-1c-41.05-3.06-83.08-15.58-121.55-36.22a336.86,336.86,0,0,1-55.16-37.56q-8.7-7.47-17-15.6,5.79,10.14,12.21,19.88A364.11,364.11,0,0,0,351.4,694.31Z"/></svg>