<svg id="Abstract_Shape" data-name="Abstract Shape" xmlns="http://www.w3.org/2000/svg" viewBox="0 0 1500 1500"><path d="M1212.09,554.79A503.17,503.17,0,1,0,1251.5,750,499.68,499.68,0,0,0,1212.09,554.79Zm19.37,269.75a373.6,373.6,0,0,1-3.3,41.09c-10.62,19.83-26.17,38.85-46.26,56.67a430.37,430.37,0,0,0,1.57-78.27q-.75-11-2-22,5.46-4.75,10.53-9.62c15.32-14.78,27.55-30.22,36.63-46.09A395.82,395.82,0,0,1,1231.46,824.54ZM271,770.78c.16-1.42.34-2.84.51-4.26,9.07,15.81,21.27,31.2,36.53,45.92q5.07,4.89,10.56,9.64a437.36,437.36,0,0,0-.36,100.31c-20-17.71-35.5-36.61-46.13-56.31A385.44,385.44,0,0,1,271,770.78ZM310.91,514A354.93,354.93,0,0,1,346,460.73a109.67,109.67,0,0,0-9,42.53q-11.28,14.19-21.27,29.17A411.82,411.82,0,0,0,284.15,589a124.18,124.18,0,0,1,11-42.91l-.1,0q7.33-16.38,15.8-32.11Zm755-135.79Q1050,368,1033,359.25a423.51,423.51,0,0,0-57.35-24.19,96.74,96.74,0,0,0-18.75-23.81,301.13,301.13,0,0,1,79.55,33C1048.83,355,1058.72,366.39,1065.93,378.19ZM1189.09,514l.1-.05q8.46,15.72,15.8,32.11l-.1,0a124.18,124.18,0,0,1,11,42.91,411.82,411.82,0,0,0-31.59-56.56q-10-15-21.27-29.17a109.62,109.62,0,0,0-8.86-42.14A350.25,350.25,0,0,1,1189.09,514Zm12.67,139.08a500.32,500.32,0,0,0-52.45-96.38,121.9,121.9,0,0,0,10.54-27.38,106,106,0,0,0,3.06-21.28q9.94,12.72,18.85,26.08a407.7,407.7,0,0,1,34.32,62.74,121.56,121.56,0,0,1-10.59,48.34Q1203.75,649.14,1201.76,653.06Zm-21.28,191.18a425.35,425.35,0,0,1-2,81c-20.79,17.85-46.18,34.46-75.79,49.41.15-1.6.33-3.19.47-4.8a540.74,540.74,0,0,0-.51-96.32c29.26-14.68,54.82-31.16,76-49.11Q1179.8,834.35,1180.48,844.24Zm-74.93,253.29c-16.64,14.42-36.59,27.61-59.22,39.38a246.93,246.93,0,0,0,17.3-27.09,291.62,291.62,0,0,0,18.26-40.29c24.45-12.22,46.1-25.74,64.65-40.42q2.34-1.84,4.6-3.72A294.17,294.17,0,0,1,1105.55,1097.53ZM983.66,1190a396,396,0,0,1-59.77,23.58q18.39-14.56,33-38.48a513.07,513.07,0,0,0,79-29.67A196.84,196.84,0,0,1,983.66,1190ZM751.5,1238.23c0-8,0-19.88,0-35.37a809.24,809.24,0,0,0,102.87-6.67c-.48,1.41-1,2.8-1.48,4.16q-7.89,21.29-17.68,32.33A649.56,649.56,0,0,1,751.5,1238.23Zm-86.66-5.54c-7.23-8.15-13.67-20.45-19.22-36.5a809.49,809.49,0,0,0,102.87,6.67v35.37A650.75,650.75,0,0,1,664.84,1232.69Zm-148.16-42.48a198,198,0,0,1-52.15-44.56,513.83,513.83,0,0,0,78.79,29.54c9.71,15.86,20.82,28.78,33.14,38.54A396.91,396.91,0,0,1,516.68,1190.21ZM349.16,1025.63c1.42,1.17,2.84,2.33,4.3,3.48,18.58,14.7,40.27,28.24,64.76,40.47l0,.1c9.35,25.36,21.37,47.94,35.76,67.41-22.58-11.72-42.5-24.85-59.14-39.2A297.74,297.74,0,0,1,349.16,1025.63ZM321.33,824.45c21.22,18,46.8,34.47,76.1,49.15a533.22,533.22,0,0,0-.15,101.06c-29.56-14.93-54.92-31.5-75.69-49.31A432.27,432.27,0,0,1,321.33,824.45ZM337.09,508a106,106,0,0,0,3.06,21.28,122,122,0,0,0,10.6,27.49,500.48,500.48,0,0,0-52.49,96.3q-2-3.93-3.75-7.91a121.56,121.56,0,0,1-10.59-48.34,407.7,407.7,0,0,1,34.32-62.74Q327.12,520.75,337.09,508ZM417,428.59c0,.2,0,.4,0,.59a92.45,92.45,0,0,0,10.79,38.92,555.8,555.8,0,0,0-70.91,80q-2.13,2.94-4.21,5.9a118.16,118.16,0,0,1-9.63-25.42A102.42,102.42,0,0,1,340,504.3,459.7,459.7,0,0,1,417,428.59Zm99.19-60.09a64.86,64.86,0,0,0,7.31,27.16,590.28,590.28,0,0,0-93.37,70.28A88.85,88.85,0,0,1,420,429.05c0-.91,0-1.83-.05-2.74A503.27,503.27,0,0,1,500.67,376C505.8,373.38,511,370.91,516.19,368.5ZM999.33,376A503.27,503.27,0,0,1,1080,426.31c0,.91,0,1.83,0,2.74a88.74,88.74,0,0,1-10,36.75,584.93,584.93,0,0,0-93.44-70.14,64.86,64.86,0,0,0,7.31-27.16C989,370.91,994.2,373.38,999.33,376ZM1160,504.3a102.42,102.42,0,0,1-3,24.28,118.57,118.57,0,0,1-9.58,25.32,545.88,545.88,0,0,0-42.16-52.58Q1089.45,484,1072.26,468a92.35,92.35,0,0,0,10.72-38.8c0-.19,0-.39,0-.59A459.7,459.7,0,0,1,1160,504.3Zm-53.13,99.64a659.2,659.2,0,0,0-67.52-95.5c13.56-11.86,24.12-24.51,31.46-37.72q16.76,15.67,32.17,32.62a541.59,541.59,0,0,1,42.82,53.54c-8.77,16.11-21.5,31.61-38.09,46.33C1107.43,603.45,1107.13,603.69,1106.86,603.94Zm-6.65,365.65c-.2,2.24-.43,4.45-.66,6.66q-5.73,2.85-11.68,5.61a623.51,623.51,0,0,1-88,32.67,748.8,748.8,0,0,0,0-101.42c2.91-.84,5.8-1.69,8.68-2.57A601.37,601.37,0,0,0,1099.8,875,537.54,537.54,0,0,1,1100.21,969.59Zm-679.57,97.85c-9.71-26.7-16.34-56.15-19.81-87.66q4.95,2.43,10,4.8a625.94,625.94,0,0,0,89.55,33.14c2.38,31.18,7,59.93,13.7,85.61-19.48-5.67-38.17-12.06-55.88-19.13Q438.47,1076.3,420.64,1067.44ZM400.31,875a601.38,601.38,0,0,0,91.13,35.51c2.92.89,5.85,1.75,8.8,2.61q-.83,12.66-1.27,25.13a723.39,723.39,0,0,0,1.2,76.25,622.42,622.42,0,0,1-88-32.67q-6-2.76-11.69-5.62A528.27,528.27,0,0,1,400.31,875Zm-8-271.82c-16.56-14.69-29.27-30.16-38-46.23q2.49-3.57,5.06-7.12a552.34,552.34,0,0,1,69.94-79c7.34,13.17,17.87,25.78,31.4,37.6A659.45,659.45,0,0,0,393.24,604ZM646.9,300.77a429.3,429.3,0,0,1,72.64,9.61c3.12.68,6.23,1.4,9.35,2.14a520.25,520.25,0,0,0-91.75-.61A51.35,51.35,0,0,1,646.9,300.77Zm71.67-27.7a146.05,146.05,0,0,1,12.51,15.37,249.08,249.08,0,0,1,13.71,21.67,252,252,0,0,0-40.43-27.5q-4.86-2.61-9.66-4.85A201.73,201.73,0,0,1,718.57,273.07Zm86.93,4.74a226,226,0,0,0-40.79,24.9c-3.2,2.42-6.41,5-9.62,7.59,8.87-15.65,17.7-28.15,26.34-37.23A203.06,203.06,0,0,1,805.5,277.81ZM862.91,312a517.11,517.11,0,0,0-64.45-1.24q-14,.6-27.94,1.95a431.41,431.41,0,0,1,82.69-11.84A51.5,51.5,0,0,1,862.91,312Zm93.94,378.48c10.39,36.11,18.78,71.8,25.24,106.59a780.93,780.93,0,0,1-109.69,22.7c-2.64-27.82-5.87-56.17-9.7-84.81q-2.13-16-4.47-31.72a690.53,690.53,0,0,0,96.52-20Q955.82,686.87,956.85,690.47Zm39.89,325a826.81,826.81,0,0,1-116.68,24.14c1.21-31.73,1.21-65.77,0-101.51A835.9,835.9,0,0,0,996.84,914,748.48,748.48,0,0,1,996.74,1015.43ZM502,938.39q.42-12.1,1.22-24.4A836.18,836.18,0,0,0,620,938.07c-.53,15.9-.83,31.55-.89,46.86-.08,19,.22,37.23.87,54.64a824.85,824.85,0,0,1-116.72-24.15A718.61,718.61,0,0,1,502,938.39Zm189-458.59a459.32,459.32,0,0,0,57.55,3.74V589.38A651.86,651.86,0,0,1,666,584c6.78-32.61,14.22-64.24,22.26-94.27Q689.58,484.71,690.93,479.8ZM665.59,373.09a146.72,146.72,0,0,0,22,8.56,702.28,702.28,0,0,0-50.16,75.43q-2.21,3.82-4.39,7.68a285.19,285.19,0,0,1-45-17.13Q606,427.28,625,408.91,644.94,389.65,665.59,373.09Zm82.9-50.59v64.8a233.47,233.47,0,0,1-27.43-1.75A589.51,589.51,0,0,1,748.49,322.5ZM718,385.15A199.6,199.6,0,0,1,692.7,380a453.4,453.4,0,0,1,52.18-56.91A601.08,601.08,0,0,0,718,385.15Zm33.46-62.67a589.08,589.08,0,0,1,27.44,63.07,233.64,233.64,0,0,1-27.44,1.75Zm3.68.62c17.58,16,35.05,35,52.12,56.9A199.63,199.63,0,0,1,782,385.15,602,602,0,0,0,755.17,323.1Zm45.49,43.8a448,448,0,0,0-40.74-43.57q12.74,6.84,25.53,14.83A514.18,514.18,0,0,1,831.93,371a148.74,148.74,0,0,1-21.51,8.1C807.18,375,803.93,370.87,800.66,366.9ZM689.59,379.12a148.36,148.36,0,0,1-21.45-8.07,484.15,484.15,0,0,1,72-47.69A463.71,463.71,0,0,0,689.59,379.12Zm-49.53,79.47a695.16,695.16,0,0,1,50.67-76A200.3,200.3,0,0,0,717,388c-9.77,26.41-19.24,56.09-28.22,88.43A385.46,385.46,0,0,1,636,465.61Q638,462.09,640.06,458.59ZM720,388.44a238.24,238.24,0,0,0,28.5,1.86v90.24a455.45,455.45,0,0,1-56.74-3.68C700.81,444.21,710.29,414.6,720,388.44Zm28.49,203.9V707.43a806.5,806.5,0,0,1-103.25-6.76c5.77-38.6,12.52-76.8,20.14-113.76A653.8,653.8,0,0,0,748.48,592.34Zm0,118.08V827.86a916.41,916.41,0,0,1-117.84-7.7c3.65-38.64,8.4-77.77,14.15-116.54A809.62,809.62,0,0,0,748.48,710.42Zm0,120.44V943.69a971.22,971.22,0,0,1-125.41-8.23c1.27-36.37,3.74-74.08,7.29-112.31A920.9,920.9,0,0,0,748.48,830.86Zm3,0a920.53,920.53,0,0,0,118.22-7.72c3.61,38.71,6,76.35,7.3,112.31a972.8,972.8,0,0,1-125.52,8.24Zm0-3V710.42a809.22,809.22,0,0,0,103.78-6.8q2.32,15.76,4.47,31.72c3.83,28.65,7.06,57,9.69,84.81A916,916,0,0,1,751.48,827.86Zm0-120.43V592.34a653.57,653.57,0,0,0,83.22-5.44c7.52,36.48,14.27,74.6,20.12,113.76A806.1,806.1,0,0,1,751.48,707.43Zm0-118V483.54a460.34,460.34,0,0,0,57.63-3.75c9,32.63,17.38,67.57,25,104.2A651.5,651.5,0,0,1,751.48,589.38Zm0-108.84c0-33.18,0-63.4,0-90.24A238.55,238.55,0,0,0,780,388.44c.14.38.29.75.43,1.13,9.79,26.53,19.12,55.83,27.87,87.28A454.68,454.68,0,0,1,751.48,480.54Zm31.76-92c-.06-.18-.13-.35-.19-.52a200,200,0,0,0,26.21-5.47A708.54,708.54,0,0,1,864,465.61a386.2,386.2,0,0,1-52.68,10.84C802.49,444.76,793.1,415.25,783.24,388.54Zm29.15-6.89a148.32,148.32,0,0,0,22.1-8.59,621.47,621.47,0,0,1,77.58,74.49A284.48,284.48,0,0,1,867,464.73,710.12,710.12,0,0,0,812.39,381.65Zm25.05-10.07A92.94,92.94,0,0,0,854,360.72q15,8.08,29.89,17.2A616.1,616.1,0,0,1,949,424.11a178.51,178.51,0,0,1-34.15,22.06A626.3,626.3,0,0,0,837.44,371.58Zm-2.53-2A516.82,516.82,0,0,0,787,335.62q-11.09-6.93-22.15-13a534.14,534.14,0,0,1,86.22,36.59A90.88,90.88,0,0,1,834.91,369.55Zm-169.74,0A91.18,91.18,0,0,1,649,359.28q9.43-5,19-9.62a528.76,528.76,0,0,1,67.06-27A490.53,490.53,0,0,0,665.17,369.59Zm-2.53,2q-20.17,16.27-39.72,35.14-19.32,18.67-37.6,39.5a178,178,0,0,1-34.23-22.07,612.68,612.68,0,0,1,95-63.39A92.22,92.22,0,0,0,662.64,371.61Zm-79.35,77A759.48,759.48,0,0,0,515,540.48c-19.49-9.81-36.24-20.65-50.07-32.4l2.06-2.43a658.57,658.57,0,0,1,81.7-79.54A180.6,180.6,0,0,0,583.29,448.58Zm2.77,1.38a287.2,287.2,0,0,0,45.49,17.52,960.29,960.29,0,0,0-48.18,99.45,412.6,412.6,0,0,1-60.92-22.8q-2.4-1.14-4.75-2.3A755.92,755.92,0,0,1,586.06,450Zm48.44,18.38a386.71,386.71,0,0,0,53.43,11.06q-1.3,4.74-2.6,9.55c-8.07,30.14-15.54,61.89-22.34,94.63a553.09,553.09,0,0,1-76.73-15.8A957.39,957.39,0,0,1,634.5,468.34Zm27.89,118.17c-7.61,37-14.36,75.17-20.13,113.77a687.57,687.57,0,0,1-96.07-19.85,1126.92,1126.92,0,0,1,38.92-109.88A555.45,555.45,0,0,0,662.39,586.51ZM641.81,703.23c-5.74,38.76-10.49,77.89-14.14,116.53A778.8,778.8,0,0,1,518,797.09,1138.48,1138.48,0,0,1,545.34,683.3,688.68,688.68,0,0,0,641.81,703.23ZM627.39,822.75c-3.56,38.22-6,75.93-7.31,112.3a831.26,831.26,0,0,1-116.69-24.12,989.73,989.73,0,0,1,14.07-110.88A782.94,782.94,0,0,0,627.39,822.75Zm-5.3,162.19c.06-15.18.36-30.7.88-46.47a974.57,974.57,0,0,0,125.51,8.22v101.49A974.82,974.82,0,0,1,623,1040Q622,1013.82,622.09,984.94Zm126.4,66.24v84.08a912.8,912.8,0,0,1-118.2-7.83c-3.5-24.79-5.93-53.07-7.2-84.4A976.84,976.84,0,0,0,748.49,1051.18Zm3,0A975.81,975.81,0,0,0,876.93,1043q-1,24.38-3,46.79-1.77,20-4.25,37.62a913.23,913.23,0,0,1-118.22,7.83C751.49,1110.63,751.49,1082.47,751.48,1051.18Zm0-3V946.69a974.48,974.48,0,0,0,125.62-8.23c1.18,35.76,1.17,69.8-.06,101.53A975.33,975.33,0,0,1,751.48,1048.18ZM880,935c-1.26-36-3.7-73.6-7.31-112.3a780.08,780.08,0,0,0,110-22.72,983.46,983.46,0,0,1,14,110.9A830.69,830.69,0,0,1,880,935Zm-22.2-234.77C852,661.11,845.2,623,837.68,586.5a555.74,555.74,0,0,0,77.3-16A1120.66,1120.66,0,0,1,953.9,680.41,687.84,687.84,0,0,1,857.79,700.27ZM837.08,583.58c-7.6-36.61-16-71.54-25-104.18a386.26,386.26,0,0,0,53.4-11.07,952.75,952.75,0,0,1,48.3,99.42A551.19,551.19,0,0,1,837.08,583.58Zm31.48-116.13a286.65,286.65,0,0,0,45.55-17.57,745.42,745.42,0,0,1,68.26,91.91c-1.59.78-3.19,1.56-4.82,2.34a412.84,412.84,0,0,1-60.79,22.77A953.37,953.37,0,0,0,868.56,467.45Zm48.32-19A180.21,180.21,0,0,0,951.39,426,659.4,659.4,0,0,1,1033,505.65l2.07,2.42c-13.82,11.74-30.54,22.57-50,32.37A749.53,749.53,0,0,0,916.88,448.49Zm118.4,55.2a662.21,662.21,0,0,0-81.58-79.64,100.49,100.49,0,0,0,21.38-25.74,581.17,581.17,0,0,1,93.42,70.24,125.7,125.7,0,0,1-15.5,21.94,166,166,0,0,1-15.65,15.62Zm-84-81.57a621.63,621.63,0,0,0-65.9-46.76Q871,366.5,856.35,358.61a51.89,51.89,0,0,0,10-12.27,597.56,597.56,0,0,1,81.16,36.19q12.71,6.83,25,14.21C967.48,405.69,960.32,414.19,951.31,422.12Zm-97.74-65a538.57,538.57,0,0,0-84.48-36.28,568,568,0,0,1,94.41,24.48A50,50,0,0,1,853.57,357.12Zm-80.25-38.6a570.37,570.37,0,0,1,94.81,11.85,31.16,31.16,0,0,1-3.19,12.28A570.68,570.68,0,0,0,773.32,318.52Zm-.52-3q12.9-1.17,25.79-1.74a513,513,0,0,1,66.1,1.4,31.22,31.22,0,0,1,3.4,12.15A573.92,573.92,0,0,0,772.8,315.49Zm-7-4.73a344,344,0,0,1,40.66-15.23q14.16-4.27,28-7A93.74,93.74,0,0,1,849.75,298,437.66,437.66,0,0,0,765.79,310.76Zm39.8-18.1A348.54,348.54,0,0,0,760.27,310c2.08-1.66,4.17-3.29,6.25-4.87a218.8,218.8,0,0,1,43.5-26,151.21,151.21,0,0,1,20,7.33Q817.9,289,805.59,292.66Zm-54.1,18V271a235,235,0,0,1,26.44,1.64C769.25,282.07,760.39,294.81,751.49,310.71Zm-3-.12c-8.86-15.84-17.67-28.54-26.32-38A235.58,235.58,0,0,1,748.5,271Zm-8.79-.7a330.36,330.36,0,0,0-69.55-23.58,148.58,148.58,0,0,1,20-7.3C706.52,286.21,723.12,296.61,739.71,309.89Zm-5.22.92c-4.76-1.19-9.53-2.32-14.31-3.36a434.59,434.59,0,0,0-69.84-9.52,94.85,94.85,0,0,1,15.33-9.48A321.22,321.22,0,0,1,734.49,310.81Zm-6.4,4.65a573.87,573.87,0,0,0-96.18,11.84,31.32,31.32,0,0,1,3.44-12.23A517,517,0,0,1,728.09,315.46Zm-.46,3a579.31,579.31,0,0,0-92.51,24.28,31,31,0,0,1-3.25-12.39A572.1,572.1,0,0,1,727.63,318.48Zm2.77,2.58A533.6,533.6,0,0,0,666.65,347q-10.12,4.89-20.14,10.23a50.43,50.43,0,0,1-10-11.76A576.16,576.16,0,0,1,730.4,321.06Zm-86.67,37.62a617.27,617.27,0,0,0-95,63.51c-9-7.94-16.23-16.47-21.25-25.44q12.29-7.39,25-14.22a593,593,0,0,1,81.22-36.09A52.13,52.13,0,0,0,643.73,358.68Zm-97.35,65.45a661.25,661.25,0,0,0-81.66,79.56c-.69.8-1.37,1.62-2.06,2.42A165,165,0,0,1,447,490.49a125.85,125.85,0,0,1-15.42-21.8,587,587,0,0,1,93.34-70.38A100.6,100.6,0,0,0,546.38,424.13ZM463,510.39c13.89,11.77,30.78,22.72,50.45,32.64-14,22.35-27.12,45.61-39.06,69.56q-8.46,16.95-16.06,34.2C434,634.6,413,621,395.56,606A656.44,656.44,0,0,1,463,510.39ZM477,613.92c11.94-23.94,25-47.2,39.07-69.54,1.68.82,3.36,1.65,5.08,2.46a415.11,415.11,0,0,0,61,22.87,1133.26,1133.26,0,0,0-38.9,109.89c-15.47-4.49-30.49-9.53-44.95-15.12q-19.8-7.65-37.39-16.35Q468.58,630.9,477,613.92Zm20.26,53.36c14.53,5.62,29.63,10.68,45.18,15.2a1140.26,1140.26,0,0,0-27.34,113.77q-14-4.07-27.41-8.61a545.45,545.45,0,0,1-66.53-27.29,784,784,0,0,1,38.57-109.47Q477.42,659.58,497.28,667.28ZM486.75,790.49q13.65,4.62,27.81,8.72a996.91,996.91,0,0,0-14.12,110.87q-4.08-1.19-8.13-2.41a596.52,596.52,0,0,1-91.7-35.84q.78-8.12,1.78-16.33a686.11,686.11,0,0,1,18-92.2A550.53,550.53,0,0,0,486.75,790.49Zm16.74,228.13a831.65,831.65,0,0,0,116.59,24c1.25,31.05,3.65,59.38,7.15,84.4a787.66,787.66,0,0,1-109.76-22.72C510.63,1078.66,505.94,1049.88,503.49,1018.62ZM627.67,1130.1c2.23,15.35,4.88,29.41,7.94,42q2.67,11,5.73,20.46a687.15,687.15,0,0,1-96-19.93,229.28,229.28,0,0,1-17.8-37q-5-13.23-9.11-27.95A792.37,792.37,0,0,0,627.67,1130.1Zm3.06.42a917.24,917.24,0,0,0,117.76,7.74v61.6A805.09,805.09,0,0,1,644.55,1193C639,1176,634.32,1155,630.73,1130.52Zm120.76,7.74a917.67,917.67,0,0,0,117.78-7.74c-3.58,24.48-8.2,45.39-13.84,62.51a805,805,0,0,1-103.94,6.83Zm120.86-8.16a793.85,793.85,0,0,0,109.28-22.43c-6.88,24.9-15.82,46.76-26.75,64.94a687.11,687.11,0,0,1-96.16,20C864.23,1175.5,868.81,1154.59,872.35,1130.1Zm.44-3.09q2.41-17.33,4.15-36.94c1.34-15.12,2.34-31,3-47.46a829.65,829.65,0,0,0,116.55-24c-2.45,31.26-7.13,60-14,85.67A787.66,787.66,0,0,1,872.79,1127Zm123.76-79.44q1.89-14.61,3.07-29.86a626.28,626.28,0,0,0,89.51-33.13q5.11-2.37,10.07-4.82c-3.49,31.82-10.11,61.11-19.73,87.62q-17.88,8.88-37.71,16.82c-17.69,7.06-36.36,13.44-55.81,19.11A451.34,451.34,0,0,0,996.55,1047.57Zm11.14-139.9q-4,1.22-8,2.38a983.41,983.41,0,0,0-14.11-110.87q14.1-4.09,27.69-8.69a550.21,550.21,0,0,0,66.52-27.27,669.72,669.72,0,0,1,19.74,108.56A597.68,597.68,0,0,1,1007.69,907.67Zm4.6-120q-13.38,4.54-27.27,8.57c-6.54-35.08-15-70.77-25.29-106.57-.69-2.4-1.4-4.79-2.11-7.19,15.52-4.51,30.59-9.56,45.1-15.17q19.86-7.68,37.54-16.41A780.26,780.26,0,0,1,1079,760.27,545.17,545.17,0,0,1,1012.29,787.64Zm-10.65-123.16c-14.43,5.58-29.43,10.61-44.86,15.1a1133.56,1133.56,0,0,0-38.86-109.9,416.08,416.08,0,0,0,60.91-22.84c1.74-.83,3.45-1.66,5.15-2.5q20.89,33.33,39,69.58,8.48,17,16.08,34.2Q1021.45,656.81,1001.64,664.48Zm24-51.89q-18-36.18-39-69.6c19.64-9.91,36.5-20.85,50.38-32.6a655.7,655.7,0,0,1,67.49,95.54c-17.48,15-38.49,28.64-62.8,40.85Q1034.15,629.61,1025.66,612.59ZM973.9,394.09q-12.27-7.36-24.95-14.21a600.47,600.47,0,0,0-81.18-36.22A33.82,33.82,0,0,0,871.1,331a548.4,548.4,0,0,1,109.74,36.17A61.33,61.33,0,0,1,973.9,394.09ZM871.13,327.94a33.53,33.53,0,0,0-3-12.49A467.38,467.38,0,0,1,973.5,337.51a61.88,61.88,0,0,1,7.3,26.34A551.12,551.12,0,0,0,871.13,327.94Zm-4.56-15.64a50.39,50.39,0,0,0-9.16-11.61q16.88-.54,33.42.39a343.08,343.08,0,0,1,59.84,8.64,101,101,0,0,1,20.62,23.89A472,472,0,0,0,866.57,312.3ZM891,298.09q-18.18-1-36.78-.28a89.53,89.53,0,0,0-15.05-10.16c26-4.67,51.1-5.27,74.81-1.85a184.49,184.49,0,0,1,31.55,19.67A349,349,0,0,0,891,298.09ZM834.84,285.4a147.2,147.2,0,0,0-20.54-8.15c18-7.29,35.37-10.6,51.84-9.84a294.69,294.69,0,0,1,39.28,14.31A242.69,242.69,0,0,0,834.84,285.4Zm-25.06-9.51a197.69,197.69,0,0,0-25.72-5.47c9-8.79,17.81-13.77,26.19-14.61a393.61,393.61,0,0,1,45.13,8.67C840.71,265.31,825.44,269.14,809.78,275.89ZM802,254.78c-7,2.62-14.17,7.69-21.51,15.14a238.19,238.19,0,0,0-29-1.92c0-8.06,0-13.5,0-16.14A458.87,458.87,0,0,1,802,254.78ZM748.5,268a236.2,236.2,0,0,0-28.88,1.91q-11-11.18-21.49-15.15a459,459,0,0,1,50.37-2.9Zm-58.71-12.19c8.32.82,17.06,5.71,26.16,14.6a199.34,199.34,0,0,0-25.54,5.43c-15.64-6.8-30.82-10.63-45.43-11.46A395.91,395.91,0,0,1,689.79,255.81Zm-3.89,21.38a146.36,146.36,0,0,0-20.57,8.13q-7-1.35-13.88-2.35A234.59,234.59,0,0,0,595,281.52a296.06,296.06,0,0,1,39.08-14.18C650.82,266.55,668.2,270,685.9,277.19ZM651,285.94c3.31.47,6.64,1,10,1.62a90.15,90.15,0,0,0-15.11,10.16,363,363,0,0,0-86.66,6.6l-4.48.94a185,185,0,0,1,31.7-19.68A227.56,227.56,0,0,1,651,285.94Zm-91.21,21.32a358.39,358.39,0,0,1,82.86-6.66,50.54,50.54,0,0,0-9.21,11.63,489.68,489.68,0,0,0-55,8.13,461.88,461.88,0,0,0-49.7,13.16,101.35,101.35,0,0,1,20.81-24Q554.66,308.31,559.82,307.26Zm19.24,16a487.14,487.14,0,0,1,52.81-7.91,33.48,33.48,0,0,0-3,12.55A551.12,551.12,0,0,0,519.2,363.85a62,62,0,0,1,7.35-26.44A455.73,455.73,0,0,1,579.06,323.3ZM628.9,331a34,34,0,0,0,3.37,12.77,596.19,596.19,0,0,0-81.22,36.12q-12.66,6.81-24.95,14.22a61.41,61.41,0,0,1-6.94-26.94A548.4,548.4,0,0,1,628.9,331ZM352.36,559.74c8.9,15.9,21.58,31.19,37.95,45.71.46.41.95.82,1.42,1.23a610.15,610.15,0,0,0-47.34,103.65c-19.11-16.79-34-34.83-44.31-53.78A496.26,496.26,0,0,1,352.36,559.74ZM394,608.67c17.59,15,38.68,28.65,63,40.87A787.46,787.46,0,0,0,418.44,759c-27.84-14-51.87-29.61-71.62-46.54A608,608,0,0,1,394,608.67Zm23.6,153.27a691.94,691.94,0,0,0-18.23,93.19q-.95,7.67-1.68,15.26c-29.35-14.8-54.91-31.42-76-49.53A518.37,518.37,0,0,1,342,727.21q1.83-5.87,3.82-11.71C365.69,732.4,389.79,748,417.64,761.94Zm-20,216.26c3.32,31.3,9.71,60.62,19.11,87.29-23.15-11.77-43.72-24.72-61.43-38.73-3.06-2.42-6-4.87-8.87-7.33a340.42,340.42,0,0,1-20-64.65q-2.55-12.35-4.26-25C343,947.26,368.32,963.54,397.64,978.2Zm24.52,93.33q16.66,8.13,35,15.45c18.32,7.32,37.69,13.91,57.89,19.74,2.86,10.53,6.09,20.54,9.67,30a235.31,235.31,0,0,0,16.39,34.75,498.4,498.4,0,0,1-80.93-31.22C444.83,1120.62,432.06,1097.59,422.16,1071.53Zm125.46,104.88a694.47,694.47,0,0,0,94.77,19.34c5.31,15.59,11.43,27.77,18.24,36.37a550,550,0,0,1-75.6-15.84C571,1206.85,558.49,1193.47,547.62,1176.41Zm310.06,19.33a694.08,694.08,0,0,0,94.89-19.38c-10.67,16.83-23.13,30.28-37.32,39.84a551.81,551.81,0,0,1-75.75,15.9C846.32,1223.49,852.41,1211.31,857.68,1195.74Zm101.4-24.35.72-1.25c10.26-18,18.7-39.25,25.25-63.44,20.17-5.82,39.52-12.41,57.82-19.72q18.38-7.34,35.09-15.51a286.6,286.6,0,0,1-17,36.9,240.57,240.57,0,0,1-20.78,31.65A498.1,498.1,0,0,1,959.08,1171.39Zm185.6-144.63c-17.68,14-38.22,26.92-61.33,38.67,9.32-26.48,15.69-55.64,19-87.24,29.36-14.68,54.67-31,75.57-48.53a355.66,355.66,0,0,1-17.68,73.05q-3,8.4-6.45,16.49C1150.87,1021.74,1147.83,1024.27,1144.68,1026.76Zm-42.31-156.42a672.18,672.18,0,0,0-19.86-108.48c27.83-13.94,51.91-29.54,71.78-46.44a521.47,521.47,0,0,1,24,105.42C1157.23,838.93,1131.69,855.55,1102.37,870.34Zm-20.65-111.43A784.45,784.45,0,0,0,1043,649.54c24.39-12.25,45.51-25.95,63.12-41a616.25,616.25,0,0,1,31.55,63.27q8.67,20.22,15.63,40.53C1133.53,729.31,1109.53,744.93,1081.72,758.91Zm58.66-88.24a620.38,620.38,0,0,0-32-64.09l1.31-1.13c16.41-14.55,29.11-29.88,38-45.82a496.25,496.25,0,0,1,52.23,96.9c-10.26,18.93-25.16,37-44.24,53.73Q1148.83,690.43,1140.38,670.67Zm77-94.52A493,493,0,0,1,1239.87,657a392.43,392.43,0,0,0-20.77-60.76A117.44,117.44,0,0,0,1217.34,576.15Zm-57.45-76.73a464,464,0,0,0-76.84-74.58,89.73,89.73,0,0,0-8.82-37.58,369.85,369.85,0,0,1,72,64.34C1154.61,467.22,1159.19,483.28,1159.89,499.42ZM1080,422.49a506.87,506.87,0,0,0-79.32-49.23q-8.32-4.17-16.83-8a63.88,63.88,0,0,0-6.3-26.34,418.87,418.87,0,0,1,54.06,23,395.12,395.12,0,0,1,37.55,21.94A88.8,88.8,0,0,1,1080,422.49Zm-58.48-89.95A308.71,308.71,0,0,0,952.12,307a171.68,171.68,0,0,0-28.67-19.59,190.3,190.3,0,0,1,48.95,16.47l.05-.11q14.82,7.39,29.07,15.73l0,.08Q1012.2,325.83,1021.51,332.54ZM914.86,282.89a269.92,269.92,0,0,0-30.88-13c1.31.31,2.6.64,3.89,1l0-.14q23.6,6.78,46.55,15.94Q924.83,284.35,914.86,282.89ZM612.13,271c1.29-.38,2.59-.71,3.89-1a272.35,272.35,0,0,0-30.43,12.75q-9.83,1.43-19.32,3.79,22.59-9,45.82-15.65ZM527.6,303.86a191.89,191.89,0,0,1,49.31-16.67,172.1,172.1,0,0,0-28.77,19.58A305.27,305.27,0,0,0,479.19,332q9-6.42,19.34-12.47l0-.08q14.25-8.34,29.07-15.73ZM464,343.93A296.81,296.81,0,0,1,543.36,311,96.93,96.93,0,0,0,524.44,335a413.09,413.09,0,0,0-90.22,43C441.49,366.11,451.45,354.7,464,343.93Zm58.55-5.14a63.87,63.87,0,0,0-6.34,26.43q-8.49,3.88-16.83,8A506.08,506.08,0,0,0,420,422.49a88.94,88.94,0,0,1,11-38.88A407.48,407.48,0,0,1,522.5,338.79ZM417,424.84a464,464,0,0,0-76.84,74.58c.71-16.33,5.4-32.58,13.95-48.38a364.84,364.84,0,0,1,68.16-61.49l3.67-2.53A89.88,89.88,0,0,0,417,424.84Zm-136,171.4A392.43,392.43,0,0,0,260.13,657a493,493,0,0,1,22.53-80.85A117.44,117.44,0,0,0,280.9,596.24Zm.22,7.15a126.47,126.47,0,0,0,10.64,43q2.28,5.22,5,10.36A441.66,441.66,0,0,0,269.72,756.9c-9.61-19.23-14.53-39-14.57-58.91A385.47,385.47,0,0,1,281.12,603.39Zm17.53,56.79c10.57,18.75,25.61,36.59,44.69,53.21q-2.19,6.45-4.22,12.93A522.6,522.6,0,0,0,319,818.49q-4.61-4.07-8.92-8.21c-16.19-15.62-28.88-32-38-48.78A437.72,437.72,0,0,1,298.65,660.18Zm20.1,266.66q1.85,14.49,4.73,28.55a345,345,0,0,0,17.86,59.53c-17.87-16.19-31.75-33.35-41.41-51.26a356.62,356.62,0,0,1-26.63-89.39C284.35,892.65,299.61,910.28,318.75,926.84Zm-40.73-16a491.72,491.72,0,0,1-16.33-59.94,156.52,156.52,0,0,0,7.49,16.1A365.83,365.83,0,0,0,278,910.85Zm66,110.4a306.14,306.14,0,0,0,35,61.55c-1.91-2-3.78-4.07-5.57-6.13h0a495.36,495.36,0,0,1-62.52-90.43A223.27,223.27,0,0,0,344,1021.25Zm64.25,91.09a339.62,339.62,0,0,0,49.93,30.19A210.64,210.64,0,0,0,491,1176.07a495.77,495.77,0,0,1-66.82-48.73l0,0Q415.91,1120.15,408.22,1112.34ZM583.72,1219q1.85,1.23,3.72,2.38-10.11-3.5-20.1-7.42Q575.4,1216.62,583.72,1219Zm11,3a566.6,566.6,0,0,0,68.81,13.47,43.86,43.86,0,0,0,7.89,6.83,492.36,492.36,0,0,1-59.36-13.18l0-.14A92.84,92.84,0,0,1,594.75,1222.07Zm73.49,14.08a651.83,651.83,0,0,0,80.26,5.08v7.26a502.35,502.35,0,0,1-64.51-4.31v-.07C678.43,1243.37,673.17,1240.67,668.24,1236.15Zm83.26,5.08a654.62,654.62,0,0,0,80.31-5.08c-5,4.55-10.23,7.22-15.81,8v.07a502.47,502.47,0,0,1-64.51,4.31Zm85.08-5.71A563.54,563.54,0,0,0,905.46,1222a93.9,93.9,0,0,1-17.59,7l0,.14a492.15,492.15,0,0,1-59.23,13.16A43.24,43.24,0,0,0,836.58,1235.52Zm80-16.61q8.14-2.34,16-4.93-9.79,3.86-19.73,7.29C914.17,1220.51,915.4,1219.73,916.63,1218.91Zm125.58-76.56a339.76,339.76,0,0,0,49.75-30.13q-7.79,7.83-16.18,15.1l0,0a496.75,496.75,0,0,1-66.1,48.29A207.64,207.64,0,0,0,1042.21,1142.35Zm84.35-65.68c-1.55,1.78-3.16,3.54-4.8,5.29a302.6,302.6,0,0,0,34.55-60.94,223.51,223.51,0,0,0,32.78-34.77,495.36,495.36,0,0,1-62.52,90.43Zm73.8-113.56c-9.62,18-23.51,35.29-41.44,51.58q2.17-5.41,4.17-11a359.89,359.89,0,0,0,18.27-77c19.24-16.66,34.54-34.4,45.59-52.9A353.72,353.72,0,0,1,1200.36,963.11Zm30.71-96.56a156.8,156.8,0,0,0,7.24-15.64,493,493,0,0,1-15.65,58A362,362,0,0,0,1231.07,866.55Zm-41.16-56.27q-4.29,4.14-8.89,8.18a525.06,525.06,0,0,0-24.28-105.15c19-16.6,34.08-34.43,44.63-53.17A437.94,437.94,0,0,1,1228,761.32C1218.88,778.19,1206.16,794.61,1189.91,810.28Zm13.33-153.57q2.71-5.13,5-10.33a126.47,126.47,0,0,0,10.64-43,385.47,385.47,0,0,1,26,94.6c0,19.84-4.93,39.56-14.49,58.74A442.79,442.79,0,0,0,1203.24,656.71Zm-76.67-233.39h0a166.07,166.07,0,0,1,11,14.11,375.29,375.29,0,0,0-66.1-55.66,133.18,133.18,0,0,0-21.6-29,281.71,281.71,0,0,1,25.94,19.86l0,0q13.74,11.89,26.69,24.85Q1115,410,1126.57,423.32ZM397.51,397.51q12.94-13,26.69-24.85l0,0a286.21,286.21,0,0,1,26.15-20.08,133.53,133.53,0,0,0-21.67,28.93q-4.14,2.73-8.19,5.56a370.74,370.74,0,0,0-57.39,49.39q4.69-6.64,10.32-13.15h0Q385,410,397.51,397.51ZM253.23,714.18A140.4,140.4,0,0,0,269,762.07c-.37,2.79-.71,5.59-1,8.38a390.59,390.59,0,0,0,.05,87.61,136.21,136.21,0,0,1-11.7-38.75l-.08,0A503.5,503.5,0,0,1,251.5,750Q251.5,732,253.23,714.18Zm990.51,105.15-.08,0a135.45,135.45,0,0,1-11.47,38.24q1.85-16.27,2.27-32.94a399,399,0,0,0-3.38-62.71,140.27,140.27,0,0,0,15.69-47.72Q1248.5,732,1248.5,750A503.5,503.5,0,0,1,1243.74,819.33Z"/></svg>