<svg id="Abstract_Shape" data-name="Abstract Shape" xmlns="http://www.w3.org/2000/svg" viewBox="0 0 1500 1500"><path d="M1198.82,963.65a123.62,123.62,0,0,0,2.94-31.32h0v0a117,117,0,0,0-5.47-31.55,118.25,118.25,0,0,0-14.75-30.25h0l0,0a134.45,134.45,0,0,0-24.91-27.4,120.92,120.92,0,0,1-9.73-9.15c-1.65-2.78-3.19-5.64-4.58-8.56-.79-2-1.63-4-2.52-6-.14-1.19-.25-2.39-.34-3.59,1.75-7.32,4.06-14.67,6.45-22.28.76-2.44,1.54-4.9,2.3-7.39.74-1.89,1.86-4.68,3.17-8.53a192.73,192.73,0,0,0,14-42.9c11.09-19,16.34-38.46,16-59.45A109,109,0,0,0,1196,626.47a186.61,186.61,0,0,0,4.44-44.63s0,0,0,0c6.56-41.71-9.64-84.89-40.94-113.66a120.63,120.63,0,0,0-55.74-29.27c-22.63-4.91-46.11-3.06-69.79,5.53A121.56,121.56,0,0,1,872.7,351.33c-.63-3.59-1.41-7.17-2.29-10.62v0h0c-6.71-26.18-20.73-48.51-40.55-64.61h0l-.05,0a124.32,124.32,0,0,0-57-25.57,132.46,132.46,0,0,0-62.13,4,120.29,120.29,0,0,0-53.21,33.64l0,0,0,0c-15.54,17.12-25.66,38.36-30.05,63.13h0a125.08,125.08,0,0,1-4,16.13,128.56,128.56,0,0,0-7.87,18.74,121.06,121.06,0,0,0-16.95,21.61A115.65,115.65,0,0,0,576.31,425a113.94,113.94,0,0,0-25.49,11l-.73.16a87,87,0,0,0-25.82,2.31h-1.15a1.27,1.27,0,0,0-.39-.06c-1.29,0-2.36-.07-3.61-.07-1.46,0-2.75-.05-4.17-.06l-2.11,0c-12.73-3.74-31.31-6.4-51,.14-13.33-4.41-29.6-6.73-46.51-2a116.78,116.78,0,0,0-35.83,7.49,1,1,0,0,0-.22.09,123.59,123.59,0,0,0-50.41,36.39,1.49,1.49,0,0,0-.23.27,133.35,133.35,0,0,0-17,26.16,131.31,131.31,0,0,0-10.47,29.56h0a123.62,123.62,0,0,0-2.94,31.32,117.12,117.12,0,0,0,5.47,31.57h0a118.17,118.17,0,0,0,14.77,30.28,134.45,134.45,0,0,0,24.91,27.4h0a125,125,0,0,1,9.68,9.09q2.58,4.35,4.72,8.85c.79,2,1.63,4,2.5,5.92.13,1.17.24,2.34.32,3.5-1.73,7.25-4.06,14.66-6.52,22.49-.74,2.36-1.49,4.74-2.21,7.08l-.4,1.1c-1,2.44-1.88,4.88-2.77,7.43a192,192,0,0,0-14,42.72c-11.11,19-16.36,38.46-16,59.47a108.23,108.23,0,0,0-14.63,48.82A188.23,188.23,0,0,0,299.61,918,124.24,124.24,0,0,0,306,980a.88.88,0,0,0,.05.15,132.58,132.58,0,0,0,34.51,51.7,120.63,120.63,0,0,0,55.74,29.27c22.63,4.91,46.11,3.06,69.79-5.53a120.77,120.77,0,0,1,72.15-3.38,122,122,0,0,1,59.62,36.2l0,0a121.22,121.22,0,0,1,29.42,60.23c.51,2.92,1.14,5.81,1.83,8.65a3.59,3.59,0,0,0,.52,2.18c6.74,26.12,20.76,48.41,40.56,64.47a124.32,124.32,0,0,0,57,25.57,132.78,132.78,0,0,0,62.13-4,120.4,120.4,0,0,0,53.21-33.65c15.58-17.13,25.71-38.4,30.11-63.2h0a123.78,123.78,0,0,1,4-16.15,129.83,129.83,0,0,0,7.88-18.75,121.24,121.24,0,0,0,17-21.69,115.93,115.93,0,0,0,22.21-17.2,113.35,113.35,0,0,0,25.54-11l.65-.14c1.82.12,3.65.19,5.5.19a88.09,88.09,0,0,0,20.41-2.48l1.32,0h.32c1.29,0,2.36.07,3.61.07,2,.06,3.75.06,6,0a92.5,92.5,0,0,0,26.26,4,78.36,78.36,0,0,0,24.88-4,86.32,86.32,0,0,0,27.19,4.64,71.21,71.21,0,0,0,19-2.54,116.52,116.52,0,0,0,36-7.55h0a120.17,120.17,0,0,0,27.78-15.15,127.93,127.93,0,0,0,22.88-21.47,132.65,132.65,0,0,0,17.08-26.21l0,0a131.31,131.31,0,0,0,10.47-29.56Zm-12.69,27.25c-24-3.49-41.89-17.1-53-28.32a190,190,0,0,0,12.87-29.2c9.92,11.55,26.12,25.46,49.51,31.06A128.22,128.22,0,0,1,1186.13,990.9Zm-16.7,26.05c-19.59-1.47-39.49-10.49-56.28-25.51,4-4.68,7.6-9.81,11.1-14.81l.79-1.12c2.26-3.16,4.47-6.6,6.58-10.22,11.3,11.27,29.24,24.67,53.09,28.43A129.61,129.61,0,0,1,1169.43,1017Zm-85.24,43.71a123.76,123.76,0,0,1-39.1-4.62c-3.38-.94-6.79-2-10.16-3.26-.83-.3-1.67-.58-2.51-.87a182,182,0,0,0,24.44-13.45c16.48,11.66,34.44,18,51.71,18.37A114.29,114.29,0,0,1,1084.19,1060.66Zm-96.58-2.09-1-.31a106,106,0,0,0,19.19-9.25c3,.34,6,.8,9,1.36,1.7,1.08,3.43,2.12,5.18,3.09A106.59,106.59,0,0,1,987.61,1058.57ZM726.18,1246.29a121.32,121.32,0,0,1-53.41-24.12,362.18,362.18,0,0,1,13-57.63,127.15,127.15,0,0,0,51.63,27.2A279.54,279.54,0,0,0,726.18,1246.29Zm-82-157.54a120.72,120.72,0,0,0-32.33-57,318.79,318.79,0,0,1,19.7-47.94,115.47,115.47,0,0,1,33.21,51c.9,2.9,1.83,5.72,2.82,8.5a378.26,378.26,0,0,0-22.09,50.52Q644.76,1091.31,644.14,1088.75Zm-92.91-91.06A290.49,290.49,0,0,1,571,951.79a124.32,124.32,0,0,1,58.21,29.89,322,322,0,0,0-19.77,47.65C594.07,1014.25,574,1003.36,551.23,997.69Zm-155.92,60.12a117.62,117.62,0,0,1-52.18-27.68,185,185,0,0,1,9.33-44.71c15,12.31,33.56,21,53.91,25.1A215,215,0,0,0,395.31,1057.81ZM307.65,898.56a117.67,117.67,0,0,1,17-31.46,123.13,123.13,0,0,0,8.27,21.06,282.09,282.09,0,0,0-17.55,41.34A123.49,123.49,0,0,1,307.65,898.56Zm-.59-24.74a232.28,232.28,0,0,1,12.16-38.46,169.66,169.66,0,0,0,2.36,18.56q.82,4.85,2,9.56A121.45,121.45,0,0,0,307,891.76,145.21,145.21,0,0,1,307.06,873.82Zm-2.47,24.34q-.91,2.67-1.71,5.36.36-6.06,1.13-12.11C304.14,893.68,304.34,895.93,304.59,898.16Zm16.23-270.54a115.49,115.49,0,0,1-13-25.67A104.91,104.91,0,0,1,349.42,645a122.32,122.32,0,0,0,3.16,14.61A117,117,0,0,0,320.82,627.62Zm-17-89.12c23.5,5.63,39.54,19.94,49,31.33a129.05,129.05,0,0,0-5.68,32.23,99.86,99.86,0,0,0-45.92-35.47A120.93,120.93,0,0,1,303.8,538.5Zm10.07-29.4c23.92,3.46,41.85,17,52.94,28.17a191.07,191.07,0,0,0-12.87,29.25c-13.6-15.79-30.63-26.44-49.49-30.95A128.13,128.13,0,0,1,313.87,509.1Zm16.7-26.05c19.57,1.44,39.46,10.4,56.25,25.32-3.92,4.63-7.49,9.68-10.95,14.61L375,524.3c-2.27,3.17-4.49,6.63-6.61,10.28-15.65-15.54-33.91-25.28-53.06-28.29A130.28,130.28,0,0,1,330.57,483.05ZM454.91,444c3.38.94,6.8,2,10.16,3.26l2.19.76a183.88,183.88,0,0,0-24.16,13.29c-16.43-11.5-34.31-17.75-51.5-18.13C411.24,437.88,432.75,437.76,454.91,444Zm57.66-2.68,1.09.34A105.34,105.34,0,0,0,494.2,451c-2.77-.31-5.55-.72-8.32-1.23-1.92-1.23-3.88-2.39-5.85-3.48A108.26,108.26,0,0,1,512.57,441.28ZM773.82,253.71a121.32,121.32,0,0,1,53.41,24.12,360.58,360.58,0,0,1-12.92,57.49,125.13,125.13,0,0,0-51.66-27.16A278.33,278.33,0,0,0,773.82,253.71Zm81.33,157.17a122.72,122.72,0,0,0,31.53,57.31,325.12,325.12,0,0,1-19.54,47.47c-15.57-15.07-26.46-32.33-32.35-51.31-.87-2.84-1.77-5.6-2.71-8.32a385.64,385.64,0,0,0,21.84-50.19C854.55,408.24,855.06,410.37,855.15,410.88Zm92.53,91.55a288.71,288.71,0,0,1-19.74,45.76,127.08,127.08,0,0,1-58.52-30.38,328,328,0,0,0,19.63-47.24C904.52,485.69,924.71,496.66,947.68,502.43Zm157-60.24a117.57,117.57,0,0,1,52.18,27.68,183.4,183.4,0,0,1-9.24,44.63,123.92,123.92,0,0,0-53.92-25.09A212.23,212.23,0,0,0,1104.69,442.19ZM1193,626a231.27,231.27,0,0,1-12.1,38.4,165.66,165.66,0,0,0-2.22-17.88c-.56-3.4-1.28-6.77-2.13-10.12a120.46,120.46,0,0,0,16.5-28.3A142.82,142.82,0,0,1,1193,626Zm-30.44,107.65c-1.43,2.42-2.7,4.38-3.6,5.75a126.37,126.37,0,0,0-1.46-24.85q5-7.5,9.43-15.17A275.53,275.53,0,0,1,1162.53,733.63Zm-14,42.84q-3.67,8.1-8.22,16.5c2.14-13.86,7.87-27.35,14.13-39.54a138.71,138.71,0,0,1-5.91,23Zm30.6,95.9a116,116,0,0,1,13,25.68,104.51,104.51,0,0,1-41.65-43.14,121.42,121.42,0,0,0-3.14-14.53A116.75,116.75,0,0,0,1179.18,872.37Zm-34.29,54.85c-11.17-14.44-18.62-31.88-20.61-48.33A211.36,211.36,0,0,0,1134,849.3a103.55,103.55,0,0,0,16,44.42A132.19,132.19,0,0,1,1144.89,927.22ZM1131,960.3c-12.94-13.86-22.07-31.08-25.2-47.64A204.67,204.67,0,0,0,1122,883.93c2.89,16.19,10.66,32.92,21.77,46.75A189.4,189.4,0,0,1,1131,960.3Zm-49.93-21.16c-.21-.88-.41-1.74-.57-2.65-1.94-10.19-4.33-22-6.87-34.42-2-9.89-2.68-13.6-4.46-20.62,6.44-5.57,13.35-11.34,19.34-17.07q5.13-4.75,10.18-9.82c0,.81.1,1.63.14,2.44.19,4,.15,1.83.34,5.87,0,.62.07,1.23.1,1.87,1.17,15,1,28.76,2.46,41.19.15,1.36.25,2.41.89,6.1A299.37,299.37,0,0,1,1081.05,939.14Zm-24,95.76c-16.2-11.88-29.24-28.07-34.44-42.71a248.65,248.65,0,0,0,29-20.59c5.67,17.38,18.44,33.63,32.17,45.16A137.47,137.47,0,0,1,1057,1034.9Zm-41.16,12.62c-12.1-7.79-22.77-18.21-29-28.58l-.08-.11c-.18-.24-.35-.5-.52-.76a224.25,224.25,0,0,0,33.79-24c5.48,14.64,18.3,30.58,34.16,42.47a167.62,167.62,0,0,1-26.21,14C1024,1049.31,1020,1048.32,1015.88,1047.52ZM882.1,1111.91h0a.05.05,0,0,1,0,0l-.08.18a114.62,114.62,0,0,1-12.73,11,219.83,219.83,0,0,1,18.18-24c1.14-.47,2.28-1,3.41-1.48A123,123,0,0,0,882.1,1111.91ZM686.73,1161.4a387.76,387.76,0,0,1,21.79-53.54,133.43,133.43,0,0,0,49.85,31.05,347.32,347.32,0,0,0-20.1,50A122,122,0,0,1,686.73,1161.4Zm-19.15-127.48A118.5,118.5,0,0,0,632.93,981a325.28,325.28,0,0,1,27.34-43.43c16.49,14,28.43,30.13,35.48,48.08,1,2.7,2,5.25,3.09,7.8a388.74,388.74,0,0,0-29.39,46.26Q668.47,1036.84,667.58,1033.92ZM572.49,949A312.52,312.52,0,0,1,600,907.11,133.12,133.12,0,0,1,658,935.63a327,327,0,0,0-27.34,43.3A127.5,127.5,0,0,0,572.49,949Zm-69.9,3.15a335.62,335.62,0,0,1,28.31-41.48,130.09,130.09,0,0,1,65.85-4.25,309.25,309.25,0,0,0-27.31,41.95A134.69,134.69,0,0,0,502.59,952.19ZM359.67,707.05c-.21,1.38-.46,2.79-.76,4.27-2.59,12.34-7.65,24.06-13.33,35.07a130.22,130.22,0,0,1,5.92-22.88C354,718.11,356.67,712.64,359.67,707.05Zm-4.58-134.39c10.64,13.73,18.58,31.09,20.72,48.27A195.21,195.21,0,0,0,366,650.56,103.69,103.69,0,0,0,350,606.19,132,132,0,0,1,355.09,572.66ZM369,539.54c12.95,13.75,22.13,30.93,25.35,47.51a198.57,198.57,0,0,0-16.29,28.8c-3-16.17-10.75-32.87-21.87-46.65A192.31,192.31,0,0,1,369,539.54Zm50.33,20.74c5.48,24.32,7.37,38.87,12.07,57.42-9.85,8.53-20,17.42-29.68,27.12-.24-3.83-.54-9.5-.59-10.22-1.34-17.14-.86-32.58-3.41-47l0-.18q4-5.87,8.53-11.48C410.36,570.63,414.75,565.39,419.32,560.28Zm27.87-27.23c0,.13.07.25.11.38.22.71.45,1.43.66,2.17,3.13,10.53,7.93,23.84,13,37.72q2.26,6,4.85,12.3a388,388,0,0,0-32,29.64c-3.47-14.61-10.7-52.1-11.62-55.88-.19-.8-.3-1.38-.43-1.84A284.07,284.07,0,0,1,447.19,533.05Zm37.56-80.44c11.93,7.71,22.46,17.95,28.69,28.18l.48.67a223.2,223.2,0,0,0-33.77,23.93c-5.67-14.61-18.59-30.46-34.43-42.23a171.5,171.5,0,0,1,25.89-13.78A124.56,124.56,0,0,0,484.75,452.61Zm9.51,1.4.24,0A123.25,123.25,0,0,0,533.44,452a1.28,1.28,0,0,0,.34-.07l1.79-.4a82.16,82.16,0,0,1,16.63,13.31A177.63,177.63,0,0,0,516.54,480c-.18-.26-.36-.52-.57-.8-5.52-9-14.26-18.08-24.35-25.48C492.5,453.81,493.38,453.91,494.26,454ZM617.9,388.08h0l0,0,.12-.24a113.41,113.41,0,0,1,12.66-11,222.27,222.27,0,0,1-18.18,23.89c-1.09.45-2.17.91-3.25,1.4A122,122,0,0,0,617.9,388.08Zm195.42-49.62a385.49,385.49,0,0,1-21.75,53.4,132.6,132.6,0,0,0-49.86-31,368.62,368.62,0,0,0,20-49.86A121.93,121.93,0,0,1,813.32,338.46ZM926.46,550.92a314.43,314.43,0,0,1-27.25,41.65,134.92,134.92,0,0,1-58.11-28.89A341.79,341.79,0,0,0,868,520.57,130,130,0,0,0,926.46,550.92Zm220.13-33.38a273.31,273.31,0,0,1-20.66,44.88,125.68,125.68,0,0,0-54.6-24.07,303.8,303.8,0,0,0,21.36-46.09C1113.12,496.35,1131.71,505.06,1146.59,517.54Zm-10.15,320.52c.6-3.2,1.12-6.41,1.58-9.64l.18.23a105.52,105.52,0,0,0,9.47,27.19,221.52,221.52,0,0,1,2.45,32.3C1141,872.52,1136.15,854.93,1136.44,838.06ZM1123.77,872s0-.06,0-.09c-.21-8.54,1-17.52,2.22-27,.83-6.31,1.69-12.83,2.17-19.52.4-2.72.74-5.25,1-7.73.17-.25.33-.51.49-.76q2.35,3.69,5,7.25c-.38,2.24-.69,4.48-.92,6.74V831c-.2,2.11-.29,4.26-.31,6.75A208.64,208.64,0,0,1,1123.77,872ZM1101,847.83c-1.73-17-4.67-37.05-12.16-58.67q11.88-9.45,22.87-20a125.27,125.27,0,0,0,3,13.89v0a123.89,123.89,0,0,0,12.08,29c-.15,1.5-.32,3-.5,4.5A218.61,218.61,0,0,1,1101,847.83Zm-32.74,30.39c-4.45-16.68-11.43-36.71-20.74-59.55q12.26-8.32,24.3-16.85c4.93-3.41,9.77-7,14.52-10.7,7.5,22,10.26,42.36,11.93,59.52-8.74,8.9-18,17.28-27.26,25.21Zm-46.78,111.11c-4.6-10.87-13.48-27-24.58-46.88,12.74-9,24.58-18.06,35.26-26.85,1.56,3.83,3,7.62,4.44,11.38,11.12,30.73,11.8,34.31,13.62,40.22.29.92.36,1.16.4,1.3A244.14,244.14,0,0,1,1021.52,989.33Zm-36.86,26.24c-7.22-10.12-17.68-24.16-29.52-41a321.34,321.34,0,0,0,39.44-30.19c11.13,19.93,20,36.07,24.42,46.71A221.4,221.4,0,0,1,984.66,1015.57Zm-147.38,87.2a141,141,0,0,1-45.95-11.91,326.66,326.66,0,0,1,31.77-36.68,177,177,0,0,0,41.28,18.65A216.46,216.46,0,0,0,837.28,1102.77Zm-100.66-53.13c-5-5.69-10.27-11.58-14.43-18.27-11.21-17.79-16.72-29.71-19.93-37.47a402.18,402.18,0,0,1,36-41.91c5,10.66,11.13,22.21,18.66,35.26,4,7,8.93,13.25,13.7,19.32l2.38,3a405.49,405.49,0,0,0-34.43,42.21Zm-37.21-62.91c-7.23-18.9-18.85-36-37.33-51.56A360.61,360.61,0,0,1,696.68,896a133.78,133.78,0,0,1,40.22,53.08A403.82,403.82,0,0,0,701,990.63C700.36,989.13,699.86,987.84,699.41,986.73ZM602.1,904.5a360.37,360.37,0,0,1,34.22-37.12,144.2,144.2,0,0,1,58,26.76,364.43,364.43,0,0,0-34.52,39.09A136.14,136.14,0,0,0,602.1,904.5ZM364.2,844.22a391.21,391.21,0,0,1,32.68-37.62A153,153,0,0,0,438.38,850a402.84,402.84,0,0,0-34.22,37.91C386.8,874.94,373.37,860.25,364.2,844.22Zm-5.91-11.47a123.86,123.86,0,0,0,25.41-44.36q.76-2.39,1.43-4.8A141,141,0,0,0,395.26,804a395,395,0,0,0-32.64,37.4Q360.25,837,358.29,832.75Zm-13.74-78c6.49-11.88,12.67-24.6,16.19-38.15a198.78,198.78,0,0,0,4.87,30.07c-.59,2.82-1.32,5.33-2,7.42-.5,1.59-1,3.18-1.63,4.76q-9,11-16.88,22.56A121,121,0,0,1,344.55,754.72Zm31.8-126.81a2.45,2.45,0,0,0,0,.27c.34,14.14-3.19,29.55-4.38,46.07q-.57,3.88-1,7.7l-.68,1.1q-2.31-3.62-4.89-7.08c.38-2.23.69-4.47.91-6.72q.34-3.74.37-7.52A198.39,198.39,0,0,1,376.35,627.91ZM515.84,483.8c8.4,11.61,18.52,25.06,29.5,40.59a313.87,313.87,0,0,0-39.6,30.46c-11-19.51-20-35.74-24.48-46.47A220.44,220.44,0,0,1,515.84,483.8Zm38.54-21a80.18,80.18,0,0,0-14.83-12.23,125.42,125.42,0,0,0,24.88-9.6c11.24,2.1,20.66,5.71,27.68,10.68h0a173.94,173.94,0,0,1-26.32,9.55c-2.89.74-6.31,1.58-10.22,2.67C555.19,463.48,554.85,463.15,554.38,462.76ZM662.81,397a139,139,0,0,1,46,11.83A326.7,326.7,0,0,1,677,445.43a184,184,0,0,0-41.24-18.53A215.51,215.51,0,0,0,662.81,397Zm127.35-2.3a402.06,402.06,0,0,1-28.87,48.24c-12.8-14.35-28.91-26.21-47.92-35.29a309.15,309.15,0,0,0,27-44A129.54,129.54,0,0,1,790.16,394.69Zm-27,54.83c5.31,6,10.79,12.18,15.15,19.26a247.18,247.18,0,0,1,19.29,36.81,387.16,387.16,0,0,1-35.68,41.84c-5.51-11.73-11.78-23.4-18.17-34.55-4.17-7.29-9.31-13.83-14.28-20.16l-2.26-2.88a400.11,400.11,0,0,0,34.4-42.08Zm134,145.66a338.84,338.84,0,0,1-33.63,37,143.72,143.72,0,0,1-57.87-26.88,380.63,380.63,0,0,0,33.65-39.17A138.1,138.1,0,0,0,897.16,595.18Zm257.18,118.64q-5.37,8-11.3,15.81a136.68,136.68,0,0,1,11-18.22C1154.12,712.21,1154.23,713,1154.34,713.82Zm-18.67,25.12c-1.28,1.55-2.57,3.1-3.88,4.63a198.44,198.44,0,0,0-12.44-31.6A120.55,120.55,0,0,1,1143.27,670a112.38,112.38,0,0,1,6.62,20.21c1.43,6,2.54,11.4,3.46,17A134.54,134.54,0,0,0,1135.67,738.94Zm-47.74,47.15c-2.26-7.54-4.44-14.75-7.08-22.4l-.57-1.67-.1-.29a145.64,145.64,0,0,0-15.26-31.47,334.34,334.34,0,0,0,37.79-32.59,136.49,136.49,0,0,1,11,23.13,125.35,125.35,0,0,0-2.48,44.67C1103.78,772.73,1096,779.63,1087.93,786.09Zm-41.44,29.73c-2.43-6.83-5.2-14.21-8.39-22.64A160.47,160.47,0,0,0,1021,759.83q11.14-7.22,22-14.42c1.22-.81,2.38-1.54,3.62-2.37,5.27-3.45,10.56-7.11,15.81-10.95a148.3,148.3,0,0,1,15.6,32.62c3,8.71,5.43,16.95,7.37,23.39C1079.4,792.78,1065.16,803.2,1046.49,815.82Zm-51,124-1.66-3c-10.94-19.55-23.31-41.67-35.07-64.72,14.63-7.48,29-15.58,43.2-24.12,10.72,23.8,20.86,44.87,29.07,64.7C1019.32,922.36,1007.23,931.47,995.47,939.82ZM887,1006a256.74,256.74,0,0,0-22.49,12.45c-13.18-11.57-29.86-27.28-44.47-47.49,17.48-13.36,30.26-20.62,44.22-28.74a537.52,537.52,0,0,0,42.31,55.08C899,1000.56,892.61,1003.15,887,1006Zm21.62-6.38A393.6,393.6,0,0,0,942,1033.37c-3.21.87-6,1.56-8.4,2.17a177.76,177.76,0,0,0-28.81,10.69,232.48,232.48,0,0,1-37.93-25.75C883.93,1010,895.76,1005.19,908.58,999.6ZM777,1009.8a366.92,366.92,0,0,1,40.72-37c11.28,15.28,22.58,28.33,44.15,47.34a263.2,263.2,0,0,0-39.12,30.3A180.52,180.52,0,0,1,777,1009.8Zm-4-5.08c-4.7-6-9.56-12.18-13.46-19-6.7-11.62-13.27-23.76-19-36.06a334.19,334.19,0,0,1,41.56-36.09c5.48,10.25,12.49,22.71,18.18,33.07,4.23,7.61,7.1,11.75,13.33,20.43l2.32,3.22a370,370,0,0,0-40.81,37.09Zm-35.68-62.08a137.19,137.19,0,0,0-38.45-48.75A299.87,299.87,0,0,1,739,861a140.35,140.35,0,0,1,40.18,47.08c.47.91,1,1.87,1.48,2.83a323.87,323.87,0,0,0-41.47,35.87C738.53,945.41,737.9,944,737.29,942.64ZM639,864.89a294.36,294.36,0,0,1,39.6-31.09,149.3,149.3,0,0,1,57.84,25.32A302,302,0,0,0,696.47,892,147.33,147.33,0,0,0,639,864.89ZM386.42,778.54a125.41,125.41,0,0,0,2.3-44.41c7.53-7.36,15.41-14.35,23.55-20.9,2.27,7.64,4.57,15.19,7.31,23A152,152,0,0,0,435.3,769a337,337,0,0,0-37.86,32.72A136.18,136.18,0,0,1,386.42,778.54ZM382,783.8a197.18,197.18,0,0,1-11.44-30.36q2.24-2.58,4.53-5.1v0c1.75,7.62,3.41,14.82,5.75,22.52q1.13,3.93,2.51,7.81Q382.68,781.27,382,783.8Zm-5.31-41.61a146.75,146.75,0,0,1-4.3-38.87c3.2,5.13,6.6,10,10.12,14.68a121.25,121.25,0,0,1,3.08,15.07Q381,737.54,376.64,742.19Zm-4.11-44.35c.08-1.5.17-3,.28-4.41A120.92,120.92,0,0,1,379.64,709Q375.89,703.53,372.53,697.84Zm-2.69-4.7c-.36-.65-.73-1.31-1.08-2,.48-.8.95-1.59,1.45-2.39C370.07,690.24,370,691.7,369.84,693.14Zm-2.71-5.07c-1-2-2-4-2.93-6,.14-.68.29-1.36.42-2,1.35,1.91,2.64,3.86,3.87,5.83C368,686.61,367.58,687.34,367.13,688.07Zm2.38,10.58c0,.71-.07,1.43-.1,2.14-.23-1.2-.47-2.39-.74-3.58Zm-.82,48a110.09,110.09,0,0,0,2.45-16.25,146.05,146.05,0,0,0,3.07,14.43q-2.35,2.57-4.65,5.17C369.26,748.85,369,747.73,368.69,746.61Zm15,23.45c-2.32-7.63-4-14.77-5.7-22.34l-.48-2.07q4.17-4.5,8.5-8.84a122.27,122.27,0,0,1-1.46,36.1C384.25,772,384,771,383.68,770.06Zm70.08-86.68c2.54,7.1,5.37,14.56,8.7,23.27a159.26,159.26,0,0,0,16.74,32.7c-8,5.2-16.5,10.79-25.58,16.85q-8,5.25-15.92,11.06c-10.7-16.71-15.39-30.75-22.91-56C425.24,703,444.18,689.91,453.76,683.38ZM595.91,453.19l0,.09a217.35,217.35,0,0,1,37.69,25.42c-16.95,10.34-28.7,15.05-41.39,20.55A373.19,373.19,0,0,0,559,466c4.64-1.2,10.53-2.63,16.18-4.54A157.36,157.36,0,0,0,595.91,453.19Zm40,27.56c13.22,11.53,29.91,27.24,44.26,47.62A334.3,334.3,0,0,1,647,550.63c-2.85,1.7-6.55,3.79-11,6.36a454.89,454.89,0,0,0-41.77-55.43A281.67,281.67,0,0,0,636,480.75Zm41.46-31.55a176.75,176.75,0,0,1,45.8,40.46,367,367,0,0,1-40.63,36.87c-14.27-20.24-30.76-35.87-44-47.43A253.06,253.06,0,0,0,677.41,449.2Zm49.66,45.37c4.9,6.25,10,12.7,14,19.8,6.53,11.39,12.92,23.29,18.53,35.33a365.42,365.42,0,0,1-41.82,35.95c-2.19-4.16-6.56-12.21-18.41-33.66a193.11,193.11,0,0,0-11.15-17.26c-1.31-1.88-2.64-3.81-4-5.74A367.28,367.28,0,0,0,725.08,492Zm35.78,62.25a137.29,137.29,0,0,0,38.28,48.69,316.65,316.65,0,0,1-40.23,32.71,142.35,142.35,0,0,1-39.39-45.31c-1.09-2.1-1.61-3.18-2.36-4.67a377.57,377.57,0,0,0,41.77-35.72C761.57,554,762.22,555.38,762.85,556.82Zm98,77.82a307,307,0,0,1-39.57,30.89,151.24,151.24,0,0,1-57.84-25.43,320.25,320.25,0,0,0,40-32.71A146.8,146.8,0,0,0,860.87,634.64Zm73-3.15A143.39,143.39,0,0,1,997,626.7a344.89,344.89,0,0,1-39.79,31.74,148.79,148.79,0,0,0-58.79,1.45,342,342,0,0,0,35.11-28.16Zm23.48,238c-4.22-8.34-8.15-16.39-11.67-23.94a163.05,163.05,0,0,0-17.87-29.92c14.93-8,30-16.63,45-25.61a155.33,155.33,0,0,1,17.94,32.53q5,11.76,9.9,22.67C986.57,853.68,971.86,862,957.38,869.45Zm-45.45,37.8c-4.6-8-8.9-15.64-13-23.88a284.5,284.5,0,0,0-18.39-31.69q22.23-15.6,44.79-34.42A159.75,159.75,0,0,1,943,846.77c3.82,8.17,7.81,16.32,11.89,24.37A522,522,0,0,1,911.93,907.25Zm-46.67,30.89c-16.74-25.83-10.2-18.39-32.53-56.18,15-8.5,30.13-18,45.38-28.57A283.5,283.5,0,0,1,897,886.22c3.9,7.8,8.28,15.56,12.49,22.85A445.08,445.08,0,0,1,865.26,938.14Zm-47,30.36c-6.42-9-10.12-13.77-15.38-23.27-6.64-12.09-12.4-22.23-18.35-33.4,16-11.47,31.08-20.15,45.6-28.38,6.28,10.61,12.62,21.63,18.28,32.41,3.86,7.35,8.68,15.42,14.18,23.84C848.61,947.81,835.83,955.07,818.25,968.5ZM780.94,905a145.59,145.59,0,0,0-39.36-45.78c14.12-9.44,28.2-17.21,43.78-26a152,152,0,0,1,40.9,43.71c.78,1.3,1.56,2.62,2.34,3.94-15.87,9.27-30.47,17.64-45.5,28.28C782.38,907.8,781.67,906.43,780.94,905ZM620.31,831.48c4.1-2.49,8.23-4.88,12.38-7.13,7.67-4.39,15.85-9.18,24.32-14.26l.8-.48A140.44,140.44,0,0,1,719.94,806c-17.21,9.81-29.36,16.36-42,24.6A140.34,140.34,0,0,0,620.31,831.48Zm14.63-270.43c4.5,7.62,9.36,15.28,13.56,23.2,5.91,11.31,11.86,21.73,18.59,33.19-12.79,7.34-26.87,15.66-45.13,28.29a281.05,281.05,0,0,1-17.71-30.6c-3.43-7-7-13.34-11-20.68-.83-1.5-1.66-3-2.49-4.46A441.34,441.34,0,0,1,634.94,561.05Zm47-30.22c1.28,1.88,2.59,3.77,3.87,5.61,9.27,13.3,9,13.51,17.59,29,7.55,13.7,10.41,19,12,22-17,12.28-30.57,19.88-45.66,28.51-6.08-10.33-12.27-21.11-17.84-31.74-4.71-9-9.42-16.35-14.33-24.66C651.53,551.45,664.29,544.26,681.92,530.83Zm36.94,63.48A145.31,145.31,0,0,0,758.29,640c-13.66,9.13-27.83,16.9-43.81,25.9a150.51,150.51,0,0,1-41-43.45l-2.3-3.91c7.32-4.15,14.14-8,21.39-12.5q12.39-7.56,24.07-16C717.27,591.18,717.82,592.3,718.86,594.31Zm98.87,73.53c-11.16,7.07-25.39,15-42.31,24.64a158.83,158.83,0,0,1-58.21-24.67c15.86-8.93,30-16.71,43.62-25.91A154.27,154.27,0,0,0,817.73,667.84Zm63,0q-6.63,4.07-13.44,7.78c-7.8,4.46-15.7,9.11-23.69,13.88-.17.09-.33.19-.49.29a141,141,0,0,1-63.15,3.5c16.82-9.58,30.87-17.41,41.93-24.61A141,141,0,0,0,880.75,667.87Zm10.38-3a145.58,145.58,0,0,1,62.42-4q-7.23,4.82-14.62,9.21c-9,5.33-18.18,10.94-27.57,16.72a149.77,149.77,0,0,0-57.62.18q7.57-4.47,15-8.74,11.1-6,21.88-13.12ZM926,813.17a187.06,187.06,0,0,0-46-42.06c15-8.48,30.18-17.49,45.28-26.69a180,180,0,0,1,45.77,43.12C955.31,797,940.17,805.6,926,813.17Zm-47.11,36a175.27,175.27,0,0,0-44.8-45.45c14.69-9.7,28.82-19.83,43.1-30.89a183.94,183.94,0,0,1,46.33,42C907,828.74,892.28,839.87,878.9,849.21Zm-50.08,26.17a155,155,0,0,0-40.6-43.77c13-7.37,27.11-15.56,43.19-26.07a173.16,173.16,0,0,1,42.48,41.67q1.32,1.88,2.56,3.7c-16.82,11.61-31.54,20.43-45.26,28.46Zm-254-117.16c18.46,11.89,37.47,20,56.59,24.27l-8.37,5.21c-12.2,7.6-23.73,14.77-35.1,21.78a166.82,166.82,0,0,1-57.35-23.69C548.82,774.32,566.87,763.11,574.84,758.22Zm46.31-108.28c.83,1.23,1.67,2.47,2.52,3.68a171.73,171.73,0,0,0,42.23,41.6c-13,8.57-27.21,18.62-43,30.83A184.52,184.52,0,0,1,576.74,684C581.67,679.83,599.7,665,621.15,649.94ZM671,624a153.45,153.45,0,0,0,40.63,43.53c-12.9,7.31-27,15.51-43,25.92a169.42,169.42,0,0,1-42.49-41.55c-.83-1.2-1.67-2.43-2.5-3.67,19.28-13.35,33-21.35,45-28.2ZM831.43,801.94C812.88,789.75,793.13,781.18,774,777c15.11-9.54,29.1-18.87,42.62-28.42a172.41,172.41,0,0,1,57.84,22.58C869.05,775.42,852.1,788.32,831.43,801.94ZM702.07,778.77c-19.56,5.26-40.59,6-62.57,2.23,14.34-8.91,29.49-18.28,44.38-27.31a150.63,150.63,0,0,0,58-.25c-13.17,8.44-26.33,16.85-39.38,25.09Zm47.32-30.16a146.71,146.71,0,0,1-62,2.66c15.14-10.63,29.34-20,42.56-28.25,20.87,4,40.64,4.1,58.91.39C775.76,731.71,762.57,740.16,749.39,748.61Zm-66.14,1.91a172.38,172.38,0,0,1-57.62-22.77c15.76-12.16,30-22.17,43-30.69,18.83,12.62,38.92,21,57.16,25.09C712.47,730.52,698.28,739.9,683.25,750.52Zm67.56.75h0l.91-.58a146.16,146.16,0,0,1,60.79-2.8c-6.35,4.46-22.15,15.37-42.74,28.3-20.43-3.79-39.79-3.84-57.69-.19C724.94,767.84,737.87,759.55,750.81,751.27Zm8.45-5.42c13.24-8.48,26.46-16.93,39.57-25.19a142.11,142.11,0,0,1,61.67-2.34c-14.75,9.13-29.65,18.27-44.47,27.12A150.64,150.64,0,0,0,759.26,745.85Zm47.36-30.09c13-8.14,25.85-16.06,38.5-23.63a145.06,145.06,0,0,1,62.4-3C893.43,697.86,879,706.89,864.29,716A147.47,147.47,0,0,0,806.62,715.76Zm-9.41,2.37-.51.32c-19.26,5.36-40.42,6.09-63,2.2,15.49-9.62,29.57-17.81,42.19-25a145.46,145.46,0,0,0,58.36-.48C822.08,702.56,809.69,710.27,797.21,718.13Zm-67.81,1.72c-18.47-3.67-38.94-11.94-58.08-24.58,15.94-10.35,30-18.51,43-25.81a162.46,162.46,0,0,0,57.22,25.26C758.85,702,744.76,710.24,729.4,719.85ZM623,729.63a176.09,176.09,0,0,0,56.57,23.2c-15,9.09-30.14,18.49-44.41,27.36-19.1-3.79-38.89-12-57.43-23.71C594.29,746.33,609.14,737.53,623,729.63Zm1.68,60.62,11.06-6.89c20.43,3.9,40.1,4,58.6.3-12.75,8-25.38,15.79-37.8,23.24a2.06,2.06,0,0,0-.26.12l-.62.4a144.47,144.47,0,0,1-63.28,2.88C602.81,803.84,613.44,797.22,624.64,790.25Zm78.84-8.82h0l.18-.12.58-.37c18.89-5.27,39.63-6.06,61.72-2.39-17.08,10.65-30.6,18.62-41.94,25.13a144.65,144.65,0,0,0-57.39.6C678.77,796.91,691.08,789.25,703.48,781.43Zm66.89-2.09c19.3,3.73,39.41,12.15,58.31,24.39-16,10.45-30.14,18.6-43.15,26a159.08,159.08,0,0,0-57.07-25.11C739.86,798,753.41,790,770.37,779.34Zm106.78-10.05a176.66,176.66,0,0,0-56.72-23c14.74-8.83,29.61-18,44.43-27.15a173.58,173.58,0,0,1,57.63,23.47C907.35,751.82,892.16,760.82,877.15,769.29Zm-8.61-52.42c14.59-9,29.12-18.09,43.39-26.88a166,166,0,0,1,57.55,23.45c-14.5,9.14-29.28,18.38-44.14,27.44A178.48,178.48,0,0,0,868.54,716.87Zm47.11-29.16q10.62-6.53,21-12.8,10.92-6.33,21.16-13.3a157.11,157.11,0,0,1,57,22.73c-10.13,7.06-18.1,11.89-22,14.33l-20.56,13A169.08,169.08,0,0,0,915.65,687.71Zm-325-91.81c3.43,6.22,7,12.64,10.17,19a287.59,287.59,0,0,0,18.71,32.56c-15,10.46-29.93,21.93-44.54,34.14a159.41,159.41,0,0,1-17.2-28.83c-3.93-8.38-8.06-16.75-12.28-25a520.67,520.67,0,0,1,42.85-35.93C589.09,593.16,589.85,594.53,590.61,595.9ZM620.1,727.81c-13.8,7.91-28.63,16.72-45.21,26.87a179.08,179.08,0,0,1-45.71-43.24c18.36-11.08,32.79-19.16,45.1-25.76A187.21,187.21,0,0,0,620.1,727.81Zm-48,28.6c-14.92,9.15-29.55,18.33-44.17,27.58a170.56,170.56,0,0,1-44.56-43.77c16.54-10.73,30.79-19.66,43.25-27.22A182.19,182.19,0,0,0,572.07,756.41Zm-46.94,29.34-20.52,13-5.12,3.2q-8.57,5.35-16.91,11.26a160,160,0,0,1-43.23-43.46c5.21-3.83,10.56-7.55,15.93-11.07,9.1-6.08,17.6-11.68,25.59-16.87A172.66,172.66,0,0,0,525.13,785.75Zm2.69,1.8a170.9,170.9,0,0,0,56.45,24.2c-8.16,5-14.92,9.14-21,12.83h0c-1.23.71-2.53,1.47-3.74,2.19q-9,5.33-17.57,11.2a158.34,158.34,0,0,1-56.65-23C493.4,809.41,510.45,798.5,527.82,787.55ZM561,829.36c1.18-.71,2.45-1.44,3.68-2.16l.07,0c6.8-4.1,14.37-8.72,23.77-14.51a148.7,148.7,0,0,0,58.48-.1c-5.45,3.21-10.74,6.29-15.78,9.18-7.06,3.84-14.14,8.07-21,12.57l-.09,0-.61.41a144.64,144.64,0,0,1-63.32,4Q553.46,833.86,561,829.36Zm163.52-22.52a155.67,155.67,0,0,1,58.12,24.48c-15.48,8.74-29.5,16.52-43.62,26a151.92,151.92,0,0,0-56.9-25.85C694.58,823.54,707,816.9,724.53,806.84ZM928.12,742.7c14.92-9.11,29.72-18.37,44.11-27.45a170.7,170.7,0,0,1,44.64,43.66C1001.1,769,985,779.17,973.71,786A182.69,182.69,0,0,0,928.12,742.7ZM975,713.51c17.53-11.07,14.5-9.23,25.64-16.18q8.49-5.31,16.83-11.24a158.83,158.83,0,0,1,43.32,43.49c-8.73,6.34-24.71,16.94-41.48,27.75A172.82,172.82,0,0,0,975,713.51Zm45-29.26a386.12,386.12,0,0,0,39.26-32.7,150,150,0,0,1,41.77,43.5,329.48,329.48,0,0,1-37.81,32.69A162.53,162.53,0,0,0,1020.05,684.25Zm-2.61-1.75a160.67,160.67,0,0,0-56.12-23.28,340.66,340.66,0,0,0,39.4-31.91,148.24,148.24,0,0,1,56.12,22.55A334.54,334.54,0,0,1,1017.44,682.5Zm-14-57.73a374.19,374.19,0,0,0,35-38A132.59,132.59,0,0,1,1093.48,610a397.8,397.8,0,0,1-34.43,37.76A151.61,151.61,0,0,0,1003.43,624.77ZM889.22,662.51a137,137,0,0,1-63.71,3.81,309.76,309.76,0,0,0,38.94-30.91,137.81,137.81,0,0,0,62.36-1.68A337.59,337.59,0,0,1,889.22,662.51Zm-255.85-104a475.12,475.12,0,0,0-44.12,28.86c-13.4-23.55-27.11-44.28-39.66-62.15a310,310,0,0,1,41.71-22.4A452.23,452.23,0,0,1,633.37,558.5Zm-46.54,30.66A514.48,514.48,0,0,0,544.06,625c-12.44-24.21-25.57-47.44-36.81-67.42a303.25,303.25,0,0,1,39.81-30.7C559.66,544.77,573.33,565.42,586.83,589.16ZM543,629.44C547.34,638,551.4,646.29,555,654a161.63,161.63,0,0,0,17.42,29.23c-12.67,6.8-27.13,14.94-45,25.75-12.07-17-15.16-26.69-27.81-55.24C513.8,645.17,528.27,637,543,629.44ZM507.09,678.3l.91,2.09a156.74,156.74,0,0,0,16.84,30.18c-12.55,7.62-26.77,16.55-43.19,27.19a148.49,148.49,0,0,1-15.91-30.93c-.38-1-5.77-15-9.42-25.19,13.28-9,26.87-17.84,40.73-26.31Q502,666.37,507.09,678.3ZM437,771.55a161.58,161.58,0,0,0,42.93,43.59,367.2,367.2,0,0,0-39.3,32.76A149.91,149.91,0,0,1,399,804.4,332.36,332.36,0,0,1,437,771.55Zm45.59,45.39a160.37,160.37,0,0,0,56,23.36,360.06,360.06,0,0,0-39.39,32,148.2,148.2,0,0,1-56-22.62A343.35,343.35,0,0,1,482.54,816.94Zm60.13,24.15a149.83,149.83,0,0,0,59.47-1.36,342.46,342.46,0,0,0-35.6,28.46,144.47,144.47,0,0,1-63.66,4.68A355.51,355.51,0,0,1,542.67,841.09Zm68.27-3.71.79-.5A135.73,135.73,0,0,1,674.35,833a296.05,296.05,0,0,0-39,31.1A137.51,137.51,0,0,0,573.52,866,336.29,336.29,0,0,1,610.94,837.38ZM866.89,940.65a445.75,445.75,0,0,0,44.13-29c13.27,22.94,27.27,44,39.87,62.05A301,301,0,0,1,909.4,996,507.32,507.32,0,0,1,866.89,940.65Zm46.55-30.78a526,526,0,0,0,42.85-36c11.74,23,24.09,45.06,34.9,64.39l1.89,3.38a317.2,317.2,0,0,1-39.67,30.41C940.77,954,926.7,932.83,913.44,909.87Zm89.73-66.21c-2.8-6.51-3.64-8.31-10.51-24.36a156.56,156.56,0,0,0-17.19-30.91c14.55-8.78,29-17.86,43.12-27a150.27,150.27,0,0,1,16.78,33c3,7.89,5.8,15.37,8.55,23.11C1031.74,825.74,1017.83,834.75,1003.17,843.66Zm112.42-117.31c.39,1.23.77,2.45,1.12,3.69,2.37,7.89,4,15.21,6,23.77-2.84,3.05-5.74,6.06-8.7,9A122.37,122.37,0,0,1,1115.59,726.35Zm2.47-10.18a195.55,195.55,0,0,1,11.4,30.08q-2.14,2.46-4.34,4.87a3.59,3.59,0,0,0-.08-.35c-1.66-7.3-3.23-14.18-5.45-21.56-.81-2.89-1.73-5.73-2.74-8.55C1117.22,719.16,1117.63,717.66,1118.06,716.17Zm5.46,41.11a145.76,145.76,0,0,1,4.25,39.57c-3.19-5.11-6.61-10.1-10.23-14.85a121.2,121.2,0,0,1-3.13-15.43C1117.5,763.53,1120.55,760.44,1123.52,757.28Zm7.17,42.32c.21,1.08.43,2.17.68,3.25-.25-.44-.51-.87-.77-1.31C1130.63,800.88,1130.66,800.24,1130.69,799.6Zm.55,9.16c-.44.72-.87,1.43-1.32,2.14.13-1.33.24-2.63.33-3.91C1130.58,807.58,1130.92,808.17,1131.24,808.76Zm-3.68-6.48c-.08,1.48-.18,3-.29,4.44a120.75,120.75,0,0,1-6.93-15.74C1122.85,794.61,1125.26,798.39,1127.56,802.28Zm5.29,9.58c1,2,2.05,4.06,3,6.12-.15.69-.29,1.37-.43,2q-2.07-2.94-4-6C1131.94,813.33,1132.4,812.6,1132.85,811.86Zm2.77-4.52.56-.94c0,1,0,1.93,0,2.89C1136,808.64,1135.81,808,1135.62,807.34Zm-1-4.1a108,108,0,0,1-1.58-42.62,195.78,195.78,0,0,1,4,35c-.18,1.41-.32,2.82-.44,4.23Q1135.56,801.56,1134.57,803.24Zm-5.63-34.41c-.91-5.45-2-10.07-3-14.19,1.51-1.63,3-3.27,4.46-4.93q.48,1.81.93,3.63A109,109,0,0,0,1128.94,768.83Zm3.84-21.84c.1-.1.19-.21.29-.32-.07.22-.13.44-.19.67C1132.85,747.22,1132.82,747.11,1132.78,747Zm-16.46-35.43,0,.08c-.44,1.39-.86,2.79-1.26,4.19a138.5,138.5,0,0,0-10.15-20.36A399.3,399.3,0,0,0,1137.39,658q2.47,4.54,4.52,9A123.33,123.33,0,0,0,1116.32,711.56Zm-13.06-18.72a152.93,152.93,0,0,0-41.75-43.41,402.9,402.9,0,0,0,34.42-37.67c17.33,12.92,30.73,27.5,39.86,43.39A395.18,395.18,0,0,1,1103.26,692.84Zm-7.91-85.23a136.15,136.15,0,0,0-54.82-23.48,365.75,365.75,0,0,0,29.22-43A123.57,123.57,0,0,1,1124.42,565,366.83,366.83,0,0,1,1095.35,607.61ZM999.76,624.1a145.64,145.64,0,0,0-61.26,3,355.32,355.32,0,0,0,32.37-35.19h0a141.7,141.7,0,0,1,64.1-5.61A371.17,371.17,0,0,1,999.76,624.1Zm-67.88,5a134.06,134.06,0,0,1-64.74,3.71,342.71,342.71,0,0,0,33.28-37,136.81,136.81,0,0,0,65.12-2.23A352.67,352.67,0,0,1,931.88,629.15ZM803.29,603.39a134.2,134.2,0,0,1-37.71-47.8q-1.16-2.67-2.39-5.34a387.54,387.54,0,0,0,35.7-41.4c.88,2.22,1.62,4.17,2.27,5.85,7.05,18.07,19.13,34.69,35.88,49.43A378.44,378.44,0,0,1,803.29,603.39ZM759.53,445.45a400.36,400.36,0,0,1-34.25,42A179.79,179.79,0,0,0,679.62,447a330.34,330.34,0,0,0,31.94-36.94C730.66,419.15,746.79,431,759.53,445.45Zm-84.79,2.12A253,253,0,0,1,636.24,477a217.27,217.27,0,0,0-37.15-25.42,190.83,190.83,0,0,0,34-22.37A180.35,180.35,0,0,1,674.74,447.57ZM595.52,450l-1.63-.86-.12-.06c-6.59-4.65-15.14-8.15-25.2-10.39a125.51,125.51,0,0,0,19.37-13.42c25.54-4.64,40.32,2.59,41.58,3A179.44,179.44,0,0,1,595.52,450Zm-40,16.94h0a361,361,0,0,1,33.78,33.55,281.54,281.54,0,0,0-41.41,22.24c-11.14-15.78-21.29-29.26-29.38-40.43A177.45,177.45,0,0,1,555.48,467Zm-13.87,159.8C527,634.29,512.55,642.43,498.38,651c-1.91-4.29-4-9-6.42-14.16-9.82-21.33-16.64-36.09-22.55-50.34,11.62-9.62,23.68-18.72,35.47-27.11C516.65,580.4,530.32,604.78,541.61,626.77Zm-45.8,25.81c-13.75,8.39-27.28,17.17-40.58,26.18-9.57-24.19-16.3-43.87-20.54-60.06A378.21,378.21,0,0,1,467,588.53C475,607.67,485,628.61,495.81,652.58Zm-43.12,27.91q-12.29,8.37-24.31,16.92-7.41,5.15-14.56,10.75C406.43,686,403.67,665.77,402,648.73c12.3-12.56,23.83-22.29,27.39-25.35l2.84-2.44C436.14,635.74,442,653.44,452.69,680.49Zm-41.37,29.67q-12,9.57-23.13,20.31a124.08,124.08,0,0,0-14.91-42.42c.17-1.72.36-3.4.55-5a226.25,226.25,0,0,1,25.48-31.5C401,669.61,404.31,689.51,411.32,710.16ZM364.4,692.58l-.53.92c0-.93,0-1.85,0-2.78C364.06,691.34,364.23,692,364.4,692.58Zm1.07,4.13a109,109,0,0,1,1.58,42.6,197.25,197.25,0,0,1-4-35.06q.27-2.09.45-4.17C364.16,699,364.81,697.83,365.47,696.71Zm-19.69,89.06q5.58-8.35,11.76-16.44a135.94,135.94,0,0,1-11.38,19.11C346,787.56,345.9,786.67,345.78,785.77Zm18.88-25.43q1.74-2.12,3.51-4.2A202.13,202.13,0,0,0,380.65,788a120.61,120.61,0,0,1-23.71,41.7,111.49,111.49,0,0,1-6.54-19.79c-1.48-6.06-2.63-11.62-3.58-17.3A133.23,133.23,0,0,0,364.66,760.34Zm76.28,91.44a151.47,151.47,0,0,0,55.52,23,378.9,378.9,0,0,0-34.89,38.11,133.07,133.07,0,0,1-55-23.23A405,405,0,0,1,440.94,851.78Zm59.15,23.69a146.82,146.82,0,0,0,61.67-2.83,354.84,354.84,0,0,0-32.47,35.29A143.09,143.09,0,0,1,465,913.47,374.66,374.66,0,0,1,500.09,875.47Zm68.14-4.76.29-.19a133.82,133.82,0,0,1,64.2-3.85,361.12,361.12,0,0,0-33.9,37.13,133.34,133.34,0,0,0-64.5,2.7A352.88,352.88,0,0,1,568.23,870.71ZM774.87,1012a184.73,184.73,0,0,0,45.61,40.54,325.91,325.91,0,0,0-32,37,148.42,148.42,0,0,1-47.9-35.43A401.85,401.85,0,0,1,774.87,1012Zm50.49,40a258.11,258.11,0,0,1,38.84-29.88,242.36,242.36,0,0,0,37.24,25.73,186.06,186.06,0,0,0-34.4,22.6A175.58,175.58,0,0,1,825.36,1052Zm79.27-2.39c.6.33,1.21.68,1.81,1,1.67.91,8.88,6.81,25.25,10.5a125.4,125.4,0,0,0-19.41,13.38c-15.39,2.78-30,1.76-41.23-2.94l-.46-.12A182.81,182.81,0,0,1,904.63,1049.64Zm3.62-1.42L908,1048c16.46-7.61,29.43-10.3,36.63-12.28.44.4.9.84,1.37,1.23a78.44,78.44,0,0,0,14.88,12.37,125.8,125.8,0,0,0-25,9.57C924.61,1056.81,915.21,1053.19,908.25,1048.22Zm37.19-15.82a388.79,388.79,0,0,1-34-34.06,286.74,286.74,0,0,0,41.16-22.15c11.71,16.68,22.1,30.62,29.41,40.86A175.63,175.63,0,0,1,945.44,1032.4Zm88-121.72c-7-16.61-15.63-35.33-24.8-55.12-1.4-3-2.81-6.06-4.2-9.08,13.74-8.34,27.27-17.09,40.6-26.09,7.4,18.19,15.52,40,20.78,60.1A380.52,380.52,0,0,1,1033.42,910.68Zm101-157.32c.55-2.33,1.14-4.67,1.85-7,.61-2,1.29-4,2-5.92q8.85-10.79,16.66-22.23a120.45,120.45,0,0,1,.6,26.81c-6.51,11.91-12.71,24.68-16.26,38.34A198.19,198.19,0,0,0,1134.44,753.36ZM1156.83,710c-.11-.68-.21-1.36-.32-2q3-4,6.36-8l.38-.45.12-.14C1161.28,703,1159.09,706.51,1156.83,710Zm10.39-19.54c-1.69,2.07-3.57,4.22-5.92,6.75l-.32.37-.41.48c-1.61,1.91-3.2,3.86-4.74,5.85-.83-4.67-1.81-9.33-3-14.35a116.67,116.67,0,0,0-7.34-22,123.23,123.23,0,0,1,11.13-10.65c2.13-1.79,4.21-3.65,6.21-5.54A146.53,146.53,0,0,1,1167.22,690.48Zm-4.64-43c-2.5,2.45-5.16,4.86-7.9,7.16a130.35,130.35,0,0,0-10.57,10q-2.14-4.56-4.74-9.22a332.1,332.1,0,0,0,26.11-40.57,119.52,119.52,0,0,1,7.76,20.85A129.66,129.66,0,0,1,1162.58,647.47Zm-24.84,5.07c-9.3-15.79-22.72-30.28-39.93-43.13a362.47,362.47,0,0,0,29-42.46,141.43,141.43,0,0,1,37,44.57A327.11,327.11,0,0,1,1137.74,652.54Zm-100.57-69a144.32,144.32,0,0,0-63.06,4.23,337.6,337.6,0,0,0,27.27-40.85c22-7.31,43.94-9.42,65.2-6.31A362.06,362.06,0,0,1,1037.17,583.54ZM969,589.48a133.06,133.06,0,0,1-66.48,3.76,315.85,315.85,0,0,0,27-41.64,135.67,135.67,0,0,0,67.55-3.2A336.5,336.5,0,0,1,969,589.48ZM838.82,561.71c-16.28-14.38-28-30.55-34.86-48.09-1-2.6-2-5.1-3-7.61a391,391,0,0,0,29.19-46.37c4.23,13,10.62,35,35.54,58.82A337,337,0,0,1,838.82,561.71Zm-39.19-59c-3.82-9.07-8.7-18.94-18.31-34.74-4.79-7.68-8.63-12.2-16-20.47l-2-2.29a406.21,406.21,0,0,0,29-48.3c6.37,6.52,12.45,13.11,17.47,20.89a179.48,179.48,0,0,1,19,37.88A390.3,390.3,0,0,1,799.63,502.74Zm-89-96.39a142.49,142.49,0,0,0-45.7-12.2,247.86,247.86,0,0,0,22.55-37.66,132.54,132.54,0,0,1,50,6.14A304.85,304.85,0,0,1,710.6,406.35Zm-49.19-12.5-1.19-.12-.78-.06c-12.36-1.91-26.73-.2-41,4.8a298.85,298.85,0,0,0,19-26.25c14.58-9.26,31-14.76,46.18-15.48l.39,0A243.46,243.46,0,0,1,661.41,393.85Zm-54.53,12.78c-1.28,1.24-2.56,2.44-3.86,3.59.77-.91,1.52-1.82,2.26-2.75C605.81,407.19,606.34,406.9,606.88,406.63Zm7.42-3.39c15.8-6.52,31.66-8.62,44.78-6.59h.2a211,211,0,0,1-26.92,29.27l-2-.53c-10.11-4.15-23.14-5.63-37.22-3.93A105.68,105.68,0,0,0,614.3,403.24Zm-40.77,29,.88-1,1.75-.78C575.29,431.08,574.41,431.66,573.53,432.23Zm-7.78,4.62-1.77.95c-1.67-.3-3.38-.56-5.11-.79,3-.9,6.13-1.95,9.3-3.17C567.35,434.83,566.54,435.83,565.75,436.85Zm-6.39,3.25a122.62,122.62,0,0,1-20.16,7.42,116.15,116.15,0,0,1,12-8.29Q555.41,439.54,559.36,440.1Zm-60,11.35a101.77,101.77,0,0,1,19-8.25,96.66,96.66,0,0,1,13.42,6.09A120.41,120.41,0,0,1,499.34,451.45Zm-20.66,58.72c2.61,7,12.51,24.8,24.73,46.6-11.67,8.29-23.63,17.3-35.19,26.84C462.17,568.76,457,554,450.16,532.53c-.17-.54-.33-1.07-.48-1.58A247.52,247.52,0,0,1,478.68,510.17ZM399,647.59a231.52,231.52,0,0,0-24.25,28.82c.08-.59.17-1.18.25-1.78,0,0,.21-4.54,2.16-19.3,1.72-12.92,3-22.89,1.79-33.73a195.24,195.24,0,0,1,16.32-30.51C397.3,605.4,397,625,399,647.59Zm-35.35,14.18c-.62,3.26-1.15,6.54-1.61,9.82,0-.05-.09-.1-.13-.16a106.19,106.19,0,0,0-9.55-27.32,221.13,221.13,0,0,1-2.46-32.34C359,627.34,363.84,644.9,363.61,661.77ZM343.29,789.56l.36,2.32c-2,2.74-4.21,5.46-6.51,8.17l-.42.45-.45.49Q339.68,795.17,343.29,789.56Zm-10.58,20.09c1.63-2,3.48-4.15,5.67-6.52l.54-.59.48-.52c1.72-2,3.36-4.06,5-6.1.86,4.79,1.87,9.57,3.13,14.71a115.42,115.42,0,0,0,7.25,21.56,121.53,121.53,0,0,1-11.34,10.88c-2.21,1.85-4.32,3.75-6.36,5.69A146.4,146.4,0,0,1,332.71,809.65Zm4.71,42.88c2.5-2.45,5.16-4.86,7.9-7.16a127.15,127.15,0,0,0,10.77-10.23q2.06,4.36,4.53,8.84a318.59,318.59,0,0,0-26,40.89,119.6,119.6,0,0,1-7.71-20.72A130,130,0,0,1,337.42,852.53Zm24.83-5.7c9.34,15.93,22.79,30.53,40.05,43.44a372.88,372.88,0,0,0-29,42.61c-15.7-12.73-28.48-28.14-37.05-44.71A294.73,294.73,0,0,1,362.25,846.83Zm11.93,90.57a125.74,125.74,0,0,0,54.57,24.09,307.78,307.78,0,0,0-21.36,46.18c-20.43-4.1-39-12.82-53.89-25.28A278.91,278.91,0,0,1,374.18,937.4Zm1.5-2.63a367,367,0,0,1,29-42.72,136.45,136.45,0,0,0,54.74,23.54,366.91,366.91,0,0,0-29.15,43.14A122.71,122.71,0,0,1,375.68,934.77Zm87.12-18.59A144.65,144.65,0,0,0,526.05,912,337.69,337.69,0,0,0,498.68,953c-22.64,7.47-44.75,9.25-65.18,6.26A364.29,364.29,0,0,1,462.8,916.18Zm237.39,80.51c3.85,9.08,8.73,18.84,19,35.53,4.64,7.37,8.38,11.73,15.19,19.41l2.41,2.72a408.11,408.11,0,0,0-29.06,48.43c-6.52-6.69-12.33-13-17.19-20.41a178.56,178.56,0,0,1-19.73-38.79A385.93,385.93,0,0,1,700.19,996.69ZM709.94,1105a402.8,402.8,0,0,1,28.89-48.37c12.78,14.35,28.87,26.23,47.88,35.36a329.14,329.14,0,0,0-27,44.17A130.1,130.1,0,0,1,709.94,1105Zm79.56-11.7a142.84,142.84,0,0,0,45.67,12.28,246.8,246.8,0,0,0-22.54,37.75,129.59,129.59,0,0,1-50-6.18A322,322,0,0,1,789.5,1093.33Zm49.17,12.58,1.5.15a80.83,80.83,0,0,0,11.05.83,93.51,93.51,0,0,0,30.34-5.46,292,292,0,0,0-19,26.28,97.25,97.25,0,0,1-46.54,15.47A243.65,243.65,0,0,1,838.67,1105.91ZM893,1093.36q2.16-2.11,4.36-4c-.87,1-1.73,2.07-2.57,3.13Zm-7.34,3.32c-15.33,6.22-31,8.53-44.36,6.47l-.52,0a210.88,210.88,0,0,1,27-29.31l2.22.6a67.84,67.84,0,0,0,25.8,4.66,91.69,91.69,0,0,0,11.09-.69A105.76,105.76,0,0,0,885.67,1096.68Zm40.75-28.87-.72.8-1.44.62C925,1068.75,925.7,1068.28,926.42,1067.81Zm7.81-4.64,2.06-1.1c1.6.29,3.27.55,5,.79-3.16.93-6.28,2-9.39,3.19Q933.09,1064.64,934.23,1063.17Zm26.55-10.68a113.85,113.85,0,0,1-11.84,8.16q-4.12-.33-8-.87A121.88,121.88,0,0,1,960.78,1052.49Zm44.86-6.52a123.52,123.52,0,0,0-39.11,2,1.36,1.36,0,0,0-.29.06l-1.34.31a77.88,77.88,0,0,1-16.78-13.5l-.13-.11a182.49,182.49,0,0,0,35.7-15.21c.23.33.45.66.68,1,5.5,9.16,14.33,18.35,24.56,25.84C1007.83,1046.23,1006.74,1046.09,1005.64,1046Zm-5,2.58a101.33,101.33,0,0,1-18.67,8.12,99.43,99.43,0,0,1-13.21-6.05A120.24,120.24,0,0,1,1000.64,1048.55Zm52.52-82.15c-.23-.73-.46-1.48-.68-2.25-3-10.38-11-33.52-17.85-50.56a391.91,391.91,0,0,0,32-29.66c.89,3.61,1.69,7.17,2.36,10.62,3.59,17.64,6.32,31,8.51,42.49.3,1.68.72,3.25,1.07,4.81A282.36,282.36,0,0,1,1053.16,966.4Zm51.53-60.82c-.83-7-1.13-14.39-1.45-22.25-.24-6-.49-12.29-1-18.8-.11-1.73-.16-3.61-.33-5.41-.15-2.5-.21-5-.49-7.38a239.81,239.81,0,0,0,24-28.54c-.08.59-.16,1.18-.25,1.78,0,0-.2,4.56-2.16,19.51-1.27,9.63-2.46,18.72-2.25,27.5,0,2.1.21,4.28.45,6.46A200.47,200.47,0,0,1,1105,908.38C1104.86,907.14,1104.78,906.44,1104.69,905.58Zm46.92-42.69a107.84,107.84,0,0,0,42,39.34,113.78,113.78,0,0,1,5,27.91,97.19,97.19,0,0,1-45.59-37.27A209,209,0,0,0,1151.61,862.89Zm18.61-176.23A145.29,145.29,0,0,0,1165.3,649q4.76-4.71,8.86-9.67c.59,2.53,1.11,5.09,1.53,7.68a166.89,166.89,0,0,1,2.51,23.65q-3.3,7.46-7.13,14.85Zm5.31-53.94a123,123,0,0,0-8.31-21.14,264.41,264.41,0,0,0,17.54-41.12,123.48,123.48,0,0,1,7.63,30.82A116.57,116.57,0,0,1,1175.53,632.72Zm-10-24.41a144.19,144.19,0,0,0-37.17-44,279.73,279.73,0,0,0,20.67-44.7,132.06,132.06,0,0,1,34,46.47A256.56,256.56,0,0,1,1165.52,608.31Zm-97.34-70.49c-20.36-3.16-42.31-1.66-64.69,5.29a298.66,298.66,0,0,0,20.09-45c22.62-7.79,45.43-10,66.12-6.4A301.8,301.8,0,0,1,1068.18,537.82Zm-68.9,6.72A132.67,132.67,0,0,1,931,548.83a290.3,290.3,0,0,0,19.62-45.7c22.41,5.09,46.28,3.79,69.33-3.76A297.39,297.39,0,0,1,999.28,544.54Zm-168.6-92.39a177.47,177.47,0,0,0-18.32-35.95C807,407.89,800.54,401,793.8,394.11a388.85,388.85,0,0,0,22-53.42,123.36,123.36,0,0,1,17.67,20.19,143.33,143.33,0,0,1,19.08,39.91A382.7,382.7,0,0,1,830.68,452.15Zm-91.84-92.23a136.34,136.34,0,0,0-49.92-6.55,253.82,253.82,0,0,0,15.85-44.05,126,126,0,0,1,54.08,1A365.53,365.53,0,0,1,738.84,359.92Zm-53.34-6.31-1.06.06-1,.07c-14,.67-28.9,5.22-42.58,12.93a122.3,122.3,0,0,0,12.61-32.81,107.91,107.91,0,0,1,47.28-23.71l.74-.16A251.84,251.84,0,0,1,685.5,353.61ZM635.27,370a116.86,116.86,0,0,0-13.67,10.32,122.5,122.5,0,0,0,4.46-11.76,116.06,116.06,0,0,1,23.4-31.14A111.47,111.47,0,0,1,635.27,370Zm-104.81,71.3A104,104,0,0,0,544,440.26c-3.23,2.2-6.41,4.61-9.51,7.21a103.78,103.78,0,0,0-11.5-5.63l1.54-.38C526.63,441.48,528.45,441.44,530.46,441.34Zm-59,4.87q-2.68-.84-5.37-1.81c-2.08-.76-4.19-1.46-6.29-2.12l2.07-.75a106.5,106.5,0,0,1,10.59,4.28Zm-91.07.56c19.42-2.69,40.54,3,59.77,16.13a144,144,0,0,0-26.35,18.18c-17.73-14-37.57-21.81-56.51-22.32A116.09,116.09,0,0,1,380.39,446.77Zm62.55,18.06c14.27,10.36,28.67,26.13,34.73,42.44a250.21,250.21,0,0,0-29.06,20.67c-5-15.36-17.2-32.25-32.43-44.93A138.82,138.82,0,0,1,442.94,464.83ZM446.13,530a287.58,287.58,0,0,0-25.45,24.3c-4.38-15.75-15.27-32.73-29.68-46.19A257.35,257.35,0,0,1,413.89,485C429.56,497.9,441.42,514.46,446.13,530Zm-27.86,26.93a279.43,279.43,0,0,0-21.58,26.72c-3.84-16.51-13.23-33.36-26.17-46.86,2.2-3.83,4.51-7.45,6.87-10.76l.94-1.33c3.39-4.84,6.89-9.82,10.7-14.32C403.57,524,414.41,541.22,418.27,556.93ZM346.92,607a211.63,211.63,0,0,0,1.46,30,108.18,108.18,0,0,0-42-39.31,113.7,113.7,0,0,1-5-27.91A97.15,97.15,0,0,1,346.92,607ZM360,700.16c-.55,1-1.11,2-1.65,3q.86-2.73,1.66-5.41C360,698.52,360,699.34,360,700.16Zm-18.43,53.7-1.48,2.69-.39.57-.3.45q1.32-5.3,3.05-10.75C342.12,749.17,341.82,751.51,341.6,753.86Zm-4.07,12.33c1.14-1.93,2.37-3.87,3.65-5.8a125.53,125.53,0,0,0,1.47,24.68q-5.06,7.63-9.59,15.47A276.19,276.19,0,0,1,337.53,766.19Zm-7.83,47.28a145.61,145.61,0,0,0,4.85,37.69c-3.05,3-5.89,6.16-8.55,9.37-.56-2.37-1.06-4.74-1.46-7.13a167.6,167.6,0,0,1-2.66-24.29q3.19-7.25,6.81-14.27C329,814.38,329.35,813.92,329.7,813.47Zm4.88,78a145.8,145.8,0,0,0,37.21,44.09,282.32,282.32,0,0,0-20.73,44.77,132.14,132.14,0,0,1-34-46.48A275.93,275.93,0,0,1,334.58,891.43ZM431.9,962c20.29,3.16,42.21,1.7,64.67-5.24a297.57,297.57,0,0,0-20.15,45.06c-22.62,7.77-45.39,10-66,6.38A308,308,0,0,1,431.9,962Zm68.49-6A132,132,0,0,1,568,951.17,288.5,288.5,0,0,0,548.29,997c-22-5-45.54-3.64-68.35,3.91A296.16,296.16,0,0,1,500.39,956.06Zm168.54,91.08A181.47,181.47,0,0,0,688,1084c5.18,7.92,11.35,14.51,18.27,21.58a391.16,391.16,0,0,0-22,53.58,124.42,124.42,0,0,1-17.45-19.62,143.07,143.07,0,0,1-20-40.7A376.73,376.73,0,0,1,668.93,1047.14Zm92.34,92.76a133.13,133.13,0,0,0,49.87,6.58,256.62,256.62,0,0,0-15.85,44.14,125.85,125.85,0,0,1-54.11-1A341.6,341.6,0,0,1,761.27,1139.9Zm53.29,6.35a99,99,0,0,0,44.61-13,122.68,122.68,0,0,0-12.64,32.86,107.7,107.7,0,0,1-48,23.84A253.77,253.77,0,0,1,814.56,1146.25Zm50.2-16.37a116.54,116.54,0,0,0,13.66-10.29,122.11,122.11,0,0,0-4.47,11.79,115.68,115.68,0,0,1-23.41,31.13A111.94,111.94,0,0,1,864.76,1129.88Zm105.09-71.35a106.37,106.37,0,0,0-13.75,1.09,117.7,117.7,0,0,0,9.6-7.29,103,103,0,0,0,11.59,5.71l-1.71.42C973.57,1058.43,971.81,1058.45,969.85,1058.53Zm58.34-4.83q2.88.88,5.72,1.9c2.08.76,4.18,1.46,6.28,2.11-.62.24-1.24.46-1.86.68a105.72,105.72,0,0,1-10.82-4.43Zm91.48-.48c-19.47,2.68-40.63-3.14-59.87-16.38a142.06,142.06,0,0,0,26.35-18.15c17.72,14.12,37.58,22,56.55,22.54A116.8,116.8,0,0,1,1119.67,1053.22Zm-33.57-38.44c-15.41-12.82-27.54-30-32-45.24a283.81,283.81,0,0,0,25.41-24.26c5,17.83,16.28,34,29.48,46.41A253,253,0,0,1,1086.1,1014.78Zm-4.21-72.09q7.56-8.36,14.41-17.17c2.47-3.07,4.84-6.24,7.14-9.47,4.08,17.67,13.8,34.15,26,47a126.62,126.62,0,0,1-6.86,10.72l-.79,1.14c-3.44,4.9-7,10-10.85,14.52C1096.4,975.72,1085.63,958.41,1081.89,942.69Zm65.26-12.63a129.34,129.34,0,0,0,5.69-32.2,99.8,99.8,0,0,0,45.94,35.55,121,121,0,0,1-2.58,28.1C1172.67,955.86,1156.64,941.49,1147.15,930.06Zm25.88-66a113.61,113.61,0,0,1-18.41-18.74l.06.06A135.8,135.8,0,0,1,1173,864.05Zm-33-61.68v-2.55c.58-1,1.16-2.06,1.73-3.1Q1140.86,799.57,1140,802.37Zm18.49-56.48,1.46-2.64.68-1q-1.31,5.31-3,10.75C1158,750.61,1158.28,748.25,1158.5,745.89Zm8.49-20.51a248,248,0,0,0,3.16-31.76c1.2-2.17,2.35-4.36,3.49-6.55,1.65-2.24,3.22-4.5,4.68-6.8A106.9,106.9,0,0,1,1167,725.38Zm29-117.18q-.19-3.3-.57-6.52v0c.6-1.74,1.15-3.5,1.66-5.26Q1196.78,602.31,1196,608.2Zm-1.53-13.54a126.91,126.91,0,0,0-8.33-28.71,184.17,184.17,0,0,0,7.47-37.7A118.71,118.71,0,0,1,1194.5,594.66Zm-3.42-74.09a169.52,169.52,0,0,1-6.8,41.12,135.35,135.35,0,0,0-34.2-45.13,189.61,189.61,0,0,0,9.59-44.08A129.51,129.51,0,0,1,1191.08,520.57Zm-89.35-79a208.83,208.83,0,0,1-11,47.3c-20.66-3.68-43.37-1.71-65.94,5.72a253.65,253.65,0,0,0,11-47.63C1058.17,439,1080.34,437.16,1101.73,441.54ZM1032.6,448a252.14,252.14,0,0,1-11.39,47.78c-22.81,7.88-47.45,9.45-69.67,4.48a295.2,295.2,0,0,0,11.08-49.2A123.63,123.63,0,0,0,1032.6,448Zm-72.9,2.3a292.06,292.06,0,0,1-11.09,49.26c-23.07-5.75-43.26-16.86-58.52-32.19A345.69,345.69,0,0,0,902,415.84,125,125,0,0,0,959.7,450.31ZM899.42,413a343.87,343.87,0,0,1-11.71,51.88,119.63,119.63,0,0,1-29.63-54.65c-.17-.94-1.38-5.85-2.43-9.42a372.81,372.81,0,0,0,13.49-52.09c.21,1,.43,2.06.61,3.1A124.24,124.24,0,0,0,899.42,413Zm-32-71.9A367.42,367.42,0,0,1,854.1,396a145.56,145.56,0,0,0-18.21-36.8,127.48,127.48,0,0,0-19.13-21.63,363.9,363.9,0,0,0,13.17-57.46C848.12,295.56,861.06,316.6,867.42,341.13Zm-96.57-87.94a275,275,0,0,1-11.11,54.24,128.86,128.86,0,0,0-54.17-1.32,249.82,249.82,0,0,0,6.95-49.06A129.63,129.63,0,0,1,770.85,253.19ZM709.46,258a246.75,246.75,0,0,1-7.13,48.73l-1.25.25-1,.2a110.07,110.07,0,0,0-45.58,21.89c2.52-11.89,4-24.48,5.41-39.31A117.34,117.34,0,0,1,709.46,258Zm-79.21,93.82h0c4-22.57,12.86-42.12,26.33-58.2-1.43,14.48-3.05,26.82-5.8,38.57a116.35,116.35,0,0,0-21.64,25.1Q629.75,354.61,630.25,351.85Zm-35.07,61.61c-.4.73-.8,1.46-1.19,2.2-1.77,1.78-3.59,3.51-5.46,5.17-1.13.68-2.29,1.33-3.46,2-.88.18-1.77.38-2.65.58A113.74,113.74,0,0,1,595.18,413.46ZM502,438.76a107.82,107.82,0,0,0-25.66,5.61c-3-1.48-6.23-2.95-9.76-4.31A80.37,80.37,0,0,1,502,438.76Zm-44.8,1.32c-.68.27-1.35.56-2,.85a131.91,131.91,0,0,0-22.36-4.14A81.06,81.06,0,0,1,457.23,440.08ZM353,461.76c20.93-.71,41.71,8.18,58.51,21.32a259.79,259.79,0,0,0-22.74,23c-16.66-14.79-36.32-23.89-55.82-25.85A124.46,124.46,0,0,1,353,461.76ZM327,635.93a113.37,113.37,0,0,1,18.4,18.74l0,0h0A134.88,134.88,0,0,1,327,635.93ZM333,774.48a247.1,247.1,0,0,0-3.25,31.86c-1.27,2.3-2.48,4.62-3.67,6.93-1.53,2.09-3,4.19-4.38,6.32A106.53,106.53,0,0,1,333,774.48ZM302.59,918.36a112.43,112.43,0,0,1,3-13.26A122.62,122.62,0,0,0,313.9,934a181.28,181.28,0,0,0-7.51,37.71A120,120,0,0,1,302.59,918.36Zm6.34,60.95a168,168,0,0,1,6.85-41.11A135.63,135.63,0,0,0,350,983.34a190.29,190.29,0,0,0-9.65,44.18A129.78,129.78,0,0,1,308.93,979.31Zm89.33,79.15a211.75,211.75,0,0,1,11.11-47.37c20.61,3.68,43.28,1.71,65.86-5.69a252.61,252.61,0,0,0-11,47.67C441.83,1061,419.65,1062.84,398.26,1058.46Zm69.13-6.47a251.47,251.47,0,0,1,11.31-47.51c22.88-8,46.57-9.58,68.67-4.62a296,296,0,0,0-10.94,48.84A123.6,123.6,0,0,0,467.39,1052Zm72-2.57v0a292,292,0,0,1,10.95-48.85c22.9,5.65,42.93,16.67,58.1,32a345.54,345.54,0,0,0-11.61,50.38A124.94,124.94,0,0,0,539.36,1049.42Zm60.74,37h0l-.69-.75a342.7,342.7,0,0,1,11.4-50.72,117.83,117.83,0,0,1,30.43,54.52q1.11,4.69,2.51,9.33a375.38,375.38,0,0,0-13.23,50.69c-.08-.45-.18-.89-.26-1.33A124.24,124.24,0,0,0,600.1,1086.42Zm32.4,72.15c-.11-.44-.21-.9-.32-1.35a372.1,372.1,0,0,1,13.12-53.55,145.86,145.86,0,0,0,19.1,37.62,128.41,128.41,0,0,0,18.89,21,366.59,366.59,0,0,0-13.22,57.6C651.8,1204.38,638.83,1183.23,632.5,1158.57Zm96.64,88.24a280.86,280.86,0,0,1,11.15-54.34,128.93,128.93,0,0,0,54.18,1.36,249,249,0,0,0-7,49.12A129.67,129.67,0,0,1,729.14,1246.81Zm61.4-4.84a245.63,245.63,0,0,1,7.17-48.78,109.9,109.9,0,0,0,47.74-22.31c-2.53,11.9-4,24.5-5.41,39.33A117.24,117.24,0,0,1,790.54,1242Zm79.21-93.82h0c-4,22.57-12.86,42.12-26.33,58.2,1.42-14.48,3-26.83,5.8-38.6a115.74,115.74,0,0,0,21.64-25.09C870.46,1144.48,870.08,1146.31,869.75,1148.15Zm35.09-61.64c.39-.71.78-1.43,1.16-2.16,1.92-1.93,3.9-3.78,5.93-5.57,1-.58,2-1.16,3-1.71.94-.19,1.87-.39,2.81-.61A112.9,112.9,0,0,1,904.84,1086.51Zm92.94-25.45a107.46,107.46,0,0,0,25.84-5.66c3,1.53,6.38,3,10,4.45A80.21,80.21,0,0,1,997.78,1061.06Zm45.17-1.21c.62-.25,1.23-.52,1.85-.78a131.79,131.79,0,0,0,22.12,4.11A81,81,0,0,1,1043,1059.85Zm104-21.61c-19.4.61-40.09-7-58.51-21.55a255.47,255.47,0,0,0,22.73-23c16.66,14.88,36.33,24,55.86,26A125.76,125.76,0,0,1,1147,1038.24Z"/></svg>