<svg id="Abstract_Shape" data-name="Abstract Shape" xmlns="http://www.w3.org/2000/svg" viewBox="0 0 1500 1500"><circle cx="750" cy="300" r="50"/><circle cx="750" cy="1200" r="50"/><path d="M500,317a50,50,0,1,0,68.3,18.3A50,50,0,0,0,500,317Z"/><path d="M950,1096.41a50,50,0,1,0,68.3,18.3A50,50,0,0,0,950,1096.41Z"/><path d="M385.29,481.7a50,50,0,1,0,18.3,68.3A50,50,0,0,0,385.29,481.7Z"/><path d="M1164.71,931.7A50,50,0,1,0,1183,1000,50,50,0,0,0,1164.71,931.7Z"/><circle cx="300" cy="750" r="50"/><circle cx="1200" cy="750" r="50"/><path d="M335.29,931.7a50,50,0,1,0,68.3,18.3A50,50,0,0,0,335.29,931.7Z"/><path d="M1164.71,568.3a50,50,0,1,0-68.3-18.3A50,50,0,0,0,1164.71,568.3Z"/><path d="M550,1096.41a50,50,0,1,0,18.3,68.3A50,50,0,0,0,550,1096.41Z"/><path d="M1000,317a50,50,0,1,0,18.3,68.3A50,50,0,0,0,1000,317Z"/></svg>