<svg id="Abstract_Shape" data-name="Abstract Shape" xmlns="http://www.w3.org/2000/svg" viewBox="0 0 1500 1500"><path d="M1176.14,509c-49.4-64.48-115.26-100-185.45-100-43.12,0-84.61,13.42-121.65,38.72a200.8,200.8,0,0,0-70.89,32.46c-25.11,5.22-49.06,16.24-70.9,32.58-25.29,4.46-49.32,15.6-70.86,32.76-25.56,3.43-49.75,14.75-70.89,33.06-25.9,2-50.34,13.62-70.86,33.53h-.46c-26.25,0-51,12.19-70.39,34.5a62.91,62.91,0,0,0-9-.65c-21.62,0-41.87,10.9-57,30.68-1.7,2.23-3.31,4.56-4.84,7a43.14,43.14,0,0,0-17.55-3.78c-26.21,0-48.15,24.08-53.25,56-4.33-13-14.43-22.16-26.17-22.16-15.68,0-28.43,16.31-28.43,36.35s12.75,36.35,28.43,36.35c11.74,0,21.84-9.15,26.17-22.16,5.1,31.93,27,56,53.25,56a43.14,43.14,0,0,0,17.55-3.78c1.53,2.39,3.14,4.72,4.84,7,15.16,19.78,35.41,30.68,57,30.68a62.91,62.91,0,0,0,9-.65c19.4,22.31,44.14,34.5,70.39,34.5h.46c20.52,19.91,45,31.52,70.86,33.53,21.14,18.31,45.33,29.63,70.89,33.06,21.54,17.16,45.57,28.3,70.86,32.76,21.84,16.34,45.79,27.36,70.9,32.58A200.8,200.8,0,0,0,869,1052.28c37,25.3,78.53,38.72,121.65,38.72,70.19,0,136-35.51,185.45-100,49.24-64.28,76.36-149.88,76.36-241S1225.38,573.27,1176.14,509ZM857.63,456a267.28,267.28,0,0,0-23.86,20.73c-.64,0-1.27,0-1.91,0a166.65,166.65,0,0,0-21.71,1.43A196.06,196.06,0,0,1,857.63,456ZM587.54,916.56a172.49,172.49,0,0,1-22.61-24.39q-5.38-7-10.15-14.6a106.46,106.46,0,0,0,31-25.56A251.86,251.86,0,0,0,618,913.71a99.8,99.8,0,0,1-24.39,3C591.58,916.75,589.56,916.68,587.54,916.56Zm-83.68-48.34a169.92,169.92,0,0,1-20.62-35.16,93.58,93.58,0,0,0,8.55-9.69c14.22-18.57,22.38-43,23.19-69.06.69,44.43,12.11,86.5,32.64,121.13a79.69,79.69,0,0,1-31,7.42A146.21,146.21,0,0,1,503.86,868.22Zm12.81-251.08a79.69,79.69,0,0,1,31,7.42c-20.53,34.63-32,76.7-32.64,121.13-.81-26.1-9-50.49-23.19-69.06a93.58,93.58,0,0,0-8.55-9.69,169.92,169.92,0,0,1,20.62-35.16A146.21,146.21,0,0,1,516.67,617.14ZM510.06,750c0,31.64-11.34,59.86-28.95,78a214.89,214.89,0,0,1,0-156C498.72,690.14,510.06,718.36,510.06,750Zm-48.61,0c0,29,5.48,57,15.79,81.74-9.2,8.3-19.87,14-31.38,16.23-20.21-24.31-32.9-59.23-32.9-98s12.69-73.66,32.9-98c11.51,2.24,22.18,7.93,31.38,16.23C466.93,693.05,461.45,721,461.45,750Zm58.49,0c0-45.26,11.31-88.18,32.17-123.21a103.36,103.36,0,0,1,31.71,26.84,309.23,309.23,0,0,0,0,192.74,103.36,103.36,0,0,1-31.71,26.84C531.25,838.18,519.94,795.26,519.94,750ZM593.6,583.25a99.8,99.8,0,0,1,24.39,3A251.86,251.86,0,0,0,585.78,648a106.46,106.46,0,0,0-31-25.56q4.77-7.57,10.15-14.6a172.49,172.49,0,0,1,22.61-24.39C589.56,583.32,591.58,583.25,593.6,583.25Zm-6.11,75.2c17.29,23.85,27.92,56.1,27.92,91.55s-10.63,67.7-27.92,91.55a304.88,304.88,0,0,1,0-183.1Zm2,189a1,1,0,0,1,.08-.11c19.9-26,30.86-60.54,30.86-97.32s-11-71.34-30.86-97.32a1,1,0,0,1-.08-.11,246.9,246.9,0,0,1,33.65-64.83,109.65,109.65,0,0,1,31.32,15.71c-21.18,43.36-32.53,93.8-32.53,146.55s11.35,103.19,32.53,146.55a109.65,109.65,0,0,1-31.32,15.71A246.9,246.9,0,0,1,589.47,847.43ZM795.56,522.34a353,353,0,0,0-32.45,58.51,149.48,149.48,0,0,0-31-21.71q7.5-12,16-23.16,8.05-10.53,16.76-19.86A140.85,140.85,0,0,1,795.56,522.34Zm-26.29-10.8a235.48,235.48,0,0,1,30.94-26.68,160.33,160.33,0,0,1,28.55-3.11A304.25,304.25,0,0,0,805.25,509c-2.28,3-4.5,6-6.68,9.08A146.14,146.14,0,0,0,769.27,511.54ZM680.4,750a388.33,388.33,0,0,1,13.54-102.58c17.39,29.15,26.82,64.89,26.82,102.58s-9.43,73.43-26.82,102.58A388.33,388.33,0,0,1,680.4,750Zm10,108.29q-3.33,5.13-7,9.93a139.62,139.62,0,0,1-24.83,25.29C637.93,851,626.91,801.65,626.91,750s11-101,31.61-143.51a139.62,139.62,0,0,1,24.83,25.29q3.67,4.8,7,9.93a399.42,399.42,0,0,0,0,216.58ZM725.76,750c0-40.31-10.57-78.48-30-109.11a332.68,332.68,0,0,1,33.72-77.47A144.75,144.75,0,0,1,761,585.71c-21,49.72-32.14,105.86-32.14,164.29S740.05,864.57,761,914.29a144.75,144.75,0,0,1-31.52,22.29,332.68,332.68,0,0,1-33.72-77.47C715.19,828.48,725.76,790.31,725.76,750Zm8.13,0c0-57.08,10.76-111.92,31-160.59a177.25,177.25,0,0,1,16.22,18.42c29,37.87,45,88.36,45,142.17s-16,104.3-45,142.17a177.25,177.25,0,0,1-16.22,18.42C744.65,861.92,733.89,807.08,733.89,750Zm51.19,145.21c29.68-38.74,46-90.31,46-145.21s-16.34-106.47-46-145.21A180.29,180.29,0,0,0,767,584.46,348.15,348.15,0,0,1,800.47,524c29.37,10.62,56.28,31,78.41,59.87,33.9,44.26,52.57,103.25,52.57,166.12s-18.67,121.86-52.57,166.12c-22.13,28.88-49,49.25-78.41,59.87A348.15,348.15,0,0,1,767,915.54,180.29,180.29,0,0,0,785.08,895.21Zm-40.9-362.27q-8.8,11.49-16.53,24a128.86,128.86,0,0,0-29.85-10,215.22,215.22,0,0,1,31.52-29.41,140.26,140.26,0,0,1,23.12-1.93c2,0,4.06.06,6.09.15Q751.14,523.91,744.18,532.94ZM725,561.18a336.88,336.88,0,0,0-32.81,74.31q-2.37-3.45-4.89-6.75a144.47,144.47,0,0,0-26.53-26.82,269.21,269.21,0,0,1,26.28-42q3.42-4.45,7-8.66A124,124,0,0,1,725,561.18Zm-41.91-4.29a273.58,273.58,0,0,0-26.41,42,114.77,114.77,0,0,0-30.39-15.42,197.38,197.38,0,0,1,32.12-33.19,119.09,119.09,0,0,1,29.86.08C686.54,552.51,684.81,554.67,683.11,556.89ZM656.7,901.09a273.58,273.58,0,0,0,26.41,42c1.7,2.22,3.43,4.38,5.18,6.51a119.09,119.09,0,0,1-29.86.08,197.38,197.38,0,0,1-32.12-33.19A114.77,114.77,0,0,0,656.7,901.09Zm30.37,39a269.21,269.21,0,0,1-26.28-42,144.47,144.47,0,0,0,26.53-26.82q2.52-3.3,4.89-6.75A336.88,336.88,0,0,0,725,938.82a124,124,0,0,1-31,9.91Q690.49,944.51,687.07,940.07Zm40.58,3q7.73,12.45,16.53,24,6.93,9.06,14.35,17.24c-2,.09-4,.15-6.09.15a140.26,140.26,0,0,1-23.12-1.93,215.22,215.22,0,0,1-31.52-29.41A128.86,128.86,0,0,0,727.65,943.1ZM748.15,964q-8.52-11.12-16-23.16a149.48,149.48,0,0,0,31-21.71,353,353,0,0,0,32.45,58.51,140.85,140.85,0,0,1-30.65,6.22Q756.23,974.55,748.15,964Zm50.42,17.91c2.18,3.07,4.4,6.11,6.68,9.08a304.25,304.25,0,0,0,23.51,27.24,160.33,160.33,0,0,1-28.55-3.11,235.48,235.48,0,0,1-30.94-26.68A146.14,146.14,0,0,0,798.57,981.93Zm10.65,6c-2-2.55-3.86-5.15-5.74-7.77,29.75-11.05,57-31.8,79.37-61C917.42,874,936.45,814,936.45,750s-19-124-53.6-169.16c-22.4-29.24-49.62-50-79.37-61,1.88-2.62,3.78-5.22,5.74-7.77a298,298,0,0,1,26.58-30.27c53.25,1.31,103.13,28.94,140.84,78.17,38.8,50.64,60.16,118.15,60.16,190.07s-21.36,139.43-60.16,190.07c-37.71,49.23-87.59,76.86-140.84,78.17A298,298,0,0,1,809.22,988Zm171.39-44.86C1020.07,891.6,1041.8,823,1041.8,750s-21.73-141.6-61.19-193.11c-37.52-49-86.88-77.09-139.84-79.93a254.94,254.94,0,0,1,30.34-24.59,180.63,180.63,0,0,1,40.17-4.52c61.66,0,119.59,31.3,163.12,88.13,43.69,57,67.75,133,67.75,214s-24.06,157-67.75,214c-43.53,56.83-101.46,88.13-163.12,88.13a180.63,180.63,0,0,1-40.17-4.52A254.94,254.94,0,0,1,840.77,1023C893.73,1020.2,943.09,992.08,980.61,943.11ZM788.05,487.8a247.81,247.81,0,0,0-25.12,23.14c-3.48-.25-7-.39-10.49-.39q-7.28,0-14.45.73A174.55,174.55,0,0,1,788.05,487.8Zm-69.62,31.95a227,227,0,0,0-26.36,26.12A124.52,124.52,0,0,0,673,544.4c-2.4,0-4.79.08-7.17.21A152.87,152.87,0,0,1,718.43,519.75ZM622,580.84l-.84,1.12a104.79,104.79,0,0,0-27.46-3.71c16.84-13.38,35.5-22.33,55.1-26.37A207.1,207.1,0,0,0,622,580.84Zm-42.81,3.47A179.46,179.46,0,0,0,561,604.79q-5.67,7.4-10.67,15.39a85.83,85.83,0,0,0-28.67-7.75C538.73,597,558.41,587.35,579.22,584.31ZM509.6,617.24q-5,5.4-9.71,11.5a174,174,0,0,0-20.52,34.62,70.56,70.56,0,0,0-29.74-15.65C466.06,629.8,486.87,618.58,509.6,617.24ZM434.77,651c1.75,0,3.49.09,5.22.24-.39.5-.79,1-1.17,1.49-17.26,22.54-27.79,51.53-30.28,82.83-3.63-22.22-15.41-40.58-31.11-49.63C391.25,664.52,411.83,651,434.77,651Zm-30.06,99c0,26.81-12.32,49.89-29.87,59.89-9.64-16.64-15.37-37.4-15.37-59.89s5.73-43.25,15.37-59.89C392.39,700.11,404.71,723.19,404.71,750ZM275.93,781.35c-12.92,0-23.43-14.06-23.43-31.35s10.51-31.35,23.43-31.35,23.43,14.06,23.43,31.35S288.85,781.35,275.93,781.35Zm79.42,33.85C328.13,815.2,306,786,306,750s22.14-65.2,49.36-65.2a38.46,38.46,0,0,1,14.94,3.06C360,705.7,354.47,727.29,354.47,750s5.56,44.3,15.82,62.14A38.46,38.46,0,0,1,355.35,815.2Zm79.42,33.85c-22.94,0-43.52-13.57-57.34-34.93,15.7-9,27.48-27.41,31.11-49.63,2.49,31.3,13,60.29,30.28,82.83.38.5.78,1,1.17,1.49C438.26,849,436.52,849.05,434.77,849.05Zm14.86,3.24a70.56,70.56,0,0,0,29.74-15.65,174,174,0,0,0,20.52,34.62q4.67,6.11,9.71,11.5C486.87,881.42,466.06,870.2,449.63,852.29Zm72,35.28a85.83,85.83,0,0,0,28.67-7.75q5,8,10.67,15.39a179.46,179.46,0,0,0,18.26,20.48C558.41,912.65,538.73,903,521.62,887.57Zm72.11,34.18A104.79,104.79,0,0,0,621.19,918l.84,1.12a207.1,207.1,0,0,0,26.8,29C629.23,944.08,610.57,935.13,593.73,921.75Zm72.12,33.64c2.38.13,4.77.21,7.17.21a124.52,124.52,0,0,0,19.05-1.47,227,227,0,0,0,26.36,26.12A152.87,152.87,0,0,1,665.85,955.39ZM738,988.72q7.18.72,14.45.73c3.51,0,7-.14,10.49-.39a247.81,247.81,0,0,0,25.12,23.14A174.55,174.55,0,0,1,738,988.72Zm72.16,33.14a164.92,164.92,0,0,0,21.71,1.44c.64,0,1.27,0,1.91,0A267.28,267.28,0,0,0,857.63,1044,195.72,195.72,0,0,1,810.15,1021.86Zm362-33.89c-48.43,63.22-112.88,98-181.48,98-38.09,0-74.9-10.75-108.39-31.12a186.4,186.4,0,0,0,29,2.27c63.25,0,122.59-32,167.09-90.09,44.36-57.9,68.78-135,68.78-217.06s-24.42-159.16-68.78-217.06c-44.5-58.1-103.84-90.09-167.09-90.09a186.4,186.4,0,0,0-29,2.27C915.79,424.75,952.6,414,990.69,414c68.6,0,133,34.81,181.48,98,48.58,63.42,75.33,147.93,75.33,238S1220.75,924.55,1172.17,988Z"/></svg>