<svg id="Abstract_Shape" data-name="Abstract Shape" xmlns="http://www.w3.org/2000/svg" viewBox="0 0 1500 1500"><path d="M1147.1,807.94,1038.83,827l-87.56-58.2L843,787.88l-77.51-51.53-.11-.23,84.26,39.28,99.64-33.56,99.64,46.44,99.64-33.55,90.3,42.08,22.28-55.71-112.58-37.91-99.64,46.44-99.64-33.56-99.64,46.44-88.21-29.7-.17-.19,91.56,16.13,87.55-58.21,108.27,19.07,87.56-58.2,98.12,17.28,7.1-59.58-118.56-7.48-84.23,70.65L933.7,665.65,849.48,736.3l-92.89-5.87-.21-.14L849,722.18,918.5,643.3,1028,633.7l69.52-78.89,99.24-8.7-8.56-59.39-116.45,23.46-63.08,90L905.61,621l-63.06,90L751.3,729.4l-.24-.09,87.36-31.81,46.72-94.18,103.3-37.61,46.73-94.19,93.61-34.09-23.64-55.15L998.72,435.07,961.1,538.37,866.92,585.1,829.3,688.39l-83.38,41.37h-.25l76.15-53.34,20.75-103.07,90-63.07L953.37,407.2,1035,350l-37.1-47.15-89.13,78.54L899.14,491l-78.88,69.51L810.66,670,740.82,731.5l-.24,0,59.74-71.22L793.7,555.4l70.64-84.22-6.62-104.94,64-76.32-48-36L807.94,352.9,827,461.17,768.8,548.73,787.88,657l-51.53,77.51-.23.11,39.28-84.26-33.56-99.64,46.44-99.64-33.55-99.64,42.08-90.3L741.1,238.86,703.19,351.44l46.44,99.64-33.56,99.64,46.44,99.64-29.7,88.21-.19.17,16.13-91.56-58.21-87.55,19.07-108.27-58.2-87.56,17.28-98.12-59.58-7.1-7.48,118.56,70.65,84.23L665.65,566.3l70.65,84.22-5.87,92.89-.14.21L722.18,651,643.3,581.5,633.7,472l-78.89-69.52-8.7-99.24-59.39,8.56,23.46,116.45,90,63.08L621,594.39l90,63.06L729.4,748.7l-.09.24L697.5,661.58l-94.18-46.72-37.61-103.3-94.19-46.73-34.09-93.61-55.15,23.64,52.79,106.42,103.3,37.62,46.73,94.18L688.39,670.7l41.37,83.38,0,.25-53.33-76.15L573.34,657.43l-63.07-90L407.2,546.63,350,465l-47.15,37.1,78.54,89.13L491,600.86l69.51,78.88L670,689.34l61.53,69.84,0,.24-71.22-59.74L555.4,706.3l-84.22-70.64-104.94,6.62-76.32-64-36,48,98.93,65.76L461.17,673l87.56,58.2L657,712.12l77.51,51.53.11.23L650.36,724.6l-99.64,33.56-99.64-46.44-99.64,33.55-90.3-42.08L238.86,758.9l112.58,37.91,99.64-46.44,99.64,33.56,99.64-46.44,88.21,29.7.17.19-91.56-16.13-87.55,58.21L451.36,790.39l-87.56,58.2-98.12-17.28-7.1,59.58,118.56,7.48,84.23-70.65,104.93,6.63,84.22-70.65,92.89,5.87.21.14L651,777.82,581.5,856.7,472,866.3l-69.52,78.89-99.24,8.7,8.56,59.39,116.45-23.46,63.08-90L594.39,879l63.06-90L748.7,770.6l.24.09L661.58,802.5l-46.72,94.18-103.3,37.61-46.73,94.19-93.61,34.09,23.64,55.15,106.42-52.79,37.62-103.3,94.18-46.73L670.7,811.61l83.38-41.37h.25l-76.15,53.34L657.43,926.66l-90,63.07L546.63,1092.8,465,1150l37.1,47.15,89.13-78.54,9.6-109.52,78.88-69.51L689.34,830l69.84-61.53.24,0-59.74,71.22L706.3,944.6l-70.64,84.22,6.62,104.94-64,76.32,48,36,65.76-98.93L673,1038.83l58.21-87.56L712.12,843l51.53-77.51.23-.11L724.6,849.64l33.56,99.64-46.44,99.64,33.55,99.64-42.08,90.3,55.71,22.28,37.91-112.58-46.44-99.64,33.56-99.64-46.44-99.64,29.7-88.21.19-.17-16.13,91.56,58.21,87.55-19.07,108.27,58.2,87.56-17.28,98.12,59.58,7.1,7.48-118.56-70.65-84.23,6.63-104.93L763.7,849.48l5.87-92.89.14-.21L777.82,849,856.7,918.5,866.3,1028l78.89,69.52,8.7,99.24,59.39-8.56-23.46-116.45-90-63.08L879,905.61l-90-63.06L770.6,751.3l.09-.24,31.81,87.36,94.18,46.72,37.61,103.3,94.19,46.73,34.09,93.61,55.15-23.64-52.79-106.42L961.63,961.1,914.9,866.92,811.61,829.3l-41.37-83.38,0-.25,53.33,76.15,103.07,20.75,63.07,90,103.07,20.76L1150,1035l47.15-37.1-78.54-89.13-109.52-9.6-69.51-78.88L830,810.66,768.5,740.82l0-.24,71.22,59.74L944.6,793.7l84.22,70.64,104.94-6.62,76.32,64,36-48L1156.19,814ZM729.38,749.1l.07-.15.15.78Zm.47,5.37,0-.16.35.7Zm.52-10-.06-.67.11-.12Zm40.25,6.44-.07.15-.15-.78Zm-.47-5.37,0,.16-.35-.7Zm-.52,10,.06.66-.11.13Zm-1.32-15.08v.17l-.52-.59Zm-3.09-4.41.06.16-.66-.44Zm-4.13-3.46.1.13-.75-.25Zm-4.88-2.28.12.11-.79,0Zm-5.31-.93.15.07-.78.15Zm-5.37.47.16,0-.7.35Zm-5.07,1.84.17,0-.59.53Zm-4.41,3.09.16-.06-.44.66Zm-3.46,4.13.13-.1-.25.75Zm-.9,20.63v-.17l.52.59Zm3.09,4.41-.06-.16.66.44Zm4.13,3.46-.1-.13.75.25Zm4.88,2.28-.12-.11.79,0Zm5.31.93-.15-.07.78-.15Zm5.37-.47-.16,0,.7-.35Zm5.07-1.84-.17,0,.59-.53Zm4.41-3.09-.16.06.44-.66Zm3.46-4.13-.13.1.25-.75Zm1.37-15.26.44,5-.87,4.94-2.12,4.55L763,764.18l-4.11,2.88-4.72,1.72-5,.44-4.94-.87-4.55-2.12L735.82,763l-2.88-4.11-1.72-4.72-.44-5,.87-4.94,2.12-4.55,3.23-3.85,4.11-2.88,4.72-1.72,5-.44,4.94.87,4.55,2.12,3.85,3.23,2.88,4.11Z"/></svg>