<svg id="Abstract_Shape" data-name="Abstract Shape" xmlns="http://www.w3.org/2000/svg" viewBox="0 0 1500 1500"><path d="M750,250a498.74,498.74,0,0,0-184.13,35H934.13A498.74,498.74,0,0,0,750,250Z"/><path d="M959.08,295.69H540.92a500.22,500.22,0,0,0-101.51,62.46h621.18A500.5,500.5,0,0,0,959.08,295.69Z"/><path d="M1082.28,376.38H417.72a503.79,503.79,0,0,0-53,54.93h770.58A503.79,503.79,0,0,0,1082.28,376.38Z"/><path d="M1155.25,457.08H344.75a499.88,499.88,0,0,0-30.4,47.38h871.3A499.88,499.88,0,0,0,1155.25,457.08Z"/><path d="M1202.85,537.77H297.15q-9.15,19.49-16.64,39.85h939Q1212,557.26,1202.85,537.77Z"/><path d="M1232.51,618.46h-965q-4.35,15.94-7.64,32.31h980.3Q1236.85,634.42,1232.51,618.46Z"/><path d="M1247.45,699.15H252.55q-1.23,12.3-1.88,24.77h998.66Q1248.69,711.46,1247.45,699.15Z"/><path d="M252.55,800.85h994.9q1.23-12.3,1.88-24.77H250.67Q251.32,788.55,252.55,800.85Z"/><path d="M267.49,881.54h965q4.35-15.94,7.64-32.31H259.85Q263.15,865.58,267.49,881.54Z"/><path d="M297.15,962.23h905.7q9.15-19.49,16.64-39.85h-939Q288,942.74,297.15,962.23Z"/><path d="M344.75,1042.92h810.5a499.88,499.88,0,0,0,30.4-47.38H314.35A499.88,499.88,0,0,0,344.75,1042.92Z"/><path d="M417.72,1123.62h664.56a503.79,503.79,0,0,0,53-54.93H364.71A503.79,503.79,0,0,0,417.72,1123.62Z"/><path d="M540.92,1204.31H959.08a500.5,500.5,0,0,0,101.51-62.46H439.41A500.5,500.5,0,0,0,540.92,1204.31Z"/><path d="M750,1250a498.74,498.74,0,0,0,184.13-35H565.87A498.74,498.74,0,0,0,750,1250Z"/></svg>