<svg id="Abstract_Shape" data-name="Abstract Shape" xmlns="http://www.w3.org/2000/svg" viewBox="0 0 1500 1500"><path d="M1400,965.67H100a1,1,0,0,0,0,2H1400a1,1,0,0,0,0-2Z"/><path d="M110.83,954.12q20,0,40-.07l11.84,0,28.11-.08q20-.06,40,0c14.67,0,27.73,0,39.94.13,13.32.1,26.86.1,39.95.1s26.63,0,39.94.09l23.74.13,16.21.08c11.74.07,25.67.17,39.94.44,14.43.28,28.93.39,40,.45l16.22.08,23.73.13c13.32.1,26.86.1,39.95.09s26.63,0,39.94.1c12.21.08,25.28.13,40,.13q20,0,40-.05l28.11-.08,11.84,0q39.95-.12,79.88,0l11.84,0,28.11.08q18,0,36.07.06h3.88c14.68,0,27.75-.05,40-.13,13.31-.1,26.85-.09,39.94-.1s26.63,0,40-.09l23.73-.13,16.22-.08c11-.06,25.53-.17,40-.45,14.27-.27,28.2-.37,39.94-.44l16.21-.08,23.74-.13c13.31-.1,26.84-.09,39.94-.09s26.63,0,40-.1c12.21-.08,25.27-.13,39.94-.13q20,0,40,0l28.11.08,11.84,0q20,.06,40,.07a1,1,0,0,0,0-2q-20,0-40-.07l-11.83,0-28.12-.08q-20-.06-40,0c-14.67,0-27.74,0-40,.13-13.31.1-26.85.09-39.94.1s-26.64,0-40,.09l-23.73.13-16.21.08c-11.75.07-25.68.17-40,.44s-28.91.39-39.93.45l-16.22.08-23.73.13c-13.31.1-26.85.09-39.94.09s-26.64,0-40,.1c-12.2.08-25.27.13-39.94.13q-20,0-39.94-.05l-28.11-.08-11.84,0q-39.94-.12-79.9,0l-11.84,0-28.11.08q-20,.06-39.94.05c-14.67,0-27.74-.05-39.94-.13-13.32-.1-26.86-.1-40-.1s-26.63,0-39.94-.09l-23.73-.13-16.22-.08c-11-.06-25.52-.17-39.93-.45s-28.22-.37-40-.44l-16.21-.08-23.73-.13c-13.32-.1-26.86-.09-40-.09s-26.63,0-39.94-.1c-12.21-.08-25.28-.13-39.95-.13q-20,0-40,0l-28.12.08-11.83,0q-20,.06-39.95.07a1,1,0,0,0,0,2Z"/><path d="M121.67,940.58c14.06,0,27.74-.06,39.27-.12l15.71-.09,23.56-.14c15.69-.07,27.8-.1,39.27-.07,14.26,0,27.1.12,39.26.3q19.63.28,39.27.49t39.27.49c14.93.22,27.4.45,39.26.73,14.1.33,26.94.73,39.25,1.21s25.18.87,39.29,1.2c11.77.28,24.62.52,39.28.73q19.17.29,38.34.48h.93q19.64.24,39.27.5c12.21.17,25.06.27,39.29.3,11.44,0,23.92,0,39.27-.08l23.38-.13,15.89-.09c11.53-.07,25.21-.13,39.27-.13s27.74.06,39.27.13l15.89.09,23.38.13c11.93.06,22.13.08,31.46.08h7.81c14.23,0,27.08-.13,39.29-.3q19.64-.28,39.27-.5h.93q19.17-.21,38.34-.48c14.66-.21,27.51-.45,39.28-.73,14.11-.33,27-.73,39.29-1.2s25.15-.88,39.25-1.21c11.86-.28,24.33-.51,39.26-.73q19.63-.29,39.27-.49t39.27-.49c12.16-.18,25-.28,39.26-.3,11.47,0,23.58,0,39.27.07l23.56.14,15.71.09c11.53.06,25.21.12,39.27.12a1,1,0,0,0,0-2c-14.06,0-27.74-.06-39.26-.12l-15.71-.09-23.56-.14c-15.7-.07-27.81-.1-39.28-.07-14.27,0-27.12.12-39.28.3q-19.63.28-39.27.49t-39.28.49c-14.93.22-27.41.45-39.28.73-14.1.33-27,.73-39.28,1.21s-25.16.87-39.26,1.2c-11.76.28-24.61.52-39.26.73q-19.17.29-38.33.48h-.94q-19.64.24-39.27.5c-12.2.17-25.05.27-39.26.3-11.43,0-23.91,0-39.26-.08l-23.38-.13-15.89-.09c-11.53-.07-25.21-.13-39.28-.13s-27.75.06-39.28.13l-15.89.09-23.38.13c-15.35.07-27.82.1-39.26.08-14.21,0-27.06-.13-39.26-.3q-19.63-.28-39.27-.5h-.94q-19.17-.21-38.33-.48c-14.65-.21-27.5-.45-39.26-.73-14.1-.33-26.94-.73-39.26-1.2s-25.18-.88-39.28-1.21c-11.87-.28-24.35-.51-39.28-.73q-19.65-.29-39.28-.49t-39.27-.49c-12.16-.18-25-.28-39.28-.3-11.47,0-23.58,0-39.28.07l-23.56.14-15.71.09c-11.52.06-25.2.12-39.26.12a1,1,0,1,0,0,2Z"/><path d="M132.5,927c11.07,0,22.32-.06,33.2-.11l5.4,0c12.28-.06,25.37-.12,38.58-.07l12.87,0q12.85,0,25.73.1c15,.09,27.29.25,38.57.5,14.43.32,27,.62,38.59.93,13.83.36,26.45.74,38.59,1.14,13.3.44,26.28,1,38.58,1.5,13.23.59,26.21,1.27,38.58,2s25.42,1.41,38.61,2c12.33.55,25.32,1.06,38.6,1.5,12.15.4,24.77.78,38.6,1.14,11.5.3,23.76.6,38.6.93,11.34.25,23.61.41,38.61.5q12.79.07,25.6.1l13,0c13.1,0,26.25,0,38.6-.07l5.09,0c11-.06,22.33-.12,33.5-.12s22.52.06,33.5.12l5.09,0c9.1.05,18.64.09,28.28.09,3.43,0,6.88,0,10.32,0l13,0q12.81,0,25.6-.1c15-.09,27.27-.25,38.61-.5,14.84-.33,27.1-.63,38.6-.93,13.83-.36,26.45-.74,38.6-1.14,13.28-.44,26.27-.95,38.6-1.5,13.19-.59,26.18-1.27,38.61-2s25.35-1.41,38.58-2c12.3-.55,25.28-1.06,38.58-1.5,12.14-.4,24.76-.78,38.59-1.14,11.54-.31,24.16-.61,38.59-.93,11.28-.25,23.54-.41,38.57-.5q12.87-.08,25.73-.1l12.87,0c13.21-.05,26.3,0,38.58.07l5.4,0c10.88.05,22.13.11,33.2.11a1,1,0,0,0,0-2c-11.06,0-22.31-.06-33.19-.11l-5.4,0c-12.28-.06-25.39-.12-38.6-.07l-12.86,0q-12.87,0-25.74.1c-15,.09-27.31.25-38.61.5-14.42.32-27,.62-38.6.93-13.83.36-26.45.74-38.6,1.14-13.31.45-26.3,1-38.6,1.5-13.24.6-26.23,1.27-38.61,2s-25.4,1.41-38.58,2c-12.33.55-25.31,1.06-38.58,1.5-12.14.4-24.76.78-38.59,1.14-11.49.31-23.75.6-38.59.93-11.32.25-23.58.41-38.57.5q-12.79.07-25.59.1l-13,0c-13.09,0-26.24,0-38.58-.07l-5.09,0c-11-.06-22.34-.12-33.51-.12s-22.53.06-33.51.12l-5.09,0c-12.34.06-25.49.12-38.58.07l-13,0q-12.79,0-25.59-.1c-15-.09-27.25-.25-38.57-.5-14.84-.33-27.1-.62-38.59-.93-13.83-.36-26.45-.74-38.59-1.14-13.27-.44-26.25-.95-38.58-1.5-13.18-.59-26.16-1.26-38.58-2s-25.37-1.4-38.61-2c-12.3-.55-25.29-1-38.6-1.5-12.15-.4-24.77-.78-38.6-1.14-11.55-.31-24.18-.61-38.6-.93-11.3-.25-23.57-.41-38.61-.5q-12.87-.08-25.74-.1l-12.86,0c-13.22-.05-26.32,0-38.6.07l-5.4,0c-10.88.05-22.13.11-33.19.11a1,1,0,0,0,0,2Z"/><path d="M143.33,913.5c13.33,0,25.73,0,37.91.1,13,.08,25.8.19,37.91.34,12.82.16,25.57.38,37.91.63,12.86.27,25.61.59,37.91,1,12.82.39,25.57.84,37.91,1.34,12.81.52,25.57,1.12,37.9,1.77,12.75.67,25.5,1.43,37.9,2.24,12.74.84,25.49,1.78,37.91,2.77s25.12,1.93,37.93,2.77c12.33.82,25.1,1.57,37.93,2.25,12.42.65,25.18,1.25,37.93,1.77,12.34.5,25.1.95,37.92,1.34,12.31.37,25.07.69,37.93,1,12.22.25,25,.47,37.92.63,12.26.15,25,.27,37.93.34,12.18.07,24.94.1,37.92.1s25.74,0,37.92-.1c12.91-.07,25.67-.19,37.93-.34,12.94-.16,25.7-.38,37.92-.63,12.86-.27,25.62-.59,37.93-1,12.82-.39,25.58-.84,37.92-1.34,12.75-.52,25.51-1.12,37.93-1.77,12.83-.68,25.6-1.43,37.93-2.25,12.81-.84,25.57-1.77,37.93-2.77s25.17-1.93,37.91-2.77c12.4-.81,25.15-1.57,37.9-2.24,12.33-.65,25.09-1.25,37.9-1.77,12.34-.5,25.09-1,37.91-1.34,12.3-.37,25-.69,37.91-1,12.34-.25,25.09-.47,37.91-.63,12.11-.15,24.86-.26,37.91-.34,12.18-.07,24.58-.1,37.91-.1a1,1,0,0,0,0-2c-13.34,0-25.74,0-37.93.1-13,.08-25.8.19-37.92.34-12.82.16-25.58.38-37.92.63-12.86.27-25.62.59-37.93,1-12.83.39-25.59.84-37.93,1.34-12.82.53-25.58,1.12-37.93,1.77-12.75.68-25.51,1.43-37.93,2.25-12.74.84-25.5,1.77-37.93,2.77s-25.1,1.92-37.9,2.77c-12.33.81-25.08,1.57-37.9,2.24-12.41.66-25.17,1.25-37.91,1.77-12.33.5-25.09,1-37.9,1.34-12.3.37-25.06.7-37.91,1-12.22.25-25,.47-37.91.63-12.25.15-25,.27-37.91.34-12.17.07-24.93.1-37.91.1s-25.74,0-37.91-.1c-12.91-.07-25.66-.19-37.91-.34-12.94-.16-25.69-.38-37.91-.63-12.85-.26-25.61-.59-37.91-1-12.81-.38-25.57-.84-37.9-1.34-12.74-.52-25.5-1.11-37.91-1.77-12.82-.67-25.57-1.43-37.9-2.24-12.8-.85-25.55-1.78-37.9-2.77s-25.19-1.93-37.93-2.77c-12.42-.82-25.18-1.57-37.93-2.25-12.35-.65-25.11-1.24-37.93-1.77-12.34-.5-25.1-1-37.93-1.34-12.31-.37-25.07-.69-37.93-1-12.34-.25-25.1-.47-37.92-.63-12.12-.15-24.88-.26-37.92-.34-12.19-.07-24.59-.1-37.93-.1a1,1,0,1,0,0,2Z"/><path d="M154.17,900c12,0,24.52.09,37.22.26,11.94.17,24.46.42,37.23.75,12,.3,24.55.72,37.22,1.24,12,.49,24.56,1.08,37.23,1.76,11.79.63,24.47,1.33,37.23,2.1,13.7.83,25.88,1.66,37.23,2.53,10.26.78,23.77,1.83,37.23,3,13.64,1.16,25.81,2.29,37.22,3.46s23.63,2.3,37.26,3.46c13.26,1.12,26.27,2.13,37.25,3,11.33.86,23.52,1.69,37.25,2.52,12.77.78,25.45,1.47,37.25,2.1,12.68.68,25.22,1.28,37.25,1.77,12.64.52,25.17.93,37.26,1.24,12.74.33,25.28.58,37.25.74,12.66.18,25.19.27,37.25.27s24.59-.09,37.25-.27c12-.16,24.51-.41,37.25-.74,12.09-.31,24.62-.72,37.26-1.24,12-.49,24.57-1.09,37.25-1.77,11.8-.63,24.48-1.32,37.25-2.1,13.73-.83,25.92-1.66,37.25-2.52,11-.85,24-1.86,37.25-3,13.63-1.16,25.81-2.29,37.26-3.46s23.58-2.3,37.22-3.46c13.46-1.14,27-2.19,37.23-3,11.35-.87,23.53-1.7,37.23-2.53,12.76-.77,25.44-1.47,37.23-2.1,12.67-.68,25.2-1.27,37.23-1.76,12.67-.52,25.19-.94,37.22-1.24,12.77-.33,25.29-.58,37.23-.75,12.7-.17,25.22-.26,37.22-.26a1,1,0,0,0,0-2c-12,0-24.54.09-37.25.26-11.94.17-24.48.42-37.25.75-12,.3-24.58.72-37.26,1.24-12,.49-24.56,1.08-37.25,1.76-11.8.64-24.47,1.33-37.25,2.1-13.71.83-25.89,1.66-37.25,2.53-10.27.79-23.78,1.84-37.25,3-13.65,1.16-25.83,2.29-37.26,3.46s-23.6,2.3-37.22,3.45c-13.25,1.13-26.25,2.14-37.23,3-11.32.87-23.5,1.7-37.22,2.53-12.77.77-25.44,1.46-37.24,2.1-12.67.68-25.2,1.27-37.22,1.76-12.63.52-25.15.93-37.23,1.24-12.74.33-25.26.58-37.22.74-12.66.18-25.18.27-37.23.27s-24.57-.09-37.23-.27c-12-.16-24.48-.41-37.22-.74-12.08-.31-24.6-.72-37.23-1.24-12-.49-24.55-1.08-37.22-1.76-11.8-.64-24.47-1.33-37.24-2.1-13.72-.83-25.9-1.66-37.22-2.53-11-.84-24-1.85-37.23-3-13.62-1.15-25.79-2.28-37.22-3.45s-23.61-2.3-37.26-3.46c-13.47-1.14-27-2.19-37.25-3-11.36-.87-23.54-1.7-37.25-2.53-12.78-.77-25.45-1.46-37.25-2.1-12.69-.68-25.22-1.27-37.25-1.76-12.68-.52-25.22-.94-37.26-1.24-12.77-.33-25.31-.58-37.25-.75-12.71-.17-25.24-.26-37.25-.26a1,1,0,0,0,0,2Z"/><path d="M165,886.42c12.11,0,24.4.12,36.54.35s24.41.6,36.55,1.07,24.43,1.08,36.54,1.79,24.43,1.55,36.54,2.5,24.43,2,36.55,3.07,24.37,2.26,36.55,3.49,24.48,2.56,36.55,3.93,24.43,2.84,36.56,4.36,24.46,3,36.57,4.35,24.47,2.7,36.57,3.93,24.42,2.41,36.58,3.5,24.41,2.12,36.57,3.07,24.45,1.79,36.58,2.5,24.48,1.32,36.59,1.79,24.41.83,36.58,1.07,24.44.36,36.58.36,24.45-.12,36.58-.36,24.48-.6,36.58-1.07,24.42-1.07,36.59-1.79,24.44-1.55,36.58-2.5,24.46-2,36.57-3.07,24.47-2.27,36.58-3.5,24.41-2.55,36.57-3.93,24.41-2.83,36.57-4.35,24.43-3,36.56-4.36,24.36-2.69,36.55-3.93,24.48-2.41,36.55-3.49,24.42-2.13,36.55-3.07,24.4-1.79,36.54-2.5,24.4-1.31,36.54-1.79,24.44-.83,36.55-1.07,24.43-.35,36.54-.35a1,1,0,0,0,0-2c-12.12,0-24.43.12-36.58.35s-24.43.6-36.58,1.08-24.47,1.07-36.59,1.78-24.46,1.56-36.58,2.5-24.44,2-36.57,3.07-24.39,2.27-36.58,3.5-24.49,2.56-36.57,3.93-24.44,2.84-36.57,4.36-24.46,3-36.56,4.36-24.45,2.69-36.55,3.92-24.39,2.41-36.55,3.5-24.39,2.12-36.55,3.07-24.42,1.79-36.54,2.5-24.45,1.31-36.54,1.78c-9.06.36-18.23.65-27.38.87,8.86-.3,17.61-.7,26.12-1.19,12.29-.7,24.37-1.51,35.9-2.41,12.25-.95,24.33-2,35.91-3.25,11.2-1.15,22.94-2.48,35.91-4,10.6-1.29,22-2.73,35.89-4.56,10.9-1.43,22.64-3,35.9-5,12.16-1.75,24.4-3.56,35.89-5.27,10.87-1.61,23.5-3.49,35.88-5.27,13.29-1.91,25-3.53,35.87-4.95,13.89-1.83,25.29-3.27,35.88-4.56,13-1.57,24.68-2.89,35.87-4,11.56-1.2,23.63-2.29,35.86-3.24,11.51-.9,23.58-1.71,35.86-2.41,11.62-.67,23.69-1.16,35.86-1.49,11.56-.3,23.62-.45,35.84-.45a1,1,0,1,0,0-2c-12.25,0-24.33.15-35.92.45-12.19.33-24.27.83-35.91,1.49-12.3.7-24.38,1.51-35.91,2.41-12.24,1-24.33,2-35.91,3.25-11.19,1.16-22.94,2.49-35.9,4.06-10.6,1.28-22,2.73-35.9,4.55-10.86,1.43-22.6,3-35.89,5-12.39,1.79-25,3.66-35.89,5.27-11.49,1.71-23.73,3.52-35.88,5.27-13.26,1.91-25,3.53-35.88,5-13.88,1.82-25.28,3.27-35.87,4.55-13,1.57-24.69,2.9-35.87,4.06-11.57,1.19-23.63,2.28-35.86,3.24-11.52.9-23.58,1.71-35.87,2.41-6.14.35-12.41.65-18.75.91q8.68-.51,17.53-1.18c11.33-.86,23.19-1.94,35.24-3.21,11.26-1.19,23.11-2.59,35.23-4.16,11.28-1.47,22.81-3.08,35.23-4.92,11.07-1.65,22.59-3.45,35.22-5.5,10.64-1.72,21.83-3.59,35.22-5.87,11.73-2,23.47-4,35.3-6.08s23.41-4,35.11-6c13.14-2.24,24.66-4.16,35.2-5.87,12.64-2,24.15-3.85,35.2-5.49,12.39-1.85,23.91-3.45,35.19-4.92,12.11-1.57,23.95-3,35.18-4.15,12-1.27,23.86-2.35,35.18-3.21,12-.9,23.81-1.6,35.18-2.06,11.92-.48,23.75-.73,35.16-.73a1,1,0,0,0,0-2c-11.44,0-23.3.25-35.25.73-11.38.47-23.24,1.16-35.24,2.07-11.34.86-23.2,1.94-35.24,3.21-11.25,1.18-23.1,2.58-35.23,4.16-11.29,1.46-22.82,3.07-35.23,4.92-11.05,1.64-22.57,3.44-35.22,5.49-10.55,1.71-22.07,3.64-35.21,5.88-11.71,2-23.42,4-35.21,6.06s-23.47,4.06-35.21,6.06c-13.38,2.28-24.56,4.14-35.2,5.87-12.63,2.05-24.14,3.84-35.2,5.49-12.41,1.84-23.92,3.45-35.19,4.91-12.1,1.58-23.93,3-35.18,4.16-12,1.27-23.87,2.35-35.18,3.2-6.38.49-12.72.9-19,1.26,5.72-.43,11.63-.94,17.8-1.53,10.87-1,22.18-2.34,34.57-4,10.34-1.39,21.65-3,34.55-5.08,11.14-1.75,22.77-3.7,34.55-5.79,11.11-2,22.73-4.13,34.55-6.43q17.26-3.35,34.53-6.78l23.09-4.58,22.89-4.55,23.09-4.58q17.25-3.42,34.52-6.78c11.81-2.3,23.42-4.46,34.52-6.43,11.77-2.09,23.38-4,34.51-5.78,12.89-2,24.18-3.68,34.51-5.07,12.39-1.66,23.67-3,34.49-4,12.37-1.18,23.66-2,34.49-2.64,12.14-.67,23.42-1,34.48-1a1,1,0,0,0,0-2c-11.1,0-22.42.33-34.59,1-10.86.6-22.17,1.47-34.57,2.65-10.84,1-22.15,2.34-34.57,4-10.34,1.39-21.65,3-34.55,5.07-11.14,1.76-22.77,3.7-34.55,5.79-11.11,2-22.73,4.13-34.55,6.43q-17.26,3.36-34.53,6.79l-23.09,4.58-22.89,4.55-23.09,4.58Q974.27,892.65,957,896c-11.81,2.3-23.42,4.46-34.52,6.43-11.77,2.08-23.38,4-34.51,5.78-12.89,2-24.18,3.68-34.51,5.06-12.36,1.66-23.65,3-34.49,4-10.51,1-20.24,1.77-29.6,2.35,9.2-.67,18.73-1.56,28.45-2.68,10.87-1.25,22-2.77,33.9-4.63,10.67-1.66,21.76-3.57,33.88-5.82,10.6-2,21.68-4.18,33.88-6.77,10.11-2.15,20.87-4.53,33.87-7.49q15-3.42,30.09-6.94l3.77-.87c10.84-2.52,22.39-5.19,33.84-7.77s23-5.25,33.86-7.77l3.71-.86c10.05-2.33,20.09-4.67,30.14-6.95,13-3,23.71-5.33,33.84-7.48,12.18-2.59,23.25-4.8,33.83-6.77,12.11-2.24,23.17-4.15,33.83-5.81,11.91-1.86,23-3.37,33.81-4.62,11.61-1.34,23-2.36,33.81-3,11.54-.73,22.91-1.1,33.79-1.1a1,1,0,0,0,0-2c-10.92,0-22.34.37-33.92,1.1-10.86.69-22.26,1.72-33.91,3.07-10.86,1.25-21.95,2.76-33.89,4.62-10.68,1.67-21.76,3.58-33.88,5.83-10.6,2-21.68,4.18-33.88,6.77-10.15,2.15-20.91,4.53-33.87,7.49q-15.08,3.43-30.16,7l-3.7.86c-10.85,2.52-22.41,5.19-33.85,7.77s-23,5.25-33.86,7.77l-3.76.87q-15,3.49-30.09,6.94c-13,3-23.73,5.34-33.84,7.48-12.17,2.59-23.24,4.8-33.83,6.76-12.1,2.25-23.16,4.15-33.82,5.82-11.91,1.85-23,3.37-33.82,4.62-11.61,1.34-23,2.36-33.8,3-11.54.73-22.91,1.1-33.79,1.1s-22.25-.37-33.79-1.1c-10.82-.69-22.19-1.71-33.8-3-10.85-1.25-21.91-2.77-33.82-4.62-10.66-1.67-21.72-3.57-33.82-5.82-10.59-2-21.66-4.17-33.83-6.76-10.11-2.14-20.86-4.52-33.84-7.48q-15-3.42-30.09-6.94l-3.76-.87c-10.85-2.52-22.4-5.19-33.86-7.77s-23-5.25-33.85-7.77l-3.7-.86q-15.09-3.5-30.16-7c-13-3-23.72-5.34-33.87-7.49-12.2-2.59-23.28-4.81-33.88-6.77-12.12-2.25-23.2-4.16-33.88-5.83-11.94-1.86-23-3.37-33.89-4.62-11.65-1.35-23.05-2.38-33.91-3.07-11.58-.73-23-1.1-33.92-1.1a1,1,0,1,0,0,2c10.88,0,22.25.37,33.79,1.1,10.83.69,22.2,1.71,33.81,3,10.84,1.25,21.9,2.76,33.81,4.62,10.66,1.66,21.72,3.57,33.83,5.81,10.58,2,21.65,4.18,33.83,6.77,10.13,2.15,20.89,4.52,33.84,7.48,10.05,2.28,20.09,4.62,30.14,6.95l3.71.86c10.85,2.52,22.41,5.19,33.86,7.77s23,5.25,33.84,7.77l3.77.87q15,3.5,30.09,6.94c13,3,23.76,5.34,33.87,7.49,12.2,2.59,23.28,4.8,33.88,6.77,12.12,2.25,23.21,4.16,33.88,5.82,11.94,1.86,23,3.38,33.9,4.63,9.72,1.12,19.25,2,28.45,2.68-9.36-.58-19.09-1.35-29.6-2.35-10.84-1-22.13-2.34-34.49-4-10.33-1.38-21.62-3-34.51-5.06-11.13-1.75-22.74-3.7-34.51-5.78-11.1-2-22.71-4.13-34.52-6.43q-17.26-3.36-34.52-6.78l-23.09-4.58L462.5,880.1l-23.09-4.58q-17.27-3.42-34.53-6.79c-11.82-2.3-23.44-4.46-34.55-6.43-11.78-2.09-23.41-4-34.55-5.79-12.9-2-24.21-3.68-34.55-5.07-12.42-1.66-23.73-3-34.57-4-12.4-1.18-23.71-2.05-34.57-2.65-12.17-.67-23.49-1-34.59-1a1,1,0,0,0,0,2c11.06,0,22.34.33,34.48,1,10.83.6,22.12,1.46,34.49,2.64,10.82,1,22.1,2.33,34.49,4,10.33,1.39,21.62,3,34.51,5.07,11.13,1.75,22.74,3.69,34.51,5.78,11.1,2,22.71,4.13,34.52,6.43Q421.77,874,439,877.48l23.09,4.58L485,886.61l23.09,4.58q17.27,3.42,34.53,6.78c11.82,2.3,23.44,4.47,34.55,6.43,11.78,2.09,23.41,4,34.55,5.79,12.9,2,24.21,3.69,34.55,5.08,12.39,1.66,23.7,3,34.57,4,6.17.59,12.08,1.1,17.8,1.53-6.26-.36-12.6-.77-19-1.26-11.31-.85-23.15-1.93-35.18-3.2-11.25-1.19-23.08-2.58-35.18-4.16-11.27-1.46-22.78-3.07-35.19-4.91-11.06-1.65-22.57-3.44-35.2-5.49-10.64-1.73-21.82-3.59-35.2-5.87-11.74-2-23.47-4-35.3-6.08s-23.41-4.05-35.12-6c-13.14-2.24-24.66-4.17-35.21-5.88-12.65-2-24.17-3.85-35.22-5.49-12.41-1.85-23.94-3.46-35.23-4.92-12.13-1.58-24-3-35.23-4.16-12-1.27-23.9-2.35-35.24-3.21-12-.91-23.86-1.6-35.24-2.07-11.95-.48-23.81-.73-35.25-.73a1,1,0,1,0,0,2c11.41,0,23.24.25,35.16.73,11.37.46,23.2,1.16,35.18,2.06,11.32.86,23.16,1.94,35.18,3.21,11.23,1.18,23.07,2.58,35.18,4.15,11.28,1.47,22.8,3.07,35.19,4.92,11.05,1.64,22.56,3.44,35.2,5.49,10.54,1.71,22.06,3.63,35.2,5.87,11.7,2,23.41,4,35.2,6.06s23.48,4.06,35.21,6.06c13.39,2.28,24.58,4.15,35.22,5.87,12.63,2,24.15,3.85,35.22,5.5,12.42,1.84,24,3.45,35.23,4.92,12.12,1.57,24,3,35.23,4.16,12.05,1.27,23.91,2.35,35.24,3.21q8.84.66,17.53,1.18c-6.34-.26-12.61-.56-18.75-.91-12.29-.7-24.35-1.51-35.87-2.41-12.23-1-24.29-2-35.86-3.24-11.18-1.16-22.91-2.49-35.87-4.06-10.59-1.28-22-2.73-35.87-4.55-10.89-1.43-22.62-3-35.88-5-12.15-1.75-24.39-3.56-35.88-5.27-10.87-1.61-23.5-3.48-35.89-5.27-13.29-1.91-25-3.53-35.89-5-13.89-1.82-25.3-3.27-35.9-4.55-13-1.57-24.71-2.9-35.9-4.06-11.58-1.2-23.67-2.29-35.91-3.25-11.53-.9-23.61-1.71-35.91-2.41-11.64-.66-23.72-1.16-35.91-1.49-11.59-.3-23.67-.45-35.92-.45a1,1,0,0,0,0,2c12.23,0,24.3.15,35.86.45,12.17.33,24.24.82,35.86,1.49,12.28.7,24.35,1.51,35.86,2.41,12.23.95,24.3,2,35.86,3.24,11.19,1.16,22.92,2.48,35.87,4,10.59,1.29,22,2.73,35.88,4.56,10.85,1.42,22.58,3,35.87,4.95,12.38,1.78,25,3.66,35.88,5.27,11.49,1.71,23.73,3.52,35.89,5.27,13.26,1.91,25,3.53,35.9,5,13.89,1.83,25.29,3.27,35.89,4.56,13,1.57,24.71,2.9,35.91,4,11.58,1.2,23.66,2.3,35.91,3.25,11.53.9,23.61,1.71,35.9,2.41,8.51.49,17.26.89,26.12,1.19-9.15-.22-18.32-.51-27.38-.87-12.09-.47-24.38-1.07-36.54-1.78s-24.42-1.55-36.54-2.5-24.45-2-36.55-3.07-24.45-2.27-36.55-3.5-24.4-2.55-36.55-3.92-24.4-2.84-36.56-4.36-24.44-3-36.57-4.36-24.38-2.69-36.57-3.93-24.5-2.41-36.58-3.5-24.44-2.12-36.57-3.07-24.43-1.79-36.58-2.5-24.43-1.31-36.59-1.78-24.46-.84-36.58-1.08-24.46-.35-36.58-.35a1,1,0,0,0,0,2Z"/><path d="M219.17,818.71c10.74,0,21.88.4,33.1,1.19,10.72.76,21.86,1.89,33.12,3.38,10.63,1.4,21.77,3.14,33.13,5.16,10.54,1.88,21.69,4.08,33.14,6.54,9.91,2.14,20.75,4.67,33.15,7.74,10.87,2.69,21.92,5.54,32.6,8.3l.57.15c9.55,2.47,19.26,5.05,28.66,7.56l4.51,1.2c10.59,2.82,21.87,5.81,33.19,8.67s22.54,5.84,33.16,8.67l4.08,1.08c9.54,2.55,19.4,5.18,29.11,7.68l.54.14c10.7,2.77,21.76,5.62,32.64,8.32,12.43,3.08,23.29,5.61,33.21,7.75,11.47,2.47,22.65,4.67,33.21,6.55,11.38,2,22.55,3.77,33.23,5.18,11.29,1.49,22.47,2.63,33.23,3.39,11.26.79,22.45,1.2,33.25,1.2s22-.41,33.25-1.2c10.76-.76,21.94-1.9,33.23-3.39,10.68-1.41,21.85-3.15,33.23-5.18,10.56-1.88,21.74-4.08,33.21-6.55,9.92-2.14,20.78-4.67,33.21-7.75,10.88-2.7,21.94-5.55,32.64-8.32l.54-.14c9.71-2.5,19.57-5.13,29.11-7.68l4.08-1.08c10.62-2.83,21.92-5.83,33.16-8.67s22.6-5.85,33.19-8.67l4.51-1.2c9.4-2.51,19.11-5.09,28.66-7.56l.57-.15c10.68-2.76,21.73-5.61,32.6-8.3,12.4-3.07,23.24-5.6,33.15-7.74,11.45-2.46,22.6-4.66,33.14-6.54,11.36-2,22.5-3.76,33.13-5.16,11.26-1.49,22.4-2.62,33.12-3.38,11.22-.79,22.36-1.19,33.1-1.19a1,1,0,0,0,0-2c-10.79,0-22,.4-33.24,1.2-10.76.75-21.95,1.89-33.24,3.38-10.66,1.41-21.83,3.15-33.22,5.18-10.57,1.88-21.74,4.09-33.22,6.56-9.92,2.14-20.78,4.67-33.2,7.75-10.88,2.69-21.93,5.54-32.62,8.3l-.57.15c-9.56,2.47-19.27,5.06-28.67,7.56l-4.51,1.21c-10.59,2.82-21.86,5.81-33.17,8.66s-22.56,5.84-33.19,8.67l-4.08,1.09c-9.53,2.54-19.39,5.17-29.09,7.68l-.54.14c-10.69,2.76-21.75,5.61-32.62,8.31-12.41,3.07-23.25,5.6-33.15,7.73-11.45,2.47-22.6,4.67-33.14,6.55-11.35,2-22.5,3.75-33.14,5.16-11.25,1.48-22.39,2.62-33.11,3.38-11.22.79-22.36,1.19-33.11,1.19s-21.89-.4-33.11-1.19c-10.72-.76-21.86-1.9-33.11-3.38-10.64-1.41-21.79-3.14-33.14-5.16C640.1,905,629,902.75,617.5,900.28c-9.9-2.13-20.74-4.66-33.15-7.73-10.87-2.7-21.93-5.55-32.62-8.31l-.54-.14c-9.7-2.51-19.56-5.14-29.09-7.68L518,875.33c-10.63-2.83-21.94-5.83-33.19-8.67s-22.58-5.84-33.17-8.66l-4.51-1.21c-9.4-2.5-19.11-5.09-28.67-7.56l-.57-.15c-10.69-2.76-21.74-5.61-32.62-8.3-12.42-3.08-23.28-5.61-33.2-7.75-11.48-2.47-22.65-4.68-33.22-6.56-11.39-2-22.56-3.77-33.22-5.18-11.29-1.49-22.48-2.63-33.24-3.38-11.27-.8-22.45-1.2-33.24-1.2a1,1,0,0,0,0,2Z"/><path d="M230,805.17c10.47,0,21.38.45,32.42,1.35,10.42.85,21.33,2.12,32.43,3.78,10.33,1.54,21.25,3.48,32.45,5.77,10.35,2.12,21,4.52,32.46,7.35,10.08,2.48,20.71,5.26,32.48,8.49,9.48,2.61,19.8,5.53,32.48,9.21q10.89,3.15,21.79,6.36l10.71,3.14c9.67,2.82,21.09,6.14,32.51,9.35s22.87,6.54,32.49,9.36l10.85,3.17q10.83,3.18,21.65,6.32c12.71,3.69,23,6.62,32.52,9.22,11.78,3.24,22.42,6,32.52,8.5,11.53,2.84,22.17,5.25,32.54,7.37,11.24,2.29,22.19,4.24,32.55,5.79,11.15,1.67,22.11,2.94,32.57,3.79,11.1.91,22.07,1.36,32.58,1.36s21.48-.45,32.58-1.36c10.46-.85,21.42-2.12,32.57-3.79,10.36-1.55,21.31-3.5,32.55-5.79,10.37-2.12,21-4.53,32.54-7.37,10.1-2.48,20.74-5.26,32.52-8.5,9.48-2.6,19.81-5.53,32.52-9.22q10.82-3.14,21.65-6.32l10.85-3.17c9.62-2.82,21-6.13,32.49-9.36s22.84-6.53,32.51-9.35l10.71-3.14q10.89-3.19,21.79-6.36c12.68-3.68,23-6.6,32.48-9.21,11.77-3.23,22.4-6,32.48-8.49,11.5-2.83,22.11-5.23,32.46-7.35,11.2-2.29,22.12-4.23,32.45-5.77,11.1-1.66,22-2.93,32.43-3.78,11-.9,22-1.35,32.42-1.35a1,1,0,0,0,0-2c-10.52,0-21.48.45-32.58,1.36-10.46.85-21.42,2.12-32.57,3.79-10.36,1.55-21.31,3.5-32.55,5.79-10.37,2.12-21,4.53-32.54,7.37-10.1,2.48-20.74,5.27-32.52,8.5-9.5,2.61-19.83,5.54-32.52,9.22q-10.89,3.15-21.79,6.36l-10.71,3.14c-9.66,2.82-21.08,6.14-32.49,9.35s-22.89,6.54-32.51,9.36l-10.86,3.17q-10.82,3.18-21.64,6.32c-12.7,3.68-23,6.61-32.48,9.21-11.77,3.23-22.4,6-32.48,8.49-11.5,2.83-22.11,5.23-32.46,7.35-11.2,2.29-22.12,4.23-32.45,5.77-11.11,1.66-22,2.93-32.43,3.78-11,.9-22,1.35-32.42,1.35s-21.37-.45-32.42-1.35c-10.41-.85-21.32-2.12-32.43-3.78-10.33-1.54-21.25-3.48-32.45-5.77-10.35-2.12-21-4.52-32.46-7.35-10.08-2.48-20.71-5.26-32.48-8.49-9.46-2.6-19.78-5.53-32.48-9.21q-10.83-3.14-21.64-6.32l-10.86-3.17c-9.62-2.82-21-6.13-32.51-9.36s-22.83-6.53-32.49-9.35l-10.71-3.14q-10.89-3.19-21.79-6.36c-12.69-3.68-23-6.61-32.52-9.22-11.78-3.23-22.42-6-32.52-8.5-11.53-2.84-22.17-5.25-32.54-7.37-11.24-2.29-22.19-4.24-32.55-5.79-11.15-1.67-22.11-2.94-32.57-3.79-11.1-.91-22.06-1.36-32.58-1.36a1,1,0,0,0,0,2Z"/><path d="M240.83,791.62c10.14,0,20.52.53,31.73,1.6,9.92.95,20.31,2.32,31.76,4.19,9.88,1.61,20.27,3.66,31.76,6.26,9.32,2.11,19.42,4.59,31.79,7.81,10,2.59,20.37,5.5,31.79,8.9,9.57,2.84,19.68,6,31.81,9.83q12.09,3.85,24.18,7.78l7.64,2.46c10.12,3.27,21,6.76,31.83,10.13s21.72,6.87,31.81,10.12l7.64,2.47q12.09,3.9,24.19,7.78c12.13,3.86,22.25,7,31.84,9.84,11.45,3.4,21.87,6.32,31.86,8.92,12.39,3.23,22.51,5.71,31.85,7.83,11.53,2.6,22,4.66,31.88,6.28,11.5,1.87,21.93,3.25,31.89,4.2,11.27,1.08,21.72,1.61,31.92,1.61s20.65-.53,31.92-1.61c10-.95,20.39-2.33,31.89-4.2,9.92-1.62,20.35-3.68,31.88-6.28,9.34-2.12,19.46-4.6,31.85-7.83,10-2.6,20.41-5.52,31.86-8.92,9.59-2.85,19.71-6,31.84-9.84q12.09-3.86,24.19-7.78l7.64-2.47c10.09-3.25,20.93-6.73,31.81-10.12s21.71-6.86,31.83-10.13l7.64-2.46q12.09-3.91,24.18-7.78c12.13-3.87,22.24-7,31.81-9.83,11.42-3.4,21.82-6.31,31.79-8.9,12.37-3.22,22.47-5.7,31.79-7.81,11.49-2.6,21.88-4.65,31.76-6.26,11.45-1.87,21.84-3.24,31.76-4.19,11.21-1.07,21.59-1.6,31.73-1.6a1,1,0,0,0,0-2c-10.21,0-20.65.53-31.92,1.61-10,1-20.39,2.33-31.89,4.21-9.92,1.62-20.35,3.67-31.88,6.28-9.34,2.11-19.46,4.6-31.86,7.82-10,2.6-20.41,5.52-31.85,8.92-9.58,2.85-19.7,6-31.84,9.85q-12.11,3.86-24.2,7.77l-7.63,2.47c-10.12,3.27-21,6.75-31.81,10.12s-21.74,6.87-31.84,10.13l-7.63,2.46q-12.09,3.91-24.19,7.78c-12.12,3.87-22.22,7-31.8,9.83-11.43,3.4-21.83,6.31-31.79,8.91-12.37,3.22-22.48,5.7-31.79,7.8-11.49,2.6-21.88,4.65-31.77,6.26-11.45,1.87-21.84,3.24-31.75,4.19-11.21,1.08-21.59,1.6-31.73,1.6s-20.52-.52-31.73-1.6c-9.91-.95-20.3-2.32-31.75-4.19-9.89-1.61-20.28-3.66-31.77-6.26-9.31-2.1-19.42-4.58-31.79-7.8-10-2.6-20.36-5.51-31.79-8.91-9.58-2.84-19.68-6-31.8-9.83q-12.09-3.85-24.19-7.78l-7.63-2.46c-10.1-3.26-20.94-6.74-31.84-10.13S474,841.82,463.9,838.55l-7.63-2.47q-12.11-3.9-24.2-7.77c-12.14-3.87-22.26-7-31.84-9.85-11.44-3.4-21.86-6.32-31.85-8.92-12.4-3.22-22.52-5.71-31.86-7.82-11.53-2.61-22-4.66-31.88-6.28-11.5-1.88-21.93-3.25-31.89-4.21-11.27-1.08-21.71-1.61-31.92-1.61a1,1,0,0,0,0,2Z"/><path d="M251.67,778.08c10,0,20.39.54,31,1.59,9.87,1,20.32,2.43,31.07,4.33,9.88,1.75,20.05,3.87,31.09,6.48,9.59,2.27,19.77,4.89,31.11,8,9.72,2.67,19.9,5.72,31.11,9.33,9.29,3,19.18,6.32,31.12,10.48,8.8,3.07,17.75,6.25,26.4,9.33l4.74,1.68c9.9,3.52,20.46,7.26,31.16,10.93s21.24,7.39,31.13,10.91l5,1.77c8.57,3.05,17.44,6.21,26.16,9.25,11.93,4.15,21.83,7.49,31.16,10.49,11.23,3.62,21.43,6.68,31.19,9.36,11.39,3.13,21.59,5.76,31.18,8,11.1,2.62,21.3,4.74,31.2,6.5,10.79,1.91,21.3,3.38,31.23,4.36C729.47,902,740,902.5,750,902.5s20.53-.54,31.24-1.59c9.93-1,20.44-2.45,31.23-4.36,9.9-1.76,20.1-3.88,31.2-6.5,9.59-2.27,19.79-4.9,31.18-8,9.76-2.68,20-5.74,31.19-9.36,9.33-3,19.23-6.34,31.16-10.49,8.72-3,17.59-6.2,26.16-9.25l5-1.77c9.89-3.52,20.44-7.26,31.13-10.91s21.26-7.41,31.16-10.93l4.74-1.68c8.65-3.08,17.6-6.26,26.4-9.33,11.94-4.16,21.83-7.49,31.12-10.48,11.21-3.61,21.39-6.66,31.11-9.33,11.34-3.12,21.52-5.74,31.11-8,11-2.61,21.21-4.73,31.09-6.48,10.75-1.9,21.2-3.36,31.07-4.33,10.65-1,21.09-1.59,31-1.59a1,1,0,0,0,0-2c-10,0-20.53.54-31.24,1.59-9.92,1-20.42,2.45-31.22,4.36-9.92,1.76-20.13,3.89-31.2,6.51-9.62,2.27-19.82,4.89-31.19,8-9.74,2.68-19.94,5.74-31.18,9.36-9.3,3-19.21,6.33-31.17,10.5-8.81,3.06-17.76,6.25-26.41,9.33l-4.74,1.68c-9.9,3.52-20.45,7.26-31.14,10.91s-21.25,7.41-31.15,10.93l-5,1.77c-8.57,3.05-17.43,6.2-26.14,9.24-11.92,4.15-21.81,7.48-31.13,10.48-11.19,3.6-21.37,6.66-31.1,9.33-11.36,3.13-21.54,5.75-31.11,8-11.06,2.61-21.23,4.73-31.09,6.48-10.74,1.9-21.2,3.36-31.07,4.34-10.65,1-21.1,1.58-31,1.58s-20.4-.54-31-1.58c-9.87-1-20.33-2.44-31.07-4.34-9.86-1.75-20-3.87-31.09-6.48-9.57-2.26-19.75-4.88-31.11-8-9.73-2.67-19.91-5.73-31.1-9.33-9.32-3-19.21-6.33-31.13-10.48-8.71-3-17.57-6.19-26.14-9.24l-5-1.77c-9.9-3.52-20.46-7.26-31.15-10.93S479.92,831,470,827.43l-4.74-1.68c-8.65-3.08-17.6-6.27-26.41-9.33-12-4.17-21.87-7.51-31.17-10.5-11.24-3.62-21.44-6.68-31.18-9.36-11.37-3.13-21.57-5.75-31.19-8-11.07-2.62-21.28-4.75-31.2-6.51-10.8-1.91-21.3-3.38-31.22-4.36-10.71-1-21.23-1.59-31.24-1.59a1,1,0,1,0,0,2Z"/><path d="M262.5,764.54c9.78,0,20,.52,30.37,1.53,9.73.95,19.95,2.38,30.39,4.24,9.76,1.74,19.71,3.85,30.41,6.45,9.61,2.34,19.56,5,30.43,8.16,9.22,2.69,19.17,5.87,30.42,9.74,9.58,3.29,19.1,6.73,30.45,10.88,10.46,3.83,20.78,7.79,30.45,11.53l4.46,1.72c8.53,3.3,17.34,6.71,26,10s17.48,6.65,26,10l4.46,1.72c9.68,3.74,20,7.71,30.48,11.54,9.18,3.35,19.86,7.24,30.49,10.9,11.28,3.87,21.26,7.07,30.52,9.76,10.91,3.17,20.89,5.85,30.51,8.19,10.72,2.61,20.71,4.72,30.53,6.47,10.51,1.87,20.78,3.31,30.54,4.26,10.45,1,20.73,1.54,30.57,1.54s20.12-.52,30.57-1.54c9.76-.95,20-2.39,30.54-4.26,9.82-1.75,19.81-3.86,30.53-6.47,9.62-2.34,19.6-5,30.51-8.19,9.26-2.69,19.24-5.89,30.52-9.76,10.63-3.66,21.31-7.55,30.49-10.9,10.48-3.83,20.8-7.8,30.48-11.54l4.46-1.72c8.52-3.3,17.34-6.7,26-10s17.49-6.66,26-10l4.46-1.72c9.67-3.74,20-7.7,30.45-11.53,11.35-4.15,20.87-7.59,30.45-10.88,11.25-3.87,21.2-7,30.42-9.74,10.87-3.15,20.82-5.82,30.43-8.16,10.7-2.6,20.65-4.71,30.41-6.45,10.44-1.86,20.66-3.29,30.39-4.24,10.37-1,20.59-1.53,30.37-1.53a1,1,0,0,0,0-2c-9.84,0-20.13.52-30.57,1.54-9.77,1-20,2.39-30.54,4.26-9.81,1.75-19.79,3.87-30.53,6.48-9.64,2.34-19.62,5-30.51,8.18-9.26,2.7-19.24,5.89-30.52,9.77-9.59,3.3-19.12,6.74-30.49,10.89-10.47,3.83-20.8,7.8-30.48,11.54l-4.46,1.73c-8.52,3.29-17.34,6.7-26,10s-17.49,6.66-26,10l-4.46,1.72c-9.67,3.74-20,7.7-30.45,11.53-9.17,3.35-19.84,7.23-30.45,10.88-11.25,3.87-21.2,7.06-30.42,9.74-10.89,3.16-20.84,5.83-30.43,8.16-10.69,2.6-20.63,4.71-30.41,6.45-10.46,1.87-20.68,3.29-30.39,4.24-10.38,1-20.6,1.53-30.37,1.53s-20-.51-30.37-1.53c-9.71-.95-19.93-2.37-30.39-4.24-9.78-1.74-19.72-3.85-30.41-6.45-9.59-2.33-19.54-5-30.43-8.16C619.18,868,609.23,864.83,598,861c-10.61-3.65-21.28-7.53-30.45-10.88-10.46-3.83-20.78-7.79-30.45-11.53l-4.46-1.72c-8.53-3.29-17.34-6.7-26-10s-17.48-6.66-26-10l-4.46-1.73c-9.68-3.74-20-7.71-30.48-11.54-11.37-4.15-20.9-7.59-30.49-10.89-11.28-3.88-21.26-7.07-30.52-9.77-10.89-3.16-20.87-5.84-30.51-8.18-10.74-2.61-20.72-4.73-30.53-6.48-10.49-1.87-20.77-3.3-30.54-4.26-10.44-1-20.73-1.54-30.57-1.54a1,1,0,0,0,0,2Z"/><path d="M273.33,751c9.64,0,19.63.49,29.7,1.46,9.6.92,19.6,2.3,29.71,4.11,9.56,1.71,19.56,3.86,29.73,6.4,9.5,2.37,19.5,5.16,29.74,8.3,9.53,2.92,19.26,6.14,29.75,9.82,9.35,3.29,19.08,6.88,29.77,11,8.9,3.41,18.64,7.25,29.77,11.73,10,4,20,8.14,29.79,12.13s19.86,8.12,29.79,12.12c11.14,4.49,20.89,8.33,29.81,11.75,10.7,4.1,20.45,7.7,29.82,11,10.51,3.7,20.27,6.92,29.83,9.85,10.27,3.15,20.31,6,29.84,8.33,10.21,2.55,20.25,4.71,29.86,6.43,10.16,1.82,20.22,3.21,29.87,4.14,10.14,1,20.19,1.46,29.89,1.46s19.75-.49,29.89-1.46c9.65-.93,19.71-2.32,29.87-4.14,9.61-1.72,19.65-3.88,29.86-6.43,9.53-2.37,19.57-5.18,29.84-8.33,9.56-2.93,19.32-6.15,29.83-9.85,9.37-3.29,19.12-6.89,29.82-11,8.92-3.42,18.67-7.26,29.81-11.75,9.93-4,20-8.13,29.79-12.12s19.83-8.12,29.79-12.13c11.13-4.48,20.87-8.32,29.77-11.73,10.69-4.1,20.42-7.69,29.77-11,10.49-3.68,20.22-6.9,29.75-9.82,10.24-3.14,20.24-5.93,29.74-8.3,10.17-2.54,20.17-4.69,29.73-6.4,10.11-1.81,20.11-3.19,29.71-4.11,10.07-1,20.06-1.46,29.7-1.46a1,1,0,0,0,0-2c-9.7,0-19.75.49-29.89,1.46-9.66.93-19.71,2.32-29.87,4.14-9.61,1.72-19.66,3.88-29.86,6.43-9.54,2.37-19.58,5.18-29.84,8.33-9.56,2.93-19.32,6.15-29.83,9.85-9.37,3.29-19.12,6.89-29.82,11-8.92,3.42-18.67,7.26-29.81,11.75-10,4-20,8.14-29.8,12.12s-19.85,8.13-29.78,12.13c-11.13,4.48-20.87,8.32-29.78,11.73-10.68,4.1-20.42,7.69-29.76,11-10.49,3.68-20.22,6.9-29.76,9.82-10.23,3.14-20.23,5.93-29.74,8.3-10.16,2.54-20.16,4.69-29.72,6.4-10.11,1.81-20.11,3.19-29.71,4.11-10.08,1-20.07,1.46-29.7,1.46s-19.62-.49-29.7-1.46c-9.6-.92-19.6-2.3-29.71-4.11-9.56-1.71-19.56-3.86-29.72-6.4-9.51-2.37-19.51-5.16-29.74-8.3-9.54-2.92-19.27-6.14-29.76-9.82-9.34-3.29-19.08-6.88-29.76-11-8.91-3.41-18.65-7.25-29.78-11.73-9.93-4-20-8.13-29.78-12.13S492.21,806,482.25,802c-11.14-4.49-20.89-8.33-29.81-11.75-10.7-4.1-20.45-7.7-29.82-11-10.51-3.7-20.27-6.92-29.83-9.85-10.26-3.15-20.3-6-29.84-8.33-10.2-2.55-20.25-4.71-29.86-6.43-10.16-1.82-20.21-3.21-29.87-4.14-10.14-1-20.19-1.46-29.89-1.46a1,1,0,1,0,0,2Z"/><path d="M284.17,737.46a285,285,0,0,1,29,1.53c9.27,1,19,2.37,29,4.24,9.34,1.74,18.85,3.85,29.05,6.44,9.17,2.34,18.68,5,29.07,8.17,8.82,2.68,18.32,5.86,29.07,9.73,10.15,3.65,20.34,7.53,29.1,10.88,10,3.83,19.85,7.79,29.09,11.53l4.29,1.73c8.14,3.29,16.56,6.7,24.84,9.95s16.72,6.66,24.87,10l4.23,1.71C555.08,817.07,565,821,575,824.87c10.86,4.16,20,7.6,29.13,10.9,10.77,3.88,20.31,7.07,29.16,9.76,10.42,3.17,20,5.85,29.16,8.19,10.27,2.61,19.81,4.73,29.18,6.48,10,1.87,19.85,3.3,29.19,4.26a278,278,0,0,0,58.44,0c9.34-1,19.16-2.39,29.19-4.26,9.37-1.75,18.91-3.87,29.18-6.48,9.21-2.34,18.74-5,29.16-8.19,8.85-2.69,18.39-5.88,29.16-9.76,9.16-3.3,18.27-6.74,29.13-10.9,10-3.83,19.88-7.8,29.14-11.54l4.23-1.71c8.15-3.3,16.58-6.71,24.87-10s16.7-6.66,24.84-9.95l4.29-1.73c9.24-3.74,19.1-7.7,29.09-11.53,8.76-3.35,19-7.23,29.1-10.88,10.75-3.87,20.25-7.05,29.07-9.73,10.39-3.16,19.9-5.83,29.07-8.17,10.2-2.59,19.71-4.7,29-6.44,10-1.87,19.76-3.29,29-4.24a285,285,0,0,1,29-1.53,1,1,0,0,0,0-2,288.76,288.76,0,0,0-29.21,1.54c-9.33,1-19.15,2.39-29.2,4.26-9.38,1.75-18.93,3.87-29.18,6.48-9.19,2.34-18.73,5-29.16,8.18-8.84,2.7-18.38,5.89-29.16,9.77-10.16,3.66-20.37,7.54-29.13,10.9-10,3.83-19.88,7.8-29.13,11.54l-4.29,1.73c-8.14,3.29-16.55,6.69-24.82,9.94s-16.73,6.67-24.89,10l-4.23,1.72c-9.25,3.73-19.11,7.7-29.1,11.52-10.85,4.16-20,7.59-29.1,10.89-10.74,3.86-20.25,7.05-29.06,9.73-10.39,3.16-19.9,5.83-29.07,8.16-10.23,2.6-19.73,4.71-29.05,6.45-10,1.86-19.75,3.29-29,4.24a275.79,275.79,0,0,1-58,0c-9.29-1-19.06-2.38-29-4.24-9.32-1.74-18.82-3.85-29.05-6.45-9.17-2.33-18.68-5-29.07-8.16-8.81-2.68-18.32-5.87-29.06-9.73-9.15-3.3-18.25-6.73-29.1-10.89-10-3.82-19.85-7.79-29.1-11.52l-4.23-1.72c-8.16-3.29-16.59-6.71-24.89-10s-16.68-6.65-24.82-9.94l-4.29-1.73c-9.25-3.74-19.12-7.71-29.13-11.54-8.76-3.36-19-7.24-29.13-10.9-10.78-3.88-20.32-7.07-29.16-9.77-10.43-3.17-20-5.84-29.16-8.18-10.25-2.61-19.8-4.73-29.18-6.48-10.05-1.87-19.87-3.31-29.2-4.26a288.76,288.76,0,0,0-29.21-1.54,1,1,0,0,0,0,2Z"/><path d="M295,723.92a265.09,265.09,0,0,1,28.33,1.58c9,1,18.55,2.43,28.35,4.33,9,1.75,18.29,3.87,28.38,6.48,8.74,2.26,18,4.88,28.4,8,8.89,2.68,18.18,5.73,28.39,9.34,8.52,3,17.55,6.33,28.42,10.48,8,3,16.1,6.2,24,9.26l4.48,1.75c9,3.51,18.67,7.25,28.45,10.92s19.4,7.4,28.42,10.91l4.3,1.68c7.92,3.08,16.1,6.27,24.15,9.34,10.92,4.17,20,7.5,28.46,10.5,10.26,3.61,19.58,6.68,28.48,9.36,10.38,3.13,19.7,5.75,28.48,8,10.11,2.62,19.44,4.75,28.49,6.51,9.87,1.91,19.46,3.38,28.53,4.36a256.94,256.94,0,0,0,57.08,0c9.07-1,18.66-2.45,28.53-4.36,9-1.76,18.38-3.89,28.49-6.51,8.78-2.27,18.1-4.89,28.48-8,8.9-2.68,18.22-5.75,28.48-9.36,8.5-3,17.54-6.33,28.46-10.5,8-3.07,16.23-6.26,24.15-9.34l4.3-1.68c9-3.51,18.65-7.25,28.42-10.91s19.42-7.41,28.45-10.92l4.48-1.75c7.85-3.06,16-6.22,24-9.26,10.87-4.15,19.9-7.48,28.42-10.48,10.21-3.61,19.5-6.66,28.39-9.34,10.37-3.12,19.66-5.74,28.4-8,10.09-2.61,19.37-4.73,28.38-6.48,9.8-1.9,19.34-3.36,28.35-4.33a265.09,265.09,0,0,1,28.33-1.58,1,1,0,0,0,0-2,266.25,266.25,0,0,0-28.54,1.59c-9.07,1-18.67,2.45-28.53,4.36-9,1.76-18.36,3.88-28.49,6.5-8.77,2.27-18.08,4.9-28.48,8-8.91,2.69-18.23,5.75-28.48,9.36-8.53,3-17.57,6.34-28.46,10.5-8,3-16.11,6.21-24,9.27l-4.49,1.74c-9,3.52-18.65,7.25-28.42,10.92s-19.42,7.4-28.45,10.92l-4.3,1.67c-7.91,3.08-16.09,6.27-24.13,9.34-10.9,4.16-19.93,7.49-28.42,10.48-10.23,3.61-19.52,6.66-28.39,9.33-10.35,3.12-19.64,5.74-28.4,8-10.07,2.6-19.36,4.72-28.38,6.47-9.8,1.91-19.34,3.37-28.35,4.34a254.77,254.77,0,0,1-56.66,0c-9-1-18.55-2.43-28.35-4.34-9-1.75-18.31-3.87-28.38-6.47-8.76-2.27-18.05-4.89-28.4-8-8.87-2.67-18.16-5.72-28.39-9.33-8.49-3-17.52-6.32-28.42-10.48-8-3.07-16.22-6.26-24.13-9.34l-4.3-1.67c-9-3.52-18.67-7.26-28.45-10.92s-19.4-7.4-28.42-10.92l-4.49-1.74c-7.85-3.06-16-6.22-24-9.27-10.89-4.16-19.93-7.49-28.46-10.5-10.25-3.61-19.57-6.67-28.48-9.36-10.4-3.13-19.71-5.76-28.48-8-10.13-2.62-19.45-4.74-28.49-6.5-9.86-1.91-19.46-3.38-28.53-4.36A266.25,266.25,0,0,0,295,721.92a1,1,0,0,0,0,2Z"/><path d="M305.83,710.38A251.81,251.81,0,0,1,333.48,712c8.65.95,17.7,2.32,27.69,4.19,8.62,1.61,17.68,3.65,27.69,6.25,8.13,2.11,16.94,4.59,27.73,7.81,8.69,2.59,17.76,5.5,27.72,8.9,8.36,2.84,17.17,6,27.74,9.83q10.54,3.84,21.07,7.76l6.69,2.48c8.8,3.25,18.26,6.73,27.77,10.13s18.92,6.85,27.75,10.12l6.69,2.48q10.53,3.9,21.07,7.76c10.6,3.87,19.42,7,27.79,9.85,10,3.4,19.08,6.32,27.79,8.92,10.82,3.23,19.65,5.72,27.8,7.83,10.06,2.61,19.16,4.66,27.83,6.28,10,1.88,19.14,3.25,27.83,4.21a242,242,0,0,0,55.74,0c8.69-1,17.8-2.33,27.83-4.21,8.67-1.62,17.77-3.67,27.83-6.28,8.15-2.11,17-4.6,27.8-7.83,8.71-2.6,17.81-5.52,27.79-8.92,8.37-2.85,17.19-6,27.79-9.85q10.53-3.84,21.07-7.76l6.69-2.48c8.83-3.27,18.3-6.75,27.75-10.12s19-6.88,27.77-10.13l6.69-2.48q10.53-3.9,21.07-7.76c10.57-3.87,19.38-7,27.74-9.83,10-3.4,19-6.31,27.72-8.9,10.79-3.22,19.6-5.7,27.73-7.81,10-2.6,19.07-4.64,27.69-6.25,10-1.87,19-3.24,27.69-4.19a251.81,251.81,0,0,1,27.65-1.59,1,1,0,0,0,0-2,253.46,253.46,0,0,0-27.87,1.6c-8.7,1-17.8,2.34-27.84,4.21-8.66,1.62-17.76,3.68-27.83,6.29-8.14,2.11-17,4.59-27.79,7.82-8.72,2.6-17.81,5.52-27.8,8.92-8.36,2.85-17.19,6-27.78,9.85q-10.53,3.85-21.07,7.77l-6.69,2.47c-8.8,3.26-18.25,6.73-27.75,10.12S952.81,774.3,944,777.56L937.29,780q-10.54,3.9-21.07,7.76c-10.58,3.87-19.39,7-27.74,9.84-10,3.39-19,6.3-27.72,8.9-10.8,3.22-19.61,5.7-27.73,7.8-10,2.6-19.08,4.64-27.69,6.25-10,1.87-19,3.24-27.69,4.19a239.71,239.71,0,0,1-55.3,0c-8.65-.95-17.7-2.32-27.69-4.19C686.05,819,677,816.94,667,814.34c-8.12-2.1-16.93-4.58-27.73-7.8-8.69-2.6-17.76-5.51-27.72-8.9-8.35-2.85-17.16-6-27.74-9.84Q573.25,784,562.71,780L556,777.56c-8.83-3.26-18.31-6.75-27.77-10.13s-18.95-6.86-27.75-10.12l-6.69-2.47q-10.53-3.9-21.07-7.77c-10.59-3.87-19.42-7-27.78-9.85-10-3.4-19.08-6.32-27.8-8.92-10.82-3.23-19.65-5.71-27.79-7.82-10.07-2.61-19.17-4.67-27.83-6.29-10-1.87-19.14-3.25-27.84-4.21a253.46,253.46,0,0,0-27.87-1.6,1,1,0,0,0,0,2Z"/><path d="M316.67,696.83c8.7,0,17.78.46,27,1.36,8.67.84,17.76,2.11,27,3.77,8.6,1.54,17.69,3.48,27,5.77,8.62,2.11,17.46,4.52,27,7.34,8.4,2.48,17.25,5.26,27,8.49,7.89,2.6,16.49,5.53,27.07,9.21q9,3.13,18.05,6.32l9,3.18c8,2.81,17.5,6.12,27.09,9.35s19,6.53,27.08,9.36l8.9,3.12q9.09,3.2,18.18,6.37c10.57,3.68,19.18,6.61,27.1,9.22,9.82,3.24,18.69,6,27.11,8.51,9.61,2.84,18.48,5.25,27.13,7.37,9.37,2.29,18.5,4.24,27.15,5.79,9.29,1.67,18.43,2.95,27.16,3.8,9.26.9,18.4,1.36,27.18,1.36s17.92-.46,27.18-1.36c8.73-.85,17.87-2.13,27.16-3.8,8.65-1.55,17.78-3.5,27.15-5.79,8.65-2.12,17.52-4.53,27.13-7.37,8.42-2.49,17.29-5.27,27.11-8.51,7.92-2.61,16.53-5.54,27.1-9.22q9.09-3.16,18.18-6.37l8.9-3.12c8.06-2.83,17.57-6.15,27.08-9.36s19.07-6.54,27.09-9.35l9-3.18q9-3.17,18-6.32c10.58-3.68,19.18-6.61,27.07-9.21,9.8-3.23,18.65-6,27-8.49,9.58-2.82,18.42-5.23,27-7.34,9.33-2.29,18.42-4.23,27-5.77,9.25-1.66,18.34-2.93,27-3.77,9.2-.9,18.28-1.36,27-1.36a1,1,0,0,0,0-2c-8.77,0-17.91.46-27.18,1.37-8.72.85-17.86,2.12-27.16,3.79-8.64,1.55-17.77,3.5-27.14,5.8-8.65,2.12-17.53,4.53-27.13,7.37-8.43,2.48-17.29,5.27-27.12,8.5-7.89,2.61-16.5,5.53-27.1,9.22l-18,6.33-9,3.17c-8,2.81-17.49,6.12-27.07,9.35s-19,6.53-27.1,9.36l-8.9,3.13q-9.09,3.19-18.18,6.36c-10.56,3.68-19.16,6.61-27.07,9.21-9.8,3.23-18.65,6-27.05,8.49-9.58,2.83-18.42,5.23-27,7.34-9.33,2.29-18.42,4.23-27,5.77-9.24,1.66-18.33,2.93-27,3.78-9.2.9-18.28,1.35-27,1.35s-17.79-.45-27-1.35c-8.67-.85-17.76-2.12-27-3.78-8.6-1.54-17.69-3.48-27-5.77-8.62-2.11-17.46-4.51-27-7.34-8.4-2.48-17.25-5.26-27.05-8.49-7.91-2.6-16.51-5.53-27.07-9.21q-9.09-3.15-18.18-6.36l-8.9-3.13c-8.06-2.83-17.58-6.15-27.1-9.36s-19.06-6.54-27.07-9.35l-9-3.17-18.05-6.33c-10.6-3.69-19.21-6.61-27.1-9.22-9.83-3.23-18.69-6-27.12-8.5-9.6-2.84-18.48-5.25-27.13-7.37-9.37-2.3-18.5-4.25-27.14-5.8-9.3-1.67-18.44-2.94-27.16-3.79-9.27-.91-18.41-1.37-27.18-1.37a1,1,0,1,0,0,2Z"/><path d="M327.5,683.29c8.55,0,17.4.4,26.32,1.19,8.52.76,17.38,1.89,26.33,3.38,8.46,1.4,17.33,3.14,26.35,5.15,8.38,1.88,17.25,4.08,26.36,6.54,7.88,2.13,16.51,4.66,26.37,7.73,8.65,2.69,17.44,5.55,25.94,8.3l.46.16c7.71,2.5,15.54,5.12,23.12,7.66l3.28,1.1c8.46,2.83,17.46,5.83,26.42,8.67s18,5.84,26.39,8.66l3.62,1.21c7.47,2.51,15.19,5.09,22.79,7.56l.46.15c8.51,2.76,17.31,5.61,26,8.31,9.89,3.08,18.54,5.61,26.44,7.75,9.14,2.47,18,4.68,26.45,6.56,9.07,2,18,3.77,26.46,5.18,9,1.49,17.91,2.63,26.49,3.39,9,.8,17.89,1.2,26.49,1.2s17.51-.4,26.49-1.2c8.58-.76,17.49-1.9,26.49-3.39,8.48-1.41,17.39-3.15,26.46-5.18,8.41-1.88,17.31-4.09,26.45-6.56,7.9-2.14,16.55-4.67,26.44-7.75,8.65-2.7,17.45-5.55,26-8.31l.46-.15c7.6-2.47,15.32-5.05,22.79-7.56l3.62-1.21c8.43-2.82,17.41-5.81,26.39-8.66s18-5.84,26.42-8.67l3.28-1.1c7.58-2.54,15.41-5.16,23.12-7.66l.46-.16c8.5-2.75,17.29-5.61,25.94-8.3,9.86-3.07,18.49-5.6,26.37-7.73,9.11-2.46,18-4.66,26.36-6.54,9-2,17.89-3.75,26.35-5.15,9-1.49,17.81-2.62,26.33-3.38,8.92-.79,17.77-1.19,26.32-1.19a1,1,0,0,0,0-2c-8.61,0-17.52.4-26.49,1.2-8.58.76-17.49,1.9-26.49,3.39-8.49,1.41-17.4,3.16-26.46,5.18-8.41,1.89-17.31,4.09-26.45,6.56-7.9,2.14-16.55,4.68-26.44,7.75-8.65,2.7-17.45,5.55-26,8.31l-.47.15c-7.71,2.51-15.55,5.13-23.14,7.67l-3.27,1.1c-8.45,2.83-17.45,5.83-26.39,8.66s-18,5.85-26.42,8.68l-3.62,1.21c-7.47,2.5-15.19,5.08-22.78,7.55l-.46.15c-8.5,2.76-17.29,5.61-25.94,8.3-9.86,3.07-18.49,5.6-26.37,7.73-9.11,2.46-18,4.66-26.36,6.54-9,2-17.9,3.75-26.35,5.16-8.95,1.48-17.81,2.62-26.33,3.37-8.92.79-17.78,1.19-26.32,1.19s-17.4-.4-26.32-1.19c-8.52-.75-17.38-1.89-26.33-3.37-8.45-1.41-17.32-3.14-26.35-5.16-8.38-1.88-17.25-4.08-26.36-6.54-7.88-2.13-16.51-4.66-26.37-7.73-8.65-2.69-17.44-5.54-25.94-8.3l-.46-.15c-7.59-2.47-15.31-5.05-22.78-7.55l-3.62-1.21c-8.43-2.83-17.42-5.82-26.42-8.68s-17.94-5.83-26.39-8.66l-3.27-1.1c-7.59-2.54-15.43-5.16-23.14-7.67l-.47-.15c-8.5-2.76-17.3-5.61-25.95-8.31-9.89-3.07-18.54-5.61-26.44-7.75-9.14-2.47-18-4.67-26.45-6.56-9.06-2-18-3.77-26.46-5.18-9-1.49-17.91-2.63-26.49-3.39-9-.8-17.88-1.2-26.49-1.2a1,1,0,0,0,0,2Z"/><path d="M338.33,669.75c8.26,0,16.89.37,25.65,1.1,8.21.68,16.84,1.71,25.66,3,8.23,1.25,16.63,2.76,25.68,4.61,8.1,1.67,16.5,3.57,25.69,5.81,8,2,16.45,4.18,25.7,6.76,7.67,2.14,15.84,4.52,25.71,7.48q11.46,3.44,22.92,7l2.81.86c8.24,2.52,17,5.19,25.73,7.77s17.47,5.25,25.72,7.77l2.77.84c7.66,2.34,15.31,4.68,23,7,9.85,3,18,5.34,25.74,7.49,9.28,2.59,17.71,4.81,25.77,6.78,9.21,2.25,17.64,4.16,25.76,5.82,9.08,1.87,17.52,3.38,25.78,4.64,8.86,1.34,17.54,2.37,25.8,3.06,8.81.74,17.5,1.11,25.81,1.11s17-.37,25.81-1.11c8.26-.69,16.94-1.72,25.8-3.06,8.26-1.26,16.7-2.77,25.78-4.64,8.12-1.66,16.55-3.57,25.76-5.82,8.06-2,16.49-4.19,25.77-6.78,7.71-2.15,15.89-4.53,25.74-7.49,7.66-2.29,15.31-4.63,23-7l2.77-.84c8.25-2.52,17-5.2,25.72-7.77s17.49-5.25,25.73-7.77l2.81-.86q11.46-3.5,22.92-7c9.87-3,18-5.34,25.71-7.48,9.25-2.58,17.66-4.79,25.7-6.76,9.19-2.24,17.59-4.14,25.69-5.81,9-1.85,17.45-3.36,25.68-4.61,8.82-1.34,17.45-2.37,25.66-3,8.76-.73,17.39-1.1,25.65-1.1a1,1,0,0,0,0-2c-8.31,0-17,.37-25.82,1.11-8.25.68-16.93,1.71-25.79,3.06-8.27,1.25-16.7,2.77-25.78,4.63-8.12,1.67-16.55,3.58-25.77,5.83-8.06,2-16.49,4.18-25.76,6.78-7.68,2.14-15.86,4.52-25.75,7.48-7.64,2.29-15.28,4.63-22.92,7l-2.81.86c-8.24,2.52-17,5.19-25.72,7.76s-17.48,5.25-25.74,7.78l-2.76.84c-7.66,2.34-15.31,4.68-23,7-9.84,3-18,5.32-25.71,7.48-9.26,2.58-17.66,4.79-25.7,6.76-9.19,2.24-17.6,4.14-25.69,5.8-9,1.86-17.45,3.37-25.68,4.62-8.81,1.34-17.45,2.36-25.66,3-8.77.73-17.39,1.1-25.65,1.1s-16.88-.37-25.65-1.1c-8.21-.69-16.85-1.71-25.66-3-8.23-1.25-16.63-2.76-25.68-4.62-8.09-1.66-16.5-3.56-25.69-5.8-8-2-16.44-4.18-25.7-6.76-7.7-2.16-15.87-4.53-25.71-7.48-7.65-2.29-15.3-4.63-23-7l-2.76-.84c-8.26-2.53-17.05-5.2-25.74-7.78S527,707,518.73,704.46l-2.81-.86c-7.64-2.33-15.28-4.67-22.92-7-9.89-3-18.07-5.34-25.75-7.48-9.27-2.6-17.7-4.81-25.76-6.78-9.22-2.25-17.65-4.16-25.77-5.83-9.08-1.86-17.51-3.38-25.78-4.63-8.86-1.35-17.54-2.38-25.79-3.06-8.82-.74-17.51-1.11-25.82-1.11a1,1,0,1,0,0,2Z"/><path d="M349.17,656.21c8,0,16.17.32,25,1,7.87.6,16.05,1.46,25,2.63,7.86,1,16,2.34,25,4,7.49,1.38,15.67,3,25,5.07,8.07,1.74,16.49,3.69,25,5.78,8,2,16.46,4.12,25,6.42q12.52,3.35,25,6.78l16.57,4.53L557.67,697l16.7,4.57q12.52,3.42,25.06,6.79c8.58,2.3,17,4.46,25.07,6.43,8.56,2.09,17,4,25.08,5.79,9.37,2,17.57,3.69,25.08,5.07,9,1.67,17.23,3,25.11,4,9,1.18,17.21,2.05,25.1,2.65,8.84.67,17.06,1,25.13,1s16.29-.33,25.13-1c7.89-.6,16.1-1.47,25.1-2.65,7.88-1,16.09-2.34,25.11-4,7.51-1.38,15.71-3,25.08-5.07,8.09-1.75,16.52-3.7,25.08-5.79,8-2,16.49-4.13,25.07-6.43q12.52-3.36,25.06-6.79l16.7-4.57,16.83-4.61,16.57-4.53q12.53-3.42,25-6.78c8.57-2.3,17-4.46,25-6.42,8.54-2.09,17-4,25-5.78,9.35-2,17.53-3.69,25-5.07,9-1.65,17.14-3,25-4,9-1.17,17.13-2,25-2.63,8.8-.68,17-1,25-1a1,1,0,0,0,0-2c-8,0-16.27.33-25.12,1-7.91.6-16.13,1.47-25.11,2.65-7.89,1-16.11,2.35-25.1,4-7.51,1.38-15.72,3-25.09,5.07-8.08,1.75-16.52,3.7-25.07,5.79-8.06,2-16.5,4.14-25.08,6.44q-12.53,3.35-25,6.78l-16.58,4.54-16.83,4.6-16.7,4.57q-12.52,3.42-25.05,6.78c-8.56,2.3-17,4.46-25,6.43-8.53,2.08-16.95,4-25,5.77-9.35,2-17.54,3.69-25,5.07-9,1.66-17.16,3-25,4-9,1.18-17.14,2-25,2.64-8.8.67-17,1-25,1s-16.18-.32-25-1c-7.85-.6-16-1.46-25-2.64-7.84-1-16-2.33-25-4-7.49-1.38-15.68-3-25-5.07-8.07-1.74-16.49-3.69-25-5.77-8-2-16.47-4.13-25-6.43q-12.53-3.35-25.05-6.78l-16.7-4.57-16.83-4.6L524.79,686q-12.52-3.42-25-6.78c-8.58-2.3-17-4.47-25.08-6.44-8.55-2.09-17-4-25.07-5.79-9.37-2-17.58-3.69-25.09-5.07-9-1.66-17.21-3-25.1-4-9-1.18-17.2-2.05-25.11-2.65-8.85-.67-17.07-1-25.12-1a1,1,0,0,0,0,2Z"/><path d="M360,642.67c7.88,0,16.07.24,24.32.72,7.86.47,16.05,1.16,24.32,2.06,7.83.86,16,1.94,24.33,3.2,7.78,1.19,16,2.59,24.35,4.16,7.79,1.46,15.76,3.07,24.35,4.91,7.65,1.65,15.62,3.44,24.35,5.49,7.27,1.7,15.24,3.62,24.37,5.87q12.18,3,24.37,6.06t24.38,6.06c9.09,2.24,17.07,4.16,24.38,5.87,8.76,2.06,16.74,3.85,24.4,5.5,8.59,1.85,16.57,3.46,24.4,4.92,8.4,1.58,16.61,3,24.4,4.17,8.35,1.27,16.56,2.35,24.42,3.21,8.32.91,16.53,1.6,24.43,2.06,8.28.49,16.5.74,24.43.74s16.15-.25,24.43-.74c7.9-.46,16.11-1.15,24.43-2.06,7.86-.86,16.07-1.94,24.42-3.21,7.79-1.19,16-2.59,24.4-4.17,7.83-1.46,15.81-3.07,24.4-4.92,7.66-1.65,15.64-3.44,24.4-5.5,7.31-1.71,15.29-3.63,24.38-5.87q12.2-3,24.38-6.06t24.37-6.06c9.13-2.25,17.1-4.17,24.37-5.87,8.73-2.05,16.7-3.84,24.35-5.49,8.59-1.84,16.56-3.45,24.35-4.91,8.38-1.57,16.57-3,24.35-4.16,8.32-1.26,16.5-2.34,24.33-3.2,8.27-.9,16.46-1.59,24.32-2.06,8.25-.48,16.44-.72,24.32-.72a1,1,0,0,0,0-2c-7.92,0-16.14.24-24.43.73-7.9.46-16.12,1.16-24.43,2.07-7.85.85-16.07,1.94-24.42,3.21-7.8,1.19-16,2.59-24.4,4.16-7.82,1.47-15.8,3.08-24.4,4.92-7.67,1.65-15.65,3.45-24.4,5.5-7.27,1.7-15.25,3.63-24.38,5.87q-12.2,3-24.38,6.07t-24.37,6.06c-9.09,2.24-17.06,4.16-24.37,5.87-8.75,2-16.71,3.84-24.35,5.48-8.58,1.85-16.55,3.45-24.35,4.92-8.38,1.57-16.57,3-24.35,4.15-8.31,1.27-16.5,2.34-24.33,3.2-8.28.91-16.46,1.6-24.32,2.06-8.25.48-16.43.73-24.32.73s-16.07-.25-24.32-.73c-7.86-.46-16-1.15-24.32-2.06-7.83-.86-16-1.93-24.33-3.2-7.78-1.18-16-2.58-24.35-4.15-7.8-1.47-15.77-3.07-24.35-4.92-7.64-1.64-15.6-3.43-24.35-5.48-7.31-1.71-15.28-3.63-24.37-5.87q-12.18-3-24.37-6.06t-24.38-6.07c-9.13-2.24-17.11-4.17-24.38-5.87-8.75-2-16.73-3.85-24.4-5.5-8.6-1.84-16.58-3.45-24.4-4.92-8.39-1.57-16.6-3-24.4-4.16-8.35-1.27-16.57-2.36-24.42-3.21-8.31-.91-16.53-1.61-24.43-2.07-8.29-.49-16.51-.73-24.43-.73a1,1,0,0,0,0,2Z"/><path d="M370.83,629.12c8.07,0,16,.16,23.66.46,8,.33,16,.82,23.65,1.49,8.11.69,16.07,1.51,23.67,2.4,8.07,1,16,2,23.66,3.24,7.38,1.16,15.12,2.49,23.67,4,7,1.29,14.52,2.73,23.69,4.56,7.18,1.43,14.93,3,23.68,4.95,8,1.75,16.11,3.56,23.69,5.27,7.18,1.62,15.53,3.49,23.7,5.27,8.78,1.91,16.54,3.53,23.72,5,9.17,1.83,16.71,3.27,23.71,4.56,8.57,1.57,16.33,2.9,23.72,4.06,7.66,1.2,15.64,2.29,23.74,3.25,7.62.9,15.6,1.71,23.73,2.41,7.69.67,15.68,1.17,23.74,1.49,7.66.31,15.64.46,23.74.46s16.08-.15,23.74-.46c8.06-.32,16-.82,23.74-1.49,8.13-.7,16.11-1.51,23.73-2.41,8.1-1,16.08-2,23.74-3.25,7.39-1.16,15.15-2.49,23.72-4.06,7-1.29,14.54-2.73,23.71-4.56,7.18-1.43,14.94-3,23.72-5,8.17-1.78,16.52-3.65,23.7-5.27,7.58-1.71,15.65-3.52,23.69-5.27,8.75-1.9,16.5-3.52,23.68-4.95,9.17-1.83,16.7-3.27,23.69-4.56,8.55-1.56,16.29-2.89,23.67-4,7.63-1.19,15.59-2.28,23.66-3.24,7.6-.89,15.56-1.71,23.67-2.4,7.66-.67,15.62-1.16,23.65-1.49,7.63-.3,15.59-.46,23.66-.46a1,1,0,0,0,0-2c-8.1,0-16.08.16-23.74.47-8.06.32-16,.82-23.74,1.48-8.13.7-16.11,1.52-23.73,2.42-8.1,1-16.08,2-23.74,3.25-7.4,1.16-15.16,2.49-23.72,4.06-7,1.28-14.54,2.73-23.72,4.55-7.19,1.44-14.95,3.06-23.71,5-8.05,1.75-16.12,3.56-23.71,5.27-7.18,1.61-15.52,3.49-23.69,5.26-8.77,1.91-16.51,3.53-23.68,5-9.16,1.82-16.69,3.27-23.68,4.55-8.55,1.57-16.29,2.9-23.67,4-7.63,1.2-15.59,2.29-23.66,3.24-7.6.9-15.56,1.71-23.67,2.41-7.67.66-15.62,1.16-23.65,1.48-7.63.31-15.59.46-23.66.46s-16-.15-23.66-.46c-8-.32-16-.82-23.65-1.48-8.11-.7-16.07-1.51-23.67-2.41-8.07-.95-16-2-23.66-3.24-7.38-1.15-15.12-2.48-23.67-4-7-1.28-14.52-2.73-23.68-4.55-7.17-1.43-14.91-3-23.68-5-8.17-1.77-16.51-3.65-23.69-5.26-7.59-1.71-15.66-3.52-23.71-5.27-8.76-1.91-16.52-3.53-23.71-5-9.18-1.82-16.71-3.27-23.72-4.55-8.56-1.57-16.32-2.9-23.72-4.06-7.66-1.2-15.64-2.29-23.74-3.25-7.62-.9-15.6-1.72-23.73-2.42-7.69-.66-15.68-1.16-23.74-1.48-7.66-.31-15.64-.47-23.74-.47a1,1,0,0,0,0,2Z"/><path d="M381.67,615.58c7.62,0,15.36.12,23,.36s15.38.6,23,1.07,15.34,1.07,23,1.78,15.36,1.55,23,2.5,15.38,2,23,3.07,15.39,2.26,23,3.49,15.35,2.55,23,3.93,15.35,2.83,23,4.35,15.39,3,23,4.36,15.36,2.69,23,3.93,15.43,2.42,23,3.5,15.4,2.13,23,3.08,15.4,1.79,23.05,2.5,15.4,1.31,23.06,1.79,15.41.83,23.05,1.07,15.41.36,23,.36,15.39-.12,23-.36,15.4-.6,23.05-1.07,15.42-1.08,23.06-1.79,15.41-1.56,23.05-2.5,15.39-2,23-3.08,15.35-2.26,23-3.5,15.43-2.56,23-3.93,15.4-2.84,23-4.36,15.39-3,23-4.35,15.4-2.7,23-3.93,15.35-2.4,23-3.49,15.36-2.12,23-3.07,15.37-1.79,23-2.5,15.39-1.31,23-1.78,15.35-.83,23-1.07,15.37-.36,23-.36a1,1,0,0,0,0-2c-7.64,0-15.4.12-23,.36s-15.42.6-23,1.07-15.38,1.08-23,1.79-15.4,1.55-23,2.5-15.41,2-23,3.08-15.42,2.27-23,3.5-15.38,2.55-23,3.93-15.37,2.84-23,4.36-15.37,3-23,4.35-15.34,2.69-23,3.93-15.41,2.41-23,3.49-15.37,2.12-23,3.07-15.35,1.79-23,2.5-15.35,1.31-23,1.78-15.37.83-23,1.07-15.37.36-23,.36-15.35-.12-23-.36-15.35-.6-23-1.07-15.37-1.07-23-1.78S665.66,650,658,649s-15.37-2-23-3.07-15.34-2.26-23-3.49-15.4-2.56-23-3.93-15.37-2.84-23-4.35-15.42-3-23-4.36-15.42-2.7-23-3.93-15.37-2.41-23-3.5-15.38-2.13-23-3.08-15.4-1.79-23.05-2.5-15.42-1.31-23.05-1.79-15.38-.83-23-1.07-15.41-.36-23.05-.36a1,1,0,1,0,0,2Z"/><path d="M392.5,602c7.22,0,14.73.09,22.32.27,7.17.16,14.68.41,22.33.74,7.23.31,14.74.72,22.31,1.24,7.22.49,14.73,1.08,22.33,1.76,7.07.64,14.68,1.33,22.33,2.1,8.23.83,15.53,1.66,22.32,2.52,6.58.85,14.38,1.86,22.33,3,8.16,1.16,15.46,2.28,22.31,3.45s14.18,2.3,22.37,3.46,16.19,2.2,22.36,3c6.82.88,14.14,1.7,22.37,2.53,7.66.78,15.27,1.47,22.36,2.1,7.61.69,15.13,1.28,22.36,1.77,7.61.52,15.14.94,22.37,1.24,7.67.33,15.19.58,22.36.75,7.63.17,15.16.26,22.37.26s14.74-.09,22.37-.26c7.17-.17,14.69-.42,22.36-.75,7.23-.3,14.76-.72,22.37-1.24,7.23-.49,14.75-1.08,22.36-1.77,7.09-.63,14.7-1.32,22.36-2.1,8.23-.83,15.55-1.65,22.37-2.53,6.17-.78,14.28-1.83,22.36-3s15.51-2.29,22.37-3.46,14.15-2.29,22.31-3.45c7.95-1.12,15.75-2.13,22.33-3,6.79-.86,14.09-1.69,22.32-2.52,7.65-.77,15.26-1.46,22.33-2.1,7.6-.68,15.11-1.27,22.33-1.76,7.57-.52,15.08-.93,22.31-1.24,7.65-.33,15.16-.58,22.33-.74,7.59-.18,15.1-.27,22.32-.27a1,1,0,0,0,0-2c-7.24,0-14.76.09-22.37.27-7.18.16-14.71.41-22.36.74-7.26.31-14.78.73-22.37,1.24-7.23.49-14.75,1.09-22.36,1.77-7.09.63-14.7,1.33-22.36,2.1-8.25.83-15.57,1.66-22.37,2.53-6.59.84-14.4,1.86-22.36,3-8.18,1.16-15.5,2.29-22.37,3.46s-14.14,2.3-22.31,3.45-16.17,2.19-22.33,3c-6.81.87-14.11,1.7-22.32,2.52-7.65.78-15.26,1.47-22.33,2.1-7.6.68-15.11,1.28-22.33,1.77-7.59.51-15.1.93-22.31,1.24-7.66.32-15.17.57-22.33.74-7.61.17-15.12.26-22.32.26s-14.71-.09-22.32-.26c-7.16-.17-14.67-.42-22.33-.74-7.21-.31-14.72-.73-22.31-1.24-7.22-.49-14.73-1.09-22.33-1.77-7.07-.63-14.68-1.32-22.33-2.1-8.21-.82-15.51-1.65-22.32-2.52-6.16-.79-14.26-1.84-22.33-3s-15.47-2.28-22.31-3.45-14.19-2.3-22.37-3.46c-8-1.12-15.77-2.14-22.36-3-6.8-.87-14.12-1.7-22.37-2.53-7.66-.77-15.27-1.47-22.36-2.1-7.61-.68-15.13-1.28-22.36-1.77-7.59-.51-15.11-.93-22.37-1.24-7.65-.33-15.18-.58-22.36-.74-7.61-.18-15.13-.27-22.37-.27a1,1,0,0,0,0,2Z"/><path d="M403.33,588.5c7.42,0,14.7,0,21.66.1,7.37.08,14.66.19,21.65.34,7.39.17,14.68.38,21.66.63,7.34.27,14.62.59,21.65,1,7.32.39,14.6.84,21.65,1.34,7.27.52,14.55,1.11,21.64,1.77,7.32.67,14.61,1.43,21.65,2.24,7.3.84,14.59,1.78,21.64,2.77s14.4,1.93,21.69,2.77c7.1.82,14.39,1.57,21.69,2.25,7.05.65,14.35,1.24,21.69,1.77,7,.5,14.35.95,21.68,1.34,7,.37,14.33.69,21.68,1,7.06.26,14.36.47,21.68.63,6.93.15,14.22.27,21.68.34,7,.07,14.06.1,21.68.1s14.71,0,21.68-.1c7.46-.07,14.75-.19,21.68-.34,7.32-.16,14.62-.37,21.68-.63,7.35-.27,14.64-.59,21.68-1,7.33-.39,14.63-.84,21.68-1.34,7.34-.53,14.64-1.12,21.69-1.77,7.3-.68,14.59-1.43,21.69-2.25,7.29-.84,14.59-1.77,21.69-2.77s14.34-1.93,21.64-2.77c7-.81,14.33-1.57,21.65-2.24,7.09-.66,14.37-1.25,21.64-1.77,7.05-.5,14.33-1,21.65-1.34,7-.37,14.31-.69,21.65-1,7-.25,14.27-.46,21.66-.63,7-.15,14.28-.26,21.65-.34,7-.06,14.24-.1,21.66-.1a1,1,0,0,0,0-2c-7.42,0-14.72,0-21.68.1-7.38.08-14.67.19-21.68.34-7.4.17-14.69.38-21.68.63-7.35.27-14.65.59-21.68,1-7.34.39-14.63.84-21.69,1.35-7.29.52-14.58,1.11-21.69,1.77-7.33.67-14.63,1.43-21.68,2.24-7.33.85-14.63,1.78-21.7,2.78s-14.37,1.92-21.64,2.76c-7.08.82-14.36,1.57-21.64,2.24-7,.66-14.33,1.25-21.65,1.77-7,.51-14.32,1-21.65,1.34-7,.37-14.31.7-21.65,1-7,.26-14.33.47-21.65.63-6.92.15-14.2.27-21.65.34-7,.07-14,.1-21.66.1s-14.7,0-21.66-.1c-7.45-.07-14.73-.19-21.65-.34-7.32-.16-14.61-.37-21.65-.63-7.34-.26-14.63-.59-21.65-1-7.33-.38-14.61-.83-21.65-1.34-7.32-.52-14.61-1.11-21.65-1.77-7.28-.67-14.56-1.42-21.64-2.24-7.27-.84-14.55-1.77-21.64-2.76s-14.37-1.93-21.7-2.78c-7.05-.81-14.35-1.57-21.68-2.24-7.11-.66-14.4-1.25-21.69-1.77-7.06-.51-14.35-1-21.69-1.35-7-.37-14.33-.69-21.68-1-7-.25-14.28-.46-21.68-.63-7-.15-14.3-.26-21.68-.34-7-.06-14.26-.1-21.68-.1a1,1,0,1,0,0,2Z"/><path d="M414.17,575c6.08,0,12.25-.06,18.23-.12l2.77,0c6.71-.07,13.85-.12,21-.08l7.07,0q7,0,13.91.1c8.15.09,14.81.24,21,.5,8.07.33,14.74.62,21,.92,7.51.37,14.37.74,21,1.15,7.22.44,14.27.94,21,1.49,7.17.59,14.22,1.27,21,2s13.81,1.41,21,2c6.7.55,13.77,1.06,21,1.5,6.61.41,13.48.78,21,1.15,6.29.3,13.15.61,21,.93,6.15.25,12.83.41,21,.5,4.67.05,9.33.07,14,.1l7,0c7.2.05,14.33,0,21-.07l2.93,0c5.92-.06,12-.11,18-.11s12.13,0,18,.11l2.93,0c4.94,0,10.12.09,15.38.09l5.63,0,7,0c4.67,0,9.33,0,14-.1,8.19-.09,14.87-.25,21-.5,7.85-.32,14.71-.63,21-.93,7.52-.37,14.39-.74,21-1.15,7.24-.44,14.31-1,21-1.5,7.2-.59,14.27-1.27,21-2s13.8-1.41,21-2c6.7-.55,13.75-1.05,21-1.49,6.6-.41,13.46-.78,21-1.15,6.25-.3,12.92-.59,21-.92,6.15-.26,12.81-.41,21-.5q6.95-.07,13.91-.1l7.07,0c7.12,0,14.26,0,21,.08l2.77,0c6,.06,12.15.12,18.23.12a1,1,0,0,0,0-2c-6.07,0-12.24-.06-18.21-.12l-2.77,0c-6.71-.07-13.87-.12-21-.08l-7.07,0q-7,0-13.93.1c-8.16.09-14.84.25-21,.5-8.07.33-14.74.62-21,.93-7.53.36-14.4.73-21,1.14-7.22.44-14.29.95-21,1.5-7.18.59-14.25,1.27-21,2s-13.78,1.41-21,2c-6.69.55-13.74,1-21,1.5-6.6.4-13.46.78-21,1.14-6.28.3-13.14.61-21,.93-6.13.25-12.79.41-21,.5-4.67.05-9.33.07-14,.1l-7,0c-7.17.05-14.29,0-21-.07l-2.93,0C762.15,585,756,585,750,585s-12.15,0-18.07.11l-2.93,0c-6.68.06-13.79.12-21,.07l-7,0c-4.66,0-9.32,0-14-.1-8.17-.09-14.83-.25-21-.5-7.84-.32-14.7-.63-21-.93-7.52-.36-14.38-.74-21-1.14-7.23-.45-14.28-1-21-1.5-7.18-.59-14.24-1.26-21-2s-13.83-1.41-21-2c-6.72-.55-13.79-1.06-21-1.5-6.61-.41-13.48-.78-21-1.14-6.25-.31-12.92-.6-21-.93-6.18-.25-12.86-.41-21-.5q-7-.07-13.93-.1l-7.07,0c-7.13,0-14.28,0-21,.08l-2.77,0c-6,.06-12.14.12-18.21.12a1,1,0,0,0,0,2Z"/><path d="M425,561.42c7.28,0,14.36-.07,20.32-.13l8.23-.09,12.08-.13c7.94-.08,14.39-.1,20.3-.08,7.35,0,14,.12,20.29.3,6.77.19,13.55.34,20.32.49H527q9.91.23,19.83.48c7.57.22,14.21.45,20.29.73,7.29.34,13.92.73,20.29,1.21s13,.87,20.34,1.21c6.14.28,12.6.51,20.33.73,6.77.19,13.54.34,20.32.49s13.53.3,20.3.49c6.3.18,12.95.28,20.34.3,5.93,0,12.2,0,20.32-.08l12.19-.13,8.13-.09c6-.06,13-.13,20.3-.13s14.34.07,20.3.13l8.13.09,12.19.13c6.25.06,11.4.09,16.15.09h4.17c7.39,0,14-.12,20.34-.3,6.77-.19,13.54-.34,20.3-.49s13.55-.3,20.32-.49c7.73-.22,14.19-.45,20.33-.73,7.31-.34,14-.73,20.34-1.21s13-.87,20.29-1.21c6.08-.28,12.72-.51,20.29-.73q9.92-.27,19.83-.48h.48c6.77-.15,13.55-.3,20.32-.49,6.3-.18,12.94-.28,20.29-.3,5.91,0,12.36,0,20.3.08l12.08.13,8.23.09c6,.06,13,.13,20.32.13a1,1,0,0,0,0-2c-7.27,0-14.34-.07-20.3-.13l-8.22-.09-12.1-.13c-7.94-.08-14.4-.1-20.32-.08-7.36,0-14,.12-20.34.3-6.77.19-13.54.34-20.3.49h-.48q-9.93.23-19.84.48c-7.59.22-14.24.46-20.33.73-7.31.34-14,.73-20.34,1.21s-13,.87-20.29,1.21c-6.13.28-12.58.51-20.29.73-6.77.19-13.54.34-20.31.49s-13.55.3-20.32.49c-6.28.18-12.91.28-20.29.3-5.92,0-12.18,0-20.3-.08l-12.18-.13-8.13-.09c-6-.06-13-.13-20.32-.13s-14.36.07-20.32.13l-8.13.09-12.18.13c-8.12.08-14.38.1-20.3.08-7.38,0-14-.12-20.29-.3-6.77-.19-13.55-.34-20.32-.49s-13.54-.3-20.31-.49c-7.71-.22-14.16-.45-20.29-.73-7.29-.34-13.92-.73-20.29-1.21s-13-.87-20.34-1.21c-6.09-.27-12.74-.51-20.33-.73q-9.92-.27-19.84-.48h-.48c-6.76-.15-13.53-.3-20.3-.49-6.32-.18-13-.28-20.34-.3-5.92,0-12.38,0-20.32.08l-12.1.13-8.22.09c-6,.06-13,.13-20.3.13a1,1,0,0,0,0,2Z"/><path d="M435.83,547.88c6.55,0,13.1,0,19.65-.08l5.81,0,13.82-.08q9.81-.06,19.63-.06c7.21,0,13.62.06,19.62.14,6.55.1,13.21.1,19.65.1s13.08,0,19.62.09l11.67.13c2.66,0,5.31,0,8,.08,5.41.06,12.53.17,19.61.44s13.88.38,19.66.45l8,.08,11.66.13c6.56.1,13.21.09,19.65.09s13.09,0,19.62.1c6,.08,12.44.13,19.65.13,6.56,0,13.1,0,19.64-.05l13.82-.08,5.82,0q19.64-.12,39.26,0l5.82,0,13.82.08c5.91,0,11.82.06,17.73.06h1.91c7.21,0,13.64-.05,19.65-.13,6.53-.1,13.19-.09,19.62-.1s13.09,0,19.65-.09l11.66-.13,8-.08c5.78-.07,12.63-.17,19.66-.45s14.2-.38,19.61-.44c2.66,0,5.31-.06,8-.08l11.67-.13c6.54-.1,13.19-.09,19.62-.09s13.1,0,19.65-.1c6-.08,12.41-.13,19.62-.14q9.82,0,19.63.06l13.82.08,5.81,0c6.55,0,13.1.08,19.65.08a1,1,0,0,0,0-2c-6.55,0-13.09,0-19.63-.08l-5.82,0-13.82-.08q-9.83-.06-19.64-.06c-7.22,0-13.64.06-19.65.14-6.54.1-13.19.09-19.62.1s-13.1,0-19.65.09l-11.66.13c-2.66,0-5.32,0-8,.08-5.43.06-12.56.17-19.67.45s-13.84.38-19.6.44l-8,.08-11.67.13c-6.54.1-13.19.09-19.62.09s-13.1,0-19.65.1c-6,.08-12.42.13-19.62.13-6.55,0-13.09,0-19.63-.05l-13.82-.08-5.82,0q-19.64-.12-39.28,0l-5.82,0-13.82.08c-6.54,0-13.08.06-19.63.05-7.2,0-13.62-.05-19.62-.13-6.55-.1-13.21-.09-19.65-.1s-13.08,0-19.62-.09l-11.67-.13-8-.08c-5.76-.06-12.6-.17-19.6-.44s-14.24-.39-19.67-.45c-2.65,0-5.31-.06-8-.08L553.66,546c-6.55-.1-13.21-.1-19.65-.09s-13.08,0-19.62-.1c-6-.08-12.43-.13-19.65-.14q-9.81,0-19.64.06l-13.82.08-5.82,0c-6.54,0-13.08.08-19.63.08a1,1,0,0,0,0,2Z"/><path d="M446.67,534.33h606.66a1,1,0,0,0,0-2H446.67a1,1,0,1,0,0,2Z"/></svg>