<svg id="Abstract_Shape" data-name="Abstract Shape" xmlns="http://www.w3.org/2000/svg" viewBox="0 0 1500 1500"><rect x="250" y="1249.66" width="999.24" height="0.34"/><polygon points="808.76 1188.15 691.99 1188.15 712.51 1208.33 250 1208.33 250 1209.44 713.64 1209.44 725.5 1221.1 775.26 1221.1 787.12 1209.44 1249.24 1209.44 1249.24 1208.33 788.25 1208.33 808.76 1188.15"/><polygon points="849.66 1147.93 651.1 1147.93 670.14 1166.66 250 1166.66 250 1169.22 672.74 1169.22 683.12 1179.43 817.64 1179.43 828.02 1169.22 1249.24 1169.22 1249.24 1166.66 830.62 1166.66 849.66 1147.93"/><polygon points="890.56 1107.71 610.2 1107.71 627.77 1125 250 1125 250 1128.99 631.84 1128.99 640.75 1137.77 860 1137.77 868.92 1128.99 1249.24 1128.99 1249.24 1125 872.99 1125 890.56 1107.71"/><polygon points="931.46 1067.49 569.3 1067.49 585.4 1083.33 250 1083.33 250 1088.78 590.94 1088.78 598.38 1096.1 902.38 1096.1 909.82 1088.78 1249.24 1088.78 1249.24 1083.33 915.36 1083.33 931.46 1067.49"/><polygon points="972.36 1027.28 528.4 1027.28 543.03 1041.66 250 1041.66 250 1048.56 550.04 1048.56 556.01 1054.43 944.75 1054.43 950.72 1048.56 1249.24 1048.56 1249.24 1041.66 957.73 1041.66 972.36 1027.28"/><polygon points="1013.26 987.06 487.5 987.06 500.66 1000 250 1000 250 1008.34 509.14 1008.34 513.64 1012.76 987.12 1012.76 991.62 1008.34 1249.24 1008.34 1249.24 1000 1000.1 1000 1013.26 987.06"/><polygon points="1054.16 946.84 446.6 946.84 458.29 958.33 250 958.33 250 968.12 468.24 968.12 471.27 971.1 1029.49 971.1 1032.52 968.12 1249.24 968.12 1249.24 958.33 1042.47 958.33 1054.16 946.84"/><polygon points="1095.06 906.62 405.7 906.62 415.92 916.66 250 916.66 250 927.9 427.34 927.9 428.9 929.43 1071.86 929.43 1073.42 927.9 1249.24 927.9 1249.24 916.66 1084.84 916.66 1095.06 906.62"/><polygon points="1135.96 866.4 364.8 866.4 373.55 875 250 875 250 887.68 386.44 887.68 386.53 887.77 1114.23 887.77 1114.32 887.68 1249.24 887.68 1249.24 875 1127.21 875 1135.96 866.4"/><polygon points="1176.85 826.18 323.9 826.18 331.18 833.33 250 833.33 250 847.46 345.54 847.46 344.16 846.1 1156.6 846.1 1155.21 847.46 1249.24 847.46 1249.24 833.33 1169.58 833.33 1176.85 826.18"/><polygon points="1217.75 785.96 283 785.96 288.8 791.66 250 791.66 250 807.24 304.64 807.24 301.79 804.43 1198.97 804.43 1196.11 807.24 1249.24 807.24 1249.24 791.66 1211.95 791.66 1217.75 785.96"/><polygon points="259.42 762.76 1241.34 762.76 1237.02 767.02 1249.24 767.02 1249.24 755 1250 754.25 1249.24 753.51 1249.24 750 1245.67 750 1241.34 745.74 259.42 745.74 255.08 750 250 750 250 767.02 263.75 767.02 259.42 762.76"/><polygon points="284.48 721.1 1216.28 721.1 1219.48 724.25 1222.08 726.8 1249.24 726.8 1249.24 708.33 1203.3 708.33 1200.44 705.52 300.32 705.52 297.46 708.33 250 708.33 250 726.8 278.68 726.8 284.48 721.1"/><polygon points="326.85 679.43 1173.91 679.43 1181.18 686.58 1249.24 686.58 1249.24 666.67 1160.93 666.67 1159.54 665.3 341.21 665.3 339.83 666.67 250 666.67 250 686.58 319.57 686.58 326.85 679.43"/><polygon points="369.22 637.77 1131.54 637.77 1140.28 646.36 1249.24 646.36 1249.24 625 1118.56 625 1118.64 625.09 382.11 625.09 382.2 625 250 625 250 646.36 360.48 646.36 369.22 637.77"/><polygon points="411.59 596.1 1089.17 596.1 1099.38 606.15 1249.24 606.15 1249.24 583.33 1076.19 583.33 1077.74 584.87 423.01 584.87 424.57 583.33 250 583.33 250 606.15 401.37 606.15 411.59 596.1"/><polygon points="453.96 554.43 1046.8 554.43 1058.49 565.93 1249.24 565.93 1249.24 541.66 1033.82 541.66 1036.85 544.65 463.91 544.65 466.94 541.66 250 541.66 250 565.93 442.27 565.93 453.96 554.43"/><polygon points="496.33 512.77 1004.43 512.77 1017.59 525.71 1249.24 525.71 1249.24 500 991.44 500 995.95 504.43 504.81 504.43 509.31 500 250 500 250 525.71 483.17 525.71 496.33 512.77"/><polygon points="538.7 471.1 962.06 471.1 976.69 485.49 1249.24 485.49 1249.24 458.33 949.07 458.33 955.05 464.21 545.71 464.21 551.68 458.33 250 458.33 250 485.49 524.07 485.49 538.7 471.1"/><polygon points="581.07 429.43 919.69 429.43 935.79 445.27 1249.24 445.27 1249.24 416.67 906.7 416.67 914.15 423.99 586.61 423.99 594.05 416.67 250 416.67 250 445.27 564.97 445.27 581.07 429.43"/><polygon points="623.44 387.77 877.32 387.77 894.89 405.05 1249.24 405.05 1249.24 375 864.33 375 873.25 383.77 627.51 383.77 636.42 375 250 375 250 405.05 605.87 405.05 623.44 387.77"/><polygon points="665.81 346.1 834.95 346.1 853.99 364.83 1249.24 364.83 1249.24 333.33 821.96 333.33 832.35 343.55 668.41 343.55 678.8 333.33 250 333.33 250 364.83 646.77 364.83 665.81 346.1"/><polygon points="708.18 304.44 792.57 304.44 813.09 324.61 1249.24 324.61 1249.24 291.67 779.59 291.67 791.45 303.33 709.31 303.33 721.17 291.67 250 291.67 250 324.61 687.67 324.61 708.18 304.44"/><polygon points="750.2 263.11 750.55 263.11 772.19 284.39 1249.24 284.39 1249.24 250 250 250 250 284.39 728.56 284.39 750.2 263.11"/><polygon points="754.71 1241.31 767.87 1228.37 732.89 1228.37 746.05 1241.31 750.38 1245.57 754.71 1241.31"/></svg>