<svg id="Abstract_Shape" data-name="Abstract Shape" xmlns="http://www.w3.org/2000/svg" viewBox="0 0 1500 1500"><path d="M250,995.65c3.16,4.66,4.74,6.94,7.9,11.38V951.19c-3.16-4.44-4.74-6.71-7.9-11.37Z"/><path d="M289.53,991.35v55.84a311.25,311.25,0,0,0,26.68,27.52v-55.83A311.43,311.43,0,0,1,289.53,991.35Z"/><path d="M347.83,1100.29a321.18,321.18,0,0,0,45.45,24.45v-55.83a322.2,322.2,0,0,1-45.45-24.45Z"/><path d="M424.9,1078.13V1134a257.17,257.17,0,0,0,64.23,1.62v-55.84A256.69,256.69,0,0,1,424.9,1078.13Z"/><path d="M520.75,1129.09c29.19-7.76,56.4-20.85,83-34.88v-55.83c-26.6,14-53.81,27.12-83,34.88Z"/><path d="M635.38,1075.69c34.9-22.16,68.44-46.13,101.77-70.58V949.28c-33.33,24.44-66.87,48.42-101.77,70.58Z"/><path d="M768.77,981.83c39.17-28.61,78.64-56.44,120.56-80.89V845.1c-41.92,24.46-81.39,52.28-120.56,80.9Z"/><path d="M921,828.55v55.84c45.37-20.47,89.32-32.7,139.33-29.35V799.2C1010.27,795.85,966.32,808.09,921,828.55Z"/><path d="M1091.9,805.66v55.83c69.21,20.63,117.89,77.36,158.1,134.16V939.82C1209.79,883,1161.11,826.29,1091.9,805.66Z"/><path d="M250,908.55c3.16,4.66,4.74,6.94,7.9,11.38V864.09c-3.16-4.44-4.74-6.71-7.9-11.37Z"/><path d="M289.53,904.25v55.84a311.25,311.25,0,0,0,26.68,27.52V931.78A311.43,311.43,0,0,1,289.53,904.25Z"/><path d="M347.83,1013.19a321.18,321.18,0,0,0,45.45,24.45V981.8a320.17,320.17,0,0,1-45.45-24.45Z"/><path d="M424.9,991v55.84a257.17,257.17,0,0,0,64.23,1.62V992.64A256.22,256.22,0,0,1,424.9,991Z"/><path d="M520.75,1042c29.19-7.76,56.4-20.85,83-34.88V951.28c-26.6,14-53.81,27.12-83,34.88Z"/><path d="M635.38,988.59c34.9-22.16,68.44-46.13,101.77-70.58V862.18c-33.33,24.44-66.87,48.42-101.77,70.58Z"/><path d="M768.77,894.73c39.17-28.61,78.64-56.44,120.56-80.89V758c-41.92,24.46-81.39,52.28-120.56,80.9Z"/><path d="M921,741.45v55.84c45.37-20.47,89.32-32.71,139.33-29.36V712.1C1010.27,708.75,966.32,721,921,741.45Z"/><path d="M1091.9,718.56v55.83c69.21,20.63,117.89,77.36,158.1,134.16V852.72C1209.79,795.92,1161.11,739.19,1091.9,718.56Z"/><path d="M250,821.45c3.16,4.66,4.74,6.93,7.9,11.38V777c-3.16-4.44-4.74-6.71-7.9-11.37Z"/><path d="M289.53,817.15V873a311.43,311.43,0,0,0,26.68,27.53V844.68A311.43,311.43,0,0,1,289.53,817.15Z"/><path d="M347.83,926.09a321.18,321.18,0,0,0,45.45,24.45V894.7a320.17,320.17,0,0,1-45.45-24.45Z"/><path d="M424.9,903.92v55.84a257.17,257.17,0,0,0,64.23,1.62V905.54A256.22,256.22,0,0,1,424.9,903.92Z"/><path d="M520.75,954.89c29.19-7.76,56.4-20.85,83-34.88V864.18c-26.6,14-53.81,27.11-83,34.88Z"/><path d="M635.38,901.49c34.9-22.16,68.44-46.14,101.77-70.58V775.08c-33.33,24.44-66.87,48.42-101.77,70.58Z"/><path d="M768.77,807.63c39.17-28.61,78.64-56.43,120.56-80.89V670.9c-41.92,24.46-81.39,52.28-120.56,80.9Z"/><path d="M921,654.35v55.84c45.37-20.47,89.32-32.71,139.33-29.36V625C1010.27,621.65,966.32,633.89,921,654.35Z"/><path d="M1091.9,631.45v55.84c69.21,20.63,117.89,77.36,158.1,134.16V765.62C1209.79,708.82,1161.11,652.09,1091.9,631.45Z"/><path d="M250,734.35c3.16,4.66,4.74,6.93,7.9,11.37V689.89c-3.16-4.44-4.74-6.72-7.9-11.38Z"/><path d="M289.53,730.05v55.83a311.43,311.43,0,0,0,26.68,27.53V757.57A309.88,309.88,0,0,1,289.53,730.05Z"/><path d="M347.83,839a321.18,321.18,0,0,0,45.45,24.45V807.6a321.18,321.18,0,0,1-45.45-24.45Z"/><path d="M424.9,816.82v55.84a257.17,257.17,0,0,0,64.23,1.62V818.44A256.22,256.22,0,0,1,424.9,816.82Z"/><path d="M520.75,867.79c29.19-7.76,56.4-20.85,83-34.88V777.08c-26.6,14-53.81,27.11-83,34.87Z"/><path d="M635.38,814.39c34.9-22.16,68.44-46.14,101.77-70.58V688c-33.33,24.45-66.87,48.42-101.77,70.58Z"/><path d="M768.77,720.53c39.17-28.61,78.64-56.44,120.56-80.89V583.8c-41.92,24.46-81.39,52.28-120.56,80.9Z"/><path d="M921,567.25v55.84c45.37-20.47,89.32-32.71,139.33-29.36V537.9C1010.27,534.55,966.32,546.79,921,567.25Z"/><path d="M1091.9,544.35v55.84c69.21,20.63,117.89,77.36,158.1,134.16V678.51C1209.79,621.71,1161.11,565,1091.9,544.35Z"/><path d="M250,647.25c3.16,4.66,4.74,6.93,7.9,11.37V602.79c-3.16-4.44-4.74-6.72-7.9-11.38Z"/><path d="M289.53,643v55.83a311.43,311.43,0,0,0,26.68,27.53V670.47A311.25,311.25,0,0,1,289.53,643Z"/><path d="M347.83,751.88a320.17,320.17,0,0,0,45.45,24.45V720.5a321.18,321.18,0,0,1-45.45-24.45Z"/><path d="M424.9,729.72v55.83a256.22,256.22,0,0,0,64.23,1.62V731.34A257.17,257.17,0,0,1,424.9,729.72Z"/><path d="M520.75,780.69c29.19-7.76,56.4-20.86,83-34.88V690c-26.6,14-53.81,27.12-83,34.88Z"/><path d="M635.38,727.29c34.9-22.16,68.44-46.14,101.77-70.58V600.87c-33.33,24.45-66.87,48.42-101.77,70.58Z"/><path d="M768.77,633.43c39.17-28.62,78.64-56.44,120.56-80.9V496.7c-41.92,24.46-81.39,52.28-120.56,80.89Z"/><path d="M921,480.15V536c45.37-20.46,89.32-32.7,139.33-29.35V450.79C1010.27,447.44,966.32,459.68,921,480.15Z"/><path d="M1091.9,457.25v55.83c69.21,20.64,117.89,77.37,158.1,134.17V591.41C1209.79,534.61,1161.11,477.88,1091.9,457.25Z"/><path d="M250,560.14c3.16,4.66,4.74,6.94,7.9,11.38V515.69c-3.16-4.44-4.74-6.72-7.9-11.38Z"/><path d="M289.53,555.84v55.84a311.43,311.43,0,0,0,26.68,27.53V583.37A311.43,311.43,0,0,1,289.53,555.84Z"/><path d="M347.83,664.78a321.18,321.18,0,0,0,45.45,24.45V633.4A321.18,321.18,0,0,1,347.83,609Z"/><path d="M424.9,642.62v55.83a256.22,256.22,0,0,0,64.23,1.62V644.24A257.17,257.17,0,0,1,424.9,642.62Z"/><path d="M520.75,693.58c29.19-7.75,56.4-20.85,83-34.87V602.87c-26.6,14-53.81,27.12-83,34.88Z"/><path d="M635.38,640.18c34.9-22.15,68.44-46.13,101.77-70.57V513.77c-33.33,24.45-66.87,48.42-101.77,70.58Z"/><path d="M768.77,546.33c39.17-28.62,78.64-56.44,120.56-80.9V409.6c-41.92,24.45-81.39,52.28-120.56,80.89Z"/><path d="M1060.28,419.53V363.69c-50-3.35-94,8.89-139.33,29.36v55.83C966.32,428.42,1010.27,416.18,1060.28,419.53Z"/><path d="M1250,560.14V504.31c-40.21-56.8-88.89-113.53-158.1-134.16V426C1161.11,446.61,1209.79,503.34,1250,560.14Z"/></svg>