<svg id="Abstract_Shape" data-name="Abstract Shape" xmlns="http://www.w3.org/2000/svg" viewBox="0 0 1500 1500"><path d="M1213,554.4A504.16,504.16,0,1,0,1252.5,750,500.89,500.89,0,0,0,1213,554.4ZM722.51,252.25c-2.83,18.65-5.59,38-8.22,57.72-3.22,0-6.45,0-9.66-.06-6.93-.05-14.07-.1-21.16.07,5.24-19.06,10.8-37.88,16.54-56C707.46,253.24,715,252.66,722.51,252.25ZM534.58,494.47c-5.87,19.68-11.09,39.83-15.55,59.94h-.13c-17.1-1.72-34.76-3.49-52.44-5,5.89-20.63,12.67-40.92,20.21-60.36C503.11,490.81,519.21,492.64,534.58,494.47Zm-46.8-8.33c1.4-3.58,2.6-6.59,3.73-9.37,6.77-16.69,14.09-33,21.78-48.48,11,1,22.41,2.17,33.46,3.34l8.89.93c-6.14,16-11.9,32.47-17.09,48.94-1,3.33-2.09,6.7-3.1,10.05C520.17,489.73,504.15,487.91,487.78,486.14Zm30.6,71.22q-.71,3.21-1.38,6.43c-3.3,16-6.2,32.29-8.62,48.45-.32,2.09-.62,4.19-.92,6.3-19.54-1.52-38.4-2.84-56.14-3.93.42-2.25.84-4.49,1.29-6.74,2.69-13.93,5.57-27,8.82-39.82.75-2.95,1.5-5.87,2.29-8.8l.12-.44q.87-3.25,1.79-6.49C483.41,553.86,501.18,555.63,518.38,557.36ZM561.24,751.5c-.09,20.51.37,41.3,1.37,61.85-12.82.13-26,.33-38.77.52l-20.4.29c-1.38-20.82-2-41.88-1.94-62.66Zm-59.74-3c-.09-20.78.56-41.84,1.94-62.66l20.4.29c12.77.19,25.95.39,38.77.52-1,20.55-1.46,41.34-1.37,61.85Zm22.38,68.37c12.8-.19,26-.39,38.87-.52,1,20.33,2.62,40.82,4.71,61-18.86.38-38.13.72-57.41,1-2.83-20.26-5-40.83-6.4-61.18Zm40.36-65.37H624c-.08,20.12.21,40.58.85,60.86-12.93.17-26.24.39-39.13.62l-20.09.33C564.61,792.78,564.15,772,564.24,751.5Zm59.73-3H564.24c-.09-20.5.37-41.28,1.36-61.81l20.09.33c12.89.23,26.2.45,39.13.62C624.18,707.93,623.89,728.38,624,748.5Zm-61.22-64.85c-12.85-.13-26.06-.33-38.87-.52l-20.23-.29c1.42-20.35,3.57-40.92,6.4-61.18,19.23.3,38.52.64,57.41,1C565.37,642.83,563.79,663.32,562.75,683.65ZM507,621.51c-2.82,20.29-5,40.88-6.39,61.26l-12.24-.48c-15.19-.6-30.88-1.21-46.11-1.54,1.9-21.21,4.75-42.45,8.48-63.17C468.52,618.67,487.4,620,507,621.51ZM488.3,685.29l12.14.47c-1.38,20.84-2,41.93-1.94,62.74H439.37c-.08-21.47.82-43.24,2.66-64.76C457.31,684.08,473.05,684.69,488.3,685.29Zm10.2,66.21c-.09,20.81.56,41.9,1.94,62.74l-12.14.47c-15.24.6-31,1.21-46.27,1.55-1.84-21.52-2.74-43.28-2.66-64.76Zm-10.09,66.21,12.24-.48c1.42,20.38,3.57,41,6.39,61.26-19.59,1.51-38.5,2.83-56.26,3.93-3.73-20.73-6.58-42-8.48-63.17C457.54,818.92,473.22,818.31,488.41,817.71Zm19,63.75c.3,2.1.6,4.21.92,6.3,2.42,16.16,5.32,32.46,8.62,48.46q.68,3.21,1.38,6.42c-17.2,1.73-35,3.5-52.75,5q-.92-3.24-1.79-6.48l-.12-.45c-.79-2.93-1.54-5.85-2.29-8.79-3.25-12.88-6.13-25.9-8.83-39.84-.44-2.24-.86-4.48-1.28-6.73C469.08,884.29,488,883,507.46,881.46ZM518.9,945.6H519c4.46,20.11,9.68,40.26,15.55,59.94-15.37,1.83-31.47,3.66-47.91,5.44-7.54-19.44-14.32-39.73-20.21-60.36C484.14,949.09,501.8,947.32,518.9,945.6Zm16.55,62.85c1,3.35,2,6.72,3.1,10,5.19,16.47,11,32.92,17.09,48.94l-8.89.93c-11,1.17-22.44,2.36-33.46,3.34-7.69-15.49-15-31.79-21.78-48.49-1.13-2.77-2.33-5.78-3.72-9.36C504.15,1012.09,520.17,1010.27,535.45,1008.45Zm6,9.14c-1-3.08-1.93-6.2-2.87-9.3,16.68-.16,33.51-.41,50.08-.74q1.13,5.07,2.3,10.12c3.88,16.5,8.12,32.89,12.59,48.79-13.89.17-28.92.42-44.75.75C552.51,1051,546.67,1034.3,541.41,1017.59Zm-3.77-12.29c-5.87-19.65-11.11-39.77-15.57-59.87,16.83-.28,34.62-.64,54.29-1.11,3.38,20.47,7.28,40.72,11.59,60.25C571.3,1004.9,554.39,1005.14,537.64,1005.3Zm-16.23-62.85q-.75-3.42-1.47-6.84c-3.29-15.94-6.18-32.19-8.6-48.29l-.87-6c19.2-.29,38.45-.63,57.3-1q.33,3.15.68,6.29l.08.7c1.84,16.33,4,32.38,6.32,47.69l.08.54q.47,2.9.94,5.79C556.14,941.8,538.29,942.16,521.41,942.45Zm44.34-126.14,20-.33c12.91-.23,26.23-.46,39.18-.62.67,20.06,1.7,40.42,3.07,60.59-18.94.48-38.27.92-57.52,1.31C568.38,857.12,566.79,836.63,565.75,816.31ZM627,751.5h59.26c0,20,.09,40.29.4,60.3-7.51.06-15.1.14-22.7.22-11.89.13-24.17.26-36.12.31C627.18,792.06,626.9,771.62,627,751.5Zm59.26-3H627c-.08-20.11.2-40.56.84-60.83,11.94.05,24.22.18,36.12.31,7.61.08,15.19.16,22.7.22C686.33,708.21,686.19,728.48,686.24,748.5Zm-61.32-63.86c-12.95-.16-26.27-.39-39.18-.62l-20-.33c1-20.32,2.63-40.81,4.72-61,19.25.39,38.58.83,57.52,1.31C626.62,644.22,625.59,664.58,624.92,684.64Zm-56.39-71.95-.08.7c-.24,2.09-.46,4.19-.68,6.29-18.88-.38-38.16-.72-57.3-1l.87-6c2.42-16.1,5.31-32.35,8.59-48.28q.74-3.43,1.48-6.85c16.88.29,34.73.65,54.46,1.12q-.48,2.9-.94,5.79l-.08.54C572.49,580.31,570.37,596.36,568.53,612.69Zm-46.46-58.12c4.46-20.1,9.7-40.22,15.57-59.87,16.75.16,33.66.4,50.31.73-4.31,19.53-8.21,39.78-11.59,60.25C556.69,555.21,538.9,554.85,522.07,554.57Zm16.47-62.86c.94-3.1,1.9-6.22,2.87-9.3,5.26-16.71,11.1-33.39,17.35-49.62,15.84.33,30.88.58,44.75.75-4.47,15.9-8.71,32.29-12.59,48.79q-1.17,5-2.3,10.12C572.05,492.12,555.22,491.87,538.54,491.71Zm21.37-61.89c3.93-10.09,8.08-20.19,12.37-30,3.85-8.85,7.9-17.71,12-26.36,12.71-.13,25.52-.13,38.13,0-2.77,7.87-5.54,16.13-8.48,25.19-3.32,10.43-6.55,21.18-9.62,32C590.57,430.39,575.64,430.14,559.91,429.82Zm9.62-31.24c-4.44,10.2-8.73,20.65-12.78,31.08l-9.69-1c-10.66-1.13-21.66-2.28-32.33-3.24,3.37-6.7,6.84-13.34,10.36-19.78,1.43-2.61,3.32-6.05,5.26-9.45l.49-.87c5-8.84,9.78-16.86,14.53-24.47,10.89.65,22.61,1.44,35.71,2.42C577.11,381.58,573.23,390.09,569.53,398.58Zm-41.3-4.75-.49.87c-2,3.42-3.84,6.87-5.28,9.49-3.72,6.8-7.4,13.84-10.94,20.93l-9.74-.9c-10.56-1-21.45-2-31.75-2.82,4-6.38,8.13-12.72,12.33-18.86,2.55-3.74,4.82-7,6.95-10,5.78-8.16,11.67-16.05,17.52-23.48,10.83.33,22.36.85,35.13,1.58C537.47,377.88,533,385.49,528.23,393.83ZM501.5,427.2l8.59.8c-7.53,15.25-14.72,31.26-21.36,47.64-1.22,3-2.51,6.25-4,10.16-15.5-1.66-31.41-3.29-47.36-4.85,1.59-3.31,3.07-6.35,4.5-9.2,8.17-16.37,17.06-32.34,26.41-47.48C479,425.11,490.42,426.17,501.5,427.2Zm-17.92,61.5c-7.52,19.47-14.29,39.78-20.16,60.42-17.8-1.54-35.22-3-52.44-4.23a599.9,599.9,0,0,1,25-61.06C452,485.39,468,487,483.58,488.7Zm-21,63.36q-.84,3-1.65,6l-.12.46c-.79,2.94-1.55,5.87-2.3,8.83-3.26,12.93-6.16,26-8.86,40-.47,2.37-.91,4.74-1.36,7.13-19.65-1.19-38.55-2.14-56.2-2.83.56-2.45,1.12-4.94,1.71-7.41C397,590.5,400.7,577,404.69,564c1.06-3.42,2.05-6.51,3-9.45q1.11-3.37,2.27-6.74C427.26,549,444.74,550.51,462.59,552.06ZM447.76,617.4c-3.72,20.76-6.57,42-8.47,63.26l-9.59-.29c-16.13-.5-32.78-1-48.8-1.18a618.11,618.11,0,0,1,10.55-64.61C409.16,615.26,428.09,616.21,447.76,617.4Zm-18.15,66,9.42.29c-1.84,21.55-2.74,43.35-2.67,64.84H377.24a626,626,0,0,1,3.34-66.31C396.68,682.36,413.41,682.87,429.61,683.37Zm6.75,68.13c-.07,21.5.83,43.3,2.67,64.84l-9.42.29c-16.19.5-32.9,1-49,1.18a625.68,625.68,0,0,1-3.34-66.31Zm-6.66,68.13,9.59-.29c1.9,21.23,4.75,42.5,8.47,63.26-19.65,1.19-38.56,2.14-56.31,2.82a618.11,618.11,0,0,1-10.55-64.61C397,820.63,413.58,820.13,429.7,819.63Zm18.6,65.94c.45,2.39.89,4.76,1.36,7.13,2.7,14,5.6,27.06,8.86,40,.75,3,1.51,5.89,2.3,8.83l.12.46q.81,3,1.65,6c-17.83,1.55-35.3,3-52.62,4.24q-1.16-3.36-2.27-6.74c-1-2.94-1.95-6-3-9.45-4-13-7.65-26.49-10.88-40.18-.59-2.47-1.15-4.95-1.7-7.41C409.79,887.71,428.67,886.76,448.3,885.57Zm15.12,65.31c5.87,20.64,12.64,41,20.16,60.42C468,1013,452,1014.61,436,1016.17a599.9,599.9,0,0,1-25-61.06C428.22,953.9,445.64,952.42,463.42,950.88Zm21.28,63.32c1.52,3.92,2.81,7.17,4,10.15,6.64,16.39,13.83,32.4,21.36,47.65l-8.59.8c-11.08,1-22.53,2.09-33.26,2.93-9.35-15.14-18.24-31.11-26.41-47.48-1.43-2.85-2.91-5.89-4.5-9.2C453.28,1017.49,469.19,1015.86,484.7,1014.2Zm17.08,61.58,9.74-.9c3.54,7.09,7.22,14.13,10.94,20.93,1.44,2.62,3.33,6.07,5.28,9.49l.49.87c4.73,8.34,9.24,15.95,13.73,23.18-12.76.73-24.28,1.25-35.13,1.58-5.85-7.43-11.74-15.32-17.52-23.48-2.13-3-4.4-6.25-6.95-10-4.2-6.14-8.33-12.48-12.33-18.86C480.33,1077.77,491.22,1076.76,501.78,1075.78Zm29.06,28.9-.49-.86c-1.94-3.4-3.83-6.84-5.26-9.45-3.52-6.43-7-13.08-10.36-19.78,10.67-1,21.67-2.11,32.33-3.24l9.69-1c4,10.43,8.34,20.88,12.78,31.08,3.7,8.49,7.58,17,11.55,25.32-13.1,1-24.82,1.77-35.71,2.42C540.62,1121.54,535.86,1113.53,530.84,1104.68Zm41.44-4.46c-4.29-9.85-8.44-20-12.37-30,15.71-.32,30.64-.57,44.44-.73,3.07,10.78,6.3,21.53,9.63,32,2.93,9,5.71,17.31,8.47,25.18-12.61.11-25.42.11-38.13,0C580.18,1117.93,576.13,1109.07,572.28,1100.22Zm44.55.28c-3.24-10.16-6.39-20.63-9.38-31.13,12.7-.43,28.85-1,44.88-1.4,2,11,4.18,21.93,6.39,32.61,1.94,9.21,3.74,17.46,5.48,25.17-12.68.4-25.64.67-38.59.81C622.75,1118.43,619.87,1109.89,616.83,1100.5Zm-10.22-34.1c-4.54-16.09-8.84-32.71-12.77-49.42-.74-3.15-1.45-6.32-2.16-9.49,16.74-.35,33.66-.79,50.33-1.31q.74,5,1.5,10c2.55,16.44,5.33,32.84,8.27,48.79C635.56,1065.44,619.28,1066,606.61,1066.4ZM591,1004.5c-4.32-19.51-8.23-39.77-11.62-60.25,16.51-.39,33.89-.86,54.47-1.48,2.24,20.41,4.84,40.72,7.71,60.42C624.82,1003.72,607.83,1004.16,591,1004.5Zm-12.12-63.24c-.33-2.06-.67-4.13-1-6.19l-.09-.53c-2.34-15.27-4.47-31.27-6.3-47.56l-.08-.7q-.33-3-.65-6c19.21-.39,38.51-.83,57.41-1.31q.24,3.45.49,6.88c1.21,16.29,2.63,32.45,4.22,48l.63,5.89C612.92,940.4,595.48,940.87,578.89,941.26Zm49-125.93c11.92-.05,24.18-.18,36.05-.31,7.61-.08,15.2-.16,22.72-.22.33,20,.84,40.23,1.51,60.1-18.94.37-38.16.71-57.21,1C629.62,855.73,628.59,835.38,627.92,815.33ZM686.69,685.2c-7.52-.06-15.11-.14-22.72-.22-11.88-.13-24.13-.26-36.05-.31.67-20,1.7-40.4,3.07-60.56,19,.28,38.27.62,57.21,1C687.53,645,687,665.17,686.69,685.2Zm-58-71c-.17,2.28-.33,4.58-.49,6.88-18.9-.48-38.2-.92-57.41-1.31q.32-3,.65-6l.08-.7c1.83-16.29,4-32.29,6.3-47.56l.09-.53c.32-2.06.66-4.13,1-6.19,16.57.39,34,.86,54.64,1.49l-.63,5.9C631.31,581.72,629.89,597.88,628.68,614.17Zm-49.29-58.42c3.39-20.48,7.3-40.74,11.62-60.25,16.82.34,33.81.78,50.56,1.31-2.87,19.71-5.47,40-7.71,60.42C613.31,556.61,595.92,556.14,579.39,555.75Zm12.29-63.24c.71-3.17,1.42-6.34,2.16-9.49,3.93-16.71,8.23-33.33,12.77-49.42,12.69.43,29,1,45.17,1.42-2.94,16-5.72,32.35-8.27,48.79q-.76,5-1.5,10C625.34,493.3,608.42,492.86,591.68,492.51Zm15.77-61.88c3-10.5,6.14-21,9.38-31.12,3-9.4,5.92-17.94,8.78-26.08,12.95.15,25.91.42,38.59.82-1.74,7.71-3.54,16-5.48,25.18-2.21,10.67-4.35,21.64-6.39,32.6C636.31,431.59,620.18,431.06,607.45,430.63Zm19.22-60.18c.83-2.37,1.67-4.74,2.52-7.09l.45-1.24c6-16.51,12.48-32.84,19.14-48.57,7.53-.32,15.2-.38,22.63-.43l8.12-.07C675.18,329,671,345.46,667,362q-1.08,4.62-2.14,9.29C652.32,370.87,639.49,370.6,626.67,370.45Zm.15-9.36-.45,1.24c-1,2.62-1.88,5.26-2.81,7.9l-.06.18c-12.47-.12-25.14-.12-37.72,0,1.08-2.24,2.17-4.48,3.27-6.7,8.23-16.62,17.07-33,26.28-48.63,7.49-.54,15.16-.83,22.59-1.1l7.56-.3C639,329.05,632.72,345,626.82,361.09Zm-40.46,1.28q-2,4-3.89,8c-12.93-1-24.5-1.75-35.27-2.4,1.55-2.43,3-4.62,4.3-6.65,10.15-15.73,20.89-30.94,31.92-45.22,8.85-.55,17.74-.72,26.35-.87l2,0C602.89,330.4,594.34,346.26,586.36,362.37ZM549,359.66c-1.59,2.41-3.3,5.07-5.21,8.09-12.59-.74-24-1.26-34.63-1.61,1.72-2.15,3.44-4.28,5.15-6.36,12-14.68,24.63-28.73,37.62-41.76,9.13-.89,18.49-1.34,27.58-1.75C569,330,558.7,344.61,549,359.66Zm-37-1.78c-2.18,2.64-4.38,5.38-6.56,8.12-9.41-.46-21.45-1-33.64-1.49,2-2,3.89-3.89,5.76-5.72a525,525,0,0,1,43.52-38.17c8.21-.84,16.56-1.49,24.64-2.12l1.65-.13C535.15,330.78,523.26,344.05,512,357.88Zm-8.82,11c-5.45,7-10.92,14.33-16.29,21.91-2.14,3-4.43,6.28-7,10-4.51,6.6-8.95,13.42-13.22,20.28-12.23-.93-26.07-2.11-41.18-3.51,4.57-6,9.29-11.94,14.07-17.66l.49-.59c3-3.59,5.69-6.73,8.2-9.59,6.88-7.88,13.84-15.4,20.68-22.38C481.13,367.84,493.37,368.42,503.16,368.9ZM464.89,424c-9.11,14.83-17.76,30.43-25.74,46.4-1.58,3.16-3.22,6.53-5,10.23-15.79-1.53-31.78-3-47.59-4.39,1.89-3.29,3.65-6.29,5.33-9.07a543.1,543.1,0,0,1,31.44-46.74C438.56,421.85,452.51,423.05,464.89,424ZM432.8,483.52a603.38,603.38,0,0,0-24.91,61.12c-18.9-1.75-36.12-3.28-52.55-4.66a540.34,540.34,0,0,1,29.6-60.87C400.83,480.49,416.91,482,432.8,483.52Zm-25.91,64q-1,3-2,6.07c-1,3-2,6-3,9.5-4,13-7.7,26.61-10.94,40.37-.63,2.65-1.24,5.31-1.82,7.94-20.35-1.58-40.61-3-56.39-4.08.71-2.67,1.4-5.17,2.07-7.58,3.8-13.52,8.06-26.77,12.65-39.38l.45-1.22c1.3-3.54,2.48-6.65,3.6-9.52.88-2.27,1.79-4.52,2.7-6.77C370.65,544.27,387.93,545.8,406.89,547.56ZM388.42,614.4a620.11,620.11,0,0,0-10.53,64.72c-15.3-.57-31.25-1.26-46.7-1.93L319,676.66a543.94,543.94,0,0,1,12.88-66.34C347.66,611.4,368,612.82,388.42,614.4Zm-57.36,65.79c15.38.66,31.27,1.35,46.52,1.92a627.6,627.6,0,0,0-3.35,66.39H314.37a559.54,559.54,0,0,1,4.27-68.85Zm43.17,71.31a627.46,627.46,0,0,0,3.35,66.39c-15.25.57-31.14,1.26-46.52,1.92l-12.42.54a559.54,559.54,0,0,1-4.27-68.85Zm-43,71.31c15.45-.67,31.4-1.36,46.7-1.93a620.11,620.11,0,0,0,10.53,64.72c-20.44,1.58-40.76,3-56.51,4.08A543.94,543.94,0,0,1,319,823.34Zm57.88,65.75c.58,2.63,1.19,5.29,1.82,7.94,3.24,13.76,6.92,27.34,10.94,40.38,1.06,3.44,2.05,6.54,3,9.49q1,3,2,6.07c-19,1.76-36.24,3.29-52.74,4.67-.91-2.25-1.82-4.5-2.7-6.77-1.12-2.87-2.3-6-3.6-9.52l-.45-1.22c-4.59-12.61-8.85-25.86-12.65-39.39-.67-2.4-1.36-4.9-2.07-7.57C348.46,891.55,368.72,890.14,389.07,888.56Zm18.82,66.8a602.44,602.44,0,0,0,24.91,61.12c-15.89,1.54-32,3-47.86,4.41A540.34,540.34,0,0,1,355.34,960C371.78,958.64,389,957.11,407.89,955.36Zm26.27,64c1.77,3.7,3.41,7.07,5,10.22,8,16,16.63,31.58,25.74,46.41-12.39,1-26.35,2.15-41.55,3.57a543.1,543.1,0,0,1-31.44-46.74c-1.68-2.78-3.44-5.78-5.33-9.07C402.38,1022.38,418.37,1020.9,434.16,1019.37Zm32.5,59.5c4.27,6.86,8.71,13.68,13.22,20.28,2.56,3.76,4.85,7,7,10,5.38,7.58,10.85,14.93,16.3,21.91-9.79.48-22,1.06-34.24,1.5-6.84-7-13.8-14.5-20.69-22.38-2.5-2.86-5.18-6-8.19-9.59l-.49-.59c-4.78-5.72-9.5-11.65-14.07-17.66C440.58,1081,454.42,1079.8,466.66,1078.87ZM505.42,1134c2.18,2.74,4.38,5.48,6.55,8.12,11.29,13.83,23.18,27.1,35.38,39.51l-1.65-.13c-8.08-.63-16.43-1.28-24.64-2.12a523.24,523.24,0,0,1-43.52-38.18c-1.87-1.82-3.78-3.7-5.76-5.71C484,1135,496,1134.46,505.42,1134Zm8.87,6.21c-1.7-2.07-3.42-4.2-5.14-6.35,10.68-.35,22.05-.88,34.63-1.61,1.91,3,3.62,5.68,5.2,8.08,9.72,15.06,20,29.64,30.52,43.4-9.08-.41-18.43-.86-27.58-1.75C538.93,1169,526.27,1154.9,514.29,1140.21Zm37.2-1.52c-1.32-2-2.74-4.21-4.29-6.64,10.77-.65,22.34-1.43,35.27-2.4q1.92,4,3.89,8c8,16.11,16.53,32,25.43,47.19l-2,0c-8.6-.15-17.48-.32-26.35-.87C572.39,1169.64,561.65,1154.43,551.49,1138.69Zm37.56-2.39c-1.1-2.22-2.19-4.46-3.27-6.7,12.58.11,25.25.11,37.72,0l.06.18c.93,2.64,1.86,5.28,2.81,7.9l.45,1.24c5.9,16.1,12.17,32,18.66,47.42l-7.56-.3c-7.41-.27-15-.56-22.59-1.1C606.12,1169.27,597.28,1152.92,589.05,1136.3Zm40.59,1.58-.45-1.23q-1.28-3.54-2.52-7.1c12.82-.15,25.65-.41,38.2-.81q1.07,4.65,2.14,9.29c4,16.52,8.17,33,12.52,48.93-2.71,0-5.42-.06-8.12-.08-7.43-.05-15.1-.11-22.63-.43C642.12,1170.72,635.68,1154.39,629.64,1137.88Zm40.29-.54q-1-4.32-2-8.65c12.84-.06,25.81-.26,38.63-.58l.28,2.49q.38,3.4.77,6.81c2,16.79,4.12,33.47,6.27,49.62-3.11,0-6.2,0-9.29.06-7.21.06-14.64.11-22-.09C678.23,1170.8,674,1154.1,669.93,1137.34Zm-2.67-11.65c-1.78-7.87-3.62-16.29-5.6-25.73-2.17-10.5-4.29-21.28-6.3-32.07,12.14-.28,24.69-.75,36.85-1.2l8.1-.3c1,11.18,2.09,22.29,3.18,33,.85,8.18,1.77,16.92,2.74,25.7C693.31,1125.44,680.23,1125.63,667.26,1125.69Zm24.84-62c-12.31.46-25,.93-37.29,1.21-3-16.07-5.77-32.6-8.34-49.16-.49-3.21-1-6.43-1.44-9.66,16.69-.53,33.54-1.17,50.15-1.88.24,3.32.48,6.65.73,10,1.31,16.85,2.7,33.4,4.13,49.23Zm-47.51-60.59c-2.88-19.7-5.47-40-7.72-60.42,17.2-.43,34.55-1,51.36-1.48l2.89-.09c1.16,20.88,2.45,41.08,3.84,60.09C678.28,1001.92,661.36,1002.56,644.59,1003.1Zm43.54-64.9c-17.65.54-34.35,1.06-51.59,1.49q-.33-3.06-.65-6.12c-1.59-15.56-3-31.7-4.22-48l-.48-6.72c19-.28,38.2-.62,57.11-1l0,.73.21,6c.65,17.22,1.34,32.79,2.1,47.61q.15,2.93.32,5.85Zm.2-316.82,0,.73c-18.92-.38-38.11-.72-57.11-1l.48-6.72c1.21-16.26,2.63-32.4,4.22-47.95q.32-3.08.65-6.13c17.23.43,33.94,1,51.59,1.49l2.83.09q-.16,2.93-.32,5.85c-.76,14.82-1.45,30.39-2.1,47.61Zm-.1-62.58c-16.81-.52-34.17-1-51.36-1.48,2.25-20.41,4.84-40.72,7.72-60.42,16.76.54,33.69,1.18,50.37,1.9-1.39,19-2.68,39.21-3.84,60.09ZM645,493.92c.48-3.23,1-6.45,1.44-9.65,2.57-16.57,5.38-33.1,8.34-49.17,12.27.28,25,.75,37.29,1.21l7.94.29c-1.43,15.83-2.82,32.38-4.13,49.23-.25,3.32-.49,6.65-.73,10C678.57,495.09,661.72,494.45,645,493.92Zm47.18-60.61c-12.17-.45-24.72-.92-36.84-1.2,2-10.79,4.12-21.57,6.29-32.07,2-9.44,3.82-17.86,5.6-25.73,13,.05,26,.25,39,.57-1,8.78-1.89,17.52-2.74,25.71-1.09,10.73-2.16,21.84-3.18,33Zm-24.27-62q1-4.33,2-8.64c4-16.77,8.3-33.47,12.72-49.67,7.29-.2,14.74-.15,22-.09q4.64,0,9.29.06c-2.15,16.15-4.26,32.83-6.27,49.63q-.39,3.39-.77,6.8l-.28,2.49C693.74,371.57,680.76,371.37,667.94,371.31Zm28.82-117c-5.7,18-11.22,36.77-16.41,55.72l-9,.08c-7,.05-14.19.11-21.31.38,7.86-18.38,16.18-36.32,24.77-53.37C682.09,256,689.45,255.1,696.76,254.32Zm-25.55,3.38c-8.48,16.94-16.69,34.71-24.44,52.92-3,.13-6,.24-9,.35-6.8.25-13.78.52-20.62,1,10.4-17.48,21.46-34.43,32.92-50.43C657.08,260.1,664.16,258.82,671.21,257.7Zm-25.42,4.72c-11.22,15.81-22,32.52-32.22,49.72l-3.86.07c-7.79.14-15.81.3-23.83.73a568.4,568.4,0,0,1,40-45.85C632.42,265.4,639.11,263.84,645.79,262.42Zm-25.53,6.13a580.07,580.07,0,0,0-38.36,44.6l-1.38.07c-8.31.37-16.85.78-25.26,1.5A508.45,508.45,0,0,1,602,273.83C608,272,614.15,270.2,620.26,268.55Zm-26.49,7.93a517.51,517.51,0,0,0-43.19,38.64l-5.11.39c-6.54.51-13.24,1-19.93,1.66a488.7,488.7,0,0,1,53.18-35.47C583.69,279.89,588.72,278.15,593.77,276.48ZM556,290.67q3.15-1.32,6.33-2.62a496.15,496.15,0,0,0-42.39,29.67c-7.13.74-14.94,1.56-22.68,2.55A498.24,498.24,0,0,1,556,290.67Zm-65.29,33.52c8.23-1.2,16.83-2.15,24.83-3a525.19,525.19,0,0,0-40.05,35.45c-2.48,2.41-5,4.94-7.75,7.71-12.05-.43-22.78-.69-32.62-.78A500.55,500.55,0,0,1,490.67,324.19Zm-93.16,73.32c10.78-10.79,22.2-21.2,33.93-31,10.06.06,21,.29,33.44.71-6.27,6.47-12.61,13.35-18.9,20.54-2.52,2.88-5.22,6-8.24,9.65l-.49.59c-5.21,6.23-10.35,12.71-15.31,19.27l-7.44-.58c-11-.85-22.35-1.72-33.06-2.37C386.65,408.63,392,403,397.51,397.51Zm-18.66,19.7c11.39.66,23.6,1.6,35.42,2.51l5.54.43a546.54,546.54,0,0,0-30.48,45.47c-1.89,3.14-3.88,6.54-6.05,10.33-16.06-1.39-31.9-2.68-47.17-3.85A501,501,0,0,1,378.85,417.21ZM334.18,475c15.35,1.17,31.31,2.47,47.48,3.86a544.27,544.27,0,0,0-29.46,60.9c-19.23-1.65-36.36-3.08-52.23-4.37A499.65,499.65,0,0,1,334.18,475Zm-43.51,81c2.51-5.92,5.17-11.87,7.91-17.71,15.94,1.29,33.13,2.73,52.44,4.38-.79,2-1.59,4-2.36,5.94-1.13,2.88-2.31,6-3.63,9.58l-.44,1.23c-4.63,12.68-8.91,26-12.73,39.59-.72,2.58-1.46,5.28-2.23,8.18l-26.81-1.82q-14.81-1-29.39-2A500.79,500.79,0,0,1,290.67,556Zm-18.13,50.32,30.07,2.05,26.26,1.78A545.82,545.82,0,0,0,316,676.55c-18.75-.64-38-1.45-56.68-2.24l-2.1-.09A496.59,496.59,0,0,1,272.54,606.28ZM256.79,677.2l2.42.1c18.58.79,37.77,1.6,56.43,2.23a559.52,559.52,0,0,0-4.27,69H251.51A504.35,504.35,0,0,1,256.79,677.2Zm-5.28,74.3h59.86a559.52,559.52,0,0,0,4.27,69c-18.67.63-37.85,1.44-56.43,2.23l-2.42.1A504.35,504.35,0,0,1,251.51,751.5Zm5.73,74.28,2.1-.09c18.66-.79,37.92-1.6,56.68-2.24a545.82,545.82,0,0,0,12.85,66.44l-26.26,1.78-30.07,2.05A496.59,496.59,0,0,1,257.24,825.78ZM290.67,944a500.79,500.79,0,0,1-17.24-47.37q14.58-1,29.39-2l26.81-1.82c.77,2.9,1.51,5.6,2.23,8.18,3.82,13.59,8.1,26.91,12.73,39.6l.44,1.22c1.32,3.56,2.5,6.7,3.63,9.59.77,2,1.57,4,2.36,5.93-19.31,1.65-36.5,3.09-52.44,4.38C295.84,955.91,293.18,950,290.67,944Zm9.3,20.61c15.88-1.29,33-2.72,52.23-4.37a544.27,544.27,0,0,0,29.46,60.9c-16.17,1.39-32.13,2.69-47.48,3.86A499.65,499.65,0,0,1,300,964.65Zm36.14,63.25c15.27-1.17,31.11-2.46,47.17-3.85,2.17,3.79,4.16,7.19,6,10.32,9.47,15.77,19.72,31.05,30.49,45.48l-5.54.43c-11.82.91-24,1.85-35.42,2.51A501,501,0,0,1,336.11,1027.9Zm61.4,74.59c-5.47-5.46-10.86-11.12-16.07-16.85,10.71-.65,22.06-1.52,33.06-2.37l7.44-.58c5,6.56,10.1,13,15.31,19.27l.49.59c3,3.62,5.72,6.77,8.24,9.65,6.29,7.19,12.63,14.07,18.9,20.54-12.4.42-23.38.65-33.44.71C419.71,1123.69,408.29,1113.28,397.51,1102.49Zm37.57,33.93c9.84-.09,20.57-.35,32.62-.78,2.72,2.77,5.27,5.3,7.74,7.71a527.25,527.25,0,0,0,40.06,35.45c-8-.84-16.6-1.79-24.83-3A500.55,500.55,0,0,1,435.08,1136.42ZM556,1209.33a498.24,498.24,0,0,1-58.74-29.6c7.74,1,15.55,1.81,22.68,2.55A496.15,496.15,0,0,0,562.29,1212Q559.11,1210.65,556,1209.33Zm22.76,9a488.7,488.7,0,0,1-53.18-35.47c6.68.62,13.39,1.15,19.93,1.66l5.11.4a519.16,519.16,0,0,0,43.19,38.63C588.72,1221.85,583.69,1220.11,578.72,1218.3Zm23.3,7.87a508.45,508.45,0,0,1-46.76-40.89c8.42.72,17,1.13,25.26,1.5l1.38.07a580.07,580.07,0,0,0,38.36,44.6C614.15,1229.8,608,1228,602,1226.17Zm23.81,6.74a568.4,568.4,0,0,1-40-45.85c8,.43,16,.59,23.83.73l3.86.07c10.18,17.2,21,33.91,32.22,49.72C639.11,1236.16,632.42,1234.6,625.83,1232.91Zm24.28,5.58c-11.46-16-22.52-33-32.92-50.43,6.87.45,13.84.72,20.62,1,3,.11,6,.22,9,.35,7.75,18.21,16,36,24.44,52.92C664.16,1241.18,657.08,1239.9,650.11,1238.49Zm24.74,4.38c-8.59-17-16.91-35-24.77-53.37,7.12.27,14.32.33,21.31.38l9,.08c5.19,19,10.71,37.68,16.41,55.72C689.45,1244.9,682.09,1244,674.85,1242.87ZM700,1246c-5.74-18.12-11.3-37-16.54-56q5.28.13,10.58.13c3.55,0,7.09,0,10.58-.05q4.82,0,9.66-.06c2.63,19.68,5.39,39.07,8.22,57.72C715,1247.34,707.46,1246.76,700,1246Zm48.49,2.47c-7.64,0-15.33-.22-22.93-.58-2.84-18.7-5.62-38.16-8.26-57.9,7.31,0,14.75-.32,22-.61,3.07-.12,6.15-.24,9.23-.34Zm0-62.44-9.35.35c-7.31.3-14.86.58-22.24.61-2.16-16.25-4.29-33-6.31-50q-.39-3.39-.77-6.8l-.25-2.23c12.94-.35,26-.84,38.92-1.46Zm0-62.48c-13,.62-26.21,1.12-39.26,1.47-1-8.85-1.91-17.68-2.77-25.93-1.08-10.68-2.14-21.72-3.16-32.84,12.81-.47,26.05-1.17,38.89-1.85l6.3-.34Zm0-62.49-6.46.34c-12.88.69-26.17,1.39-39,1.86-1.44-15.86-2.83-32.45-4.14-49.34-.25-3.28-.49-6.58-.73-9.87,16.76-.74,33.67-1.57,50.33-2.49Zm0-62.5c-16.73.92-33.72,1.76-50.54,2.49-1.39-19-2.68-39.18-3.84-60.06,17.28-.53,34.71-1.2,51.59-1.84l2.79-.11Zm0-62.52-2.9.11c-16.9.65-34.35,1.32-51.65,1.85-.1-2-.21-3.95-.32-5.91-.75-14.81-1.44-30.37-2.09-47.57l-.21-6,0-.69c19-.38,38.26-.82,57.2-1.29Zm0-62.52c-19,.47-38.22.91-57.3,1.3-.67-19.86-1.18-40.05-1.51-60.07,11.27-.1,22.84-.27,34.06-.42,8.29-.12,16.56-.24,24.75-.33Zm0-62.52c-8.2.09-16.49.21-24.79.33-11.22.15-22.8.32-34.07.42-.31-20-.44-40.26-.4-60.27H748.5Zm0-62.52H689.24c0-20,.09-40.27.4-60.27,11.27.1,22.85.27,34.07.42,8.3.12,16.59.24,24.79.33Zm0-62.52c-8.19-.09-16.46-.21-24.75-.33-11.22-.15-22.79-.32-34.06-.42.33-20,.83-40.21,1.51-60.07,19.08.39,38.33.83,57.3,1.3Zm0-62.52c-18.94-.47-38.16-.91-57.2-1.29l0-.69.21-6c.65-17.2,1.34-32.76,2.09-47.56.11-2,.22-3.95.32-5.92,17.3.53,34.75,1.2,51.65,1.85l2.9.11Zm0-62.52-2.79-.11c-16.88-.64-34.31-1.31-51.59-1.84,1.16-20.88,2.45-41.06,3.84-60.06,16.82.73,33.81,1.57,50.54,2.49Zm0-62.52c-16.66-.92-33.57-1.75-50.33-2.49.24-3.29.48-6.59.73-9.87,1.31-16.89,2.7-33.48,4.14-49.34,12.83.47,26.12,1.17,39,1.86l6.46.34Zm0-62.5-6.3-.34c-12.84-.68-26.08-1.38-38.89-1.85,1-11.12,2.08-22.16,3.16-32.84.86-8.25,1.79-17.08,2.77-25.93,13,.35,26.24.85,39.26,1.47Zm0-62.49c-12.91-.62-26-1.11-38.92-1.46l.25-2.23c.25-2.27.51-4.54.77-6.79,2-16.92,4.15-33.71,6.31-50,7.4,0,14.93.32,22.24.62l9.35.35Zm0-62.49c-3.08-.1-6.16-.22-9.23-.34-7.21-.29-14.65-.58-22-.61,2.64-19.74,5.42-39.2,8.26-57.9,7.6-.36,15.29-.56,22.93-.58Zm500,437.56h-59.86a559.52,559.52,0,0,0-4.27-69c18.67-.63,37.85-1.44,56.43-2.23l2.42-.1A504.35,504.35,0,0,1,1248.49,748.5Zm-312.73,0H876c.08-20.12-.21-40.58-.85-60.86,12.93-.17,26.24-.39,39.13-.62l20.09-.33C935.39,707.22,935.85,728,935.76,748.5Zm-3.22-125.82c18.86-.38,38.13-.72,57.41-1,2.83,20.26,5,40.83,6.4,61.18l-20.23.29c-12.8.19-26,.39-38.87.52C936.21,663.32,934.63,642.83,932.54,622.68ZM876,751.5h59.73c.09,20.5-.37,41.28-1.36,61.81L914.31,813c-12.89-.23-26.2-.45-39.13-.62C875.82,792.07,876.11,771.62,876,751.5Zm61.22,64.85c12.85.13,26.06.33,38.87.52l20.23.29c-1.42,20.35-3.57,40.92-6.4,61.18-19.23-.3-38.52-.64-57.41-1C934.63,857.17,936.21,836.68,937.25,816.35Zm38.91-2.48c-12.77-.19-25.95-.39-38.77-.52,1-20.55,1.46-41.34,1.37-61.85H998.5c.09,20.78-.56,41.84-1.94,62.66Zm-37.4-65.37c.09-20.51-.37-41.3-1.37-61.85,12.82-.13,26-.33,38.77-.52l20.4-.29c1.38,20.82,2,41.88,1.94,62.66Zm54.2-127c19.59-1.51,38.5-2.83,56.26-3.93,3.73,20.73,6.58,42,8.48,63.17-15.24.33-30.92.94-46.11,1.54l-12.24.48C997.93,662.39,995.78,641.8,993,621.51Zm-.42-3c-.3-2.1-.6-4.21-.92-6.3-2.42-16.16-5.32-32.46-8.62-48.46q-.68-3.21-1.38-6.42c17.2-1.73,35-3.5,52.75-5q.92,3.24,1.79,6.48l.12.45c.79,2.93,1.54,5.85,2.29,8.79,3.25,12.88,6.13,25.9,8.83,39.84.44,2.24.86,4.48,1.28,6.73C1030.92,615.71,1012,617,992.54,618.54ZM981.1,554.4H981c-4.46-20.11-9.68-40.26-15.55-59.94,15.37-1.83,31.47-3.66,47.91-5.44,7.54,19.44,14.32,39.73,20.21,60.36C1015.86,550.91,998.2,552.68,981.1,554.4Zm-16.55-62.85c-1-3.35-2-6.72-3.1-10.05-5.19-16.47-11-32.92-17.09-48.94l8.89-.93c11-1.17,22.44-2.36,33.46-3.34,7.69,15.49,15,31.79,21.78,48.49,1.13,2.77,2.33,5.78,3.72,9.36C995.85,487.91,979.83,489.73,964.55,491.55Zm-6-9.14c1,3.08,1.93,6.2,2.87,9.3-16.68.16-33.51.41-50.08.74q-1.12-5.07-2.3-10.12c-3.88-16.5-8.12-32.89-12.59-48.79,13.89-.17,28.92-.42,44.75-.75C947.49,449,953.33,465.7,958.59,482.41Zm3.77,12.29c5.87,19.65,11.11,39.77,15.57,59.87-16.83.28-34.62.64-54.29,1.11-3.38-20.47-7.28-40.72-11.59-60.25C928.7,495.1,945.61,494.86,962.36,494.7Zm16.23,62.85q.75,3.42,1.47,6.84c3.29,15.94,6.18,32.19,8.6,48.29l.87,6c-19.2.29-38.45.63-57.3,1q-.33-3.15-.68-6.29l-.08-.7c-1.84-16.33-4-32.38-6.32-47.69l-.08-.54q-.47-2.9-.94-5.79C943.86,558.2,961.71,557.84,978.59,557.55ZM934.25,683.69l-20,.33c-12.91.23-26.23.46-39.18.62-.67-20.06-1.7-40.42-3.07-60.59,18.94-.48,38.27-.92,57.52-1.31C931.62,642.88,933.21,663.37,934.25,683.69ZM873,748.5H813.76c0-20-.09-40.29-.4-60.3,7.51-.06,15.1-.14,22.7-.22,11.89-.13,24.17-.26,36.12-.31C872.82,707.94,873.1,728.38,873,748.5Zm-59.26,3H873c.08,20.11-.2,40.56-.84,60.83-11.94-.05-24.22-.18-36.12-.31-7.61-.08-15.19-.16-22.7-.22C813.67,791.79,813.81,771.52,813.76,751.5Zm61.32,63.86c12.95.16,26.27.39,39.18.62l20,.33c-1,20.32-2.63,40.81-4.72,61-19.25-.39-38.58-.83-57.52-1.31C873.38,855.78,874.41,835.42,875.08,815.36Zm56.39,71.95.08-.7c.24-2.09.46-4.19.68-6.29,18.88.38,38.16.72,57.3,1l-.87,6c-2.42,16.1-5.31,32.35-8.59,48.28q-.74,3.43-1.48,6.85c-16.88-.29-34.73-.65-54.46-1.12q.48-2.9.94-5.79l.08-.54C927.51,919.69,929.63,903.64,931.47,887.31Zm46.46,58.12c-4.46,20.1-9.7,40.22-15.57,59.87-16.75-.16-33.66-.4-50.31-.73,4.31-19.53,8.21-39.78,11.59-60.25C943.31,944.79,961.1,945.15,977.93,945.43Zm-16.47,62.86c-.94,3.1-1.9,6.22-2.87,9.3-5.26,16.71-11.1,33.39-17.35,49.62-15.84-.33-30.88-.58-44.75-.75,4.47-15.9,8.71-32.29,12.59-48.79q1.17-5,2.3-10.12C928,1007.88,944.78,1008.13,961.46,1008.29Zm0,10.21c1-3.33,2.09-6.7,3.1-10,15.28,1.82,31.3,3.64,47.67,5.41-1.4,3.58-2.6,6.59-3.73,9.37-6.77,16.69-14.09,33-21.78,48.48-11-1-22.41-2.17-33.46-3.34l-8.89-.93C950.5,1051.42,956.26,1035,961.45,1018.5Zm4-13c5.87-19.68,11.09-39.83,15.55-59.94h.13c17.1,1.72,34.76,3.49,52.44,5-5.89,20.63-12.67,40.92-20.21,60.36C996.89,1009.19,980.79,1007.36,965.42,1005.53Zm16.2-62.89q.71-3.21,1.38-6.43c3.3-16,6.2-32.29,8.62-48.45.32-2.09.62-4.19.92-6.3,19.54,1.52,38.4,2.84,56.14,3.93-.42,2.25-.84,4.49-1.29,6.74-2.69,13.93-5.57,27-8.82,39.82-.75,2.95-1.5,5.87-2.29,8.8l-.12.44q-.87,3.25-1.79,6.49C1016.59,946.14,998.82,944.37,981.62,942.64ZM993,878.49c2.82-20.29,5-40.88,6.39-61.26l12.24.48c15.19.6,30.88,1.21,46.11,1.54-1.9,21.21-4.75,42.45-8.48,63.17C1031.48,881.33,1012.6,880,993,878.49Zm18.74-63.78-12.14-.47c1.38-20.84,2-41.93,1.94-62.74h59.13c.08,21.47-.82,43.24-2.66,64.76C1042.69,815.92,1027,815.31,1011.7,814.71Zm-10.2-66.21c.09-20.81-.56-41.9-1.94-62.74l12.14-.47c15.24-.6,31-1.21,46.27-1.55,1.84,21.52,2.74,43.28,2.66,64.76Zm50.74-131.1c19.65-1.19,38.56-2.14,56.31-2.82a618.11,618.11,0,0,1,10.55,64.61c-16,.18-32.68.68-48.8,1.18l-9.59.29C1058.81,659.43,1056,638.16,1052.24,617.4Zm-.54-3c-.45-2.39-.89-4.76-1.36-7.13-2.7-14-5.6-27.06-8.86-40-.75-3-1.51-5.89-2.3-8.83l-.12-.46q-.81-3-1.65-6c17.83-1.55,35.3-3,52.62-4.24q1.15,3.36,2.27,6.74c1,2.94,2,6,3,9.45,4,13,7.65,26.49,10.88,40.18.59,2.47,1.15,4.95,1.7,7.41C1090.21,612.29,1071.33,613.24,1051.7,614.43Zm-15.12-65.31c-5.87-20.64-12.64-40.95-20.16-60.42C1032,487,1048,485.39,1064,483.83a599.9,599.9,0,0,1,25,61.06C1071.78,546.1,1054.36,547.58,1036.58,549.12ZM1015.3,485.8c-1.52-3.92-2.81-7.17-4-10.15-6.64-16.39-13.83-32.4-21.36-47.65l8.59-.8c11.08-1,22.53-2.09,33.26-2.93,9.35,15.14,18.24,31.11,26.41,47.48,1.43,2.85,2.91,5.89,4.5,9.2C1046.72,482.51,1030.81,484.14,1015.3,485.8Zm-17.08-61.58-9.74.9c-3.54-7.09-7.22-14.13-10.94-20.93-1.44-2.62-3.33-6.07-5.28-9.49l-.49-.87c-4.73-8.34-9.24-15.95-13.73-23.18,12.76-.73,24.28-1.25,35.13-1.58,5.85,7.43,11.74,15.32,17.52,23.48,2.13,3,4.4,6.25,6.95,10,4.2,6.14,8.33,12.48,12.33,18.86C1019.67,422.23,1008.78,423.24,998.22,424.22Zm-29.06-28.9.49.86c1.94,3.4,3.83,6.84,5.26,9.45,3.52,6.43,7,13.08,10.36,19.78-10.67,1-21.67,2.11-32.33,3.24l-9.69,1c-4-10.43-8.34-20.88-12.78-31.08-3.7-8.49-7.58-17-11.55-25.32,13.1-1,24.82-1.77,35.71-2.42C959.38,378.46,964.14,386.47,969.16,395.32Zm-41.44,4.46c4.29,9.85,8.44,20,12.37,30-15.71.32-30.64.57-44.44.73-3.07-10.78-6.3-21.53-9.63-32-2.93-9.05-5.71-17.31-8.47-25.18,12.61-.11,25.42-.11,38.13,0C919.82,382.07,923.87,390.93,927.72,399.78Zm-44.55-.28c3.24,10.16,6.39,20.63,9.38,31.13-12.7.43-28.85,1-44.88,1.4-2-11-4.18-21.93-6.39-32.61-1.94-9.21-3.74-17.46-5.48-25.17,12.68-.4,25.64-.67,38.59-.82C877.25,381.57,880.13,390.11,883.17,399.5Zm10.22,34.1c4.54,16.09,8.84,32.71,12.77,49.42.74,3.15,1.45,6.32,2.16,9.49-16.74.35-33.66.79-50.33,1.31q-.74-5-1.5-10c-2.55-16.44-5.33-32.84-8.27-48.79C864.44,434.56,880.72,434,893.39,433.6ZM909,495.5c4.32,19.51,8.23,39.77,11.62,60.25-16.51.39-33.89.86-54.47,1.48-2.24-20.41-4.84-40.72-7.71-60.42C875.18,496.28,892.17,495.84,909,495.5Zm12.12,63.24c.33,2.06.67,4.13,1,6.19l.09.53c2.34,15.27,4.47,31.27,6.3,47.56l.08.7q.33,3,.65,6c-19.21.39-38.51.83-57.41,1.31q-.24-3.45-.49-6.88c-1.21-16.29-2.63-32.45-4.22-48l-.63-5.89C887.08,559.6,904.52,559.13,921.11,558.74Zm-49,125.93c-11.92.05-24.18.18-36.05.31-7.61.08-15.2.16-22.72.22-.33-20-.84-40.23-1.51-60.1,18.94-.37,38.16-.71,57.21-1C870.38,644.27,871.41,664.62,872.08,684.67ZM813.31,814.8c7.52.06,15.11.14,22.72.22,11.88.13,24.13.26,36.05.31-.67,20-1.7,40.4-3.07,60.56-19-.28-38.27-.62-57.21-1C812.47,855,813,834.83,813.31,814.8Zm58,71c.17-2.28.33-4.58.49-6.88,18.9.48,38.2.92,57.41,1.31q-.32,3-.65,6l-.08.7c-1.83,16.29-4,32.29-6.3,47.56l-.09.53c-.32,2.06-.66,4.13-1,6.19-16.57-.39-34-.86-54.64-1.49l.63-5.9C868.69,918.28,870.11,902.12,871.32,885.83Zm49.29,58.42c-3.39,20.48-7.3,40.74-11.62,60.25-16.82-.34-33.81-.78-50.56-1.31,2.87-19.71,5.47-40,7.71-60.42C886.69,943.39,904.08,943.86,920.61,944.25Zm-12.29,63.24c-.71,3.17-1.42,6.34-2.16,9.49-3.93,16.71-8.23,33.33-12.77,49.42-12.69-.43-29-1-45.17-1.42,2.94-16,5.72-32.35,8.27-48.79q.76-5,1.5-10C874.66,1006.7,891.58,1007.14,908.32,1007.49Zm-15.77,61.88c-3,10.5-6.14,21-9.38,31.12-3,9.4-5.92,17.94-8.78,26.07-12.95-.14-25.91-.41-38.59-.81,1.74-7.71,3.54-16,5.48-25.18,2.21-10.67,4.35-21.64,6.39-32.6C863.69,1068.41,879.82,1068.94,892.55,1069.37Zm-6.52,32c3.32-10.43,6.55-21.18,9.62-32,13.78.16,28.71.41,44.44.73-3.93,10.09-8.08,20.19-12.37,30-3.85,8.85-7.9,17.71-12,26.36-12.71.13-25.52.13-38.13,0C880.32,1118.73,883.09,1110.47,886,1101.41Zm44.44,0c4.44-10.2,8.73-20.65,12.78-31.08l9.69,1c10.66,1.13,21.66,2.28,32.33,3.24-3.37,6.7-6.84,13.35-10.36,19.78-1.43,2.61-3.32,6.05-5.26,9.45l-.49.87c-5,8.84-9.78,16.86-14.53,24.47-10.89-.65-22.61-1.44-35.71-2.42C922.89,1118.42,926.77,1109.91,930.47,1101.42Zm41.3,4.75.49-.87c2-3.42,3.84-6.87,5.28-9.49,3.72-6.8,7.4-13.84,10.94-20.93l9.74.9c10.56,1,21.45,2,31.75,2.82-4,6.38-8.13,12.72-12.33,18.86-2.55,3.74-4.82,7-6.95,10-5.78,8.16-11.67,16-17.52,23.48-10.83-.33-22.36-.85-35.13-1.58C962.53,1122.12,967,1114.51,971.77,1106.17Zm26.73-33.37-8.59-.8c7.53-15.25,14.72-31.26,21.36-47.64,1.22-3,2.51-6.25,4-10.16,15.5,1.66,31.41,3.29,47.36,4.85-1.59,3.31-3.07,6.35-4.5,9.2-8.17,16.37-17.06,32.34-26.41,47.48C1021,1074.89,1009.58,1073.83,998.5,1072.8Zm17.92-61.5c7.52-19.47,14.29-39.78,20.16-60.42,17.8,1.54,35.22,3,52.44,4.23a599.9,599.9,0,0,1-25,61.06C1048,1014.61,1032,1013,1016.42,1011.3Zm21-63.36q.84-3,1.65-6l.12-.46c.79-2.94,1.55-5.87,2.3-8.83,3.26-12.93,6.16-26,8.86-40,.47-2.37.91-4.74,1.36-7.13,19.65,1.19,38.55,2.14,56.2,2.83-.56,2.45-1.12,4.94-1.71,7.41C1103,909.5,1099.3,923,1095.31,936c-1.06,3.42-2,6.51-3,9.45q-1.11,3.38-2.27,6.74C1072.74,951,1055.26,949.49,1037.41,947.94Zm14.83-65.34c3.72-20.76,6.57-42,8.47-63.26l9.59.29c16.13.5,32.78,1,48.8,1.18a618.11,618.11,0,0,1-10.55,64.61C1090.84,884.74,1071.91,883.79,1052.24,882.6Zm18.15-66-9.42-.29c1.84-21.55,2.74-43.35,2.67-64.84h59.12a626,626,0,0,1-3.34,66.31C1103.32,817.64,1086.59,817.13,1070.39,816.63Zm-6.75-68.13c.07-21.5-.83-43.3-2.67-64.84l9.42-.29c16.19-.5,32.9-1,49-1.18a625.68,625.68,0,0,1,3.34,66.31Zm47.94-134.1c20.44-1.58,40.76-3,56.51-4.08A543.94,543.94,0,0,1,1181,676.66l-12.16.53c-15.45.67-31.4,1.36-46.7,1.93A620.11,620.11,0,0,0,1111.58,614.4Zm-.65-3c-.58-2.63-1.19-5.29-1.82-7.94-3.24-13.76-6.92-27.34-10.94-40.38-1.06-3.44-2.05-6.54-3-9.49q-1-3-2-6.07c19-1.76,36.24-3.29,52.74-4.67.91,2.25,1.82,4.5,2.7,6.77,1.12,2.87,2.3,6,3.6,9.52l.45,1.22c4.59,12.61,8.85,25.86,12.65,39.39.67,2.4,1.36,4.9,2.07,7.57C1151.54,608.45,1131.28,609.86,1110.93,611.44Zm-18.82-66.8a602.44,602.44,0,0,0-24.91-61.12c15.89-1.54,32-3,47.86-4.41a540.34,540.34,0,0,1,29.6,60.87C1128.22,541.36,1111,542.89,1092.11,544.64Zm-26.27-64c-1.77-3.7-3.41-7.07-5-10.22-8-16-16.63-31.58-25.74-46.41,12.39-.95,26.35-2.15,41.55-3.57a543.1,543.1,0,0,1,31.44,46.74c1.68,2.78,3.44,5.78,5.33,9.07C1097.62,477.62,1081.63,479.1,1065.84,480.63Zm-32.5-59.5c-4.27-6.86-8.71-13.68-13.22-20.28-2.56-3.76-4.85-7.05-7-10-5.38-7.58-10.85-14.93-16.3-21.91,9.79-.48,22-1.06,34.24-1.5,6.84,7,13.8,14.5,20.69,22.38,2.5,2.86,5.18,6,8.19,9.59l.49.59c4.78,5.72,9.5,11.65,14.07,17.66C1059.42,419,1045.58,420.2,1033.34,421.13ZM994.58,366c-2.18-2.74-4.38-5.48-6.55-8.12-11.29-13.83-23.18-27.1-35.38-39.51l1.65.13c8.08.63,16.43,1.28,24.64,2.12a523.24,523.24,0,0,1,43.52,38.18c1.87,1.82,3.78,3.7,5.76,5.71C1016,365,1004,365.54,994.58,366Zm-8.87-6.21c1.7,2.07,3.42,4.2,5.14,6.35-10.68.35-22.05.88-34.63,1.61-1.91-3-3.62-5.68-5.2-8.08-9.72-15.06-20-29.64-30.52-43.4,9.08.41,18.43.86,27.58,1.75C961.07,331.05,973.73,345.1,985.71,359.79Zm-37.2,1.52c1.32,2,2.74,4.21,4.29,6.64-10.77.65-22.34,1.43-35.27,2.4q-1.92-4-3.89-8c-8-16.11-16.53-32-25.43-47.19l2,0c8.6.15,17.48.32,26.35.87C927.61,330.36,938.35,345.57,948.51,361.31ZM911,363.7c1.1,2.22,2.19,4.46,3.27,6.7-12.58-.11-25.25-.11-37.72,0l-.06-.18c-.93-2.64-1.86-5.28-2.81-7.9l-.45-1.24c-5.9-16.1-12.17-32-18.66-47.42l7.56.3c7.41.27,15,.56,22.59,1.1C893.88,330.73,902.72,347.08,911,363.7Zm-40.59-1.58.45,1.23q1.28,3.54,2.52,7.1c-12.82.15-25.65.41-38.2.81q-1.07-4.65-2.14-9.29c-4-16.52-8.17-33-12.52-48.93,2.71,0,5.42.06,8.12.08,7.43.05,15.1.11,22.63.43C857.88,329.28,864.32,345.61,870.36,362.12Zm-40.29.54q1,4.32,2,8.65c-12.84.06-25.81.26-38.63.58l-.28-2.49q-.37-3.4-.77-6.81c-2-16.79-4.12-33.47-6.27-49.63q4.65,0,9.29,0c7.2-.06,14.64-.11,22,.09C821.77,329.2,826.05,345.9,830.07,362.66Zm2.67,11.65c1.78,7.87,3.62,16.29,5.6,25.73,2.17,10.5,4.29,21.28,6.3,32.07-12.14.28-24.69.75-36.85,1.2l-8.1.3c-1-11.18-2.09-22.29-3.18-33-.85-8.18-1.77-16.92-2.74-25.7C806.69,374.56,819.77,374.37,832.74,374.31Zm-24.84,62c12.31-.46,25-.93,37.29-1.21,3,16.07,5.77,32.6,8.34,49.16.49,3.21,1,6.43,1.44,9.66-16.69.53-33.54,1.17-50.15,1.88-.24-3.32-.48-6.65-.73-10-1.31-16.85-2.7-33.4-4.13-49.23Zm47.51,60.59c2.88,19.7,5.47,40,7.72,60.42-17.2.43-34.55,1-51.36,1.48l-2.89.09c-1.16-20.88-2.45-41.08-3.84-60.09C821.72,498.08,838.64,497.44,855.41,496.9Zm-43.54,64.9c17.65-.54,34.35-1.06,51.59-1.49q.33,3.06.65,6.12c1.59,15.56,3,31.7,4.22,48l.48,6.72c-19,.28-38.2.62-57.11,1l0-.73-.21-6c-.65-17.22-1.34-32.79-2.1-47.61q-.15-2.93-.32-5.85Zm-.2,316.82,0-.73c18.92.38,38.11.72,57.11,1l-.48,6.72c-1.21,16.26-2.63,32.4-4.22,47.95q-.32,3.08-.65,6.13c-17.23-.43-33.94-1-51.59-1.49l-2.83-.09q.16-2.93.32-5.85c.76-14.82,1.45-30.39,2.1-47.61Zm.1,62.58c16.81.52,34.17,1,51.36,1.48-2.25,20.41-4.84,40.72-7.72,60.42-16.76-.54-33.69-1.18-50.37-1.9,1.39-19,2.68-39.21,3.84-60.09Zm43.2,64.88c-.48,3.23-1,6.45-1.44,9.65-2.57,16.57-5.38,33.1-8.34,49.17-12.27-.28-25-.75-37.29-1.21l-7.94-.29c1.43-15.83,2.82-32.38,4.13-49.23.25-3.32.49-6.65.73-10C821.43,1004.91,838.28,1005.55,855,1006.08Zm-47.18,60.61c12.17.45,24.72.92,36.84,1.2-2,10.79-4.12,21.57-6.29,32.07-2,9.44-3.82,17.86-5.6,25.73-13,0-26-.25-39-.57,1-8.78,1.89-17.52,2.74-25.71,1.09-10.73,2.16-21.84,3.18-33Zm24.27,62q-1,4.33-2,8.64c-4,16.77-8.3,33.47-12.72,49.67-7.29.2-14.74.15-22,.09q-4.64,0-9.29,0c2.15-16.16,4.26-32.84,6.27-49.64q.39-3.39.77-6.8l.28-2.49C806.26,1128.43,819.24,1128.63,832.06,1128.69ZM833,1138q1.08-4.62,2.14-9.29c12.55.4,25.38.67,38.2.82-.83,2.37-1.67,4.74-2.52,7.09l-.45,1.24c-6,16.51-12.48,32.84-19.14,48.57-7.53.32-15.2.38-22.63.43l-8.12.07C824.82,1171,829,1154.54,833,1138Zm40.19.89.45-1.24c1-2.62,1.88-5.26,2.81-7.9l.06-.18c12.47.12,25.14.12,37.72,0-1.08,2.24-2.17,4.48-3.27,6.7-8.23,16.62-17.07,33-26.28,48.63-7.49.54-15.16.83-22.59,1.1l-7.56.3C861,1171,867.28,1155,873.18,1138.91Zm40.46-1.28q2-4,3.89-8c12.93,1,24.5,1.75,35.27,2.4-1.55,2.43-3,4.62-4.3,6.65-10.15,15.73-20.89,30.94-31.92,45.22-8.85.55-17.74.72-26.35.87l-2,0C897.11,1169.6,905.66,1153.74,913.64,1137.63Zm37.37,2.71c1.59-2.41,3.3-5.07,5.21-8.09,12.59.74,24,1.26,34.63,1.61-1.72,2.15-3.44,4.28-5.15,6.36-12,14.68-24.63,28.73-37.62,41.76-9.13.89-18.49,1.34-27.58,1.75C931,1170,941.3,1155.39,951,1140.34Zm37,1.78c2.18-2.64,4.38-5.38,6.56-8.12,9.41.46,21.45,1,33.64,1.49-2,2-3.89,3.89-5.76,5.72a525,525,0,0,1-43.52,38.17c-8.21.84-16.56,1.49-24.64,2.12l-1.65.13C964.85,1169.22,976.74,1156,988,1142.12Zm8.82-11c5.45-7,10.92-14.33,16.29-21.91,2.14-3,4.43-6.28,7-10,4.51-6.6,8.95-13.42,13.22-20.28,12.23.93,26.07,2.11,41.18,3.51-4.57,6-9.29,11.94-14.07,17.66l-.49.59c-3,3.59-5.69,6.73-8.2,9.59-6.88,7.88-13.84,15.4-20.68,22.38C1018.87,1132.16,1006.63,1131.58,996.84,1131.1Zm38.27-55.1c9.11-14.83,17.76-30.43,25.74-46.4,1.58-3.16,3.22-6.53,5-10.23,15.79,1.53,31.78,3,47.59,4.39-1.89,3.29-3.65,6.29-5.33,9.07a543.1,543.1,0,0,1-31.44,46.74C1061.44,1078.15,1047.49,1077,1035.11,1076Zm32.09-59.52a603.38,603.38,0,0,0,24.91-61.12c18.9,1.75,36.12,3.28,52.55,4.66a540.34,540.34,0,0,1-29.6,60.87C1099.17,1019.51,1083.09,1018,1067.2,1016.48Zm25.91-64q1-3,2-6.07c1-3,2-6,3-9.5,4-13,7.7-26.61,10.94-40.37.63-2.65,1.24-5.31,1.82-7.94,20.35,1.58,40.61,3,56.39,4.08-.71,2.67-1.4,5.17-2.07,7.58-3.8,13.52-8.06,26.77-12.65,39.38l-.45,1.22c-1.3,3.54-2.48,6.65-3.6,9.52-.88,2.27-1.79,4.52-2.7,6.77C1129.35,955.73,1112.07,954.2,1093.11,952.44Zm18.47-66.84a620.11,620.11,0,0,0,10.53-64.72c15.3.57,31.25,1.26,46.7,1.93l12.16.53a543.94,543.94,0,0,1-12.88,66.34C1152.34,888.6,1132,887.18,1111.58,885.6Zm57.36-65.79c-15.38-.66-31.27-1.35-46.52-1.92a627.6,627.6,0,0,0,3.35-66.39h59.86a559.54,559.54,0,0,1-4.27,68.85Zm-43.17-71.31a627.46,627.46,0,0,0-3.35-66.39c15.25-.57,31.14-1.26,46.52-1.92l12.42-.54a559.54,559.54,0,0,1,4.27,68.85Zm117-74.28-2.1.09c-18.66.79-37.92,1.6-56.68,2.24a545.82,545.82,0,0,0-12.85-66.44l26.26-1.78,30.07-2.05A496.59,496.59,0,0,1,1242.76,674.22ZM1209.33,556a500.79,500.79,0,0,1,17.24,47.37q-14.58,1-29.39,2l-26.81,1.82c-.77-2.9-1.51-5.6-2.23-8.18-3.82-13.59-8.1-26.91-12.73-39.6l-.44-1.22c-1.32-3.56-2.5-6.7-3.63-9.59-.77-2-1.57-4-2.36-5.93,19.31-1.65,36.5-3.09,52.44-4.38C1204.16,544.09,1206.82,550,1209.33,556Zm-9.3-20.61c-15.88,1.29-33,2.72-52.23,4.37a544.27,544.27,0,0,0-29.46-60.9c16.17-1.39,32.13-2.69,47.48-3.86A499.65,499.65,0,0,1,1200,535.35Zm-36.14-63.25c-15.27,1.17-31.11,2.46-47.17,3.85-2.17-3.79-4.16-7.19-6-10.32-9.47-15.77-19.72-31.05-30.49-45.48l5.54-.43c11.82-.91,24-1.85,35.42-2.51A501,501,0,0,1,1163.89,472.1Zm-61.4-74.59c5.47,5.46,10.86,11.12,16.07,16.85-10.71.65-22.06,1.52-33.06,2.37l-7.44.58c-5-6.56-10.1-13-15.31-19.27l-.49-.59c-3-3.62-5.72-6.77-8.24-9.65-6.29-7.19-12.63-14.07-18.9-20.54,12.4-.42,23.38-.65,33.44-.71C1080.29,376.31,1091.71,386.72,1102.49,397.51Zm-37.57-33.93c-9.84.09-20.57.35-32.62.78-2.72-2.77-5.27-5.3-7.74-7.71A527.25,527.25,0,0,0,984.5,321.2c8,.84,16.6,1.79,24.83,3A500.55,500.55,0,0,1,1064.92,363.58ZM944,290.67a498.24,498.24,0,0,1,58.74,29.6c-7.74-1-15.55-1.81-22.68-2.55a496.15,496.15,0,0,0-42.39-29.67Q940.89,289.36,944,290.67Zm-22.76-9a488.7,488.7,0,0,1,53.18,35.47c-6.68-.62-13.39-1.15-19.93-1.66l-5.11-.4a519.16,519.16,0,0,0-43.19-38.63C911.28,278.15,916.31,279.89,921.28,281.7ZM898,273.83a508.45,508.45,0,0,1,46.76,40.89c-8.42-.72-17-1.13-25.26-1.5l-1.38-.07a580.07,580.07,0,0,0-38.36-44.6C885.85,270.2,892,272,898,273.83Zm-23.81-6.74a568.4,568.4,0,0,1,40,45.85c-8-.43-16-.59-23.83-.73l-3.86-.07c-10.18-17.2-21-33.91-32.22-49.72C860.89,263.84,867.58,265.4,874.17,267.09Zm-24.28-5.58c11.46,16,22.52,32.95,32.92,50.43-6.87-.45-13.84-.72-20.62-1-3-.11-6-.22-9-.35-7.75-18.21-16-36-24.44-52.92C835.84,258.82,842.92,260.1,849.89,261.51Zm-24.74-4.38c8.59,17.05,16.91,35,24.77,53.37-7.12-.27-14.32-.33-21.31-.38l-9-.08c-5.19-19-10.71-37.68-16.41-55.72C810.55,255.1,817.91,256,825.15,257.13ZM800,254c5.74,18.12,11.3,36.94,16.54,56-7.06-.17-14.21-.12-21.16-.07q-4.82,0-9.66.06c-2.63-19.68-5.39-39.07-8.22-57.72C785,252.66,792.54,253.24,800,254Zm-48.49-2.47c7.64,0,15.33.22,22.93.58,2.84,18.7,5.62,38.16,8.26,57.9-7.33,0-14.75.32-22,.61-3.07.12-6.15.24-9.23.34Zm0,62.44,9.35-.35c7.31-.3,14.83-.59,22.24-.62,2.16,16.26,4.29,33.06,6.31,50q.39,3.39.77,6.8l.25,2.23c-12.94.35-26,.84-38.92,1.46Zm0,62.48c13-.62,26.21-1.12,39.26-1.47,1,8.85,1.91,17.68,2.77,25.93,1.08,10.68,2.14,21.72,3.16,32.84-12.81.47-26.05,1.17-38.89,1.85l-6.3.34Zm0,62.49,6.46-.34c12.88-.69,26.17-1.39,39-1.86,1.44,15.86,2.83,32.45,4.14,49.34.25,3.28.49,6.58.73,9.87-16.76.74-33.67,1.57-50.33,2.49Zm0,62.5c16.73-.92,33.72-1.76,50.54-2.49,1.39,19,2.68,39.18,3.84,60.06-17.28.53-34.71,1.2-51.59,1.84l-2.79.11Zm0,62.52,2.9-.11c16.9-.65,34.35-1.32,51.65-1.85.1,2,.21,3.95.32,5.91.75,14.81,1.44,30.37,2.09,47.57l.21,6,0,.69c-19,.38-38.26.82-57.2,1.29Zm0,62.52c19-.47,38.22-.91,57.3-1.3.67,19.86,1.18,40.05,1.51,60.07-11.27.1-22.84.27-34.06.42-8.29.12-16.56.24-24.75.33Zm0,62.52c8.2-.09,16.49-.21,24.79-.33,11.22-.15,22.8-.32,34.07-.42.31,20,.44,40.26.4,60.27H751.5Zm0,62.52h59.26c0,20-.09,40.27-.4,60.27-11.27-.1-22.85-.27-34.07-.42-8.3-.12-16.59-.24-24.79-.33Zm0,62.52c8.19.09,16.46.21,24.75.33,11.22.15,22.79.32,34.06.42-.33,20-.83,40.21-1.51,60.07-19.08-.39-38.33-.83-57.3-1.3Zm0,62.52c18.94.47,38.16.91,57.2,1.29l0,.69-.21,6c-.65,17.2-1.34,32.76-2.09,47.56-.11,2-.22,3.95-.32,5.92-17.3-.53-34.75-1.2-51.65-1.85l-2.9-.11Zm0,62.52,2.79.11c16.88.64,34.31,1.31,51.59,1.84-1.16,20.88-2.45,41.06-3.84,60.06-16.82-.73-33.81-1.57-50.54-2.49Zm0,62.52c16.66.92,33.57,1.75,50.33,2.49-.24,3.29-.48,6.59-.73,9.87-1.31,16.89-2.7,33.48-4.14,49.34-12.83-.47-26.12-1.17-39-1.86l-6.46-.34Zm0,62.5,6.3.34c12.84.68,26.08,1.38,38.89,1.85-1,11.12-2.08,22.16-3.16,32.84-.86,8.25-1.79,17.08-2.77,25.93-13-.35-26.24-.85-39.26-1.47Zm0,62.49c12.91.62,26,1.11,38.92,1.46l-.25,2.23c-.25,2.27-.51,4.54-.77,6.79-2,16.91-4.15,33.71-6.31,50-7.37,0-14.93-.31-22.24-.61l-9.35-.35Zm0,121.92v-59.43c3.08.1,6.16.22,9.23.34,7.21.29,14.63.56,22,.61-2.64,19.74-5.42,39.2-8.26,57.9C766.83,1248.27,759.14,1248.47,751.5,1248.49Zm26-.74c2.83-18.65,5.59-38,8.22-57.72,3.21,0,6.45,0,9.66.06,3.49,0,7,.05,10.6.05s7,0,10.56-.12c-5.24,19.06-10.8,37.88-16.54,56C792.54,1246.76,785,1247.34,777.49,1247.75Zm25.75-2.07c5.7-18,11.22-36.77,16.41-55.72l9-.08c7-.05,14.19-.11,21.31-.38-7.86,18.38-16.18,36.32-24.77,53.37C817.91,1244,810.55,1244.9,803.24,1245.68Zm25.55-3.38c8.48-16.94,16.69-34.72,24.44-52.92,3-.13,6-.24,9-.35,6.8-.25,13.78-.52,20.62-1-10.4,17.48-21.46,34.43-32.92,50.43C842.92,1239.9,835.84,1241.18,828.79,1242.3Zm25.42-4.72c11.22-15.81,22-32.52,32.22-49.72l3.86-.07c7.79-.14,15.81-.3,23.83-.73a568.4,568.4,0,0,1-40,45.85C867.58,1234.6,860.89,1236.16,854.21,1237.58Zm25.53-6.13a580.07,580.07,0,0,0,38.36-44.6l1.38-.07c8.31-.37,16.85-.78,25.26-1.5A508.45,508.45,0,0,1,898,1226.17C892,1228,885.85,1229.8,879.74,1231.45Zm26.49-7.93a517.51,517.51,0,0,0,43.19-38.64l5.11-.39c6.54-.51,13.24-1,19.93-1.66a488.7,488.7,0,0,1-53.18,35.47C916.31,1220.11,911.28,1221.85,906.23,1223.52ZM944,1209.33q-3.15,1.32-6.33,2.62a496.15,496.15,0,0,0,42.39-29.67c7.13-.74,14.94-1.56,22.68-2.55A498.24,498.24,0,0,1,944,1209.33Zm65.29-33.52c-8.23,1.2-16.83,2.15-24.83,3a525.19,525.19,0,0,0,40-35.45c2.48-2.41,5-4.94,7.75-7.71,12,.43,22.78.69,32.62.78A500.55,500.55,0,0,1,1009.33,1175.81Zm93.16-73.32c-10.78,10.79-22.2,21.2-33.93,31-10.06-.06-21-.29-33.44-.71,6.27-6.47,12.61-13.35,18.9-20.54,2.52-2.88,5.22-6,8.24-9.65l.49-.59c5.21-6.23,10.35-12.71,15.31-19.27l7.44.58c11,.85,22.35,1.72,33.06,2.37C1113.35,1091.37,1108,1097,1102.49,1102.49Zm18.66-19.7c-11.39-.66-23.6-1.6-35.42-2.51l-5.54-.43a546.54,546.54,0,0,0,30.48-45.47c1.89-3.14,3.88-6.54,6-10.33,16.06,1.39,31.9,2.68,47.17,3.85A501,501,0,0,1,1121.15,1082.79Zm44.67-57.75c-15.35-1.17-31.31-2.47-47.48-3.86a544.27,544.27,0,0,0,29.46-60.9c19.23,1.65,36.36,3.08,52.23,4.37A499.65,499.65,0,0,1,1165.82,1025Zm43.51-81c-2.51,5.92-5.17,11.87-7.91,17.71-15.94-1.29-33.13-2.73-52.44-4.38.79-2,1.59-4,2.36-5.94,1.13-2.88,2.31-6,3.63-9.58l.44-1.23c4.63-12.68,8.91-26,12.73-39.59.72-2.58,1.46-5.28,2.23-8.18l26.81,1.82q14.8,1,29.39,2A500.79,500.79,0,0,1,1209.33,944Zm18.13-50.32-30.07-2.05-26.26-1.78A545.82,545.82,0,0,0,1184,823.45c18.75.64,38,1.45,56.68,2.24l2.1.09A496.59,496.59,0,0,1,1227.46,893.72Zm15.75-70.92-2.42-.1c-18.58-.79-37.77-1.6-56.43-2.23a559.52,559.52,0,0,0,4.27-69h59.86A504.35,504.35,0,0,1,1243.21,822.8Z"/></svg>