<svg id="Abstract_Shape" data-name="Abstract Shape" xmlns="http://www.w3.org/2000/svg" viewBox="0 0 1500 1500"><path d="M620,1205.46c2.63,2.06,5.25,4.12,8,6C625.26,1209.58,622.64,1207.52,620,1205.46Z"/><path d="M641.09,1219.92c-2.23-1.32-4.39-2.72-6.57-4.12C636.7,1217.19,638.86,1218.61,641.09,1219.92Z"/><path d="M1190.67,603.12c-31.43-33.57-75.5-54.63-121.51-62.33-46.2-7.94-94-3.84-139.53,7.45-91.44,23.1-174.23,73.59-244.25,137.14C623,744.26,569.5,815.12,536.5,897.76c.46-2,.86-4,1.35-5.91,21.07-83.17,68.27-160.68,127.94-226.06,60.9-64.21,135.45-118.06,220.66-146.56,42.43-14,87.61-21.35,132.42-17.1,44.58,4.08,88.87,20.92,122.84,52-31.6-33.41-75.68-54.19-121.6-61.65-46.11-7.69-93.76-3.38-139.06,8.1-91,23.46-173.26,74.18-242.68,137.76C570.25,703.31,512.87,782.59,482,875.65c-2.57,7.89-4.86,15.93-7,24a353.11,353.11,0,0,1,9.91-57.95c21.77-83.88,69.7-161.52,130-226.86,61.51-64.17,136.61-117.8,222.23-145.94,42.64-13.81,88-20.95,132.9-16.45,44.68,4.32,89,21.45,122.74,52.71C1061,472,1016.88,451.45,971.05,444.24c-46-7.45-93.48-2.92-138.58,8.73-90.6,23.82-172.3,74.77-241.1,138.4C523.85,656.34,467.2,735.5,437,827.85a406.36,406.36,0,0,0-15.93,69.49c-2.57-34.75,1.7-70.81,10.86-105.73C454.42,707,503.07,629.26,564,564c62.11-64.12,137.76-117.53,223.8-145.31,42.85-13.63,88.38-20.56,133.37-15.81,44.78,4.56,89,22,122.66,53.4-31.93-33.07-76-53.29-121.78-60.27-45.92-7.2-93.21-2.45-138.1,9.38-90.19,24.18-171.34,75.35-239.54,139C477.45,609.36,421.53,688.4,392,780c-11.06,35.05-18,72.11-18.32,110-1.61-6.55-3-13.17-4.05-19.9-6.49-41.94-2.05-86.22,9.32-128.63C402.17,656.2,451.55,578.31,513,513,575.75,449,652,395.77,738.41,368.35c43-13.45,88.76-20.16,133.84-15.17,44.87,4.8,89.11,22.49,122.57,54.09-32.1-32.91-76.23-52.85-121.87-59.58-45.82-7-92.94-2-137.63,10-89.77,24.54-170.37,75.93-238,139.65C431,562.39,375.85,641.3,347.07,732.23c-14.09,45.32-21.33,93.88-15.86,142.85.05.52.16,1,.22,1.56a216.3,216.3,0,0,1-15.54-54.86C309.54,779,314.33,734.15,326,691.37c23.88-86,74-164,136.07-229.26,63.33-64,140.08-117,226.95-144,43.25-13.27,89.14-19.76,134.31-14.53,45,5.05,89.2,23,122.49,54.78-32.28-32.75-76.42-52.41-122-58.9-45.73-6.71-92.67-1.52-137.16,10.67-89.35,24.9-169.4,76.51-236.38,140.28C384.64,515.42,330.18,594.2,302.09,684.43c-13.74,45-20.63,93-15,141.06A248.08,248.08,0,0,0,293.24,859c-16.39-25.49-26.87-55-31.12-85.6-6.23-43.7-1.09-89.05,11-132.19,24.59-86.7,75.42-164.85,138.11-230.06,63.94-64,141.24-116.73,228.52-143.43,43.46-13.09,89.52-19.36,134.79-13.88,45.06,5.28,89.28,23.54,122.39,55.46-3.71-3.73-7.62-7.24-11.63-10.63-1.22-1-8.29-6.64-12.52-9.65-113.75-80.94-314-33.24-465.47,118.21C245,569.51,201.16,788.71,309.34,896.89c31.43,33.57,75.5,54.64,121.52,62.33,46.19,7.94,94,3.85,139.53-7.45,91.43-23.1,174.22-73.59,244.25-137.13C877,755.75,930.51,684.89,963.51,602.25c-.46,2-.86,4-1.35,5.92-21.07,83.16-68.27,160.68-127.94,226.05-60.9,64.21-135.45,118.06-220.65,146.56-42.44,14-87.62,21.36-132.42,17.1-44.59-4.07-88.88-20.92-122.84-52,31.59,33.4,75.68,54.19,121.6,61.64,46.1,7.69,93.75,3.38,139.05-8.09C710,976,792.22,925.23,861.64,861.64,929.77,796.7,987.14,717.42,1018,624.36c2.56-7.89,4.85-15.92,7-24a354.44,354.44,0,0,1-9.9,58c-21.78,83.87-69.7,161.51-130,226.85-61.5,64.17-136.61,117.8-222.23,145.94-42.63,13.81-88,21-132.89,16.46-44.68-4.32-88.95-21.46-122.75-52.72,31.76,33.24,75.86,53.74,121.69,60.95,46,7.45,93.48,2.92,138.58-8.73,90.6-23.82,172.3-74.77,241.1-138.4,67.53-65,124.17-144.12,154.36-236.47a406.69,406.69,0,0,0,15.93-69.5c2.57,34.75-1.7,70.81-10.86,105.73-22.48,84.59-71.13,162.35-132,227.66-62.11,64.12-137.76,117.53-223.8,145.31-42.84,13.63-88.38,20.56-133.37,15.81-44.77-4.56-89-22-122.66-53.4,31.94,33.07,76,53.3,121.78,60.27,45.92,7.2,93.21,2.45,138.11-9.38,90.19-24.18,171.33-75.35,239.53-139,66.92-65,122.84-144,152.32-235.68,11.07-35.05,18-72.11,18.32-110,1.61,6.55,3,13.16,4.06,19.89,6.48,41.94,2.05,86.22-9.33,128.63-23.17,85.29-72.56,163.19-134,228.46-62.72,64.08-138.92,117.26-225.37,144.68-43.05,13.45-88.76,20.16-133.84,15.17-44.87-4.8-89.12-22.49-122.58-54.09,32.1,32.91,76.24,52.85,121.87,59.59,45.83,7,92.94,2,137.63-10,89.78-24.54,170.37-75.93,238-139.65,66.32-65,121.51-143.94,150.29-234.87,14.09-45.32,21.33-93.88,15.87-142.84-.06-.53-.17-1.05-.23-1.57a215.89,215.89,0,0,1,15.54,54.86c6.36,42.82,1.57,87.63-10.15,130.41-23.87,86-74,164-136.06,229.27-63.34,64-140.08,117-227,144-43.25,13.27-89.14,19.77-134.32,14.53-45-5-89.2-23-122.48-54.77,32.27,32.74,76.41,52.4,122,58.89,45.73,6.71,92.68,1.53,137.16-10.66,89.36-24.91,169.41-76.52,236.39-140.28,65.71-65.07,120.17-143.84,148.26-234.08,13.74-45,20.63-93,15-141.06a248,248,0,0,0-6.18-33.55c16.39,25.49,26.86,55,31.11,85.61,6.23,43.69,1.09,89-11,132.18-24.58,86.7-75.41,164.85-138.1,230.07-63.94,64-141.24,116.72-228.53,143.42-43.45,13.09-89.52,19.36-134.79,13.88-45.06-5.28-89.27-23.54-122.39-55.46,4.24,4.25,8,7.58,10.9,10l1.09.93-1.07-.91c3.18,2.66,5.35,4.25,6,4.75,64.1,50.26,150.64,53.06,229.48,32.6,9.24-2.35,18.56-5.09,27.81-8.22,73.72-24.52,149.31-71,215.43-137.1,74.5-74.5,124-161,145.32-243.24C1263.21,752.59,1249.19,661.64,1190.67,603.12ZM799,799c-66.12,66.12-141.72,112.57-215.44,137.09-9.24,3.14-18.56,5.88-27.81,8.23C577,862,626.54,775.54,701,701S862,577,944.29,555.72C923,638,873.47,724.47,799,799Z"/></svg>