<svg id="Abstract_Shape" data-name="Abstract Shape" xmlns="http://www.w3.org/2000/svg" viewBox="0 0 1500 1500"><path d="M955.57,330.15A290.79,290.79,0,0,0,481.92,648.37c18.81,44.74,42.34,70.93,65.08,96.25,30.75,34.23,59.78,66.56,76.4,142.23,17.3,78.78-.06,132.3-11.54,167.72-3.1,9.55-5.78,17.8-7.09,24.69a147.88,147.88,0,1,0,290.46,0c-1.21-6.33-3.74-14.22-6.67-23.36-10.9-34-29.13-90.84-12-169.05C893,812,922.26,779.22,953.22,744.48c22.76-25.56,46.3-52,64.86-96.11a291.05,291.05,0,0,0-62.51-318.22Zm-101,728.26c2.35,9,4.37,16.69,5.28,22.56,7.06,45.23-4.56,91.6-31.09,124a120,120,0,0,1-20.63,20,128.32,128.32,0,0,0,10.35-14.1c21.93-34.44,31.56-83.51,25.76-131.23-.76-6.41-2.39-14.46-4.29-23.78-6.9-34-18.46-90.86-7.56-169.37,10.45-75.22,29.1-108,48.84-142.72,14.5-25.5,29.5-51.88,41.25-96a433.55,433.55,0,0,0,14.32-112c0-77.25-19.19-150-54-204.71-15.65-24.6-33.65-44.29-53.21-58.59,30.36,13.8,58.23,35.56,81.86,64.44,43.42,53.07,67.34,123.7,67.34,198.86a334.25,334.25,0,0,1-17.93,109.1c-14.66,42.72-33.49,68.51-51.69,93.45-24.9,34.1-50.64,69.36-64.48,146.63C830.24,965.44,845.48,1023.64,854.59,1058.41ZM671.22,1205c-26.53-32.43-38.15-78.8-31.09-124,1-6.24,3.09-14.15,5.53-23.31,9.09-34.23,24.32-91.52,9.67-172.78C641.28,806.84,615.7,772,591,738.27c-18.15-24.73-36.91-50.3-51.8-93.47a334.14,334.14,0,0,1-17.93-109.09c0-75.16,23.92-145.79,67.34-198.86,23.63-28.88,51.5-50.64,81.86-64.44-19.56,14.3-37.56,34-53.21,58.59-34.85,54.75-54,127.46-54,204.71a433.55,433.55,0,0,0,14.32,112c12,44.42,26.88,70.6,41.3,95.91,19.6,34.41,38.12,66.91,48.79,142.83,11.17,79.41,0,133.46-7.44,169.22-1.92,9.28-3.58,17.29-4.41,23.9-5.8,47.72,3.83,96.78,25.76,131.25a128.32,128.32,0,0,0,10.35,14.1A120.32,120.32,0,0,1,671.22,1205Zm158.95-147.17c1.85,9.1,3.45,17,4.16,23,5.53,45.51-3.54,92.12-24.27,124.67a104.36,104.36,0,0,1-20,23.59,125.61,125.61,0,0,0,10.46-18.83c15.48-34,22.32-82.8,18.29-130.45-.54-6.4-1.7-14.44-3-23.74-4.93-34-13.18-90.94-5.41-169.78,7.45-75.47,20.81-108.28,35-143,10.37-25.46,21.08-51.77,29.42-95.88a596.06,596.06,0,0,0,10.2-111.66c0-77-13.67-149.5-38.49-204.1C833.83,304,819.1,282.51,803,267.85c26.57,13.25,51,36.48,71.37,68.52,33.83,53.17,52.47,124,52.47,199.34a423.41,423.41,0,0,1-14,109.44c-11.41,42.89-26.08,68.69-40.27,93.65-19.34,34-39.34,69.16-50.06,146.29C811.37,965.29,823.14,1023.21,830.17,1057.82ZM677.49,885.08c-10.93-77.82-30.79-112.68-50-146.39-14.11-24.77-28.7-50.38-40.33-93.55a423.71,423.71,0,0,1-14-109.43c0-75.38,18.64-146.17,52.47-199.34,20.39-32,44.8-55.27,71.37-68.52-16.12,14.66-30.85,36.14-43.4,63.76-24.82,54.6-38.49,127.09-38.49,204.1a596.25,596.25,0,0,0,10.2,111.67c8.54,44.18,19.15,70.31,29.41,95.57,14,34.55,27.28,67.19,35,143.33,8,79.55-.33,136-5.33,169.76-1.37,9.23-2.55,17.21-3.13,23.71-4.21,47.22,2.63,96,18.29,130.48A125.61,125.61,0,0,0,710,1229.06a104.29,104.29,0,0,1-20-23.58c-20.73-32.58-29.8-79.19-24.27-124.66.77-6.2,2.39-14,4.27-23.1C677,1023.49,688.91,966.21,677.49,885.08Zm43.56-238.44c1.76,43.11,3.82,68.88,5.81,93.81,2.79,35,5.43,68.15,7.08,145.43,1.74,81.15,0,138.36-1.09,172.54-.26,8.45-.48,15.75-.6,21.67-.93,45.43.42,93.47,3.59,128.52,1,11.54,2.25,21,3.59,28.08-4-6-8.27-15.61-12.16-29.85-9.1-33.44-13-80.69-10.55-126.37.34-6.16,1-13.89,1.84-22.85,3.06-34.19,8.19-91.43,3.23-172.15C717.07,808.13,709,774.9,700.46,739.71c-6-24.88-12.29-50.62-17.35-93.85a972,972,0,0,1-6-110.15c0-75.88,8-147.16,22.64-200.71,13.39-49.07,27.85-68.39,38.43-75.73-1.09,3.37-2.13,7.4-3.15,12.13-3.13,14.59-5.94,35.39-8.35,61.83-4.91,54.11-7.62,126-7.62,202.48C719,574.19,719.71,611.5,721.05,646.64Zm-21.4,238.63c-7.83-77.56-21.34-110.84-35.65-146.08-10.08-24.82-20.5-50.49-28.85-93.7a586.18,586.18,0,0,1-10-109.78c0-75.62,13.35-146.63,37.59-200,16.22-35.68,35.87-60.37,57.13-72.38-10,13-20.36,34.49-29.77,69-14.83,54.38-23,126.59-23,203.34a980.62,980.62,0,0,0,6.1,111.3c5.13,43.85,11.45,69.88,17.56,95.06,8.43,34.74,16.4,67.56,21.07,144,4.91,80-.18,136.74-3.21,170.65-.81,9-1.51,16.86-1.86,23.19-2.56,46.7,1.51,95.13,10.89,129.55a144.32,144.32,0,0,0,8.32,23.42c-6.32-6.54-12.21-15.58-17.31-26.8-15-33-21.5-79.88-17.44-125.45.55-6.21,1.72-14.06,3.06-23.14C699.33,1023.3,707.81,966.07,699.65,885.27Zm46.15,322.44c-3.14-34.7-4.47-82.33-3.56-127.41.12-5.88.35-13.15.61-21.57,1.06-34.28,2.84-91.65,1.08-173.06-1.65-77.58-4.3-110.82-7.11-146-2-24.83-4-50.5-5.78-93.41-1.33-35-2-72.18-2-110.53,0-76.17,2.69-147.76,7.58-201.58,5.17-56.8,10.89-73.15,13.39-77.76,2.5,4.61,8.22,21,13.39,77.76C768.28,388,771,459.54,771,535.71c0,38.35-.68,75.53-2,110.54-1.58,44.11-3.75,70.27-5.84,95.57-2.78,33.42-5.64,68-7,143.86-1.45,78.39.13,135.29,1.07,169.28.28,10,.52,18.62.62,25.31.7,48.59-.6,95-3.56,127.44-1.45,16-3,25.36-4.2,30.83C748.78,1233.07,747.25,1223.68,745.8,1207.71Zm60-150.24c1.33,9.15,2.47,17,3,23.15,3.88,46-2.63,92.93-17.44,125.47-5.1,11.22-11,20.26-17.31,26.8a144.53,144.53,0,0,0,8.32-23.41c9.17-33.56,13.24-82,10.89-129.53-.32-6.45-1-14.61-1.83-24-2.94-34-7.85-90.93-3.24-169.83,4.43-75.7,12.49-108.56,21-143.35,6.23-25.39,12.67-51.64,17.62-95.72a982.69,982.69,0,0,0,6.09-111.29c0-76.75-8.17-149-23-203.34-9.41-34.51-19.75-56-29.77-69,21.26,12,40.91,36.7,57.13,72.38,24.24,53.33,37.59,124.34,37.59,200a586.37,586.37,0,0,1-10,109.79c-8.16,43.13-18.68,69-28.86,94-13.79,33.86-28,68.89-35.64,145.8C792.46,965.33,800.82,1023,805.81,1057.47Zm-38,22.65c-.1-6.75-.34-15.41-.62-25.44-.94-33.9-2.51-90.65-1.08-168.81,1.41-75.57,4.26-110,7-143.22,2.11-25.42,4.29-51.7,5.87-96,1.34-35.12,2-72.43,2-110.91,0-76.46-2.71-148.37-7.62-202.48-2.41-26.44-5.22-47.24-8.35-61.83-1-4.73-2.06-8.76-3.15-12.13,10.58,7.34,25,26.66,38.43,75.73,14.6,53.55,22.64,124.83,22.64,200.71a972.28,972.28,0,0,1-6,110.16c-4.88,43.45-11.24,69.39-17.39,94.47-8.26,33.69-16.8,68.53-21.3,145.14-4.65,79.63.3,137,3.26,171.28.81,9.34,1.51,17.41,1.81,23.68,2.3,46.56-1.64,93.81-10.54,126.4-3.89,14.24-8.14,23.84-12.16,29.85,1.34-7.12,2.54-16.54,3.59-28.08C767.15,1175.88,768.46,1129.05,767.76,1080.12Zm-153.17,1c1.2-6.27,3.79-14.24,6.78-23.47,11.1-34.23,29.68-91.53,11.8-173C616,806.46,584.7,771.62,554.44,737.94c-22.19-24.71-45.14-50.26-63.31-93.45A281.22,281.22,0,0,1,641.07,276.85a248,248,0,0,0-60.24,53.67c-44.88,54.85-69.6,127.72-69.6,205.19A344.45,344.45,0,0,0,529.7,648.06c15.39,44.6,34.61,70.8,53.2,96.13,25.17,34.3,48.94,66.7,62.59,142.47,14.25,79.07,0,132.85-9.5,168.44-2.5,9.43-4.67,17.57-5.74,24.32-7.5,48,4.92,97.3,33.23,131.9q4.15,5.1,8.65,9.62a138.21,138.21,0,0,1-57.54-139.81Zm394.28-436.64C991,687.08,968,712.88,945.75,737.82,915.3,772,883.82,807.34,866.83,884.7,849.08,965.55,867.83,1024,879,1059c2.83,8.83,5.27,16.46,6.37,22.18a138.21,138.21,0,0,1-57.54,139.81q4.49-4.53,8.65-9.61c28.3-34.59,40.73-83.9,33.23-131.9-1-6.36-3.07-14.33-5.49-23.55-8.9-34-23.79-90.85-9.75-169.22,13.44-75,37.38-107.79,62.72-142.51,18.64-25.54,37.91-51.94,53.07-96.09a344.45,344.45,0,0,0,18.47-112.35c0-77.47-24.72-150.34-69.6-205.19a248,248,0,0,0-60.24-53.67,281.14,281.14,0,0,1,149.94,367.64Z"/></svg>