<svg id="Abstract_Shape" data-name="Abstract Shape" xmlns="http://www.w3.org/2000/svg" viewBox="0 0 1500 1500"><polygon points="844.41 613.64 782.34 704.54 795.28 704.54 882.18 613.64 844.41 613.64"/><polygon points="617.82 613.64 704.72 704.54 717.66 704.54 655.59 613.64 617.82 613.64"/><polygon points="720.23 522.73 711.76 431.82 635.28 431.82 660.7 522.73 720.23 522.73"/><polygon points="693.35 613.64 730.59 704.54 743.53 704.54 731.12 613.64 693.35 613.64"/><polygon points="558.81 431.82 482.33 431.82 541.63 522.73 601.17 522.73 558.81 431.82"/><polygon points="768.88 613.64 756.47 704.54 769.41 704.54 806.65 613.64 768.88 613.64"/><polygon points="422.57 977.27 329.37 1068.18 405.85 1068.18 482.1 977.27 422.57 977.27"/><polygon points="678.84 795.46 542.29 886.36 580.06 886.36 691.78 795.46 678.84 795.46"/><polygon points="542.29 613.64 678.84 704.54 691.78 704.54 580.06 613.64 542.29 613.64"/><polygon points="250 250 270.25 340.91 357.48 340.91 340.91 250 250 250"/><polygon points="329.37 431.82 422.57 522.73 482.1 522.73 405.85 431.82 329.37 431.82"/><polygon points="250 1250 340.91 1250 357.48 1159.09 270.25 1159.09 250 1250"/><polygon points="522.73 250 431.82 250 444.71 340.91 531.93 340.91 522.73 250"/><polygon points="431.82 1250 522.73 1250 531.93 1159.09 444.71 1159.09 431.82 1250"/><polygon points="795.45 1250 886.36 1250 880.84 1159.09 793.61 1159.09 795.45 1250"/><polygon points="977.27 1250 1068.18 1250 1055.29 1159.09 968.07 1159.09 977.27 1250"/><polygon points="613.64 1250 704.55 1250 706.39 1159.09 619.16 1159.09 613.64 1250"/><polygon points="704.55 250 613.64 250 619.16 340.91 706.39 340.91 704.55 250"/><polygon points="601.17 522.73 655.59 613.64 693.35 613.64 660.7 522.73 601.17 522.73"/><polygon points="839.3 522.73 806.65 613.64 844.41 613.64 898.83 522.73 839.3 522.73"/><polygon points="720.23 522.73 731.12 613.64 768.88 613.64 779.77 522.73 720.23 522.73"/><polygon points="839.3 522.73 864.72 431.82 788.24 431.82 779.77 522.73 839.3 522.73"/><polygon points="958.37 522.73 1017.67 431.82 941.19 431.82 898.83 522.73 958.37 522.73"/><polygon points="821.16 704.54 957.71 613.64 919.94 613.64 808.22 704.54 821.16 704.54"/><polygon points="886.36 250 795.45 250 793.61 340.91 880.84 340.91 886.36 250"/><polygon points="1068.18 250 977.27 250 968.07 340.91 1055.29 340.91 1068.18 250"/><polygon points="1250 250 1159.09 250 1142.52 340.91 1229.75 340.91 1250 250"/><polygon points="1077.43 522.73 1170.63 431.82 1094.15 431.82 1017.9 522.73 1077.43 522.73"/><polygon points="756.47 795.46 750 750 743.53 795.46 756.47 795.46"/><polygon points="958.37 977.27 1017.9 977.27 919.94 886.36 882.18 886.36 958.37 977.27"/><polygon points="882.18 613.64 919.94 613.64 1017.9 522.73 958.37 522.73 882.18 613.64"/><polygon points="782.34 795.46 750 750 769.41 795.46 782.34 795.46"/><polygon points="898.83 977.27 941.19 1068.18 1017.67 1068.18 958.37 977.27 898.83 977.27"/><polygon points="779.77 977.27 788.24 1068.18 864.72 1068.18 839.3 977.27 779.77 977.27"/><polygon points="541.63 977.27 482.33 1068.18 558.81 1068.18 601.17 977.27 541.63 977.27"/><polygon points="717.66 795.46 704.72 795.46 617.82 886.36 655.59 886.36 717.66 795.46"/><polygon points="660.7 977.27 635.28 1068.18 711.76 1068.18 720.23 977.27 660.7 977.27"/><polygon points="1142.52 1159.09 1159.09 1250 1250 1250 1229.75 1159.09 1142.52 1159.09"/><polygon points="864.72 1068.18 880.84 1159.09 968.07 1159.09 941.19 1068.18 864.72 1068.18"/><polygon points="711.76 1068.18 706.39 1159.09 793.61 1159.09 788.24 1068.18 711.76 1068.18"/><polygon points="1017.67 1068.18 1055.29 1159.09 1142.52 1159.09 1094.15 1068.18 1017.67 1068.18"/><polygon points="731.12 886.36 743.53 795.46 730.59 795.46 693.35 886.36 731.12 886.36"/><polygon points="617.82 886.36 580.06 886.36 482.1 977.27 541.63 977.27 617.82 886.36"/><polygon points="558.81 1068.18 531.93 1159.09 619.16 1159.09 635.28 1068.18 558.81 1068.18"/><polygon points="730.59 795.46 750 750 717.66 795.46 730.59 795.46"/><polygon points="750 750 691.78 795.46 704.72 795.46 750 750"/><polygon points="405.85 1068.18 357.48 1159.09 444.71 1159.09 482.33 1068.18 405.85 1068.18"/><polygon points="808.22 795.46 750 750 795.28 795.46 808.22 795.46"/><polygon points="806.65 886.36 769.41 795.46 756.47 795.46 768.88 886.36 806.65 886.36"/><polygon points="691.78 704.54 750 750 704.72 704.54 691.78 704.54"/><polygon points="444.71 340.91 357.48 340.91 405.85 431.82 482.33 431.82 444.71 340.91"/><polygon points="717.66 704.54 750 750 730.59 704.54 717.66 704.54"/><polygon points="541.63 522.73 482.1 522.73 580.06 613.64 617.82 613.64 541.63 522.73"/><polygon points="941.19 431.82 968.07 340.91 880.84 340.91 864.72 431.82 941.19 431.82"/><polygon points="1094.15 431.82 1142.52 340.91 1055.29 340.91 1017.67 431.82 1094.15 431.82"/><polygon points="635.28 431.82 619.16 340.91 531.93 340.91 558.81 431.82 635.28 431.82"/><polygon points="788.24 431.82 793.61 340.91 706.39 340.91 711.76 431.82 788.24 431.82"/><polygon points="743.53 704.54 750 750 756.47 704.54 743.53 704.54"/><polygon points="731.12 886.36 720.23 977.27 779.77 977.27 768.88 886.36 731.12 886.36"/><polygon points="806.65 886.36 839.3 977.27 898.83 977.27 844.41 886.36 806.65 886.36"/><polygon points="655.59 886.36 601.17 977.27 660.7 977.27 693.35 886.36 655.59 886.36"/><polygon points="882.18 886.36 795.28 795.46 782.34 795.46 844.41 886.36 882.18 886.36"/><polygon points="1170.63 1068.18 1077.43 977.27 1017.9 977.27 1094.15 1068.18 1170.63 1068.18"/><polygon points="795.28 704.54 750 750 808.22 704.54 795.28 704.54"/><polygon points="769.41 704.54 750 750 782.34 704.54 769.41 704.54"/><polygon points="957.71 886.36 821.16 795.46 808.22 795.46 919.94 886.36 957.71 886.36"/></svg>