<svg id="Abstract_Shape" data-name="Abstract Shape" xmlns="http://www.w3.org/2000/svg" viewBox="0 0 1500 1500"><path d="M489.22,480.88a1.28,1.28,0,1,0-1.28-1.27A1.27,1.27,0,0,0,489.22,480.88Z"/><path d="M541.37,482.06a2.46,2.46,0,1,0-2.45-2.45A2.46,2.46,0,0,0,541.37,482.06Z"/><path d="M593.53,483.05a3.45,3.45,0,1,0-3.44-3.44A3.44,3.44,0,0,0,593.53,483.05Z"/><path d="M645.69,483.83a4.23,4.23,0,1,0-4.23-4.22A4.22,4.22,0,0,0,645.69,483.83Z"/><path d="M697.84,484.23a4.63,4.63,0,1,0-4.62-4.62A4.62,4.62,0,0,0,697.84,484.23Z"/><path d="M750,484.42a4.82,4.82,0,1,0-4.82-4.81A4.81,4.81,0,0,0,750,484.42Z"/><path d="M802.16,484.23a4.63,4.63,0,1,0-4.62-4.62A4.62,4.62,0,0,0,802.16,484.23Z"/><path d="M854.31,483.83a4.23,4.23,0,1,0-4.22-4.22A4.22,4.22,0,0,0,854.31,483.83Z"/><path d="M906.47,483.05a3.45,3.45,0,1,0-3.44-3.44A3.44,3.44,0,0,0,906.47,483.05Z"/><path d="M958.63,482.06a2.46,2.46,0,1,0-2.46-2.45A2.45,2.45,0,0,0,958.63,482.06Z"/><path d="M1010.78,480.88a1.28,1.28,0,1,0-1.27-1.27A1.27,1.27,0,0,0,1010.78,480.88Z"/><path d="M358.82,526.23a1.38,1.38,0,1,0-1.37-1.38A1.38,1.38,0,0,0,358.82,526.23Z"/><circle cx="410.98" cy="524.85" r="3.24"/><path d="M463.14,530a5.11,5.11,0,1,0-5.11-5.11A5.11,5.11,0,0,0,463.14,530Z"/><path d="M515.29,531.44a6.59,6.59,0,1,0-6.58-6.59A6.59,6.59,0,0,0,515.29,531.44Z"/><path d="M567.45,532.81a8,8,0,1,0-8-8A8,8,0,0,0,567.45,532.81Z"/><path d="M619.61,533.8a8.95,8.95,0,1,0-9-8.95A8.95,8.95,0,0,0,619.61,533.8Z"/><circle cx="671.76" cy="524.85" r="9.73"/><path d="M723.92,534.88a10,10,0,1,0-10-10A10,10,0,0,0,723.92,534.88Z"/><path d="M776.08,534.88a10,10,0,1,0-10-10A10,10,0,0,0,776.08,534.88Z"/><circle cx="828.24" cy="524.85" r="9.73"/><path d="M880.39,533.8a8.95,8.95,0,1,0-8.94-8.95A9,9,0,0,0,880.39,533.8Z"/><path d="M932.55,532.81a8,8,0,1,0-8-8A8,8,0,0,0,932.55,532.81Z"/><path d="M984.71,531.44a6.59,6.59,0,1,0-6.59-6.59A6.59,6.59,0,0,0,984.71,531.44Z"/><path d="M1036.86,530a5.11,5.11,0,1,0-5.11-5.11A5.11,5.11,0,0,0,1036.86,530Z"/><circle cx="1089.02" cy="524.85" r="3.24"/><path d="M1141.18,526.23a1.38,1.38,0,1,0-1.38-1.38A1.37,1.37,0,0,0,1141.18,526.23Z"/><path d="M280.59,571.57a1.48,1.48,0,1,0-1.48-1.47A1.47,1.47,0,0,0,280.59,571.57Z"/><path d="M332.75,574a3.93,3.93,0,1,0-3.94-3.93A3.93,3.93,0,0,0,332.75,574Z"/><path d="M384.9,576.29a6.2,6.2,0,1,0-6.19-6.19A6.2,6.2,0,0,0,384.9,576.29Z"/><path d="M437.06,578.36a8.26,8.26,0,1,0-8.26-8.26A8.26,8.26,0,0,0,437.06,578.36Z"/><path d="M489.22,580.32A10.23,10.23,0,1,0,479,570.1,10.23,10.23,0,0,0,489.22,580.32Z"/><path d="M541.37,582.09a12,12,0,1,0-12-12A12,12,0,0,0,541.37,582.09Z"/><path d="M593.53,583.47a13.37,13.37,0,1,0-13.37-13.37A13.38,13.38,0,0,0,593.53,583.47Z"/><path d="M645.69,584.55a14.45,14.45,0,1,0-14.45-14.45A14.45,14.45,0,0,0,645.69,584.55Z"/><path d="M697.84,585.24A15.14,15.14,0,1,0,682.7,570.1,15.14,15.14,0,0,0,697.84,585.24Z"/><path d="M750,585.43a15.34,15.34,0,1,0-15.34-15.33A15.33,15.33,0,0,0,750,585.43Z"/><path d="M802.16,585.24A15.14,15.14,0,1,0,787,570.1,15.14,15.14,0,0,0,802.16,585.24Z"/><path d="M854.31,584.55a14.45,14.45,0,1,0-14.45-14.45A14.45,14.45,0,0,0,854.31,584.55Z"/><path d="M906.47,583.47A13.37,13.37,0,1,0,893.1,570.1,13.38,13.38,0,0,0,906.47,583.47Z"/><path d="M958.63,582.09a12,12,0,1,0-12-12A12,12,0,0,0,958.63,582.09Z"/><path d="M1010.78,580.32a10.23,10.23,0,1,0-10.22-10.22A10.23,10.23,0,0,0,1010.78,580.32Z"/><path d="M1062.94,578.36a8.26,8.26,0,1,0-8.26-8.26A8.26,8.26,0,0,0,1062.94,578.36Z"/><path d="M1115.1,576.29a6.2,6.2,0,1,0-6.2-6.19A6.19,6.19,0,0,0,1115.1,576.29Z"/><path d="M1167.25,574a3.93,3.93,0,1,0-3.93-3.93A3.93,3.93,0,0,0,1167.25,574Z"/><path d="M1219.41,571.57a1.48,1.48,0,1,0-1.47-1.47A1.47,1.47,0,0,0,1219.41,571.57Z"/><path d="M202.35,615.54a.2.2,0,0,0,.2-.2.19.19,0,0,0-.2-.19.19.19,0,0,0-.19.19A.2.2,0,0,0,202.35,615.54Z"/><path d="M254.51,618.29a3,3,0,1,0-2.95-2.95A2.95,2.95,0,0,0,254.51,618.29Z"/><path d="M306.67,621a5.61,5.61,0,1,0-5.61-5.61A5.61,5.61,0,0,0,306.67,621Z"/><path d="M358.82,623.6a8.26,8.26,0,1,0-8.25-8.26A8.26,8.26,0,0,0,358.82,623.6Z"/><path d="M411,626.06a10.72,10.72,0,1,0-10.71-10.72A10.72,10.72,0,0,0,411,626.06Z"/><path d="M463.14,628.42a13.08,13.08,0,1,0-13.08-13.08A13.08,13.08,0,0,0,463.14,628.42Z"/><path d="M515.29,630.58a15.24,15.24,0,1,0-15.23-15.24A15.24,15.24,0,0,0,515.29,630.58Z"/><path d="M567.45,632.55a17.21,17.21,0,1,0-17.2-17.21A17.21,17.21,0,0,0,567.45,632.55Z"/><path d="M619.61,596.57a18.78,18.78,0,1,0,18.77,18.77A18.77,18.77,0,0,0,619.61,596.57Z"/><path d="M671.76,595.39a20,20,0,1,0,20,20A19.95,19.95,0,0,0,671.76,595.39Z"/><path d="M723.92,594.8a20.55,20.55,0,1,0,20.55,20.54A20.54,20.54,0,0,0,723.92,594.8Z"/><path d="M776.08,594.8a20.55,20.55,0,1,0,20.54,20.54A20.55,20.55,0,0,0,776.08,594.8Z"/><path d="M828.24,595.39a20,20,0,1,0,20,20A19.95,19.95,0,0,0,828.24,595.39Z"/><path d="M880.39,596.57a18.78,18.78,0,1,0,18.78,18.77A18.77,18.77,0,0,0,880.39,596.57Z"/><path d="M932.55,632.55a17.21,17.21,0,1,0-17.2-17.21A17.21,17.21,0,0,0,932.55,632.55Z"/><path d="M984.71,630.58a15.24,15.24,0,1,0-15.24-15.24A15.23,15.23,0,0,0,984.71,630.58Z"/><path d="M1036.86,628.42a13.08,13.08,0,1,0-13.07-13.08A13.08,13.08,0,0,0,1036.86,628.42Z"/><path d="M1089,626.06a10.72,10.72,0,1,0-10.72-10.72A10.71,10.71,0,0,0,1089,626.06Z"/><path d="M1141.18,623.6a8.26,8.26,0,1,0-8.26-8.26A8.25,8.25,0,0,0,1141.18,623.6Z"/><path d="M1193.33,621a5.61,5.61,0,1,0-5.6-5.61A5.61,5.61,0,0,0,1193.33,621Z"/><path d="M1245.49,618.29a3,3,0,1,0-3-2.95A2.95,2.95,0,0,0,1245.49,618.29Z"/><path d="M1297.65,615.54a.2.2,0,0,0,.19-.2.19.19,0,0,0-.19-.19.19.19,0,0,0-.2.19A.2.2,0,0,0,1297.65,615.54Z"/><path d="M176.28,661.18a.59.59,0,0,0,0-1.18.59.59,0,0,0,0,1.18Z"/><path d="M228.43,664.13a3.54,3.54,0,1,0-3.54-3.54A3.54,3.54,0,0,0,228.43,664.13Z"/><path d="M280.59,667a6.39,6.39,0,1,0-6.39-6.39A6.39,6.39,0,0,0,280.59,667Z"/><path d="M332.75,669.83a9.24,9.24,0,1,0-9.25-9.24A9.24,9.24,0,0,0,332.75,669.83Z"/><path d="M384.9,672.68a12.09,12.09,0,1,0-12.09-12.09A12.09,12.09,0,0,0,384.9,672.68Z"/><path d="M437.06,675.43a14.84,14.84,0,1,0-14.85-14.84A14.83,14.83,0,0,0,437.06,675.43Z"/><path d="M489.22,678.09a17.5,17.5,0,1,0-17.5-17.5A17.5,17.5,0,0,0,489.22,678.09Z"/><path d="M541.37,640.63a20,20,0,1,0,20,20A20,20,0,0,0,541.37,640.63Z"/><path d="M571.31,660.59a22.22,22.22,0,1,0,22.22-22.22A22.22,22.22,0,0,0,571.31,660.59Z"/><circle cx="645.69" cy="660.59" r="24.08"/><path d="M672.78,660.59a25.07,25.07,0,1,0,25.06-25.07A25.07,25.07,0,0,0,672.78,660.59Z"/><path d="M724.93,660.59A25.07,25.07,0,1,0,750,635.52,25.08,25.08,0,0,0,724.93,660.59Z"/><path d="M777.09,660.59a25.07,25.07,0,1,0,25.07-25.07A25.07,25.07,0,0,0,777.09,660.59Z"/><circle cx="854.31" cy="660.59" r="24.08"/><path d="M906.47,638.37a22.22,22.22,0,1,0,22.22,22.22A22.22,22.22,0,0,0,906.47,638.37Z"/><circle cx="958.63" cy="660.59" r="19.96"/><path d="M993.29,660.59a17.5,17.5,0,1,0,17.49-17.5A17.5,17.5,0,0,0,993.29,660.59Z"/><path d="M1062.94,675.43a14.84,14.84,0,1,0-14.84-14.84A14.84,14.84,0,0,0,1062.94,675.43Z"/><path d="M1115.1,672.68A12.09,12.09,0,1,0,1103,660.59,12.09,12.09,0,0,0,1115.1,672.68Z"/><path d="M1167.25,669.83a9.24,9.24,0,1,0-9.24-9.24A9.25,9.25,0,0,0,1167.25,669.83Z"/><path d="M1219.41,667a6.39,6.39,0,1,0-6.39-6.39A6.39,6.39,0,0,0,1219.41,667Z"/><path d="M1271.57,664.13a3.54,3.54,0,1,0-3.54-3.54A3.55,3.55,0,0,0,1271.57,664.13Z"/><path d="M1323.72,661.18a.59.59,0,1,0,0-1.18.59.59,0,0,0,0,1.18Z"/><path d="M150.2,705.64a.2.2,0,1,0,.19.19A.2.2,0,0,0,150.2,705.64Z"/><path d="M202.35,702.69a3.15,3.15,0,1,0,3.15,3.14A3.15,3.15,0,0,0,202.35,702.69Z"/><path d="M254.51,699.64a6.2,6.2,0,1,0,6.19,6.19A6.19,6.19,0,0,0,254.51,699.64Z"/><path d="M306.67,696.59a9.25,9.25,0,1,0,9.24,9.24A9.24,9.24,0,0,0,306.67,696.59Z"/><path d="M358.82,718a12.19,12.19,0,1,0-12.19-12.2A12.19,12.19,0,0,0,358.82,718Z"/><path d="M411,690.7a15.14,15.14,0,1,0,15.14,15.13A15.13,15.13,0,0,0,411,690.7Z"/><circle cx="463.14" cy="705.83" r="18.19"/><path d="M494.26,705.83a21,21,0,1,0,21-21A21,21,0,0,0,494.26,705.83Z"/><path d="M543.46,705.83a24,24,0,1,0,24-24A24,24,0,0,0,543.46,705.83Z"/><path d="M644.68,705.83a25.07,25.07,0,1,0-25.07,25.07A25.07,25.07,0,0,0,644.68,705.83Z"/><path d="M696.83,705.83a25.07,25.07,0,1,0-25.07,25.07A25.06,25.06,0,0,0,696.83,705.83Z"/><path d="M749,705.83a25.07,25.07,0,1,0-25.07,25.07A25.06,25.06,0,0,0,749,705.83Z"/><path d="M801.15,705.83a25.07,25.07,0,1,0-25.07,25.07A25.07,25.07,0,0,0,801.15,705.83Z"/><path d="M853.3,705.83a25.07,25.07,0,1,0-25.06,25.07A25.06,25.06,0,0,0,853.3,705.83Z"/><path d="M905.46,705.83a25.07,25.07,0,1,0-25.07,25.07A25.06,25.06,0,0,0,905.46,705.83Z"/><path d="M908.56,705.83a24,24,0,1,0,24-24A24,24,0,0,0,908.56,705.83Z"/><path d="M1005.74,705.83a21,21,0,1,0-21,21A21,21,0,0,0,1005.74,705.83Z"/><circle cx="1036.86" cy="705.83" r="18.19"/><path d="M1104.16,705.83A15.14,15.14,0,1,0,1089,721,15.13,15.13,0,0,0,1104.16,705.83Z"/><path d="M1141.18,693.65a12.19,12.19,0,1,0,12.19,12.18A12.18,12.18,0,0,0,1141.18,693.65Z"/><path d="M1193.33,696.59a9.25,9.25,0,1,0,9.24,9.24A9.24,9.24,0,0,0,1193.33,696.59Z"/><path d="M1245.49,699.64a6.2,6.2,0,1,0,6.19,6.19A6.19,6.19,0,0,0,1245.49,699.64Z"/><path d="M1297.65,702.69a3.15,3.15,0,1,0,3.14,3.14A3.15,3.15,0,0,0,1297.65,702.69Z"/><path d="M1349.8,705.64a.2.2,0,0,0-.19.19.2.2,0,1,0,.19-.19Z"/><path d="M176.28,749.12a2,2,0,1,0,2,2A2,2,0,0,0,176.28,749.12Z"/><path d="M228.43,746.07a5,5,0,1,0,5,5A5,5,0,0,0,228.43,746.07Z"/><circle cx="280.59" cy="751.08" r="7.96"/><path d="M332.75,740.07a11,11,0,1,0,11,11A11,11,0,0,0,332.75,740.07Z"/><circle cx="384.9" cy="751.08" r="14.06"/><path d="M437.06,768.19A17.11,17.11,0,1,0,420,751.08,17.1,17.1,0,0,0,437.06,768.19Z"/><path d="M509.37,751.08a20.16,20.16,0,1,0-20.15,20.15A20.15,20.15,0,0,0,509.37,751.08Z"/><path d="M518.17,751.08a23.2,23.2,0,1,0,23.2-23.2A23.2,23.2,0,0,0,518.17,751.08Z"/><path d="M568.46,751.08A25.07,25.07,0,1,0,593.53,726,25.06,25.06,0,0,0,568.46,751.08Z"/><path d="M645.69,776.15a25.07,25.07,0,1,0-25.07-25.07A25.06,25.06,0,0,0,645.69,776.15Z"/><path d="M697.84,776.15a25.07,25.07,0,1,0-25.06-25.07A25.06,25.06,0,0,0,697.84,776.15Z"/><path d="M750,776.15a25.07,25.07,0,1,0-25.07-25.07A25.07,25.07,0,0,0,750,776.15Z"/><path d="M802.16,776.15a25.07,25.07,0,1,0-25.07-25.07A25.06,25.06,0,0,0,802.16,776.15Z"/><path d="M854.31,776.15a25.07,25.07,0,1,0-25.06-25.07A25.06,25.06,0,0,0,854.31,776.15Z"/><path d="M906.47,776.15a25.07,25.07,0,1,0-25.07-25.07A25.07,25.07,0,0,0,906.47,776.15Z"/><circle cx="958.63" cy="751.08" r="23.2"/><path d="M1030.94,751.08a20.16,20.16,0,1,0-20.16,20.15A20.16,20.16,0,0,0,1030.94,751.08Z"/><path d="M1080.05,751.08a17.11,17.11,0,1,0-17.11,17.11A17.1,17.1,0,0,0,1080.05,751.08Z"/><circle cx="1115.1" cy="751.08" r="14.06"/><path d="M1167.25,740.07a11,11,0,1,0,11,11A11,11,0,0,0,1167.25,740.07Z"/><path d="M1219.41,743.12a8,8,0,1,0,8,8A8,8,0,0,0,1219.41,743.12Z"/><path d="M1271.57,746.07a5,5,0,1,0,5,5A5,5,0,0,0,1271.57,746.07Z"/><path d="M1323.72,749.12a2,2,0,1,0,2,2A2,2,0,0,0,1323.72,749.12Z"/><path d="M202.35,793.48a2.85,2.85,0,1,0,2.85,2.85A2.85,2.85,0,0,0,202.35,793.48Z"/><path d="M254.51,790.53a5.8,5.8,0,1,0,5.8,5.8A5.8,5.8,0,0,0,254.51,790.53Z"/><circle cx="306.67" cy="796.33" r="8.75"/><path d="M358.82,784.63a11.7,11.7,0,1,0,11.7,11.7A11.7,11.7,0,0,0,358.82,784.63Z"/><circle cx="410.98" cy="796.33" r="14.65"/><path d="M463.14,813.83a17.5,17.5,0,1,0-17.5-17.5A17.51,17.51,0,0,0,463.14,813.83Z"/><path d="M515.29,816.58A20.25,20.25,0,1,0,495,796.33,20.25,20.25,0,0,0,515.29,816.58Z"/><path d="M590.45,796.33a23,23,0,1,0-23,23A23,23,0,0,0,590.45,796.33Z"/><path d="M644.68,796.33a25.07,25.07,0,1,0-25.07,25.07A25.07,25.07,0,0,0,644.68,796.33Z"/><path d="M696.83,796.33a25.07,25.07,0,1,0-25.07,25.07A25.06,25.06,0,0,0,696.83,796.33Z"/><path d="M749,796.33a25.07,25.07,0,1,0-25.07,25.07A25.06,25.06,0,0,0,749,796.33Z"/><path d="M801.15,796.33a25.07,25.07,0,1,0-25.07,25.07A25.07,25.07,0,0,0,801.15,796.33Z"/><path d="M853.3,796.33a25.07,25.07,0,1,0-25.06,25.07A25.06,25.06,0,0,0,853.3,796.33Z"/><path d="M905.46,796.33a25.07,25.07,0,1,0-25.07,25.07A25.06,25.06,0,0,0,905.46,796.33Z"/><path d="M955.55,796.33a23,23,0,1,0-23,23A23,23,0,0,0,955.55,796.33Z"/><circle cx="984.71" cy="796.33" r="20.25"/><path d="M1036.86,813.83a17.5,17.5,0,1,0-17.5-17.5A17.5,17.5,0,0,0,1036.86,813.83Z"/><circle cx="1089.02" cy="796.33" r="14.65"/><circle cx="1141.18" cy="796.33" r="11.7"/><circle cx="1193.33" cy="796.33" r="8.75"/><path d="M1245.49,790.53a5.8,5.8,0,1,0,5.8,5.8A5.8,5.8,0,0,0,1245.49,790.53Z"/><path d="M1297.65,793.48a2.85,2.85,0,1,0,2.85,2.85A2.84,2.84,0,0,0,1297.65,793.48Z"/><path d="M228.43,838.72a2.85,2.85,0,1,0,2.85,2.85A2.86,2.86,0,0,0,228.43,838.72Z"/><path d="M280.59,835.87a5.71,5.71,0,1,0,5.7,5.7A5.7,5.7,0,0,0,280.59,835.87Z"/><path d="M332.75,833.12a8.46,8.46,0,1,0,8.45,8.45A8.45,8.45,0,0,0,332.75,833.12Z"/><circle cx="384.9" cy="841.57" r="11.11"/><path d="M437.06,827.81a13.77,13.77,0,1,0,13.76,13.76A13.76,13.76,0,0,0,437.06,827.81Z"/><path d="M489.22,825.35a16.22,16.22,0,1,0,16.22,16.22A16.22,16.22,0,0,0,489.22,825.35Z"/><path d="M541.37,860.15a18.58,18.58,0,1,0-18.58-18.58A18.58,18.58,0,0,0,541.37,860.15Z"/><path d="M593.53,862.22a20.65,20.65,0,1,0-20.64-20.65A20.65,20.65,0,0,0,593.53,862.22Z"/><path d="M645.69,863.79a22.22,22.22,0,1,0-22.22-22.22A22.21,22.21,0,0,0,645.69,863.79Z"/><path d="M697.84,865a23.4,23.4,0,1,0-23.39-23.4A23.4,23.4,0,0,0,697.84,865Z"/><circle cx="750" cy="841.57" r="23.79"/><path d="M802.16,865a23.4,23.4,0,1,0-23.4-23.4A23.39,23.39,0,0,0,802.16,865Z"/><circle cx="854.31" cy="841.57" r="22.22"/><path d="M906.47,862.22a20.65,20.65,0,1,0-20.64-20.65A20.65,20.65,0,0,0,906.47,862.22Z"/><path d="M958.63,860.15a18.58,18.58,0,1,0-18.58-18.58A18.58,18.58,0,0,0,958.63,860.15Z"/><path d="M1010.78,825.35A16.22,16.22,0,1,0,1027,841.57,16.23,16.23,0,0,0,1010.78,825.35Z"/><path d="M1062.94,827.81a13.77,13.77,0,1,0,13.76,13.76A13.76,13.76,0,0,0,1062.94,827.81Z"/><circle cx="1115.1" cy="841.57" r="11.11"/><path d="M1167.25,833.12a8.46,8.46,0,1,0,8.46,8.45A8.45,8.45,0,0,0,1167.25,833.12Z"/><path d="M1219.41,835.87a5.71,5.71,0,1,0,5.7,5.7A5.7,5.7,0,0,0,1219.41,835.87Z"/><path d="M1271.57,838.72a2.85,2.85,0,1,0,2.85,2.85A2.85,2.85,0,0,0,1271.57,838.72Z"/><path d="M254.51,884.85a2,2,0,1,0,2,2A2,2,0,0,0,254.51,884.85Z"/><circle cx="306.67" cy="886.82" r="4.52"/><path d="M358.82,879.84a7,7,0,1,0,7,7A7,7,0,0,0,358.82,879.84Z"/><circle cx="410.98" cy="886.82" r="9.34"/><path d="M463.14,875.22a11.6,11.6,0,1,0,11.6,11.6A11.6,11.6,0,0,0,463.14,875.22Z"/><path d="M515.29,873.16A13.66,13.66,0,1,0,529,886.82,13.66,13.66,0,0,0,515.29,873.16Z"/><circle cx="567.45" cy="886.82" r="15.43"/><path d="M619.61,870a16.81,16.81,0,1,0,16.81,16.81A16.81,16.81,0,0,0,619.61,870Z"/><circle cx="671.76" cy="886.82" r="17.89"/><path d="M742.3,886.82a18.38,18.38,0,1,0-18.38,18.38A18.38,18.38,0,0,0,742.3,886.82Z"/><circle cx="776.08" cy="886.82" r="18.38"/><circle cx="828.24" cy="886.82" r="17.89"/><path d="M880.39,870a16.81,16.81,0,1,0,16.81,16.81A16.82,16.82,0,0,0,880.39,870Z"/><path d="M932.55,871.39A15.43,15.43,0,1,0,948,886.82,15.43,15.43,0,0,0,932.55,871.39Z"/><path d="M984.71,873.16a13.66,13.66,0,1,0,13.66,13.66A13.66,13.66,0,0,0,984.71,873.16Z"/><path d="M1036.86,875.22a11.6,11.6,0,1,0,11.6,11.6A11.6,11.6,0,0,0,1036.86,875.22Z"/><circle cx="1089.02" cy="886.82" r="9.34"/><circle cx="1141.18" cy="886.82" r="6.98"/><path d="M1193.33,882.3a4.52,4.52,0,1,0,4.52,4.52A4.52,4.52,0,0,0,1193.33,882.3Z"/><path d="M1245.49,884.85a2,2,0,1,0,2,2A2,2,0,0,0,1245.49,884.85Z"/><path d="M280.59,931.87a.2.2,0,1,0,.2.2A.2.2,0,0,0,280.59,931.87Z"/><path d="M332.75,929.61a2.46,2.46,0,1,0,2.45,2.46A2.46,2.46,0,0,0,332.75,929.61Z"/><circle cx="384.9" cy="932.07" r="4.62"/><path d="M437.06,925.38a6.69,6.69,0,1,0,6.68,6.69A6.69,6.69,0,0,0,437.06,925.38Z"/><circle cx="489.22" cy="932.07" r="8.45"/><path d="M541.37,921.94a10.13,10.13,0,1,0,10.13,10.13A10.12,10.12,0,0,0,541.37,921.94Z"/><circle cx="593.53" cy="932.07" r="11.4"/><path d="M645.69,919.68a12.39,12.39,0,1,0,12.38,12.39A12.39,12.39,0,0,0,645.69,919.68Z"/><path d="M697.84,919.09a13,13,0,1,0,13,13A13,13,0,0,0,697.84,919.09Z"/><circle cx="750" cy="932.07" r="13.17"/><path d="M802.16,919.09a13,13,0,1,0,13,13A13,13,0,0,0,802.16,919.09Z"/><circle cx="854.31" cy="932.07" r="12.39"/><circle cx="906.47" cy="932.07" r="11.4"/><path d="M958.63,921.94a10.13,10.13,0,1,0,10.12,10.13A10.13,10.13,0,0,0,958.63,921.94Z"/><circle cx="1010.78" cy="932.07" r="8.45"/><path d="M1062.94,925.38a6.69,6.69,0,1,0,6.68,6.69A6.68,6.68,0,0,0,1062.94,925.38Z"/><circle cx="1115.1" cy="932.07" r="4.62"/><path d="M1167.25,929.61a2.46,2.46,0,1,0,2.46,2.46A2.46,2.46,0,0,0,1167.25,929.61Z"/><circle cx="1219.41" cy="932.07" r="0.2"/><path d="M411,975.74a1.57,1.57,0,1,0,1.57,1.57A1.57,1.57,0,0,0,411,975.74Z"/><circle cx="463.14" cy="977.31" r="3.24"/><circle cx="515.29" cy="977.31" r="4.72"/><circle cx="567.45" cy="977.31" r="5.9"/><path d="M619.61,970.43a6.88,6.88,0,1,0,6.88,6.88A6.88,6.88,0,0,0,619.61,970.43Z"/><circle cx="671.76" cy="977.31" r="7.57"/><path d="M723.92,969.45a7.87,7.87,0,1,0,7.87,7.86A7.86,7.86,0,0,0,723.92,969.45Z"/><circle cx="776.08" cy="977.31" r="7.86"/><circle cx="828.24" cy="977.31" r="7.57"/><path d="M880.39,970.43a6.88,6.88,0,1,0,6.88,6.88A6.88,6.88,0,0,0,880.39,970.43Z"/><circle cx="932.55" cy="977.31" r="5.9"/><path d="M984.71,972.59a4.72,4.72,0,1,0,4.71,4.72A4.72,4.72,0,0,0,984.71,972.59Z"/><circle cx="1036.86" cy="977.31" r="3.24"/><path d="M1089,975.74a1.57,1.57,0,1,0,1.57,1.57A1.57,1.57,0,0,0,1089,975.74Z"/><path d="M541.37,1022.07a.49.49,0,1,0,.49.49A.49.49,0,0,0,541.37,1022.07Z"/><path d="M593.53,1021.18a1.38,1.38,0,1,0,1.38,1.38A1.38,1.38,0,0,0,593.53,1021.18Z"/><circle cx="645.69" cy="1022.56" r="2.06"/><path d="M697.84,1020a2.56,2.56,0,1,0,2.56,2.56A2.56,2.56,0,0,0,697.84,1020Z"/><circle cx="750" cy="1022.56" r="2.65"/><path d="M802.16,1020a2.56,2.56,0,1,0,2.55,2.56A2.56,2.56,0,0,0,802.16,1020Z"/><circle cx="854.31" cy="1022.56" r="2.06"/><path d="M906.47,1021.18a1.38,1.38,0,1,0,1.38,1.38A1.38,1.38,0,0,0,906.47,1021.18Z"/><circle cx="958.63" cy="1022.56" r="0.49"/></svg>