<svg id="Abstract_Shape" data-name="Abstract Shape" xmlns="http://www.w3.org/2000/svg" viewBox="0 0 1500 1500"><path d="M1251.5,749.94c-2.68-68.85-30.79-127.56-83.55-174.5-38.19-34-89.3-61.86-152.13-83.05l-8.13-3.18-.08,0-46.73-14-.07,0-50-11.13h-.08l-52.58-8.05H858l-54.26-4.84-.09,0L801.6,451c-31.34-2.43-51.11-2.5-51.6-2.5s-21,.07-53.33,2.64l-3.3.1h-.06l-54.22,5H639l-52.46,8.22h-.07L536.6,475.8l-.08,0L490,490l-.09,0-7.19,2.86C420.57,514,369.94,541.73,332.05,575.44c-52.76,46.94-80.87,105.65-83.55,174.5v.12c2.68,68.85,30.79,127.56,83.55,174.5,34.2,30.42,78.75,56,132.8,76.18l3.23,1.46.09,0,44.55,15.54.08,0,48.3,12.76.08,0,51.28,9.77.06,0L666,1047H666l34,2.1c30.39,2.31,49.48,2.38,50,2.38s19.93-.07,50.82-2.45l30.17-1.76h.07l53.54-6.46h.06l51.42-9.61.08,0,48.48-12.6.07,0,44.78-15.4.09,0,4.34-1.93c54.6-20.29,99.58-46,134-76.64,52.76-46.94,80.87-105.65,83.55-174.5v-.12Zm-17.58,75-4,7.6,11.23-32-.35,2.42A229.84,229.84,0,0,1,1233.92,825Zm-13.41,29.59-7.53,12.3,8.15-15.47,2.2-3.09-1,2.78C1221.74,852.24,1221.14,853.4,1220.51,854.56ZM1203,882l-14,14.6,27.72-39-10.5,19.93Q1204.67,879.73,1203,882Zm-49.33,50.69-16.46,12.27,30-25.59-9.93,10.37C1156.12,930.69,1154.91,931.68,1153.69,932.66Zm-39.2,27.1-13.14,7.17,49.05-34.75,0,0,4.25-3.41-25.56,21.79Q1122,955.25,1114.49,959.76ZM341.35,928.6,330.3,917.3l2.24,2.05,0,0,27.7,19.49-18-9.53ZM253.92,723.32l1.36,17L253,730.18C253.29,727.88,253.59,725.6,253.92,723.32Zm41.66-103.4,16.25-18-5.1,6.89,0,.07-13.16,24.81,1.11-12.47Zm105-88.28,4.07-2.08-21.94,14.5,6.69-6.11Q394.85,534.74,400.54,531.64Zm669.12-14.87,12.62,6.36-39.67-12.68-32.38-13.81,29.57,7.59Q1055.26,510.2,1069.66,516.77Zm45.1,23.63,6.44,4.19-22.43-13.33Q1107,535.72,1114.76,540.4Zm27.93,18.53,12,11.27-33.59-23.82h0l-12.37-8,30.91,18.37C1140.63,557.43,1141.67,558.18,1142.69,558.93Zm72.75,77.67,5.46,12.47-16.05-26,8,9.32C1213.72,633.78,1214.58,635.19,1215.44,636.6Zm28.31,73.2.27,4.49-6-26.09.89,2Q1241.75,699.86,1243.75,709.8Zm2.27,67.29-.83,2.49,1.94-13.48.09,1.44Q1246.71,772.36,1246,777.09Zm-250.77,234-5.4,1.61-36.73,9.55,68.63-28.87,39.69-14.63-62,31Zm-490.44,0h0L557,1014l51.65,8.91-58.09.38L508.06,1012ZM252.17,760.94l14,16.11,16.64,26.61-26.4-16.48-3.14-15.84C252.8,767.9,252.45,764.44,252.17,760.94Zm33.29-69,7.2,26.4-26.1-12.44,1.75-27.68Zm-17-14.89,9-27.22,7.78,14.1.2,26.67Zm932.19-58.89,15.44,25-20.84-31.32Zm-.6-2.89,4.23,5.59-2.82-3.29Zm22.14,133.31-15.82,26.11,1.33-56.91,6.48-25.16Zm-7.56-83,17,54.46-8.72,26.46L1214.81,690Zm-8,52.1-13.57,25.61-10-44.83,6.32-24.55Zm-17-69.83,24.13,42.29-6.68,26-17.28-43.89Zm-21.24,76.1L1149,747.56l-13-31.49,14.17-22.65Zm-17.69-31.54,8.06-23.18L1182,698.49,1169,723ZM980.1,742.5l-9.73-10h0l-31-40,15.15,10Zm-52.78-83.63,17.54,10,22.92,43.86-12.46-10.91Zm39.94,71.23-13.58-10.34h0l-35-38.25,18.14,9.29ZM950.74,718l-17-9.92-38.39-36.16,20.79,8.28Zm91.42-7.2,34.16-11.49L1061.05,717l-34.72,9.39Zm-.58-.83-35.14,20.62,12.53-13,33.59-23.13ZM544.35,766.77,518,754.7l.45-2.82a202,202,0,0,0,24.64,13.32Zm-34.23-43.25,9.27,4.19-7.11,13-3.82-3.63Zm-2.56,12.65L505,733.62l-3.83-13.74,8,3.22Zm12.76-8.09,10.33,3.58-12.72,12.68-4.86-3ZM531.73,732l10.5,1.56-9.51,6.37c-4.15,2.17-7.45,4-9.9,5.5l-3.8-.76ZM924.91,721.9c-3.57-1.24-7.39-2.51-11.44-3.78l-31-14.17L904,710.32l24.43,12.81Zm-18.62-6c-6-1.77-12.56-3.54-19.55-5.26l-35.4-14.06,24.31,5.31ZM880,709.08q-11-2.54-23.4-4.79L819,691.35l26.38,3.95Zm-56-9.67-38.3-11.27,27.83,2.4,36.82,12.65Q837.83,701.09,824,699.41Zm-142.34-.64-1,.08-27.28-3.21,28-4.48,30.78,5-4.12.36Q694.33,697.37,681.65,698.77ZM645.14,704l-22.08-1.6,26.75-6.15,26.66,3.14C665.39,700.67,654.93,702.23,645.14,704Zm-34,7.24-16.33-.35,25-7.73,21.46,1.55C630.37,706.69,620.33,708.91,611.12,711.21Zm-64.75,21.16,20-10.33,9.46-.38-.69.24c-9.83,3.41-18.39,6.85-25.71,10.06Zm32.74-11.84-10.06.41,22.75-9.15,15.71.34C596.87,714.89,587.39,717.75,579.11,720.53ZM748,694.93l-31.71.83-30.95-5L714.13,688Zm-29.63-7,29-1,36.34,9-31.3-1.06Zm77.25,8.85-7.08-.68L752,687l28.7.73,37.52,11Q807.33,697.57,795.63,696.73Zm18.14-7.17-43.54-18.27,28.08,1.78,43.89,20.75Zm-3.27-.28-29.6-2.55L738.68,671l28.52.09Zm-32.7-2.64-30.26-.77-40.19-13.23L735.81,671ZM744.63,686l-30.41,1-37.5-10.89,27.92-3.33Zm-33.12,1.3-30,2.88-34.21-8.73,26.93-5ZM679,690.54l-29.17,4.67-30.35-6.77,25.49-6.58Zm-31.44,5.18-27.82,6.4-26-5L617.34,689Zm-29.86,7-26,8-21.22-3.6,21.38-9.45Zm-27.78,8.74L566.14,721l-16.08-2.44,18.77-10.68ZM564.61,721.8,543.5,732.73l-10.68-1.58,15.87-11.76Zm-18.48,11.61c-2.21,1-4.31,2-6.27,2.93l3.89-2.61Zm389.64-7.55-23.61-12.38,17.69,6.85,15.76,9.48Q941,727.88,935.77,725.86Zm-47-34.84,21.64,7.59L949,728.73l-18.61-9.27Zm37.46,26.84-21.86-8.45-43.17-26,23.95,6.37Zm-25.68-9.59L876,701l-44-23.49,25.8,5Zm-28.18-8.07-26.75-5.86-44.16-20.88,27.18,3.41Zm-73.8-28.11-45.37-23.33,28,.89,45.21,25.93Zm-2.51-.17-28.65-1.81-44.62-20.64,28.09-.78ZM765,670.09,736,670l-43.15-18,27.74-2.47Zm-31.32,0-28.91,1.65-41-15.46,26.93-4.11ZM702.61,672l-28.33,3.38-38.17-13.08,25.68-5.7Zm-30.35,3.75L645,680.83,610.24,670l24-7.21Zm-29.14,5.52L617.32,688l-30.73-8.9,22-8.59Zm-27.47,7.21-23.88,8.17-26.25-7.16,19.56-9.85Zm-25.36,8.8-21.58,9.55-21.34-5.7,16.84-11Zm-22.85,10.24L548.5,718.33l-16.07-4.54,13.85-11.89Zm-20,11.52-16,11.83-10.55-3.66,10.63-12.65ZM520,726.87l-9.61-4.34,5.23-13.37,15,5.1Zm-10.53-4.74-8.49-3.43-.19-14,13.87,4.13Zm-5.6,10.9-1.56-.64L493,718.3l7.08,1.17Zm-11.54-15.86-5.53-14.6,13,1.92.19,14Zm9,15.48-2.44,1.59-14.72-14.6,7.6-1.47Zm.61.79,10.35,10.75-12.59-9.29Zm2.06.71.38.16,3.29,3.31,4.46,4.23.09.07,5.6,3.47a.51.51,0,0,0,.17.07l3.63.73c-1.71,1-2.89,1.82-3.51,2.23l-1.81-1.51Zm57,38.7-14.6-5.18-1.21-1.54C549.8,768.27,555.07,770.54,560.93,772.85Zm16.41,6.89,1,8.2-35.15-11,3.13-8.26ZM612,789.1l5,7.87-37.56-8.73-1-8.19Zm1.36.28.94.18c10.6,2.58,22.27,5,35,7.18l8.24,6.89-39.16-6.35Zm37.87,7.69c11.54,1.9,23.93,3.56,37.14,4.86l11,5.92-40-3.91ZM881,790.7l27.38.57L873,798.92l-23.34-2C860.9,795,871.35,792.93,881,790.7Zm3.89-.92q8.14-2,15.45-4l15.42-3.93.18,0,29.75-1.14-33.11,9.71Zm34.41-9.12,29-9.79,31.68-3L949.57,779.5Zm31.94-11.07,26.29-11.49,33.16-5-27.24,13.45Zm-3.2.31-6.45,2q6.25-2.54,11.56-4.94l9.93-3.6Zm-198,35c6.21,0,12.28-.1,18.23-.26l16.66,4.13-39.62.93-13.9-5.07Q740.49,804.87,750,804.88Zm22-.37c12.53-.41,24.46-1.18,35.79-2.22l19.57,3.12-38.65,3.25Zm39.78-2.59c12-1.18,23.25-2.65,33.85-4.34l23.1,2-37.22,5.5Zm61.14-2,14.77,11.13-43.84,6.75-11.32-11.91Zm1.31-.26,38.35-8.3,18.05,10.17L889,810.85ZM913.9,791l35.74-10.49,21.07,9L932,801.22ZM951,780l32.58-12.49,23.81,7.73L972.18,789.1Zm33.89-13.12,29-14.29,26.2,6.26-31.21,15.8Zm30.15-15,24.9-15.87,28.22,4.66-26.76,17.51Zm26.29,7.47,14.06,19.38-35.73,16.81-10.12-20.1Zm.87-.51L1069.43,741l17.83,18.47-31,18.76Zm27.16-19L1041,735.16l20.48-17.2,29.81,2.94Zm-10.1-21.33L1039.62,735l-34.48,7.24,19.68-14.42Zm-22,18-23.64,15.07L980,756.72l23.18-13.05Zm-60.07,20.62-14.41,5.22c5.58-2.77,10-5.19,13.19-7.07l18.82-8Zm-53.26,18.12C889,787.41,830.52,801.88,750,801.88s-138.89-14.44-173.77-26.56C545.1,764.51,526.72,753.59,521.1,750c2.53-1.62,7.67-4.74,15.41-8.66l2.85-1.42a325.76,325.76,0,0,1,36.72-15.19c34.9-12.14,93.4-26.61,173.92-26.61s138.89,14.44,173.77,26.56a327.12,327.12,0,0,1,36.16,14.89l10,5.16c4.24,2.32,7.23,4.15,9,5.27C973.3,753.58,955,764.47,923.92,775.27Zm28.58-42.48-11.45-6.89,11.85,5.9,6.52,4.2C957.26,735,955,733.89,952.5,732.79Zm15.27,7.38L953.48,731h0l-39.19-30.63,18.87,8.55L968,740.3ZM930.91,706.8l-20-9-41.18-33.84,23.08,7Zm-22.73-10-22.56-7.92L842.33,657.5l24.95,5.65Zm-25.27-8.65-24.75-6.59-44.71-28.74,26.41,4.15ZM855.5,681,829,675.92l-45.41-26L811,652.42Zm-74-32.34-45.86-26.56,28.4-.06,45.16,29.2Zm-2.12-.08-28.23-.9-45.68-23.81,28.2-1.76Zm-30.3-.85-28.31.79L676,627.44,703.55,624Zm-30.3,1-27.92,2.48-43.15-18.45,26.46-5.05ZM689,651.46l-27.08,4.14-40.84-15.93L646,633.08ZM660.12,656l-25.81,5.73-37.89-13.55,23-8Zm-27.45,6.21-24.13,7.23-34.32-11.37,20.72-9.36ZM607.06,670l-22,8.63-30.22-9.43,18.1-10.52Zm-23.36,9.26-19.62,9.88-25.61-7.72,15.19-11.52ZM563,689.83l-16.86,11-20.6-6.3,12-12.34Zm-17.81,11.73-13.84,11.9-15.24-5.19,8.7-12.95ZM515.07,708l-14.22-4.23,3.5-13.92,19.4,5.24Zm-15.2-4.45-13.43-2-1.66-14.86,18.59,2.93Zm-14.44-2-13.49,1-6.65-15.9h18.47Zm.22,1,5.6,14.76-8,1.54-10.76-15.37ZM498,734.85l-5.44,4.81-19.84-15.31L483,719.92Zm.76.66,18.42,13.59a1.48,1.48,0,0,0,.32,2.12l.06,0-.47,2.93-23.67-14ZM517.6,755.6l27.8,12.75-3.15,8.29-32-13Zm25,22.25,35.4,11-11.18,12L528,789.12ZM579.1,789.2l38.15,8.87-7.48,12.55L568,801.2Zm39.18,9.09,40.29,6.53-3.7,12.84-44-6.85ZM659.57,805,701.32,809l.12,12.92-45.56-4.18Zm31.34-2.79c11.79,1.1,24.22,1.91,37.31,2.35L742,809.57,702,808.1Zm53.9,8.5,3.92,12.78L702.44,822l-.12-12.91Zm1,0,42.5-1L796,822.11l-46.23,1.35Zm43.63-1.08,41.78-3.51L842.56,818l-45.4,4.1Zm7.73,13.46,45.72-4.12-6.53,20.39-49.76,3.58Zm46.8-4.24L888.32,812,886,832.65l-48.46,6.54Zm45.34-7,42.17-9.42,1.82,20.71L887,832.47Zm43.15-9.68,39.33-11.86,6,20.51-43.51,12.08Zm40.28-12.18,35.85-14.1,10.1,20.07-40,14.56Zm47.06,6.6,35.72-16.79-3.67,32.18-41.24,16.39Zm36.78-17.32,31-18.77,1.93,32.27L1053,811.42Zm13.61-38.81,22.26-19.24,21.33,17.34-25.72,20.42Zm23-20,17-20.35,24.5,16-20.09,21.72Zm-.91-.45-30-3,15.77-18.26,30.93,1.13Zm-14.71-22.15-34.36,11.57,11.71-16.53,33.22-13.62Zm-23.37-5.69-33.68,23.19,9.43-14.23,31.28-25.48Zm-25.06,8.34-28.93,29.71,7-9.94,27.27-33.71Zm-2.91,4.42-7.91,12-25.2,21.92,3.35-3.32.08-.06Zm-15.85,20.18-7.13,7.39-11.37,8.7Zm-6.59,8.22h0l34.88-20.46L1024.34,727l-35.42,17.76Zm15.72-2.83-16.75,12.27-21.07,9,.8-.54a1.48,1.48,0,0,0,.63-1.22,1.51,1.51,0,0,0-.32-.92l.13-.11,1.69-1h0ZM982,748.34l-.1.06c-1.26-.84-4.68-3-10.21-6.1l-34.34-30.92L953,720.51l16.61,12.66,13.17,13.56a.5.5,0,0,0,.78-.61l-26.35-41.27,11.84,10.36h0l11,13.41,7.44,14a.64.64,0,0,0,.1.13Zm-1-20.09,0,0-18-45.4,11.25,11.27,12,44.15Zm-2.13-2.65-9-11-23.2-44.4,14.52,10.8Zm-33.26-57.39L921.3,624.5l20,10,19.12,44.7Zm-1.7-1L926.12,657l-29-42.13,22.64,8.81Zm9.26,33.2L937.52,690l-32.37-41.23,20.28,9Zm-17.82-11.5-18.61-9.52-36.2-39.22L903.22,648Zm-20.78-10.4-21.21-8.44-39.45-37,24.65,6.4Zm-23.4-9.12-23.44-7.15-42.09-34.54,26.26,4.89Zm-25.64-7.66L840.27,656l-44.06-32,27.42,3.29Zm-27.47-6.09-26.71-4.19-45.32-29.29,28.14,1.63Zm-73.74-34.59L718.74,593l29.51-1,44.36,30.68Zm-1.91,0-28.51.06-46-25.32,29-2.73Zm-30.39.17L703.75,623l-45.69-22.56L686.15,596Zm-30.11,2-27.62,3.44L629.67,606.8l26.7-6.09ZM672.57,627,646.07,632l-42.9-17.22,24.89-7.64Zm-28.14,5.48-25,6.61L579,624.35l22.67-9.06ZM618,639.57l-23,8-37.39-12.37,20.1-10.34Zm-24.41,8.65-20.73,9.37L539.1,647.36l17.21-11.46Zm-21.94,10-18.1,10.53L524,660.46l14.06-12.38Zm-19.14,11.27-15.18,11.52-24.8-6.67,10.67-13.12Zm-16,12.33-12,12.32-19.69-5.31,7.14-13.63Zm-32.72,6.78-18.93-3L487,670.77l23.8,4.26Zm-19.93-3.08H465l-2.42-16.17,23.5,1.27Zm-12.86,17.07-15.37,3.84L444.38,689.4l19.85-2.8Zm.47.9,10.93,15.58-10.44,4.52-15.61-16.31Zm20.34,36.74-11.65,7.67L456,731.69l15.66-6.88Zm.87.62,24.09,14.22-7.39,8.12-28.24-14.74Zm16.85,23.52,32.09,13L526.8,788.74l-35.38-14Zm17.46,25.43,38.77,11.78L538.43,815.7l-41-13.48ZM567.07,802l41.66,9.39L584.16,827l-44.29-10.95Zm43,9.69,43.9,6.83-21.5,17-46.92-8.23Zm45.26,7,45.46,4.17-18.12,18.15-48.8-5.38ZM702.14,823l46.29,1.42L734,843.55l-49.92-2.42Zm47.53,1.44,46.38-1.35L785.48,843l-50.25.58ZM786,844l49.44-3.57-29,27L753,869.1Zm51-3.7,48.17-6.5L860.65,862.4l-52.6,4.87Zm49.67-6.71,46.13-9.34-19.7,30-50.94,8Zm47.52-9.63,43.35-12-14.56,31-48.48,11Zm44.63-12.4L1018.67,797l-9.19,31.77-45.23,13.78Zm31.37,18.05,40.92-16.25-26.7,42.12L977,869.91Zm42.51-16.9,36.3-18.56-19.77,43.53L1026,854.83Zm37.74-19.31,31.1-20.56L1109,817.32l-38.37,19.62Zm0-1.23-1.92-32.3,25.74-20.44,7.5,32Zm24.67-53.47,20.1-21.74,13,31.45-25.56,22.36Zm20.12-23.33-24.56-16.05,11.45-21.12,27.29,14.49Zm-25.5-16.39-31-1.14,10.85-19,31.53-.74Zm-20.9-21.06-33.34,13.68,7.33-17.22,31.67-15.67ZM1062,673.71l-31.32,25.5,5.79-15.12,28.23-27.54Zm-26.44,9.9-26.95,33.3,5.19-12.31,23.47-36Zm-22.69,20.62-6.53,15.5-10.52,15-7.45,7.36L976,696.53l7.82,11.31L989.55,722l2,14.4a.49.49,0,0,0,.51.43.51.51,0,0,0,.48-.47l3.15-45.69,3.33,12,.2,14.85-3.72,14.8a.51.51,0,0,0,.32.6.51.51,0,0,0,.62-.27L1014.75,692ZM988,675.36l6.88,12.44-3,43.69-1.37-9.71ZM997.87,727l2.36-9.39L1013.78,675l1.5,13.41Zm2.34-12.62-.16-11.84,8.19-43.8,5.24,13.84Zm-.75-14.09-3.54-12.69,2.56-44.35,9.07,13.76ZM995,685.94l-7.12-12.85-3.16-44.46,12.81,13.31Zm-5.64,33-4.68-11.44-8.22-46.4,10.44,12.33Zm-6.06-13.47-8.16-11.79-13.84-45.91,13.88,11.84Zm-9.68-13.36-11.57-11.6-19.24-45,17.09,11.06Zm-31.52-58.23-19.71-42.41,22.68,10.35,14.34,43.27Zm-1.45-.75L920.43,623l-24.72-41.08L921,590.81Zm-21.78-10.76-22.83-8.89L866.73,574l27.51,7.37Zm5.46,33.91-20.52-9.11-33.29-40.27,24.89,7.42ZM902,646.49l-22.87-7.86-37-38.17,26.71,5.9Zm-24.75-8.36-24.85-6.45-40.15-35.85,28.11,4.25Zm-26.77-6.81-26.43-4.93L781.4,593l29.05,2.55Zm-28.36-5.17-27.57-3.32-44.48-30.76,29.52.79ZM748.56,591l-44.27-28,31.42-1.75,42.45,30.58Zm-1.79.05-29.58,1L671.88,566.7l30.7-3.61Zm-31.35,1.13L686.34,595l-45.63-22.63,29.49-5.41Zm-30.8,3-28.12,4.45-45.24-19.9,27.82-7.13ZM654.85,600l-26.72,6.09L584,588.9l25.71-8.73Zm-28.28,6.56-24.88,7.63-42.33-14.63,23.19-10.19Zm-26.33,8.19-22.66,9.06-39.85-12.17L558,600.19Zm-24,9.71-20.09,10.33L519.45,625l17.11-12.59Zm-21.23,11.06L537.85,647l-33.05-7.77,13.66-13.5Zm-18.17,12.24-14,12.37L494,654.25l10-14.19ZM522.07,661,511.4,674.11l-24.07-4.3,6.17-14.65Zm-35.77,8.65-23.77-1.28,1.85-16.21L492.47,655Zm-22.33,16-20.11,2.83-6.58-17.58,24.26-1.5Zm-9.42,21.13-19.79,6L420,694.23l23.27-4.66Zm.62.85,15.74,16.45-15.81,7-19.53-17.5ZM479,748.45l-21.22,9.26L431,740.06l23.92-7.92Zm1,.64,28.32,14.78-18.1,10.4-31.34-16Zm45.51,40.24L496,801.73,459,785.94l31.29-10.58Zm11.23,26.88-44.23,13.26-41.07-16.09L496,802.79Zm1.67.54,44.08,10.9-43.25,15.86-45-13.52Zm45.83,11.32L631,836.25l-41.61,18.4-48.27-10.73Zm48.44,8.49,48.51,5.34-39.31,20.81-50.78-7.77ZM683,842.08l49.6,2.41-36.4,23.08-52.49-4.69Zm51.34,2.48,49.92-.58-32.95,25.16L698,867.63Zm17.26,25.58,53-1.67-53.06,29.71-56.09-1.59Zm55.17-1.75L859,863.55,809.8,896.33l-56.11,1.79Zm54.29-5,50.54-7.92L867.1,891l-55.23,5.12Zm52.54-8.24,48.09-10.88-39.18,38.12-53.47,8.38Zm50-11.32,44.86-13.68-33.2,40.31-50.87,11.52Zm12.17,27.53L1022.7,857l-52.49,46.71-53.42,11.07Zm49.24-15,42.78-17L1022.45,889l-50.07,14.16Zm44.91-17.85,37.92-19.39-37.43,52.12-45.92,17ZM1109.79,818l32.44-21.45-28.94,54.1-41,19.62Zm.49-1.52,12.54-44.58,25.38-22.2-5.07,45.06Zm39-67.79,19.26-23.44,2.47,45.13-26.81,23.45Zm20.2-24.63,12.86-24.22,9.95,44.7L1172,769.33Zm12.82-26.75L1159.11,668l1.88-23.3,27.77,27.7Zm-24.19-29.88-29.65-12.79.08-21.65L1160,644Zm-.18,1-8.09,23.27-27.33-14.51,5.78-21.55Zm-30.47-13.94-31.64,2.64.58-19.75,31.14-4.53Zm-.17,1L1121.58,677l-31.61.74,5.76-19.55Zm-32.48,1.85-31.72,15.7,2.78-17.65,29.51-17.57Zm-58.14,25.07,1.8-15.68,24.55-29.29,1.86,17.45Zm1.65-17.05L1036,649.5l20.37-30.72,6.51,17.4Zm-.85,1.05-23.3,35.69,2.06-13.51L1035.2,651Zm-21.41,20.3-1.58-14.11,13.9-38.81,6.49,15.52Zm-2.1-15.61-5.41-14.26,8.58-39.56,10.66,15.21Zm-6.16-15.49-9.27-14,3.1-39.95,14.71,14.58Zm-10.19-15.06-13-13.52-2.44-40,18.55,13.68ZM986.8,671.72l-10.67-12.61L967.28,615l16.38,12.57ZM974.89,658l-14.11-12-14.39-43.44,19.69,11.57Zm-29-56.92-13.3-39,25.29,11.14,7.92,39.54Zm-1.26-.6L921.76,590,903.3,552l28.07,9.55Zm-24.25-11-25.5-9-23.32-36.74,30.4,7.81Zm-26.94-9.41-27.7-7.42L838,537.5l32.22,5.93Zm1,32.82-25.05-7.47-33.47-37.56,29.27,5.68Zm-26.73-7.85-26.86-5.93-37.1-35.44,30.56,3.89Zm-28.6-6.2-28.24-4.28-40.12-33.13,31.34,2Zm-30-4.45L780,591.88l-42.54-30.64,31.64.14ZM736,560.23l-40.79-26.78,34.16-2.2,38.36,29.13Zm-1.7.09-31.49,1.75-42.54-24.29,33.29-4.22Zm-33.17,1.93-30.76,3.62-43.62-21.71L658.64,538Zm-32.42,3.91-29.52,5.42-44-19.08,30-8ZM637.6,572l-27.83,7.13L566,562.65l27.61-9.73Zm-29.35,7.63-25.71,8.73-42.76-13.87,24.81-11.3Zm-27.11,9.32L558,599.12l-41.11-11.36,21.61-12.67ZM556.7,599.8l-20.3,11.48-38.8-9,18.08-13.84Zm-21.4,12.25-17.1,12.58-35.88-6.73,14.29-14.79Zm-18,13.43L503.65,639l-32.37-4.68,10.26-15.52Zm-14.35,14.4-10,14.18-28.32-2.85,6.11-16ZM463.6,651.13l-28.46-.07,2.8-17.81,31.78,1.88Zm-.22,1-1.86,16.25L437,669.89l-1.91-17.83ZM436,670l-26.74,3.21-4.61-19.59,29.44-1.52Zm.22,1,6.62,17.68-23.46,4.69-9.73-19.18Zm-2.53,42-26.51,6.48-16.7-20.2,28.42-4.82Zm.73.85L454,731.39l-24,8-21.92-19.07Zm22.12,44.25-32.73,8.7-27.57-19.63,33.5-6.72Zm1.14.72L489,774.73l-31.38,10.61-32.55-17.85Zm36.72,43.34-44.52,10.6-36.48-18.39,44.07-8Zm-3.8,27.64L432.9,838.6l-38.46-19.39,55.31-5.44Zm1.86.72L537.27,844,478,856.28l-43.27-16.95Zm46.8,14,48,10.67-59.87,15.9L480,856.88Zm50.11,11.14,50.47,7.73-59.55,19.47-50.82-11.29ZM642,863.74l52.14,4.65-58.29,23-53.42-8.18Zm54.35,4.84,53,1.51-56.12,26.43-55.19-4.92Zm-3,28.95L749,899.11l-74.18,27.08-56.79-6Zm58.34,1.65,55.63-1.77-72,31.47-58-2.57Zm58.31-1.86,54.74-5.07-68.67,35.69-58.18.91ZM867.41,892l53-8.31-64.26,39.68-57.5,4.38ZM923,883.29l50.35-11.41-58.84,43.37L858.56,923Zm-8.18,32.92,52.77-10.92-76,44.51-57.8,6.36Zm55.8-11.56,49.42-14-70,48.87-55.65,9.76ZM1023,889.84l45.23-16.79-62.92,52.85-52.62,13ZM1071,872l40.36-19.3-54.84,56.35-48.72,16Zm43-20.56L1148.79,830l-45.87,59.31-44.05,18.77Zm1-1.78,29-54.28,26.44-23.13-20,55.53Zm57-78.79,20-24.37-10.73,56.37-29.36,23.74Zm21.35-26,13.29-25.07-1.32,56.53-22.75,25.18ZM1161,643.38l-4.22-23,31.81,25.8.17,24.9Zm-1.11-.51-31.44-10.94-5.6-21.41,32.76,9Zm-32.48-11-31.12,4.52-4.63-19.66,30.12-6.36Zm-32.07,4.84-29.52,17.57-1.9-17.8,26.83-19.29Zm-31.71-1.25-6.61-17.66L1080.72,597l9.74,19.2Zm-7.1-18.56-11.27-17.22,20.1-22.11,14.78,18.56Zm-.7.75-20.31,30.65-6.62-15.84,15.8-31.84Zm-27.55,13.82L1017.48,616l11-32.63,15.63,16.32Zm-11.61-16.3-14.92-14.79,6-33.11,19.89,15.34Zm-15.8-15.51-18.78-13.85.87-33.28,23.86,14.09Zm-17.33,26.54L967,613.5,959,573.86l22.1,12.52Zm-2.43-41L958.8,572.58l-4.22-33.14L982,552Zm-23.42-13.16-25.55-11.25-9.24-32.71L953.51,539ZM931,560.41l-28.34-9.64-14.11-32,33.21,9Zm-29.58-10-30.64-7.88-18.75-31,35.3,6.9Zm-50-40-9.83-24.1,40,6.48,5.51,24.58Zm18.06,31.86-32.46-6L813.94,506.6l36.81,4.73Zm-5.23,30.1-29.44-5.71L803,533.28l33.52,4Zm-31-5.93-30.69-3.91-35.41-31.37,34.29,1.93Zm-32.34-4-31.46-2L731,531.23l34.5-.13ZM729.7,530.24,696,505.7l37.76-2.05,30.61,26.45Zm-1.57.09-34.31,2.2-36.24-22.44,36.87-4.29Zm-35.9,2.39L658.83,537,620.6,516.73l35.4-6.45Zm-35,4.53-32,6.18-39.61-17.9L619,517Zm-33.51,6.58-30,8L553.3,536.35l30.82-10.41Zm-31.52,8.53-27.64,9.75L524,549l27.8-12.16Zm-29,10.35L538.37,574l-40.05-10.69,24.35-13.7Zm-26.07,12L515.5,587.39l-38.92-8.32,20.53-15Zm-22.7,13.46L496.33,602l-37.19-6,16.39-16.11Zm-19,14.72-14.29,14.8-34.84-3.89,12-16.95Zm-15,15.73-10.28,15.52-31.92-1.89,7.46-17.51Zm-43.27,13.59-31.86-.32,5.75-19.51,33.6,2.27Zm-.25,1-2.81,17.87-29.56,1.53.58-19.71ZM408.28,673.3l-30.09,3.1-5.63-21.49,31.1-1.26Zm.33,1,9.77,19.25-28.54,4.84-11.23-21Zm-2.54,45.37-33.9,4.73-16.42-22.24,33.6-2.7Zm.79.9,21.92,19.07-33.58,6.74L373,725.25ZM422.39,767l-43,5.34-25.72-22.11,41.22-2.82Zm1.23.85,32.46,17.8-44.11,8-31.33-20.42Zm24.45,45.1-55.26,5.44-33.06-21.53,52-2.23Zm-17.28,25.72L368,839.88,335.23,817l57.31,2.39Zm1.92,1,43,16.84-67.54,5.13-38.49-20.75Zm45.18,17.67L525,871.44l-71.17,9.29-43.65-18.29Zm49.46,14.85,50.47,11.21L504.13,897,456,881.45Zm53,11.76,53,8.12-75,18.1-51.83-12.55ZM636,892.41l54.77,4.89-75.2,22.6-54.75-9.36Zm-20.41,28.5,56.27,6-86.7,19.31-54.61-11.06Zm59.39,6.29,57.39,2.55L645,954.27,588,946.57Zm60.57,2.68,57.59-.9-86.48,29.75L648,954.49Zm60.8-1,56.88-4.34-84.3,34.87-59.32-.7Zm60.08-4.58,55.26-7.7-80.8,39.82-59,2.85ZM831,957.46l57-6.27-91,35.94-59.42.89Zm60.75-6.69,54.79-9.61L859,982.45l-58.68,4.44Zm58.5-10.26L1002,927.73,919.3,974.11l-57,7.89Zm55.35-13.67,47.82-15.73-76.53,51.11-54.42,11.23Zm51.38-16.9,43.07-18.36L1031,947l-51,14.37Zm46.49-19.82,37.66-20.65-60.62,59.19-46.65,17.25Zm1.59-2,46.12-59.63,28.71-23.23-36.17,61.66Zm77.05-84.66L1204.28,779l-25.89,63.31-32.66,23.26Zm24.11-26.7,15.22-25.09-15.23,64.12-26.11,24.86Zm-16.67-131-6.41-23.57,30.42,40.21.19,25.77Zm-1.35-1.17-31.75-25.76-10.12-22.32,35.21,23.63Zm-33-26.21-32.66-9-11.17-20.84,33.47,7Zm-33.76-8.9-30.06,6.34-9.78-19.27,28.59-8.11Zm-40.38-13.82-14.81-18.58,26.59-9.74,16.74,20.24Zm-15.52-19.38-19.64-17.6,24.16-11.23,22,19.12Zm-.81.6-20,22.06-15.79-16.5,16.2-23.15Zm-36.59,4.89L1008,566.26l12.08-24,24.18,16.34Zm-20.93-16-24.08-14.22,7.77-24.5,28.37,14.81Zm-25-14.69-27.7-12.7,3.35-24.78,32.11,13Zm-28.66-13.08-30.88-11-1.08-24.81,35.31,11Zm-31.89-11.27-33.54-9L882.63,493l38,8.83Zm-40-34.84-40.28-6.53,3.75-16.2,44.1,6.86Zm-31.41,18.44-37.16-4.77-14-23.37,41.32,4Zm-14.65,25.87-33.75-4L774.81,504l37.73,2.48Zm-35.23-4.08-34.48-1.94L735.3,503.64l38.05.22Zm-66.24-29.41-21.58-21.22,42-1,17.94,22.42Zm-1.36.06-38,2.07L669.84,485l41.34-3.48Zm-39.46,2.22-37.11,4.32L628.35,491l40-5.91Zm-38.55,4.57L619.18,516l-30.39-16.52,38.1-8.24Zm-37,6.84-33.53,8.55-32.44-14.66,35.56-10.43Zm-34.94,9-31,10.46-34-12.68,32.47-12.45Zm-32.3,11-27.9,12.2-35-10.64,28.89-14.26Zm-29.13,12.87L496.94,563l-35.51-8.54,24.86-15.85Zm-25.52,14.5-20.57,15.06-35.45-6.42,20.47-17.18Zm-21.5,15.91-16.42,16.15-34.82-4.32,15.77-18.25ZM457.2,596.71l-12.05,17-33.61-2.27,10.83-19Zm-46.77,14.63-31.59-2.52,11.36-21,31.11,4.4Zm-.38,1-5.77,19.58-31.63-.62,5.76-21.48Zm-5.91,20.58-.58,19.76-31.14,1.26.08-21.65Zm-27,43.56-32.84.72L340,653.7l31.5,1.22Zm.35,1,11.26,21-33.65,2.7-10.44-23Zm-6.55,47-38.76.43-13.36-24.46,35.7,1.81Zm.77,1,22.14,21.07-41.22,2.82L333,725.83Zm6.12,46.93-47.76-.76L309.3,746.8l42.92,3.48Zm1.2,1,31.23,20.34-51.93,2.22-27.14-23.33Zm11.82,45-57.11-2.38L307.3,791.27,358,796.89ZM365.83,839.6l-56.13-7.67-23.94-25.87,47.57,10.81Zm1.8,1.25,38.21,20.6-64.1-4.06-30.56-24.25ZM408,862.58l43.32,18.16H380.21L343.53,858.5Zm45.71,19.15,47.74,15.43-76.87,4.42-42.24-19.86ZM504,898l51.41,12.45L474,919.62l-47.12-17.18Zm54.25,13.13,54.27,9.27L527.8,934.57l-51.27-14.23Zm23.47,35.39L495.42,955l-49.23-16,81.52-3.44Zm3.34.67,56.47,7.62-90.2,13.76-53-12.88Zm60,8.09,58,4.19-92.62,19.24-56-9.61Zm61.64,4.45,58.59.69-93.58,24.83-58.06-6.19Zm62.32.73,58.25-2.82-93,30.43L675,985.4Zm-34.71,28.61,58.49-.87-92.91,23.45-57.76-4.55Zm62.81-.94,57.68-4.36-92.67,29-58.46-1.06Zm62.08-4.69,55.93-7.75-91,34.51L766,1012.63Zm60.35-8.36,53.27-11-87.78,39.85-57,5.88Zm57.68-11.91,49.73-14-83.18,44.91-54.93,9.23Zm54.1-15.25,45.35-16.77-77.22,49.62-51.94,12.4Zm49.72-18.39,40.14-19.14-70,53.86-48.1,15.36Zm2.26-2.18,61.12-59.68,31.6-22.51-51.11,62.35Zm95.84-84.41,25-23.8-40.78,64.74-35.87,22Zm28-26.62L1225,792.06l-29.72,66.09L1165.76,882Zm.63-2.53,15.43-65,8.17-24.82-4.43,63.85Zm24.88-93.71h0l1.43-22.76,6,61.58-12,26.39Zm-.83-2.78-17.22-55.23-6.12-22.42,25,51.51Zm-18.87-57.46-30.5-40.3-12.11-22.17,35.8,37.48Zm-32.33-41.59-35.06-23.52-15.72-21.27,37.9,21.21ZM1144,594.33l-33.3-7-16.51-20,33.59,5Zm-50.8-28.07-21.58-18.78,33.13,2.91,21.83,20.79Zm-22.9-19.9L1044,529l32.13,1,27.08,19.28Zm-1.19.4L1045,558l-24.18-16.34,21.36-12.55Zm-49.2-5.76-28.39-14.81,18.26-13.69,31.42,16Zm-29.39-15.31-32.16-13L973.24,498l35.47,14Zm-33.19-13.43L921.88,501.2l11.31-15.37,39,11.84Zm-36.47-11.35L882.69,492l7.58-15.89,41.87,9.43ZM890,475.05l-43.12-6.71,20.55-7.07,45.93,8.06Zm-45.25-7-44.79-4.1,17.26-8.18,47.9,5.28Zm-.56,1-3.74,16.19-41.73-4.09-.12-16.28Zm-32.26,36.42-38.08-2.51-17.92-22.4,42,1.54Zm-56.68-25.94-4-16.15,46.33,1.42.12,16.29Zm-1,0-42.5,1-7.78-15.8,46.3-1.35Zm-43.58,1.06L668.77,484,657.31,468.8l45.5-4.11Zm-43,3.67-40.47,6-15-14.46,44-6.78ZM626,490.39l-38.49,8.33-18.28-13.49L611,475.9Zm-39.71,8.67L550.4,509.58l-21.32-12.33,38.86-11.72Zm-37.09,11-32.73,12.55-24-11,35.38-13.91Zm-33.91,13.1L486.19,537.5,459.77,528l31.37-15.88Zm-30.18,15-25,15.94-28.41-7.91,26.9-17.59Zm-26,16.71-20.57,17.27L408.6,566l22-19ZM437.75,573l-15.83,18.33-31-4.39,16.81-20.16Zm-48,13.75-24.25-6.23,20-21.65,21.16,7.59Zm-.57.88L377.76,608.7,350.65,604l14.14-22.63Zm-39.55,16.09-17.85-8.23,19.45-23.68,12.66,9.11Zm.53,1.2,27.24,4.75-5.78,21.55-29.55-3ZM371.5,632.2l-.08,21.71L340,652.7l1.89-23.55Zm-28.2,44.9-31.93-3.84L311.19,648l27.8,5.62Zm.28,1,10.44,23-35.64-1.8-6.83-25.08ZM331,724.69l-37.17-5.88-7.22-26.47,31,7.92Zm.64,1.11,19.65,23.41-42.82-3.48-14.11-25.82Zm-3.07,45.5-43-8.4-12.75-27,35.08,10.77Zm1.05,1.21,27,23.23-50.49-5.61-19.75-26Zm2.25,43-47.24-10.74-16.92-27.09L305.61,791Zm-24.26,15.62L270,816.33l-12.9-27.52L284,805.61Zm1.59,1.7,30.2,24-48.21-12.34-20.11-26.62Zm32.11,25.48,36.32,22-58-9.21-27-25.25Zm38.58,23.37,41.82,19.67-66.79-5.47-33.46-23.46Zm44.4,20.88,46.66,17-74.53-1.24-39.37-21.28Zm49.54,18,50.75,14.09-81.08,3.43-44.65-18.76Zm18,34.25-72.39-2.18L378.32,932.8l64.95,6.32Zm3.4,1.1,52.34,12.71-79.2,2.37-46.08-17.28Zm56,13.6,55.25,9.48-84.73,7.29L471.54,972Zm59.14,10.15,57.26,6.1-88.9,12.5-53.63-11.27Zm61.34,6.53,58.34,2.63-91.63,17.92-56.15-8Zm23.39,26-80.85,10.56-53.15-9.16,77.3-5.87Zm-27.41,17.31-63,4-49.18-9.38,58.64-.39Zm-49.23-6.29,81.44-10.64,57.31,1-83.66,15.51Zm143.73-9.51,57-2.38L734.09,1032,678,1029.41Zm62.1-2.59,55.67-5.75-85.16,25.66-56.26.81Zm60.92-6.29,53.45-9-83.82,30.69-55.46,4.15Zm58.8-9.88,50.3-12-81.08,35.56-53.76,7.4Zm55.74-13.31,46.27-14.78-77,40.17-51.16,10.51Zm-30.45,26.35L1014,995.52,946.42,1024l-47.93,9Zm4.39-2.27,77.86-40.62L1093,948l-71.53,44.37Zm81-43,70.8-54.48,34.25-21.05-61.58,57.51Zm109.35-78.18,27.67-22.32-52.1,60.37L1101.57,943Zm32-25.83,20.4-22.48L1175,898.25l-32.08,22.18Zm1.37-3,30.4-67.59L1238.4,765l-18.18,65.73Zm43.6-96.69a.09.09,0,0,1,0,0h0l3-16.45-6.39,59.43-15.61,25.64Zm-.33-3.73L1234.46,691a.13.13,0,0,1,0-.06l-2.6-12.91,12.91,48.52.31,5.23Zm-9-81.54,4.15,9.47,8.47,37.06.07,1.17Zm.92,13.45L1207,634.37l0,0-9.26-16.94,27.2,40.87,3.53,8.05Zm-28.38-55.79L1168.46,594l-16.68-19.88L1191.45,608Zm-38.34-39-37.62-21.06-20.83-19.83,39.74,18.58Zm-60.75-43.07-25.4-18.09,40.7,15.84,24,20.62ZM1076.49,529l-29.27-16,40.7,13,28.56,18.6Zm-2.27-.1-31.86-.94-30.67-15.62,30.63-.94Zm-64.41-17.5-34.57-13.68,28.67-2.7,36.25,15.45Zm-36.64-14.49-38-11.53,26.31-4.32,40.07,13.17ZM933,484.74l-40.84-9.2,23.58-5.78,43.31,10.7ZM798,463.73l-45.77-1.4,13.74-9.09,49.16,2.38Zm-47.52-1.45-46.06,1.35,10.06-9.8,49.66-.58Zm-47.54,1.4-45.58,4.12,6.21-10.31,49.37-3.56Zm-46.83,4.24-44.31,6.83,2.26-10.6,48.25-6.5Zm-45.38,7-42.24,9.44-1.75-10.67L613,464.35Zm-43.21,9.69-39.4,11.88L522.29,486l43.43-12.05Zm-40.35,12.22L491.26,511l-9.79-10.13,39.84-14.53ZM490.3,511.39l-31.74,16.07L444.84,518l35.62-16.74ZM457.62,528,430.46,545.8,413,537.16l30.84-18.69Zm-28,18.45-22.18,19.18-21-7.55L412,537.79Zm-44.12,11.1-7.14-9.46,31.26-20.67,1.8,9.55Zm-.75.67-20.22,21.87-12.55-9,25.58-22.37Zm-34,12.62-19.46,23.68L329,583.4l26.1-22.83Zm-1.52,33.74L341.09,628l-22.94-7.07,13.05-24.6ZM340.88,629,339,652.57,311.3,647l6.48-25.13Zm-30.51,17.62L293.47,636,307.22,610l9.66,11.3Zm-.18,1.07.18,25.33-24.08-9.48,6.83-26.55Zm.27,26.44,6.82,25.06-30.88-7.89-.2-26.72Zm-17.39,45.56,14.07,25.73-34.86-10.7-5.55-27.59Zm-9,42.52-27.26-15L254.58,719l16.86,16.32Zm.77,1.57,19.62,25.85-37.56-13.22-9.67-27.86ZM256,788.79l10.93,23.3-8.32-11.54C257.6,796.67,256.74,792.75,256,788.79ZM269.21,817h0l19.39,25.67-21.55-15.07a231,231,0,0,1-7.82-24.44Zm-1.47,12.3,22.84,16L317,870l-34.61-15L269,832.57C268.59,831.49,268.16,830.41,267.74,829.32ZM319.17,872,352,895.09l-45.39-12.77L283.9,856.77Zm35.33,24.78,38.82,21L338,908l-29.42-24.08Zm41.6,22.49,44.07,18.52-64.4-6.27-35.59-22.18ZM415.66,952l-48.47-9.43-31.48-22.15,39.64,12.1Zm3.51,1.69,45.22,17-57.1-6.33L370.08,944.1Zm28.38,28.7-34.73-7.53q-17.82-9-33.75-19L407,965.23Zm-37.06-16.7,57.7,6.39,49.38,14.14-64.75-2.69Zm111.15,21.69,52.7,11.08L503,999.8l-46.72-15.18Zm57.05,12,55.16,7.84L557.14,1013l-50.35-12.27Zm94.88,30.89L728,1032.7l-66.78,7.92L610,1034.27Zm60.56,2.77,54.43-.78-69.43,12L666.77,1041Zm60.8-.87,53.46-4-70.88,16.21-52.61-.1Zm60.1-4.5,51.51-7.1-71.08,20.41-52,3Zm58.44-8,48.59-10-70,24.53-50.4,6.08Zm112.6-28.87,72.57-45,35.62-19-64.76,48Zm114.19-67.22,28.86-20-56.59,50.7-38.39,18.25ZM1175.68,899h0l20.65-19-46.54,51.4-32.58,20Zm2.41-3.58,43-64.15h0L1233,811.65l-29.44,60.28Zm59.16-90.11-9.92,31.63-.6,1.7-5.56,10.55-14.57,18.89Zm5.07-12.82-.43,3-4.8,13.64Zm-3.13,5.16,6.31-58.7,1.34,22.22-3.43,23.8Zm8.35-41.39-1.4-23.29.36-3.32.77,3.38q.87,8.25,1.21,16.7ZM1246,723l0-.26c0,.16,0,.32.07.48Zm-11.29-44.91-4.65-10.59-.78-2.94,1.48,2.4c1.2,2.9,2.33,5.84,3.41,8.79Zm-7-18-4.47-9.48c1.69,3.3,3.28,6.63,4.8,10Zm-30.46-47.46-10.53-12.29,7,6.61Zm-9.62-9.26-39.74-33.93-18.74-16.12,30.79,21.83,19,17.89Zm-29.26-31.08,3.4,2.93-1.19-.85Zm7.49,7.05,3.94,2.8,3.67,4.36ZM995.19,488.94q18.63,5.64,36,12l-27-6.93-34.69-11.41,13.1,2.59Q988.87,487,995.19,488.94Zm-33.54-8.86-30.57-7.56c12.46,2.65,25.14,5.65,37.93,9ZM800.18,453.9l-21.8-1.06,4.21-.13C787.92,453,793.8,453.41,800.18,453.9ZM750,451.5c.29,0,7.7,0,20.45.59l-4.67.15-39.86.46,8.19-.8C744.05,451.52,749.74,451.5,750,451.5ZM524.77,484.27l3.07-1.9c10.95-2.94,21.84-5.59,32.58-8Zm-20,4.68q9.87-3,19.71-5.67l-3.13,2-39,14.2,4.49-4.77Q495.66,491.72,504.75,489Zm-19.88,6.37-4.6,4.88-35.54,16.72,2.74-7.6Q465.41,501.9,484.87,495.32Zm-38.65,14.53-2.78,7.69-31.13,18.87-1.8-9.51,19.79-10.12Q438.1,513.22,446.22,509.85Zm-86.44,47.28,23.69-15.66c.54-.34,1.1-.66,1.65-1l-7.83,7.15-24.83,21.71,4.21-9.93C357.7,558.64,358.73,557.88,359.78,557.13Zm-29.32,38.46-13.13,24.73-9.55-11.18,20.38-24.8Zm-37,27.29-1.18,13.18-6.79,26.39-7.64-13.86,15.35-25.34Zm-21.11,39,.7-2.67a.5.5,0,0,0-.23-.55c.64-1.37,1.28-2.74,1.94-4.1Zm-1.75,2.73-3.24,12.44a.3.3,0,0,0,0,.1l-1.68,26.6-4.79-13q2.6-9,5.88-17.62Zm-10.19,27.74,5.12,13.94L271,733.58l-16.27-15.76A236.14,236.14,0,0,1,260.44,692.39Zm-4.57,55.16a.43.43,0,0,0,0,.05l9.32,26.86L252,759.27c-.22-3.07-.42-6.16-.54-9.27.22-5.64.63-11.2,1.2-16.7Zm25.72,108.11,0,.05,0,0,20.65,23.17-15.85-12.44a229.26,229.26,0,0,1-14.32-26.74ZM288.05,869l18,14.14,28.21,23.1-28.61-13.51L289.35,871Zm49.44,39.86,34.6,21.57-39-11.9L308,894.93Zm9.31,24,19.95,10.54,35,19-26.26-8.87q-6.37-4.08-12.43-8.33Zm69.64,43.73,36.07,7.81,45.21,14.69-43-5.5Q434.64,985.64,416.44,976.62Zm86.37,24.16,48.87,11.91-50.84-2.85q-7.71-2.39-15.19-4.9l-13.75-4.8q-6.78-2.46-13.36-5ZM651,1040.36l-8.14-.2c-10.43-1.38-21.35-3-32.64-4.86Zm10.09,1.26,47.58,3-19.5.66c-11.08-1-23.35-2.21-36.53-3.83Zm36.63,4.32,21.33-.73,47.53.09-31.57,2.83C726,1047.8,713.3,1047.16,697.76,1045.94ZM750,1048.5c-.16,0-2.49,0-6.66-.11l34.19-3.08,46.29-2.7-24.75,3.57C769.2,1048.43,750.47,1048.5,750,1048.5Zm65.63-3.7,19.9-2.88,43.77-5.27-6.7,1.33C851.72,1041.07,832.43,1043.26,815.63,1044.8Zm210.47-43.95-15.25,5.25-5.45,1.77,64.47-32.27,33.39-15.87-55,32.67Q1037.47,996.78,1026.1,1000.85Zm28.51-11.05L1113,955.12,1137.61,940l-43.71,31-10.25,5.58Q1069.7,983.48,1054.61,989.8Zm100.09-62.36,49.68-54.87,0,0,6-7.82-26.15,36.83-8.83,9.22Zm89-137.24-.15.44.59-4.12.64-2C1244.49,786.4,1244.13,788.31,1243.75,790.2ZM1191,603l-10.32-9.71-8.4-9.81A269.72,269.72,0,0,1,1191,603ZM964.3,477.21,959,475.87l1.63.23Zm-39-9q-9.37-1.92-18.53-3.61l3.75.33ZM858,456.91l1,.16-1.2-.16Zm-218.76.35,1.22-.11-1.61.22Zm-52.45,8.22L601,463.25q-7.9,1.39-16,2.95Zm-6.93,1.73c-2.42.49-4.86,1-7.31,1.49l8.25-1.87Zm-42.94,9.55,6.29-1.42-6.7,1.68ZM327,584.19l-8.26,10.06a.51.51,0,0,0-.16-.54.5.5,0,0,0-.69.06l-15.1,16.71A265.31,265.31,0,0,1,327,584.19Zm-16.68,314.3,6.13,5.75a.5.5,0,0,0,.13.45l15.37,15.71A273.7,273.7,0,0,1,310.31,898.49Zm199.17,117.1c1.78.53,3.56,1,5.34,1.55l-1.77-.3Zm14.46,4.13.33,0c14.35,3.91,28.62,7.34,42.6,10.34l-5.52-.51Zm47.59,11.82,3.91.36c14.46,3,28.57,5.47,42.08,7.6l-4.89-.12Zm53.77,9.16c4.64.7,9.2,1.34,13.67,2l-16.22-2Zm40.79,5.32-3.45-.43,3.77.42Zm218.39-6.19-23.8,2.87c9.84-1.33,20.1-2.87,30.68-4.64Zm51.42-9.61-36.6,6.84,4.57-1.17c12.85-2.33,26.1-5,39.56-8.06Zm48.5-12.61-30.2,7.85,2.12-.67q15.23-3.72,30.66-8.17ZM1166,922.3l-1.17,1,9.94-10.38,6.71-5.72,0-.05L1194,893.5A271.36,271.36,0,0,1,1166,922.3Z"/></svg>