<svg id="Abstract_Shape" data-name="Abstract Shape" xmlns="http://www.w3.org/2000/svg" viewBox="0 0 1500 1500"><polygon points="1250 735 863.94 735 1236.85 635.08 1229.08 606.1 856.17 706.02 1190.51 512.99 1175.51 487.01 841.17 680.04 1114.16 407.05 1092.95 385.84 819.96 658.83 1012.99 324.49 987.01 309.49 793.98 643.83 893.9 270.92 864.92 263.15 765 636.06 765 250 735 250 735 636.06 635.08 263.15 606.1 270.92 706.02 643.83 512.99 309.49 487.01 324.49 680.04 658.83 407.05 385.84 385.84 407.05 658.83 680.04 324.49 487.01 309.49 512.99 643.83 706.02 270.92 606.1 263.15 635.08 636.06 735 250 735 250 765 636.06 765 263.15 864.92 270.92 893.9 643.83 793.98 309.49 987.01 324.49 1012.99 658.83 819.96 385.84 1092.95 407.05 1114.16 680.04 841.17 487.01 1175.51 512.99 1190.51 706.02 856.17 606.1 1229.08 635.08 1236.85 735 863.94 735 1250 765 1250 765 863.94 864.92 1236.85 893.9 1229.08 793.98 856.17 987.01 1190.51 1012.99 1175.51 819.96 841.17 1092.95 1114.16 1114.16 1092.95 841.17 819.96 1175.51 1012.99 1190.51 987.01 856.17 793.98 1229.08 893.9 1236.85 864.92 863.94 765 1250 765 1250 735"/></svg>