<svg id="Abstract_Shape" data-name="Abstract Shape" xmlns="http://www.w3.org/2000/svg" viewBox="0 0 1500 1500"><path d="M1216.84,628.91c-25.79-36.59-62.61-69.38-109.43-97.47C1011.83,474.08,884.89,442.5,750,442.5s-261.83,31.58-357.41,88.94c-46.82,28.09-83.64,60.88-109.43,97.47-27,38.27-40.66,79-40.66,121.09s13.68,82.82,40.66,121.09c25.79,36.59,62.61,69.38,109.43,97.47,95.58,57.36,222.52,88.94,357.41,88.94s261.83-31.58,357.41-88.94c46.82-28.09,83.64-60.88,109.43-97.47,27-38.27,40.66-79,40.66-121.09S1243.82,667.18,1216.84,628.91ZM857.47,742.5c-.15-18.47-.85-36.66-2.08-54.41,49-1,95.08-2.6,134-4.94l44.86-2.69a293,293,0,0,1,8.19,62Zm-64.71,264.93c-25.13-11.58-60.39-11.58-85.52,0-7-11.91-13.6-26.67-19.58-44a583.88,583.88,0,0,1,124.68,0C806.36,980.76,799.76,995.52,792.76,1007.43ZM683,948.94a512.13,512.13,0,0,1-12.6-52.15c51.9-2.28,107.36-2.28,159.26,0A512.13,512.13,0,0,1,817,948.94,602.14,602.14,0,0,0,683,948.94Zm-15.24-67c-2.92-17.66-5.24-36.17-6.92-55.3,58.31-1,120.07-1,178.38,0-1.68,19.13-4,37.64-6.92,55.3C778.7,879.5,721.3,879.5,667.73,881.92Zm-8.11-70.28c-1.23-17.65-1.94-35.75-2.09-54.14H842.47c-.15,18.39-.86,36.49-2.09,54.14C781.32,810.67,718.68,810.67,659.62,811.64Zm-2.09-69.14c.15-18.39.86-36.49,2.09-54.14,29.53.49,60,.73,90.38.73s60.85-.24,90.38-.73c1.23,17.65,1.94,35.75,2.09,54.14Zm49.71-249.93c12.57,5.79,27.66,8.7,42.76,8.7s30.19-2.91,42.76-8.7c7,11.91,13.6,26.67,19.58,44a583.88,583.88,0,0,1-124.68,0C693.64,519.24,700.24,504.48,707.24,492.57ZM750,554.8a588.21,588.21,0,0,0,67-3.74,512.13,512.13,0,0,1,12.6,52.15c-51.9,2.28-107.36,2.28-159.26,0A512.13,512.13,0,0,1,683,551.06,588.21,588.21,0,0,0,750,554.8Zm0,65.09c27.74,0,55.49-.6,82.27-1.81,2.92,17.66,5.24,36.17,6.92,55.3-58.31,1-120.07,1-178.38,0,1.68-19.13,4-37.64,6.92-55.3C694.51,619.29,722.26,619.89,750,619.89Zm238.45,48.29c-38.94,2.34-85.11,4-134.23,4.93-1.67-19.26-4-37.93-6.89-55.78,37.9-2.06,73.45-5.36,103.78-9.91l50.08-7.51a288.73,288.73,0,0,1,29,65.76Zm-39.56-75.6c-30.41,4.56-66.1,7.86-104.15,9.89a532.51,532.51,0,0,0-12.66-53.39,350.63,350.63,0,0,0,48.79-10.51l53.16-16a299.87,299.87,0,0,1,22.8,20.55,295.68,295.68,0,0,1,35.5,42.9ZM876.56,524.2a342,342,0,0,1-49,10.43c-6.51-19.36-13.81-35.87-21.75-49.35l26.71-16a289.34,289.34,0,0,1,86.79,42.14Zm-8.12-58.15a721.7,721.7,0,0,1,114.42,26.26L937.2,506A304.82,304.82,0,0,0,868.44,466.05Zm-70.86,6.66a106.24,106.24,0,0,0-11.07-13q12.88,1.59,25.47,4.31Zm-13.22,7.18c-20.32,8.55-48.4,8.56-68.72,0,11-14.58,22.72-22.39,34.36-22.39S773.35,465.31,784.36,479.89Zm-81.94-7.18L688,464.06q12.59-2.7,25.47-4.31A106.24,106.24,0,0,0,702.42,472.71Zm-34.91-3.46,26.71,16c-7.94,13.48-15.24,30-21.75,49.35a342,342,0,0,1-49-10.43l-42.72-12.81A289.34,289.34,0,0,1,667.51,469.25ZM562.8,506l-45.66-13.7a721.7,721.7,0,0,1,114.42-26.26A304.82,304.82,0,0,0,562.8,506Zm56.33,32.56a350.63,350.63,0,0,0,48.79,10.51,532.51,532.51,0,0,0-12.66,53.39c-38-2-73.74-5.33-104.15-9.89l-43.44-6.51a295.68,295.68,0,0,1,35.5-42.9A299.87,299.87,0,0,1,566,522.62Zm-70.24,68.85c30.33,4.55,65.88,7.85,103.78,9.91-2.91,17.85-5.22,36.52-6.89,55.78-49.12-1-95.29-2.59-134.23-4.93l-41.77-2.51a288.73,288.73,0,0,1,29-65.76Zm-38.24,75.73c38.88,2.34,85,4,134,4.94-1.23,17.75-1.93,35.94-2.08,54.41H457.6a293,293,0,0,1,8.19-62ZM442.59,742.5H257.66c1.08-25.39,7.64-50,19-73.39l173.92,10.44A309.3,309.3,0,0,0,442.59,742.5Zm0,15a309.3,309.3,0,0,0,8,63L276.66,830.89c-11.36-23.4-17.92-48-19-73.39Zm15,0H642.53c.15,18.47.85,36.66,2.08,54.41-49,1-95.08,2.6-134,4.94l-44.86,2.69A293,293,0,0,1,457.6,757.5Zm53.95,74.32c38.94-2.34,85.11-4,134.23-4.93,1.67,19.26,4,37.93,6.89,55.78-37.9,2.06-73.45,5.36-103.78,9.91l-50.08,7.51a288.73,288.73,0,0,1-29-65.76Zm39.56,75.6c30.41-4.56,66.1-7.86,104.15-9.89a533.17,533.17,0,0,0,12.66,53.39,350.63,350.63,0,0,0-48.79,10.51l-53.16,16a299.87,299.87,0,0,1-22.8-20.55,295.68,295.68,0,0,1-35.5-42.9Zm72.33,68.38a342,342,0,0,1,49-10.43c6.51,19.36,13.82,35.87,21.75,49.35l-26.71,16a289.34,289.34,0,0,1-86.79-42.14Zm8.12,58.15a721.7,721.7,0,0,1-114.42-26.26L562.8,994A304.82,304.82,0,0,0,631.56,1034Zm70.86-6.66a106.24,106.24,0,0,0,11.07,13q-12.88-1.59-25.47-4.31Zm13.22-7.18c20.32-8.55,48.4-8.55,68.72,0-11,14.58-22.72,22.39-34.36,22.39S726.65,1034.69,715.64,1020.11Zm81.94,7.18,14.4,8.65q-12.59,2.7-25.47,4.31A106.24,106.24,0,0,0,797.58,1027.29Zm34.91,3.46-26.71-16c7.94-13.48,15.24-30,21.75-49.35a342,342,0,0,1,49,10.43l42.72,12.81A289.34,289.34,0,0,1,832.49,1030.75ZM937.2,994l45.66,13.7A721.7,721.7,0,0,1,868.44,1034,304.82,304.82,0,0,0,937.2,994Zm-56.33-32.56a350.63,350.63,0,0,0-48.79-10.51,533.17,533.17,0,0,0,12.66-53.39c38,2,73.74,5.33,104.15,9.89l43.44,6.51a295.68,295.68,0,0,1-35.5,42.9A299.87,299.87,0,0,1,934,977.38Zm70.24-68.85c-30.33-4.55-65.88-7.85-103.78-9.91,2.91-17.85,5.22-36.52,6.89-55.78,49.12,1,95.29,2.59,134.23,4.93l41.77,2.51a288.73,288.73,0,0,1-29,65.76Zm38.24-75.73c-38.88-2.34-85-4-134-4.94,1.23-17.75,1.93-35.94,2.08-54.41H1042.4a293,293,0,0,1-8.19,62Zm68.06-59.35h184.93c-1.08,25.39-7.64,50-19,73.39l-173.92-10.44A309.3,309.3,0,0,0,1057.41,757.5Zm0-15a309.3,309.3,0,0,0-8-63l173.92-10.44c11.36,23.4,17.92,48,19,73.39Zm158.16-88-170,10.2a303.33,303.33,0,0,0-28.4-67.24L1148,577.88C1176.53,601.1,1199.45,626.89,1215.57,654.55Zm-84.1-89.35-122.78,18.41a310.7,310.7,0,0,0-41.25-51.05q-7.89-7.87-16.22-15.1l56-16.8C1054.5,517.92,1096.5,539.79,1131.47,565.2ZM492.76,500.66l56,16.8q-8.32,7.23-16.22,15.1a310.7,310.7,0,0,0-41.25,51.05L368.53,565.2C403.5,539.79,445.5,517.92,492.76,500.66ZM352,577.88l130.82,19.63a303.33,303.33,0,0,0-28.4,67.24l-170-10.2C300.55,626.89,323.47,601.1,352,577.88ZM284.43,845.45l170-10.2a303.33,303.33,0,0,0,28.4,67.24L352,922.12C323.47,898.9,300.55,873.11,284.43,845.45Zm84.1,89.35,122.78-18.41a310.7,310.7,0,0,0,41.25,51.05q7.89,7.88,16.22,15.1l-56,16.8C445.5,982.08,403.5,960.21,368.53,934.8Zm638.71,64.54-56-16.8q8.32-7.23,16.22-15.1a310.7,310.7,0,0,0,41.25-51.05l122.78,18.41C1096.5,960.21,1054.5,982.08,1007.24,999.34ZM1148,922.12l-130.82-19.63a303.33,303.33,0,0,0,28.4-67.24l170,10.2C1199.45,873.11,1176.53,898.9,1148,922.12Z"/></svg>