<svg id="Abstract_Shape" data-name="Abstract Shape" xmlns="http://www.w3.org/2000/svg" viewBox="0 0 1500 1500"><path d="M680,748.27c-.9-68.64-41.73-194.8-91.2-281.79-21.18,4.41-42.13,9.71-62.7,15.95,68.71,82.1,125.14,204.29,126,272.93C661.25,752.58,670.56,750.22,680,748.27Z"/><path d="M652.88,456c29.8,90.22,54.69,219,55.59,287.63,9.56-1.16,19.18-1.94,28.78-2.33-.9-68.64-9.68-198.73-19.61-290.56C696,451.6,674.41,453.34,652.88,456Z"/><path d="M845.84,455.36c-21-2.41-42.21-4-63.62-4.8-9.89,91.87-17.17,222-16.27,290.63q14.28.52,28.27,2.14C793.33,674.69,816.43,545.76,845.84,455.36Z"/><path d="M821.72,747.59c9,1.77,17.79,3.89,26.34,6.33-.9-68.63,52.34-191.63,118.91-274.71Q938.11,471,907.69,465C859.31,552.42,820.82,679,821.72,747.59Z"/><path d="M895.92,772.48C895,703.85,975,591.24,1074.65,521a562.59,562.59,0,0,0-51.75-23c-83.73,77.34-150.88,195.68-150,264.31C880.91,765.34,888.6,768.76,895.92,772.48Z"/><path d="M916.71,784.58A172,172,0,0,1,935,798.45c-.9-68.63,101-166.71,227.51-219.05a387.17,387.17,0,0,0-41-31.22C1007.48,610.1,915.81,716,916.71,784.58Z"/><path d="M950.27,814A114.41,114.41,0,0,1,962,830.73C961.06,762.09,1078,682.08,1223.24,652a258.61,258.61,0,0,0-26.31-37.54C1059.81,656.05,949.37,745.41,950.27,814Z"/><path d="M969.63,847.81a82.38,82.38,0,0,1,3.76,17.25c-.9-68.63,122.49-129.43,275.58-135.78a187,187,0,0,0-8.47-38.84C1090,708.72,968.73,779.17,969.63,847.81Z"/><path d="M529.88,866.27a84.08,84.08,0,0,1,3.69-17c-.9-68.63-123.67-138.26-274.21-155.5A188.65,188.65,0,0,0,251.07,732C404.15,737.51,529,797.63,529.88,866.27Z"/><path d="M540.8,832.78a112.69,112.69,0,0,1,10.66-15.84c-.9-68.63-113.65-156.36-251.84-195.94a254.54,254.54,0,0,0-24,35.63C421.18,685.28,539.9,764.14,540.8,832.78Z"/><path d="M565.44,802a168.28,168.28,0,0,1,17.17-13.84c-.9-68.64-96.22-172.48-212.91-231.94a378.65,378.65,0,0,0-38.63,31.15C459.61,637.26,564.54,733.36,565.44,802Z"/><path d="M602.86,775.62a239.65,239.65,0,0,1,23.2-11C625.16,696,554.15,579,467.47,503.27A545.43,545.43,0,0,0,415.26,528C518,596.12,602,707,602.86,775.62Z"/><path d="M973.7,875.48c-.13,1-.42,2.39-.62,3.42l-.66,2.3c18.72-57.68,131.4-90.66,268.22-75a188.89,188.89,0,0,0,8.29-38.2C1101,762.68,980.74,810.3,973.7,875.48Z"/><path d="M969.36,888.07c-1.56,2.54-3.83,5.86-5.64,8.3,32.16-40.23,125.75-49.13,236.65-17.37a254.34,254.34,0,0,0,24-35.63C1191.07,836.86,1022.3,808.45,969.36,888.07Z"/><path d="M954.53,906.14l-2.63,2.36c-3.11,2.61-7.5,5.91-10.78,8.4,25.63-17.22,79.25-26.53,189.17,26.89a375.34,375.34,0,0,0,38.64-31.16C1071.64,874.86,988.71,874.38,954.53,906.14Z"/><path d="M922.93,928.1c-4.1,2.2-9.8,4.9-14,7l-9.3,4c19.72-8.15,58.79-4.76,132.92,57.63A547.87,547.87,0,0,0,1084.74,972C1014.78,925.58,954.18,911,922.93,928.1Z"/><path d="M871.2,949.19c-9.63,2.72-22.67,5.94-32.5,8.25,15.8-3.35,42.28,22.88,72.54,76.08,21.17-4.41,42.11-9.71,62.68-15.95C930.79,966,893.08,942.55,871.2,949.19Z"/><path d="M804.18,963.09l-14.13,1.49c-6.42.57-15,1-21.47,1.4,2.87-.22,7.87,28.57,13.79,83.32,21.59-.9,43.22-2.64,64.74-5.26C829.2,989.81,813.59,961.85,804.18,963.09Z"/><path d="M697.88,963.42c-10.09-1.21-26,26.84-43.71,81.22,21,2.41,42.2,4,63.61,4.8,5.89-54.78,11.38-83.6,15-83.38-8.44-.38-19.67-1.27-28.09-1.91Z"/><path d="M664.62,958.27c-9.26-2-21.47-5-30.57-7.33-22.06-6.37-59.2,17.66-101,69.85,19.24,5.51,39.05,10.26,59.28,14.24C621.9,981.54,648.34,955.06,664.62,958.27Z"/><path d="M606.83,941.85l-10-4.07c-4.07-1.77-9.31-4.36-13.29-6.24-34.75-16.08-88-.1-158.24,47.49a561.59,561.59,0,0,0,51.76,23C513.84,968.16,566.16,930.18,606.83,941.85Z"/><path d="M564.72,920.62c-3.73-2.55-8.46-6.14-12-8.84l-2.42-2.06c-35-30.79-117.29-28.62-212.78,10.88a389.68,389.68,0,0,0,41,31.22C459.86,907.65,530.54,897.75,564.72,920.62Z"/><path d="M540.11,899.41c-2-2.56-4.45-6-6.15-8.69-28-49.23-132.78-68.5-257.2-42.74a258.14,258.14,0,0,0,26.31,37.55h0C413.09,852.17,506.87,859.69,540.11,899.41Z"/><path d="M530.8,883.8l-.69-2.41c-.22-.95-.41-2.24-.56-3.21C522.47,812.27,400.15,764.53,251,770.73a186.16,186.16,0,0,0,8.48,38.83C397.16,792.84,511.58,825.57,530.8,883.8Z"/></svg>