<svg id="Abstract_Shape" data-name="Abstract Shape" xmlns="http://www.w3.org/2000/svg" viewBox="0 0 1500 1500"><path d="M922.9,763.26C996.32,750,1100.94,750,1250,750c-151.92,0-257.67,0-331.29-14-18.26-3.48-23-27.35-7.47-37.55,62.65-41.14,160.34-81.61,300.7-139.75-137.72,57-234.37,97.07-307.28,112.92-18,3.93-31.85-16-21.74-31.39,41.13-62.8,114.67-137.69,220.64-243.74-104.13,104-178.23,176.82-240.32,218.36C848,625,828,611.63,831.56,593.65,846.18,520.36,885.09,424,941.39,288h0c-57.44,138.54-98.5,235.17-140.79,297.22-10.4,15.26-34.05,10.1-37.33-8.07C750,503.68,750,399.06,750,250c0,151.92,0,257.67-14,331.29-3.48,18.26-27.35,23-37.55,7.47-41.14-62.65-81.61-160.34-139.75-300.7,57,137.72,97.07,234.37,112.92,307.28,3.93,18-16,31.85-31.39,21.74C577.39,576,502.5,502.41,396.45,396.44c104,104.13,176.82,178.23,218.36,240.32C625,652,611.63,672,593.65,668.44,520.36,653.82,424,614.91,288,558.61h0c138.54,57.44,235.17,98.5,297.22,140.79,15.26,10.4,10.1,34.05-8.07,37.33C503.68,750,399.06,750,250,750c151.92,0,257.67,0,331.29,14,18.26,3.48,23,27.35,7.47,37.55-62.65,41.14-160.34,81.61-300.7,139.75,137.72-57,234.37-97.07,307.28-112.92,18-3.93,31.85,16,21.74,31.39C576,922.61,502.41,997.5,396.44,1103.55c104.13-104,178.23-176.82,240.32-218.36C652,875,672,888.37,668.44,906.35c-14.62,73.29-53.53,169.62-109.83,305.7h0c57.44-138.54,98.5-235.17,140.79-297.22,10.4-15.26,34.05-10.1,37.33,8.07C750,996.32,750,1100.94,750,1250c0-151.92,0-257.67,14-331.29,3.48-18.26,27.35-23,37.55-7.47,41.14,62.65,81.61,160.34,139.75,300.7-57-137.72-97.07-234.37-112.92-307.28-3.93-18,16-31.85,31.39-21.74,62.8,41.13,137.69,114.67,243.74,220.64-104-104.13-176.82-178.23-218.36-240.32C875,848,888.37,828,906.35,831.56c73.29,14.62,169.62,53.53,305.7,109.83h0c-138.54-57.44-235.17-98.5-297.22-140.79C899.57,790.19,904.73,766.54,922.9,763.26Z"/></svg>