<svg id="Abstract_Shape" data-name="Abstract Shape" xmlns="http://www.w3.org/2000/svg" viewBox="0 0 1500 1500"><path d="M1259.73,740c-2-39.06-15.71-76.88-40.86-112.55-26-36.87-63.06-69.9-110.19-98.17C1012.71,471.71,885.33,440,750,440s-262.71,31.71-358.68,89.28c-47.13,28.27-84.2,61.3-110.19,98.17C256,663.12,242.26,700.94,240.27,740H240v20h.27c2,39,15.71,76.86,40.86,112.52,26,36.87,63.06,69.9,110.19,98.18,96,57.59,223.36,89.3,358.68,89.3s262.75-31.71,358.72-89.3c47.12-28.28,84.18-61.31,110.17-98.18,25.14-35.66,38.85-73.47,40.84-112.52h.27V740ZM274.3,705.17l.23-.34c.69-1.07,1.41-2.13,2.15-3.18.1-.14.19-.28.29-.41.77-1.09,1.57-2.18,2.39-3.26l.47-.61c.83-1.08,1.67-2.16,2.55-3.23l.39-.47c.88-1.06,1.77-2.12,2.7-3.17l.21-.24c.95-1.09,1.94-2.17,2.95-3.25l.56-.6q1.49-1.59,3.06-3.16l.55-.56q1.65-1.63,3.37-3.27c24.26-22.94,59.26-43.65,104-61.55C493.46,580.57,617.7,560,750,560s256.54,20.55,349.82,57.85c44.75,17.9,79.75,38.61,104,61.55q1.73,1.64,3.37,3.27l.55.56q1.57,1.57,3.06,3.16l.56.6c1,1.08,2,2.16,3,3.25l.21.24c.93,1,1.82,2.11,2.7,3.17l.39.47c.88,1.07,1.72,2.15,2.55,3.23l.47.61c.82,1.08,1.62,2.17,2.39,3.26.1.13.19.27.29.41.74,1.05,1.46,2.11,2.15,3.18l.23.34c.71,1.09,1.38,2.19,2,3.29.06.11.13.22.2.33l-.6-.35-1.66-.94-.93-.52-1.5-.82-1-.55-1.47-.78-1.12-.57-1.47-.74-1.19-.58-1.49-.73-1.24-.58-1.53-.72-1.27-.58-1.6-.71-1.28-.57-1.68-.72-1.28-.55c-.6-.26-1.22-.51-1.83-.76l-1.21-.5c-.79-.33-1.6-.65-2.41-1l-.88-.35-3-1.15-1.26-.48-2-.75-1.46-.53-1.91-.69-1.55-.55-1.91-.66-1.61-.55-1.92-.65-1.67-.55-2-.65-1.7-.54-2-.64-1.72-.54-2.09-.64-1.72-.52-2.25-.67-1.64-.48-2.5-.72-1.48-.42-3.51-1-.66-.19-4-1.08-1.51-.4-2.72-.71-1.75-.45-2.57-.66-1.86-.46-2.53-.63-2-.47-2.53-.61-2-.47-2.6-.61-2-.46L1127,674l-2-.45-2.77-.61-2-.44-2.93-.63-1.9-.4-3.31-.69-1.6-.34-5-1C1010.44,650.45,884.19,640,750,640s-260.44,10.47-355.5,29.48l-5,1-1.6.34-3.31.69-1.9.4-2.93.63-2,.44-2.77.61-2,.45-2.68.61-2,.46-2.6.61-2,.47-2.53.61-2,.47-2.53.63-1.86.46-2.57.66-1.75.45-2.72.71-1.51.4-4,1.08-.66.19-3.51,1-1.48.42-2.5.72-1.64.48-2.25.67-1.72.52-2.09.64-1.72.54-2,.64L321,688l-2,.65-1.67.55-1.92.65-1.61.55-1.91.66-1.55.55-1.91.69-1.46.53-2,.75-1.26.48-3,1.15-.88.35c-.81.32-1.62.64-2.41,1l-1.21.5c-.61.25-1.23.5-1.83.76l-1.28.55-1.68.72-1.28.57-1.6.71-1.27.58-1.53.72-1.24.58-1.49.73-1.19.58-1.47.74-1.12.57-1.47.78-1,.55-1.5.82-.93.52-1.66.94-.6.35c.07-.11.14-.22.2-.33C272.92,707.36,273.59,706.26,274.3,705.17Zm-9.73,34.62.71-.82.32-.36.81-.85.26-.27,1.15-1.12.26-.23,1-.9.42-.36c.32-.27.64-.55,1-.82l.4-.33c.46-.38.94-.75,1.43-1.13l.08-.06,1.45-1.08.49-.35,1.16-.81.53-.37,1.42-.95.3-.19c.58-.38,1.18-.76,1.79-1.13l.52-.32c.45-.28.91-.56,1.38-.83l.64-.38,1.48-.85.52-.3,2.05-1.12.43-.23,1.72-.9.72-.37c.52-.27,1-.54,1.59-.8l.7-.35,2.3-1.11c24.45-11.56,59.73-22,104.85-31C492.23,670.31,617.09,660,750,660s257.77,10.33,351.58,29.09l4.35.89,1.32.27,3,.62,1.47.31,2.89.62,1.33.29,3.67.81.42.09,4,.9,1.22.28,2.73.63,1.39.33,2.59.62,1.27.3,3.12.77.63.15,3.64.92,1.05.27,2.55.66,1.27.33,2.34.62,1.2.32,2.68.73.73.2,3.3.93,1,.27,2.31.67,1.18.34,2.07.61,1.15.35,2.25.68.84.26c1,.3,2,.61,3,.92l.83.27,2.11.67,1.08.36,1.83.6,1.08.36,1.92.65.86.29,2.64.93.72.25,1.91.69,1,.35,1.63.6,1,.37,1.66.63.82.31,2.33.92.63.25,1.71.69.88.36,1.41.58.89.38,1.4.6.79.34,2,.9.46.21,1.59.72.76.35,1.23.58.8.38,1.18.58.73.35,1.59.8.49.25c.49.25,1,.5,1.46.76l.65.34,1.07.57.68.38,1,.56.63.35,1.25.72.37.21,1.4.84.54.33.91.57.57.36.86.55.52.34,1,.68.31.2c.41.29.82.57,1.21.86l.42.3.79.58.44.33.73.55.41.32.8.65.26.21,1,.83.29.27c.23.19.45.39.66.58l.34.31.58.55.31.3.63.62a1.89,1.89,0,0,0,.2.2l.76.81.19.22c.19.2.36.4.53.6l.24.28.22.27H264.39ZM297.47,639c24.38-34.57,59.42-65.71,104.14-92.54C494.51,490.69,618.24,460,750,460s255.49,30.69,348.39,86.43c44.72,26.83,79.76,58,104.14,92.54a229.63,229.63,0,0,1,16.66,27.44l-.57-.54-1.19-1.13-1.31-1.22-1.21-1.12-1.36-1.23c-.41-.37-.82-.74-1.24-1.1s-.93-.83-1.41-1.24l-1.25-1.08-1.46-1.24-1.27-1.06-1.52-1.25-1.29-1-1.57-1.25-1.3-1-1.63-1.26-1.32-1-1.67-1.25-1.35-1-1.71-1.25-1.37-1-1.77-1.25-1.38-1-1.82-1.25-1.4-.95-1.89-1.25-1.4-.93-1.94-1.26-1.42-.91-2-1.25-1.45-.91-2-1.25-1.45-.88-2.1-1.26-1.47-.87-2.14-1.24-1.49-.86-2.2-1.24-1.5-.85-2.25-1.23-1.52-.84-2.31-1.24c-.5-.27-1-.54-1.51-.8l-2.38-1.25-1.52-.79c-.81-.42-1.63-.83-2.45-1.24l-1.51-.78-2.55-1.26-1.48-.73-2.65-1.28-1.44-.7-2.76-1.3-1.41-.66-2.84-1.31-1.39-.63-3-1.36-1.26-.56-3.36-1.47-1-.43-3.73-1.59-.7-.3q-4.47-1.87-9.07-3.72c-56.76-22.7-124.54-39.34-198.46-49.12q-11.68-1.54-23.55-2.85t-23.91-2.4C825.19,541.69,787.91,540,750,540s-75.19,1.67-111.33,4.91q-12,1.08-23.91,2.4t-23.55,2.85C517.29,560,449.51,576.6,392.75,599.3q-4.61,1.85-9.07,3.72l-.7.3-3.73,1.59-1,.43-3.36,1.47-1.26.56-3,1.36-1.39.63-2.84,1.31-1.41.66-2.76,1.3-1.44.7-2.65,1.28-1.48.73-2.55,1.26-1.51.78c-.82.41-1.64.82-2.45,1.24l-1.52.79-2.38,1.25c-.51.26-1,.53-1.51.8l-2.31,1.24-1.52.84-2.25,1.23-1.5.85-2.2,1.24-1.49.86L331.32,629l-1.47.88-2.1,1.25-1.45.88-2,1.25-1.45.91-2,1.25-1.42.91-1.94,1.26-1.4.93-1.89,1.25-1.4.95L311,641.93l-1.38,1-1.77,1.25-1.37,1-1.71,1.25-1.35,1-1.67,1.25-1.32,1-1.63,1.26-1.3,1-1.57,1.25-1.29,1-1.52,1.25-1.27,1.06-1.46,1.24-1.25,1.08c-.48.41-1,.83-1.41,1.24s-.83.73-1.24,1.1l-1.36,1.23-1.21,1.12-1.31,1.22-1.2,1.13-.56.54A229.63,229.63,0,0,1,297.47,639Zm928.25,155.84-.22.33c-.69,1.06-1.41,2.12-2.15,3.18l-.3.43c-.77,1.09-1.57,2.17-2.39,3.25-.15.21-.31.42-.47.62-.83,1.08-1.68,2.16-2.56,3.23l-.38.46q-1.3,1.59-2.7,3.18l-.21.25c-1,1.08-1.95,2.17-3,3.25-.18.2-.36.4-.55.59q-1.5,1.59-3.07,3.18c-.18.17-.36.35-.53.53-1.11,1.1-2.23,2.2-3.39,3.29-24.26,22.95-59.24,43.65-104,61.55-58.29,23.31-128.69,40.08-205.6,49.38A1206.12,1206.12,0,0,1,750,940c-132.3,0-256.54-20.55-349.82-57.85q-16.79-6.72-31.72-13.94c-29.86-14.45-54.09-30.4-72.29-47.61,0,0,0,0,0,0-1.14-1.07-2.23-2.15-3.32-3.22-.19-.2-.38-.39-.58-.58q-1.56-1.57-3-3.15l-.57-.61q-1.51-1.62-2.95-3.24l-.23-.27c-.92-1.05-1.81-2.11-2.69-3.16-.12-.16-.25-.31-.38-.46-.88-1.08-1.73-2.15-2.55-3.23l-.48-.62c-.82-1.08-1.61-2.17-2.38-3.25l-.3-.43c-.74-1.06-1.47-2.13-2.16-3.19l-.21-.32c-.71-1.1-1.39-2.2-2.05-3.3-.06-.11-.13-.22-.2-.33l.64.36,1.62.93,1,.53c.49.27,1,.54,1.47.8.35.2.72.39,1.07.58l1.44.75,1.15.59,1.45.73L283,797l1.49.73,1.23.58,1.54.72,1.27.58,1.59.71,1.28.57,1.7.73,1.26.54,1.87.77,1.17.49,2.44,1,.68.27c1,.41,2.1.82,3.17,1.22.4.16.82.31,1.23.46.68.26,1.36.52,2.06.77l1.43.52,1.94.7,1.53.54,1.92.67,1.61.55,1.94.66,1.64.54,2,.65,1.69.54,2,.64,1.7.54,2.12.64,1.7.52,2.23.66,1.67.49,2.46.71,1.52.44,3.34.93.8.22,4,1.09,1.5.39c.9.24,1.81.49,2.73.72l1.76.45,2.56.66,1.89.47,2.5.62,2,.48,2.5.6,2,.48,2.57.6,2,.47,2.65.6,2,.46,2.74.6,2,.44,2.92.63,1.91.41,3.27.68,1.65.34,5,1c95.09,19,221.34,29.5,355.5,29.5s260.46-10.48,355.54-29.5l5-1,1.56-.33,3.35-.69,1.9-.41,2.92-.63,2-.43,2.78-.62,2-.44,2.73-.62,2-.45,2.65-.62,1.93-.46,2.62-.63,1.87-.45,2.65-.66,1.73-.43,2.77-.71,1.55-.39,3.08-.81,1.15-.31c2.81-.75,5.56-1.5,8.26-2.27l1.13-.32,2.84-.82,1.42-.42,2.49-.74,1.49-.45,2.34-.72,1.51-.47,2.24-.71,1.5-.48,2.17-.71,1.47-.49,2.15-.72,1.4-.48,2.15-.75,1.31-.46,2.23-.8,1.15-.42,2.48-.93.82-.31c2.18-.82,4.3-1.66,6.37-2.5l.91-.38,2.13-.88,1.1-.47,1.85-.8,1.16-.52,1.73-.77,1.16-.53,1.63-.76,1.16-.55L1217,797l1.13-.56,1.53-.76,1.08-.56,1.49-.78,1-.54,1.52-.84.91-.5,1.66-1,.61-.35-.21.35C1227.1,792.62,1226.42,793.72,1225.72,794.81Zm9.69-34.58-.69.79-.33.37q-.39.42-.81.84l-.26.27-1.15,1.12-.26.24c-.32.3-.65.59-1,.89l-.41.35-1,.84-.38.31c-.47.38-1,.76-1.45,1.14l-.08.06c-.47.36-.95.72-1.45,1.08l-.47.34-1.18.83-.51.35-1.48,1-.24.16c-.59.38-1.19.76-1.81,1.14l-.48.3-1.42.85-.62.36-1.51.87-.49.28c-.67.38-1.36.76-2.06,1.13l-.41.22-1.74.91-.7.36-1.61.81-.68.34-2.31,1.12c-24.44,11.56-59.71,22-104.83,31C1007.79,829.68,882.92,840,750,840q-31.14,0-61.61-.75-12.17-.3-24.2-.71-18-.63-35.71-1.51c-86.37-4.32-165.54-13.24-230.06-26.15L394,810l-1-.2-3.39-.71-1.17-.24-3.26-.7-1-.22c-2.81-.61-5.57-1.23-8.27-1.84l-.85-.2-3.12-.73-1.12-.26-2.93-.7-1-.24-3.63-.89-.14,0-3.78-.95-.75-.19-2.89-.75-1-.27-2.64-.7-.94-.25-3.16-.86-.28-.08c-1.16-.32-2.32-.64-3.46-1l-.56-.16-2.73-.78-.91-.27-2.4-.71-.86-.26L334,795l-.4-.13-3.13-1-.42-.14-2.54-.81-.82-.27-2.17-.71-.77-.26-2.41-.82-.4-.13-2.82-1-.26-.09-2.4-.86-.68-.25-2-.73-.67-.25-2.12-.8-.4-.16-2.52-1-.09,0c-.77-.3-1.53-.61-2.28-.92l-.54-.22-1.79-.74-.59-.25-1.82-.78-.41-.18q-2.22-1-4.29-1.92l-.47-.21-1.57-.74-.52-.25-1.57-.76-.37-.18c-1.29-.63-2.53-1.27-3.73-1.9l-.38-.2-1.37-.73-.45-.25-1.31-.72-.37-.21c-1.09-.62-2.15-1.24-3.16-1.85l-.32-.2-1.15-.72-.4-.25-1.07-.69-.34-.22c-.91-.6-1.79-1.2-2.62-1.8l-.27-.19-.94-.69-.35-.26-.84-.65-.31-.24-1-.78-.09-.08c-.36-.29-.7-.58-1-.87l-.22-.19-.74-.66-.29-.27c-.22-.2-.43-.39-.63-.59l-.28-.26-.68-.68-.15-.15-.78-.83c-.06-.06-.11-.13-.17-.2s-.37-.4-.54-.61l-.24-.28-.22-.26H1235.6ZM1202.54,861c-24.37,34.58-59.4,65.72-104.11,92.55C1005.53,1009.3,881.79,1040,750,1040s-255.48-30.7-348.39-86.45c-44.72-26.84-79.76-58-104.14-92.55a228,228,0,0,1-16.63-27.39l.52.5,1.25,1.19,1.24,1.16,1.3,1.2,1.26,1.14,1.35,1.2,1.28,1.12,1.4,1.2,1.3,1.11,1.44,1.2,1.33,1.09,1.49,1.21,1.34,1.07,1.55,1.21,1.36,1,1.59,1.21,1.38,1,1.64,1.21,1.41,1L308,856l1.43,1,1.73,1.21,1.45,1,1.77,1.2,1.49,1,1.8,1.19,1.51,1,1.86,1.19,1.53,1,1.89,1.18,1.57,1L327.9,869l1.59,1,2,1.17,1.61.94,2,1.16,1.66.94,2,1.14,1.7.93,2.06,1.14,1.72.92,2.11,1.12,1.77.93,2.11,1.1,1.84.93,2.12,1.08,1.87.93,2.15,1.06,1.94.94,2.15,1,2,1,2.13,1,2.09,1,2.13,1,2.16,1,2.12,1,2.29,1,2.06.9,2.45,1,2,.84,2.91,1.21,1.56.65,4.55,1.84C488.34,938.93,615.22,960,750,960s261.71-21.05,357.29-59.28l4.54-1.84,1.44-.6,3-1.26,1.77-.76c.88-.37,1.77-.74,2.64-1.12l1.91-.83,2.44-1.07,1.91-.85,2.39-1.07,1.88-.87,2.34-1.07,1.89-.89,2.26-1.07,1.87-.9,2.23-1.08,1.83-.9,2.2-1.09,1.79-.92,2.18-1.1,1.75-.91,2.14-1.12,1.73-.93,2.1-1.12,1.71-.94,2.06-1.13,1.67-1,2-1.14,1.63-.95,2-1.15,1.61-1,2-1.16,1.58-1,1.92-1.18,1.54-1,1.88-1.19,1.53-1,1.83-1.19,1.5-1,1.8-1.2,1.47-1,1.74-1.2,1.46-1,1.7-1.2,1.43-1,1.65-1.2,1.41-1c.54-.4,1.08-.8,1.61-1.21l1.37-1,1.58-1.22,1.35-1.06,1.52-1.21,1.34-1.08,1.46-1.21,1.32-1.09,1.42-1.21,1.29-1.11c.46-.4.92-.8,1.37-1.21s.85-.75,1.27-1.13l1.33-1.2,1.24-1.14,1.29-1.2,1.21-1.16.54-.51A228.69,228.69,0,0,1,1202.54,861Z"/></svg>