<svg id="Abstract_Shape" data-name="Abstract Shape" xmlns="http://www.w3.org/2000/svg" viewBox="0 0 1500 1500"><path d="M652.11,929.79a1.59,1.59,0,0,0,.43.06,1.49,1.49,0,0,0,1.43-1.08L848.91,260a1.5,1.5,0,0,0-1-1.86,1.49,1.49,0,0,0-1.86,1L651.09,927.93A1.5,1.5,0,0,0,652.11,929.79Z"/><path d="M643.25,940.5a1.86,1.86,0,0,0,.33,0,1.49,1.49,0,0,0,1.46-1.18l152.09-687a1.5,1.5,0,0,0-2.93-.65l-152.09,687A1.51,1.51,0,0,0,643.25,940.5Z"/><path d="M635.56,952.08l.23,0a1.49,1.49,0,0,0,1.48-1.27l107.58-700.6a1.5,1.5,0,0,0-3-.46L634.31,950.37A1.49,1.49,0,0,0,635.56,952.08Z"/><path d="M629.12,964.41h.13a1.51,1.51,0,0,0,1.5-1.37l61.88-709.48a1.5,1.5,0,0,0-3-.26L627.76,962.78A1.49,1.49,0,0,0,629.12,964.41Z"/><path d="M624,977.34h0a1.5,1.5,0,0,0,1.5-1.46l15.51-713.54a1.48,1.48,0,0,0-1.46-1.53h0a1.5,1.5,0,0,0-1.5,1.46L622.54,975.81A1.49,1.49,0,0,0,624,977.34Z"/><path d="M620.2,990.75h.06a1.5,1.5,0,0,0,1.44-1.56l-31-712.72a1.49,1.49,0,0,0-1.56-1.44,1.51,1.51,0,0,0-1.44,1.57l31,712.72A1.51,1.51,0,0,0,620.2,990.75Z"/><path d="M616.3,1003.14a1.5,1.5,0,0,0,1.49,1.34H618a1.51,1.51,0,0,0,1.33-1.66l-77.22-707a1.5,1.5,0,0,0-3,.33Z"/><path d="M871.26,1074a1.49,1.49,0,0,0-1.92.9l-4.21,11.64-.09-.07a1.51,1.51,0,0,0-2.08.42l-7.43,11.22-.16.1-15.11,14.78-17.64,11.81-18.74,8.59-18.88,5.6-18.28,3-17.24.84-15.91-.88-14.45-2.22-13-3.24-11.62-4-10.3-4.52-9.11-4.89-8-5.13-7-5.31-6.18-5.4-5.37-5.4-4.68-5.44-4.06-5.43-4.69-7.27a1.46,1.46,0,0,0-.18-.63L628.73,1072a1.5,1.5,0,0,0,0-1.37l-5.27-11.24a1.48,1.48,0,0,0,.53-1.76l-4.49-11.53.17,0a1.52,1.52,0,0,0,1-1.89l-3.76-11.91a1.51,1.51,0,0,0,.38.06,1.45,1.45,0,0,0,.35,0,1.5,1.5,0,0,0,1.1-1.82l-3.09-12.63a1.49,1.49,0,0,0,1.14.56,1.15,1.15,0,0,0,.26,0,1.5,1.5,0,0,0,1.22-1.73L495.73,320.05a1.5,1.5,0,1,0-3,.51L614.9,1014.62,452.2,349a1.5,1.5,0,1,0-2.92.71l164.05,671.07-201.4-638.4a1.5,1.5,0,1,0-2.86.9l203.15,644L375.39,419.82a1.5,1.5,0,0,0-2.8,1.09l239,613.11L343,460.84a1.5,1.5,0,0,0-2.72,1.27L611.6,1041,315,505a1.5,1.5,0,1,0-2.62,1.45l299.83,541.82L291.79,551.88a1.5,1.5,0,1,0-2.52,1.63l324.2,502.3L273.62,600.9a1.5,1.5,0,0,0-2.4,1.8l344.3,460.87-354.84-412a1.5,1.5,0,1,0-2.27,2l360,418L253.11,703.28a1.5,1.5,0,0,0-2.13,2.11l371.29,374.28L251,755.51a1.49,1.49,0,0,0-2.12.14,1.51,1.51,0,0,0,.14,2.12L627.2,1088,254.33,807.66a1.5,1.5,0,0,0-1.8,2.4L633.31,1096.3,263.11,859.18a1.5,1.5,0,0,0-1.61,2.53l379.24,242.92L277.23,909.5a1.5,1.5,0,0,0-1.42,2.64l373.82,200.67L296.53,958.06a1.5,1.5,0,1,0-1.21,2.74l364.82,159.89L320.79,1004.33a1.5,1.5,0,0,0-1,2.84l352.6,120.9-322.67-80.26a1.49,1.49,0,0,0-1.81,1.09,1.51,1.51,0,0,0,1.09,1.82l329.35,81.92,1.08.95L383.09,1088a1.5,1.5,0,1,0-.45,3l306.22,47.09,1.95,1.46-270.36-15a1.48,1.48,0,0,0-1.58,1.42,1.5,1.5,0,0,0,1.41,1.58l280.51,15.58,3,1.94L461.4,1156.91a1.5,1.5,0,0,0,.07,3h.08l252.75-12.39,4.33,2.32-213.13,35a1.5,1.5,0,0,0,.24,3l.25,0,223.54-36.71,3.71,1.62a1.44,1.44,0,0,0,.6.13,1.5,1.5,0,0,0,1-2.63l1.49-.24,5.34,1.83L552.27,1208a1.5,1.5,0,0,0,.42,2.94,1.59,1.59,0,0,0,.43-.06l193.43-57.42.71.24a1.44,1.44,0,0,0,.49.08,1.5,1.5,0,0,0,1.42-1s0-.07,0-.1l4.48-1.33,7,1.75-159.52,73.09a1.5,1.5,0,0,0,.62,2.87,1.6,1.6,0,0,0,.63-.14l170.21-78,2.62.4a.93.93,0,0,0,.23,0,1.49,1.49,0,0,0,1.48-1.27,1.48,1.48,0,0,0-.22-1l3.42-1.57,7.83.44-136.3,91.27a1.5,1.5,0,0,0,.84,2.74,1.52,1.52,0,0,0,.83-.25l146.94-98.4,1.88-.09a1.5,1.5,0,0,0,1.42-1.57,1.41,1.41,0,0,0-.11-.47l4.4-3,7-1.14a1.5,1.5,0,0,0,1.24-1.73,1.48,1.48,0,0,0-1.72-1.23l-.49.08,1.89-1.27,5.77-1.71L703.29,1246.88a1.5,1.5,0,0,0,1,2.57,1.51,1.51,0,0,0,1-.42l129.43-126.56,3.26-1.5a1.5,1.5,0,0,0,.74-2,1.61,1.61,0,0,0-.17-.28l3.52-3.43,3.52-2.36-90.3,136.25a1.51,1.51,0,0,0,.43,2.08,1.46,1.46,0,0,0,.82.25,1.49,1.49,0,0,0,1.25-.67L863.13,1092l-55.68,154a1.5,1.5,0,0,0,.9,1.92,1.52,1.52,0,0,0,.51.09,1.49,1.49,0,0,0,1.41-1l61.89-171.21A1.5,1.5,0,0,0,871.26,1074ZM754.14,1148.1l-.54.16-2.52-.63Zm25.81-3.8-.35.16-1.4-.07Zm-97.19-10.21a1.3,1.3,0,0,0,.14-.32l.36.09.53.39Zm12.51,5.69a1.87,1.87,0,0,0,0-.25l.42.27Zm12.91,5a1.54,1.54,0,0,0-.51-.86l1.5.81Zm13.37,4.55a1.52,1.52,0,0,0-.73-1.76l-.71-.38.55,0,3.82,1.67Zm8.37-1.38-2.17-1,2.58.88Zm16.7,2.35-4-1.39.83-.13,4.54,1.13Zm16.55,1.65a1.51,1.51,0,0,0-1.12-1.63l-2.71-.67,1.74-.52,6.17.95Zm9-4.14-4.39-.68,1-.3,4.91.27Zm18.29-1.59a1.51,1.51,0,0,0-1.4-1.27l-3.08-.17,2-.91,6.47-.32Zm8.83-5.91-4,.19.88-.4,4.51-.74Zm26.82-13.61-.12,0-1.7.51,2.4-1.1Z"/><path d="M876.1,1060.93a1.52,1.52,0,0,0-1.63,1.37L859,1237.56a1.51,1.51,0,0,0,1.36,1.63h.14a1.49,1.49,0,0,0,1.49-1.36l15.52-175.27A1.51,1.51,0,0,0,876.1,1060.93Z"/><path d="M881.28,1048.76a1.5,1.5,0,0,0-3,.53l31,174.45a1.5,1.5,0,0,0,1.48,1.24l.26,0a1.49,1.49,0,0,0,1.21-1.74Z"/><path d="M883.58,1034.67a1.5,1.5,0,1,0-2.73,1.25l77.22,168.78a1.49,1.49,0,0,0,1.36.87,1.49,1.49,0,0,0,1.36-2.12Z"/><path d="M884.36,1020.47a1.5,1.5,0,1,0-2.37,1.83l122.57,158.31a1.5,1.5,0,0,0,2.37-1.83Z"/><path d="M883.66,1006.31a1.5,1.5,0,0,0-1.95,2.28l166.57,143.16a1.51,1.51,0,0,0,2.12-.16,1.5,1.5,0,0,0-.16-2.12Z"/><path d="M1090.26,1115.84,881.5,992.35a1.5,1.5,0,1,0-1.53,2.59l208.76,123.48a1.54,1.54,0,0,0,.77.21,1.5,1.5,0,0,0,.76-2.79Z"/><path d="M1126.57,1078.24,877.91,978.73a1.5,1.5,0,1,0-1.11,2.78L1125.45,1081a1.62,1.62,0,0,0,.56.1,1.48,1.48,0,0,0,1.39-.94A1.5,1.5,0,0,0,1126.57,1078.24Z"/><path d="M1158.77,1037.07l-285.83-71.5a1.49,1.49,0,0,0-1.82,1.09,1.51,1.51,0,0,0,1.09,1.82L1158,1040a1.64,1.64,0,0,0,.37,0,1.5,1.5,0,0,0,.36-3Z"/><path d="M1186.51,992.77,866.64,953a1.5,1.5,0,1,0-.36,3l319.87,39.76h.18a1.5,1.5,0,0,0,.18-3Z"/><path d="M1209.49,945.81l-350.41-4.63h0a1.5,1.5,0,0,0,0,3l350.41,4.63h0a1.5,1.5,0,0,0,0-3Z"/><path d="M1227.45,896.7,850.34,930.2a1.5,1.5,0,0,0,.13,3h.14l377.1-33.5a1.49,1.49,0,0,0,1.36-1.63A1.51,1.51,0,0,0,1227.45,896.7Z"/><path d="M1240.18,846,840.51,920.2a1.5,1.5,0,0,0,.27,3l.28,0,399.67-74.21a1.5,1.5,0,0,0-.55-3Z"/><path d="M1247.55,794.22l-417.85,117a1.5,1.5,0,0,0,.4,3,1.39,1.39,0,0,0,.4-.06l417.86-117a1.5,1.5,0,1,0-.81-2.89Z"/><path d="M1251.4,742.84a1.5,1.5,0,0,0-1.93-.88L818,903.52a1.5,1.5,0,0,0,.53,2.9,1.58,1.58,0,0,0,.52-.09l431.47-161.56A1.49,1.49,0,0,0,1251.4,742.84Z"/><path d="M804.87,899a1.48,1.48,0,0,0,1.35.87,1.43,1.43,0,0,0,.64-.15l440.35-207.25a1.5,1.5,0,0,0-1.28-2.71L805.58,897A1.49,1.49,0,0,0,804.87,899Z"/><path d="M792,893.91a1.49,1.49,0,0,0,1.3.76,1.46,1.46,0,0,0,.75-.2l444.4-253.61a1.5,1.5,0,0,0-1.49-2.61L792.55,891.87A1.49,1.49,0,0,0,792,893.91Z"/><path d="M778.65,890.18a1.51,1.51,0,0,0,1.24.65,1.52,1.52,0,0,0,.84-.25l443.59-300.16a1.5,1.5,0,1,0-1.68-2.48L779.05,888.09A1.5,1.5,0,0,0,778.65,890.18Z"/><path d="M765,887.85a1.51,1.51,0,0,0,2.11.25L1205,541.75a1.5,1.5,0,1,0-1.86-2.36L765.23,885.75A1.5,1.5,0,0,0,765,887.85Z"/><path d="M751.14,887a1.52,1.52,0,0,0,1.11.49,1.47,1.47,0,0,0,1-.4l427.45-391.7a1.5,1.5,0,0,0-2-2.21L751.24,884.85A1.49,1.49,0,0,0,751.14,887Z"/><path d="M737.28,887.54a1.51,1.51,0,0,0,2.13-.06L1151.7,451.77a1.5,1.5,0,0,0-2.18-2.06L737.23,885.42A1.5,1.5,0,0,0,737.28,887.54Z"/><path d="M723.56,889.56a1.48,1.48,0,0,0,1,.34,1.51,1.51,0,0,0,1.16-.55l392.62-477.89a1.5,1.5,0,1,0-2.32-1.91L723.35,887.45A1.5,1.5,0,0,0,723.56,889.56Z"/><path d="M710.11,893a1.5,1.5,0,0,0,.87.28,1.52,1.52,0,0,0,1.23-.63l368.65-517.79a1.5,1.5,0,0,0-2.45-1.74L709.76,890.91A1.5,1.5,0,0,0,710.11,893Z"/><path d="M697.1,897.83a1.44,1.44,0,0,0,.78.23,1.5,1.5,0,0,0,1.28-.72l340.64-555a1.5,1.5,0,1,0-2.55-1.57l-340.64,555A1.48,1.48,0,0,0,697.1,897.83Z"/><path d="M684.66,904a1.46,1.46,0,0,0,.7.18,1.51,1.51,0,0,0,1.33-.81l308.89-589a1.5,1.5,0,1,0-2.65-1.4L684,902A1.5,1.5,0,0,0,684.66,904Z"/><path d="M672.93,911.44a1.5,1.5,0,0,0,2-.76L948.68,291.14a1.5,1.5,0,0,0-2.75-1.22L672.17,909.46A1.49,1.49,0,0,0,672.93,911.44Z"/><path d="M662,920.07a1.58,1.58,0,0,0,.52.09,1.5,1.5,0,0,0,1.41-1L899.61,272.94a1.5,1.5,0,1,0-2.82-1L661.15,918.15A1.5,1.5,0,0,0,662,920.07Z"/></svg>