<svg id="Abstract_Shape" data-name="Abstract Shape" xmlns="http://www.w3.org/2000/svg" viewBox="0 0 1500 1500"><path d="M1250,1179.23H1123.19c41.39-.53,83.17-.92,124.54-.92a1.5,1.5,0,0,0,0-3H394.48c21.25-.53,42.7-.92,63.93-.92h583.7c44.67,1.1,90.12.73,134.1.37,22-.18,44.67-.37,67-.37a1.5,1.5,0,0,0,0-3h-201l-2.77-.06c-130.51-3.38-262.42-3.85-385.52-3.85H406.92c22.83-.53,45.89-.92,68.72-.92h682.49c13,0,26.24-1,39.07-2,11.55-.88,23.45-1.79,35.06-1.93h6.38a1.5,1.5,0,0,0,0-3q-3.21,0-6.43,0H633.82c-61.24,0-123.57-1-183.84-2-24.48-.39-49.29-.79-74.23-1.12,29.68-.84,60.18-1.66,90.21-1.75,86.85-.27,175.15-.18,260.55-.09q65.13.06,130.27.09h202.55c28.87,0,58.1-1,86.37-2s57.38-2,86.12-2a1.5,1.5,0,1,0,0-3H1020.69c-62,0-124.92-1-185.81-2s-123.94-2-186-2H350.33c-8,0-16-.39-24-.92H492.71c31.12,0,62.75-1,93.33-2s62.22-2,93.36-2H865.76c59.19,0,119.34-1,177.51-2s118.15-2,177.18-2a1.5,1.5,0,0,0,0-3c-31.8,0-64.11-1-95.36-2s-63.52-2-95.28-2H653c-61.89,0-124.75-1-185.54-2-25.77-.4-51.92-.82-78.21-1.16,29.86-.88,60.52-1.71,90.75-1.71,75.11,0,151.4-1.11,225.18-2.18,44.77-.65,91.07-1.32,136.61-1.73,42.82-.4,86.38-.26,128.5-.14,21.06.07,42.84.14,64.26.14h98.16c11.64,0,23.75-1,35.47-2.06,8.7-.75,17.57-1.51,26.31-1.86h16.91a1.5,1.5,0,0,0,.07-3c-5.58-.26-11.29-.22-17,0-61.06,0-124.19.06-186.34-3.24-81.73-4.34-165.52-3.07-246.56-1.85-38.08.58-77.46,1.17-116,1.17s-77.3-1.2-114.88-2.37c-17.61-.54-35.81-1.11-53.79-1.54-20.27-.49-40.9-.33-60.86-.16-10,.08-20.27.16-30.39.16H340.13c-2.42,0-5.6.22-9.28.48-9.61.68-23.29,1.64-30.6-1.4H491.77c60.61,0,122.25-1,181.87-2s121.32-2,182-2c57.06,0,115-1,171.05-2s114-2,171-2a1.5,1.5,0,0,0,1.36-.87,1.52,1.52,0,0,0-.22-1.61c-6.45-7.51-27.74-6-43.29-5-4,.28-7.53.53-9.88.53h-50.25c-8,0-16.09,0-23.93.11-20.81.16-42.33.31-63.43-.63-93.48-4.18-188.62-3.86-280.63-3.56-24.12.08-49.07.16-73.6.16-30.19,0-60.84-1-90.48-2s-60.32-2-90.54-2h-84.2c-5.42,0-12.2.5-19.37,1-17.72,1.29-39.18,2.86-53.3-1.94,55.85-.09,116.1-1.3,188.84-3.79,59.26-2,119.62-1.17,178-.33,52.93.75,107.66,1.54,161.43.16,16.22-.41,32.67-.91,48.57-1.39,40.21-1.22,81.79-2.47,122.9-2.47,28.2,0,56.78-1,84.42-2s56-1.95,84-1.95a1.5,1.5,0,1,0,0-3c-31.13,0-62.75-1-93.32-2s-62.32-2-93.59-2c-112.07,0-226-2-336.14-3.92-108.58-1.9-220.8-3.86-331.28-3.92,8-3.35,24.18-2.18,34.51-1.43,3.83.28,7.14.52,9.46.52h48.63q9.22,0,18.47.07c19.71.11,40.09.22,60.12-.85,57.17-3.08,115.37-2.81,171.66-2.53,53.36.25,108.55.51,162.78-2.08,52.9-2.53,106.68-2.49,158.68-2.45H1014c25.83,0,52-1,77.23-2,23.81-.91,48.38-1.85,72.7-2,1.44,0,2.88,0,4.33,0a1.5,1.5,0,0,0-.06-3H1164a136,136,0,0,1-16.62-1.92,130.65,130.65,0,0,0-18.38-2c-9.84-.15-19.86-.1-29.54,0-4.92,0-9.83,0-14.75,0-10.64,0-21.48.1-32,.19-21,.2-42.64.4-63.89-.19-53.68-1.49-108.28-1.78-161.09-2.06-51.35-.28-104.46-.56-156.66-1.94-15.19-.41-30.6-.88-45.5-1.34-39.59-1.23-80.53-2.5-121-2.5-27.35,0-55.09-1-81.92-2-11.26-.4-22.69-.81-34.18-1.15,10.63-.89,21.51-1.72,32.08-1.72h99.23c26.56,0,53.53-1,79.62-1.95s53.06-2,79.63-2c18,0,36.25.06,53.93.11,35.37.11,71.94.23,107.9-.11,23.51-.23,47.35-1.09,70.41-1.93,26.83-1,54.57-2,81.93-2,25.88,0,52.15-1,77.56-2,25.26-1,51.39-1.95,77-1.95a1.5,1.5,0,0,0,0-3c-14.23,0-28.66-1-42.62-2s-28.64-2-43.14-2q-6.85,0-13.69,0c-20.2.06-41.1.12-61.62-1.09-55.07-3.28-111.12-3-165.32-2.8C771,999.38,719,999.6,667.9,997c-43.66-2.22-88.07-2.06-131-1.91q-16.7.06-33.39.08c-23.78,0-47.82-1-71.07-2-12.61-.52-25.47-1.05-38.38-1.43,37.44-2.44,75.45-3.68,112.49-4.89l14.15-.47c32.91-1.09,66.55-.72,99.07-.36,16.24.18,33,.36,49.5.36,26.55,0,53.48-1,79.52-2s52.85-2,79.29-2c11.84,0,23.89.07,35.55.14,39.92.24,81.2.48,121.71-2.1,27-1.73,53.41-2,75.68-2,3.93,0,9.18.41,15.25.88,19.47,1.51,43.7,3.39,54.24-5.13a1.51,1.51,0,0,0,.47-1.67,1.5,1.5,0,0,0-1.41-1c-27.72,0-55.9-1-83.15-2s-55.65-2-83.58-2c-98.36,0-197.43-1.32-294.45-3.92-16.27-.43-32.74-1-48.67-1.63-30.37-1.12-61.77-2.28-92.91-2.28-24.25,0-48.86-1-72.65-2-20.42-.83-41.44-1.68-62.26-1.9,13-2.81,27.33-2.12,41.31-1.46,8.35.41,16.25.78,23.89.47,10.14-.42,20.35-1.09,30.22-1.75,15.95-1.06,32.45-2.15,48.84-2.15,49.47,0,99.7-1,148.29-2s98.71-2,148.07-2c47.35,0,93-1.81,141.24-3.72l1.17,0c14.16-.56,28.62-.42,42.61-.28,6.23.06,12.68.12,19,.12,10.88,0,21.9-1,32.56-2,10.08-.94,20.44-1.91,30.66-2q3.52.09,7.07.09a1.5,1.5,0,0,0,0-3c-2.36-.08-4.72-.11-7.1-.09-10.31-.27-20.63-1.08-30.67-1.86-12.43-1-25.28-2-38.13-2-6.45,0-13,.05-19.35.1-15.78.12-32.09.25-48.07-.4-82.47-3.36-185.1-7.53-282.87-7.53q-12.63,0-25.25,0c-40.78.12-82.94.25-124.36-2.72-18.42-1.32-37.08-1.29-55.14-1.26h-8.58a214.89,214.89,0,0,1-22.19-1.45c20.24-.46,40.5-1.16,60.36-1.84,15.83-.55,32.2-1.11,48.23-1.54,82.8-2.23,167-4.83,248.43-7.33l16.2-.5c19-.59,38.32-.26,57,0,26,.44,52.9.9,79.26-1.08,26-1.94,49.85-2.89,73.06-2.89,10,0,20.14-1,29.9-2,6.31-.63,12.77-1.28,19.18-1.64,3.27,0,6.5-.05,9.67-.3a1.5,1.5,0,0,0-.12-3c-3.18,0-6.4.11-9.61.29-9-.1-18.41-1.11-27.55-2.09-9.65-1-19.63-2.12-29.13-2.12-22.25,0-48.71-.28-76.23-2.34-30.51-2.28-61.63-2-91.72-1.69-15.16.15-30.82.3-46.2.11-19.74-.23-39.76-1.09-59.12-1.92-22.78-1-46.33-2-69.63-2-30.69,0-61.58-1.27-91.45-2.5-11.5-.48-23.4-1-35.17-1.38-13.24-.46-26.73-.32-39.78-.18-6.33.07-12.87.14-19.3.14-10.81,0-21.61-1-32.06-2-7.51-.69-15.2-1.4-23-1.75,12.55-2.88,26.48-2.21,40-1.57,7.86.38,15.29.73,22.5.44,8.73-.35,17.56-1.13,26.1-1.88,10.48-.92,21.32-1.88,32-2,29.54-.44,59.56-1,88.59-1.63C701.8,870.14,759.83,869,817,869c40.79,0,82.28-2,122.4-3.92s81.41-3.91,122-3.91a1.5,1.5,0,0,0,1.14-2.48c-6.77-7.78-29.29-7.16-49.16-6.61-8,.22-14.81.4-19.19,0-18.14-1.84-36.51-1.78-54.28-1.72l-9.52,0c-23.25,0-46.71-1.07-69.39-2.09-15.63-.71-31.79-1.45-47.78-1.83-17.82-.42-36-.18-53.51.05-22.5.3-45.77.61-68.58-.49-15.68-.76-31.74-1.13-47.26-1.49-24.6-.56-50-1.15-74.69-3.28-20.77-1.79-42.06-2.62-67-2.62a240,240,0,0,1-26.59-2l-.2,0c2.28-.25,4.55-.52,6.81-.78,8.58-1,17.45-2.06,25.75-2.06,23.8,0,46.41-.91,69.14-2.77,24-2,48.54-1.57,72.28-1.19,16.89.28,34.36.56,51.5,0,39-1.29,78.59-2.68,116.91-4,35.49-1.25,72.18-2.54,108.26-3.75,4.88-.16,9.69-.29,14.48-.43,16.17-.44,31.44-.86,47.59-2.36,8.35-.78,16.79-1.12,27.37-1.12.47,0,1.27,0,2.29.06,11.84.44,19,.11,20.49-2.9a3.14,3.14,0,0,0-.67-3.53c-1.31-1.6-8.45-2.5-47.33-3.57-5.36-.15-9.59-.27-10.82-.37-12-1-24.34-.8-36.24-.64-4.45,0-9,.12-13.55.12-38.22,0-77.07-2-114.65-3.92s-76.48-3.92-114.77-3.92c-45.92,0-84.38-1.07-121-3.36-12.72-.8-25.68-.71-38.21-.61-4.15,0-8.29.06-12.42.06-7.77,0-15.88-1-23.73-2.06-2.54-.33-5.11-.66-7.68-1,29.05-2.82,59.07-5.73,89.27-5.73,19.56,0,39.24-1,58.28-2,14.76-.77,30-1.57,45.1-1.88,14.35-.3,29-.11,43.13.08,22.81.3,46.4.62,69.53-1.11,16.91-1.27,34.12-1.76,50.76-2.23,20-.57,40.72-1.15,61.08-3.1C929.8,775,944.86,775,960.8,775h3.41a190.81,190.81,0,0,0,23.85-2,189.87,189.87,0,0,1,21.74-1.92h1.58a1.5,1.5,0,0,0,0-3h-1.55c-8.48-.05-17.78-1.15-26.78-2.21-6.15-.73-12.5-1.48-18.43-1.88-6.19-.41-12.35-.89-18.29-1.35-15.78-1.23-30.68-2.39-46.8-2.39-74,0-140.13-1.3-202.29-4l-26.62-1.12c-48.44-2-98.31-4-146.7-8.45,3.48-.37,7-.79,10.45-1.22,6.47-.78,12.58-1.53,18.31-1.87,7-.42,13.89-1.1,20.59-1.76,10.58-1,21.53-2.12,32.58-2.12,76.69,0,138.31-2.12,193.91-6.68,17.38-1.43,35.13-1.15,52.28-.87,14.27.23,29,.46,43.54-.28,6.34-.33,12.71-1.15,18.87-1.94,6.46-.84,13.13-1.7,19.71-2,4.33-.18,9.18.12,14.32.43,12.41.76,26.47,1.62,36.41-4.57a1.49,1.49,0,0,0-.46-2.73c-23.36-5.22-49.85-6.2-75.46-7.14-6.28-.23-12.21-.45-18.12-.73-25.27-1.2-51.16-1.4-76.19-1.6-35.18-.28-71.55-.57-106.87-3.61-15.83-1.36-31.86-2-47.37-2.71-16.08-.68-32.7-1.39-49.07-2.86-11.48-1-23.1-1-34.34-1h-5.49c-6.18,0-12.69-1-19-2a135.49,135.49,0,0,0-17.57-2c6.38-2.56,15.9-2.2,24.51-1.88a97.33,97.33,0,0,0,14.21-.1,410.3,410.3,0,0,1,50.87-2.72c35.21,0,70.84-2.26,105.3-4.45,19.5-1.24,39.66-2.52,59.52-3.38,11.86-.51,24-.29,35.69-.07,17,.32,34.64.64,51.9-1.27l10.37-1.17c23-2.62,46.75-5.32,69.51-5.32a1.5,1.5,0,0,0,.94-2.67c-6.8-5.46-24.29-6.76-35.87-7.63-2.23-.17-4.22-.32-5.84-.47-10.12-1-20.71-.67-30.95-.36-5.72.18-11.63.36-17.32.3-31.9-.33-64.52-2.34-96.07-4.29-21.58-1.34-43.89-2.71-65.77-3.54-10-.38-20.06-1.11-29.77-1.83-14-1-28.5-2.09-43.08-2.09-3.37,0-7.14.08-11.12.16-17.36.35-40.3.82-55.78-4.85a189.25,189.25,0,0,0,20.39-2.2c5.47-.78,10.63-1.52,15.41-1.86,6.11-.42,12.1-1.11,17.89-1.77,9.59-1.1,18.65-2.14,28.38-2.14,17.56,0,35.17-1.05,52.19-2.06,12.5-.74,25.43-1.51,38.23-1.86,13.59-.36,27.32-1.11,40.6-1.84,18.67-1,38-2.07,57.08-2.07a454.59,454.59,0,0,0,49.5-3.11c4.41-.47,9.08-1.27,14-2.11,9.44-1.61,19.2-3.27,27.26-2.62a1.5,1.5,0,0,0,.42-3c-38.75-7.82-78.92-8.86-117.77-9.86-17.08-.44-34.75-.89-52.11-1.92-26.49-1.56-57.7-3.59-88.34-6.78-5.84-.62-13.83-.26-23.08.14-19.47.85-43.36,1.9-54.26-6.45C651,590.75,701.42,587,746.21,587c13.33,0,26.68-1,39.6-2s26-2,39.11-2A144.3,144.3,0,0,0,846.45,581c4.86-.72,9.89-1.46,15-1.83,4.46-.33,9.28-1.16,13.93-2,7.56-1.31,15.37-2.65,22.19-2a1.5,1.5,0,0,0,1-2.7c-11.75-8.72-32.79-9.31-51.35-9.83-7-.19-13.71-.38-19.07-1-11.82-1.41-23.87-1.36-35.53-1.32-11.31.05-23,.09-34.42-1.2-21.88-2.49-45.49-4.61-72.17-6.5a173.34,173.34,0,0,0-18.2.26c-16.64.78-37.17,1.74-47.3-6.46,5.64-3.51,13-3.07,20.15-2.65a72.62,72.62,0,0,0,11.12.09c4.34-.43,8.5-1.13,12.51-1.81a125.34,125.34,0,0,1,17.56-2.1c15.35-.44,31.14-1.71,46.42-2.94q6.57-.54,13.1-1c10.3-.79,20.92-1.21,31.2-1.63,12.64-.5,25.71-1,38.35-2.23,2.4-.22,5.17-.43,8.1-.64,15.92-1.16,37.73-2.76,47.8-11.46a1.5,1.5,0,0,0-1.14-2.63c-10,1.06-21.17-1.5-32-4a167.76,167.76,0,0,0-20.54-3.84l-.37,0c-19.7-1.91-40.06-3.88-60-3.88-20.43,0-41.1-2.08-59.34-3.91-5.68-.57-11.68-2.13-18-3.77-7.64-2-15.48-4-22.84-4.23,7.31-4,18.25-4.8,28.09-5.52,4.21-.31,8.19-.6,11.58-1.13,8.44-1.31,17.14-1.52,25.55-1.71s16.88-.4,25.32-1.66l4.76-.71c14.15-2.11,28.78-4.3,43-5.7,2.61-.25,6-.36,9.85-.5,13.4-.45,30.08-1,36.65-7.77a1.5,1.5,0,0,0,.42-1.08,1.44,1.44,0,0,0-.46-1.05c-12.3-11.74-36.45-11.64-57.77-11.55-8.71,0-16.93.07-23.25-.76-7.59-1-15.24-2.51-22.63-4-6.27-1.25-12.74-2.53-19.16-3.49-2.43-.37-5.6-.54-9-.71-8.42-.45-19.69-1.05-23.85-5.36,11.92-6.24,27.18-7.58,42-8.87,6.12-.54,11.9-1,17.47-1.88,4.84-.73,9.83-1.32,14.65-1.89,5.62-.66,11.43-1.34,17.07-2.25l1.15-.19c11.51-1.82,23.8-4.18,27.68-7.81,1.58-1.48,3.14-3.26,2.7-5.17-.53-2.31-3.42-3.2-8.2-4.68-1.17-.36-2.46-.76-3.84-1.22-7.09-2.34-14.45-3.31-21.56-4.25-2.29-.3-4.65-.61-7-1-18-2.73-36.61-6.21-50.89-13.11,1.39-6.48,16.91-9.38,25.42-11,2-.37,3.7-.69,5.07-1a113,113,0,0,0,32.3-13.25,1.49,1.49,0,0,0,.7-1,1.51,1.51,0,0,0-.21-1.17c-3.35-5-10.19-8.2-16.82-11.31-8.6-4-16.73-7.85-17-14.85a57,57,0,0,1,3.63-5c2.42-3.11,4.51-5.79,5.43-10.76a1.5,1.5,0,0,0-1.21-1.75,1.48,1.48,0,0,0-1.74,1.2c-.79,4.25-2.49,6.44-4.85,9.46a63.24,63.24,0,0,0-4,5.69,1.56,1.56,0,0,0-.22.78c0,9.17,9.52,13.65,18.75,18,5.61,2.63,11.4,5.35,14.61,9a108.86,108.86,0,0,1-30,12.06c-1.31.3-3,.61-4.95,1-11.1,2.07-27.87,5.2-28,14.79a1.53,1.53,0,0,0,.83,1.36c14.77,7.39,34.07,11,52.72,13.84,2.37.36,4.75.68,7.05,1,7.29,1,14.19,1.87,21,4.12,1.41.47,2.71.87,3.9,1.24,2.61.8,5.86,1.81,6.16,2.47,0,0,0,.61-1.82,2.32-3.73,3.49-20,6.07-26.1,7l-1.16.19c-5.57.89-11.35,1.58-16.94,2.24-4.85.57-9.86,1.16-14.74,1.89-5.49.82-11.22,1.32-17.29,1.86-15.72,1.38-32,2.8-44.67,10.07a1.49,1.49,0,0,0-.56,2c3.89,6.87,16.83,7.55,27.23,8.1,3.29.18,6.39.34,8.67.68,6.35,1,12.8,2.23,19,3.47,7.45,1.47,15.14,3,22.83,4,6.52.86,14.84.83,23.65.79,20-.09,42.64-.18,54.46,9.62-6.59,4.93-22,5.45-33.41,5.84-3.94.13-7.33.24-10,.51-14.33,1.4-29,3.59-43.19,5.71l-4.75.71c-8.25,1.23-16.74,1.43-25,1.63-8.51.2-17.3.4-25.94,1.75-3.28.51-7.19.79-11.34,1.1-12.26.89-26.17,1.91-33.78,9.08a1.5,1.5,0,0,0,1.18,2.58c8.23-.84,17.67,1.61,26.81,4,6.19,1.6,12.58,3.26,18.49,3.85,18.31,1.84,39.06,3.93,59.64,3.93,19.81,0,40.1,2,59.73,3.87l.37,0a161,161,0,0,1,20.16,3.78c9.17,2.1,18.6,4.26,27.53,4.31-10.56,5.57-28.3,6.87-41.74,7.85-2.94.21-5.73.42-8.16.65-12.56,1.19-25.59,1.71-38.19,2.22-10.31.41-21,.84-31.31,1.63q-6.53.49-13.11,1c-15.24,1.22-31,2.49-46.27,2.93a130.75,130.75,0,0,0-18,2.14c-4,.67-8.06,1.36-12.31,1.79a70.57,70.57,0,0,1-10.64-.11c-8.35-.49-17-1-23.66,4.34a1.53,1.53,0,0,0-.57,1.09,1.5,1.5,0,0,0,.45,1.15C627.62,557.87,650,556.82,668,556a170.06,170.06,0,0,1,17.85-.27c26.64,1.88,50.2,4,72,6.49,11.58,1.31,23.37,1.27,34.78,1.22s23.52-.09,35.16,1.3c5.49.66,12.22.84,19.34,1,15.7.44,33.23.93,44.77,6.37a125.82,125.82,0,0,0-17.08,2.16c-4.79.83-9.32,1.61-13.64,1.92-5.23.38-10.31,1.14-15.23,1.87a143.85,143.85,0,0,1-21.09,2c-13.19,0-26.48,1-39.34,2s-26.16,2-39.37,2c-45.73,0-97.33,3.85-157.77,11.76a1.5,1.5,0,0,0-.92,2.49c10.44,11.64,37.3,10.46,58.88,9.52,8.75-.39,17-.75,22.64-.16,30.69,3.2,62,5.23,88.47,6.8,17.42,1,35.11,1.48,52.22,1.92,34.18.88,69.39,1.79,103.67,7.34-4.61.54-9.35,1.35-14,2.14-4.9.84-9.54,1.63-13.85,2.09A454.73,454.73,0,0,1,836.36,631c-19.18,0-38.53,1.06-57.24,2.08-13.26.72-27,1.47-40.52,1.84-12.85.34-25.8,1.11-38.33,1.86-17,1-34.54,2.05-52,2.05A250,250,0,0,0,619.54,641c-5.76.66-11.72,1.34-17.76,1.76-4.89.34-10.1,1.09-15.62,1.88-9.3,1.34-18.91,2.72-26.94,2a1.5,1.5,0,0,0-.89,2.79c15.63,9.16,43.42,8.6,63.7,8.19,4-.08,7.72-.16,11.06-.16,14.47,0,28.9,1.06,42.86,2.09,9.74.71,19.82,1.45,29.88,1.83,21.84.82,44.13,2.2,65.69,3.53,31.59,1.95,64.25,4,96.23,4.3,5.75.06,11.69-.12,17.44-.3,10.15-.31,20.64-.63,30.57.34,1.65.16,3.62.31,5.91.48,8.33.63,21.12,1.58,29.09,4.37-21,.42-42.75,2.88-63.79,5.28l-10.36,1.16c-17.07,1.9-34.58,1.58-51.51,1.26-11.76-.21-23.93-.44-35.88.07-19.89.86-40.06,2.15-59.58,3.39-34.41,2.18-70,4.44-105.11,4.44a412.19,412.19,0,0,0-51.23,2.75,95.29,95.29,0,0,1-13.74.07c-11.5-.43-24.53-.91-31.06,5.44a1.5,1.5,0,0,0,1.17,2.57c7.07-.58,14.5.6,22.37,1.85,6.42,1,13.06,2.07,19.47,2.07H577c11.17,0,22.72,0,34.06,1,16.44,1.47,33.1,2.18,49.21,2.87,15.48.66,31.48,1.34,47.24,2.7,35.44,3.05,71.87,3.34,107.1,3.62,25,.2,50.87.4,76.08,1.6,5.92.28,11.86.5,18.15.73,24,.88,48.72,1.79,70.79,6.19-8.76,3.62-20,2.93-31,2.26A146.3,146.3,0,0,0,934,725c-6.7.28-13.44,1.15-20,2-6.11.79-12.42,1.6-18.64,1.92-14.42.74-29.12.51-43.34.28-17.23-.28-35-.56-52.57.88-55.52,4.55-117.06,6.67-193.67,6.67-11.2,0-22.22,1.09-32.87,2.14-6.67.65-13.57,1.33-20.48,1.75-5.82.34-12,1.09-18.49,1.89-10.84,1.32-22.05,2.68-31.63,2.06a1.5,1.5,0,0,0-.26,3c55.1,5.92,112.68,8.29,168.37,10.59q13.35.55,26.62,1.11c62.21,2.67,128.42,4,202.42,4,16,0,30.85,1.16,46.56,2.38,6,.47,12.12,1,18.33,1.36,5.86.39,12.17,1.13,18.27,1.85,2.48.3,5,.59,7.48.87l-2.48.31a188.22,188.22,0,0,1-23.47,2H960.8c-16,0-31.15,0-46.85,1.49-20.25,1.94-40.9,2.52-60.87,3.09-16.68.47-33.92,1-50.91,2.24-23,1.72-46.51,1.41-69.26,1.1-14.18-.19-28.84-.38-43.23-.08-15.13.31-30.42,1.11-45.2,1.88-19,1-38.64,2-58.12,2-30.51,0-60.77,2.94-90,5.79q-10.72,1.05-21.47,2.05a1.5,1.5,0,0,0,.26,3c9.43-.73,19.52.58,29.27,1.83,7.94,1,16.15,2.09,24.11,2.09,4.14,0,8.29,0,12.44-.06,12.48-.1,25.38-.19,38,.6,36.72,2.3,75.24,3.37,121.22,3.37,38.21,0,77.05,2,114.62,3.92s76.5,3.92,114.8,3.92c4.52,0,9.13-.07,13.59-.12,11.83-.16,24.07-.32,36,.63,1.31.11,5.37.22,11,.38,12.58.34,41.85,1.15,45.19,2.62a1.86,1.86,0,0,1,.14.21c-.62.6-3.61,1.7-17.63,1.18-1.07,0-1.9-.07-2.4-.07-10.68,0-19.2.35-27.65,1.13-16,1.49-31.28,1.91-47.4,2.36-4.79.13-9.61.26-14.49.42-36.08,1.21-72.78,2.5-108.27,3.75-38.31,1.35-77.93,2.74-116.9,4-17.07.57-34.5.29-51.35,0-23.81-.38-48.44-.78-72.58,1.2-22.64,1.86-45.18,2.76-68.89,2.76-8.48,0-17.44,1.06-26.1,2.08a231.62,231.62,0,0,1-25.17,2c-2.2-.12-4.41-.19-6.61-.2h0a1.5,1.5,0,0,0-.11,3c2.18.16,4.41.23,6.66.21,6.25.34,12.52,1,18.65,1.72a241.94,241.94,0,0,0,26.92,2c24.87,0,46.08.83,66.76,2.61,24.76,2.13,50.24,2.72,74.88,3.29,15.51.36,31.54.73,47.18,1.49,22.9,1.1,46.22.79,68.77.49,17.52-.23,35.63-.47,53.4-.05,16,.38,32.1,1.11,47.71,1.82,22.72,1,46.21,2.1,69.53,2.1l9.53,0c17.69-.06,36-.12,54,1.71,4.57.46,11.52.27,19.57,0,14.79-.4,34.25-.94,43.23,3.11-39.15.14-78.92,2.05-117.43,3.9C899.13,864,857.68,866,817,866c-57.16,0-115.2,1.17-171.34,2.3-29,.58-59,1.18-88.56,1.62-10.8.16-21.69,1.12-32.22,2-8.5.75-17.3,1.53-26,1.87-7.08.29-14.44-.06-22.24-.44-17.08-.8-34.74-1.65-49.93,4.47a1.49,1.49,0,0,0-.91,1.67,1.51,1.51,0,0,0,1.47,1.22c10.71,0,21.46,1,31.86,1.95s21.4,2,32.34,2c6.44,0,13-.07,19.34-.14,13-.14,26.46-.28,39.63.18,11.76.41,23.66.9,35.16,1.37,29.9,1.24,60.82,2.51,91.57,2.51,23.23,0,46.76,1,69.5,2,19.39.83,39.43,1.69,59.21,1.92,15.41.19,31.1,0,46.27-.11,30-.29,61.08-.59,91.47,1.68,27.61,2.07,54.14,2.35,76.45,2.35,9.34,0,19.24,1.07,28.81,2.1,2.6.28,5.21.56,7.84.82-9.5,1-19.3,1.91-29,1.91-23.29,0-47.26.95-73.28,2.9-26.22,2-53.05,1.51-79,1.07-18.75-.31-38.14-.64-57.17,0l-16.2.5c-81.43,2.51-165.63,5.1-248.42,7.33-16,.43-32.41,1-48.25,1.54-28.61,1-58.05,2-87.06,2.29a119.85,119.85,0,0,0-16.21.09,1.5,1.5,0,0,0,.12,3q8,0,16-.09c6.8.37,13.73,1.13,20.54,1.88,9.48,1,19.29,2.12,28.53,2.12h8.59c18,0,36.61-.06,54.92,1.25,41.53,3,83.75,2.85,124.57,2.73q12.63,0,25.25,0c97.71,0,200.31,4.17,282.75,7.53,16.05.65,32.4.52,48.21.4,6.34,0,12.89-.1,19.33-.1,12.74,0,25.53,1,37.9,2l5.06.4-5.12.47c-10.59,1-21.54,2-32.28,2-6.32,0-12.75-.06-19-.12-14-.14-28.53-.28-42.76.28l-1.17.05c-48.25,1.9-93.82,3.71-141.12,3.71-49.39,0-99.59,1-148.13,2s-98.79,2-148.23,2c-16.49,0-33,1.1-49,2.16-9.86.65-20.05,1.33-30.15,1.74-7.52.31-15.34-.06-23.63-.46-17.81-.85-36.22-1.74-52.06,4.5a1.5,1.5,0,0,0,.55,2.89c24,0,48.51,1,72.2,2s48.46,2,72.77,2c31.08,0,62.46,1.16,92.8,2.28,15.93.59,32.41,1.2,48.7,1.63,97.05,2.6,196.14,3.92,294.53,3.92,27.87,0,56.14,1,83.47,2,25.44.89,51.69,1.82,77.63,1.94-11.47,4.61-31.93,3-47.43,1.82-6.14-.48-11.44-.89-15.49-.89-22.32,0-48.79.23-75.87,2-40.41,2.58-81.63,2.33-121.5,2.1-11.66-.07-23.72-.14-35.57-.14-26.49,0-53.39,1-79.4,2s-52.92,2-79.41,2c-16.45,0-33.24-.18-49.46-.36-32.56-.36-66.23-.73-99.21.36l-14.15.47c-47.87,1.56-97.36,3.18-145.2,7.37a1.5,1.5,0,0,0,.13,3c23.71,0,47.72,1,70.94,2s47.35,2,71.19,2q16.69,0,33.4-.08c42.91-.15,87.28-.31,130.86,1.9,51.18,2.6,103.25,2.37,153.61,2.15,54.15-.24,110.14-.48,165.12,2.79,20.62,1.22,41.56,1.16,61.81,1.1l13.68,0c13.35,0,26.8.86,39.87,1.75-10.49.33-20.92.73-31.22,1.12-25.37,1-51.61,2-77.44,2-27.41,0-55.18,1-82,2-23,.84-46.86,1.7-70.33,1.93-35.94.34-72.5.22-107.86.11-17.68,0-36-.11-53.94-.11-26.63,0-53.63,1-79.74,2s-53,1.95-79.51,1.95H420.53c-12,0-24.25,1-36.13,2.05-9.81.83-19.85,1.69-29.75,1.95q-6.88-.07-13.74-.08a1.5,1.5,0,0,0-.06,3c4.56.19,9.18.2,13.83.08,22.71.25,45.59,1.07,67.84,1.87,26.86,1,54.63,2,82,2,40.45,0,81.36,1.27,120.93,2.49,14.9.47,30.31.94,45.51,1.35,52.23,1.38,105.36,1.66,156.73,1.94,52.78.28,107.37.57,161,2,21.3.6,43,.4,64,.2,10.47-.09,21.3-.19,31.93-.19,4.92,0,9.84,0,14.76,0,9.67,0,19.67-.1,29.49,0a101,101,0,0,1,13.08,1.21c-17.12.37-34.2,1-50.9,1.66-25.24,1-51.34,2-77.12,2H994.07c-52,0-105.85-.08-158.82,2.45-54.16,2.59-109.3,2.33-162.63,2.08-56.33-.27-114.57-.55-171.83,2.53-19.94,1.07-40.28,1-59.94.85q-9.24-.06-18.49-.07H373.73c-2.21,0-5.47-.24-9.24-.51-14.54-1-34.44-2.5-40.64,5a1.53,1.53,0,0,0-.21,1.6,1.5,1.5,0,0,0,1.36.86c112,0,225.86,2,336,3.92s224.11,3.92,336.2,3.92c31.22,0,62.88,1,93.5,2l18.81.59-9.48.33c-27.61,1-56.16,2-84.31,2-41.15,0-82.76,1.26-123,2.47-15.9.48-32.34,1-48.55,1.4-53.72,1.37-108.42.58-161.32-.17-58.41-.83-118.8-1.7-178.13.33-75.71,2.59-137.87,3.8-195.62,3.8a1.5,1.5,0,0,0-.78,2.78c14.17,8.57,40.23,6.67,61.18,5.14,7.12-.52,13.84-1,19.15-1h84.2c30.17,0,60.81,1,90.44,2s60.34,2,90.58,2c24.54,0,49.49-.08,73.61-.16,92-.3,187.07-.62,280.49,3.56,21.17.95,42.73.79,63.58.63,7.84-.06,16-.11,23.91-.11h50.25c2.45,0,6-.25,10.09-.53,11.11-.77,28.52-2,37,1.44-55.5.06-111.75,1-166.2,2-56,1-113.95,2-171,2-60.69,0-122.38,1-182,2s-121.24,2-181.82,2H295.46a1.5,1.5,0,0,0-1.15,2.48c6.05,7.08,23.8,5.83,36.75,4.91,3.63-.25,6.75-.47,9.07-.47h45.43c10.13,0,20.44-.08,30.41-.16,19.94-.17,40.55-.33,60.77.16,18,.43,36.16,1,53.77,1.54,37.6,1.17,76.48,2.37,115,2.37s77.95-.59,116-1.17c81-1.22,164.74-2.49,246.36,1.85,48.7,2.58,98,3.12,146.4,3.23-7.26.53-14.54.93-21.61.93h-98.16c-21.42,0-43.19-.07-64.25-.14-42.13-.12-85.69-.26-128.53.14-45.56.41-91.86,1.08-136.64,1.73-73.77,1.07-150,2.18-225.13,2.18-33.13,0-66.76,1-99.27,2s-65.94,2-98.87,2a1.5,1.5,0,1,0,0,3c61.9,0,124.76,1,185.56,1.95s123.67,2,185.58,2h376.85c29.11,0,58.68.84,87.48,1.72-24.89.34-49.66.75-74.07,1.16-58.16,1-118.29,2-177.46,2H679.4c-31.19,0-62.84,1-93.45,2s-62.16,2-93.24,2h-220a1.5,1.5,0,0,0,0,3h2.54c12.09.06,24.49,1,36.51,1.94,12.62,1,25.68,2,38.55,2H648.92c62,0,125,1,185.91,2s123.88,2,185.86,2h92.81c-18,.53-36.16.92-54.17.92H856.78q-65.13,0-130.27-.09c-85.4-.09-173.7-.18-260.56.09-32.39.1-65.32,1-97.17,2-33.71,1-68.56,2-102.87,2a1.5,1.5,0,0,0,0,3c61.33,0,123.7,1,184,2s122.62,2,183.89,2h548.52c-8.07.52-16.21.91-24.21.91H475.64c-36.58,0-73.69,1-109.57,2s-72.84,2-109.25,2a1.5,1.5,0,1,0,0,3h397c70.4,0,143.68.15,217.93.91H458.41c-34,0-68.5,1-101.89,2s-68,2-102,2a1.5,1.5,0,1,0,0,3H452.24q10.78.5,21.61.92H250a1.5,1.5,0,0,0,0,3H1250a1.5,1.5,0,0,0,0-3Zm-399,0H631.44c-30.34,0-59.78-.31-88.69-.92H975.5C934.11,1178.84,892.34,1179.23,851,1179.23Z"/></svg>