<svg id="Abstract_Shape" data-name="Abstract Shape" xmlns="http://www.w3.org/2000/svg" viewBox="0 0 1500 1500"><path d="M1158.61,964.51l97.49-65.92-1.58-3.77c-3.09-7.43-34.82-83.57-73.15-175.56L1041.82,384.33l0,0-1-2.27L701.33,292,247.11,599.12l-3.39,2.29,41.43,99.44C344.57,843.44,449.92,1096.29,458,1115.7L459,1118l2.39.63c64.87,17.21,271.15,71.89,334.78,88.74h0l.12,0,2.2.58,1.84-1.24.11-.08ZM729.38,1179.32,711,1135.24l31.06,8.24,18.37,44.07Zm-33.5-8.88-18.36-44.07,31.06,8.23,18.36,44.07Zm-167.47-44.39L510.05,1082l31.05,8.24,18.37,44.07Zm-33.49-8.88-18.37-44.07,29.2,7.73,1.86.5L526,1125.4Zm134,35.52-18.37-44.08,31.06,8.23L660,1160.92Zm-33.5-8.88L577,1099.73,608.1,1108,626.46,1152Zm472.46-130c-4-9.54-10.53-25.27-18.92-45.4L1092.48,939c9.1,21.82,15.76,37.82,18.92,45.4ZM886.92,1136.12,868,1090.72l43.55-29.44c7.25,17.41,13.65,32.76,18.92,45.4Zm-106,13.48,40.16-27.16,18.92,45.4L799.83,1195Zm254-755.82,18.92,45.4-40.16,27.16-18.92-45.4Zm-451,292.84-25.79-6.83,38.64-26.13,25.79,6.84Zm7.11,7.27,40.16-27.15c3.35,8,10,24,18.92,45.4L610,739.29Zm41.85-28.3,43.55-29.43,18.91,45.4L651.81,711C642.81,689.4,636.16,673.45,632.89,665.59ZM678.13,635l43.54-29.44c5.12,12.3,11.54,27.69,18.92,45.4L697,680.41Zm-53.36,24L599,652.18l43-29.1,25.8,6.84Zm-28.36-7.51-30.93-8.2,43-29.1,30.93,8.2Zm-2.2,1.48-38.64,26.13-30.93-8.2,38.64-26.13Zm-41.65,35.67c3.31,7.93,9.73,23.36,18.37,44.08l-31.06-8.23L521.5,680.42Zm2.44.65,26.19,6.94,18.36,44.08-26.19-6.94C564.93,713.13,558.53,697.77,555,689.3Zm55.74,51.88L650.9,714c6,14.28,12.88,30.89,20.49,49.17l-40.16,27.15Zm41.85-28.3,43.55-29.44,20.48,49.17-43.54,29.44C665.46,743.76,658.54,727.14,652.59,712.88Zm45.24-30.58,43.54-29.44L761.86,702l-43.54,29.44Zm25.53-77.87L766.9,575l18.92,45.4-43.54,29.44C734.88,632.09,728.47,616.7,723.36,604.43Zm-53.36,24-25.79-6.84,43-29.09,25.8,6.84Zm-28.36-7.52-30.93-8.19,43-29.1,30.93,8.2ZM608.15,612l-30.93-8.2,43-29.1,30.93,8.2Zm-2.2,1.48-43,29.1L532,634.42l43-29.1ZM560.72,644.1l-38.64,26.13L491.15,662l38.64-26.12Zm-41.65,35.67,18.36,44.08-31.06-8.23L488,671.54Zm19.33,46.41,20.3,48.72-31.06-8.23-20.3-48.73Zm2.43.64,31.07,8.24c5.89,14.13,12.74,30.59,20.3,48.72l-31.06-8.23Zm33.5,8.88,26.19,6.94c5.89,14.15,12.75,30.61,20.3,48.73l-26.19-7ZM632,792.23l40.17-27.16c6.4,15.38,13.29,31.9,20.49,49.18L652.5,841.4Zm41.86-28.3,43.54-29.44,20.49,49.17L694.36,813.1C687.16,795.83,680.27,779.3,673.87,763.93Zm45.23-30.58,43.54-29.44c6.51,15.61,13.37,32.09,20.49,49.17l-43.54,29.44Zm45.23-30.58,43.55-29.44c6.4,15.37,13.29,31.9,20.49,49.17l-43.55,29.44C777.71,734.86,770.83,718.36,764.33,702.77Zm-.78-1.89-20.49-49.17,43.55-29.43c5.94,14.25,12.86,30.88,20.48,49.16Zm5-127,43.55-29.44,18.91,45.4-30.71,20.77-12.83,8.67C778.44,597.47,771.78,581.48,768.59,573.85Zm-53.35,24L689.44,591l43-29.09,25.79,6.83Zm-28.36-7.52L656,582.13,699,553l30.93,8.2Zm-33.5-8.88-30.93-8.19,43-29.1,30.93,8.2Zm-33.49-8.87L589,564.38l43-29.1,30.93,8.2Zm-2.2,1.48-43,29.1L543.72,595l43-29.1Zm-45.23,30.58-43,29.1-30.93-8.2,43-29.09Zm-45.24,30.59-38.64,26.12-30.93-8.2L496.29,627ZM485.57,670.9,503.94,715l-31.06-8.23-18.37-44.08Zm19.34,46.4L525.21,766l-31.06-8.23-20.3-48.72Zm21.27,51.05,20.3,48.73-31.06-8.23-20.3-48.73Zm2.43.64,31.06,8.24L580,826l-31.05-8.24Zm33.5,8.88,31.06,8.24,20.3,48.72-31.06-8.23Zm33.49,8.88,26.19,6.94,20.3,48.73-26.18-6.94Zm57.69,56.53,40.16-27.15c6.62,15.88,13.48,32.36,20.49,49.17l-40.17,27.15C666.77,875.65,659.9,859.17,653.29,843.28ZM695.14,815l43.54-29.44,4.54,10.89c5.2,12.49,10.54,25.3,15.95,38.27l-43.54,29.44C708.63,847.35,701.75,830.86,695.14,815Zm49.93-19.32-4.7-11.27L783.92,755c6.65,16,13.51,32.45,20.48,49.17l-43.54,29.44C755.5,820.72,750.22,808,745.07,795.67Zm40.54-41.85,43.54-29.44c6.62,15.88,13.48,32.36,20.49,49.17L806.09,803Zm45.23-30.58,43.54-29.44L894.87,743l-43.54,29.44Zm-.78-1.88-20.49-49.18,43.54-29.43,20.49,49.17ZM808.78,670.3c-7.62-18.3-14.55-34.92-20.48-49.17l13.16-8.9,30.38-20.54,20.49,49.17Zm5.05-127,43.54-29.44,18.92,45.4-43.54,29.44Zm-53.36,24-25.79-6.84,43-29.1,25.8,6.84Zm-28.36-7.52-30.93-8.2,43-29.1,30.93,8.2Zm-33.49-8.88-30.93-8.2,43-29.09,30.93,8.19ZM665.12,542l-30.93-8.2,43-29.09,30.93,8.2Zm-33.49-8.88-30.93-8.19,43-29.1,30.93,8.2Zm-2.2,1.49-43,29.1-30.93-8.2,43-29.1Zm-45.24,30.58-43,29.1-30.93-8.2,43-29.09ZM539,595.77l-43,29.09L465,616.66l43-29.09Zm-45.23,30.58-38.64,26.12-30.93-8.2,38.64-26.12ZM452.08,662l18.36,44.07-31.06-8.23L421,653.79Zm19.33,46.4,20.3,48.72-31-8.23-20.31-48.72Zm21.27,51.05L513,808.2,481.93,800l-20.31-48.73ZM514,810.53l20.3,48.72L503.2,851l-20.3-48.73Zm2.43.64,31.06,8.23,20.3,48.73-31-8.23Zm33.5,8.88,31.05,8.23L601.25,877l-31.06-8.23Zm33.49,8.88,31.06,8.23,20.3,48.73-31.06-8.24Zm33.5,8.88,26.18,6.94c6.56,15.72,13.36,32.06,20.31,48.72l-26.19-6.94C630.24,869.89,623.43,853.54,616.88,837.81Zm57.68,56.52,40.16-27.15,20.49,49.17-13,8.76L695,943.5ZM716.41,866,760,836.6c6.76,16.2,13.63,32.69,20.49,49.17L736.9,915.21Zm45.23-30.58L805.19,806l20.48,49.17-43.54,29.43C775.26,868.14,768.4,851.66,761.64,835.46Zm45.24-30.59,43.54-29.44c6.75,16.2,13.62,32.7,20.49,49.17L827.37,854C820.49,837.55,813.64,821.11,806.88,804.87Zm45.23-30.58,43.55-29.44c6.74,16.2,13.62,32.7,20.48,49.17L872.6,823.46Zm64.82,21.61,20.48,49.17-43.54,29.44-20.49-49.17Zm1.69-1.14,43.54-29.44c6.87,16.49,13.73,33,20.49,49.17L939.1,843.93C932.36,827.74,925.49,811.24,918.62,794.76Zm-.79-1.88c-6.87-16.48-13.73-33-20.48-49.17l43.54-29.44c6.75,16.21,13.62,32.68,20.49,49.17C947,773.15,932.39,783,917.83,792.88Zm-21.27-51c-7-16.81-13.87-33.28-20.49-49.17l39.31-26.58,4.24-2.86c6.62,15.88,13.49,32.38,20.48,49.17Zm17.7-77.41-39,26.35L854.8,641.6l43.54-29.44c6.43,15.43,13.31,31.93,20.49,49.17ZM854,639.72c-7.6-18.25-14.53-34.86-20.49-49.17l43.54-29.44c6,14.41,12.92,31,20.49,49.17Zm5-127,43.54-29.43c3.18,7.61,9.84,23.6,18.92,45.4L878,558.08Zm-53.35,24-25.8-6.83,9.47-6.4,33.56-22.7,25.8,6.84Zm-17.45-14.89-10.92,7.38L746.42,521l43-29.1,30.93,8.2Zm-44.41-1.5-30.93-8.2L756,483l30.92,8.19Zm-33.49-8.88-30.93-8.2,43-29.09,30.93,8.2Zm-33.5-8.88-30.93-8.2,43-29.09,30.92,8.2Zm-33.49-8.88-30.93-8.19,43-29.1,30.93,8.2Zm-2.2,1.49-43,29.1L567.2,516l43-29.1Zm-45.24,30.58-43,29.1L522,546.62l43-29.09ZM550.7,556.31l-43,29.09-30.93-8.2,43-29.09Zm-45.23,30.58-43,29.09-30.93-8.19,43-29.1Zm-45.24,30.58L421.6,643.59l-30.93-8.19,38.64-26.13Zm-41.65,35.67L437,697.22,405.89,689l-18.36-44.07Zm19.34,46.4,20.3,48.73L427.16,740l-20.3-48.72Zm21.27,51.05,20.3,48.73-31.05-8.23-20.31-48.73Zm21.27,51.06,20.31,48.72-31.06-8.23-20.3-48.72Zm21.27,51.05L522,901.43,491,893.2l-20.3-48.73Zm2.44.65,31.06,8.23,20.3,48.72-31.06-8.23Zm33.49,8.87,31.06,8.24L589,919.18,558,911Zm33.5,8.88,31.06,8.23,20.3,48.73-31.06-8.23ZM604.65,880l31.06,8.23c6.69,16.06,13.49,32.37,20.3,48.73L625,928.71Zm33.5,8.88,26.18,6.94,20.31,48.72-26.19-6.94C651.64,921.25,644.84,904.91,638.15,888.86Zm57.68,56.53,27.54-18.63c3.91-2.63,8.13-5.49,12.62-8.53l20.49,49.17-40.16,27.16Zm41.85-28.3,43.55-29.44,20.48,49.17-43.54,29.44Zm45.24-30.58,43.54-29.44c6.86,16.45,13.71,32.91,20.49,49.17L803.4,935.68Zm45.23-30.58,43.54-29.44c6.88,16.49,13.74,33,20.49,49.16l-43.54,29.44C841.86,888.84,835,872.38,828.15,855.93ZM893,877.54c7,16.82,13.87,33.29,20.48,49.17l-43.54,29.44L849.42,907Zm1.69-1.14L938.2,847c7,16.81,13.87,33.29,20.49,49.16l-43.55,29.44Zm45.23-30.59,43.54-29.44c7,16.8,13.87,33.27,20.49,49.17L960.38,895C953.76,879.11,946.89,862.62,939.89,845.81Zm45.23-30.58,43.55-29.44c7,16.82,13.87,33.29,20.48,49.17l-43.54,29.44C999,848.5,992.12,832,985.12,815.23Zm-.78-1.88-20.49-49.17,43.54-29.44,20.49,49.17Zm-21.27-51.06-20.49-49.16,43.54-29.44c6.76,16.21,13.62,32.67,20.49,49.17Zm-21.28-51-20.48-49.17,43.54-29.44,20.49,49.17Zm-21.27-51L900,611l43.54-29.44c6.4,15.37,13.29,31.89,20.49,49.17Zm-21.27-51.05C891.68,591,884.76,574.37,878.76,560l43.55-29.44c5.93,14.25,12.86,30.86,20.48,49.17Zm5-127,43.55-29.44c3.16,7.58,9.82,23.58,18.92,45.4L923.21,527.5Zm-53.35,24-25.8-6.84,43-29.09L894,477Zm-28.36-7.52-30.93-8.19,43-29.1,30.93,8.2Zm-33.5-8.87-30.93-8.2,43-29.1,30.93,8.2Zm-33.49-8.88-30.93-8.2,43-29.1,30.93,8.2ZM722.09,472l-30.93-8.2,43-29.09,30.93,8.19Zm-33.49-8.88-30.93-8.2,43-29.09,30.93,8.2Zm-33.5-8.88L624.17,446l43-29.1,30.93,8.2Zm-2.19,1.49-43,29.1-30.93-8.2,43-29.1Zm-45.24,30.58-43,29.1-30.93-8.2,43-29.1Zm-45.23,30.59-43,29.09-30.93-8.2,43-29.09Zm-45.23,30.58-43,29.09-30.93-8.19,43-29.1ZM472,578l-43,29.1L398,598.91l43-29.1Zm-45.23,30.58L388.1,634.72l-30.93-8.2,38.64-26.13Zm-41.65,35.67,18.37,44.08-31.07-8.23L354,636Zm19.34,46.41,20.3,48.72-31.06-8.23-20.31-48.73Zm21.27,51L446,790.44l-31.06-8.23-20.31-48.73ZM447,792.77l20.3,48.73-31.06-8.24-20.3-48.72Zm21.27,51.05,20.3,48.73-31.06-8.23-20.3-48.73Zm21.27,51.06,20.31,48.72-31.07-8.23-20.3-48.73Zm2.44.64L523,903.75l20.3,48.73-31.06-8.23Zm33.49,8.88,31.06,8.23,20.3,48.73-31-8.24Zm33.5,8.88,31,8.23,20.31,48.73L579.24,962Zm33.49,8.87,31.06,8.24,20.3,48.72-31.06-8.23ZM625.92,931,657,939.26,677.29,988l-31.06-8.23Zm33.5,8.88,26.19,6.94,20.3,48.73-26.19-6.94Zm57.68,56.53,40.16-27.15,20.49,49.16-40.16,27.16C731,1029.71,724.1,1013.23,717.1,996.44ZM759,968.14,802.5,938.7,823,987.87l-43.55,29.44C772.83,1001.43,766,985,759,968.14Zm45.23-30.58,43.54-29.44,20.49,49.17-43.54,29.44C818.06,970.84,811.18,954.35,804.19,937.56ZM869,959.17l20.49,49.17L846,1037.78c-6.42-15.41-13.31-31.93-20.49-49.17Zm1.69-1.14,43.55-29.44c7.2,17.28,14.08,33.8,20.49,49.17l-43.55,29.44C884.66,991.54,877.79,975.05,870.69,958Zm45.24-30.58L959.47,898c7.2,17.28,14.08,33.8,20.49,49.17l-43.54,29.44Zm45.23-30.58,43.55-29.44,20.48,49.17L981.65,946Zm45.24-30.59,43.54-29.44c7.2,17.29,14.08,33.8,20.49,49.17l-43.55,29.44Zm45.23-30.58,43.54-29.44c7.2,17.28,14.09,33.8,20.49,49.17l-43.54,29.44C1065.71,869.5,1058.83,853,1051.63,835.7Zm-.79-1.88c-6.61-15.88-13.48-32.37-20.48-49.17l43.54-29.44c7,16.81,13.87,33.29,20.49,49.17Zm-21.27-51.06c-6.75-16.19-13.62-32.69-20.49-49.16l43.55-29.44c6.87,16.48,13.74,33,20.49,49.17Zm-21.27-51-20.49-49.17,43.55-29.44,20.48,49.17ZM987,680.66c-7-16.81-13.88-33.3-20.49-49.17l43.55-29.44c6.6,15.86,13.49,32.38,20.48,49.17Zm-21.27-51-20.49-49.17L988.81,551c6.41,15.37,13.29,31.89,20.49,49.17Zm-21.28-51.05c-7.63-18.33-14.55-34.94-20.48-49.17C939.29,519,953.93,509.15,967.54,500c5.94,14.24,12.86,30.86,20.49,49.17Zm5-127,43.54-29.44,18.92,45.4-43.54,29.44C959.28,474.93,952.61,458.9,949.53,451.52Zm-53.36,24-25.79-6.84,43-29.1,25.8,6.84ZM867.81,468l-30.93-8.2,43-29.09,30.93,8.2C897.37,448,882.92,457.79,867.81,468Zm-33.49-8.88-30.93-8.19,43-29.1,30.93,8.2Zm-33.5-8.87-30.93-8.2,43-29.1,30.93,8.2Zm-33.49-8.88-30.93-8.2,43-29.1,30.93,8.2Zm-33.5-8.88-30.93-8.2,43-29.09,30.93,8.19Zm-33.49-8.88-30.93-8.2,43-29.09,30.93,8.2Zm-33.5-8.88-30.93-8.19,43-29.1,30.93,8.2Zm-2.2,1.49-43,29.1-30.93-8.2,43-29.1ZM619.41,446.8l-43,29.1-30.93-8.2,43-29.1Zm-45.23,30.58-43,29.1-30.93-8.2,43-29.09ZM528.94,508l-43,29.09L455,528.87l43-29.1Zm-45.23,30.58-43,29.1-30.93-8.2,43-29.1Zm-45.23,30.58-43,29.1L364.51,590l43-29.1Zm-45.23,30.58-38.64,26.13-30.94-8.2,38.65-26.13Zm-41.66,35.67L370,679.46l-31.06-8.23-18.36-44.08Zm19.34,46.41,20.3,48.72-31.06-8.23-20.3-48.73Zm21.27,51.05,20.3,48.72-31.05-8.23L361.14,724.6Zm21.27,51,20.3,48.73-31-8.24-20.31-48.72Zm21.27,51.05,20.31,48.73L424,875.44l-20.3-48.73ZM456,886l20.3,48.72-31.06-8.23L425,877.76Zm21.27,51,20.3,48.72-31.06-8.23-20.3-48.72Zm2.43.64,31.07,8.24,20.3,48.72L500,986.42Zm33.5,8.88,31.06,8.24,20.3,48.72-31.06-8.23Zm33.49,8.88,31.06,8.23,20.31,48.73L567,1004.18Zm33.5,8.88,31.06,8.23,20.3,48.73-31.06-8.24Zm33.49,8.88,31.06,8.23,20.3,48.73L634,1021.93Zm33.5,8.87,31.06,8.24,20.3,48.72-31.06-8.23ZM680.69,991l26.19,6.94,20.3,48.73L701,1039.69Zm57.68,56.53,40.17-27.15c7.2,17.27,14.08,33.79,20.48,49.17l-40.16,27.15C752.44,1081.24,745.56,1064.73,738.37,1047.49Zm41.86-28.29,43.54-29.44c7.19,17.24,14.07,33.76,20.49,49.16l-43.55,29.44C794.31,1053,787.42,1036.47,780.23,1019.2ZM845,1040.81c7.59,18.2,14.5,34.8,20.49,49.17L822,1119.42l-20.49-49.17Zm1.69-1.14,43.55-29.44,20.48,49.16-43.54,29.44ZM892,1009.08l43.54-29.44c7.62,18.29,14.55,34.93,20.49,49.17l-43.55,29.44ZM937.2,978.5l43.54-29.44,20.49,49.17-43.54,29.44Zm45.23-30.58L1026,918.48c7.57,18.17,14.48,34.75,20.48,49.17l-43.54,29.44C997,982.82,990.05,966.19,982.43,947.92Zm45.24-30.58,43.54-29.44c7.63,18.3,14.55,34.92,20.49,49.16l-43.54,29.44Zm45.23-30.59,43.55-29.44c7.62,18.31,14.55,34.93,20.48,49.17l-43.54,29.44Zm45.24-30.58,43.54-29.44,20.49,49.17-43.55,29.44Zm-.79-1.88c-6.4-15.38-13.29-31.9-20.49-49.17l43.55-29.44,20.48,49.17Zm-21.27-51.06c-6.61-15.87-13.49-32.37-20.49-49.16l43.54-29.44,20.49,49.16Zm-21.27-51.05c-6.76-16.2-13.62-32.68-20.49-49.17l43.54-29.44,20.49,49.17Zm-21.27-51L1033.05,652l43.54-29.44,20.49,49.17Zm-21.28-51-20.48-49.17,43.54-29.44,20.49,49.17ZM1011,599c-7.2-17.29-14.09-33.81-20.49-49.17l43.55-29.44,20.48,49.17ZM989.72,548c-7.63-18.32-14.56-34.94-20.49-49.17,16.21-10.95,30.93-20.91,43.54-29.44l20.49,49.17Zm-48.31-103-25.8-6.84,43-29.1,25.79,6.84ZM913,437.42l-30.92-8.2,43-29.1,30.93,8.2Zm-33.49-8.88-30.93-8.2,43-29.09,30.93,8.2Zm-33.49-8.88-30.93-8.2,43-29.09,30.93,8.2Zm-33.5-8.87-30.93-8.2,43-29.1,30.93,8.2Zm-33.49-8.88-30.93-8.2,43-29.1,30.93,8.2ZM745.57,393l-30.93-8.2,43-29.1,30.93,8.2Zm-33.49-8.88L681.15,376l43-29.09,30.92,8.19Zm-33.5-8.88-30.93-8.19,43-29.1,30.71,8.14.22.06Zm-2.2,1.49-43,29.1-30.93-8.2,43-29.1Zm-45.23,30.58-43,29.1-30.93-8.2,43-29.1Zm-45.23,30.58-43,29.1L512,458.82l43-29.09Zm-45.23,30.59-43,29.09-30.93-8.19,43-29.1Zm-45.24,30.58-43,29.1L421.49,520l43-29.1Zm-45.23,30.58-43,29.1-30.93-8.2,43-29.1ZM405,560.25l-43,29.1L331,581.15l43-29.09Zm-45.23,30.58L321.11,617l-30.93-8.2,38.64-26.12ZM318.1,626.51l18.36,44.07-31-8.23L287,618.28Zm19.33,46.4,20.31,48.72-31.06-8.23-20.3-48.72ZM358.71,724,379,772.69,348,764.46l-20.3-48.73ZM380,775l20.3,48.73-31.06-8.23-20.3-48.73Zm21.27,51.06,20.3,48.72-31.05-8.23-20.31-48.73Zm21.27,51,20.31,48.72-31.06-8.23-20.3-48.72Zm21.27,51L464.1,976.9,433,968.66l-20.3-48.72Zm21.28,51.05,20.3,48.73-31.06-8.23L434,971Zm2.43.65,31.06,8.23,20.3,48.73-31.05-8.23Zm33.5,8.88L532.06,997l20.3,48.73-31.06-8.24Zm33.49,8.87,31.06,8.24,20.3,48.72-31.05-8.23Zm33.5,8.88,31,8.23,20.31,48.73-31.06-8.23Zm52.33,59.29,20.3,48.73-31.06-8.24-20.3-48.72Zm-18.84-50.41,31.06,8.23,20.3,48.73-31.06-8.23Zm33.49,8.88,31.06,8.23,20.3,48.73L655.28,1073Zm33.5,8.88,31.06,8.23,20.3,48.72-31.06-8.23ZM702,1042l26.19,7,20.3,48.72-26.18-6.94C715.9,1075.47,709.09,1059.11,702,1042Zm57.69,56.53,40.16-27.15c7.62,18.29,14.54,34.91,20.49,49.17l-40.17,27.15C774.13,1133.31,767.21,1116.71,759.65,1098.54Zm63.12,22.76,43.54-29.44,18.92,45.4-43.54,29.44Zm90.47-61.17,43.54-29.43c9.06,21.75,15.73,37.73,18.92,45.4l-43.54,29.44Zm45.23-30.58,43.54-29.44,18.92,45.41L977.39,1075ZM1003.71,999l43.54-29.44c8.43,20.23,15,36,18.92,45.4l-43.55,29.45C1019.3,1036.39,1012.66,1020.45,1003.71,999Zm90.46-61.16,43.55-29.44c9.09,21.83,15.76,37.82,18.91,45.4l-3.63,2.45-39.91,27Zm45.24-30.59L1183,877.78l18.92,45.41-43.54,29.43C1155.09,944.86,1148.44,928.9,1139.41,907.22Zm45.23-30.58,40.16-27.15c9.21,22.09,15.89,38.12,18.92,45.4L1203.56,922Zm39.38-29-40.16,27.16-20.49-49.17,40.16-27.15Zm-21.27-51.05-40.17,27.16-20.48-49.17,40.16-27.16C1189.47,764.68,1196.35,781.21,1202.75,796.55Zm-30.61-73.45q4.74,11.39,9.33,22.4l-40.16,27.15-20.48-49.17L1161,696.33Zm-11.94-28.65L1120,721.6l-20.49-49.17,40.16-27.15Zm-61.43-23.9-20.49-49.17,40.16-27.15,20.49,49.16Zm-21.27-51L1057,570.33l40.16-27.16,20.49,49.17Zm-21.28-51.06-20.48-49.17,40.16-27.15,20.49,49.17ZM1035,517.39l-20.49-49.17,40.17-27.15,20.48,49.17Zm-48.31-103-25.8-6.83,38.64-26.12,25.8,6.84Zm-28.36-7.51-30.93-8.2L966,372.52l30.93,8.2ZM924.79,398l-30.93-8.2,38.63-26.12,30.93,8.2Zm5.13-35-38.63,26.12-30.93-8.2L899,354.76Zm-33.49-8.88L857.79,380.2,826.87,372l38.63-26.12ZM824.3,371.32l-30.93-8.19L832,337l30.93,8.19Zm-33.49-8.87-30.93-8.2,38.63-26.12,30.93,8.2Zm-33.5-8.88-30.93-8.2L765,319.25l30.93,8.2Zm5.14-35-38.63,26.12-1.9-.5-29-7.7,38.63-26.12Zm-72.13,17.24L664.53,329l38.64-26.11L729,309.69Zm-2.2,1.49-43,29.1-25.8-6.84,43-29.1Zm-45.23,30.58-43,29.1-25.79-6.84,43-29.1Zm-45.23,30.58-43,29.1-25.79-6.84,43-29.09Zm-45.24,30.59-43,29.09-25.8-6.84,43-29.09Zm-45.23,30.58-43,29.09-25.79-6.83,43-29.1ZM462,490.21l-43,29.1-25.8-6.84,43-29.1Zm-45.24,30.58-43,29.1-25.8-6.84,43-29.09Zm-45.23,30.59-43,29.09-25.8-6.84,43-29.09ZM326.26,582l-38.64,26.12-25.8-6.84,38.64-26.12Zm-41.65,35.67L303,661.7l-26.18-6.94-18.37-44.07ZM294.38,697l-16.63-39.91L303.94,664l20.3,48.72-26.18-6.94Q296.19,701.34,294.38,697ZM299,708.14l26.18,6.94,20.31,48.73-26.19-6.94C312.21,739.79,305.39,723.43,299,708.14Zm47.46,58,20.3,48.73-26.19-6.94c-6.93-16.63-13.73-33-20.3-48.73Zm-4.92,44.12,26.19,6.94,20.3,48.73L361.88,859C355.07,842.65,348.27,826.32,341.57,810.25Zm47.46,58L409.33,917,383.15,910c-6.69-16-13.49-32.37-20.31-48.73Zm-4.91,44.11,26.18,6.94L430.6,968l-26.18-6.94C397.87,945.37,391.06,929,384.12,912.35Zm21.27,51,26.18,6.94,20.31,48.73-26.19-6.94C419.36,996.93,412.53,980.55,405.39,963.4Zm47.46,58,20.3,48.72L447,1063.18l-20.3-48.72Zm2.43.64,31.06,8.24,20.3,48.72-.38-.1-30.68-8.13Zm33.49,8.88,31.06,8.23,20.31,48.73-31.06-8.23Zm33.5,8.88,31.06,8.23,20.3,48.73-31.06-8.23Zm33.5,8.88,31.05,8.23,20.31,48.73-31.06-8.23Zm67,17.75,31.06,8.24,20.3,48.72-31.05-8.23Zm33.5,8.88,31,8.23,20.31,48.73L676.55,1124Zm33.49,8.88,31.06,8.23,20.3,48.73L710,1132.92Zm33.5,8.88,26.18,6.94c7.47,17.91,14.32,34.35,20.31,48.73l-26.19-6.94Zm-256.95,16.51-18.36-44.07,26.19,6.94,18.36,44.07Zm77.25-18.73,31.06,8.24L593,1143.16l-31.06-8.23Zm118.85,70.71L644,1117.49l31.05,8.23,18.37,44.08Zm82.12-17.44,26.19,6.94c7.88,18.94,14.2,34.1,18.36,44.07l-26.19-6.93C759.17,1179.3,752.79,1164,744.51,1144.12Z"/></svg>