<svg id="Abstract_Shape" data-name="Abstract Shape" xmlns="http://www.w3.org/2000/svg" viewBox="0 0 1500 1500"><path d="M1134,896,765,1001.22a1.5,1.5,0,0,0,.41,2.94,1.4,1.4,0,0,0,.41-.06l369-105.25A1.5,1.5,0,0,0,1134,896Z"/><path d="M1162.61,852.18,809.67,967.48a1.5,1.5,0,1,0,.93,2.85L1163.54,855a1.5,1.5,0,1,0-.93-2.85Z"/><path d="M1187.53,808.14,853,930.68a1.5,1.5,0,0,0,.52,2.9,1.31,1.31,0,0,0,.51-.09L1188.56,811a1.5,1.5,0,1,0-1-2.82Z"/><path d="M1208.52,764.31,894.57,891.2a1.51,1.51,0,0,0,.56,2.9,1.55,1.55,0,0,0,.56-.11l314-126.9a1.5,1.5,0,0,0-1.13-2.78Z"/><path d="M1225.35,721.18,933.86,849.5a1.5,1.5,0,0,0,.6,2.87,1.41,1.41,0,0,0,.6-.13l291.5-128.31a1.5,1.5,0,0,0-1.21-2.75Z"/><path d="M1237.84,679.22,970.45,806a1.5,1.5,0,1,0,1.29,2.71l267.39-126.79a1.49,1.49,0,0,0,.71-2A1.51,1.51,0,0,0,1237.84,679.22Z"/><path d="M1245.85,638.89,1004,761.23a1.5,1.5,0,0,0-.67,2,1.48,1.48,0,0,0,2,.66l241.9-122.33a1.5,1.5,0,1,0-1.36-2.68Z"/><path d="M1251.32,601.25a1.49,1.49,0,0,0-2-.62L1034,715.63a1.5,1.5,0,0,0,.71,2.82,1.42,1.42,0,0,0,.71-.18l215.29-115A1.49,1.49,0,0,0,1251.32,601.25Z"/><path d="M1059.68,671.76a1.52,1.52,0,0,0,1.31.77,1.47,1.47,0,0,0,.73-.19l187.87-104.86a1.51,1.51,0,0,0,.58-2,1.49,1.49,0,0,0-2-.58L1060.26,669.72A1.51,1.51,0,0,0,1059.68,671.76Z"/><path d="M1081.89,626.05a1.5,1.5,0,0,0,2,.55l159.93-92a1.5,1.5,0,0,0-1.49-2.6l-159.93,92A1.5,1.5,0,0,0,1081.89,626.05Z"/><path d="M1099.78,581a1.5,1.5,0,0,0,2,.55l131.78-76.66a1.51,1.51,0,0,0,.54-2,1.49,1.49,0,0,0-2.05-.54L1100.32,579A1.49,1.49,0,0,0,1099.78,581Z"/><path d="M1114.43,537.91a1.51,1.51,0,0,0,.74-.19l103.73-58.9a1.5,1.5,0,0,0-1.48-2.61l-103.73,58.9a1.5,1.5,0,0,0,.74,2.8Z"/><path d="M1121.79,494.91a1.49,1.49,0,0,0,1.33.82,1.44,1.44,0,0,0,.69-.17l76.07-38.95a1.5,1.5,0,1,0-1.36-2.67l-76.08,38.95A1.5,1.5,0,0,0,1121.79,494.91Z"/><path d="M1125.64,454.67a1.49,1.49,0,0,0,1.41,1,1.62,1.62,0,0,0,.49-.08l49.14-17.05a1.5,1.5,0,1,0-1-2.83l-49.14,17A1.49,1.49,0,0,0,1125.64,454.67Z"/><path d="M1125.77,418.14l23.2,6.6a1.4,1.4,0,0,0,.41.05,1.5,1.5,0,0,0,.41-2.94l-23.2-6.6a1.5,1.5,0,0,0-.82,2.89Z"/><path d="M1119,415.4h.07a1.5,1.5,0,0,0,1.5-1.43l1.45-31.71a1.51,1.51,0,0,0-1.43-1.57,1.53,1.53,0,0,0-1.57,1.43l-1.45,31.71A1.5,1.5,0,0,0,1119,415.4Z"/><path d="M1085,410.44a1.5,1.5,0,0,0,2-.8l24.54-58a1.5,1.5,0,1,0-2.77-1.17l-24.54,58A1.51,1.51,0,0,0,1085,410.44Z"/><path d="M1048.55,410.14a1.5,1.5,0,0,0,2-.61l45.83-85.22a1.5,1.5,0,0,0-2.65-1.42l-45.82,85.22A1.49,1.49,0,0,0,1048.55,410.14Z"/><path d="M1009.8,414.49a1.52,1.52,0,0,0,.74.2,1.49,1.49,0,0,0,1.3-.75l65.07-113a1.5,1.5,0,0,0-2.6-1.5l-65.07,113A1.51,1.51,0,0,0,1009.8,414.49Z"/><path d="M969.09,423.41a1.46,1.46,0,0,0,.75.2,1.49,1.49,0,0,0,1.3-.74l82.05-141.16a1.5,1.5,0,0,0-2.59-1.51L968.54,421.36A1.5,1.5,0,0,0,969.09,423.41Z"/><path d="M926.85,436.81a1.55,1.55,0,0,0,.75.19,1.5,1.5,0,0,0,1.3-.75L1025.5,267a1.5,1.5,0,0,0-2.61-1.48l-96.6,169.27A1.5,1.5,0,0,0,926.85,436.81Z"/><path d="M883.55,454.52a1.47,1.47,0,0,0,.73.19,1.49,1.49,0,0,0,1.31-.78L994.13,256.86a1.5,1.5,0,1,0-2.62-1.45L883,452.48A1.51,1.51,0,0,0,883.55,454.52Z"/><path d="M839.66,476.36a1.44,1.44,0,0,0,.69.17,1.5,1.5,0,0,0,1.33-.8L959.44,251.47a1.5,1.5,0,0,0-2.66-1.39L839,474.33A1.51,1.51,0,0,0,839.66,476.36Z"/><path d="M795.64,502.08a1.44,1.44,0,0,0,.67.16,1.5,1.5,0,0,0,1.34-.84L921.79,250.88a1.5,1.5,0,1,0-2.68-1.33L795,500.07A1.5,1.5,0,0,0,795.64,502.08Z"/><path d="M752,531.4a1.41,1.41,0,0,0,.63.14,1.49,1.49,0,0,0,1.36-.87L881.61,255.08a1.5,1.5,0,0,0-2.73-1.26L751.26,529.41A1.5,1.5,0,0,0,752,531.4Z"/><path d="M709.18,564a1.37,1.37,0,0,0,.59.13,1.5,1.5,0,0,0,1.38-.91L839.32,264a1.5,1.5,0,0,0-2.76-1.18L708.39,562A1.5,1.5,0,0,0,709.18,564Z"/><path d="M667.69,599.53a1.47,1.47,0,0,0,.54.1,1.5,1.5,0,0,0,1.4-1l125.77-321a1.5,1.5,0,0,0-2.8-1.1l-125.76,321A1.51,1.51,0,0,0,667.69,599.53Z"/><path d="M628,637.58a1.43,1.43,0,0,0,.5.09,1.48,1.48,0,0,0,1.41-1l120.45-340.9a1.5,1.5,0,1,0-2.83-1L627,635.67A1.5,1.5,0,0,0,628,637.58Z"/><path d="M590.43,677.76a1.74,1.74,0,0,0,.45.06,1.5,1.5,0,0,0,1.43-1.05L704.58,318.2a1.5,1.5,0,0,0-2.87-.9L589.45,675.88A1.5,1.5,0,0,0,590.43,677.76Z"/><path d="M555.53,719.6a1.32,1.32,0,0,0,.39.06,1.51,1.51,0,0,0,1.45-1.11l101.3-373.87a1.5,1.5,0,1,0-2.89-.78L554.47,717.76A1.5,1.5,0,0,0,555.53,719.6Z"/><path d="M523.62,762.67a1.84,1.84,0,0,0,.33,0,1.5,1.5,0,0,0,1.46-1.16l87.7-386.61a1.5,1.5,0,1,0-2.92-.66l-87.71,386.6A1.51,1.51,0,0,0,523.62,762.67Z"/><path d="M495.05,806.47l.27,0a1.5,1.5,0,0,0,1.48-1.24l71.59-396.64a1.5,1.5,0,0,0-2.95-.53l-71.6,396.64A1.5,1.5,0,0,0,495.05,806.47Z"/><path d="M470.16,850.55h.19a1.5,1.5,0,0,0,1.49-1.31L525,445.37a1.5,1.5,0,1,0-3-.39L468.87,848.86A1.5,1.5,0,0,0,470.16,850.55Z"/><path d="M449.2,894.4h.12a1.49,1.49,0,0,0,1.49-1.38l32.61-408.24a1.5,1.5,0,0,0-3-.24L447.82,892.78A1.5,1.5,0,0,0,449.2,894.4Z"/><path d="M432.4,937.55h0a1.5,1.5,0,0,0,1.5-1.46l10.15-409.66a1.5,1.5,0,1,0-3-.08L430.94,936A1.51,1.51,0,0,0,432.4,937.55Z"/><path d="M419.91,979.53h0a1.5,1.5,0,0,0,1.45-1.55l-14-408.14a1.52,1.52,0,0,0-1.55-1.45,1.5,1.5,0,0,0-1.45,1.55l14,408.14A1.49,1.49,0,0,0,419.91,979.53Z"/><path d="M411.87,1019.88H412a1.5,1.5,0,0,0,1.34-1.64L373.91,614.55a1.5,1.5,0,1,0-3,.29l39.45,403.68A1.5,1.5,0,0,0,411.87,1019.88Z"/><path d="M406.92,1056.9a1.5,1.5,0,0,0,1.48,1.25,1.1,1.1,0,0,0,.25,0,1.49,1.49,0,0,0,1.23-1.72L343.82,660.06a1.5,1.5,0,0,0-3,.49Z"/><path d="M408.08,1092.79a1.5,1.5,0,0,0,1.46,1.15,1.45,1.45,0,0,0,.35,0,1.51,1.51,0,0,0,1.11-1.81L317.52,705.88a1.5,1.5,0,0,0-2.92.7Z"/><path d="M818.26,1182.09,419.15,1125a1.49,1.49,0,0,0-1.69,1.27,1.25,1.25,0,0,0,0,.51l-1.26-.28a1.48,1.48,0,0,0,.48-1.62L295.29,751.5a1.5,1.5,0,0,0-2.86.93l117.46,361.2L277.36,796.42a1.5,1.5,0,1,0-2.76,1.16l131.72,315.29L264,840.15a1.5,1.5,0,0,0-2.66,1.39l141.33,270.72-147.43-230a1.5,1.5,0,0,0-2.52,1.62l146.07,227.92L251.18,922.16a1.5,1.5,0,0,0-2.36,1.84l145.82,187.38L252,959.54a1.5,1.5,0,0,0-2.19,2.05l140.48,149.52L257.54,993.94a1.5,1.5,0,0,0-2,2.25l130,114.77-117.74-86a1.5,1.5,0,0,0-1.77,2.43L380.5,1111l-97.76-58.6a1.5,1.5,0,1,0-1.54,2.57L375,1111.19l-72.92-35.43a1.5,1.5,0,1,0-1.31,2.7l68.27,33.17L325.7,1094.9a1.5,1.5,0,1,0-1.08,2.8l38,14.65-9.3-2.76a1.5,1.5,0,0,0-.85,2.88l30.34,9a1.51,1.51,0,0,0,1.14,1.13l9.83,2.13,3.91,1.16,3.53,1.36,3.2,1.55,2.89,1.74,2.64,1.92,2.4,2.12,2.18,2.32,2,2.55,1.8,2.8,1.62,3.1,4.27,10.24a1.5,1.5,0,0,0,1.39.92h.16l13.2,25.3a1.5,1.5,0,0,0,1.33.8,1.45,1.45,0,0,0,.7-.17,1.49,1.49,0,0,0,.63-2l-5-9.67,21.41,33.41a1.48,1.48,0,0,0,1.26.69,1.5,1.5,0,0,0,1.26-2.31l-23.8-37.14,44.37,57a1.48,1.48,0,0,0,1.18.58,1.45,1.45,0,0,0,.92-.32,1.49,1.49,0,0,0,.26-2.1l-46.77-60.1,71.31,75.89a1.49,1.49,0,0,0,1.09.47,1.47,1.47,0,0,0,1-.41,1.5,1.5,0,0,0,.06-2.12l-73.68-78.41,101.92,90a1.5,1.5,0,0,0,1,.38,1.53,1.53,0,0,0,1.13-.51,1.51,1.51,0,0,0-.14-2.12l-104.21-92L572,1250.76a1.5,1.5,0,1,0,1.77-2.42l-138-100.77,172.66,103.5a1.46,1.46,0,0,0,.77.22,1.5,1.5,0,0,0,.77-2.79L435.17,1143.75l212,103a1.55,1.55,0,0,0,.66.15,1.5,1.5,0,0,0,.65-2.85l-214-104L688,1237.89a1.47,1.47,0,0,0,.54.1,1.5,1.5,0,0,0,1.4-1,1.51,1.51,0,0,0-.86-1.94l-255.42-98.53,296.7,88a1.52,1.52,0,0,0,.42.06,1.5,1.5,0,0,0,.43-2.94l-298.57-88.53,341.15,73.74a1.63,1.63,0,0,0,.31,0,1.5,1.5,0,0,0,.32-3l-343.09-74.16,386.48,55.29.22,0a1.5,1.5,0,0,0,.21-3Z"/><path d="M862.21,1156.37l-405.49-30.82a1.5,1.5,0,1,0-.23,3L862,1159.37h.11a1.5,1.5,0,0,0,.12-3Z"/><path d="M905.8,1127.06l-409-5.75h0a1.49,1.49,0,0,0-1.5,1.47,1.51,1.51,0,0,0,1.48,1.53l409,5.75h0a1.49,1.49,0,0,0,1.5-1.47A1.51,1.51,0,0,0,905.8,1127.06Z"/><path d="M948.56,1094.48l-409.51,17.83a1.5,1.5,0,0,0,.06,3h.07l409.51-17.83a1.51,1.51,0,0,0,1.44-1.56A1.49,1.49,0,0,0,948.56,1094.48Z"/><path d="M990,1059l-407.11,39.68a1.5,1.5,0,0,0,.14,3h.15L990.31,1062a1.5,1.5,0,1,0-.29-3Z"/><path d="M1029.72,1021,627.93,1080.5a1.5,1.5,0,0,0,.22,3h.22l401.79-59.55a1.49,1.49,0,0,0,1.26-1.7A1.51,1.51,0,0,0,1029.72,1021Z"/><path d="M1067.23,980.81,673.62,1058a1.5,1.5,0,0,0,.29,3l.29,0,393.61-77.23a1.5,1.5,0,0,0-.58-2.94Z"/><path d="M1102.13,939l-382.65,92.52a1.5,1.5,0,0,0,.35,3,1.45,1.45,0,0,0,.35,0l382.65-92.52a1.5,1.5,0,1,0-.7-2.92Z"/></svg>