<svg id="Abstract_Shape" data-name="Abstract Shape" xmlns="http://www.w3.org/2000/svg" viewBox="0 0 1500 1500"><path d="M800.9,451.54,750,750l82.21-296Q816.71,452.5,800.9,451.54Z"/><path d="M871.3,458.89,750,750,906.78,465.05Q889.31,461.59,871.3,458.89Z"/><path d="M952.72,475.69,750,750,995.61,488.63Q974.76,481.57,952.72,475.69Z"/><path d="M1051.88,510.83,750,750l353.54-212.14A518.4,518.4,0,0,0,1051.88,510.83Z"/><path d="M1166.07,583.58,750,750l462.86-113.67A295.33,295.33,0,0,0,1166.07,583.58Z"/><path d="M1250,750a183.86,183.86,0,0,0-3.52-35.75L750,750l496.48,35.75A183.86,183.86,0,0,0,1250,750Z"/><path d="M1212.86,863.67,750,750l416.07,166.42A295.33,295.33,0,0,0,1212.86,863.67Z"/><path d="M1103.54,962.14,750,750l301.88,239.17A518.4,518.4,0,0,0,1103.54,962.14Z"/><path d="M995.61,1011.37,750,750l202.72,274.31Q974.74,1018.45,995.61,1011.37Z"/><path d="M906.78,1035,750,750l121.3,291.11Q889.3,1038.41,906.78,1035Z"/><path d="M832.21,1046,750,750l50.9,298.46Q816.71,1047.5,832.21,1046Z"/><path d="M750,1050q7.53,0,15-.14L750,750l-15,299.86Q742.48,1050,750,1050Z"/><path d="M699.1,1048.46,750,750l-82.21,296Q683.29,1047.51,699.1,1048.46Z"/><path d="M628.7,1041.11,750,750,593.22,1035Q610.69,1038.42,628.7,1041.11Z"/><path d="M547.28,1024.31,750,750,504.39,1011.37Q525.24,1018.44,547.28,1024.31Z"/><path d="M448.12,989.17,750,750,396.46,962.14A518.4,518.4,0,0,0,448.12,989.17Z"/><path d="M333.93,916.42,750,750,287.14,863.67A295.33,295.33,0,0,0,333.93,916.42Z"/><path d="M250,750a183.86,183.86,0,0,0,3.52,35.75L750,750,253.52,714.25A183.86,183.86,0,0,0,250,750Z"/><path d="M287.14,636.33,750,750,333.93,583.58A295.33,295.33,0,0,0,287.14,636.33Z"/><path d="M396.46,537.86,750,750,448.12,510.83A518.4,518.4,0,0,0,396.46,537.86Z"/><path d="M504.39,488.63,750,750,547.28,475.69Q525.26,481.56,504.39,488.63Z"/><path d="M593.22,465.05,750,750,628.7,458.89Q610.7,461.59,593.22,465.05Z"/><path d="M667.79,454,750,750,699.1,451.54Q683.29,452.5,667.79,454Z"/><path d="M750,450q-7.53,0-15,.14L750,750l15-299.86Q757.52,450,750,450Z"/></svg>