<svg id="Abstract_Shape" data-name="Abstract Shape" xmlns="http://www.w3.org/2000/svg" viewBox="0 0 1500 1500"><path d="M750,907.17c0,79.33-144.7,105.25-269,109.13-82.72,2.58-331,2.76-331,2.76s248.29.17,331,2.75c124.29,3.88,269,29.81,269,109.13,0-79.32,144.7-105.25,269-109.13,82.72-2.58,331-2.75,331-2.75s-248.29-.18-331-2.76C894.7,1012.42,750,986.5,750,907.17Z"/><path d="M750,645.28c0,79.33-144.7,105.25-269,109.13-82.72,2.58-331,2.76-331,2.76s248.29.18,331,2.76c124.29,3.87,269,29.8,269,109.13,0-79.33,144.7-105.26,269-109.13,82.72-2.58,331-2.76,331-2.76s-248.29-.18-331-2.76C894.7,750.53,750,724.61,750,645.28Z"/><path d="M750,592.83c0-79.33,144.7-105.25,269-109.13,82.72-2.58,331-2.76,331-2.76s-248.29-.17-331-2.75c-124.29-3.88-269-29.81-269-109.13,0,79.32-144.7,105.25-269,109.13-82.72,2.58-331,2.75-331,2.75s248.29.18,331,2.76C605.3,487.58,750,513.5,750,592.83Z"/></svg>