<svg id="Abstract_Shape" data-name="Abstract Shape" xmlns="http://www.w3.org/2000/svg" viewBox="0 0 1500 1500"><path d="M750,477.27a45.46,45.46,0,1,0,45.45,45.46A45.46,45.46,0,0,0,750,477.27Z"/><path d="M886.36,513.81A45.45,45.45,0,1,0,903,575.9,45.45,45.45,0,0,0,886.36,513.81Z"/><path d="M924.1,597a45.45,45.45,0,1,0,62.09,16.64A45.45,45.45,0,0,0,924.1,597Z"/><path d="M977.27,704.55A45.45,45.45,0,1,0,1022.73,750,45.45,45.45,0,0,0,977.27,704.55Z"/><path d="M924.1,903a45.45,45.45,0,1,0-16.64-62.09A45.45,45.45,0,0,0,924.1,903Z"/><path d="M824.27,969.55a45.45,45.45,0,1,0,16.64-62.09A45.45,45.45,0,0,0,824.27,969.55Z"/><path d="M750,931.82a45.46,45.46,0,1,0,45.45,45.45A45.46,45.46,0,0,0,750,931.82Z"/><path d="M613.64,986.19A45.45,45.45,0,1,0,597,924.1,45.45,45.45,0,0,0,613.64,986.19Z"/><path d="M575.9,903a45.45,45.45,0,1,0-62.09-16.64A45.45,45.45,0,0,0,575.9,903Z"/><path d="M477.27,750a45.46,45.46,0,1,0,45.46-45.45A45.45,45.45,0,0,0,477.27,750Z"/><path d="M592.54,659.09a45.45,45.45,0,1,0-62.09,16.64A45.45,45.45,0,0,0,592.54,659.09Z"/><path d="M675.73,530.45a45.45,45.45,0,1,0-16.64,62.09A45.45,45.45,0,0,0,675.73,530.45Z"/><path d="M1136.36,750a45.46,45.46,0,1,0-45.45,45.45A45.45,45.45,0,0,0,1136.36,750Z"/><path d="M1113.06,882.14a45.45,45.45,0,1,0-58.26,27.17A45.45,45.45,0,0,0,1113.06,882.14Z"/><path d="M981.93,1004a45.46,45.46,0,1,0-5.6-64A45.45,45.45,0,0,0,981.93,1004Z"/><circle cx="920.45" cy="1045.24" r="45.45"/><path d="M854,1077.84a45.46,45.46,0,1,0-36.87,52.65A45.45,45.45,0,0,0,854,1077.84Z"/><path d="M735.57,1093.62a45.46,45.46,0,1,0-52.66,36.87A45.46,45.46,0,0,0,735.57,1093.62Z"/><circle cx="579.55" cy="1045.24" r="45.45"/><path d="M518.07,1004a45.46,45.46,0,1,0-64-5.6A45.46,45.46,0,0,0,518.07,1004Z"/><path d="M445.2,909.31a45.46,45.46,0,1,0-58.26-27.17A45.45,45.45,0,0,0,445.2,909.31Z"/><circle cx="409.09" cy="750" r="45.45"/><path d="M386.94,617.86a45.45,45.45,0,1,0,58.26-27.17A45.45,45.45,0,0,0,386.94,617.86Z"/><path d="M518.07,496.05a45.46,45.46,0,1,0,5.6,64A45.45,45.45,0,0,0,518.07,496.05Z"/><circle cx="579.55" cy="454.76" r="45.45" transform="translate(-113.76 703.77) rotate(-57.88)"/><path d="M646,422.16a45.46,45.46,0,1,0,36.87-52.65A45.45,45.45,0,0,0,646,422.16Z"/><path d="M764.43,406.38a45.46,45.46,0,1,0,52.66-36.87A45.46,45.46,0,0,0,764.43,406.38Z"/><path d="M881.09,432a45.45,45.45,0,1,0,62.09-16.64A45.45,45.45,0,0,0,881.09,432Z"/><path d="M981.93,496.05a45.46,45.46,0,1,0,64,5.6A45.46,45.46,0,0,0,981.93,496.05Z"/><path d="M1027.64,649a45.45,45.45,0,1,0,27.16-58.26A45.46,45.46,0,0,0,1027.64,649Z"/><path d="M750,1159.09a45.46,45.46,0,1,0,45.45,45.46A45.46,45.46,0,0,0,750,1159.09Z"/><path d="M644.12,1145.15a45.45,45.45,0,1,0,32.14,55.67A45.45,45.45,0,0,0,644.12,1145.15Z"/><path d="M545.45,1104.28a45.45,45.45,0,1,0,16.64,62.1A45.45,45.45,0,0,0,545.45,1104.28Z"/><circle cx="428.59" cy="1071.41" r="45.45"/><circle cx="356.35" cy="977.27" r="45.45" transform="translate(-665.55 1171.63) rotate(-80.73)"/><path d="M322.71,911.55A45.45,45.45,0,1,0,267,879.41,45.45,45.45,0,0,0,322.71,911.55Z"/><path d="M340.91,750a45.46,45.46,0,1,0-45.46,45.45A45.45,45.45,0,0,0,340.91,750Z"/><path d="M299.18,676.26A45.45,45.45,0,1,0,267,620.59,45.45,45.45,0,0,0,299.18,676.26Z"/><path d="M333.62,562.09A45.46,45.46,0,1,0,317,500,45.46,45.46,0,0,0,333.62,562.09Z"/><circle cx="428.59" cy="428.59" r="45.45"/><circle cx="522.73" cy="356.35" r="45.45" transform="translate(147.05 865.37) rotate(-87.85)"/><path d="M644.12,354.85a45.45,45.45,0,1,0-55.67-32.14A45.45,45.45,0,0,0,644.12,354.85Z"/><path d="M750,340.91a45.46,45.46,0,1,0-45.46-45.46A45.45,45.45,0,0,0,750,340.91Z"/><path d="M855.88,354.85a45.45,45.45,0,1,0-32.14-55.67A45.45,45.45,0,0,0,855.88,354.85Z"/><path d="M954.54,395.72a45.46,45.46,0,1,0-16.63-62.1A45.46,45.46,0,0,0,954.54,395.72Z"/><circle cx="1071.41" cy="428.59" r="45.45"/><path d="M1104.28,545.45a45.45,45.45,0,1,0,16.64-62.09A45.46,45.46,0,0,0,1104.28,545.45Z"/><path d="M1177.29,588.45A45.45,45.45,0,1,0,1233,620.59,45.45,45.45,0,0,0,1177.29,588.45Z"/><path d="M1204.54,704.55A45.45,45.45,0,1,0,1250,750,45.45,45.45,0,0,0,1204.54,704.55Z"/><path d="M1200.82,823.74A45.45,45.45,0,1,0,1233,879.41,45.45,45.45,0,0,0,1200.82,823.74Z"/><path d="M1166.38,937.91A45.46,45.46,0,1,0,1183,1000,45.46,45.46,0,0,0,1166.38,937.91Z"/><circle cx="1071.41" cy="1071.41" r="45.45"/><path d="M954.54,1104.28a45.46,45.46,0,1,0,62.1,16.64A45.46,45.46,0,0,0,954.54,1104.28Z"/><path d="M855.88,1145.15a45.45,45.45,0,1,0,55.67,32.14A45.45,45.45,0,0,0,855.88,1145.15Z"/></svg>