<svg id="Abstract_Shape" data-name="Abstract Shape" xmlns="http://www.w3.org/2000/svg" viewBox="0 0 1500 1500"><path d="M1212.09,554.79A503.17,503.17,0,1,0,1251.5,750,499.68,499.68,0,0,0,1212.09,554.79Zm-59.26,489q-14.64,20-31.31,38.61a306.34,306.34,0,0,0,41.84-79.18c17.34-48.47,24.09-102.19,20.05-159.65S1164.76,727.84,1140,670.31c-25.63-59.54-61.09-115.66-105.38-166.8s-94.77-94.25-150-128.12a556.84,556.84,0,0,0-106.94-51.2q17.63,4.17,35.23,9.57C875,352.84,934.16,382.6,988.6,422.23s100.93,86.74,138.18,140c36,51.46,61.86,106.49,77,163.56s18.6,113.24,10.48,167c-8.41,55.66-29,106.3-61.18,150.52A1.25,1.25,0,0,0,1152.83,1043.78ZM856,1237.24c31-18.47,52.69-73.39,61.87-158,10.63-98.06,3.3-224.5-20.64-356S835.58,470.76,791.08,382.73A529,529,0,0,0,758.92,327c77,72.13,151.63,203.88,197.67,363.35,76.24,264.09,45.58,505.7-68.33,538.58a1.59,1.59,0,0,0-.57.32Q872,1233.78,856,1237.24Zm-53.47,8.54c7.17-6,13.4-19.07,18.58-39,6.73-26,11.59-62.68,14.44-109.12,5.86-95.39,2.63-221.24-9.11-354.35s-30.56-257.57-53-350.47c-6.12-25.34-12.33-47.55-18.58-66.48a512.52,512.52,0,0,1,33.6,57.77c44.37,87.78,82,208.41,105.85,339.67s31.2,257.4,20.6,355.18c-5.14,47.45-14.23,85.6-27,113.38-13.08,28.45-29.43,44.65-48.6,48.14a1.31,1.31,0,0,0-.52.2Q820.76,1243.88,802.5,1245.78Zm-51,2.71c0-12.2,0-99.4,0-248.49V500c0-73.67,0-132.22,0-174.09,6.35,19.11,12.73,41.73,19,67.59,22.43,92.75,41.23,217.06,53,350s15,258.65,9.1,353.89c-5.72,93.12-19.85,147.49-38.75,149.15a1.6,1.6,0,0,0-.33.07Q772.61,1248.44,751.5,1248.49Zm-45-1.85a1.6,1.6,0,0,0-.33-.07c-12.2-1.07-22.94-25.5-30.23-68.78-7.51-44.58-11.43-108.37-11.33-184.47.2-154.71,17-345.46,43.89-497.81C720.76,426.3,734.5,368,748.49,326v922.49Q727.38,1248.43,706.55,1246.64Zm-45.28-6a1.31,1.31,0,0,0-.52-.2c-51.13-9.31-81.87-111.78-80.21-267.44C582.2,816.73,616.47,628.43,670,481.59c23.51-64.52,49.27-117.13,75.11-155C731.43,367.92,718,425,705.6,495c-26.9,152.51-43.74,343.46-43.94,498.32-.18,141.58,13.09,233.19,36,252.48Q679.32,1243.89,661.27,1240.65Zm-49-11.39a1.59,1.59,0,0,0-.57-.32c-36-10.39-65.2-42.71-84.45-93.47-19.35-51-28.1-119.24-25.29-197.23,5.72-158.62,58.78-342.42,138.47-479.69,31.47-54.19,65.87-99.05,100.77-131.65-25.88,38.43-51.27,91-74.09,153.66C613.54,627.7,579.2,816.38,577.54,973c-.82,77.15,6.31,142.93,20.63,190.21,11.39,37.6,27.12,62.78,46.07,74.1Q628.15,1233.81,612.31,1229.26ZM347,1043.38C305.18,986,282.6,915.75,281.68,840.33S301.54,686.22,341.8,613s98.92-139.27,169.6-190.72c64.11-46.67,136.51-80.24,210.71-97.87a535.71,535.71,0,0,0-54.6,22.69C592.78,383,522.89,437.1,465.38,503.51S364.3,646.83,339.4,725.92s-30.48,158.31-16.09,229c9.87,48.44,28.94,91.95,56,128.47a502.63,502.63,0,0,1-32.16-39.56A1.25,1.25,0,0,0,347,1043.38Zm-.33-586.44a1.43,1.43,0,0,0,.33-.32C379.16,412.4,421,377.25,471.41,352.15c48.7-24.26,103.26-38.18,162.17-41.35a490.92,490.92,0,0,1,82.77,2.6q-9.6-.27-19.22-.2c-63.48.46-124.31,11.7-180.81,33.43S410.46,399.5,369.68,439.16a380.32,380.32,0,0,0-52.31,62.95A494.9,494.9,0,0,1,346.64,456.94ZM494.3,322a1.42,1.42,0,0,0,.52-.19c38.22-22.77,82-33.59,130.23-32.13,32.4,1,65.83,7.45,99.82,19.28-1.85-.42-3.7-.84-5.55-1.24-56.3-12.21-110.43-13.21-160.88-3a306,306,0,0,0-85.11,30.51Q483.64,328.32,494.3,322Zm116.8-50.86a1.39,1.39,0,0,0,.64,0c38.2-11,81,2.8,123.85,36a288.06,288.06,0,0,0-63.54-25.25c-28.45-7.34-55.51-8.82-80.87-4.48Q601.08,274,611.1,271.09Zm49.08-11.54a1.56,1.56,0,0,0,.57,0c19.16-3.48,40.17,5.91,62.43,27.93a223.25,223.25,0,0,1,17.69,19.87,247.39,247.39,0,0,0-37-24.68c-23.34-12.53-45.72-18.65-66.84-18.35Q648.56,261.67,660.18,259.55Zm45.69-6.14a1.37,1.37,0,0,0,.35,0c11.7-1,25.12,18.14,38.85,54.36-23.18-29.8-46-47.21-67.39-51.1Q691.69,254.65,705.87,253.41Zm79.27-.69c-10.85,6.31-22.25,25.38-33.65,55.67,0-32.29,0-51.6,0-56.88Q768.41,251.56,785.14,252.72Zm37.39,4c-21.25,3.9-44.3,21.31-67.66,51.3,13.79-36.28,27.48-55.59,38.91-54.59a1.35,1.35,0,0,0,.35,0Q808.41,254.66,822.53,256.72Zm40.77,7.69c-30.5-.42-63.93,12.55-98.12,38.34-2,1.5-4,3.06-6,4.64,28-35.12,55.59-52.29,80-47.84a1.51,1.51,0,0,0,.56,0Q851.62,261.7,863.3,264.41Zm46.07,13.1c-37.12-6.37-78.22-.34-120.78,18q-12.11,5.22-24.27,11.71l2.66-2c43.35-32.7,85.28-44.49,121.28-34.09a1.39,1.39,0,0,0,.64,0Q899.19,274.08,909.37,277.51ZM1005.7,322q11.22,6.72,22.08,14c-40.2-21.85-86.28-34.66-136-37.53-37.67-2.17-76.87,1.4-116.39,10.45a363.85,363.85,0,0,1,54-14.28c65.33-11.8,126.1-2.4,175.74,27.17A1.42,1.42,0,0,0,1005.7,322ZM1153,456.62a1.43,1.43,0,0,0,.33.32,495.55,495.55,0,0,1,30.51,47.35,392.73,392.73,0,0,0-95.53-100.6c-63.07-46.63-140.95-76.58-225.22-86.62a544.38,544.38,0,0,0-80.07-3.52c69-8.07,136.35-1.8,196.81,18.54C1051.35,356.14,1111.23,399.2,1153,456.62ZM748.5,308.33q-4.21-11.25-8.43-20.45c-8.58-18.73-17-30.49-25.08-35.17q16.66-1.16,33.51-1.2Zm-325,65,.17-.12c38.07-33,83.62-55,135.38-65.53,50-10.15,103.75-9.15,159.64,3l.47.11a495.19,495.19,0,0,0-85.73-2.91C574.09,311,519.14,325,470.08,349.46a351.54,351.54,0,0,0-71.93,47.42Q410.45,384.61,423.49,373.29Zm.17,753.54c-49.45-42.82-83.13-102.49-97.41-172.56s-8.76-148.8,16-227.45S410.4,571.58,467.65,505.47s126.8-119.94,201.16-155.72A533,533,0,0,1,726.57,326a533.87,533.87,0,0,0-96.32,61c-64,50.44-121.55,117-166.51,192.43s-76.07,157.75-90,238-10.23,156.44,10.68,220.09c15.18,46.23,39.14,85,70.31,114.21Q438.84,1140,423.82,1127A1.29,1.29,0,0,0,423.66,1126.83Zm71.16,51.41c-49.63-29.58-86.82-78.56-107.53-141.63S362.88,897.81,376.71,818s44.84-161.86,89.61-237,102.1-141.39,165.79-191.6c32.27-25.45,65.73-46.4,99.4-62.43-37.13,24.88-73.8,58.11-108.22,98.3-52,60.67-97.38,135.54-131.35,216.5S436.38,807.56,429.5,887.14,430.64,1039,452.74,1096c16.72,43.12,41.16,76.63,71.64,98.66q-14.86-7.55-29.14-16A1.51,1.51,0,0,0,494.82,1178.24Zm62.32,31.44c-44.61-18.71-79.74-58.4-101.6-114.77-21.93-56.55-29.91-128.3-23.06-207.51s28.38-163.83,62.22-244.51,79.11-155.27,130.87-215.71c35.29-41.2,72.93-75,111-100C702.35,359.76,668.7,404,637.88,457.05,558,594.71,504.74,779.05,499,938.13c-2.82,78.39,6,147,25.49,198.4,15.19,40,36.56,68.85,62.6,84.75q-14.87-5.15-29.45-11.26A1.58,1.58,0,0,0,557.14,1209.68ZM960.06,1170c17.88-31.52,30.19-72.76,36.59-122.59,13.12-102.27-.08-229.37-37.18-357.88S865.81,446.44,800.2,366.9a457,457,0,0,0-36.7-39.74q15.13,10,30.29,21.85c84.82,66.59,159.93,171,211.51,293.88s73.41,249.64,61.49,356.82c-5.78,52-19.22,96.59-39.94,132.45-21.39,37-49.65,63.11-84,77.52a1.58,1.58,0,0,0-.5.34q-14.42,6-29.09,11.13C931.3,1210.16,947,1193,960.06,1170Zm69.39-36.33c20.92-36.23,34.49-81.19,40.32-133.63,12-107.67-9.94-234.92-61.71-358.31S880.86,413.55,795.64,346.65q-13.5-10.61-27-19.67l1.23.58C871.78,376.49,965.46,466.48,1033.68,581S1136.45,820.67,1131,933.58c-2.66,54.83-14.63,103.76-35.58,145.42-21.65,43.07-52,76.46-90.23,99.24a1.51,1.51,0,0,0-.42.37q-14,8.36-28.63,15.78C996.93,1179.35,1014.79,1159,1029.45,1133.67Zm68.64-53.32c21.14-42,33.22-91.38,35.89-146.63,5.5-113.49-29.21-239.31-97.72-354.29C968.18,465.18,874.81,375.2,773.14,325.81A553.23,553.23,0,0,1,883,377.94c55,33.72,105.25,76.63,149.33,127.53s79.38,106.77,104.89,166c24.64,57.22,39.16,115.18,43.18,172.27s-2.68,110.35-19.88,158.42c-17.79,49.73-46.12,91.67-84.2,124.64a1.29,1.29,0,0,0-.16.17q-14.65,12.72-30.19,24.2C1066.76,1131.67,1084.2,1108,1098.09,1080.35ZM862.76,320.05c83.76,10,161.15,39.73,223.8,86.06s108.8,107.88,133.56,178.1a1.67,1.67,0,0,0,.35.55,492.84,492.84,0,0,1,19.46,72.55,401.89,401.89,0,0,0-55.67-124.66c-44-65.95-107.45-120.94-183.59-159-66.11-33.05-140.19-52.57-216.11-57.13A541.25,541.25,0,0,1,862.76,320.05Zm240.49,78.22c-34.87-30.06-76.24-53.48-122.43-69-61.62-20.74-130.35-26.95-200.66-18.36,37.87-8.32,75.39-11.56,111.48-9.47,71.4,4.12,135.26,28.93,184.7,71.75l.17.12q13.37,11.61,26,24.22Zm-140-99C922.57,285.64,877,283,828.9,291.64a367.9,367.9,0,0,0-59,16c6.63-3.41,13.25-6.56,19.86-9.4,55.53-23.9,108.47-26.64,153.08-7.92a1.42,1.42,0,0,0,.6.11c.19.09.39.16.58.24Q953.73,294.78,963.22,299.27ZM556,290.67l.58-.24a1.42,1.42,0,0,0,.6-.11c34.34-14.41,72.75-16.3,114.16-5.62a282.38,282.38,0,0,1,59,22.94c-35.8-12.93-71-20-105.12-21-31.08-.93-60.37,3.19-87.55,12.26Q546.68,294.62,556,290.67ZM279.53,584.75a1.53,1.53,0,0,0,.35-.54c19.07-54.08,50-102.15,91.89-142.9,40.49-39.38,89.49-70.29,145.63-91.88S634,316.65,697.15,316.2q9.89-.07,19.77.22c-76.43,4.39-151,23.95-217.59,57.22-76.14,38.07-139.62,93.06-183.59,159a401.89,401.89,0,0,0-55.67,124.66A493,493,0,0,1,279.53,584.75Zm38.71-50.43c43.67-65.53,106.76-120.16,182.43-158,66-33,139.93-52.42,215.7-56.87a584.19,584.19,0,0,0-108.7,27c-82.87,29.22-158,76.73-217.34,137.39S289.13,616.66,269.27,692.54A392.49,392.49,0,0,0,258,830.71,503.34,503.34,0,0,1,251.5,750C251.5,674.39,274.58,599.81,318.24,534.32ZM280,916.42a1.51,1.51,0,0,0-.07-.63c-24.76-70.21-27.43-147.15-7.71-222.49S333.5,546.21,392.48,485.9,526.23,378.31,608.67,349.24a580.66,580.66,0,0,1,109.59-27c-73.48,17.92-145.11,51.36-208.62,97.59-71,51.71-130,118-170.47,191.7s-61.42,152.87-60.49,228.87c.6,49.26,10.38,96.32,28.65,139.11q-9-17.33-16.66-35.44Q284.9,930.36,280,916.42ZM1209.33,944q-7.27,17.19-15.76,33.71a351.23,351.23,0,0,0,23.6-84.44c8.19-54.2,4.64-110.81-10.54-168.25s-41.21-112.76-77.39-164.51C1091.79,507,1045.07,459.63,990.36,419.8s-114.12-69.73-176.61-88.91Q797.64,326,781.5,322a582.88,582.88,0,0,1,109.83,27.21c63.49,22.39,121.34,54.71,171.95,96.08,48.87,39.94,89,86.58,119.14,138.64s48.94,106.83,55.78,162.9c7.07,58,1,114.86-18.08,168.93a1.51,1.51,0,0,0-.07.63Q1215.1,930.36,1209.33,944Zm33.14-116.16a381.22,381.22,0,0,0-1.29-81.38c-6.89-56.47-25.78-111.67-56.17-164S1114.32,483.17,1065.18,443c-50.88-41.58-109-74.07-172.85-96.58a585.94,585.94,0,0,0-106.94-26.84c75.16,4.65,148.48,24,213.94,56.76,75.67,37.83,138.76,92.46,182.43,158S1248.5,674.39,1248.5,750A502.5,502.5,0,0,1,1242.47,827.88Z"/></svg>