<svg id="Abstract_Shape" data-name="Abstract Shape" xmlns="http://www.w3.org/2000/svg" viewBox="0 0 1500 1500"><path d="M1187.5,1184.51h65.1L1220,1128.13h0l-125-216.47h0L1063.8,857.5h0L970.06,695.14h0L938.81,641v0l-31.26-54.14h0l-46.87-81.19h0l-78.1-135.28h0L750,314l-32.54,56.35h0L655,478.61h0L498.71,749.23h0l-125,216.5h0l-62.41,108.11a1.28,1.28,0,0,0-.15.25L248.7,1182.26l-1.3,2.25h940.1Zm-61.4-3c-1.18-3.69-2.34-7.34-3.48-11-1.66-5.26-3.37-10.67-5.15-16.17,20.09,1.05,39.83,1.54,56.71,1.87,2.16,4.88,4.24,9.68,6.25,14.31,1.57,3.63,3.15,7.28,4.78,11Zm-62.39,0-.3-1.46c-1.93-9.08-3.93-18.47-6.66-28.76,9.47.51,19,1,28.29,1.42,9.56.47,19.44,1,29.22,1.48,1.91,5.85,3.73,11.63,5.49,17.23q1.59,5,3.2,10.09Zm-62.38,0a350.07,350.07,0,0,0-6.22-34.52c17.22,1.59,35.41,2.88,58.5,4.13,2.83,10.59,4.88,20.23,6.86,29.56l.18.83Zm-249.53,0c2.19-12.41,2.78-27.27,1.81-45.3,13.37.37,26.83.61,39.86.84l16.41.3c2.08,19.09,2.49,33.21,1.28,44.16Zm-62.39,0c2.81-12,4.15-27.23,4.18-47.46l16.41.63c13.34.52,27.12,1,40.6,1.44,1,18.17.38,33.05-1.85,45.39Zm-62.4,0c3.7-12.68,6-28.72,7.16-48.9,19.37.06,39.26.7,56.42,1.33,0,20.44-1.39,35.64-4.27,47.57Zm-62.4,0c5.25-15.19,8.45-33.24,10.88-49.23,9.32,0,18.79.09,28,.16s18.47.14,27.7.16c-1.13,20.32-3.52,36.36-7.29,48.91Zm-62.38,0a387.38,387.38,0,0,0,15.58-48.28c15.53-.68,32.51-1,54.65-1-2.46,16.09-5.7,34.21-11,49.23Zm-62.39,0,.89-1.93c6.63-14.47,13.48-29.41,19.38-45.31,22.07,0,39.07-.25,54.57-.91A379.11,379.11,0,0,1,499,1181.51Zm-62.41,0c3-6,6.14-12.1,9.14-18,4.92-9.63,10-19.59,14.88-29.57,9.43,0,19,.09,28.34.16,8.9.06,18.07.13,27.11.15-5.77,15.41-12.44,30-18.9,44.07l-1.46,3.18Zm-62.4,0c4-7.36,8.11-14.72,12.11-21.85,4.93-8.81,10-17.92,14.92-27.06,17,.62,36.77,1.25,56.06,1.34-4.68,9.52-9.52,19-14.22,28.21-3.23,6.33-6.57,12.87-9.82,19.36Zm-1.69-105.2c19.08,1.14,36.46,2,53,2.63-7.45,15.79-15.6,31-23.49,45.8l-2.56,4.79-17.1-.66c-12.95-.5-26.3-1-39.4-1.41Zm31.23-54.1c16.7,1.56,33.18,2.55,49,3-3.7,7.54-7.59,15-11.36,22.17-4.85,9.25-9.86,18.81-14.49,28.66-16.47-.62-33.77-1.47-52.74-2.59Zm31.23-54.09a326,326,0,0,0,44.74,2.79C415.7,981.62,410.41,992,405.26,1002c-3.38,6.58-6.86,13.38-10.2,20.23-15.78-.37-32.19-1.33-48.84-2.85ZM407,914a186.21,186.21,0,0,0,40.3,2.65c-3.11,6.35-6.34,12.66-9.49,18.77-5.36,10.44-10.89,21.22-15.92,32.45a321.64,321.64,0,0,1-44.49-2.6Zm31.23-54.09a126.41,126.41,0,0,0,36.36,3c-4.41,9.28-9.13,18.34-13.73,27.1-4,7.64-8.14,15.53-12.05,23.56a182.3,182.3,0,0,1-40.21-2.36Zm31.21-54.06c11.72,3.19,22.39,4.38,32.49,3.6l-1.71,3.19c-8.11,15.18-16.49,30.87-24.13,47.16a121.79,121.79,0,0,1-36.29-2.62Zm31.21-54.07c11.13,3.75,21,5.57,30,5.53-4,7.34-8.1,14.68-12.08,21.8-5,8.85-10.07,18-15,27.18-10.09,1-20.8,0-32.63-3.13Zm31.21-54c9.91,4,18.71,6.21,26.86,6.55-4.7,8.66-9.35,17.56-13.85,26.2-4.08,7.83-8.29,15.92-12.53,23.78-9,.29-18.89-1.4-30.15-5.14Zm31.21-54c9.21,4.59,17.37,7.52,24.85,8.91-8.73,14.16-17,29.28-25,43.93l-2.61,4.79c-8.07-.11-16.92-2.15-27-6.22Zm31.19-54a138.23,138.23,0,0,0,23.22,11.55c-4.23,7.11-8.36,14.51-12.35,21.69-5,9-10.14,18.24-15.53,26.94-7.45-1.24-15.67-4.11-25-8.76Zm31.17-54c7.78,5.72,15,10.56,21.89,14.71-6.1,9.47-11.86,19.61-17.44,29.43-3.52,6.21-7.16,12.61-10.85,18.79a134.2,134.2,0,0,1-23.27-11.53Zm31.16-54c7.24,6.49,14.17,12.53,20.63,18-3.71,6.2-7.35,12.61-10.88,18.83-5.57,9.81-11.32,19.94-17.39,29.35-7-4.17-14.18-9-22-14.8Zm31.15-54c6.83,7.52,13,14.33,18.89,20.72-5.4,8.73-10.55,18-15.54,26.95-4,7.17-8.11,14.56-12.32,21.64-6.47-5.46-13.4-11.51-20.64-18Zm31.13-53.91,17,23.23-2.6,4.76c-8,14.68-16.28,29.82-25,44-5.87-6.4-12.09-13.22-18.94-20.78ZM693.58,1131c-.12-18.73-1.85-39.91-3.53-58.61,16.6.63,34.06,1.49,53.25,2.63a575,575,0,0,1,7.13,58c-13.39-.39-27.06-.92-40.31-1.43ZM649.94,551.93a167.89,167.89,0,0,0,16.9,8.68c-9.47,12.76-18.29,26.26-28.45,42.39A70.89,70.89,0,0,1,622,599.62c3.59-6,7.13-12.26,10.56-18.31C638.1,571.49,643.85,561.36,649.94,551.93Zm29.64-50.27c6.21,5.19,12.12,9.93,17.58,14.11-10.17,16.14-19,29.63-28.49,42.37a167,167,0,0,1-17.11-8.73c6.1-9.46,11.85-19.59,17.42-29.4C672.42,513.94,676,507.7,679.58,501.66Zm29.18-50.88c6.28,6.84,12.22,13.27,17.7,19.15-7.81,11.57-15.42,23.71-22.78,35.46l-4.92,7.83c-5.47-4.2-11.4-9-17.64-14.18,4.33-7.25,8.55-14.81,12.62-22.14C698.57,468.21,703.56,459.24,708.76,450.78Zm29.09-51c5.64,7.71,11.18,15.28,16.38,22.41-9.52,18.48-17.84,32.93-26.06,45.21-5.51-5.93-11.48-12.39-17.78-19.26,8.94-14.42,17.37-29.87,25.54-44.83Zm41.7-28.59c-3.27,6.54-6.55,13.23-9.73,19.71-4.57,9.33-9.29,18.94-14.06,28.3l-16.32-22.33c4.94-9.07,9.82-18.43,14.55-27.51,3.81-7.31,7.73-14.84,11.68-22.2Zm209.54,366c.41.91.83,1.83,1.24,2.76-3.35-4.59-6.77-9.27-10.33-14.12-1.72-5.5-3.59-11.24-5.42-16.83L983,723.62C985,728.05,987,732.61,989.09,737.17ZM669.68,561.82a140.62,140.62,0,0,0,13.4,4.79c-10,11.42-19.79,23.32-29.22,35.42a58.23,58.23,0,0,1-12,1.14C651.73,587.48,660.38,574.29,669.68,561.82Zm29.88-44.23c5.21,3.94,10.25,7.63,15.05,11-9.49,12.15-19.36,24.09-29.38,35.53a140.15,140.15,0,0,1-13.71-4.8C680.86,546.75,689.57,533.44,699.56,517.59Zm29-45.4c5.75,6.16,11.16,11.9,16.1,17.07-9.28,12.41-18.76,24.83-28.2,37-4.87-3.42-10-7.18-15.3-11.18q2.54-4,5.06-8.07C713.45,495.44,720.91,483.54,728.56,472.19Zm27.65-47.31,15.53,21.26c-8.11,14.38-16.19,28.29-25.27,40.67-5-5.21-10.41-11-16.2-17.18C738.48,457.42,746.78,443.12,756.21,424.88ZM797,401.45l13.8,23.89A285.51,285.51,0,0,1,790,466c-4.6-6.32-9.57-13.12-14.67-20.1,7.61-13.61,14.45-28.55,21.06-43Zm62.49,164.87a70.08,70.08,0,0,1-20.9,18.25c-6.91-7.61-13.18-14.48-19.08-20.93,7.57-5.61,15.93-12.26,22.87-20.72Zm56.77,77.6c-2,6.61-4.92,11.86-8,17.38l-.43.78c-7.43-8.46-15-17-22.43-25.41,4.6-5.18,9.26-10.58,13.11-17ZM937,672.14a121,121,0,0,1-2.94,20c-8.08-9.33-16.17-18.63-24.1-27.67.31-.57.63-1.14.95-1.71a95.26,95.26,0,0,0,7.6-15.86C924.42,655,930.5,663.31,937,672.14Zm40.31,55c2.69,8.6,4.68,15.56,6.12,21.38-6.83-7.7-13.68-15.47-20.44-23.18a158,158,0,0,0-1.63-20ZM717.07,530.32c4.57,3.17,9,6.09,13.14,8.72-9.84,9.83-20,19.5-30,28.9-3.84-.89-7.79-1.82-11.84-2.92C698.19,553.83,707.81,542.18,717.07,530.32Zm29.7-38.86c5.06,5.28,9.8,10.14,14.11,14.49-8.22,9.76-17.56,19.89-28.5,30.92-4.26-2.68-8.77-5.67-13.46-8.92C728.24,516,737.59,503.71,746.77,491.46Zm43.39-20.08c4.58,6.3,9.52,13.07,14.61,20-6.93,9.59-15,18-22.81,26.14-.92,1-1.84,1.91-2.75,2.87-5.14-5.36-9.93-10.28-14.27-14.65A337.51,337.51,0,0,0,790.16,471.38Zm32.09,44c-7.54,9-16.21,16.91-24.69,24.5-5.82-6.23-11.28-12-16.28-17.26,1-1,1.89-2,2.84-3,7.68-8,15.59-16.25,22.5-25.68Zm13.69,70.74a132.56,132.56,0,0,1-26.61,10.43c-7.16-6.45-14-12.44-20.42-17.85l3-1.16c8.69-3.35,17.64-6.83,25.2-12.11C822.93,571.78,829.12,578.57,835.94,586.09ZM858,610.54c-5.59,3.93-12.55,6.35-19.31,8.68-1.17.4-2.35.81-3.52,1.23-8.11-7.69-15.93-14.93-23.26-21.57A131.15,131.15,0,0,0,838,588.37C845.05,596.13,851.62,603.41,858,610.54Zm23.32,26.09c-5.11,5.35-11.53,8.91-17.36,11.66-9.16-9-18-17.6-26.34-25.52l2.05-.71c7.08-2.44,14.36-5,20.35-9.27C867.32,620.88,874.32,628.7,881.36,636.63Zm24.91,28.22a64.77,64.77,0,0,1-11.33,14.25c-9.8-9.85-19.43-19.44-28.67-28.56,5.76-2.78,12-6.34,17.11-11.64C891,647.5,898.7,656.21,906.27,664.85Zm26.86,30.84A124.84,124.84,0,0,1,927.42,712c-10.36-10.59-20.56-20.94-30.37-30.81a68.17,68.17,0,0,0,11.31-14C916.52,676.54,924.83,686.1,933.13,695.69ZM960,726.5c-.07,6.13-.22,12.22-.43,18.16-9.65-9.72-19.66-19.89-29.84-30.3a133.68,133.68,0,0,0,5.8-16C943.71,707.9,951.93,717.34,960,726.5ZM732.81,540.69c4.13,2.59,8.5,5.48,13.05,8.62-4.21,3.12-8.48,6.22-12.64,9.24-5.87,4.26-11.94,8.66-17.84,13.12-4-1.12-7.84-2-11.61-2.92C713.4,559.63,723.27,550.24,732.81,540.69Zm46.39-15.94c4.94,5.18,10.35,10.91,16.1,17.07-9.18,7.93-19.75,13.82-29.1,18.56-5.28-4-10.38-7.73-15.22-11.14A238.38,238.38,0,0,0,779.2,524.75Zm26.7,72.72c-9.46,2.54-19.43,4.6-29.13,6.59-7.58-5.6-14.59-10.37-21.34-14.48,4.43-1.57,9.06-2.94,13.57-4.27,5.58-1.63,11.32-3.33,16.72-5.41C792,585.21,798.8,591.11,805.9,597.47Zm26.08,24c-3.84,1.22-7.93,2.2-11.91,3.14-4.37,1-8.86,2.1-13.09,3.5-10.17-8.57-19-15.69-27-21.7,9.56-2,19.32-4,28.57-6.61C815.92,606.5,823.79,613.78,832,621.52Zm29.1,28.11c-1.81.82-3.63,1.62-5.43,2.39-4.61,2-9.36,4.08-13.81,6.52-12-10.76-22.56-20-32.15-28.1,3.59-1.09,7.37-2,11.06-2.86,4.59-1.08,9.3-2.21,13.71-3.71C842.86,631.84,851.81,640.5,861.08,649.63Zm31.68,31.53c-1.83,1.69-3.68,3.36-5.49,5-2.49,2.23-5,4.54-7.53,6.91-13.49-12.44-25.13-23.06-35.52-32.38,4.06-2.16,8.4-4.06,12.62-5.89,2.16-.93,4.36-1.9,6.54-2.89C872.83,661.22,882.7,671.05,892.76,681.16ZM926.12,715c-2.24,5-4.68,9.82-7.09,14.51-12.23-11.39-24.82-23.1-37.09-34.43,2.41-2.29,4.9-4.53,7.33-6.7,1.85-1.66,3.74-3.36,5.6-5.09C905,693.44,915.46,704.1,926.12,715Zm33.26,33.76c-.25,5.9-.71,11.58-1.35,17-12.12-11.2-24.6-22.81-36.72-34.1,2.38-4.62,4.8-9.39,7.06-14.33C939,728.13,949.38,738.71,959.38,748.76Zm-19.2,47.34c-11.32-9.27-23-18.83-34.35-28a126.22,126.22,0,0,1,5.74-16.36c8.11,7,16.28,14.1,24.47,21.21,6.63,5.75,13.26,11.51,19.85,17.21-.23,6-.39,12.21-.49,18.44Q947.8,802.35,940.18,796.1ZM716,575c4.44,1.29,8.65,2.74,12.79,4.39-6.4,3.52-13.1,6.77-19.62,9.92-3.62,1.75-7.36,3.55-11,5.39a54.62,54.62,0,0,0-9.39.26l9.42-6.86C704,583.82,710.09,579.42,716,575Zm32.46,14c-4.41,1.56-9,2.92-13.51,4.24-5.69,1.66-11.55,3.39-17,5.54a76.07,76.07,0,0,0-14.14-3.47c2.25-1.1,4.5-2.2,6.71-3.26,7.27-3.51,14.77-7.14,21.86-11.15A164.23,164.23,0,0,1,748.44,588.93Zm24.36,15.94c-9.6,2-19.4,4-28.7,6.65a143.55,143.55,0,0,0-21.91-11.21c4.44-1.57,9.06-2.94,13.58-4.26,5.34-1.57,10.84-3.19,16-5.15C758.46,594.86,765.36,599.45,772.8,604.87ZM839,660c-4.06,2.16-8.39,4.06-12.62,5.89-2.18.94-4.41,1.92-6.61,2.92-14.79-12.29-27.31-22.4-38.17-30.8,3.76-1.17,7.73-2.12,11.61-3,4.37-1,8.86-2.1,13.09-3.5C816.05,639.73,826.78,649.09,839,660Zm38.54,35.08c-2.41,2.29-4.9,4.53-7.32,6.7-1.88,1.68-3.8,3.41-5.69,5.16-12-10.42-27.38-23.62-42.2-36,1.75-.79,3.51-1.56,5.24-2.31,4.62-2,9.37-4.07,13.81-6.51C851.94,671.62,863.8,682.42,877.56,695.12Zm40.05,37.16c-2.41,4.68-4.86,9.5-7.14,14.5-8.11-7-16.29-14.11-24.48-21.22q-9.6-8.32-19.15-16.6c1.79-1.66,3.61-3.31,5.4-4.91,2.48-2.23,5-4.53,7.52-6.9C892.28,708.71,905.13,720.67,917.61,732.28Zm-66.63-9C836,711,818.7,697,802.07,683.88c5.11-5.27,11.48-8.78,17.26-11.5,15,12.54,30.73,26,43,36.67A68,68,0,0,0,851,723.25Zm-10.21,20.8c-15.58-12-35.32-27.17-53.92-40.66,3.77-6.54,8.5-12,13.18-17.3,16.81,13.23,34.33,27.46,49.44,39.8-.29.51-.57,1-.85,1.54A91.37,91.37,0,0,0,840.77,744.05Zm-142-146.34a70.2,70.2,0,0,1,14.67,2.72l-1.38.54c-8.92,3.44-18.12,7-25.81,12.53a46.12,46.12,0,0,0-13.38,0C681.27,606.94,690.51,601.88,698.76,597.71Zm41.42,14.95a128.56,128.56,0,0,0-25.72,10.48c-8.85-4.45-16.74-7.39-24-8.91,6.87-4.37,14.87-7.46,22.65-10.46l4.8-1.87A129.82,129.82,0,0,1,740.18,612.66ZM775.33,637l-1.73.6c-7.17,2.47-14.55,5-20.58,9.44-13.88-9.72-25.48-17-35.33-22.25a134,134,0,0,1,26-10C752.5,620.23,762.89,627.53,775.33,637Zm41.46,33.25c-5.77,2.8-12,6.4-17.11,11.74-17-13.36-31.48-24.23-44.06-33.12,5.53-3.79,12.34-6.15,19-8.43,1.2-.41,2.41-.83,3.61-1.26C789.12,647.6,801.77,657.79,816.79,670.26Zm-32.38,31.36c-19.61-14.17-35.13-24.9-48.58-33.59,5-7.21,11.39-12.68,17.25-17.28,12.69,9,27.3,19.92,44.58,33.48C793,689.5,788.27,695,784.41,701.62Zm-97.41-85c7.27,1.16,15.28,3.9,24.37,8.32a72.56,72.56,0,0,0-20.43,18.21c-9.71-4-18.39-6.16-26.38-6.58C671.4,628.5,679.62,622.08,687,616.64ZM750.51,649c-5.86,4.63-12.21,10.16-17.21,17.45-15.82-10.11-28.78-17.34-39.5-22a70.39,70.39,0,0,1,20.75-17.83C724.47,631.67,736.26,639,750.51,649Zm-29,47.77c-16.31-9.13-30.06-15.65-41.92-19.87,2.4-11.76,6.47-21.6,12.39-30,10.69,4.62,23.69,11.85,39.68,22.06A71.56,71.56,0,0,0,721.5,696.73Zm-59.33-57.21c8,.08,16.92,2.11,27,6.17-5.89,8.52-10,18.43-12.42,30.18-11.19-3.73-21.11-5.49-30.2-5.37A88.5,88.5,0,0,1,662.17,639.52Zm-16.43,34c9.07-.24,19,1.5,30.38,5.32-2.24,12.4-2.87,27.27-1.92,45.34-11.81-3.13-22.56-4.21-32.74-3.27C641.5,700.57,642.87,685.43,645.74,673.53ZM677.25,725c-1-18.07-.43-32.89,1.74-45.2,11.86,4.26,25.66,10.85,42.09,20.1-1.26,10.95-.91,24.94,1.08,43.74C704.37,734.75,689.64,728.63,677.25,725Zm48.1,20.25c-2.07-18.81-2.53-32.83-1.43-43.74,15,8.58,31.93,19.17,51.54,32.32-.45,10.5.69,24.08,3.5,41.42C757.46,762.52,740.33,752.93,725.35,745.29Zm50.35-14.88c-19.54-13-36.39-23.57-51.4-32.1a69.18,69.18,0,0,1,9.87-27.78c13.49,8.71,29.06,19.48,48.78,33.74A67.29,67.29,0,0,0,775.7,730.41ZM667.77,617.72a39.83,39.83,0,0,1,14.88-1.58c-7.39,5.55-15.37,12.12-21.93,20.38a49,49,0,0,0-15.2,2.68A284.15,284.15,0,0,1,667.77,617.72Zm-26.49,26.42a47.62,47.62,0,0,1,17.06-4.51,90.52,90.52,0,0,0-15,31,51.82,51.82,0,0,0-20,5.23A104.11,104.11,0,0,1,641.28,644.14ZM622,680a48.3,48.3,0,0,1,20.61-6.28c-2.81,12.06-4.14,27.29-4.16,47.57a80.75,80.75,0,0,0-23.83,7.16C615.8,708.3,618.22,692.42,622,680Zm-8.19,110.09c-.16-19.63-.29-39.79.63-58.23a79.13,79.13,0,0,1,24-7.55c.14,18.75,1.88,39.92,3.56,58.59A105.13,105.13,0,0,0,613.82,790.07ZM645,782.6c-1.68-18.72-3.42-40-3.54-58.67,10.17-1,21,.15,32.91,3.41a567.68,567.68,0,0,0,7,58A124.91,124.91,0,0,0,645,782.6ZM684.56,786a576.3,576.3,0,0,1-7.12-57.76c12.4,3.7,27.2,9.94,45.11,19,2,17.37,5.59,37.17,9,54.79C713.4,794.36,698,789.1,684.56,786Zm50.26,17.46c-3.32-17.39-7-37.12-9.06-54.57,15,7.73,32.23,17.41,53.84,30.29,2.74,16.05,6.53,33.68,10.28,50.9C768.83,819.05,750.78,810.32,734.82,803.44Zm58.53,28.44c-3.72-17.06-7.52-34.61-10.34-50.68,20.63,12.39,42.28,26.33,59.15,37.31,2.62,13.26,6.34,28.15,10,42.56l.88,3.52C834.73,854.31,813.71,842.6,793.35,831.88Zm-11-54.58c-2.9-17.31-4.19-30.92-3.93-41.46C795,747,814,760.3,836.16,776.3c.39,11.3,2.65,24.84,5.2,38.11C824.23,803.28,802.69,789.45,782.33,777.3Zm53.77-4.74c-22.11-15.91-41-29.1-57.54-40.23a65.53,65.53,0,0,1,6.85-26.28c18.83,13.67,38.82,29,54.42,41.07A91.9,91.9,0,0,0,836.1,772.56ZM792.55,632.09c-4.62,1.09-9.37,2.23-13.81,3.75-12.13-9.3-22.37-16.58-31.16-22.16,9.27-2.46,19-4.47,28.47-6.41,8.08,6,17.12,13.22,27.55,22C800,630.33,796.23,631.23,792.55,632.09Zm-109-33.33a63.89,63.89,0,0,1,8.79-1.12c-8.63,4.57-17.92,10.16-26.09,17.41a47.06,47.06,0,0,0-4.71,1.85A268.26,268.26,0,0,1,683.56,598.76Zm-34.14,30.32,3.72-3.88c1.81-1.22,3.8-2.5,6-3.7a197.51,197.51,0,0,0-19.72,20.21,35.89,35.89,0,0,0-3.51,1.94C640.3,638.58,644.9,633.78,649.42,629.08Zm-23.5,27.09a63.05,63.05,0,0,1,8.38-7.83A105.43,105.43,0,0,0,619.49,678a64,64,0,0,0-11.82,9.36C613,675.21,619.51,665.22,625.92,656.17Zm-21.34,38.92a72.09,72.09,0,0,1,13.61-12.69c-3.42,12.5-5.6,28.11-6.65,47.54a86.45,86.45,0,0,0-17.86,12.64C596.13,726.87,599.37,709.5,604.58,695.09ZM593,747.29a93.4,93.4,0,0,1,18.42-13.87c-.85,18.44-.71,38.45-.55,57.9a182.18,182.18,0,0,0-23.34,12.55c.13-1.77.27-3.54.4-5.31C589.2,781.27,590.56,763.41,593,747.29Zm-5.75,60.3a191.9,191.9,0,0,1,23.66-13c.29,21.22,2.13,44.28,4,64.34a261.63,261.63,0,0,0-30,10.22C585.12,844.78,585.87,825.14,587.21,807.59Zm30.55,50.59c-1.83-20.3-3.67-43.6-3.9-64.89a103.05,103.05,0,0,1,28.45-7.43c1.67,17.68,4.8,37.5,7.83,56.71q.79,5,1.58,10.07A194.24,194.24,0,0,0,617.76,858.18Zm37-5.72q-.81-5.18-1.63-10.36c-3-19.16-6.15-38.94-7.81-56.52a123.16,123.16,0,0,1,36.65,2.89c3.23,19,7.53,40.76,13.13,66.4A184.71,184.71,0,0,0,654.73,852.46Zm43.53,2.95c-5.6-25.56-9.91-47.26-13.15-66.22,13.45,3.22,28.88,8.59,47.07,16.38,3.27,16.9,8.08,36,12.74,54.59.71,2.82,1.41,5.64,2.12,8.46C728.48,862.32,712.48,858,698.26,855.41Zm52.16,14.37c-.86-3.44-1.73-6.9-2.59-10.35-4.47-17.77-9.06-36.09-12.3-52.42,16,7,34.08,15.79,55.19,26.88,4.09,18.66,9.7,39.26,14.82,57.39C784.43,882.35,766.36,875.3,750.42,869.78Zm58.66,23c-5.05-17.84-10.68-38.33-14.88-57.06,20.55,10.87,41.65,22.66,59.8,32.88,3.6,14.4,8.1,30.62,14.06,50.74C851.15,911.45,829.81,901.62,809.08,892.78ZM871.69,921c-5.94-20-10.45-36.12-14.08-50.4l18.45,10.42c14,7.9,28.38,16.06,42.42,23.87,3.72,12.93,8.15,27.51,13.5,44.47C921,944.29,909.91,939,899.1,933.94Q885.38,927.46,871.69,921Zm5.85-42.59L856.6,866.62,855,860.34c-3.35-13.34-6.78-27.07-9.34-39.53q12.18,8,24.44,16c12.1,7.93,24.61,16.13,36.76,24,2.74,11.9,6.16,25.05,10.42,40C904.11,893.48,890.63,885.86,877.54,878.45Zm-5.77-44.15c-9-5.9-18-11.8-26.92-17.61-2.44-12.54-4.93-26.6-5.59-38.14C859.23,793,879.94,808.21,900,823c1.16,9.82,3.11,20.87,5.94,33.63C894.61,849.27,883,841.67,871.77,834.3Zm-32.65-59.56a86.76,86.76,0,0,1,3.27-25.63q11.57,9,23.23,18c11,8.51,22.26,17.31,33.25,25.77a166.18,166.18,0,0,0,.7,26C879.54,804.2,859,789,839.12,774.74Zm60,14.58c-10.49-8.08-21.23-16.43-31.65-24.54-8.07-6.28-16.15-12.57-24.17-18.77,2-6.49,4.89-11.67,7.94-17.12l.6-1.07L868,741.05c11.34,9.29,23.06,18.88,34.45,28.12A120.55,120.55,0,0,0,899.11,789.32Zm-29.22-50.6-16.56-13.55A65.07,65.07,0,0,1,864.64,711q9.66,8.34,19.38,16.8c8.42,7.31,16.83,14.61,25.17,21.81a131.37,131.37,0,0,0-5.9,16.35C892.23,757,880.89,747.73,869.89,738.72ZM938,770.64c-8.42-7.31-16.84-14.62-25.18-21.81,2.23-5,4.66-9.76,7.06-14.42,12.45,11.59,25.28,23.53,37.69,35-.7,5.35-1.2,11-1.5,16.91Q947.07,778.51,938,770.64ZM768.16,582.43c-5.34,1.57-10.85,3.2-16,5.16A175.6,175.6,0,0,0,735.64,579c6.43-3.53,13.15-6.8,19.7-10,3.46-1.67,7-3.4,10.53-5.15,5.34,4.08,11.12,8.71,17.2,13.78C778.24,579.46,773.13,581,768.16,582.43Zm-5-20.55c-3.06,1.51-6.15,3-9.16,4.47-7.28,3.51-14.78,7.14-21.89,11.15A138.39,138.39,0,0,0,719,572.74c5.32-4,10.75-7.94,16-11.77,4.42-3.21,9-6.52,13.46-9.85C753.14,554.41,758.08,558,763.2,561.88Zm-62,9.34c3.63.84,7.35,1.71,11.18,2.73-5.29,4-10.69,7.89-15.94,11.7-4.63,3.35-9.41,6.83-14.08,10.3-2,.4-4,.85-5.88,1.29l-3,.67C682.58,588.84,692,579.91,701.16,571.22Zm-31.6,30.54c2.41-.44,4.78-1,7.07-1.49a227,227,0,0,0-25.43,22.62c-1.48,1-3,2-4.41,3.07h0C653.56,618.28,661.08,610.28,669.56,601.76ZM639.5,634.43c.54-.32,1.08-.65,1.61-1-2.56,2.71-5.1,5.49-7.59,8.35C635.46,639.35,637.44,636.9,639.5,634.43Zm-28,38.63a138.32,138.32,0,0,0-9.55,20.5c-1.84,2.18-3.61,4.45-5.34,6.78A286.54,286.54,0,0,1,611.49,673.06Zm-21.24,41.57c2.89-4.26,5.85-8.6,9-12.75-4.2,14-6.92,29.84-9.06,44-2.63,2.48-5.24,5.06-7.77,7.57s-4.85,4.81-7.34,7.17A369.62,369.62,0,0,1,590.25,714.63ZM573.62,766c3.74-3.36,7.36-7,10.87-10.43,1.62-1.62,3.29-3.26,5-4.89-2.08,15.21-3.35,31.69-4.56,47.69l-.57,7.53q-3.92,2.48-7.8,5c-4.6,3-9.34,6-14.13,8.92C565.82,799.77,569.5,782.13,573.62,766Zm-11.88,57.7c5.59-3.3,11.1-6.85,16.42-10.29q2.94-1.89,5.89-3.77c-1.26,17.35-2,36.79-2.2,60.76-4.35,1.78-8.72,3.62-13,5.41-5,2.14-10.26,4.33-15.47,6.43C556.16,860,558.89,840.77,561.74,823.66ZM553,885.6c5.75-2.29,11.5-4.71,17.06-7.07,3.85-1.62,7.8-3.29,11.75-4.92q-.12,13.54-.17,27.17c-.06,12.07-.12,24.53-.26,36.7-11.91,2.8-23.72,5.92-35.21,9C548.34,926.36,550.58,905.67,553,885.6Zm31.64,15.2c.05-9.49.09-19,.18-28.42A265.56,265.56,0,0,1,615.09,862q1,11,2.08,22c1.45,15.13,2.94,30.76,4.1,45.73-11.46,1.69-23.56,4-36.87,7.07C584.54,924.83,584.59,912.63,584.65,900.8Zm39.6,28.49c-1.16-14.94-2.65-30.52-4.09-45.6-.72-7.51-1.44-15-2.12-22.49a191.55,191.55,0,0,1,34.15-5.59c1.87,11.84,4.07,24.27,6.21,36.3,2,11.32,4.09,23,5.87,34.16A335.62,335.62,0,0,0,624.25,929.29Zm43-3.26c-1.8-11.33-3.9-23.17-5.94-34.64-2.12-11.93-4.31-24.23-6.16-35.95A182.34,182.34,0,0,1,695.76,858c5.09,23.18,10.73,47.26,16.2,70.65A322.43,322.43,0,0,0,667.3,926Zm47.84,3.05c-5.46-23.31-11.09-47.35-16.18-70.49,14.23,2.66,30.29,7.09,48.95,13.5,2.86,11.43,6.09,23.47,9.22,35.12,2.84,10.54,5.75,21.4,8.39,31.8A476.83,476.83,0,0,0,715.14,929.08Zm53.68,10.75c-2.74-10.9-5.81-22.32-8.79-33.39s-6-22.34-8.73-33.18c16,5.6,34.1,12.72,55.28,21.72,2,6.92,4,13.89,6,20.86,3.8,13.22,7.71,26.85,11.28,39.93C803.6,949.29,785.57,944.07,768.82,939.83Zm58.41,17c-3.72-13.67-7.82-28-11.8-41.86q-2.67-9.28-5.29-18.51c21,9,42.41,18.9,59.06,26.69q3.62,12.1,7.3,24.32c2.9,9.65,5.89,19.59,8.78,29.34C863.39,969,844.36,962.41,827.23,956.87Zm61.56,21.24c-3.09-10.42-6.31-21.11-9.42-31.47q-3.29-10.89-6.53-21.74,12.46,5.83,25,11.76c11.63,5.48,23.64,11.15,35.39,16.62,4.88,15.4,10.06,31.32,15.11,46.82C928.68,992.76,908.47,985.23,888.79,978.11Zm63.12,23.33c-5-15.33-10.13-31.11-15-46.43,10.93,5.09,22.05,10.34,32.84,15.43q13.75,6.49,27.47,12.93c4.45,13,9.2,26.43,14.13,40C991.65,1016.28,971.48,1008.75,951.91,1001.44ZM971,967.73c-11.62-5.48-23.62-11.15-35.36-16.61-5.31-16.78-9.73-31.26-13.47-44.11,13.2,7.36,26.68,15,39.76,22.38q10.51,6,21,11.87c4.23,12.62,8.56,25.43,12.91,38.16Q983.48,973.62,971,967.73Zm-7.59-41c-14-7.9-28.38-16-42.42-23.87-4.27-14.88-7.72-27.93-10.5-39.75,11.35,7.35,22.94,15,34.2,22.33q13.49,8.85,26.91,17.61c3,11,6,21.87,9.94,33.92Q972.51,931.92,963.44,926.78ZM946.36,883c-12.12-7.94-24.64-16.15-36.82-24-2.89-12.71-4.93-23.72-6.2-33.5,20,14.76,40.66,29.93,60.51,44.25l.46,2.15c1.81,8.54,3.68,17.34,6.17,26.91Q958.47,890.93,946.36,883Zm-43.52-61.63a171,171,0,0,1-1.08-26.19c10.5,8.09,21.26,16.46,31.69,24.58q12.24,9.53,24.41,19c1.16,8.19,3.12,17.52,5.06,26.64C943.16,851,922.69,836,902.84,821.35Zm32.46-4C924.32,808.83,913,800,902,791.52a118.68,118.68,0,0,1,3-20.26c11,8.94,22.31,18.19,33.27,27.16l17.08,14a174.18,174.18,0,0,0,1.91,22Q946.34,826,935.3,817.37ZM790.81,574.71l-4.51,1.76c-6.16-5.17-12-9.89-17.45-14.07,9.21-4.72,19.49-10.56,28.51-18.36,5.51,5.91,11.31,12.19,17.68,19.13C807.83,568.12,799.19,571.48,790.81,574.71Zm-13.69-52.13a237,237,0,0,1-28.72,24.84c-4.67-3.24-9.17-6.23-13.42-8.91,10.72-10.82,19.91-20.81,28-30.43C767.31,512.42,772.05,517.28,777.12,522.58Zm-90.88,45c3.91,1.09,7.7,2,11.41,2.87-9.8,9.28-19.86,18.84-29.57,28.58-2.59.47-5.12,1-7.57,1.6l-2.07.47C667.45,589.61,676.78,578.35,686.24,567.54Zm-30.71,37.21c1.92-.38,3.81-.81,5.65-1.23,1-.24,2.07-.47,3.12-.7-10.2,10.38-19,20-26.79,29.32-2,1.2-4,2.49-5.86,3.81C639.54,625.48,647.55,615,655.53,604.75Zm-29.64,38.87c1.45-1,2.89-2,4.32-3l.92-.65a326.6,326.6,0,0,0-21,29.53c-1.13,1.16-2.23,2.37-3.31,3.59A314.71,314.71,0,0,1,625.89,643.62Zm-26.73,42.89c1-1,1.92-2.13,2.86-3.22a287.69,287.69,0,0,0-14.43,29.9c-2,2.93-4,5.91-6.1,8.83C587.06,709.92,592.85,697.72,599.16,686.51Zm-25.1,51.73,1.8-3.92c2.45-2.92,4.8-6,7.08-9.17-4.37,11.93-8.32,24.87-12,39.2-3.74,3.35-7.36,6.94-10.87,10.42L556.78,778C562.16,764.19,568.19,751,574.06,738.24Zm-19.77,46.35c2.68-2.52,5.33-5.14,7.89-7.69,2.42-2.4,4.9-4.85,7.42-7.23-3.86,15.72-7.34,32.84-10.59,52.13-5.59,3.3-11.09,6.84-16.41,10.28-1.71,1.11-3.43,2.2-5.14,3.3C542.29,817.69,548.17,801.23,554.29,784.59Zm-18,55.1q4-2.52,7.94-5.09c4.6-3,9.34-6,14.13-8.91-2.78,16.93-5.44,35.89-8.11,57.79-5.76,2.29-11.5,4.71-17.06,7.07-3.63,1.53-7.36,3.11-11.1,4.65C526.71,876.69,531.48,858,536.29,839.69Zm-15.1,59.12c4.43-1.8,8.87-3.68,13.17-5.5,5-2.14,10.26-4.33,15.48-6.43-2.41,20-4.62,40.48-6.76,60.4-11.45,3-23.24,6.16-35.08,9C512.12,936.82,516.55,917.52,521.19,898.81ZM507.31,959.5c12-2.81,23.86-6,35.42-9-2.14,20-4.37,40.57-6.8,60.62-13.62,2.32-27.66,4.32-41.8,6C498.78,998.29,503.21,979,507.31,959.5Zm38.53-9.85c11.58-3.08,23.51-6.23,35.52-9.07-.14,11.94-.2,24.14-.26,36,0,9.38-.09,18.76-.17,28.09-14.16,1.64-28.24,3.64-41.91,6C541.45,990.4,543.68,969.72,545.84,949.65Zm38.26,26.9c.06-12.06.12-24.52.26-36.68,13.44-3.11,25.62-5.46,37.14-7.16,1.16,14.93,2.65,30.49,4.09,45.57q1.06,11.15,2.1,22.25c-14.78.9-29.48,2.17-43.76,3.76Q584.05,990.48,584.1,976.55Zm46.58,23.8q-1-11.15-2.1-22.36c-1.45-15.13-2.94-30.74-4.1-45.71a333.68,333.68,0,0,1,40.28-3.22c1.8,11.31,3.9,23.13,5.93,34.59,2.12,11.89,4.3,24.17,6.14,35.87C661.08,999.22,645.57,999.5,630.68,1000.35Zm49.2-.77c-1.87-11.89-4.08-24.37-6.23-36.46-2-11.29-4.08-23-5.86-34.1a323.4,323.4,0,0,1,44.9,2.76c5.49,23.4,11.13,47.53,16.23,70.68C712.21,1000.93,695.73,1000,679.88,999.58Zm52.18,3.18c-5.08-23.09-10.71-47.17-16.18-70.55a483.42,483.42,0,0,1,50.48,10.1c2.74,10.88,5.81,22.29,8.78,33.34s6.1,22.72,8.87,33.72C766.32,1006.59,748.86,1004.37,732.06,1002.76Zm55.17,7.12c-2.85-11.4-6.07-23.39-9.19-35-2.83-10.52-5.74-21.36-8.38-31.74,16.76,4.28,34.83,9.55,55.11,16.09,3.72,13.67,7.82,28,11.8,41.86q2.76,9.6,5.47,19.14C823.4,1016.21,805,1012.73,787.23,1009.88ZM845.37,1021q-2.93-10.29-5.91-20.69c-3.8-13.21-7.71-26.85-11.28-39.93,17.15,5.58,36.22,12.17,58.16,20.09,3.09,10.42,6.31,21.12,9.42,31.47q3.39,11.24,6.74,22.44C883.27,1029.54,864.07,1025,845.37,1021Zm60.51,14.22q-3.58-12-7.24-24.15c-2.91-9.65-5.9-19.59-8.79-29.33,19.76,7.16,40,14.72,59.66,22,5,15.49,10.24,31.45,15.2,47.06C944.89,1045.25,925.12,1040,905.88,1035.17Zm62.28,16.58c-4.9-15.45-10-31.26-15.06-46.67,19.65,7.34,39.87,14.88,59.58,22,5,13.71,9.77,27.24,14.26,40.32C1007.67,1062.56,987.92,1057.3,968.16,1051.75Zm62.26,16.54c-4.43-12.92-9.16-26.31-14.07-39.88,21.86,7.87,40.85,14.41,57.94,19.93,4.63,11.22,8.66,21.6,13.11,33.34C1068.73,1077.58,1049.59,1073.09,1030.42,1068.29Zm-15.4-43.54c-4.89-13.46-9.59-26.75-14-39.61,16.89,7.89,38.17,17.69,58.86,26.51,4.45,11.76,8.44,22.08,12.93,33.06C1055.75,1039.16,1036.81,1032.61,1015,1024.75ZM999.65,981.2c-4.3-12.57-8.59-25.24-12.79-37.74,18.23,10.25,39.16,21.9,59.41,32.57,3.79,9.63,7.32,19,10.73,28l1.4,3.7C1037.5,998.79,1016.21,988.94,999.65,981.2Zm-14.21-42c-4-12-7.09-22.87-10-33.66,17.11,11.12,38.55,24.88,58.81,37,3.47,10.55,6.81,20,10.39,29.24C1024.27,961,1003.41,949.33,985.44,939.21Zm-11.21-38c-2.79-10.35-4.82-19.78-6.75-28.9,21.9,15.76,40.61,28.84,57.08,39.89,1.24,3.88,2.45,7.72,3.66,11.55,1.48,4.7,3,9.53,4.58,14.43C1012.34,925.87,990.94,912.08,974.23,901.21ZM966.55,868l-.45-2.12c-1.77-8.29-3.58-16.81-4.81-24.48,15.57,12,35.08,26.95,53.36,40.2,1.84,5.84,3.83,11.94,5.76,17.85q1.33,4.1,2.66,8.18C1006.72,896.55,988.18,883.54,966.55,868Zm-5.89-30.88c-1.09-8-2.06-15.62-2.27-22.19,15,12.22,32.18,26.18,48.66,39.14,1.29,6,3.25,13.35,6.12,22.75C994.88,863.43,975.7,848.7,960.66,837.07ZM958.37,811c.08-6.18.22-12.32.44-18.34,12.22,10.57,27.58,23.77,42.3,36,.38,1.56.76,3.13,1.15,4.69,1.3,5.34,2.63,10.82,3.79,16C989.76,836.56,972.92,822.87,958.37,811ZM959,788.8c.25-5.87.71-11.53,1.35-16.9,13.54,12.48,25.22,23.12,35.6,32.43.92,5.75,2.29,12.07,4,19.46C985.45,811.67,970.61,798.89,959,788.8Zm1.8-20.57c.68-5.25,1.18-10.82,1.49-16.6,9.68,9.73,19.27,19.28,28.53,28.42,1.8,7.44,3.25,13.79,4.31,19.51C985,790.5,973.73,780.22,960.75,768.23Zm1.68-20.65c.22-5.78.38-11.72.48-17.72,7.26,8.27,14.6,16.59,21.88,24.79,1.34,6.33,3,13.18,4.62,19.81v0C980.62,765.79,971.57,756.77,962.43,747.58Zm-4.79-47.24c1.05,7.68,2,15.1,2.25,21.53-7.71-8.82-15.58-17.86-23.46-27a119.59,119.59,0,0,0,3.26-19.07C946,684.38,951.86,692.45,957.64,700.34ZM883.4,634.41c-6.92-7.79-13.8-15.49-20.94-23.43,5.81-4.57,12.13-10,17.16-17.17l17,23.19C892.83,623.59,888.1,629.12,883.4,634.41Zm-3.9-45.86-16.27-22.24a79.59,79.59,0,0,0,12.41-28.7l13.43,23.25A69.34,69.34,0,0,1,879.5,588.55Zm-1.75,2.7c-4.93,7.31-11.4,12.85-17.3,17.49-6.34-7-12.84-14.25-19.78-21.9a72.82,72.82,0,0,0,20.69-18ZM817.5,561.42c-6.45-7-12.32-13.39-17.89-19.37,8.36-7.49,16.91-15.27,24.46-24.21l16.51,22.58C833.69,549,825.17,555.74,817.5,561.42ZM824.21,513l-15.74-21.56c6.82-9.68,14.35-21.36,19.94-35.59l13.71,23.74A103.42,103.42,0,0,1,824.21,513ZM806.6,488.84c-5.13-7-10.12-13.87-14.72-20.19a289.58,289.58,0,0,0,20.83-40l13.76,23.84C821.1,467,813.81,478.54,806.6,488.84Zm-18.34-20.06a331.08,331.08,0,0,1-25.45,34.85c-4.35-4.38-9.13-9.29-14.23-14.62,9-12.27,17.08-26,25.11-40.21ZM640,606.11a56.71,56.71,0,0,0,11.16-.58c-9.18,11.83-18.37,23.88-27.36,35.9a65.36,65.36,0,0,1-9.92,5.68c7.11-10.67,14.06-21.76,20.8-32.52Q637.31,610.35,640,606.11Zm-29,45.35a49.71,49.71,0,0,0,8.28-3.68c-8,11.48-15.22,24.05-22.51,37A56.88,56.88,0,0,1,586,694.2,433.83,433.83,0,0,1,610.94,651.46Zm-27.48,47.6a42,42,0,0,0,8.52-5.57c-6,11.43-11.51,23.52-16.9,35.3l-1.78,3.9a74.84,74.84,0,0,1-12.37,11.83c2.55-5.16,5.1-10.35,7.58-15.42C573.37,719.2,578.39,709,583.46,699.06Zm-25.23,50.86a62.51,62.51,0,0,0,11.14-8.64c-6.1,13.31-12.27,27.06-17.64,41.61a98.06,98.06,0,0,1-16.73,13c4.36-8.81,8.83-17.59,13.18-26.11C551.49,763.26,554.91,756.57,558.23,749.92ZM532.7,800.53a82.89,82.89,0,0,0,16.81-11.6c-5.8,15.89-11.3,31.76-15.82,48.86A198,198,0,0,1,511,850.37C516.73,835,523.66,819.09,532.7,800.53Zm-23.11,53.76a177.12,177.12,0,0,0,23-12.28c-4.72,18.08-9.4,36.41-13.93,54.6a268.94,268.94,0,0,1-29.33,10.2l3.27-8.29C498.27,884.17,504.14,869.34,509.59,854.29Zm-21.64,56a257.6,257.6,0,0,0,29.81-10.09c-4.57,18.53-8.94,37.62-13,56.81-13.22,3.07-25.21,5.39-36.55,7.09C474,946.48,480.3,929.73,488,910.29Zm-20.77,57c11.46-1.67,23.58-4,36.9-7-4.09,19.33-8.5,38.55-13.13,57.18-14.16,1.59-28.75,2.85-43.44,3.77C455.12,1001.82,461.43,985,467.18,967.29Zm-20.88,57c14.83-.9,29.57-2.17,43.88-3.76-4.66,18.68-9.45,37.43-14.26,55.79-15.79.63-32.63.93-50.09.89,5.29-14.52,10.95-28.85,16.45-42.73Zm47.06-4.12c14.27-1.64,28.44-3.65,42.2-6-2.74,22.27-5.46,41.48-8.31,58.62-15.22,1.51-31.41,2.65-48.19,3.37C483.89,1057.75,488.69,1038.93,493.36,1020.17Zm45.28-6.48c13.78-2.35,28-4.38,42.26-6-.25,24.34-1,44-2.31,61.52-16.78.72-33,1.84-48.25,3.33C533.19,1055.31,535.91,1036,538.64,1013.69Zm45.26-6.38c14.38-1.61,29.18-2.88,44.06-3.79,1.83,20.18,3.67,43.38,3.93,64.66-17.54,0-34.43.25-50.28.88C582.92,1051.45,583.66,1031.74,583.9,1007.31Zm51,60.88c-.26-21.33-2.1-44.6-3.93-64.86,14.95-.85,30.52-1.12,46.35-.8q.81,5.19,1.64,10.4c3,19.11,6.13,38.83,7.8,56.38C668.33,1068.64,651.33,1068.28,634.89,1068.19Zm54.88,1.23c-1.67-17.74-4.81-37.66-7.86-57q-.78-4.94-1.55-9.86c15.91.39,32.46,1.37,49.24,2.94,5.62,25.69,9.94,47.48,13.19,66.48C723.69,1070.9,706.31,1070,689.77,1069.42Zm56.09,2.79c-3.22-19-7.53-40.73-13.13-66.37,16.85,1.63,34.35,3.88,52.07,6.69q1.28,5.06,2.54,10.13c4.55,18.09,9.24,36.76,12.48,53.32C782.7,1074.59,765,1073.36,745.86,1072.21Zm57.07,4c-3.26-16.84-8-35.87-12.68-54.3l-2.22-8.88c17.8,2.88,36.26,6.39,54.94,10.45,5.13,18.14,10.86,39,15.08,58C840.16,1079.53,822.09,1077.8,802.93,1076.23Zm58.27,5.62c-4.13-18.77-9.78-39.47-14.91-57.62,18.74,4.11,38,8.62,57.2,13.43,6.09,20.46,10.67,36.91,14.34,51.45C899.41,1086.43,880.38,1084,861.2,1081.85Zm59.84,7.73c-3.63-14.47-8.15-30.79-14.17-51.06,19.3,4.85,39.09,10.12,58.92,15.69,5.45,17.21,10,32,13.76,45.14C960.35,1095.77,940.69,1092.48,921,1089.58ZM982.85,1100c-3.76-13-8.22-27.71-13.61-44.78,19.81,5.54,39.59,10.8,58.87,15.64,4.49,13.11,8.92,26.19,13.19,38.94C1021.66,1106.83,1002,1103.54,982.85,1100Zm61.78,10.3c-4.22-12.62-8.61-25.58-13.05-38.58,19.22,4.79,38.41,9.28,57.09,13.36l2.35,6.23c3.2,8.49,6.51,17.26,10,26.27C1081.93,1115.38,1063,1112.93,1044.63,1110.25Zm59.8,7.66c-3.74-9.52-7.23-18.76-10.6-27.71l-1.67-4.41c18.62,4,37,7.48,54.75,10.33,2,4.42,4,8.69,5.81,12.83,2,4.56,4.16,9.27,6.48,14.23C1140.19,1121.6,1122.23,1119.88,1104.43,1117.91Zm-13.53-35.46c-4.43-11.7-8.4-22-12.87-32.9,20.12,6.44,38.07,11.63,54.74,15.85,3.09,6.44,5.79,12.41,8.4,18.17,1.39,3.06,2.77,6.12,4.22,9.26C1127.72,1090,1109.42,1086.47,1090.9,1082.45Zm-14.36-36.53c-4.54-11-8.5-21.19-12.84-32.65,21,8.89,39,15.9,54.92,21.41,1.78,3.84,3.46,7.54,5.13,11.24,2.31,5.09,4.7,10.36,7.35,16C1114.5,1057.62,1096.61,1052.38,1076.54,1045.92Zm-14.32-36.53-2.41-6.39c-3-8-6.17-16.34-9.49-24.85,20.84,10.89,38.73,19.52,54.56,26.35,2.64,5.6,5,10.88,7.29,16,1.52,3.38,3.07,6.84,4.71,10.41C1101.05,1025.32,1083.12,1018.27,1062.22,1009.39Zm-13.56-35.49c-3.66-9.32-7-18.65-10.51-29,21.31,12.64,38.3,22.13,53.18,29.71l1.16,2.61c3.29,7.41,6.68,15,10.47,23.2C1087.19,993.48,1069.38,984.78,1048.66,973.9Zm-11.94-33.38c-2-6-3.84-11.94-5.64-17.67q-1.24-4-2.52-8c19.13,12.75,35.66,23,50.42,31.4,1.89,4.29,3.7,8.47,5.51,12.65q2.38,5.52,4.91,11.29C1074.67,962.59,1057.78,953.07,1036.72,940.52Zm-9.62-30.23c-1.26-3.91-2.55-7.86-3.84-11.82-1.51-4.61-3-9.34-4.53-14,19,13.67,34,24,47.17,32.5,2.19,5,4.54,10.21,6.82,15.27l4.2,9.38C1062.32,933.23,1046,922.94,1027.1,910.29Zm-9.88-30.58c-2.9-9.29-5-16.67-6.43-22.76,16.67,13,30.84,23.65,43.21,32.35,2.86,7.07,6.31,15,9.71,22.7C1050.75,903.54,1035.83,893.17,1017.22,879.71Zm-7.46-27.38c-1.33-6.3-3-13.09-4.59-19.67-.06-.25-.12-.51-.19-.77,14.45,12,26.7,21.82,37.34,30,1.61,3.89,3.43,8.07,5.19,12.12,1.46,3.37,2.94,6.79,4.33,10.09C1039.72,875.44,1025.9,865,1009.76,852.33Zm-6-25.32c-1.79-7.42-3.24-13.76-4.3-19.46,11.75,10.49,22.1,19.5,31.5,27.43,1.93,4.93,4.33,10.51,6.66,15.92l2.29,5.37C1029.56,848.18,1017.67,838.56,1003.8,827Zm-5.12-24.21c-.89-5.57-2.21-11.68-3.88-18.78,8.65,8.49,17,16.57,24.92,24.07,1.39,3.36,2.92,6.92,4.4,10.37s3.06,7.11,4.48,10.55C1019.62,821.35,1009.78,812.73,998.68,802.8Zm-5.19-24.29c-.39-1.58-.78-3.17-1.16-4.76-1.18-4.82-2.38-9.76-3.46-14.52,6.31,7.09,12.61,14.14,19.15,21.41,1.87,4.62,4.09,9.74,6.25,14.7.83,1.92,1.68,3.87,2.51,5.8C1009.33,794,1001.52,786.44,993.49,778.51Zm-5.93-25.26c-1.09-5.15-2.67-11.22-4.89-18.72,4.62,6.31,9.06,12.39,13.45,18.4l1.29,2.92c2.4,5.48,4.86,11.07,7.13,16.43C998.81,765.88,993.21,759.6,987.56,753.25Zm-16.24-44.59c1,3.14,2.07,6.34,3.1,9.53l-13.92-19c-.92-6.61-2.39-14-3.94-21.42l10.81,18.73C968.66,700.51,970,704.58,971.32,708.66Zm-19.08-36.83c1.58,7.43,3.2,15,4.4,22.07-5.33-7.29-10.81-14.76-16.6-22.66a163.31,163.31,0,0,0-.37-22.74l12,20.86Zm-15-4.45-17.6-24a93.71,93.71,0,0,0,3.76-23.1l12.68,22A172.41,172.41,0,0,1,937.2,667.38Zm-19.87-27.12-17.2-23.5a66.22,66.22,0,0,0,7.22-24.24l13,22.58A85.77,85.77,0,0,1,917.33,640.26Zm-19.18-26.21L881.4,591.16A71.18,71.18,0,0,0,891.47,565l13.25,23A65.89,65.89,0,0,1,898.15,614.05Zm-36.79-50.3-17-23.25a91.26,91.26,0,0,0,15.51-30.22l13.54,23.46C871.09,545.49,867.13,555.33,861.36,563.75ZM842.51,538c-5.67-7.74-11.23-15.35-16.46-22.51A106.92,106.92,0,0,0,844.12,483l13.65,23.62A87.88,87.88,0,0,1,842.51,538Zm-48.88-136.3c-6.39,14-13,28.41-20.28,41.58l-15.6-21.36c5-9.79,10-19.9,14.77-29.69,2.88-5.89,5.86-11.95,8.83-17.92l13.84,24ZM620.39,602.26a74.75,74.75,0,0,0,16.21,3.59q-2.25,3.57-4.48,7.14c-7.47,11.92-15.18,24.24-23.09,35.92a40.37,40.37,0,0,1-16.15,1.41C598,641.89,603,633,607.78,624.39,611.86,617.06,616.07,609.49,620.39,602.26Zm-29.24,50.87a45.27,45.27,0,0,0,15.39-.48,471.69,471.69,0,0,0-25.29,44.14,47.7,47.7,0,0,1-17.44,4.49l1.8-3.3C573.78,683,582.23,667.53,591.15,653.13Zm-29,51.2a49.09,49.09,0,0,0,17-3.4c-4.53,8.9-9,18-13.33,26.85-3.22,6.58-6.55,13.37-9.87,20a48.24,48.24,0,0,1-20.07,6.31c4-7.37,7.88-14.89,11.69-22.2C552.3,722.8,557.2,713.41,562.14,704.33ZM534.2,757.22a52,52,0,0,0,19.45-4.86c-2.71,5.38-5.46,10.76-8.14,16-5,9.75-10.13,19.83-15.06,29.94a80,80,0,0,1-23.13,7.53c4.59-8.52,9.33-17,13.93-25.23C525.53,773,529.94,765.1,534.2,757.22Zm-28.64,51.89a79.25,79.25,0,0,0,22.81-6.52A530.81,530.81,0,0,0,507.23,852a103.42,103.42,0,0,1-27.62,7.43c7.4-15.64,15.47-30.75,23.29-45.39Zm-27.47,53.55a105,105,0,0,0,27.73-6.82c-5.17,14.12-10.67,28.07-16,41.57q-2.06,5.18-4.09,10.35a193,193,0,0,1-33.42,5.62c3.66-7.46,7.51-14.81,11.25-21.94C468.42,882.16,473.44,872.56,478.09,862.66ZM450.76,916.5a192.3,192.3,0,0,0,33.61-5.32c-7.51,19.16-13.76,35.8-19.46,53.4a332.34,332.34,0,0,1-39.66,3.26c4.84-10.69,10.12-21,15.26-31C443.91,930.22,447.41,923.39,450.76,916.5Zm-26.9,54.38a337,337,0,0,0,40-3.13c-5.74,17.57-12.05,34.28-19.67,53.66-14.79.86-30.19,1.14-45.84.86,3.14-6.41,6.39-12.76,9.56-18.93C413.3,992.9,418.83,982.11,423.86,970.88Zm-26.95,54.36c15.72.32,31.2.06,46.09-.76l-3.51,8.89c-5.63,14.23-11.44,28.92-16.86,43.83-16.36-.08-33.29-.43-51.61-1.09,4.45-9.38,9.23-18.53,13.87-27.38C388.89,1041.11,393,1033.24,396.91,1025.24Zm-27.3,53.82c18.45.67,35.48,1,51.93,1.13a546.48,546.48,0,0,1-22,50.75c-19.15,0-38.86-.67-55.94-1.29l1.87-3.5C353.61,1111,362,1095.33,369.61,1079.06Zm55.11,1.15c17.56,0,34.49-.24,50.39-.86-4.87,18.15-10.85,35-17.08,51.92-9.4,0-19-.09-28.22-.16-8.83-.07-17.93-.13-26.9-.16A538.69,538.69,0,0,0,424.72,1080.21Zm53.53-1c16.88-.71,33.16-1.84,48.48-3.34-3.43,20.25-7.13,38.1-11.27,54.45-15.44.67-32.3,1-54.24.94C467.45,1114.3,473.41,1097.47,478.25,1079.22Zm51.58-3.64c15.33-1.52,31.64-2.66,48.53-3.39-.17,2.21-.34,4.43-.5,6.64-1.29,17-2.63,34.55-5,50.45-22,0-38.89.26-54.32.91C522.72,1113.79,526.4,1095.89,529.83,1075.58Zm51,3.48q.25-3.49.53-7c15.92-.64,32.91-.94,50.54-.89.16,19.67.3,39.89-.6,58.42-9.27,0-18.7-.09-27.83-.16s-18.38-.13-27.56-.15C578.23,1113.39,579.57,1096,580.85,1079.06Zm54.07-7.87c16.51.09,33.59.45,52.11,1.13,1.68,18.68,3.43,39.89,3.55,58.61-17.11-.63-36.93-1.25-56.26-1.32C635.22,1111.06,635.08,1090.87,634.92,1071.19Zm118.52,62a572.45,572.45,0,0,0-7.07-58c19.17,1.16,36.89,2.4,54,3.8,3.38,17.65,7.07,37.7,9.12,55.3l-16-.29C780.41,1133.82,766.88,1133.57,753.44,1133.2Zm59.13,1.2c-2-17.53-5.68-37.46-9-55.11,19.17,1.58,37.27,3.32,55.2,5.3,3.8,17.43,7.68,35.37,10.5,51.69C849.18,1135.23,829.46,1134.73,812.57,1134.4Zm59.74,2c-2.79-16.24-6.64-34.07-10.43-51.5,19.23,2.16,38.3,4.62,56.74,7.32l1.5,6c3.48,13.89,7.07,28.22,9.65,41.07-9.5-.51-19.08-1-28.36-1.43C891.88,1137.44,882,1137,872.31,1136.44Zm60.55,3c-2.6-13.11-6.27-27.76-9.83-42l-1.2-4.79c19.7,2.92,39.42,6.22,58.65,9.83,4.42,15.43,8,28.89,10.79,41C974.08,1142,955.91,1140.75,932.86,1139.49Zm61.56,4.42c-2.79-12.08-6.29-25.45-10.65-40.74,19.23,3.58,38.92,6.87,58.59,9.78,4.19,12.6,7.36,23.86,10.42,35.12C1029.77,1146.81,1011.63,1145.52,994.42,1143.91Zm61.52,4.33c-3-11.19-6.16-22.36-10.26-34.81,18.41,2.68,37.43,5.12,56.62,7.26,3.81,9.72,7.32,19.48,11,30.44-9.4-.5-18.88-1-28.07-1.41C1075.61,1149.25,1065.72,1148.77,1055.94,1148.24Zm60.53,3.06c-3.6-10.92-7.07-20.62-10.81-30.24,17.85,2,35.88,3.68,55,5.25,4.33,9.21,8.13,17.75,11.79,26l.39.87C1156,1152.86,1136.36,1152.35,1116.47,1151.3Zm59.68,2-1-2.15c-3.46-7.81-7-15.87-11.09-24.52,17.06,1.37,34.68,2.6,53.75,3.74l13.89,24.05c-13-.35-26.15-.59-38.86-.81Zm-13.51-29.8c-2.59-5.51-4.93-10.71-7.18-15.74-1.6-3.57-3.25-7.25-5-11,17.61,2.75,35,5,51.74,6.56l13.85,24C1197.14,1126.07,1179.61,1124.84,1162.64,1123.46Zm-13.68-30c-1.75-3.79-3.41-7.43-5-11.08-2.32-5.1-4.71-10.38-7.38-16a474.92,474.92,0,0,0,50,9.81l13.8,23.9C1183.71,1098.41,1166.44,1096.18,1149,1093.41Zm-14.08-30.58c-3.09-6.43-5.79-12.39-8.39-18.15-1.3-2.86-2.6-5.73-3.94-8.66,18.39,6.21,34.25,10.48,48.37,13l13.74,23.79A484.78,484.78,0,0,1,1134.88,1062.83Zm-14.07-30.57c-2.08-4.49-4-8.82-5.9-13s-3.81-8.49-5.89-13c17.8,7.49,33,12.63,46.26,15.68l13.67,23.69C1154.91,1042.94,1139.12,1038.55,1120.81,1032.26Zm-13.69-30.07c-4.25-9-8-17.38-11.56-25.47,17.43,8.69,31.88,14.63,44.07,18.12l13.58,23.53C1140,1015.1,1124.86,1009.79,1107.12,1002.19Zm-13.48-29.79c-2.22-5-4.35-9.92-6.4-14.67q-1.93-4.47-3.92-9c15.77,8.74,29.11,15,40.66,19l13.46,23.33C1125.3,987.29,1110.92,981.16,1093.64,972.4Zm-12.32-28.24c-1.9-4.3-3.88-8.71-5.87-13.12-1.65-3.68-3.34-7.44-5-11.14,15.12,9.54,27.55,16.33,37.85,20.72l13.32,23.07C1110.18,959.38,1096.93,953,1081.32,944.16Zm-13-29.2-1.16-2.62c-2.92-6.67-5.93-13.51-8.58-19.87,13.4,9.25,24.6,16.16,34.12,21l13.11,22.71C1095.49,931.5,1083.17,924.5,1068.29,915Zm-11.85-27.61c-1.86-4.57-4-9.63-6.18-14.53-1-2.41-2.11-4.86-3.14-7.28,11.64,8.8,21.46,15.65,29.89,20.85l12.84,22.23A363.13,363.13,0,0,1,1056.44,887.35ZM1044.77,860c-1.38-3.33-2.89-6.85-4.36-10.27s-3.08-7.18-4.52-10.64c9.56,7.95,17.93,14.58,25.47,20.19l12.42,21.52C1065.5,875.41,1056,868.56,1044.77,860Zm-11.25-26.82c-1.93-4.91-4.32-10.49-6.64-15.9-.58-1.35-1.17-2.71-1.75-4.07,7.15,6.72,14,13.08,20.56,18.95l11.8,20.43C1050.34,847.08,1042.43,840.68,1033.52,833.17Zm-11.28-26.82c-1.62-3.92-3.45-8.13-5.22-12.21-1-2.23-2-4.5-2.92-6.74,5.12,5.68,10.38,11.49,15.93,17.62l10.74,18.6C1034.83,818.18,1028.62,812.4,1022.24,806.35ZM1010.59,779c-1.9-4.7-4.06-9.77-6.3-14.92l10.08,13.78,8.54,14.8Zm-11.85-27.6c-.37-.85-.76-1.71-1.14-2.57l2.81,4.85ZM750,320l13.91,24.09c-4.26,7.89-8.49,16-12.58,23.88-4.51,8.64-9.16,17.55-13.85,26.21L720.54,371Zm62.91,817.42c17,.34,36.75.84,56.84,1.9,3,17.75,4.2,31.59,3.81,42.2H814.18C815.37,1170.46,815,1156.33,812.91,1137.41Zm59.91,2.06c9.52.51,19.13,1,28.44,1.43,9.53.46,19.37.94,29.12,1.47,2.52,13,5.06,27.49,5.56,39.14H876.56C877,1170.84,875.72,1157.05,872.82,1139.47Zm60.64,3.06c23.09,1.26,41.27,2.56,58.51,4.17a350.74,350.74,0,0,1,6.33,34.81H938.94C938.47,1169.91,936.08,1156,933.46,1142.53Zm255,39c-1.81-4.12-3.56-8.15-5.3-12.17q-2.76-6.36-5.69-13l15.34.28c13.29.23,27,.48,40.67.86l13.9,24.08Zm-906.38-51.1c13.6.4,27.51.94,41,1.46l15.64.6c-4.67,8.69-9.51,17.34-14.2,25.72-4.26,7.61-8.66,15.46-12.91,23.32h-59Z"/></svg>