<svg id="Abstract_Shape" data-name="Abstract Shape" xmlns="http://www.w3.org/2000/svg" viewBox="0 0 1500 1500"><polygon points="1000.7 750 1250 727.58 997.9 727.64 1238.83 683.24 989.56 705.79 1216.74 640.4 975.87 684.92 1184.23 600 957.14 665.5 1142.01 562.95 933.78 647.97 1091.04 530.08 906.31 632.73 1032.45 502.13 875.35 620.1 967.55 479.71 841.59 610.37 897.79 463.33 805.79 603.76 824.73 453.35 768.74 600.42 750 450 731.26 600.42 675.27 453.35 694.21 603.76 602.21 463.33 658.41 610.37 532.45 479.71 624.65 620.1 467.55 502.13 593.69 632.73 408.96 530.08 566.22 647.97 357.99 562.95 542.86 665.5 315.77 600 524.13 684.92 283.26 640.4 510.44 705.79 261.17 683.24 502.1 727.64 250 727.58 499.3 750 250 772.42 502.1 772.36 261.17 816.76 510.44 794.21 283.26 859.6 524.13 815.08 315.77 900 542.86 834.5 357.99 937.05 566.22 852.03 408.96 969.92 593.69 867.27 467.55 997.87 624.65 879.9 532.45 1020.29 658.41 889.63 602.21 1036.67 694.21 896.24 675.27 1046.65 731.26 899.58 750 1050 768.74 899.58 824.73 1046.65 805.79 896.24 897.79 1036.67 841.59 889.63 967.55 1020.29 875.35 879.9 1032.45 997.87 906.31 867.27 1091.04 969.92 933.78 852.03 1142.01 937.05 957.14 834.5 1184.23 900 975.87 815.08 1216.74 859.6 989.56 794.21 1238.83 816.76 997.9 772.36 1250 772.42 1000.7 750"/></svg>