<svg id="Abstract_Shape" data-name="Abstract Shape" xmlns="http://www.w3.org/2000/svg" viewBox="0 0 1500 1500"><path d="M1004.64,752.5h197.43a2.5,2.5,0,0,0,0-5H1004.64a2.5,2.5,0,1,0,0,5Z"/><path d="M495.36,747.5H297.93a2.5,2.5,0,0,0,0,5H495.36a2.5,2.5,0,1,0,0-5Z"/><path d="M498.11,761a2.54,2.54,0,0,0-2.61-2.39L256.15,769.06a2.5,2.5,0,0,0,.11,5h.11l239.35-10.45A2.51,2.51,0,0,0,498.11,761Z"/><path d="M496.11,769.7,277,788.88a2.5,2.5,0,0,0,.22,5h.22l219.14-19.18a2.5,2.5,0,0,0-.44-5Z"/><path d="M500,782.91a2.49,2.49,0,0,0-2.81-2.15L261.28,811.82a2.5,2.5,0,0,0,.32,5l.33,0,235.92-31.06A2.51,2.51,0,0,0,500,782.91Z"/><path d="M498.77,791.76,319.05,823.45a2.5,2.5,0,0,0,.43,5,2.25,2.25,0,0,0,.44,0l179.72-31.69a2.5,2.5,0,1,0-.87-4.92Z"/><path d="M503.8,804.58a2.5,2.5,0,0,0-3-1.9L278.56,852a2.5,2.5,0,1,0,1.08,4.88L501.9,807.56A2.5,2.5,0,0,0,503.8,804.58Z"/><path d="M503.34,813.5,291.15,870.36a2.5,2.5,0,0,0,.64,4.92,2.37,2.37,0,0,0,.65-.09l212.2-56.86a2.5,2.5,0,0,0-1.3-4.83Z"/><path d="M353,875.16a2.51,2.51,0,0,0,2.39,1.75,2.45,2.45,0,0,0,.75-.12L507.84,829a2.5,2.5,0,0,0-1.5-4.77L354.68,872A2.51,2.51,0,0,0,353,875.16Z"/><path d="M334.91,903.58a2.6,2.6,0,0,0,.86-.15l175.74-64a2.5,2.5,0,1,0-1.71-4.7l-175.74,64a2.5,2.5,0,0,0,.85,4.85Z"/><path d="M517,846.51a2.49,2.49,0,0,0-3.26-1.35L289.47,938.05a2.5,2.5,0,1,0,1.91,4.62l224.26-92.89A2.5,2.5,0,0,0,517,846.51Z"/><path d="M521.43,856.58a2.49,2.49,0,0,0-3.32-1.2L306.16,954.21a2.5,2.5,0,0,0,1.06,4.76,2.54,2.54,0,0,0,1.06-.23l211.94-98.83A2.51,2.51,0,0,0,521.43,856.58Z"/><path d="M526.3,866.45a2.49,2.49,0,0,0-3.37-1.06L318.84,971.63a2.5,2.5,0,0,0,1.15,4.72,2.54,2.54,0,0,0,1.16-.28L525.24,869.82A2.5,2.5,0,0,0,526.3,866.45Z"/><path d="M530.68,879.51a2.5,2.5,0,1,0-2.5-4.33L338.85,984.49a2.5,2.5,0,1,0,2.5,4.33Z"/><path d="M533.86,884.73l-190.24,121.2a2.5,2.5,0,0,0,1.35,4.61,2.46,2.46,0,0,0,1.34-.4L536.55,889a2.5,2.5,0,1,0-2.69-4.22Z"/><path d="M543.44,894.64A2.49,2.49,0,0,0,540,894L341.78,1032.79a2.5,2.5,0,1,0,2.87,4.09L542.82,898.12A2.5,2.5,0,0,0,543.44,894.64Z"/><path d="M550,903.5a2.5,2.5,0,0,0-3.5-.46l-144,110.5a2.5,2.5,0,1,0,3.05,4L549.49,907A2.51,2.51,0,0,0,550,903.5Z"/><path d="M553.32,911.77,434.06,1011.84a2.5,2.5,0,0,0,1.61,4.42,2.42,2.42,0,0,0,1.6-.59L556.54,915.6a2.5,2.5,0,0,0-3.22-3.83Z"/><path d="M935.9,579.66a2.47,2.47,0,0,0,1.84.81,2.5,2.5,0,0,0,1.69-.66L1083.1,448.16a2.5,2.5,0,0,0-3.38-3.69L936.05,576.12A2.5,2.5,0,0,0,935.9,579.66Z"/><path d="M564.1,920.34a2.5,2.5,0,0,0-3.53-.15L416.9,1051.84a2.5,2.5,0,0,0,3.38,3.69L564,923.88A2.5,2.5,0,0,0,564.1,920.34Z"/><path d="M928.29,571.71a2.47,2.47,0,0,0,3.53,0L1066.51,437a2.5,2.5,0,0,0-3.53-3.53L928.29,568.18A2.49,2.49,0,0,0,928.29,571.71Z"/><path d="M571.71,928.29a2.49,2.49,0,0,0-3.53,0L433.49,1063a2.49,2.49,0,0,0,0,3.53,2.46,2.46,0,0,0,1.76.74,2.5,2.5,0,0,0,1.77-.74L571.71,931.82A2.49,2.49,0,0,0,571.71,928.29Z"/><path d="M920.19,560.58a2.49,2.49,0,1,0,3.68,3.37L1035.71,441.9a2.5,2.5,0,0,0-3.68-3.38Z"/><path d="M579.81,939.42a2.49,2.49,0,1,0-3.68-3.37l-111.84,122a2.49,2.49,0,0,0,.15,3.53,2.44,2.44,0,0,0,1.69.66,2.48,2.48,0,0,0,1.84-.81Z"/><path d="M913.68,557.44a2.49,2.49,0,0,0,1.91-.9l100.08-119.26a2.5,2.5,0,1,0-3.83-3.22L911.76,553.33a2.49,2.49,0,0,0,.31,3.52A2.47,2.47,0,0,0,913.68,557.44Z"/><path d="M488.16,1065.94,588.24,946.67a2.5,2.5,0,1,0-3.83-3.21L484.33,1062.72a2.5,2.5,0,0,0,1.91,4.11A2.48,2.48,0,0,0,488.16,1065.94Z"/><path d="M1014.43,405.39a2.49,2.49,0,0,0-3.5.46L903,546.46a2.5,2.5,0,0,0,4,3l107.89-140.61A2.49,2.49,0,0,0,1014.43,405.39Z"/><path d="M485.57,1094.61a2.49,2.49,0,0,0,3.5-.46L597,953.54a2.5,2.5,0,0,0-4-3L485.11,1091.11A2.49,2.49,0,0,0,485.57,1094.61Z"/><path d="M894.63,543.45a2.44,2.44,0,0,0,1.43.46,2.52,2.52,0,0,0,2.05-1.07l134-191.33a2.5,2.5,0,1,0-4.1-2.87L894,540A2.49,2.49,0,0,0,894.63,543.45Z"/><path d="M605.37,956.55a2.5,2.5,0,0,0-3.48.61l-134,191.33a2.51,2.51,0,0,0,.61,3.49,2.55,2.55,0,0,0,1.44.45,2.5,2.5,0,0,0,2-1.07L606,960A2.49,2.49,0,0,0,605.37,956.55Z"/><path d="M885.48,537.33a2.45,2.45,0,0,0,1.34.39,2.5,2.5,0,0,0,2.12-1.15l114.45-179.65a2.5,2.5,0,1,0-4.22-2.69L884.72,533.88A2.5,2.5,0,0,0,885.48,537.33Z"/><path d="M614.52,962.67a2.5,2.5,0,0,0-3.46.76L496.61,1143.08a2.5,2.5,0,1,0,4.22,2.69L615.28,966.12A2.5,2.5,0,0,0,614.52,962.67Z"/><path d="M957,391.51a2.49,2.49,0,0,0-3.41.92L875.17,528.2a2.51,2.51,0,0,0,.91,3.42,2.6,2.6,0,0,0,1.25.33,2.5,2.5,0,0,0,2.17-1.25l78.39-135.77A2.51,2.51,0,0,0,957,391.51Z"/><path d="M623.92,968.38a2.5,2.5,0,0,0-3.42.92l-78.39,135.77a2.51,2.51,0,0,0,.92,3.42,2.54,2.54,0,0,0,1.25.33,2.49,2.49,0,0,0,2.16-1.25L624.83,971.8A2.51,2.51,0,0,0,623.92,968.38Z"/><path d="M866.44,526.32a2.53,2.53,0,0,0,1.15.28,2.48,2.48,0,0,0,2.22-1.35L978,317.38a2.5,2.5,0,1,0-4.44-2.31L865.38,522.94A2.51,2.51,0,0,0,866.44,526.32Z"/><path d="M633.56,973.68a2.5,2.5,0,0,0-3.37,1.07L522,1182.62A2.5,2.5,0,0,0,523,1186a2.47,2.47,0,0,0,1.15.28,2.5,2.5,0,0,0,2.22-1.35L634.62,977.06A2.51,2.51,0,0,0,633.56,973.68Z"/><path d="M920.45,378.55,855.37,518.12a2.5,2.5,0,0,0,1.21,3.32,2.48,2.48,0,0,0,3.32-1.21L925,380.67a2.5,2.5,0,0,0-4.53-2.12Z"/><path d="M579.55,1121.45l65.08-139.57a2.5,2.5,0,1,0-4.53-2.11L575,1119.33a2.5,2.5,0,0,0,1.21,3.32,2.47,2.47,0,0,0,1,.24A2.5,2.5,0,0,0,579.55,1121.45Z"/><path d="M915.06,351.5a2.5,2.5,0,0,0-3.26,1.35L845.16,513.74a2.5,2.5,0,0,0,4.62,1.91l66.64-160.88A2.5,2.5,0,0,0,915.06,351.5Z"/><path d="M653.49,983a2.51,2.51,0,0,0-3.27,1.35l-66.64,160.88a2.5,2.5,0,0,0,1.36,3.27,2.44,2.44,0,0,0,.95.19,2.5,2.5,0,0,0,2.31-1.54l66.64-160.89A2.5,2.5,0,0,0,653.49,983Z"/><path d="M836.26,513a2.54,2.54,0,0,0,.85.15,2.5,2.5,0,0,0,2.35-1.65l82.13-225.65a2.5,2.5,0,1,0-4.69-1.71L834.76,509.8A2.51,2.51,0,0,0,836.26,513Z"/><path d="M663.74,987a2.5,2.5,0,0,0-3.2,1.5l-82.13,225.65a2.49,2.49,0,0,0,1.49,3.21,2.54,2.54,0,0,0,.85.15,2.49,2.49,0,0,0,2.35-1.65L665.24,990.2A2.51,2.51,0,0,0,663.74,987Z"/><path d="M825.84,509.47a2.43,2.43,0,0,0,.75.11,2.51,2.51,0,0,0,2.39-1.74l76.1-241.38a2.5,2.5,0,0,0-4.77-1.51l-76.1,241.38A2.5,2.5,0,0,0,825.84,509.47Z"/><path d="M674.16,990.53a2.51,2.51,0,0,0-3.14,1.63l-76.1,241.38a2.5,2.5,0,0,0,1.63,3.14,2.45,2.45,0,0,0,.75.12,2.52,2.52,0,0,0,2.39-1.75l76.1-241.38A2.5,2.5,0,0,0,674.16,990.53Z"/><path d="M856.49,342.92l-43,160.41a2.5,2.5,0,1,0,4.83,1.29l43-160.41a2.5,2.5,0,1,0-4.83-1.29Z"/><path d="M641.1,1158.93a2.49,2.49,0,0,0,2.41-1.85l43-160.41a2.5,2.5,0,1,0-4.83-1.29l-43,160.41a2.5,2.5,0,0,0,1.77,3.06A2.41,2.41,0,0,0,641.1,1158.93Z"/><path d="M804.59,503.78a2.49,2.49,0,0,0,3-1.9l52.48-236.74a2.5,2.5,0,0,0-4.88-1.08L802.69,500.8A2.5,2.5,0,0,0,804.59,503.78Z"/><path d="M695.41,996.22a2.49,2.49,0,0,0-3,1.9L640,1234.86a2.5,2.5,0,1,0,4.88,1.08L697.31,999.2A2.5,2.5,0,0,0,695.41,996.22Z"/><path d="M793.79,501.64a2.18,2.18,0,0,0,.44,0,2.5,2.5,0,0,0,2.46-2.07L832.59,296a2.5,2.5,0,1,0-4.92-.87L791.76,498.75A2.5,2.5,0,0,0,793.79,501.64Z"/><path d="M706.21,998.36a2.5,2.5,0,0,0-2.9,2L667.41,1204a2.5,2.5,0,0,0,2,2.9,3.42,3.42,0,0,0,.44,0,2.51,2.51,0,0,0,2.46-2.07l35.91-203.63A2.5,2.5,0,0,0,706.21,998.36Z"/><path d="M782.92,500l.33,0a2.5,2.5,0,0,0,2.47-2.17l30.56-232.14a2.5,2.5,0,1,0-4.95-.65L780.76,497.17A2.51,2.51,0,0,0,782.92,500Z"/><path d="M717.08,1000a2.49,2.49,0,0,0-2.8,2.15l-30.56,232.14a2.5,2.5,0,0,0,2.15,2.81l.33,0a2.49,2.49,0,0,0,2.47-2.18l30.57-232.13A2.51,2.51,0,0,0,717.08,1000Z"/><path d="M772,498.8h.22a2.51,2.51,0,0,0,2.49-2.29l13.42-153.47a2.5,2.5,0,1,0-5-.43L769.7,496.09A2.51,2.51,0,0,0,772,498.8Z"/><path d="M728,1001.2a2.5,2.5,0,0,0-2.71,2.28L711.89,1157a2.5,2.5,0,0,0,2.27,2.71h.22a2.51,2.51,0,0,0,2.49-2.29l13.43-153.47A2.51,2.51,0,0,0,728,1001.2Z"/><path d="M761,498.09h.11a2.51,2.51,0,0,0,2.5-2.39l7.55-173a2.5,2.5,0,0,0-2.39-2.61,2.53,2.53,0,0,0-2.61,2.39l-7.55,173A2.5,2.5,0,0,0,761,498.09Z"/><path d="M739,1001.91a2.53,2.53,0,0,0-2.61,2.39l-7.55,173a2.5,2.5,0,0,0,2.39,2.61h.11a2.51,2.51,0,0,0,2.5-2.39l7.55-173A2.5,2.5,0,0,0,739,1001.91Z"/><path d="M750,254.89a2.5,2.5,0,0,0-2.5,2.5v238a2.5,2.5,0,1,0,5,0v-238A2.5,2.5,0,0,0,750,254.89Z"/><path d="M750,1002.14a2.5,2.5,0,0,0-2.5,2.5v238a2.5,2.5,0,0,0,5,0v-238A2.5,2.5,0,0,0,750,1002.14Z"/><path d="M728.52,258a2.5,2.5,0,0,0-2.39,2.61L736.4,495.72a2.49,2.49,0,0,0,2.49,2.39H739a2.51,2.51,0,0,0,2.39-2.61L731.13,260.41A2.53,2.53,0,0,0,728.52,258Z"/><path d="M761,1001.89a2.51,2.51,0,0,0-2.39,2.61l10.26,235.09a2.51,2.51,0,0,0,2.5,2.39h.11a2.5,2.5,0,0,0,2.39-2.61L763.6,1004.28A2.54,2.54,0,0,0,761,1001.89Z"/><path d="M1228.73,898.32,993.67,824.21a2.5,2.5,0,1,0-1.51,4.77l235.07,74.11a2.45,2.45,0,0,0,.75.12,2.5,2.5,0,0,0,.75-4.89Z"/><path d="M1243.63,725.94l-239.35,10.45a2.5,2.5,0,0,0,.11,5h.11l239.35-10.45a2.5,2.5,0,0,0,2.39-2.61A2.53,2.53,0,0,0,1243.63,725.94Z"/><path d="M727.8,498.83H728a2.5,2.5,0,0,0,2.28-2.71l-13.81-157.8a2.5,2.5,0,0,0-5,.44l13.81,157.8A2.49,2.49,0,0,0,727.8,498.83Z"/><path d="M772,1001.18a2.5,2.5,0,0,0-2.28,2.71l13.81,157.8A2.49,2.49,0,0,0,786,1164h.22a2.5,2.5,0,0,0,2.27-2.71l-13.81-157.8A2.5,2.5,0,0,0,772,1001.18Z"/><path d="M1229.92,853.82,999.14,802.71a2.5,2.5,0,0,0-1.08,4.88l230.77,51.11a2.64,2.64,0,0,0,.55.06,2.5,2.5,0,0,0,.54-4.94Z"/><path d="M1003.77,730.33l219.3-19.17a2.5,2.5,0,1,0-.43-5l-219.31,19.16a2.5,2.5,0,0,0,.22,5Z"/><path d="M714.28,497.85a2.51,2.51,0,0,0,2.48,2.18l.33,0a2.5,2.5,0,0,0,2.15-2.81L686.65,249.67a2.5,2.5,0,1,0-4.95.66Z"/><path d="M785.72,1002.15a2.5,2.5,0,1,0-5,.65l32.59,247.53a2.5,2.5,0,0,0,2.47,2.17l.33,0a2.5,2.5,0,0,0,2.15-2.81Z"/><path d="M1000,717.09a2.5,2.5,0,0,0,2.48,2.17l.33,0,235.92-31.06a2.5,2.5,0,0,0-.65-5l-235.92,31.06A2.51,2.51,0,0,0,1000,717.09Z"/><path d="M1000.39,796.69l179.83,31.71a3.42,3.42,0,0,0,.44,0,2.5,2.5,0,0,0,.43-5l-179.84-31.71a2.5,2.5,0,0,0-.86,4.93Z"/><path d="M703.32,499.64a2.5,2.5,0,0,0,2.46,2.07,3.13,3.13,0,0,0,.43,0,2.5,2.5,0,0,0,2-2.9L677.36,323.62a2.5,2.5,0,0,0-4.93.87Z"/><path d="M796.68,1000.36a2.5,2.5,0,1,0-4.92.87l30.88,175.15a2.5,2.5,0,0,0,2.46,2.06,3.25,3.25,0,0,0,.44,0,2.5,2.5,0,0,0,2-2.9Z"/><path d="M1000.79,708.28a2.18,2.18,0,0,0,.44,0L1181,676.55a2.5,2.5,0,1,0-.87-4.92l-179.72,31.69a2.5,2.5,0,0,0,.43,5Z"/><path d="M1197.28,811.39a2.5,2.5,0,0,0,.33-5l-194.79-25.65a2.5,2.5,0,0,0-.65,5L1197,811.36Z"/><path d="M692.44,501.9a2.5,2.5,0,0,0,2.44,2,2.55,2.55,0,0,0,.54-.06,2.5,2.5,0,0,0,1.9-3L655,309.78a2.5,2.5,0,0,0-4.89,1.08Z"/><path d="M807.56,998.1a2.5,2.5,0,0,0-4.88,1.08l42.35,191a2.51,2.51,0,0,0,2.44,2,2.64,2.64,0,0,0,.55-.06,2.51,2.51,0,0,0,1.9-3Z"/><path d="M996.2,695.42a2.51,2.51,0,0,0,2.44,2,2.48,2.48,0,0,0,.54-.06L1221.44,648a2.5,2.5,0,1,0-1.08-4.88L998.1,692.44A2.5,2.5,0,0,0,996.2,695.42Z"/><path d="M1003.48,774.69l193.16,16.9h.22a2.5,2.5,0,0,0,.22-5l-193.17-16.9a2.5,2.5,0,1,0-.43,5Z"/><path d="M681.67,504.64a2.5,2.5,0,0,0,4.83-1.3L639.09,326.4a2.5,2.5,0,1,0-4.83,1.3Z"/><path d="M818.33,995.36a2.5,2.5,0,0,0-4.83,1.3l47.41,176.94a2.51,2.51,0,0,0,2.42,1.85,3,3,0,0,0,.65-.08,2.5,2.5,0,0,0,1.76-3.07Z"/><path d="M1208.85,629.64a2.5,2.5,0,0,0-1.29-4.83l-212.2,56.86a2.5,2.5,0,0,0,.65,4.91,3,3,0,0,0,.65-.08Z"/><path d="M1004.3,763.61l188.93,8.24h.11a2.5,2.5,0,0,0,.11-5l-188.93-8.25a2.5,2.5,0,1,0-.22,5Z"/><path d="M671,507.84a2.49,2.49,0,0,0,2.38,1.75,2.78,2.78,0,0,0,.75-.11,2.51,2.51,0,0,0,1.64-3.14L623.19,339.48a2.5,2.5,0,1,0-4.77,1.51Z"/><path d="M829,992.16a2.5,2.5,0,1,0-4.77,1.5l52.61,166.86a2.52,2.52,0,0,0,2.39,1.75,2.45,2.45,0,0,0,.75-.12,2.5,2.5,0,0,0,1.63-3.14Z"/><path d="M660.54,511.51a2.5,2.5,0,0,0,2.35,1.65,2.54,2.54,0,0,0,.85-.15,2.51,2.51,0,0,0,1.5-3.21L588.32,298.47a2.5,2.5,0,0,0-4.7,1.71Z"/><path d="M839.46,988.49a2.5,2.5,0,1,0-4.7,1.71l76.92,211.33a2.51,2.51,0,0,0,2.35,1.64,2.64,2.64,0,0,0,.86-.15,2.5,2.5,0,0,0,1.49-3.2Z"/><path d="M992.86,676a2.45,2.45,0,0,0,.75-.12L1145.38,628a2.5,2.5,0,0,0-1.51-4.77L992.11,671.08a2.5,2.5,0,0,0,.75,4.89Z"/><path d="M946.62,588.28l119.3-100.13a2.5,2.5,0,1,0-3.22-3.83L943.4,584.45a2.5,2.5,0,0,0,1.61,4.42A2.47,2.47,0,0,0,946.62,588.28Z"/><path d="M989.21,665.41a2.33,2.33,0,0,0,.85-.16l175.89-64a2.5,2.5,0,1,0-1.71-4.7l-175.89,64a2.51,2.51,0,0,0,.86,4.86Z"/><path d="M650.22,515.64a2.51,2.51,0,0,0,2.31,1.55,2.54,2.54,0,0,0,1-.2,2.49,2.49,0,0,0,1.35-3.26L569.29,307.19a2.5,2.5,0,1,0-4.62,1.91Z"/><path d="M849.78,984.36a2.5,2.5,0,0,0-4.62,1.91l85.55,206.54a2.5,2.5,0,1,0,4.62-1.91Z"/><path d="M983,653.49a2.49,2.49,0,0,0,2.31,1.54,2.44,2.44,0,0,0,.95-.19L1210.53,562a2.5,2.5,0,0,0-1.91-4.62L984.36,650.22A2.5,2.5,0,0,0,983,653.49Z"/><path d="M640.09,520.22a2.51,2.51,0,0,0,2.27,1.44,2.54,2.54,0,0,0,1.06-.23,2.49,2.49,0,0,0,1.2-3.32L559.89,336.39a2.5,2.5,0,1,0-4.53,2.11Z"/><path d="M859.91,979.78a2.5,2.5,0,1,0-4.53,2.11l84.73,181.72a2.52,2.52,0,0,0,2.27,1.45,2.55,2.55,0,0,0,1.06-.24,2.49,2.49,0,0,0,1.2-3.32Z"/><path d="M978.57,643.42a2.52,2.52,0,0,0,2.27,1.44,2.47,2.47,0,0,0,1-.24l211.95-98.83a2.5,2.5,0,1,0-2.12-4.53L979.78,640.09A2.51,2.51,0,0,0,978.57,643.42Z"/><path d="M630.18,525.24a2.5,2.5,0,1,0,4.43-2.31L559.42,378.49A2.5,2.5,0,0,0,555,380.8Z"/><path d="M869.82,974.76a2.5,2.5,0,0,0-4.43,2.31l75.19,144.44a2.49,2.49,0,0,0,2.22,1.35,2.39,2.39,0,0,0,1.15-.29,2.5,2.5,0,0,0,1.06-3.37Z"/><path d="M973.7,633.55a2.48,2.48,0,0,0,3.37,1.06l204.09-106.24a2.5,2.5,0,1,0-2.31-4.44L974.76,630.18A2.5,2.5,0,0,0,973.7,633.55Z"/><path d="M620.49,530.68a2.52,2.52,0,0,0,3.42.92,2.51,2.51,0,0,0,.91-3.42L543.77,387.8a2.5,2.5,0,1,0-4.33,2.5Z"/><path d="M879.51,969.32a2.5,2.5,0,1,0-4.33,2.5l81.05,140.38a2.5,2.5,0,0,0,2.17,1.25,2.6,2.6,0,0,0,1.25-.33,2.51,2.51,0,0,0,.91-3.42Z"/><path d="M969.32,620.49a2.5,2.5,0,1,0,2.5,4.33l189.33-109.31a2.5,2.5,0,1,0-2.5-4.33Z"/><path d="M611.05,536.55a2.51,2.51,0,0,0,2.11,1.16,2.57,2.57,0,0,0,1.35-.39,2.5,2.5,0,0,0,.76-3.45L481.6,324.05a2.5,2.5,0,1,0-4.21,2.69Z"/><path d="M889,963.45a2.5,2.5,0,1,0-4.22,2.68L1018.4,1176a2.48,2.48,0,0,0,2.11,1.16,2.5,2.5,0,0,0,2.1-3.85Z"/><path d="M964.79,615.66a2.48,2.48,0,0,0,1.35-.39l190.24-121.2a2.5,2.5,0,0,0-2.69-4.21L963.45,611.05a2.5,2.5,0,0,0,1.34,4.61Z"/><path d="M512.43,410.72a2.5,2.5,0,0,0-.61,3.48l90.06,128.62A2.5,2.5,0,1,0,606,540L515.91,411.33A2.5,2.5,0,0,0,512.43,410.72Z"/><path d="M894.64,956.56A2.5,2.5,0,0,0,894,960l90.07,128.63a2.5,2.5,0,1,0,4.09-2.87L898.12,957.18A2.49,2.49,0,0,0,894.64,956.56Z"/><path d="M956.56,605.36A2.5,2.5,0,0,0,960,606l198.18-138.77a2.5,2.5,0,1,0-2.87-4.09L957.18,601.88A2.5,2.5,0,0,0,956.56,605.36Z"/><path d="M593,549.49a2.5,2.5,0,0,0,4-3L474.26,386.54a2.5,2.5,0,0,0-4,3Z"/><path d="M907,950.51a2.5,2.5,0,0,0-4,3l122.7,159.91a2.5,2.5,0,0,0,4-3Z"/><path d="M950.05,596.5a2.51,2.51,0,0,0,3.5.46l144-110.5a2.5,2.5,0,1,0-3-4L950.51,593A2.51,2.51,0,0,0,950.05,596.5Z"/><path d="M584.4,556.54a2.53,2.53,0,0,0,1.92.89,2.46,2.46,0,0,0,1.6-.59,2.49,2.49,0,0,0,.31-3.52l-140.8-167.8a2.5,2.5,0,1,0-3.83,3.22Z"/><path d="M915.6,943.46a2.5,2.5,0,0,0-3.83,3.22l140.8,167.8a2.51,2.51,0,0,0,3.52.31,2.51,2.51,0,0,0,.31-3.53Z"/><path d="M995.38,818.34l227.4,60.93a2.49,2.49,0,0,0,3.07-1.77,2.51,2.51,0,0,0-1.77-3.06L996.67,813.51a2.5,2.5,0,1,0-1.29,4.83Z"/><path d="M576.12,564a2.5,2.5,0,0,0,3.69-3.38L421.49,387.79a2.5,2.5,0,0,0-3.69,3.38Z"/><path d="M923.88,936.05a2.5,2.5,0,0,0-3.69,3.38l158.32,172.78a2.5,2.5,0,0,0,3.69-3.38Z"/><path d="M568.18,571.71a2.5,2.5,0,0,0,3.53-3.53L396.54,393a2.5,2.5,0,1,0-3.53,3.53Z"/><path d="M931.82,928.29a2.5,2.5,0,0,0-3.53,3.53L1103.46,1107a2.45,2.45,0,0,0,1.76.73,2.5,2.5,0,0,0,1.77-4.26Z"/><path d="M560.58,579.81a2.49,2.49,0,1,0,3.37-3.68L388.38,415.25a2.5,2.5,0,0,0-3.38,3.68Z"/><path d="M939.42,920.19a2.49,2.49,0,1,0-3.37,3.68l175.57,160.88a2.49,2.49,0,0,0,3.53-.15,2.49,2.49,0,0,0-.15-3.53Z"/><path d="M556.54,584.41,413.77,464.61a2.5,2.5,0,1,0-3.21,3.83l142.77,119.8a2.51,2.51,0,0,0,1.61.58,2.5,2.5,0,0,0,1.6-4.41Z"/><path d="M1086.23,1035.39a2.49,2.49,0,0,0,3.52-.3,2.51,2.51,0,0,0-.31-3.53L946.67,911.76a2.5,2.5,0,0,0-3.21,3.83Z"/><path d="M427.06,499.05a2.5,2.5,0,0,0-3,4l122.44,94a2.49,2.49,0,0,0,3.5-.46,2.5,2.5,0,0,0-.46-3.51Z"/><path d="M1076,997,953.54,903a2.5,2.5,0,0,0-3,4l122.44,94a2.49,2.49,0,0,0,3.5-.46A2.5,2.5,0,0,0,1076,997Z"/><path d="M340.72,466.47,540,606a2.54,2.54,0,0,0,1.43.45,2.5,2.5,0,0,0,1.44-4.55L343.59,462.38a2.5,2.5,0,1,0-2.87,4.09Z"/><path d="M1159.28,1033.53,960,894a2.5,2.5,0,0,0-2.87,4.1l199.25,139.51a2.5,2.5,0,1,0,2.87-4.09Z"/><path d="M536.57,611.07,359.36,498.17a2.5,2.5,0,1,0-2.68,4.22l177.2,112.89a2.51,2.51,0,0,0,3.45-.76A2.49,2.49,0,0,0,536.57,611.07Z"/><path d="M963.43,888.93l177.21,112.9a2.5,2.5,0,0,0,2.68-4.22L966.12,884.72a2.5,2.5,0,1,0-2.69,4.21Z"/><path d="M373.71,529.87a2.48,2.48,0,0,0-3.41.91,2.51,2.51,0,0,0,.91,3.42l157,90.63a2.5,2.5,0,1,0,2.5-4.33Z"/><path d="M1128.79,965.8l-157-90.63a2.5,2.5,0,1,0-2.5,4.33l157,90.63a2.44,2.44,0,0,0,1.24.34,2.5,2.5,0,0,0,1.26-4.67Z"/><path d="M328.94,533.63l194,101a2.54,2.54,0,0,0,1.16.28,2.49,2.49,0,0,0,1.15-4.71l-194-101a2.5,2.5,0,0,0-2.31,4.44Z"/><path d="M1171.06,966.37l-194-101a2.5,2.5,0,1,0-2.31,4.43l194,101a2.53,2.53,0,0,0,1.15.28,2.5,2.5,0,0,0,1.16-4.72Z"/><path d="M363.2,566.87a2.5,2.5,0,0,0-2.11,4.54l157,73.22a2.48,2.48,0,0,0,3.32-1.21,2.5,2.5,0,0,0-1.21-3.32Z"/><path d="M978.56,856.58a2.5,2.5,0,0,0,1.21,3.32l157,73.23a2.51,2.51,0,0,0,3.32-1.21,2.5,2.5,0,0,0-1.21-3.33l-157-73.22A2.5,2.5,0,0,0,978.56,856.58Z"/><path d="M304,568l209.78,86.89a2.44,2.44,0,0,0,1,.19,2.5,2.5,0,0,0,1-4.81L305.88,563.33A2.5,2.5,0,1,0,304,568Z"/><path d="M1196,932.05,986.26,845.16a2.5,2.5,0,0,0-1.91,4.62l209.77,86.89a2.5,2.5,0,0,0,1.92-4.62Z"/><path d="M511.51,660.54,329.32,594.23a2.5,2.5,0,1,0-1.71,4.69L509.8,665.24a2.64,2.64,0,0,0,.86.15,2.5,2.5,0,0,0,.85-4.85Z"/><path d="M988.49,839.46l182.19,66.31a2.33,2.33,0,0,0,.85.16,2.5,2.5,0,0,0,.86-4.85L990.2,834.76a2.5,2.5,0,1,0-1.71,4.7Z"/><path d="M271.27,601.68l235.06,74.11a2.5,2.5,0,0,0,1.51-4.77L272.77,596.91a2.5,2.5,0,0,0-1.5,4.77Z"/><path d="M506.39,684.73a2.5,2.5,0,0,0-1.77-3.07l-227.4-60.93a2.5,2.5,0,1,0-1.3,4.83l227.41,60.93a2.43,2.43,0,0,0,.65.09A2.51,2.51,0,0,0,506.39,684.73Z"/><path d="M270.05,646.16,500.8,697.31a2.5,2.5,0,1,0,1.08-4.88L271.13,641.28a2.5,2.5,0,1,0-1.08,4.88Z"/><path d="M501.64,706.21a2.5,2.5,0,0,0-2-2.9L319.78,671.6a2.5,2.5,0,1,0-.87,4.93l179.84,31.71a3.11,3.11,0,0,0,.43,0A2.5,2.5,0,0,0,501.64,706.21Z"/><path d="M500,717.08a2.49,2.49,0,0,0-2.15-2.8L303.05,688.64a2.5,2.5,0,1,0-.66,5l194.79,25.65.33,0A2.51,2.51,0,0,0,500,717.08Z"/><path d="M496.52,725.31l-193.16-16.9a2.5,2.5,0,0,0-.44,5l193.17,16.9h.22a2.5,2.5,0,0,0,.21-5Z"/><path d="M495.7,736.39l-188.93-8.24a2.53,2.53,0,0,0-2.6,2.38,2.49,2.49,0,0,0,2.38,2.61l188.93,8.25h.11a2.5,2.5,0,0,0,.11-5Z"/></svg>