<svg id="Abstract_Shape" data-name="Abstract Shape" xmlns="http://www.w3.org/2000/svg" viewBox="0 0 1500 1500"><path d="M1248.75,697.06l-8.07-51.44-13.1-49.52-17.89-47.41-22.34-45-26.6-42.21-30.57-39.24-34.18-36-37.64-32.45-40.72-28.61-43.58-24.57-46.13-20.2-48.48-15.53L829,254.28l-52.23-5.77h-.09l-53.28.29-52.18,5.47L620.7,264.88,572.22,280.4l-46.14,20.18-43.6,24.56-40.72,28.6-37.65,32.44-34.19,36-30.59,39.23-26.6,42.2-22.36,44.95L272.47,596l-13.12,49.52-8.08,51.43-2.77,53V750l2.75,52.94,8.07,51.44,13.1,49.52,17.89,47.41,22.34,45,26.6,42.21,30.57,39.24,34.18,36,37.64,32.45,40.72,28.61,43.58,24.57,46.13,20.2,48.48,15.53L671,1245.72l52.23,5.77h.09l53.28-.29,52.18-5.47,50.49-10.62,48.48-15.52,46.14-20.18,43.6-24.56,40.72-28.6,37.65-32.44,34.19-36,30.59-39.23,26.6-42.2,22.36-44.95,17.9-47.39,13.12-49.52,8.08-51.43,2.77-53V750Zm-3.25-1.38-121.11,3-5.67-45.32,119.21-5.93ZM874.08,662.54,871,624.75,987,616l6.11,40.6Zm119.42-2.95,3.76,42.27-121.12,3-1.87-39.32Zm-241.47,9,0-34.9L868,625l3,37.71Zm119.24-2.94,1.87,39.24L752,708V671.62ZM752,630.72V597.5L863.6,586.05,867.75,622Zm0-36.24V563.14l106.11-14,5.11,33.94Zm0-34.36,0-29.27,99.56-16.38,6.1,31.7Zm-.05-32.31v-27l92-18.55,6.92,29.28Zm0-30.07,0-24.46,83.58-20.56,7.72,26.62Zm0-27.55,0-21.75,74.31-22.37,8.4,23.79Zm-.06-24.88,0-18.85,64.32-23.87L825,423.27Zm0-22,0-15.64,53.65-25.16,9.41,17.41Zm-.06-18.94,0-12.25L794,366l9.72,14Zm0-15.77v-8.47l30.59-26.88,9.86,10.41Zm0-12.45,0-4.39,18.52-27.26,9.78,6.81Zm-.07-9.67,6.18-27,9.68,3.66Zm-1.65-6.25-4.73-20.85,9.58-.35Zm-1.74,5.87L732.6,343.15l9.64-3.29Zm.21,5.66,0,4.39-28.27-24.84,9.78-6.81Zm0,8.36,0,8.49-40.41-24.95,9.86-10.41Zm.32,12.24,0,12.22-52.46-24.63L706,366Zm-.42,15.31v15.64l-63-23.39,9.41-17.41Zm0,18.83,0,18.85-73.21-22,8.93-20.68Zm-.05,22,0,21.75-82.66-20.33,8.4-23.79Zm0,24.84,0,24.46-91.25-18.4,7.72-26.62Zm0,27.52v27l-98.94-16.28,6.92-29.28Zm0,30.05,0,29.27-105.61-14,6.09-31.7ZM748,563.14v31.34L636.8,583.07l5.1-33.94Zm0,34.36,0,33.22L632.25,622l4.15-35.94Zm0,36.22v34.9l-119.05-5.93L632,625Zm0,37.9V708l-121.11-3,1.87-39.24ZM748,711V748.5H626.13l.64-40.58Zm0,40.54V789l-121.2,3-.64-40.58ZM748,792v36.34l-119.24,5.94-1.87-39.24Zm0,39.34v34.9L632,875l-3-37.71Zm0,37.9,0,33.22L636.4,914,632.25,878Zm0,36.24v31.34l-106.11,14-5.11-33.94Zm0,34.36,0,29.27-99.56,16.38-6.1-31.7Zm.05,32.31v27l-92,18.55-6.92-29.28Zm0,30.07,0,24.46-83.58,20.56-7.72-26.62Zm0,27.55,0,21.75-74.31,22.37-8.4-23.79Zm.06,24.88,0,18.85-64.32,23.87L675,1076.73Zm0,22v15.64l-53.6,25.16-9.41-17.41Zm0,19,0,12.24L706,1134.05l-9.72-14Zm.06,15.75,0,8.53-30.59,26.83-9.86-10.41Zm.06,12.5,0,4.35-18.52,27.26-9.78-6.81Zm.07,9.63-6.18,27-9.68-3.66Zm1.63,6.34,4.74,20.76-9.57.35Zm1.69-6.08,15.65,23-9.64,3.29Zm-.36-5.86,0-4.27,28.55,25-9.78,6.81Zm0-8.28,0-8.46,40.81,25.16-9.86,10.41Zm-.06-12,0-12.22,52.52,24.63-9.72,14Zm.43-15.31,0-15.64,63,23.39-9.41,17.41Zm.06-18.83,0-18.85,73.21,22-8.93,20.68Zm.05-22,0-21.75,82.66,20.33-8.4,23.79Zm0-24.84,0-24.46,91.25,18.4-7.72,26.62Zm0-27.52v-27l98.94,16.28-6.92,29.28Zm0-30.05,0-29.27,105.61,14-6.09,31.7Zm.05-32.29V905.52L863.2,916.93l-5.1,33.94Zm0-34.36V869.28L867.75,878,863.6,914Zm0-36.22,0-34.9,119.05,5.93L868,875Zm0-37.9V792l121.11,3-1.87,39.24ZM752,789V751.5H873.87l-.64,40.58Zm0-40.54V711l121.2-3,.64,40.58ZM870.74,621.77l-4.16-36,111.64-11.4,8.26,38.7Zm-4.55-39-5.12-34,106.08-14,10.33,36.62Zm-5.63-37L854.45,514,954,497.61l12.24,34.26ZM853.83,511l-7-29.38,91.94-18.58,14,31.68Zm-7.71-32.29L838.37,452l83.47-20.53,15.59,28.83Zm-8.67-29.61L829,425.21l74.22-22.28,17,25.86Zm-9.53-26.74-9-20.85,64.15-23.81,18.25,22.64Zm-10.31-23.57-9.53-17.63,53.4-25.05,19.35,19.22Zm-11.1-20.21-9.91-14.25,42.07-26L858.93,354ZM794.71,362,784.5,351.23l30.26-26.55,21.06,11.94Zm-12.47-12.78L771.82,342,790,315.32l21.74,8.06Zm-13.07-8.69-10.75-4.06,6-26.44,22.45,4.49ZM755.46,336l-10.94.4-6-26.18,22.86-.37Zm-13.89,1-10.72,3.65-17.7-26,22.37-4.12ZM728.18,342l-10.42,7.25L688.3,323.38,710,315.32Zm-12.68,9.25L705.29,362l-41.11-25.39,21.06-11.94Zm-12.1,13.14-9.91,14.25L641.07,354l20.26-15.65ZM691.92,381.2l-9.53,17.63-63.22-23.46,19.35-19.22Zm-10.83,20.35-9,20.85-73.39-22,18.25-22.64ZM671,425.21l-8.44,23.93L579.8,428.79l17-25.86ZM661.63,452l-7.75,26.75L562.57,460.3l15.59-28.83Zm-8.51,29.66-7,29.38-99-16.28,14-31.68ZM645.55,514l-6.11,31.8L533.8,531.87,546,497.61Zm-6.62,34.76-5.12,34L522.52,571.4l10.33-36.62Zm-5.51,37-4.16,36L513.52,613l8.25-38.7Zm-4.45,39-3.05,37.79-119.06-5.93L513,616Zm-3.24,40.78-1.87,39.32-121.11-3,3.75-42.27Zm-2,42.32-.64,40.65H501.28l1.28-43.65Zm-.64,43.65.64,40.65-121.2,3-1.29-43.65Zm.73,43.65,1.87,39.32L506.5,840.41l-3.76-42.27Zm2.06,42.31L629,875.25,513,884l-6.11-40.6Zm3.34,40.77,4.16,36-111.64,11.4L513.52,887Zm4.55,39,5.12,34-106.08,14L522.52,928.6Zm5.63,37,6.11,31.8L546,1002.39,533.8,968.13ZM646.17,989l7,29.38-91.94,18.58-14-31.68Zm7.71,32.29,7.76,26.75-83.48,20.58-15.59-28.88Zm8.67,29.61,8.44,23.93-74.23,22.28-17-25.81Zm9.53,26.74,9,20.85-64.15,23.86-18.25-22.68Zm10.31,23.57,9.53,17.63-53.4,25-19.35-19.17Zm11.1,20.21,9.91,14.25-42.07,26L641.07,1146Zm11.8,16.61,10.21,10.78-30.26,26.55-21.06-11.94Zm12.47,12.78,10.42,7.25L710,1184.68l-21.74-8.06Zm13.07,8.69,10.75,4.06-6,26.44-22.45-4.49Zm13.71,4.58,10.94-.4,5.94,26.18-22.82.37Zm13.89-1,10.72-3.65,17.7,26-22.42,4.12Zm13.39-5.06,10.42-7.25,29.46,25.85L790,1184.68Zm12.68-9.25L794.71,1138l41.11,25.39-21.06,11.94Zm12.1-13.14,9.91-14.25L858.93,1146l-20.26,15.65Zm11.48-16.83,9.53-17.63,63.22,23.51-19.35,19.17Zm10.83-20.35,9-20.85,73.39,22-18.25,22.68Zm10.1-23.66,8.44-23.93,82.74,20.4-17,25.81Zm9.36-26.79,7.75-26.75,91.31,18.45-15.59,28.88Zm8.51-29.66,7-29.38,99,16.28-14,31.68ZM854.45,986l6.11-31.8L966.2,968.13,954,1002.39Zm6.62-34.76,5.12-34L977.48,928.6l-10.33,36.62Zm5.51-37,4.16-36L986.48,887l-8.25,38.7Zm4.45-39,3.05-37.79,119.06,5.93L987,884Zm3.24-40.78,1.87-39.32,121.11,3-3.75,42.27Zm2-42.32.64-40.65H998.72l-1.28,43.65Zm.64-43.65-.64-40.65,121.2-3,1.29,43.65ZM996.5,659.44l119.22-5.94,5.65,45.24-121.11,3Zm-.35-3L990,615.78,1106,607l9.16,43.49Zm-6.65-43.65L981.22,574l111.55-11.45,12.5,41.51Zm-9-41.72-10.36-36.71,106-14,15.56,39.25Zm-11.26-39.62L957,497.12l99.4-16.31,18.47,36.77Zm-13.39-37.21-14-31.79,91.79-18.5L1054.76,478ZM940.5,459.68l-15.65-28.95,83.28-20.53,23.58,31.09ZM923.28,428l-17-26,73.93-22.26,25.75,27.88Zm-18.87-28.58L886,376.64l63.8-23.74,27.79,24.51Zm-20.48-25.22-19.56-19.43,53-24.89L947,350.76ZM862,352.6,841.4,336.7l41.66-25.77,31.17,17.14Zm-23.25-17.78-21.58-12.23,29.91-26.23,32.65,13.12Zm-24.47-13.69-22.56-8.36,18-26.44,34,9Zm-25.56-9.29-23.61-4.73,6-26.29,35.31,4.94Zm-26.61-5-24.24.39L731.92,281l36.15-.35Zm-27.24.72-23.54,4.33-17.72-26.07,35.29-4.59Zm-26.55,5.25-22.56,8.36-29.4-25.78,34-9Zm-25.45,9.82-21.58,12.23-41-25.34,32.65-13.12ZM658.6,336.7,638,352.6l-52.25-24.53,31.17-17.14Zm-23,18.09-19.55,19.43-63-23.46,29.57-20.86ZM614,376.64l-18.39,22.8-73.2-22,27.79-24.51ZM593.77,402l-17,26L494,407.66l25.8-27.89Zm-18.62,28.7L559.5,459.68l-91.22-18.39,23.53-31.09Zm-17,31.74-14,31.79L445.24,478,466.37,444ZM543,497.12l-12.28,34.35L425.16,517.58l18.47-36.77Zm-13.18,37.26-10.36,36.71L408.28,559.68l15.56-39.25ZM518.78,574l-8.27,38.78-115.78-8.72,12.5-41.51ZM510,615.78l-6.11,40.68L384.8,650.53,394,607Zm-6.47,43.66-3.76,42.34-121.11-3,5.65-45.24Zm-3.93,45.34-1.29,43.72H376.43l1.94-46.76Zm-1.29,46.72,1.29,43.72-121.2,3-1.94-46.76Zm1.46,46.72,3.76,42.34L384.28,846.5l-5.65-45.24Zm4.11,45.32L510,884.22,394,893l-9.16-43.49Zm6.65,43.65L518.78,926,407.23,937.42l-12.5-41.51Zm9,41.72,10.36,36.71-106,14-15.56-39.25Zm11.26,39.62L543,1002.88l-99.4,16.31-18.47-36.77Zm13.39,37.21,14,31.79L466.37,1056,445.24,1022Zm15.36,34.58,15.65,29-83.34,20.48-23.53-31.09Zm17.22,31.7,17,26-73.93,22.26L494,1092.35Zm18.87,28.54L614,1123.41l-63.8,23.69-27.79-24.51Zm20.49,25.27,19.55,19.38-53,24.94-29.57-20.91ZM638,1147.41l20.58,15.89-41.66,25.77L585.77,1172Zm23.25,17.77,21.58,12.23-29.91,26.23-32.65-13.12Zm24.47,13.69,22.56,8.36-18,26.44-34-9Zm25.56,9.29,23.61,4.73-6,26.29-35.31-4.94Zm26.61,5,24.18-.39,6,26.18-36.15.35Zm27.19-.72,23.59-4.33,17.72,26.07-35.3,4.59Zm26.6-5.25,22.56-8.36,29.4,25.78-34,9Zm25.45-9.82,21.58-12.23,41,25.34-32.65,13.12Zm24.25-14.11L862,1147.41,914.23,1172l-31.17,17.09Zm23-18.09,19.55-19.38,63,23.41-29.57,20.91Zm21.65-21.8,18.39-22.85,73.2,22-27.79,24.51ZM906.23,1098l17-26,82.63,20.33-25.75,27.88Zm18.62-28.65,15.65-29,91.21,18.39-23.58,31.09Zm17-31.79,14-31.79,98.9,16.23L1033.63,1056ZM957,1002.88l12.28-34.35,105.59,13.89-18.47,36.77Zm13.18-37.26,10.36-36.71,111.21,11.41-15.56,39.25ZM981.22,926l8.27-38.78,115.78,8.72-12.5,41.51ZM990,884.22l6.11-40.68,119.06,5.93L1106,893Zm6.47-43.66,3.76-42.34,121.11,3-5.65,45.24Zm3.93-45.34,1.29-43.72h121.85l-1.94,46.76Zm1.29-46.72-1.29-43.72,121.2-3,1.94,46.76Zm235.56-104.06-119,5.94-9.18-43.57L1225,598.07ZM1224,595.14l-115.69,8.72-12.52-41.59,111.48-11.44ZM1206,548l-111.15,11.41L1079.23,520l105.91-14Zm-22.49-44.72L1078,517.16l-18.5-36.86L1158.75,464Zm-26.74-42L1058,477.51l-21.2-34.17,91.61-18.47Zm-30.71-39L1035,440.64l-23.67-31.22L1094.42,389Zm-34.31-35.73-82.5,20.28-25.87-28L1057,356.64ZM1054,354.42l-73,22-28-24.68,63.55-23.58Zm-40.76-28.25L950.36,349.5,920.5,328.43l52.76-24.79ZM969.69,302l-52.11,24.49L886,309.12l41.44-25.61Zm-45.92-19.74-40.89,25.26-33.3-13.38L879.35,268Zm-94.44-24.83,46.42,9.76L846.37,293l-34.92-9.27Zm-51.59-5.79L826,257,808.3,283l-36.52-5.11Zm-3-.13-5.94,26.14-37.51.36-6-26.23Zm-52.48.41,6,26.33L691.7,283,674,257Zm-51.54,5.51,17.88,26.27L653.63,293l-29.38-25.78Zm-50,10.6,29.77,26.11-33.3,13.38-40.89-25.26Zm-48.09,15.48L614,309.12l-31.58,17.37L530.31,302Zm-45.82,20.13,52.76,24.79L549.64,349.5l-62.87-23.33Zm-43.3,24.49L547,351.71l-28,24.68-73-22ZM443,356.64l73.66,22.17-25.93,28-82.44-20.27ZM405.58,389l83.06,20.44L465,440.64,374,422.28Zm-34,35.89,91.61,18.47L442,477.51l-98.78-16.25ZM341.25,464l99.27,16.33L422,517.16,316.51,503.23ZM314.86,506l105.91,14-15.6,39.34L294,548Zm-22.15,44.79,111.48,11.44-12.52,41.59L276,595.14ZM275,598.07l115.94,8.74-9.18,43.57-119-5.94Zm-12.93,49.35,119.21,5.93-5.67,45.32-121.11-3Zm-7.9,51.25,121.2,3-1.94,46.84H251.58Zm-2.59,52.83H373.43l1.94,46.84-121.2,3Zm2.92,52.82,121.11-3,5.67,45.32-119.21,5.93Zm8.22,51.24,119-5.94,9.18,43.57L275,901.93ZM276,904.86l115.69-8.72,12.52,41.59L292.71,949.17Zm18,47.19,111.15-11.41L420.77,980,314.86,994Zm22.49,44.72L422,982.84l18.5,36.86L341.25,1036Zm26.74,42L442,1022.49l21.2,34.17-91.61,18.47Zm30.71,39L465,1059.36l23.62,31.22L405.58,1111Zm34.31,35.72,82.44-20.27,25.93,28L443,1143.36ZM446,1145.58l73-22,28,24.68-63.55,23.58Zm40.76,28.25,62.87-23.33,29.86,21.11-52.76,24.75ZM530.31,1198l52.11-24.44L614,1190.88l-41.44,25.61Zm45.92,19.74,40.89-25.26,33.3,13.38L620.65,1232Zm94.44,24.83-46.42-9.76L653.63,1207l34.92,9.27Zm51.59,5.79L674,1243l17.71-26,36.52,5.11Zm3,.13,5.94-26.14,37.51-.36,6,26.23Zm52.48-.41-6-26.33L808.3,1217,826,1243Zm51.54-5.51-17.88-26.27,34.92-9.27,29.38,25.78Zm50-10.6-29.77-26.11,33.3-13.38,40.89,25.26Zm48.09-15.48L886,1190.88l31.58-17.32L969.69,1198Zm45.82-20.13-52.76-24.75,29.86-21.11,62.87,23.33Zm43.3-24.49L953,1148.29l28-24.68,73,22Zm40.46-28.51-73.66-22.17,25.87-28,82.5,20.28Zm37.4-32.34-83.11-20.44,23.67-31.22,91.06,18.36Zm34-35.89-91.61-18.47,21.2-34.17,98.78,16.25Zm30.37-39.1-99.27-16.33,18.5-36.86,105.51,13.93ZM1185.14,994l-105.91-14,15.6-39.34L1206,952.05Zm22.15-44.79-111.48-11.44,12.52-41.59L1224,904.86ZM1225,901.93l-115.94-8.74,9.18-43.57,119,5.94Zm12.93-49.35-119.21-5.93,5.67-45.32,121.11,3Zm7.9-51.25-121.2-3,1.94-46.84h121.85ZM1126.57,748.5l-1.94-46.84,121.2-3,2.59,49.83Z"/></svg>