<svg id="Abstract_Shape" data-name="Abstract Shape" xmlns="http://www.w3.org/2000/svg" viewBox="0 0 1500 1500"><path d="M1247.85,662.75c-20.44-62.65-84.29-119.25-179.77-159.36C975,464.26,859.13,443.57,742,445.08,498.7,447,292.67,538.56,252.14,662.75a143.38,143.38,0,0,0-7.14,44.4v85.71a143.38,143.38,0,0,0,7.14,44.4c20.46,62.66,84.31,119.25,179.78,159.36,89.93,37.78,201,58.38,314,58.38q6,0,12.08-.08c243.32-1.93,449.34-93.47,489.87-217.66a143.39,143.39,0,0,0,7.15-44.4V707.15A143.39,143.39,0,0,0,1247.85,662.75ZM1245,792.86a133.48,133.48,0,0,1-6.65,41.3c-18.68,57.2-76.57,109.93-163,148.47-88,39.24-200.76,61.37-317.45,62.29-115.8,1.55-230.19-18.92-322.07-57.52C343,948.43,281.19,894,261.65,834.17A133.59,133.59,0,0,1,255,792.86V759.5c46.55,120.13,248.93,207.83,487,209.71q4,.06,8,.06c74.2,0,144.29-12.07,202.69-34.89,56.47-22.08,97.78-52.32,119.47-87.45,19.81-32.09,21.59-66.38,5.16-99.17l-.1-.16s0,0,0-.05C1058.81,711,1017.33,678,960.35,654.46c-58.23-24-128.43-37.16-203.05-38-79.35-.56-153.58,12.16-214.71,36.77-53.89,21.7-94.22,51.82-114.9,85.56-9.19-23.87-7.88-48.67,3.95-72.28,17.55-35,58.2-66.88,114.45-89.61,58.59-23.67,129.1-36.18,203.91-36.18,210,0,397.82,68,467.45,169.24a163.89,163.89,0,0,1,20.91,41.57,133.31,133.31,0,0,1,6.64,40ZM432.8,750c18.19-34.28,58.36-65.28,113.53-87.49,59.92-24.13,132.86-36.6,210.88-36,145.43,1.6,272.23,52.27,310,123.52-18.19,34.28-58.37,65.27-113.52,87.48-59.93,24.13-132.89,36.58-210.9,36C597.36,871.92,470.55,821.25,432.8,750Z"/></svg>