<svg id="Abstract_Shape" data-name="Abstract Shape" xmlns="http://www.w3.org/2000/svg" viewBox="0 0 1500 1500"><path d="M823.51,1237.41c-9-1.12-19.63-2.68-31.47-4.44s-24.87-3.74-38.54-5.47-26.7-3-38.54-3.5a192.33,192.33,0,0,0-31.47.91c-9,1.13-16.21,3.11-21.22,5.74s-7.78,5.89-7.78,9.35,2.77,6.73,7.78,9.35,12.26,4.61,21.22,5.74A192.33,192.33,0,0,0,715,1256c11.84-.49,24.87-1.77,38.54-3.5s26.69-3.71,38.54-5.47,22.51-3.32,31.47-4.44,16.21-1.85,21.22-2.21,7.78-.38,7.78-.38-2.77,0-7.78-.38S832.47,1238.55,823.51,1237.41Z"/><path d="M920.14,1188.41c-21.45-1.12-47-2.68-75.35-4.44s-59.55-3.74-92.28-5.47-63.92-3-92.28-3.5-53.9-.22-75.36.91-38.81,3.11-50.8,5.74-18.63,5.89-18.63,9.35,6.63,6.73,18.63,9.35,29.35,4.61,50.8,5.74,47,1.41,75.36.91,59.55-1.77,92.28-3.5,63.91-3.71,92.28-5.47,53.9-3.32,75.35-4.44,38.81-1.85,50.81-2.21,18.63-.38,18.63-.38-6.63,0-18.63-.38S941.59,1189.55,920.14,1188.41Z"/><path d="M969.76,1139.41c-28.34-1.12-62.09-2.68-99.57-4.44s-78.67-3.74-121.92-5.47-84.45-3-121.93-3.5-71.22-.22-99.57.91-51.28,3.11-67.13,5.74S435,1138.54,435,1142s8.76,6.73,24.61,9.35,38.79,4.61,67.13,5.74,62.09,1.41,99.57.91,78.68-1.77,121.93-3.5,84.45-3.71,121.92-5.47,71.23-3.32,99.57-4.44,51.28-1.85,67.13-2.21,24.61-.38,24.61-.38-8.76,0-24.61-.38S998.1,1140.55,969.76,1139.41Z"/><path d="M1006.07,1090.41c-33-1.12-72.18-2.68-115.74-4.44s-91.45-3.74-141.72-5.47-98.17-3-141.73-3.5-82.79-.22-115.74.91-59.6,3.11-78,5.74-28.61,5.89-28.61,9.35,10.19,6.73,28.61,9.35,45.09,4.61,78,5.74,72.18,1.41,115.74.91,91.45-1.77,141.73-3.5,98.16-3.71,141.72-5.47,82.79-3.32,115.74-4.44,59.6-1.85,78-2.21,28.61-.38,28.61-.38-10.19,0-28.61-.38S1039,1091.55,1006.07,1090.41Z"/><path d="M1036.11,1041.41c-36.67-1.12-80.34-2.68-128.82-4.44s-101.8-3.74-157.76-5.47-109.26-3-157.75-3.5-92.15-.22-128.82.91-66.35,3.11-86.86,5.74-31.85,5.89-31.85,9.35,11.34,6.73,31.85,9.35,50.19,4.61,86.86,5.74,80.33,1.41,128.82.91,101.8-1.77,157.75-3.5,109.27-3.71,157.76-5.47,92.15-3.32,128.82-4.44,66.35-1.85,86.85-2.21,31.85-.38,31.85-.38-11.34,0-31.85-.38S1072.78,1042.55,1036.11,1041.41Z"/><path d="M1061.29,992.41c-39.64-1.12-86.84-2.68-139.26-4.44s-110-3.74-170.52-5.47S633.4,979.49,581,979s-99.62-.22-139.26.91S370,983,347.85,985.65s-34.43,5.89-34.43,9.35,12.26,6.73,34.43,9.35,54.24,4.61,93.88,5.74,86.84,1.41,139.26.91,110-1.77,170.52-3.5S869.62,1003.79,922,1002s99.62-3.32,139.26-4.44,71.71-1.85,93.88-2.21,34.43-.38,34.43-.38-12.26,0-34.43-.38S1100.92,993.55,1061.29,992.41Z"/><path d="M1077.21,943.41c-41.8-1.12-91.59-2.68-146.86-4.44s-116.06-3.74-179.85-5.47-124.57-3-179.85-3.5-105.06-.22-146.86.91-75.64,3.11-99,5.74-36.31,5.89-36.31,9.35,12.93,6.73,36.31,9.35,57.21,4.61,99,5.74,91.59,1.41,146.86.91,116.06-1.77,179.85-3.5,124.57-3.71,179.85-5.47,105.06-3.32,146.86-4.44,75.64-1.85,99-2.21,36.31-.38,36.31-.38-12.93,0-36.31-.38S1119,944.55,1077.21,943.41Z"/><path d="M1088.93,894.41c-43.44-1.12-95.15-2.68-152.58-4.44s-120.57-3.74-186.85-5.47-129.42-3-186.85-3.5-109.15-.22-152.58.91S331.49,885,307.2,887.65s-37.73,5.89-37.73,9.35,13.44,6.73,37.73,9.35,59.44,4.61,102.87,5.74,95.15,1.41,152.58.91,120.57-1.77,186.85-3.5,129.42-3.71,186.85-5.47,109.14-3.32,152.58-4.44,78.58-1.85,102.87-2.21,37.72-.38,37.72-.38-13.43,0-37.72-.38S1132.36,895.55,1088.93,894.41Z"/><path d="M1097.29,845.41c-44.25-1.12-96.94-2.68-155.44-4.44S819,837.23,751.5,835.5s-131.84-3-190.35-3.5-111.19-.22-155.44.91-80,3.11-104.8,5.74-38.43,5.89-38.43,9.35,13.69,6.73,38.43,9.35,60.55,4.61,104.8,5.74,96.94,1.41,155.44.91S684,862.23,751.5,860.5s131.84-3.71,190.35-5.47,111.19-3.32,155.44-4.44,80-1.85,104.79-2.21,38.43-.38,38.43-.38-13.68,0-38.43-.38S1141.53,846.55,1097.29,845.41Z"/><path d="M1104.77,796.41c-45.34-1.12-99.31-2.68-159.26-4.44s-125.84-3.74-195-5.47-135.08-3-195-3.5-113.92-.22-159.25.91-82,3.11-107.37,5.74-39.37,5.89-39.37,9.35,14,6.73,39.37,9.35,62,4.61,107.37,5.74,99.31,1.41,159.25.91,125.84-1.77,195-3.5,135.07-3.71,195-5.47,113.92-3.32,159.26-4.44,82-1.85,107.37-2.21,39.37-.38,39.37-.38-14,0-39.37-.38S1150.1,797.55,1104.77,796.41Z"/><path d="M395.23,765.09c45.33,1.13,99.31,1.41,159.25.91s125.84-1.77,195-3.5,135.07-3.71,195-5.47,113.92-3.32,159.25-4.44,82-1.85,107.38-2.21,39.37-.38,39.37-.38-14,0-39.37-.38-62-1.07-107.38-2.21-99.31-2.68-159.25-4.44-125.84-3.74-195-5.47-135.08-3-195-3.5-113.92-.22-159.25.91-82,3.11-107.37,5.74-39.37,5.89-39.37,9.35,14,6.73,39.37,9.35S349.9,764,395.23,765.09Z"/><path d="M288.86,710.35c25.35,2.63,62,4.61,107.37,5.74s99.31,1.41,159.25.91,125.84-1.77,195-3.5,135.07-3.71,195-5.47,113.92-3.32,159.26-4.44,82-1.85,107.37-2.21,39.37-.38,39.37-.38-14,0-39.37-.38-62-1.07-107.37-2.21-99.31-2.68-159.26-4.44-125.84-3.74-195-5.47-135.08-3-195-3.5-113.92-.22-159.25.91-82,3.11-107.37,5.74-39.37,5.89-39.37,9.35S263.51,707.73,288.86,710.35Z"/><path d="M295.15,661.35C320,664,356.07,666,400.59,667.09S498.12,668.5,557,668s123.59-1.77,191.52-3.5S881.15,660.79,940,659s111.88-3.32,156.4-4.44,80.54-1.85,105.44-2.21,38.66-.38,38.66-.38-13.76,0-38.66-.38-60.93-1.07-105.44-2.21S998.88,646.73,940,645s-123.58-3.74-191.51-5.47-132.65-3-191.52-3.5-111.87-.22-156.39.91S320,640,295.15,642.65s-38.67,5.89-38.67,9.35S270.25,658.73,295.15,661.35Z"/><path d="M307.2,612.35c24.29,2.63,59.44,4.61,102.87,5.74s95.15,1.41,152.58.91,120.57-1.77,186.85-3.5,129.42-3.71,186.85-5.47,109.14-3.32,152.58-4.44,78.58-1.85,102.87-2.21,37.72-.38,37.72-.38-13.43,0-37.72-.38-59.44-1.07-102.87-2.21-95.15-2.68-152.58-4.44-120.57-3.74-186.85-5.47-129.42-3-186.85-3.5-109.15-.22-152.58.91S331.49,591,307.2,593.65s-37.73,5.89-37.73,9.35S282.91,609.73,307.2,612.35Z"/><path d="M324.77,563.35c23.38,2.63,57.21,4.61,99,5.74s91.59,1.41,146.86.91,116.06-1.77,179.85-3.5,124.57-3.71,179.85-5.47,105.06-3.32,146.86-4.44,75.64-1.85,99-2.21,36.31-.38,36.31-.38-12.93,0-36.31-.38-57.21-1.07-99-2.21-91.59-2.68-146.86-4.44-116.06-3.74-179.85-5.47-124.57-3-179.85-3.5-105.06-.22-146.86.91-75.64,3.11-99,5.74-36.31,5.89-36.31,9.35S301.39,560.73,324.77,563.35Z"/><path d="M347.85,514.35C370,517,402.09,519,441.73,520.09S528.57,521.5,581,521s110-1.77,170.52-3.5S869.62,513.79,922,512s99.62-3.32,139.26-4.44,71.71-1.85,93.88-2.21,34.43-.38,34.43-.38-12.26,0-34.43-.38-54.25-1.07-93.88-2.21S974.45,499.73,922,498s-110-3.74-170.52-5.47S633.4,489.49,581,489s-99.62-.22-139.26.91S370,493,347.85,495.65s-34.43,5.89-34.43,9.35S325.68,511.73,347.85,514.35Z"/><path d="M376.1,465.35C396.61,468,426.29,470,463,471.09s80.33,1.41,128.82.91,101.8-1.77,157.75-3.5S858.8,464.79,907.29,463s92.15-3.32,128.82-4.44,66.35-1.85,86.85-2.21,31.85-.38,31.85-.38-11.34,0-31.85-.38-50.18-1.07-86.85-2.21-80.34-2.68-128.82-4.44-101.8-3.74-157.76-5.47-109.26-3-157.75-3.5-92.15-.22-128.82.91-66.35,3.11-86.86,5.74-31.85,5.89-31.85,9.35S355.59,462.73,376.1,465.35Z"/><path d="M413.11,416.35c18.43,2.63,45.09,4.61,78,5.74s72.18,1.41,115.74.91,91.45-1.77,141.73-3.5,98.16-3.71,141.72-5.47,82.79-3.32,115.74-4.44,59.6-1.85,78-2.21,28.61-.38,28.61-.38-10.19,0-28.61-.38-45.09-1.07-78-2.21-72.18-2.68-115.74-4.44-91.45-3.74-141.72-5.47-98.17-3-141.73-3.5-82.79-.22-115.74.91-59.6,3.11-78,5.74S384.5,403.54,384.5,407,394.69,413.73,413.11,416.35Z"/><path d="M458.26,367.35c15.95,2.63,39,4.61,67.53,5.74S588.25,374.5,626,374s79.15-1.77,122.66-3.5,84.95-3.71,122.65-5.47,71.65-3.32,100.16-4.44,51.58-1.85,67.53-2.21,24.76-.38,24.76-.38-8.82,0-24.76-.38-39-1.07-67.53-2.21S909,352.73,871.26,351s-79.15-3.74-122.65-5.47-85-3-122.66-3.5-71.65-.22-100.16.91-51.58,3.11-67.53,5.74S433.5,354.54,433.5,358,442.32,364.73,458.26,367.35Z"/><path d="M528.53,318.35c12.3,2.63,30.1,4.61,52.09,5.74s48.19,1.41,77.27.91,61.06-1.77,94.62-3.5,65.54-3.71,94.63-5.47,55.27-3.32,77.27-4.44,39.79-1.85,52.09-2.21,19.11-.38,19.11-.38-6.81,0-19.11-.38-30.1-1.07-52.09-2.21-48.19-2.68-77.27-4.44-61.06-3.74-94.63-5.47-65.53-3-94.62-3.5-55.27-.22-77.27.91-39.79,3.11-52.09,5.74-19.11,5.89-19.11,9.35S516.23,315.73,528.53,318.35Z"/><path d="M639.92,269.35c6.07,2.63,14.86,4.61,25.71,5.74a282.39,282.39,0,0,0,38.15.91c14.36-.49,30.15-1.77,46.72-3.5s32.36-3.71,46.71-5.47,27.29-3.32,38.15-4.44,19.65-1.85,25.72-2.21,9.43-.38,9.43-.38-3.35,0-9.43-.38-14.86-1.07-25.72-2.21-23.79-2.68-38.15-4.44-30.14-3.74-46.71-5.47-32.36-3-46.72-3.5a282.39,282.39,0,0,0-38.15.91C654.78,246,646,248,639.92,250.65s-9.44,5.89-9.44,9.35S633.84,266.73,639.92,269.35Z"/></svg>