<svg id="Abstract_Shape" data-name="Abstract Shape" xmlns="http://www.w3.org/2000/svg" viewBox="0 0 1500 1500"><path d="M1323.87,740.09c-.26-5.47-1.1-14.23-1.87-19.54s-2.42-13.82-3.68-18.95-3.67-13.34-5.39-18.26-4.86-12.79-7-17.49-6-12.17-8.55-16.63-7-11.48-10-15.67-8-10.74-11.35-14.63-9-9.94-12.63-13.5-9.85-9.07-13.81-12.28-10.65-8.13-14.9-11-11.4-7.14-15.92-9.58-12.07-6.07-16.83-8.09-12.67-4.94-17.66-6.52-13.23-3.75-18.4-4.85-12.24-2.37-15.79-2.84-10.85-1-16.28-1.31c-5-.24-12.75-.26-18.21-.07-5.22-.19-12.68-.17-17.42.07-2,.1-4.42.28-7,.52-2.36-.22-4.84-.4-7-.52-4.74-.27-12.46-.27-17.21,0-4.41.24-11.29,1-15.94,1.72-.76-.16-1.45-.3-2-.4-2.66-.46-8.15-1.06-12.23-1.32a114.82,114.82,0,0,0-29.42,1.89c-2.88.57-7,1.6-10.52,2.61-.26-.1-.53-.21-.78-.29a93.41,93.41,0,0,0-9.45-2.87,91.52,91.52,0,0,0-9.75-1.34,86.2,86.2,0,0,0-11.81,0,87.72,87.72,0,0,0-11.64,1.91,94.15,94.15,0,0,0-11.27,3.74,104.81,104.81,0,0,0-10.84,5.47l-.44.27c-.93-.82-1.83-1.57-2.57-2.14a62.55,62.55,0,0,0-7.69-5,53,53,0,0,0-6.65-2.92,45.83,45.83,0,0,0-6.89-1.36,41.71,41.71,0,0,0-8.36,0,45,45,0,0,0-8.22,1.94,54.57,54.57,0,0,0-7.92,3.8,69.92,69.92,0,0,0-7.57,5.52,88.11,88.11,0,0,0-7.2,7.15c-1.94,2.18-5,6.07-6.82,8.66s-4.7,7.12-6.4,10.09l-.71,1.27c-.48-1.66-.95-3.25-1.33-4.45-.89-2.85-2.39-7.16-3.33-9.6s-2.54-6.12-3.55-8.15a70.59,70.59,0,0,0-3.76-6.63,39.93,39.93,0,0,0-4-5,25,25,0,0,0-3.56-3,15.15,15.15,0,0,0-3.83-1.5,12.35,12.35,0,0,0-4.77,0,15.6,15.6,0,0,0-4.56,2.11,27.11,27.11,0,0,0-4.19,3.93,50.56,50.56,0,0,0-3.91,5.57c-1,1.76-2.7,5-3.69,7.15s-2.55,6.06-3.47,8.64-2.39,7.09-3.27,10.07-2.23,8.07-3,11.4-2.07,9-2.8,12.66-1.88,9.87-2.54,13.83-1.69,10.64-2.28,14.92-1.47,11.38-2,15.91-1.25,12.1-1.67,16.84-1,12.69-1.35,17.65-.77,13.22-1,18.4-.49,12.19-.59,15.79-.21,10.89-.27,16.27-.05,14.27,0,19.7.23,14.11.39,19.43.5,13.71.76,18.84.77,13.27,1.12,18.16,1,12.69,1.46,17.39,1.25,12.09,1.78,16.54,1.46,11.4,2.08,15.59,1.67,10.69,2.36,14.57,1.87,9.88,2.63,13.45,2.06,9.06,2.88,12.25,2.23,8.13,3.12,11,2.38,7.14,3.33,9.6,2.54,6.11,3.55,8.15a69.64,69.64,0,0,0,3.76,6.63,40.85,40.85,0,0,0,4,5,25,25,0,0,0,3.56,3,15,15,0,0,0,3.83,1.5,12.48,12.48,0,0,0,4.77,0,15.6,15.6,0,0,0,4.56-2.11,26.64,26.64,0,0,0,4.19-3.93,50.56,50.56,0,0,0,3.91-5.57c1-1.76,2.7-5,3.69-7.15s2.54-6.06,3.47-8.64,2.4-7.1,3.26-10.07c.09-.29.19-.62.28-.95,1,1.79,2,3.51,2.79,4.8,1.75,2.85,4.68,7.17,6.54,9.62a105.86,105.86,0,0,0,7,8.17,81.15,81.15,0,0,0,7.33,6.61,61.07,61.07,0,0,0,7.69,5,52.32,52.32,0,0,0,6.65,2.92,45.94,45.94,0,0,0,6.88,1.36,41.71,41.71,0,0,0,8.36,0,44.8,44.8,0,0,0,8.22-1.94,53.59,53.59,0,0,0,7.92-3.8,70,70,0,0,0,7.58-5.52l.13-.12c1.43.87,2.82,1.67,3.95,2.28a99.14,99.14,0,0,0,11,4.9,93.41,93.41,0,0,0,9.45,2.87A91.89,91.89,0,0,0,965.1,951c1.63.13,3.77.2,5.91.2s4.27-.07,5.9-.2a88.13,88.13,0,0,0,11.65-1.91c2.26-.56,5.49-1.58,8.26-2.59l1.09.33c3.87,1.1,9.2,2.38,11.87,2.85s8.16,1.06,12.23,1.32c2,.13,4.73.2,7.41.2s5.37-.07,7.41-.2c3.77-.24,9.64-1,13.64-1.71.89.16,1.69.29,2.35.39,3.09.47,9.47,1.06,14.2,1.32,2.37.14,5.49.2,8.61.2s6.23-.06,8.6-.2c1.79-.1,4-.28,6.3-.51,2.58.21,5.29.39,7.64.51,2.6.14,6,.2,9.43.2,2.82,0,5.63,0,8-.13,2.47.09,5.4.13,8.35.13,3.57,0,7.14-.06,9.86-.2,5.43-.26,14.15-1.11,19.44-1.88s13.74-2.44,18.84-3.7,13.25-3.69,18.17-5.42,12.71-4.89,17.39-7,12.1-6,16.53-8.59,11.43-7.09,15.59-10.06,10.7-8.09,14.55-11.42,9.88-9,13.43-12.69,9-9.9,12.21-13.89,8.09-10.71,10.91-15,7.1-11.45,9.53-16,6-12.15,8-16.93,4.92-12.75,6.48-17.75,3.73-13.31,4.83-18.5,2.36-12.32,2.82-15.88,1-10.91,1.31-16.37S1324.13,745.55,1323.87,740.09ZM853.77,901.41c-.8,3.3-2.15,8.35-3,11.27s-2.3,7.36-3.21,9.89-2.43,6.3-3.39,8.42-2.53,5.18-3.53,6.85A47.68,47.68,0,0,1,837,943a24.71,24.71,0,0,1-3.63,3.41,12.44,12.44,0,0,1-3.51,1.63,8.89,8.89,0,0,1-3.41,0,12.1,12.1,0,0,1-2.93-1.11,23.28,23.28,0,0,1-3-2.6,38.7,38.7,0,0,1-3.63-4.59,70,70,0,0,1-3.57-6.31c-1-2-2.52-5.51-3.44-7.9s-2.4-6.63-3.27-9.42-2.25-7.64-3.07-10.81-2.1-8.6-2.85-12.13-1.93-9.53-2.61-13.35-1.74-10.34-2.35-14.48-1.54-11.12-2.07-15.51-1.33-11.81-1.77-16.46-1.1-12.46-1.45-17.33-.86-13-1.12-18.09-.6-13.54-.76-18.78-.33-14-.39-19.37-.05-14.23,0-19.64.18-12.64.27-16.22.36-10.65.59-15.74.67-13.39,1-18.33.92-12.83,1.34-17.59,1.16-12.24,1.66-16.76,1.39-11.62,2-15.84,1.6-10.91,2.25-14.84,1.8-10.09,2.53-13.73,2-9.24,2.77-12.54,2.15-8.35,3-11.27,2.3-7.36,3.21-9.89,2.42-6.3,3.38-8.42,2.54-5.18,3.54-6.85a47.68,47.68,0,0,1,3.62-5.18,23.75,23.75,0,0,1,3.63-3.41,12.44,12.44,0,0,1,3.51-1.63,8.89,8.89,0,0,1,3.41,0,11.84,11.84,0,0,1,2.92,1.11,22,22,0,0,1,3,2.6,36.78,36.78,0,0,1,3.64,4.59,67.29,67.29,0,0,1,3.57,6.31c1,2,2.51,5.51,3.44,7.9s2.39,6.62,3.27,9.42,2.25,7.65,3.07,10.81,2.1,8.62,2.85,12.13,1.93,9.53,2.61,13.35,1.74,10.34,2.35,14.48,1.54,11.12,2.07,15.51,1.32,11.77,1.77,16.46,1.1,12.41,1.45,17.33.86,13,1.12,18.09.6,13.49.76,18.78.33,14,.39,19.37.05,14.23,0,19.64-.18,12.7-.27,16.22-.36,10.56-.59,15.74-.68,13.41-1,18.33S865.38,823,865,827.7s-1.16,12.28-1.67,16.76-1.38,11.58-2,15.84-1.59,10.87-2.25,14.84-1.8,10.09-2.53,13.73S854.56,898.12,853.77,901.41Zm75.1,36.06a63.64,63.64,0,0,1-7.17,5.23,50.75,50.75,0,0,1-7.38,3.54,42.16,42.16,0,0,1-7.56,1.8,40.73,40.73,0,0,1-7.65,0,42.89,42.89,0,0,1-6.33-1.25,48.66,48.66,0,0,1-6.17-2.72,59.62,59.62,0,0,1-7.25-4.67,76.82,76.82,0,0,1-7-6.32c-1.9-2-4.91-5.51-6.72-7.9s-4.67-6.6-6.38-9.38c-1.16-1.9-2.78-4.75-4.2-7.38.59-2.21,1.19-4.51,1.62-6.3.81-3.32,2.06-9,2.8-12.66s1.88-9.87,2.54-13.83,1.69-10.68,2.28-14.92,1.47-11.42,2-15.91S867.53,832.74,868,828s1-12.65,1.35-17.65.77-13.2,1-18.4.49-12.27.59-15.79.21-10.83.27-16.27.05-14.27,0-19.7-.23-14.16-.39-19.43-.51-13.76-.77-18.84-.76-13.22-1.12-18.16-1-12.73-1.45-17.39-1.25-12.13-1.78-16.54-1.46-11.4-2.08-15.59-1.67-10.69-2.36-14.57-1.87-9.88-2.63-13.45-2.06-9-2.88-12.25c-.19-.71-.4-1.51-.63-2.36.78-1.46,1.53-2.84,2.15-3.93,1.67-2.9,4.47-7.32,6.25-9.85s4.74-6.29,6.61-8.41a87.39,87.39,0,0,1,6.92-6.85,64,64,0,0,1,7.17-5.23,49.78,49.78,0,0,1,7.38-3.54,42,42,0,0,1,7.56-1.8,40.73,40.73,0,0,1,7.65,0,42.89,42.89,0,0,1,6.33,1.25,49.94,49.94,0,0,1,6.17,2.72,58.76,58.76,0,0,1,7.24,4.67,78.27,78.27,0,0,1,7,6.32c1.89,2,4.91,5.51,6.72,7.9s4.66,6.6,6.37,9.38,4.4,7.63,6,10.78,4.09,8.59,5.56,12.1,3.76,9.48,5.1,13.31,3.39,10.31,4.58,14.44,3,11.09,4,15.49,2.59,11.76,3.46,16.43,2.13,12.39,2.83,17.29,1.67,13,2.18,18.06,1.18,13.51,1.49,18.75.65,13.92.76,19.34.1,14.21,0,19.62-.35,12.7-.53,16.19-.7,10.57-1.14,15.72-1.32,13.34-2,18.3-1.81,12.83-2.62,17.56-2.27,12.24-3.25,16.73-2.71,11.58-3.85,15.81-3.12,10.86-4.41,14.8-3.5,10.09-4.92,13.7-3.86,9.22-5.41,12.5-4.19,8.32-5.86,11.24-4.47,7.33-6.25,9.85-4.73,6.29-6.61,8.41A87.3,87.3,0,0,1,928.87,937.47Zm59,8.73A85.68,85.68,0,0,1,976.67,948a82.24,82.24,0,0,1-11.32,0,86.69,86.69,0,0,1-9.35-1.28,88.73,88.73,0,0,1-9.08-2.76,94.83,94.83,0,0,1-10.6-4.73c-.89-.47-2-1.08-3.06-1.75,1.68-1.61,3.5-3.47,4.77-4.91,1.93-2.18,5-6.07,6.81-8.66s4.7-7.11,6.41-10.09,4.37-8.1,6-11.44,4-9,5.49-12.69,3.68-9.88,5-13.87,3.3-10.68,4.46-15S975,849.48,976,845s2.46-12.09,3.28-16.86,2-12.7,2.64-17.69,1.52-13.25,2-18.42,1-12.27,1.15-15.82.43-10.83.54-16.29.1-14.3,0-19.74-.45-14.18-.77-19.46-1-13.74-1.49-18.87-1.5-13.26-2.2-18.18-2-12.75-2.85-17.42-2.45-12.14-3.49-16.57-2.87-11.45-4.08-15.63-3.28-10.73-4.63-14.6-3.67-9.92-5.16-13.48-4-9.07-5.65-12.29-4.37-8.15-6.11-11-4.69-7.17-6.54-9.62-5-6.13-7-8.17c-.68-.71-1.53-1.53-2.43-2.37a102.64,102.64,0,0,1,10.11-5.07,90.41,90.41,0,0,1,10.83-3.6A85.83,85.83,0,0,1,965.35,552a82.24,82.24,0,0,1,11.32,0,87.05,87.05,0,0,1,9.35,1.28A90.27,90.27,0,0,1,995.1,556a95.5,95.5,0,0,1,10.59,4.73,109.66,109.66,0,0,1,10.19,6.36c2.75,2,7.12,5.53,9.74,7.92s6.75,6.61,9.22,9.39,6.35,7.63,8.65,10.78,5.91,8.58,8,12.09,5.42,9.46,7.36,13.29,4.9,10.31,6.61,14.43,4.33,11,5.83,15.45,3.73,11.77,5,16.41,3.09,12.4,4.09,17.27,2.41,13,3.14,18,1.7,13.48,2.15,18.72.94,13.92,1.1,19.31.15,14.19,0,19.6-.5,12.65-.77,16.17-1,10.55-1.65,15.69-1.9,13.35-2.81,18.28-2.61,12.8-3.79,17.53-3.27,12.22-4.69,16.71-3.91,11.56-5.56,15.78-4.49,10.85-6.36,14.78-5,10.06-7.11,13.68-5.56,9.22-7.81,12.5-6,8.31-8.45,11.22-6.47,7.34-9,9.87-6.86,6.3-9.57,8.42a117.79,117.79,0,0,1-10,6.89,102.65,102.65,0,0,1-10.47,5.28A90.56,90.56,0,0,1,987.83,946.2Zm63,0a111.27,111.27,0,0,1-28.65,1.85c-4-.26-9.33-.84-11.91-1.29-2-.35-5.63-1.19-8.92-2.06,3-1.34,6.81-3.31,9.29-4.78a120.68,120.68,0,0,0,10.36-7.11c2.78-2.17,7.19-6,9.82-8.64s6.78-7.12,9.25-10.09,6.33-8.11,8.62-11.44,5.85-9,7.94-12.71S1062,880,1063.88,876s4.77-10.7,6.44-15,4.19-11.44,5.62-16,3.56-12.11,4.74-16.88,2.9-12.73,3.82-17.72,2.2-13.25,2.85-18.45,1.39-12.28,1.66-15.83.62-10.88.77-16.32.16-14.31,0-19.76-.65-14.18-1.1-19.49-1.43-13.76-2.17-18.89-2.16-13.29-3.17-18.21-2.87-12.75-4.14-17.45-3.53-12.14-5-16.59-4.16-11.47-5.9-15.65-4.75-10.73-6.71-14.62-5.3-9.94-7.46-13.5-5.83-9.08-8.17-12.3-6.31-8.15-8.83-11-6.77-7.16-9.45-9.61-7.18-6.12-10-8.15a114.7,114.7,0,0,0-10.52-6.57c-1.55-.83-3.63-1.82-5.7-2.74,2.37-.61,4.73-1.17,6.57-1.53a111.38,111.38,0,0,1,28.66-1.85c4,.26,9.33.84,11.91,1.29s7.77,1.7,11.56,2.78a141.65,141.65,0,0,1,13.47,4.75c3.66,1.55,9.46,4.42,12.94,6.4s9,5.54,12.35,7.94,8.55,6.61,11.68,9.41,8,7.63,11,10.79,7.47,8.58,10.15,12.08,6.85,9.47,9.29,13.29,6.19,10.29,8.36,14.42,5.48,11,7.37,15.44,4.71,11.75,6.29,16.4,3.91,12.38,5.17,17.25,3,12.95,4,18,2.14,13.46,2.71,18.7,1.19,13.9,1.38,19.3.19,14.17,0,19.56-.63,12.66-1,16.16-1.27,10.55-2.08,15.67-2.4,13.32-3.56,18.26-3.29,12.79-4.77,17.51-4.14,12.21-5.93,16.69-4.94,11.57-7,15.78-5.68,10.83-8,14.76-6.38,10.06-9,13.68-7,9.21-9.88,12.5-7.63,8.3-10.69,11.23-8.19,7.34-11.44,9.87-8.7,6.32-12.13,8.44-9.15,5.23-12.75,6.92-9.57,4.07-13.3,5.31A136.53,136.53,0,0,1,1050.86,946.18Zm33.2,1.85c-4.65.26-12.22.26-16.87,0-2.57-.15-5.62-.39-8.35-.65,2.47-.65,4.91-1.36,6.76-2,3.83-1.27,10-3.71,13.64-5.44s9.53-4.91,13-7.08,9.07-6,12.39-8.63,8.56-7.1,11.67-10.07,8-8.11,10.89-11.44,7.4-9,10-12.71,6.74-9.9,9.13-13.89,6-10.71,8.15-15,5.3-11.44,7.11-16,4.51-12.13,6-16.91,3.67-12.74,4.84-17.73,2.78-13.28,3.6-18.47,1.76-12.29,2.1-15.85.78-10.89,1-16.34.19-14.33,0-19.78-.83-14.2-1.4-19.51-1.81-13.79-2.74-18.92-2.74-13.3-4-18.23-3.63-12.76-5.24-17.46-4.47-12.16-6.38-16.61-5.26-11.48-7.46-15.66-6-10.75-8.49-14.63-6.71-9.94-9.44-13.5-7.36-9.08-10.33-12.3-8-8.15-11.16-11-8.53-7.16-11.92-9.6-9-6.1-12.61-8.12-9.52-5-13.26-6.55a146.28,146.28,0,0,0-13.82-4.88l-1.74-.48c2.89-.32,5.77-.57,8-.7,4.65-.26,12.22-.26,16.87,0s10.91.84,13.93,1.29,9.09,1.71,13.52,2.79,11.49,3.23,15.75,4.77,11,4.43,15.11,6.41,10.54,5.55,14.42,8,10,6.62,13.63,9.42,9.37,7.63,12.77,10.8S1191.9,604,1195,607.5s8,9.47,10.83,13.29,7.21,10.29,9.74,14.41,6.38,11.06,8.57,15.44,5.5,11.75,7.34,16.39,4.55,12.37,6,17.23,3.55,12.94,4.63,18,2.49,13.44,3.15,18.68,1.39,13.88,1.61,19.27.23,14.16,0,19.56-.73,12.64-1.12,16.14-1.48,10.52-2.43,15.66-2.8,13.31-4.14,18.24-3.84,12.78-5.56,17.5-4.82,12.19-6.91,16.68-5.75,11.55-8.17,15.76-6.63,10.84-9.36,14.77-7.44,10.05-10.48,13.67-8.2,9.23-11.51,12.5-8.9,8.32-12.47,11.24-9.55,7.35-13.35,9.89-10.15,6.32-14.16,8.45-10.69,5.24-14.89,6.94-11.18,4.08-15.54,5.32-11.61,2.87-16.13,3.63S1088.72,947.77,1084.06,948Zm32.82,0c-3,.15-7,.21-10.88.19,4-.84,8.54-1.91,11.64-2.79,4.46-1.27,11.57-3.7,15.85-5.43s11.09-4.9,15.18-7.07,10.55-6,14.42-8.6,10-7.1,13.58-10.07,9.32-8.1,12.68-11.43,8.61-9,11.7-12.7,7.86-9.9,10.64-13.89,7-10.7,9.5-15,6.18-11.46,8.29-16,5.26-12.14,7-16.91,4.28-12.75,5.64-17.74,3.25-13.29,4.21-18.49,2.05-12.31,2.45-15.87.91-10.89,1.14-16.35.23-14.34,0-19.8-1-14.22-1.63-19.53-2.11-13.79-3.2-18.93-3.2-13.32-4.69-18.25-4.23-12.77-6.1-17.47-5.21-12.16-7.44-16.62-6.13-11.48-8.71-15.67-7-10.74-9.89-14.63-7.81-9.94-11-13.5-8.59-9.08-12-12.29-9.28-8.14-13-11-9.94-7.15-13.87-9.59-10.54-6.09-14.68-8.11-11.06-4.95-15.41-6.53-11.55-3.76-16.06-4.86c-1.82-.45-3.92-.92-6-1.36,3.79,0,7.72.05,10.63.19,5.12.26,12,.84,15.32,1.3s10,1.7,14.87,2.79,12.64,3.23,17.32,4.78,12.15,4.43,16.62,6.41,11.59,5.56,15.85,8,11,6.63,15,9.43,10.3,7.64,14,10.8,9.57,8.59,13,12.1,8.78,9.47,11.9,13.3,7.92,10.29,10.69,14.41,7,11,9.42,15.43,6,11.74,8,16.38,5,12.37,6.61,17.23,3.9,12.94,5.08,18,2.74,13.44,3.46,18.67,1.52,13.87,1.77,19.26.25,14.15,0,19.54-.8,12.63-1.23,16.13-1.63,10.53-2.67,15.65-3.07,13.3-4.54,18.23-4.21,12.77-6.11,17.5-5.29,12.19-7.58,16.67-6.31,11.55-9,15.76-7.28,10.84-10.28,14.76-8.17,10.06-11.51,13.68-9,9.23-12.64,12.5-9.78,8.33-13.7,11.25-10.51,7.36-14.68,9.9-11.16,6.33-15.57,8.46-11.74,5.24-16.37,6.94-12.29,4.09-17.09,5.33-12.76,2.88-17.74,3.64S1122,947.77,1116.88,948Zm204-188.26c-.26,5.39-.83,12.63-1.28,16.12s-1.7,10.52-2.79,15.65-3.21,13.29-4.75,18.22-4.4,12.78-6.38,17.49-5.53,12.19-7.93,16.67-6.6,11.54-9.38,15.76-7.61,10.84-10.75,14.77-8.55,10.06-12,13.67-9.43,9.24-13.23,12.51S1242.13,909,1238,911.88s-11,7.36-15.35,9.9-11.67,6.34-16.29,8.47-12.3,5.24-17.13,6.94-12.86,4.1-17.89,5.34-13.35,2.87-18.56,3.64c-1.44.21-3.13.43-5,.63,2.15-.46,4.17-.94,5.82-1.36,4.88-1.26,12.68-3.7,17.38-5.42s12.16-4.9,16.64-7.06,11.58-6,15.82-8.6,10.93-7.09,14.91-10.06,10.22-8.09,13.92-11.42,9.45-9,12.84-12.7,8.63-9.9,11.68-13.88,7.73-10.71,10.43-15,6.79-11.45,9.11-16,5.77-12.13,7.7-16.92,4.7-12.75,6.19-17.75,3.57-13.3,4.62-18.5,2.25-12.3,2.69-15.87,1-10.91,1.26-16.36.25-14.35,0-19.82-1.06-14.23-1.8-19.53-2.31-13.81-3.51-18.95-3.51-13.32-5.15-18.26-4.65-12.78-6.71-17.48-5.72-12.16-8.17-16.62-6.74-11.49-9.56-15.67-7.69-10.74-10.86-14.63-8.58-9.94-12.08-13.5-9.42-9.08-13.21-12.29-10.19-8.13-14.25-11-10.91-7.14-15.23-9.58-11.55-6.08-16.1-8.1-12.13-4.94-16.9-6.52-12.66-3.75-17.61-4.86l-.79-.17c1.06.1,2,.21,2.76.31,3.48.45,10.46,1.71,15.56,2.79s13.22,3.23,18.12,4.78,12.71,4.44,17.39,6.42,12.12,5.57,16.58,8,11.48,6.64,15.67,9.44,10.78,7.64,14.68,10.8,10,8.59,13.61,12.1,9.17,9.47,12.44,13.3,8.28,10.29,11.18,14.41,7.33,11.05,9.85,15.44,6.3,11.74,8.42,16.37,5.22,12.37,6.91,17.23,4.07,12.92,5.31,18,2.86,13.43,3.62,18.67,1.59,13.87,1.84,19.25S1321.13,754.38,1320.87,759.77Z"/><rect x="748.5" y="550.28" width="3" height="399.44"/><path d="M714.54,723.88c-.1-3.6-.36-10.69-.59-15.79s-.68-13.43-1-18.4S712,676.81,711.6,672s-1.17-12.29-1.67-16.84-1.4-11.67-2-15.91-1.61-11-2.28-14.92-1.8-10.17-2.54-13.83-2-9.33-2.8-12.66-2.17-8.45-3-11.4S695,579,694,576.41s-2.48-6.45-3.47-8.64-2.65-5.39-3.69-7.15a50.56,50.56,0,0,0-3.91-5.57,27.11,27.11,0,0,0-4.19-3.93,15.6,15.6,0,0,0-4.56-2.11,12.35,12.35,0,0,0-4.77,0,15.15,15.15,0,0,0-3.83,1.5,25,25,0,0,0-3.56,3,39.93,39.93,0,0,0-4,5,70.59,70.59,0,0,0-3.76,6.63c-1,2-2.6,5.69-3.55,8.15s-2.44,6.75-3.33,9.6c-.38,1.2-.85,2.79-1.33,4.45l-.71-1.27c-1.7-3-4.57-7.49-6.4-10.09s-4.88-6.48-6.82-8.66a88.11,88.11,0,0,0-7.2-7.15,69.05,69.05,0,0,0-7.58-5.52,54,54,0,0,0-7.91-3.8,45,45,0,0,0-8.22-1.94,41.71,41.71,0,0,0-8.36,0,45.83,45.83,0,0,0-6.89,1.36,53,53,0,0,0-6.65,2.92,62.55,62.55,0,0,0-7.69,5c-.74.57-1.64,1.32-2.57,2.14l-.44-.27a104.81,104.81,0,0,0-10.84-5.47,94.15,94.15,0,0,0-11.27-3.74A87.72,87.72,0,0,0,534.9,549a86.2,86.2,0,0,0-11.81,0,91.52,91.52,0,0,0-9.75,1.34,94.29,94.29,0,0,0-9.46,2.87c-.24.08-.51.19-.77.29-3.51-1-7.64-2-10.52-2.61A114.82,114.82,0,0,0,463.17,549c-4.08.26-9.57.86-12.23,1.32-.57.1-1.26.24-2,.4-4.65-.73-11.53-1.48-15.94-1.72-4.75-.27-12.47-.27-17.21,0-2.15.12-4.62.3-7,.52-2.54-.24-5-.42-7-.52-4.74-.24-12.2-.26-17.42-.07-5.46-.19-13.25-.17-18.21.07-5.43.26-12.73.85-16.28,1.31s-10.63,1.74-15.79,2.84-13.43,3.28-18.4,4.85-12.91,4.5-17.66,6.52-12.31,5.65-16.83,8.09-11.66,6.74-15.92,9.58-10.93,7.76-14.9,11-10.16,8.72-13.81,12.28S227.29,615,224,618.92s-8.41,10.45-11.35,14.63-7.44,11.22-10,15.67-6.4,11.92-8.55,16.63-5.29,12.55-7,17.48-4.13,13.13-5.39,18.27-2.9,13.63-3.68,18.95-1.61,14.07-1.87,19.54-.26,14.36,0,19.82.85,12.8,1.31,16.37,1.72,10.68,2.82,15.88,3.26,13.49,4.83,18.5,4.47,13,6.48,17.75,5.61,12.37,8,16.93,6.7,11.71,9.53,16,7.72,11,10.91,15,8.67,10.22,12.21,13.89,9.57,9.37,13.43,12.69,10.38,8.45,14.55,11.42,11.15,7.48,15.59,10.06,11.85,6.43,16.53,8.59,12.49,5.33,17.39,7,13.06,4.16,18.17,5.42,13.55,2.92,18.84,3.7,14,1.62,19.44,1.88c2.72.14,6.29.2,9.86.2,2.95,0,5.89,0,8.35-.13,2.36.09,5.17.13,8,.13,3.42,0,6.83-.06,9.43-.2,2.35-.12,5.06-.3,7.64-.51,2.3.23,4.51.41,6.3.51,2.37.14,5.49.2,8.6.2s6.24-.06,8.61-.2c4.73-.26,11.11-.85,14.2-1.32.66-.1,1.46-.23,2.35-.39,4,.72,9.87,1.47,13.64,1.71,2,.13,4.73.2,7.41.2s5.36-.07,7.41-.2c4.07-.26,9.56-.86,12.23-1.32s8-1.75,11.87-2.85l1.09-.33c2.77,1,6,2,8.27,2.59A87.72,87.72,0,0,0,523.09,951c1.63.13,3.76.2,5.9.2s4.28-.07,5.91-.2a91.89,91.89,0,0,0,9.75-1.34,93.41,93.41,0,0,0,9.45-2.87,99.14,99.14,0,0,0,11-4.9c1.13-.61,2.52-1.41,3.95-2.28l.13.12a70,70,0,0,0,7.58,5.52,53.59,53.59,0,0,0,7.92,3.8,44.8,44.8,0,0,0,8.22,1.94,41.71,41.71,0,0,0,8.36,0,45.94,45.94,0,0,0,6.88-1.36,52.32,52.32,0,0,0,6.65-2.92,61.07,61.07,0,0,0,7.69-5,81.15,81.15,0,0,0,7.33-6.61,105.86,105.86,0,0,0,7-8.17c1.86-2.45,4.79-6.77,6.54-9.62.79-1.29,1.79-3,2.79-4.8.09.33.19.66.28.95.86,3,2.33,7.48,3.26,10.07s2.49,6.46,3.47,8.64,2.65,5.39,3.69,7.15a50.56,50.56,0,0,0,3.91,5.57,26.64,26.64,0,0,0,4.19,3.93,15.6,15.6,0,0,0,4.56,2.11,12.48,12.48,0,0,0,4.77,0,15,15,0,0,0,3.83-1.5,25,25,0,0,0,3.56-3,40.85,40.85,0,0,0,4-5,69.64,69.64,0,0,0,3.76-6.63c1-2,2.6-5.69,3.55-8.15s2.44-6.76,3.33-9.6,2.29-7.75,3.12-11,2.11-8.69,2.88-12.25,1.94-9.61,2.63-13.45,1.75-10.41,2.36-14.57,1.55-11.18,2.08-15.59,1.33-11.87,1.78-16.54,1.1-12.5,1.46-17.39.85-13,1.12-18.16.6-13.58.76-18.84.33-14,.39-19.43.05-14.27,0-19.7S714.63,727.47,714.54,723.88ZM347.2,946.17c-5.21-.77-13.54-2.4-18.56-3.64s-13.05-3.64-17.89-5.34-12.52-4.81-17.13-6.94-11.92-5.93-16.29-8.47-11.25-7-15.35-9.9-10.53-8-14.33-11.25-9.73-8.88-13.23-12.51-8.88-9.75-12-13.67-8-10.55-10.75-14.77-7-11.28-9.38-15.76-5.95-12-7.93-16.67-4.84-12.56-6.38-17.49-3.67-13.1-4.75-18.22-2.33-12.15-2.79-15.65-1-10.73-1.28-16.12-.26-14.15,0-19.54,1.08-14,1.84-19.25,2.39-13.61,3.62-18.67,3.62-13.14,5.31-18,4.79-12.59,6.91-17.23,5.89-12,8.42-16.37,6.94-11.32,9.85-15.44,7.92-10.58,11.18-14.41,8.85-9.79,12.44-13.3,9.7-8.93,13.61-12.1,10.49-8,14.68-10.8,11.22-7,15.67-9.44,11.89-6,16.58-8,12.48-4.86,17.39-6.42,13-3.69,18.12-4.78,12.08-2.34,15.56-2.79c.76-.1,1.7-.21,2.76-.31l-.79.17c-4.95,1.11-12.85,3.29-17.61,4.86s-12.35,4.5-16.9,6.52-11.77,5.65-16.1,8.1-11.15,6.74-15.23,9.58-10.46,7.76-14.25,11-9.72,8.72-13.21,12.29-8.92,9.62-12.08,13.5-8,10.45-10.86,14.63-7.11,11.21-9.56,15.67-6.11,11.91-8.17,16.62-5.06,12.55-6.71,17.48-3.95,13.13-5.15,18.26-2.78,13.64-3.51,18.95-1.54,14.07-1.8,19.53-.25,14.35,0,19.82.82,12.79,1.26,16.36,1.65,10.69,2.69,15.87,3.12,13.5,4.62,18.5,4.27,13,6.2,17.75,5.37,12.38,7.69,16.92,6.41,11.72,9.11,16,7.38,11,10.43,15,8.29,10.21,11.68,13.88,9.15,9.37,12.84,12.7,9.94,8.46,13.92,11.42,10.67,7.48,14.91,10.06,11.34,6.44,15.82,8.6S324.25,938.29,329,940s12.5,4.16,17.38,5.42c1.65.42,3.67.9,5.82,1.36C350.33,946.6,348.64,946.38,347.2,946.17ZM383.12,948c-5.12-.26-13.32-1.1-18.3-1.86s-12.93-2.4-17.74-3.64S334.61,938.9,330,937.2s-12-4.81-16.37-6.94-11.4-5.93-15.57-8.46-10.76-7-14.68-9.9-10.06-8-13.7-11.25-9.31-8.88-12.64-12.5-8.5-9.75-11.51-13.68-7.61-10.54-10.28-14.76-6.68-11.29-9-15.76-5.69-12-7.58-16.67-4.64-12.57-6.11-17.5-3.51-13.11-4.54-18.23-2.23-12.14-2.67-15.65-1-10.74-1.23-16.13-.25-14.15,0-19.54,1-14,1.77-19.26,2.28-13.61,3.46-18.67,3.46-13.13,5.08-18,4.58-12.59,6.61-17.23,5.64-12,8.05-16.38,6.64-11.31,9.42-15.43,7.57-10.59,10.69-14.41,8.46-9.79,11.9-13.3,9.27-8.94,13-12.1,10-8,14-10.8,10.73-7,15-9.43,11.37-6,15.85-8,11.93-4.86,16.62-6.41,12.46-3.69,17.32-4.78,11.54-2.34,14.87-2.79,10.2-1,15.32-1.3c2.56-.13,5.92-.19,9.28-.19h1.35c-2.05.44-4.15.91-6,1.36-4.51,1.1-11.72,3.29-16.06,4.86s-11.26,4.51-15.41,6.53-10.73,5.66-14.68,8.11-10.16,6.74-13.87,9.59-9.53,7.76-13,11-8.85,8.72-12,12.29-8.11,9.62-11,13.5-7.33,10.45-9.89,14.63-6.48,11.22-8.71,15.67-5.57,11.91-7.44,16.62-4.61,12.54-6.1,17.47-3.6,13.12-4.69,18.25-2.53,13.63-3.2,18.93-1.4,14.07-1.63,19.53-.23,14.34,0,19.8.74,12.8,1.14,16.35,1.5,10.68,2.45,15.87,2.85,13.49,4.21,18.48,3.89,13,5.64,17.75,4.88,12.36,7,16.91,5.83,11.72,8.29,16,6.72,11,9.5,15,7.55,10.22,10.64,13.89,8.34,9.38,11.7,12.7,9.05,8.46,12.68,11.43,9.72,7.49,13.58,10.07,10.34,6.44,14.42,8.6,10.9,5.34,15.18,7.07,11.39,4.16,15.85,5.43c3.1.88,7.62,2,11.64,2.79C390.13,948.24,386.09,948.18,383.12,948Zm49.69,0c-4.65.26-12.22.26-16.87,0s-12.12-1.09-16.64-1.86-11.76-2.39-16.13-3.63-11.34-3.63-15.54-5.32-10.88-4.81-14.89-6.94-10.37-5.92-14.16-8.45-9.79-7-13.35-9.89-9.17-8-12.47-11.24-8.47-8.88-11.51-12.5-7.74-9.75-10.48-13.67-6.94-10.55-9.36-14.77-6.09-11.29-8.17-15.76-5.19-12-6.91-16.68-4.22-12.57-5.56-17.5-3.2-13.11-4.14-18.24-2-12.16-2.43-15.66-.9-10.74-1.12-16.14-.23-14.16,0-19.56.95-14,1.61-19.27,2.08-13.62,3.15-18.68,3.16-13.15,4.63-18,4.17-12.59,6-17.23,5.14-12,7.34-16.39,6-11.31,8.57-15.44,6.9-10.58,9.74-14.41S301.84,611,305,607.5s8.45-8.93,11.84-12.09,9.13-8,12.77-10.8,9.77-7,13.63-9.42,10.35-6,14.42-8,10.84-4.86,15.11-6.41,11.33-3.68,15.75-4.77S399,553.72,402,553.26s9.27-1,13.93-1.29c2.32-.13,5.38-.19,8.43-.19s6.11.06,8.44.19,5.11.38,8,.7l-1.74.48A146.28,146.28,0,0,0,425.25,558c-3.74,1.59-9.69,4.52-13.25,6.55s-9.23,5.67-12.62,8.12-8.73,6.75-11.92,9.6-8.19,7.77-11.16,11S368.7,602,366,605.59s-7,9.61-9.44,13.5-6.28,10.44-8.49,14.63-5.55,11.2-7.46,15.66-4.78,11.9-6.38,16.61-4,12.53-5.24,17.46-3.08,13.11-4,18.23-2.16,13.62-2.74,18.92-1.2,14.06-1.4,19.51-.19,14.33,0,19.78.64,12.78,1,16.34,1.29,10.67,2.1,15.85,2.44,13.47,3.6,18.47,3.34,13,4.84,17.73,4.19,12.36,6,16.91,5,11.72,7.11,16,5.76,11,8.15,15,6.48,10.22,9.13,13.89,7.15,9.37,10,12.71,7.77,8.46,10.89,11.44,8.35,7.49,11.67,10.07,8.88,6.45,12.39,8.62,9.37,5.35,13.05,7.09,9.81,4.17,13.64,5.44c1.85.61,4.29,1.32,6.76,2C438.43,947.64,435.38,947.88,432.81,948Zm56.89-1.29c-2.58.45-7.92,1-11.91,1.29a111.27,111.27,0,0,1-28.65-1.85,136.53,136.53,0,0,1-13.8-3.62c-3.73-1.24-9.7-3.62-13.3-5.31s-9.32-4.8-12.75-6.92-8.87-5.91-12.13-8.44-8.38-7-11.44-9.87-7.86-8-10.69-11.23-7.28-8.89-9.88-12.5-6.64-9.75-9-13.68-6-10.56-8-14.76-5.22-11.29-7-15.78-4.45-12-5.93-16.69-3.62-12.58-4.77-17.51-2.76-13.13-3.56-18.26-1.75-12.16-2.08-15.67-.77-10.75-1-16.16-.19-14.17,0-19.56.82-14.05,1.38-19.3,1.79-13.63,2.71-18.7,2.71-13.14,4-18S335.45,671.6,337,667s4.41-12,6.29-16.4,5.2-11.32,7.37-15.44,5.92-10.59,8.36-14.42,6.6-9.79,9.29-13.29,7.24-8.92,10.15-12.08,7.83-8,10.95-10.79,8.37-7,11.68-9.41,8.86-6,12.35-7.94,9.28-4.85,12.94-6.39A139,139,0,0,1,439.89,556c3.79-1.08,9-2.33,11.56-2.78s7.93-1,11.91-1.29c2-.13,4.61-.19,7.22-.19s5.22.06,7.21.19A134.68,134.68,0,0,1,492,553.82c1.84.36,4.2.92,6.57,1.53-2.07.92-4.15,1.91-5.7,2.74a114.7,114.7,0,0,0-10.52,6.57c-2.83,2-7.32,5.69-10,8.15s-6.92,6.76-9.45,9.61-6.48,7.79-8.83,11-6,8.74-8.17,12.3-5.5,9.61-7.46,13.5-5,10.45-6.71,14.62-4.39,11.2-5.9,15.65-3.77,11.89-5,16.59-3.13,12.53-4.14,17.45-2.43,13.09-3.17,18.21-1.72,13.6-2.17,18.89-.95,14-1.1,19.49-.16,14.31,0,19.76.5,12.76.77,16.32,1,10.65,1.66,15.83,1.93,13.48,2.85,18.45,2.63,12.94,3.82,17.72,3.31,12.34,4.74,16.88,3.95,11.69,5.62,16,4.56,11,6.44,15,5.13,10.2,7.22,13.88,5.66,9.37,7.94,12.71,6.15,8.46,8.62,11.44,6.61,7.5,9.25,10.09,7,6.47,9.82,8.64a120.68,120.68,0,0,0,10.36,7.11c2.48,1.47,6.31,3.44,9.29,4.78C495.33,945.55,491.72,946.39,489.7,946.74Zm74-7.48a94.83,94.83,0,0,1-10.6,4.73,88.73,88.73,0,0,1-9.08,2.76,86.69,86.69,0,0,1-9.35,1.28,82.24,82.24,0,0,1-11.32,0,85.68,85.68,0,0,1-11.16-1.83,90.56,90.56,0,0,1-10.84-3.6,102.65,102.65,0,0,1-10.47-5.28,117.79,117.79,0,0,1-10-6.89c-2.71-2.12-7-5.89-9.57-8.42s-6.63-7-9-9.87-6.21-7.95-8.45-11.22S448,892,446,888.42s-5.26-9.76-7.11-13.68-4.72-10.56-6.36-14.78-4.14-11.31-5.56-15.78-3.52-12-4.69-16.71-2.87-12.59-3.79-17.53-2.17-13.13-2.81-18.28S414.25,779.48,414,776s-.61-10.78-.77-16.17-.15-14.19,0-19.6.65-14.06,1.1-19.31,1.41-13.64,2.15-18.72,2.14-13.16,3.14-18,2.84-12.61,4.09-17.27,3.49-12,5-16.41,4.11-11.33,5.83-15.45,4.68-10.59,6.61-14.43,5.23-9.79,7.36-13.29,5.72-8.93,8-12.09,6.18-8,8.65-10.78,6.61-7,9.22-9.39,7-5.95,9.74-7.92a109.66,109.66,0,0,1,10.19-6.36A95.5,95.5,0,0,1,504.9,556a90.27,90.27,0,0,1,9.08-2.76,87.05,87.05,0,0,1,9.35-1.28c1.56-.13,3.61-.19,5.66-.19s4.1.06,5.66.19a85.83,85.83,0,0,1,11.17,1.83,90.41,90.41,0,0,1,10.83,3.6,102.64,102.64,0,0,1,10.11,5.07c-.9.84-1.75,1.66-2.43,2.37-2,2-5.08,5.7-7,8.17s-4.79,6.77-6.54,9.62-4.49,7.78-6.11,11-4.16,8.73-5.65,12.29-3.81,9.61-5.16,13.48-3.43,10.42-4.63,14.6-3,11.19-4.08,15.63-2.61,11.87-3.49,16.57-2.15,12.48-2.85,17.42-1.69,13.08-2.2,18.18-1.18,13.59-1.49,18.87-.66,14-.77,19.46-.1,14.3,0,19.74.35,12.77.54,16.29.7,10.64,1.15,15.82,1.32,13.43,2,18.42,1.82,12.92,2.64,17.69S523,840.42,524,845s2.73,11.69,3.88,15.95,3.15,11,4.46,15,3.54,10.21,5,13.87,3.91,9.35,5.49,12.69,4.26,8.47,6,11.44,4.58,7.5,6.41,10.09,4.88,6.48,6.81,8.66c1.27,1.44,3.09,3.3,4.77,4.91C565.63,938.18,564.57,938.79,563.68,939.26Zm77.06-23.46c-1.71,2.78-4.57,7-6.38,9.38s-4.82,5.93-6.72,7.9a76.82,76.82,0,0,1-7,6.32,59.62,59.62,0,0,1-7.25,4.67,48.66,48.66,0,0,1-6.17,2.72,42.89,42.89,0,0,1-6.33,1.25,40.73,40.73,0,0,1-7.65,0,42.16,42.16,0,0,1-7.56-1.8,50.75,50.75,0,0,1-7.38-3.54,63.64,63.64,0,0,1-7.17-5.23,87.3,87.3,0,0,1-6.91-6.85c-1.88-2.12-4.84-5.89-6.61-8.41s-4.58-6.94-6.25-9.85-4.3-8-5.86-11.24-4-8.89-5.41-12.5-3.63-9.76-4.92-13.7-3.27-10.58-4.41-14.8-2.87-11.32-3.85-15.81-2.44-12-3.25-16.73S521.67,815,521,810s-1.51-13.17-2-18.3-1-12.2-1.14-15.72-.42-10.76-.53-16.19-.1-14.21,0-19.62.45-14.1.76-19.34,1-13.65,1.49-18.75,1.48-13.17,2.18-18.06,2-12.66,2.83-17.29,2.43-12,3.46-16.44,2.85-11.34,4-15.48,3.25-10.61,4.58-14.44,3.62-9.8,5.1-13.31,4-8.93,5.56-12.1,4.28-8,6-10.78,4.57-7,6.37-9.38,4.83-5.93,6.72-7.9a79.58,79.58,0,0,1,7-6.32,59.62,59.62,0,0,1,7.25-4.67,49.94,49.94,0,0,1,6.17-2.72,42.89,42.89,0,0,1,6.33-1.25,40.73,40.73,0,0,1,7.65,0,42,42,0,0,1,7.56,1.8,49.78,49.78,0,0,1,7.38,3.54,64,64,0,0,1,7.17,5.23,87.39,87.39,0,0,1,6.92,6.85c1.87,2.12,4.83,5.89,6.61,8.41s4.58,7,6.25,9.85c.62,1.09,1.37,2.47,2.15,3.93-.23.85-.44,1.65-.63,2.36-.82,3.21-2.12,8.71-2.88,12.25s-1.94,9.61-2.63,13.45S637,630,636.43,634.2s-1.55,11.18-2.08,15.59-1.33,11.83-1.78,16.54-1.1,12.46-1.45,17.39-.87,13.08-1.12,18.16-.61,13.53-.77,18.84-.33,14-.39,19.43-.05,14.27,0,19.7.18,12.74.27,16.27.36,10.6.59,15.79.68,13.46,1,18.4.93,12.92,1.35,17.65,1.17,12.33,1.67,16.84,1.39,11.63,2,15.91,1.61,10.94,2.28,14.92,1.8,10.17,2.54,13.83,2,9.34,2.8,12.66c.43,1.79,1,4.09,1.62,6.3C643.52,911.05,641.9,913.9,640.74,915.8Zm71.07-156c-.06,5.38-.23,14.06-.39,19.37s-.5,13.66-.76,18.78-.76,13.22-1.12,18.09-1,12.64-1.45,17.33-1.24,12-1.77,16.46-1.45,11.35-2.07,15.51-1.66,10.63-2.35,14.48-1.85,9.81-2.61,13.35-2,9-2.85,12.13-2.2,8-3.07,10.81-2.34,7-3.27,9.42-2.47,5.93-3.44,7.91a71.12,71.12,0,0,1-3.57,6.3,38.7,38.7,0,0,1-3.63,4.59,22.57,22.57,0,0,1-3,2.6,11.84,11.84,0,0,1-2.92,1.11,8.89,8.89,0,0,1-3.41,0,12.44,12.44,0,0,1-3.51-1.63A24.71,24.71,0,0,1,663,943a47.68,47.68,0,0,1-3.62-5.18c-1-1.67-2.58-4.75-3.53-6.85s-2.48-5.9-3.39-8.42-2.35-7-3.21-9.89-2.2-8-3-11.27-2-8.92-2.77-12.54-1.87-9.8-2.53-13.73-1.67-10.62-2.25-14.84-1.47-11.36-2-15.84-1.25-12-1.67-16.76-1-12.6-1.34-17.59-.77-13.15-1-18.33-.49-12.24-.59-15.74-.21-10.79-.27-16.22-.05-14.23,0-19.64.23-14.11.39-19.37.5-13.71.76-18.78.76-13.17,1.12-18.09,1-12.69,1.45-17.33,1.24-12.07,1.77-16.46,1.46-11.35,2.07-15.51,1.66-10.63,2.35-14.48,1.85-9.81,2.61-13.35,2-8.95,2.85-12.13,2.19-8,3.07-10.81,2.34-7,3.27-9.42,2.47-5.94,3.44-7.9a67.29,67.29,0,0,1,3.57-6.31,36.78,36.78,0,0,1,3.64-4.59,22,22,0,0,1,3-2.6,11.84,11.84,0,0,1,2.92-1.11,9.16,9.16,0,0,1,3.41,0,12.44,12.44,0,0,1,3.51,1.63,23.75,23.75,0,0,1,3.63,3.41,47.68,47.68,0,0,1,3.62,5.18c1,1.67,2.58,4.74,3.54,6.85s2.47,5.9,3.38,8.42,2.35,7,3.21,9.89,2.2,8,3,11.27,2,8.93,2.77,12.54,1.87,9.8,2.53,13.73,1.67,10.59,2.25,14.84,1.47,11.32,2,15.84,1.26,12,1.67,16.76,1,12.65,1.34,17.59.78,13.17,1,18.33.49,12.15.59,15.74.22,10.85.27,16.22S711.86,754.41,711.81,759.82Z"/></svg>