<svg id="Abstract_Shape" data-name="Abstract Shape" xmlns="http://www.w3.org/2000/svg" viewBox="0 0 1500 1500"><path d="M1073.14,760H926.58a532.41,532.41,0,0,1-7.4,80h138.27A262,262,0,0,0,1073.14,760Z"/><path d="M1057.45,660H919.18a532.41,532.41,0,0,1,7.4,80h146.56A262,262,0,0,0,1057.45,660Z"/><path d="M994.25,560H889.94a413.12,413.12,0,0,1,25.4,80h133.92A285.18,285.18,0,0,0,994.25,560Z"/><path d="M994.25,940a285.18,285.18,0,0,0,55-80H915.34a413.12,413.12,0,0,1-25.4,80Z"/><path d="M880.35,960c-15.54,29.81-34,53.59-54.82,70.74-.74.61-1.49,1.21-2.24,1.81a346.85,346.85,0,0,0,61.26-18.78A325.89,325.89,0,0,0,973,960Z"/><path d="M880.35,540H973a325.89,325.89,0,0,0-88.44-53.77,346.85,346.85,0,0,0-61.26-18.78c.75.6,1.5,1.2,2.24,1.81C846.39,486.41,864.81,510.19,880.35,540Z"/><path d="M412.65,960c39,22,83.37,39.91,132.47,53.37q21.66,5.94,44,10.57A340.15,340.15,0,0,1,497.43,960Z"/><path d="M589.1,476.06q-22.3,4.63-44,10.57C496,500.09,451.61,518,412.65,540h84.78A340.15,340.15,0,0,1,589.1,476.06Z"/><path d="M428.91,860H296.74c20.28,29.14,48.34,56,83.66,80h98.27A300.38,300.38,0,0,1,428.91,860Z"/><path d="M478.67,560H380.4c-35.32,24-63.38,50.86-83.66,80H428.91A300.38,300.38,0,0,1,478.67,560Z"/><path d="M406.84,760H260.29c1.57,27.31,9.61,54.16,24,80H421.36A282.11,282.11,0,0,1,406.84,760Z"/><path d="M421.36,660H284.25c-14.35,25.84-22.39,52.69-24,80H406.84A282.11,282.11,0,0,1,421.36,660Z"/><path d="M619.64,960H527a325.89,325.89,0,0,0,88.44,53.77,346.85,346.85,0,0,0,61.26,18.78c-.75-.6-1.5-1.2-2.24-1.81C653.61,1013.59,635.19,989.81,619.64,960Z"/><path d="M610.06,940a413.34,413.34,0,0,1-25.4-80H450.74a285.18,285.18,0,0,0,55,80Z"/><path d="M505.75,560a285.18,285.18,0,0,0-55,80H584.66a413.34,413.34,0,0,1,25.4-80Z"/><path d="M580.82,660H442.55a262,262,0,0,0-15.69,80H573.42A532.41,532.41,0,0,1,580.82,660Z"/><path d="M442.55,840H580.82a532.41,532.41,0,0,1-7.4-80H426.86A262,262,0,0,0,442.55,840Z"/><path d="M619.64,540c15.55-29.81,34-53.59,54.83-70.74.74-.61,1.49-1.21,2.24-1.81a346.85,346.85,0,0,0-61.26,18.78A325.89,325.89,0,0,0,527,540Z"/><path d="M632,940H740V860H605.13C611.65,889.13,620.67,916,632,940Z"/><path d="M601.12,840H740V760H593.42A511,511,0,0,0,601.12,840Z"/><path d="M605.13,640H740V560H632C620.67,584,611.65,610.87,605.13,640Z"/><path d="M642.43,540H740V460.61C703.78,465,669.13,493.23,642.43,540Z"/><path d="M593.42,740H740V660H601.12A511,511,0,0,0,593.42,740Z"/><path d="M740,1039.39V960H642.43C669.13,1006.77,703.78,1035,740,1039.39Z"/><path d="M906.58,760H760v80H898.88A511,511,0,0,0,906.58,760Z"/><path d="M898.88,660H760v80H906.58A511,511,0,0,0,898.88,660Z"/><path d="M868,560H760v80H894.87C888.35,610.87,879.32,584,868,560Z"/><path d="M894.87,860H760v80H868C879.32,916,888.35,889.13,894.87,860Z"/><path d="M760,460.61V540h97.57C830.87,493.23,796.22,465,760,460.61Z"/><path d="M857.57,960H760v79.39C796.22,1035,830.87,1006.77,857.57,960Z"/><path d="M1093.16,740h146.55c-1.57-27.31-9.61-54.16-24-80H1078.64A282.11,282.11,0,0,1,1093.16,740Z"/><path d="M1078.64,840h137.11c14.35-25.84,22.39-52.69,24-80H1093.16A282.11,282.11,0,0,1,1078.64,840Z"/><path d="M1021.33,940h98.27c35.32-24,63.38-50.86,83.66-80H1071.09A300.38,300.38,0,0,1,1021.33,940Z"/><path d="M1071.09,640h132.17c-20.28-29.14-48.34-56-83.66-80h-98.27A300.38,300.38,0,0,1,1071.09,640Z"/><path d="M1087.35,540c-39-22-83.37-39.91-132.47-53.37q-21.66-5.94-44-10.57A340.15,340.15,0,0,1,1002.57,540Z"/><path d="M910.9,1023.94q22.3-4.63,44-10.57C1004,999.91,1048.39,982,1087.35,960h-84.78A340.15,340.15,0,0,1,910.9,1023.94Z"/></svg>