<svg id="Abstract_Shape" data-name="Abstract Shape" xmlns="http://www.w3.org/2000/svg" viewBox="0 0 1500 1500"><polygon points="1250 748.5 761.4 748.5 1233.35 622.04 1232.57 619.14 760.62 745.6 1183.76 501.3 1182.26 498.7 759.12 743 1104.61 397.51 1102.49 395.39 757 740.88 1001.3 317.74 998.7 316.24 754.4 739.38 880.86 267.43 877.96 266.65 751.5 738.6 751.5 250 748.5 250 748.5 738.6 622.04 266.65 619.14 267.43 745.6 739.38 501.3 316.24 498.7 317.74 743 740.88 397.51 395.39 395.39 397.51 740.88 743 317.74 498.7 316.24 501.3 739.38 745.6 267.43 619.14 266.65 622.04 738.6 748.5 250 748.5 250 751.5 738.6 751.5 266.65 877.96 267.43 880.86 739.38 754.4 316.24 998.7 317.74 1001.3 740.88 757 395.39 1102.49 397.51 1104.61 743 759.12 498.7 1182.26 501.3 1183.76 745.6 760.62 619.14 1232.57 622.04 1233.35 748.5 761.4 748.5 1250 751.5 1250 751.5 761.4 877.96 1233.35 880.86 1232.57 754.4 760.62 998.7 1183.76 1001.3 1182.26 757 759.12 1102.49 1104.61 1104.61 1102.49 759.12 757 1182.26 1001.3 1183.76 998.7 760.62 754.4 1232.57 880.86 1233.35 877.96 761.4 751.5 1250 751.5 1250 748.5"/></svg>