<svg id="Abstract_Shape" data-name="Abstract Shape" xmlns="http://www.w3.org/2000/svg" viewBox="0 0 1500 1500"><path d="M621.7,506.14c-22.53,17.89-40.13,36.52-58.14,58.5-64.33,78.55-89.84,144.81-148.15,196.83C443.11,737.31,465,708,485.76,677.6c22.13-32.46,34.38-53.09,62.84-89.81,23.13-30,46.1-56,75.41-78.69,41.48-31.66,89.82-51.05,150.94-55.35,1.85-.18,2.34-.18,13.58-.69,24.24-.31,37.94.17,67.88,3.92a642.34,642.34,0,0,1,80,16.83c52.29,14.14,104.83,33.27,157.39,48,17.68,4.95,35.53,9.45,53.58,13.21h0a5,5,0,1,0,1.93-9.81h0c-11.9-2.34-23.74-5-35.54-7.94a5,5,0,0,0-.47-9.61h0c-11.32-2.53-22.58-5.41-33.78-8.56a5,5,0,0,0-3.67-5.6h0c-11.91-3.06-23.71-6.56-35.43-10.39a5,5,0,0,0-2.54-1.79h0c-16.31-5-32.38-10.82-48.25-17.27s-31.57-13.44-47.23-20.6c-11.2-5.11-21.94-10.07-32.4-14.84l-2.35-1.21c-14.38-7.5-28.74-15.13-43.27-22.51-8.57-5.08-17.15-10.16-25.8-15.17-13.73-9.1-27.49-18.26-41.5-27.08-14.27-9-28.85-17.6-43.94-25.34-7.51-3.92-15.23-7.47-23-10.88-7.85-3.25-15.75-6.41-23.87-9a249.24,249.24,0,0,0-24.66-6.68,209,209,0,0,0-38.06-4.46c-3.92-.14-2.46-.13-6.39-.06a180.1,180.1,0,0,0-25.53,1.95c-2,.28-.21-.06-9.46,1.77-1.65.33-.46,0-10.88,2.75a158,158,0,0,0-16.57,6c-1,.37-2,.86-2.92,1.31-10,4.8-5.78,2.8-14.21,7.41-1.83,1.1-3.6,2.3-5.4,3.45a53.36,53.36,0,0,0-5.27,3.63,111.58,111.58,0,0,0-10,7.95c-.81.7-1.63,1.38-2.43,2.08-5.58,5.38-5.87,5.64-6.9,6.68-.55.61-5.92,6.46-6.45,7.1-4.84,6-5.09,6.31-6,7.48-5,7.11-5.05,7.12-5.52,7.83-6.07,9.82-4.25,6.7-8.07,13.74-2.32,4.29-1.32,2.4-2.9,5.67-16.88,35.46-22.5,70.65-25.18,110.47-2.17,33.6-1.65,67.23-3.74,100.74-.21,4.19-.61,8.36-.92,12.55s-.8,8.35-1.21,12.53-1,8.33-1.63,12.47-1.21,8.31-2.06,12.42a252.67,252.67,0,0,1-13.76,48.36,253.2,253.2,0,0,0,14.37-48.24c.91-4.11,1.5-8.28,2.23-12.42s1.18-8.32,1.78-12.48,1-8.36,1.37-12.54.81-8.37,1.07-12.57c4.77-63.72,0-138.24,25.94-198.24,2.93-6.7,1.1-2.89,5.24-11.31,1.59-3.19.56-1.31,2.91-5.51,3.91-7,2-3.74,8-13.32.41-.6,5-7,5.46-7.55.94-1.2,1.18-1.48,5.9-7.2.67-.79,1.41-1.52,2.11-2.28,5.44-5.82,3.15-3.53,11-10.91.55-.48,6.6-5.46,7.16-5.93s6.95-5,7.54-5.43c6.38-4,6.58-4.16,7.88-4.91,8-4.21,3.75-2.32,13.8-7,2.38-1.09.62-.37,8.6-3.46,1.47-.63,2.14-.8,8.81-2.91a27.87,27.87,0,0,1,3-.84,114.47,114.47,0,0,1,12.07-2.71,117.14,117.14,0,0,1,12.23-1.78c2.33-.28,1.26-.16,3.08-.29a146.86,146.86,0,0,1,15.47-.53c4,0,1.29-.11,12.4.42,2.06.11,4.12.39,6.17.57,14.55,1.27,33.77,5.59,48.37,10.71,7.88,2.58,15.55,5.77,23.18,9,7.56,3.43,15.07,7,22.41,10.94q7.39,3.92,14.64,8.11c-9-3.66-18.18-7-27.5-9.85a265.29,265.29,0,0,0-50.08-10.33c-18.13-1.58-23.72-1.33-38.44-.49-2.13.15-4.26.46-6.38.68A181.27,181.27,0,0,0,619.82,336c-.81.18-.65.15-9.29,2.55-1.43.44-1.87.6-9.14,3.06-1,.38-2,.8-3,1.19A120.57,120.57,0,0,0,586.64,348c-1,.46-1.94.9-2.89,1.39-6.83,3.74-7.18,3.93-8.43,4.67-8.9,5.63-7.16,4.49-10.72,7.08-10.28,7.11-22.2,18.77-28,26.27-4.47,5.56-1.58,1.65-7.8,10.14-1.62,2.11-6.42,9.52-7.09,10.62a219.41,219.41,0,0,0-17,34.21c-4.64,12.09-2.14,5.6-4.39,11.94-6.38,17.7-12,43.18-14.91,61.62C479.88,549.26,477.71,583,473,616.33c-4.73,33.7-12,66.61-27.54,96.75,16-30.13,23.66-63.14,28.78-96.57s7.69-67.06,13.58-100.2c3.22-18.76,9.25-44.12,15.54-61,10.66-28.81,23.55-52.7,44.85-74.5a143.14,143.14,0,0,1,21.61-17.74c.6-.44.36-.27,7.92-4.93,1.8-1,3.65-2,5.47-2.95a55.27,55.27,0,0,1,5.56-2.77,113,113,0,0,1,11.46-4.85,59.25,59.25,0,0,1,5.86-2.08A124.26,124.26,0,0,1,618.06,342a61,61,0,0,1,6.06-1.4c6.82-1.35,2.06-.6,12.26-2.16,2.45-.43,11.09-1.25,12.37-1.32,14.33-.64,19.57-.83,37.32.93a259,259,0,0,1,48.71,10.68,354.59,354.59,0,0,1,46.35,18.84q4.36,2.08,8.74,4.31l-3.93-1.36-3-1-3.07-1-6.14-1.93c-2.06-.62-4.13-1.18-6.19-1.78a287,287,0,0,0-50.61-9.65c-28.45-2.95-57.24-.26-80.06,6.19-7.31,2.21-7.8,2.34-9.27,2.83-11.34,4.18-19.4,6.86-35.17,16.23l-6.81,4.36c-.38.28-7.47,5.44-7.83,5.73-8.51,7.06-6.14,5-11,9.55-4.35,4.2-.77.44-9,9.21-1,1-1.68,1.87-4.23,4.85-2.86,3.21-5.43,6.66-8.07,10-1.33,1.68-2.51,3.48-3.76,5.22-42.62,61-51.83,139.38-65.61,198.94-7.7,33.21-17.7,66-35.75,94.95,18.4-28.71,28.83-61.42,37-94.67,14.73-60.27,23.51-130.84,63.87-191.83,1.15-1.81,6.44-9.07,7.4-10.25,6.05-7.55,3.7-4.8,10.11-12.11,1.34-1.55.8-1,6.51-6.87,1.14-1.24,1.76-1.77,6.85-6.47,1.73-1.61,1-1,7.25-6a24.68,24.68,0,0,1,2.49-1.9c7.58-5.39,6-4.27,7.73-5.38,15.45-9.62,26.6-14.8,45.71-20.43A203.8,203.8,0,0,1,666,361.27c33.26-3.56,67,.44,99.59,10.17,2,.61,4,1.18,6,1.81l6,2,3,1c15.58,5.59,29.43,11.32,42.79,17.45a417.53,417.53,0,0,0-51.22-12.94,296.42,296.42,0,0,0-52-4.53c-19.2.47-24.69,1.22-39.06,3.32-15.16,2.88-16.78,3.39-28.64,6.78-.83.25-.8.25-9.31,3.13-1.43.54-1.81.69-9.14,3.58-1,.42-2,.9-3,1.34-8.45,3.85-4.95,2.2-11.78,5.72-4.78,2.5-2.57,1.33-5.73,3.17a125.31,125.31,0,0,0-11.07,7c-3.55,2.4-1.75,1.06-10.53,7.79-1.16,1-1.45,1.21-7.44,6.43-.63.53-6.46,6.2-7.06,6.78-22.75,22.91-38.16,48.19-51.11,74.89-4.86,9.79-15.62,34.71-24.35,60-8.46,24.63-15.26,49.24-23.34,74-10.7,32.8-23.45,65.27-44,93,20.83-27.51,34-59.83,45.15-92.64s20.25-66,33.45-97.78c9.12-22.48,21.23-48.86,34.72-68.91,10.92-17.29,28.41-37.92,46.62-52.47,8.67-6.48,6.86-5.17,10.34-7.46a120.57,120.57,0,0,1,10.87-6.68,59.55,59.55,0,0,1,5.61-3c17.11-8.57,26.53-11.41,41.78-15.55,11.08-2.48,7.65-1.78,18.78-3.76a240.46,240.46,0,0,1,25.42-2.49,266.65,266.65,0,0,1,38.3,1.14c8.49.78,16.92,2.14,25.32,3.62,33.22,6.58,62.09,16.62,91.41,29.06.7.46,1.4.93,2.11,1.38-13.75-4.17-28.06-8-43.6-11.4-17.1-3.32-8.61-1.65-19.59-3.55-7.51-1.22-20.24-2.73-33-3.51l-10-.41a306.06,306.06,0,0,0-36.5,1.38,249.25,249.25,0,0,0-58.31,12.81c-8.63,3.15-5.08,1.8-12.39,4.85-5.79,2.44-2.79,1.18-6.07,2.71a183.06,183.06,0,0,0-23.28,12.9c-1.21.72-1.33.83-9.57,6.65-48.18,38.28-73.39,83.1-100.35,139.49-14.34,32.08-20.19,48.31-30.62,72.81-13.73,32.24-29.39,64.11-52.7,90.48,23.61-26.09,39.68-57.78,53.85-90,8.89-20.21,12.1-29,25.95-60.44l5.5-11.93c23.22-47.1,49.05-93.63,89.49-127.84,3.13-2.82,10.36-8.45,12.75-10.09l5.35-3.69a206.82,206.82,0,0,1,19.7-11.34c8.37-3.91,8.11-3.81,8.84-4.1a216.88,216.88,0,0,1,27.59-9.72c15.77-4,8.31-2.09,19-4.42,1.49-.3,10.93-1.89,12.85-2.09a277.68,277.68,0,0,1,39-2.57c11.25.21,9,.16,13,.37,8,.42,5,.22,13,.89,6.47.46,20,2.26,25.86,3.28,4.27.8,8.57,1.46,12.82,2.39,27.92,5.77,53.85,14,79.74,23.62q6,3.51,12.15,6.87c-50.91-14.58-102.34-23.79-156.14-18.56-125.67,12.1-180.77,90.95-227.33,170.19-33.8,60.45-57,116.07-99.39,158.61,43-42.08,66.86-97.6,101.28-157.51C552.33,546.9,580.39,505,625.54,472.64c3.55-2.66,7.33-5,11-7.4,1.84-1.25,3.78-2.33,5.7-3.44,31.13-18.08,65-29.17,107.12-32.73,91-7.78,176.67,26.88,258.71,56.35q13.54,4.86,27.17,9.56c-32.12-9.83-64.24-20-96.92-28.42C825.15,437,713.54,434.36,621.7,506.14Z"/><path d="M558.38,604.7C571,591,584,577.6,597.77,565.06Q608.12,555.68,619,547c145.75-115.1,316.6-55.54,452.65-16.72,35.94,10.28,72.21,20,109.21,26.88h0a5,5,0,1,0,1.72-9.85h0C1146.09,541,1110,531.7,1074,521.85s-71.92-20.29-108.4-28.9C891,475.38,816.89,466,742.38,482.82c-5.36,1.09-21.46,5.48-27.2,7.5-34.1,11.45-64.74,26.86-98.31,54q-10.92,8.88-21.21,18.46C582,575.54,569,589.1,556.53,603c-59.27,65.72-91.64,123.3-148.22,167.49C465.5,726.86,498.45,669.68,558.38,604.7Z"/><path d="M566.25,622.27c7-6.46,14-12.85,21.23-19s14.56-12.19,22.1-17.94c3.74-2.93,7.6-5.68,11.41-8.51s7.72-5.5,11.69-8.09a368.54,368.54,0,0,1,43-24.93c141.18-67.83,284-21.95,422.73,15.09,36.83,9.81,73.94,19.08,111.7,25.64h.06a5,5,0,1,0,1.6-9.87h0c-37.34-6.07-74.29-14.85-111.13-24.24C996.2,523.77,920.05,501.08,822.7,503.5c-32.35,1.6-50.24,4.2-78.2,10.67-23.66,6.22-33.16,9.66-51.08,17-2.23.88-4.39,1.93-6.58,2.9-34.76,16-54.82,30.87-67.78,40.11-3.81,2.89-7.67,5.7-11.39,8.69-7.53,5.87-14.84,12-22,18.29s-14.19,12.75-21.11,19.3C502.34,679.77,462.78,736.7,401,779.35,463.25,737.37,503.53,680.8,566.25,622.27Z"/><path d="M573.21,642.62c15.07-12,30.4-23.72,46.37-34.47,63.28-42.57,132-66.13,216.76-67.16,11.94,0,12.52,0,14.4.12,28.16,1.11,17.63.48,46.7,2.9,41,5,54.59,7.47,95.91,16.26,57.16,13.3,71.86,17.93,126.18,32,37.42,9.67,75.11,18.77,113.41,25.32h0a5,5,0,1,0,1.58-9.87h0c-37.9-6.07-75.44-14.7-112.87-24s-74.81-19.13-112.59-27.53c-42.26-9.35-58.79-11.7-85.74-15.64-1-.12-22.52-2.64-28.93-3.1l-14.51-1c-8.17-.54-2.63-.36-14.54-.7-22.88-.65-14.41-.44-21.83-.44-88.9.75-160,25-225.72,70.27-16,11-31.21,22.89-46.18,35.1s-29.72,24.72-44,37.7c-42.11,38-83.45,80-134.19,109.71,51.08-29.18,92.94-70.8,135.44-108.31C543.29,667,558.13,654.66,573.21,642.62Z"/><path d="M576.93,663.68q12-8.29,24.21-16.19t24.79-15.22c57.66-33.61,117-52.07,185.58-56.54,32.75-2.14,59.39.16,72.44,1,4.66.33-1-.23,21.65,2.15,75.3,8.33,154.34,31.4,227.05,50.35,37.66,9.81,75.59,19.06,114.09,25.91h0a5,5,0,1,0,1.65-9.86h0c-38.14-6.37-75.93-15.15-113.61-24.53-110.52-27.54-222.58-60.66-338.25-49-63.23,6.58-119.71,26.42-172.22,57.78-8.38,5-16.62,10.18-24.74,15.56S583.44,656,575.5,661.62c-15.86,11.26-31.64,22.65-47,34.59-45.82,35.38-90,73.83-142.8,100.46,53.05-26.07,97.66-64,143.94-99C545.1,686,561,674.75,576.93,663.68Z"/><path d="M1250.91,685.14h0c-207.43-36.7-405.94-143.3-624.31-30.25-17.3,8.9-34.1,18.67-50.67,28.76s-33,20.47-49.11,31.26c-47.19,31.47-94.87,66.66-149,90.27,54.4-23,102.53-57.77,150-88.7,16.21-10.61,32.7-20.78,49.36-30.69,53.24-31.71,99.29-53.89,159.69-66.67C913,582.6,1076.82,662.58,1249.11,695h.05a5,5,0,1,0,1.75-9.85Z"/><path d="M1240.32,723.65h0c-76.26-14.1-149.19-36.85-222.25-55-7-1.8-24.91-6.14-42-9.87-156.15-33.91-263.72-27.47-404.12,47-66.86,35.68-128.37,79.09-202.13,107.87C444,785.61,505.92,742.89,573.13,708c71.22-36.79,138.6-59.74,217.62-63.07,46.27-2,80.75,2.8,99.59,5,33.76,5,18.59,2.73,42.27,6.88,4.7.78,9.35,1.82,14,2.76,101.69,21,191.3,54.22,291.81,74h.06a5,5,0,0,0,1.82-9.83Z"/><path d="M1218,756.36h0c-137.76-24.9-271.17-80.7-409.89-83.19C742.45,672,676.54,684.7,615.94,706.83,525.64,738.77,458,790.42,361.82,822c96.11-30.33,165.45-81.6,255.16-112.2,9.62-3.39,4.22-1.61,26.46-8.66,19.74-5.56,18.63-5.26,20.1-5.62,28.44-7,39.92-9.49,75.11-14.07,3.28-.36,4-.41,20.75-1.93,23.75-1.24,17.66-1,34.7-1.2,7,0,.35-.22,13.88.18,12,.35,12.17.33,13.88.48,23.74,1.66,16.21,1.07,27.67,2.28,129.74,14.06,240.08,60.61,366.63,85h0a5,5,0,0,0,1.78-9.84Z"/><path d="M1187.55,781.92h0c-35.3-5.64-70.29-13.39-105.15-21.86-72.69-17.68-102.65-27.19-177.22-41.91L898.49,717c-24.7-4.33-12.2-2.14-26.69-4.39-10.46-1.56-11.34-1.71-13.39-1.93l-20.15-2.41c-31.23-2.72-44-3.45-74.36-3-11.52.2-6.07.1-13.52.44-19.35,1-11.15.51-27,1.85-10.5.91-5.78.48-13.46,1.38-35.95,4.4-64.42,9.87-105.71,22.19-57.69,17.46-92.16,36.43-149.49,61.77-32.82,14.55-66.28,27.9-100.94,37.49,34.77-9.18,68.42-22.16,101.44-36.35,61.1-26.16,81-38,137-56A587.05,587.05,0,0,1,777.4,710.17c19.85.58,18.66.54,20.11.62,53.58,3.44,89,9.66,139.23,21,57.3,13.32,90.24,23.17,143.52,36.79,34.87,8.9,70,17.12,105.65,23.24h.06a5,5,0,1,0,1.58-9.87Z"/><path d="M1151.67,800.06h0c-34-4.19-67.85-10.38-101.55-17.38-68.89-14.43-133.32-31.11-202.9-41.4-104.27-15.41-206.83-9-307,27-51.76,18.31-119.59,52.6-194.37,70.39,75-16.89,143.12-50.31,195.19-68C641.22,736,742.85,730.9,846.25,747.46c69.18,11.09,133.11,28.47,202,43.77,33.75,7.44,67.75,14.1,102.14,18.75h.06a5,5,0,0,0,1.22-9.93Z"/><path d="M1113.05,811.7h0c-32.69-2.35-65.27-6.59-97.75-11.72C915.44,784.22,824,761.25,721.4,758.84c-9.86-.18-22.33-.08-24.81,0-8.27.29-16.54.37-24.79,1-29.75,1.43-65.64,6.51-86,10.82-66.59,14.07-83,24.49-153,49.07-31.07,10.93-62.62,20.67-94.91,27.39,32.37-6.31,64.08-15.66,95.32-26.21,71.48-24.08,85.68-33.64,156.26-47.63C652,762.66,694.34,761.87,752,765.4c96,8.1,170.84,27.67,261.82,43.22,32.57,5.56,65.37,10.25,98.42,13h.06a5,5,0,1,0,.72-10Z"/><path d="M1073.41,818.56h0c-31.27-.9-62.53-3.66-93.7-7.34-81.26-9.6-181-28.71-257.88-31.8-7.89-.46-15.78-.59-23.68-.82-52.53-.85-85.77,3.56-100.44,5.28-82.86,11.88-103.08,24.14-176.48,48-29.91,9.73-60.29,18.25-91.31,23.7,31.09-5,61.62-13.16,91.69-22.51,72.05-22.32,84.56-31.15,159-43.19,149.72-21.74,281.36,16.83,420.58,32.88-19.15-.29-38.32-1.19-57.47-2.51-70.77-4.81-140.18-15.61-224-21.13-15-.83-30.05-1.5-45.1-1.62-117-1.77-184.79,21.17-222,33-43.16,13.85-85.53,27.29-130.51,33.71,45.05-5.79,87.62-18.64,131.07-31.92,32.33-9.77,71.77-21.75,131.7-27.09C713,793.61,818.08,818.5,941.14,828.76q-16.59.36-33.21.12c-114.81-1.45-224.06-21-342.35-9.36-31.44,2.67-75.46,10.33-105.52,18.91-39.12,10.44-91.53,29.37-145.62,34.46,54.2-4.31,107-22.5,146.18-32.34,27.15-7.33,71.07-14.89,105.29-17.3,113.59-9.46,218.49,9.7,328.91,14-88.6,6.45-177.91-2.49-266.27-2.05-131.35.31-188.54,20.93-241.37,33.79-26.31,6.47-53,11.77-80.19,12.86,27.76-.7,53.95-5.61,80.48-11.64,53.09-12.07,109.9-31.71,241.06-30,77.13.8,155.1,8.81,233.18,7.38-33.27,4.61-66.51,6.9-100.72,8.12-105,3.54-205.22-3.53-308.69,11.94-49.61,7.42-98.68,23-152.52,23.31,49.91.48,94.61-11.93,143.33-19.44,109-15.78,207.24-6.37,318.08-8.32,29.32-.56,57.94-1.92,86.5-4.83C709.39,888.76,574,871.19,420.46,889.19c-50.3,6.95-86.23,13.72-127.59,11,41.32,3.4,77.53-2.77,127.85-8.85C584.85,875,727.89,898.8,878.09,861.19l.08,0A5,5,0,0,0,881.7,855a4.15,4.15,0,0,0-.35-.93c11.36-1.69,22.76-3.65,34.23-6h.08a5,5,0,0,0,3.74-3.63c11.69-1.06,23.37-2.4,35-4.12h.08a5,5,0,0,0,3.63-2.67c11.9-.32,23.81-.9,35.71-1.81h.07a5,5,0,0,0,4.36-3.7q17.55.57,35.13.43h.07a5,5,0,0,0,4.89-5.11,5.22,5.22,0,0,0-.17-1.13c11.55.94,23.16,1.69,34.85,2.18h.06a5,5,0,1,0,.29-10Z"/><path d="M840.46,870.7c-142.28,45.1-300.25,33.67-414.79,37.94-50.49,1.53-93.42,9.09-139.39,1.11,45.78,8.8,88.19,2,139.46,1.39,98.06-1.9,223.46,8.06,349.21-14.61,26.7-4.91,52.75-11.42,68.55-16.31a5,5,0,1,0-3-9.52Z"/><path d="M808.52,894.78c-84,29.78-173.17,39.08-262.06,41.14l-8.35.18-8.35.11c-46.17.52-65.94-1.51-116.86-4.24-52.9-2.88-92.09-.44-132.84-12.43,40.56,12.76,80,11.06,132.68,14.92,50.85,3.68,70.7,6.1,117,6.44l8.37.05,8.38,0c44.67-.2,89.44-2.15,133.91-7.76,43.29-5.42,90.31-14.93,131.44-28.95a5,5,0,1,0-3.36-9.42Z"/><path d="M779.17,922.62c-80.06,31.6-165.54,41.65-251.25,43.1-43.15,1.15-85.2-4.68-128-10.42-52.34-7-87.25-8.56-125.63-25.74,37.89,17.86,72.11,20.06,125.27,28.22,48.69,7.49,79.06,12.1,120.31,12.91,2.7,0,5.38,0,8.07,0,87,.22,173.27-8.4,254.8-38.76l.09,0a5,5,0,1,0-3.67-9.3Z"/><path d="M752.19,952.78c-59.71,25.76-116.42,36.71-180.51,42.27-65.9,5.72-97.38,1-124.15-2.61-53.47-7.4-75.16-14.29-91.58-18.88C325.08,964.92,296,958,269,939.85c26.66,18.65,55.54,26.2,86.41,35.51,19.91,6,40.73,12.72,91.56,20.79,26.94,4.17,58.66,9.57,125.18,5.13,65.28-4.35,122.94-14.42,183.9-39.28l.09,0a5,5,0,1,0-4-9.18Z"/><path d="M726.88,984.34h0a519.12,519.12,0,0,1-175.39,45l-15.17.91c-21.36.48-17.51.43-22.78.34-16.51-.3-11.44-.12-22.78-.79-13.19-.79-6.79-.4-15.15-1.19-13.06-1.34-10.54-1-15.1-1.73-69-10.6-143.78-29.94-196.24-76.47,49,45.26,115.89,65,180.46,78.17,2.35.45,16.3,2.93,22.75,3.75,13.5,1.67,13.47,1.68,15.27,1.84,21,1.68,13,1.2,34.53,2,1,0,.34,0,19.23,0l15.37-.61A528.44,528.44,0,0,0,731,993.48l.09,0a5,5,0,1,0-4.16-9.1Z"/><path d="M702.27,1016.49h0a462.76,462.76,0,0,1-112.59,37.61c-61.95,12.29-126.69,10.35-177.61-2.77-41.87-10.8-68.89-25.79-83.12-33.34a216.25,216.25,0,0,1-25.57-15.52c-17.26-12.63-29.72-24.91-43.28-41.32a260.57,260.57,0,0,0,19.85,22.56c19.6,19.66,35.56,28.86,48.1,35.93,8.75,4.87,17.52,9.78,26.61,14.1a341.14,341.14,0,0,0,104.54,30.93l2.37.26,8.9,1A442,442,0,0,0,591,1061.49a471.45,471.45,0,0,0,115.52-36l.09,0a5,5,0,0,0-4.36-9Z"/><path d="M461.61,1065Z"/><path d="M461.55,1064.94h0Z"/><path d="M677.35,1048.36h0a403.17,403.17,0,0,1-110.21,39.51A363.8,363.8,0,0,1,450,1092.53L439,1091c-.56-.08-13.53-2.54-18.09-3.53-68-15.43-132-54.28-164.37-115.33,18,35.75,46.84,64.38,80.93,85.33,69,42.35,153.08,52,231,37.78a412.22,412.22,0,0,0,113.46-38l.1,0a5,5,0,0,0-4.72-8.82Z"/><path d="M651.13,1079.26h0A336.41,336.41,0,0,1,599,1104.77a341.66,341.66,0,0,1-55.84,16.36c-86.76,17.69-165.56-1.06-222.48-43.89-31.94-24.07-56.53-55.67-66.94-94,9.63,38.63,33.72,71,65.41,95.93,57,44.78,136.79,65.4,225.42,49.27a350.92,350.92,0,0,0,111.65-40.62l.09,0a5,5,0,1,0-5.16-8.56Z"/><path d="M623,1108h0a302.7,302.7,0,0,1-50.57,27.2q-13.28,5.58-27,9.92t-27.89,7.25a278.22,278.22,0,0,1-57.27,6,245.66,245.66,0,0,1-57.21-6.83c-76.38-18.43-143.8-78.83-151.4-156.95,6,79,73.18,141.46,150.17,161.79a251.41,251.41,0,0,0,58.35,8.24,285.2,285.2,0,0,0,58.82-4.88c9.69-1.81,19.3-4.09,28.77-6.83s18.82-6,28-9.6q3.72-1.49,7.41-3.06a267.21,267.21,0,0,1-93.41,41.59,229.24,229.24,0,0,1-56.61,5.64,206.06,206.06,0,0,1-56.15-9.31C322.26,1161,275.29,1118,257.62,1063a155.2,155.2,0,0,1-7.22-57,155.71,155.71,0,0,0,6,57.35c16.32,54.87,62.19,100.36,119,119.53a212,212,0,0,0,57.46,10.81,236.65,236.65,0,0,0,58.41-4.55c38.42-7.79,74.9-24.36,106.72-47.33l.09-.07a5,5,0,0,0,1-7,5.08,5.08,0,0,0-1.33-1.21,308.47,308.47,0,0,0,30.73-17.2l.08-.06A5,5,0,1,0,623,1108Z"/></svg>