<svg id="Abstract_Shape" data-name="Abstract Shape" xmlns="http://www.w3.org/2000/svg" viewBox="0 0 1500 1500"><path d="M1251.5,750a1.49,1.49,0,0,0,0-.21,182.08,182.08,0,0,0-7-47.78,1.45,1.45,0,0,0-.12-.42c-12.29-44.26-38.68-88.07-64.48-130.87l0-.05-.07-.13c-8.28-13.72-16.61-27.55-24.52-41.46a1.44,1.44,0,0,0-.46-.81c-8-14-15.46-28.12-22-42.27a1.48,1.48,0,0,0-.38-.83,298.13,298.13,0,0,1-16.8-44.75,1.89,1.89,0,0,0-.09-.34,177.52,177.52,0,0,1-6.88-47.22v-1.5h-1.5a180.26,180.26,0,0,0-48.19,7.05l-.23.07c-44.13,12.3-88,38.7-130.86,64.48-13.79,8.3-27.69,16.67-41.67,24.61a1.52,1.52,0,0,0-.62.35c-14.11,8-28.3,15.54-42.53,22.14a1.56,1.56,0,0,0-.49.22c-27.74,12.82-55.63,22-83.39,23.65-18.87,1.14-37.72-1.45-56.51-6.62a1.58,1.58,0,0,0-.37-.11,296.81,296.81,0,0,1-44.58-16.69,1.45,1.45,0,0,0-1.08-.49c-14.06-6.52-28.07-14-42-21.87a1.52,1.52,0,0,0-1.1-.63c-13.77-7.83-27.45-16.08-41-24.28a1.41,1.41,0,0,0-.63-.38c-58.24-35.16-118.45-71.5-179-71.5h-1.5v1.5a177.62,177.62,0,0,1-6.86,47.19,1.55,1.55,0,0,0-.12.42,296.87,296.87,0,0,1-16.76,44.67,1.55,1.55,0,0,0-.42.89c-6.55,14.14-14.06,28.23-22,42.24a1.5,1.5,0,0,0-.46.82c-7.91,13.89-16.24,27.71-24.51,41.41C285,628.82,248.72,689,248.52,749.8a1.36,1.36,0,0,0,0,.2,1,1,0,0,0,0,.17q0,4.58.27,9.18c3.48,57.43,38,114.81,71.47,170.3,8.28,13.74,16.62,27.59,24.54,41.52a1.32,1.32,0,0,0,.18.33c8.06,14.18,15.65,28.45,22.28,42.76a2.17,2.17,0,0,0,.19.41c14.2,30.73,23.91,61.67,23.91,92.47v1.5h1.5c60.55,0,120.86-36.38,179.18-71.56h0a1.91,1.91,0,0,0,.27-.16c13.67-8.25,27.46-16.56,41.32-24.44a1.49,1.49,0,0,0,.89-.51c14-7.94,28.09-15.44,42.23-22a1.45,1.45,0,0,0,.84-.38c33.64-15.49,67.6-25.58,101.55-23.52a185.26,185.26,0,0,1,38.24,6.64l.25.08a299.22,299.22,0,0,1,44.75,16.8,1.39,1.39,0,0,0,.83.38c14.13,6.55,28.21,14,42.21,22a1.44,1.44,0,0,0,.95.54c13.79,7.83,27.5,16.08,41.09,24.27a1.44,1.44,0,0,0,.69.41c42.69,25.71,86.44,52,130.44,64.34a1.59,1.59,0,0,0,.39.1,179.9,179.9,0,0,0,48.14,7.05h1.5v-1.5a179.11,179.11,0,0,1,6.52-46.7,1.51,1.51,0,0,0,.47-1.1,1.32,1.32,0,0,0-.06-.39,284,284,0,0,1,16.56-43.88,1.49,1.49,0,0,0,.68-1.24.78.78,0,0,0,0-.16c6.77-14.39,14.43-28.44,22.24-42.17a1.35,1.35,0,0,0,.15-.26q1.35-2.38,2.72-4.76c6.74-11.75,13.82-23.49,21.31-35.91,33.68-55.87,68.52-113.65,72-171.22q.29-4.59.27-9.18A.88.88,0,0,0,1251.5,750ZM1225,841.8c-21.18-.56-39.8-1.46-57.41-2.59,7-13.08,13.44-26.11,16.55-33.67a51.23,51.23,0,0,0,1.73-5.26c.2-.73.41-1.44.62-2.14,19.28.6,37.34,1,54.58,1.13A301.61,301.61,0,0,1,1225,841.8ZM1202.62,885c-22.15-.79-41.88-2.21-59.87-3.92,1.79-2.87,3.56-5.74,5.3-8.58q2.84-4.62,5.69-9.22c3.9-6.25,8.15-13.65,12.25-21.17,17.69,1.16,36.37,2.08,57.62,2.65C1217.31,858.22,1210.17,871.64,1202.62,885Zm-24.79,42c-22.37-.73-43.24-2.57-62-4.79,3.75-5.79,7.82-11.91,12.29-18.64l6-9.06c2.32-3.49,4.59-7,6.83-10.62,18,1.73,37.77,3.18,60,4C1193.48,901.05,1185.63,914.1,1177.83,927Zm-47.63,85.27a333.3,333.3,0,0,1-53.3-5.07,72.37,72.37,0,0,0,2.64-8.43c.51-1.89,1-3.67,1.55-5.39,3.35-10.22,6.7-19,10.25-27.1a536.08,536.08,0,0,0,60,5.7C1144,984.87,1136.74,998.34,1130.2,1012.31Zm-17.32,45.54a221.79,221.79,0,0,1-47.08-5.63c1.62-8.89,3.46-17.49,5.26-25.6.65-2.95,1.37-5.94,2.13-8.87.16-.65.31-1.33.46-2a18.45,18.45,0,0,1,1.63-5.14c.1-.17.19-.35.29-.53a340.38,340.38,0,0,0,53.25,5.24A291.79,291.79,0,0,0,1112.88,1057.85ZM799.41,970.17c-.12-10.61-.39-22.5-7.14-31.63-.52-.69-1-1.36-1.61-2,14.86,4.57,29.09,10.21,42.61,15.88a48.07,48.07,0,0,1,3.58,5.59c4.52,8.3,4.83,18.31,5,28.07A300.12,300.12,0,0,0,799.41,970.17ZM742,933.23c6.31,8.11,6.51,19.43,6.52,29.59a182.23,182.23,0,0,0-44.91,6.53c.08-10.1-.19-21.22-6.2-30a41,41,0,0,0-5.48-6.38,201.52,201.52,0,0,1,34-6.34,81.27,81.27,0,0,1,8.94-.35A40.71,40.71,0,0,1,742,933.23ZM371.06,1015.3a191.35,191.35,0,0,0,39.73-5.14c3.78,6.85,7.49,13.95,11,21.16a195.76,195.76,0,0,1,8.45,20.1c-13.91,3.48-29,6-43.23,6.4A300.7,300.7,0,0,0,371.06,1015.3ZM348.8,972.14c4.9,0,10.14-.27,16.26-.82,7.2-.65,14.16-1.63,20.84-2.83l.26.42c6.91,10.9,15.1,24.14,23.12,38.51a185.86,185.86,0,0,1-39.6,4.89C363.41,998.86,356.32,985.46,348.8,972.14Zm-24.86-42.2a322.48,322.48,0,0,0,40.11-4.73l0,0a279.76,279.76,0,0,0,20.12,40.49c-6.24,1.09-12.72,2-19.4,2.58a172.73,172.73,0,0,1-17.7.8C339.61,956,331.76,942.92,323.94,929.94Zm-24.89-42c15.42-.8,31.6-2.28,47.92-4.37.69,1.69,1.37,3.38,2,5,1.87,4.58,3.8,9.32,5.58,14,2.14,5.67,4.6,11.59,7.31,17.59.29.63.6,1.36.95,2.2A318.93,318.93,0,0,1,322.19,927C314.39,914.08,306.54,901,299.05,887.9Zm-22.68-43.18c21.06-1,39.75-2.3,55.76-3.67,3.23,10.57,6.72,20.81,9.85,29.52,1.21,3.38,2.51,6.75,3.84,10.08-16.51,2.1-32.87,3.57-48.43,4.33C289.83,871.62,282.68,858.19,276.37,844.72ZM258.94,799.2c6.3-.32,14.07-.63,23.7-1,10.7-.43,23.51-.95,39-1.66.07.47.13.93.19,1.4,1.69,12.09,5.3,26.35,9.44,40.21-16.15,1.37-35,2.68-56.22,3.66A300.57,300.57,0,0,1,258.94,799.2Zm63.48-47.7h68.89c-.4,1.79-.76,3.58-1.05,5.39a214.46,214.46,0,0,0-2.65,33.27c-25,1.39-45.86,2.43-63.39,3.23C322.14,777.78,321.13,765.05,322.42,751.5ZM387,442.11a235.91,235.91,0,0,1,48.53,3A392.56,392.56,0,0,1,427.9,485a403.18,403.18,0,0,0-56.68-.5A298.12,298.12,0,0,0,387,442.11ZM754.07,547a35.3,35.3,0,0,0,10.69,6.25l-2.84-.35c-9.27-1.33-20.27-3.15-33.67-5.75l-.84-.3c-.12,0-.48-.15-.81-.23v0c-3.4-1.13-6.83-2.19-10.24-3.2a31,31,0,0,1-8.2-5.56,14.94,14.94,0,0,1-4.25-7.11,181.84,181.84,0,0,0,44.67,6.41A15.52,15.52,0,0,0,754.07,547Zm78.65,3.05c-10.36-1.86-21.92-4.73-29.08-11.94a13.84,13.84,0,0,1-4.15-8.36,301.14,301.14,0,0,0,42.59-16,19.8,19.8,0,0,0,4.22,9.67c6.26,7.9,16.64,12.14,25.41,14.93Q857.66,544,843.9,548c-3,.9-6.12,1.7-9.23,2.43Zm296-65.69a126.56,126.56,0,0,0-33,1.41c-.45-.71-.9-1.4-1.35-2.12-7.55-11.95-15-24.27-21-36.92a160.58,160.58,0,0,1,39.56-4.63A300.3,300.3,0,0,0,1128.74,484.4ZM1026.86,950.81c-6.41-1.39-11.39-2.38-15.9-3.28-11.16-2.21-20.32-4-43.42-10.44,2.27-12.18,7.28-21.1,17.15-34.45l.62.16c10.46,2.69,20.37,5.24,60.26,11.86a156.25,156.25,0,0,0-16.18,29.14C1028.49,946,1027.64,948.39,1026.86,950.81ZM1019.09,990a24.84,24.84,0,0,1-.32,3.79l-1.68-.48-8.7-2.49c-10.23-2.92-20.82-5.94-31-9.49-2.92-1-6.29-2.2-10-3.51,0-.42,0-.84-.08-1.28l-.19-1.78a144.78,144.78,0,0,1-1.14-16,132.85,132.85,0,0,1,1.12-18.68c23,6.37,32.14,8.19,43.31,10.41,4.44.88,9.33,1.85,15.58,3.2a193.48,193.48,0,0,0-6.73,33.94C1019.14,988.33,1019.12,989.12,1019.09,990Zm-4.24,46.66q-20.75-7.94-43.09-18.8h0l-.1-.67c-.2-1.34-.29-2.71-.38-4.17s-.17-2.74-.35-4.13c-1.2-9-1.9-13.56-2.41-16.93s-.81-5.3-1.2-9a15,15,0,0,1-.05-2c3.35,1.18,6.41,2.26,9.08,3.18,10.32,3.58,20.94,6.61,31.22,9.54,2.89.83,5.79,1.65,8.68,2.49l.88.25c-.88,2.57-1.29,10.61-1.93,30.06C1015.08,1030,1015,1033.5,1014.85,1036.63Zm-88.1-41.23c-.09-.3-.19-.61-.26-.92l0-.13c-1.39-5.78-2-8.42-8.85-24.71-.29-.7-.62-1.41-1-2.13a27.66,27.66,0,0,1-2-5.14c0-.13,0-.25-.06-.37l.26.1c16.78,6.07,35.25,12.76,49.41,17.79a22.62,22.62,0,0,0,0,3.38c.39,3.73.7,5.76,1.21,9.11s1.21,7.94,2.4,16.87c.18,1.28.26,2.62.34,3.92.06,1,.14,2.05.25,3.09C944.34,1004.4,933.41,998.89,926.75,995.4ZM814.13,929.2l-3.65-3.15c12.18,3.47,22.33,6.67,29,8.87,6.35,2.09,12.72,4.47,18.89,6.78a2.47,2.47,0,0,1,.1.29,6.05,6.05,0,0,0,.35.91,34.1,34.1,0,0,0,3.84,5.57c.57.71,1.13,1.41,1.64,2.11a207.39,207.39,0,0,1,12.55,18.6c-10.83-5.62-21-10.55-41.7-19.25C829.56,942.49,822,936,814.13,929.2Zm-63.38-20.31a169.8,169.8,0,0,1-20-12.87,60.84,60.84,0,0,1-9.6-9.08c12.73,1.31,26,3,40,5.24q9.06,1.41,18.39,3a54.23,54.23,0,0,0,8.44,13,143.73,143.73,0,0,0,11.06,11.65C784.31,915.86,767.59,911.89,750.75,908.89Zm-56.37-5.57a203,203,0,0,1-25.19-11.66A63.81,63.81,0,0,1,658.38,884c5.64-.17,11.42-.19,17.38,0,13.2.3,26.9,1.14,41.3,2.54A58,58,0,0,0,729,898.39a140.44,140.44,0,0,0,13.48,9.1c-6.92-1.1-13.81-2-20.54-2.65A272.85,272.85,0,0,0,694.38,903.32ZM653.19,913c11.74,5.74,23.74,11.61,32.57,18.62A318.54,318.54,0,0,0,645.22,947c-5.2-5.25-12.41-10.76-22.4-17.29l-2.4-1.59c-2.1-1.4-4.24-2.84-6.43-4.06,12.77-5.56,26.18-9.26,36.61-11.88l.56-.14Zm-50,55.17a28.55,28.55,0,0,0-4-4.48c-.51-.48-1-.95-1.43-1.4a275.42,275.42,0,0,0-23.77-20.9l.33-.13c3.72-1.45,7.39-3.23,10.94-4.94,2.54-1.23,5.18-2.5,7.78-3.63s5.57-2.29,8.32-3.36c3-1.18,6.13-2.4,9.16-3.74a66.8,66.8,0,0,1,8.27,5l2.44,1.62c9.35,6.1,16.16,11.26,21.11,16.09C629.11,954.33,616.08,961.1,603.17,968.15ZM364.65,918.94c-2.69-5.93-5.13-11.79-7.25-17.41-1.79-4.74-3.73-9.5-5.6-14.09-.58-1.43-1.17-2.86-1.75-4.31,15.87-2.1,31.83-4.76,47.33-7.91.53,2.5,1.07,5,1.61,7.45,1,4.58,2,9.33,2.93,14,.75,3.92,1.84,7.74,2.89,11.44.39,1.37.77,2.75,1.14,4.12-11.42,3.27-25,6.77-40.06,9.59C365.42,920.72,365,919.75,364.65,918.94Zm28.57-161.57c.32-2,.71-3.92,1.16-5.87h67.93l-.06.16a257.12,257.12,0,0,0-8.45,34.52c-23.53,1.5-44.49,2.76-63.19,3.81A212,212,0,0,1,393.22,757.37Zm96.17-299.06C504.7,463.19,520,468.89,535.3,475c.59,1.58,1.2,3.15,1.81,4.74s1.32,3.42,2,5.16,1.24,3.21,1.88,4.8a121.32,121.32,0,0,1,4.19,11.8c.3,1.06.6,2.11.91,3.17l-.59-.11c-4.79-.9-10.77-2.18-17.68-3.67-10.56-2.27-23.21-5-37.34-7.57a1.93,1.93,0,0,1,0-.24c.09-2.36.18-4.71.24-7.08C490.86,478.41,490.15,468.65,489.39,458.31ZM880.14,556c-12.26-1.18-24.86-2.41-38.06-4.41l2.67-.76a333.49,333.49,0,0,0,31.56-11.07c14.33,4.28,27.4,7.43,40,10.36A269.09,269.09,0,0,1,885,556.51Zm35.2-34.68c8.41,4.15,17.11,7.83,25.55,11.38l7.89,3.34c1.72.73,3.34,1.41,4.91,2a260.13,260.13,0,0,1-24.91,8.64q-3.12.88-6.29,1.75l-.63-.15c-13-3-26.45-6.13-41.16-10.39Q897.91,530.73,915.34,521.36Zm170,227.14h-46.65c1.57-2.72,3.22-5.56,4.95-8.58a217.29,217.29,0,0,0,13.84-28.76c18.77-1,25.59-1.55,34.19-2.19l7.71-.57a206,206,0,0,1-13.16,38.09C1085.88,747.23,1085.58,747.89,1085.32,748.5ZM985.65,896.36c-.75,1-1.47,1.93-2.17,2.87-4.11-1.05-8.69-2.18-15.42-3.62-11.92-2.55-24.24-5.19-36.5-8-2.9-.68-5.82-1.34-8.74-2,1.16-1.35,2.37-2.74,3.65-4.17,6.08-6.8,15.86-16.4,25.31-25.57l2.05.31c3.89.58,7.92,1.19,11.86,1.91l4.9.92c4.34.81,8.84,1.65,13.29,2.39,2.12.35,4.25.67,6.38,1,3.92.6,8,1.21,11.91,2,2.41.47,4.72,1,7.17,1.51l1.58.34-4.33,5C998.09,881.12,990.76,889.64,985.65,896.36Zm-21.55,78.7.17,1.64c-14-5-32-11.5-48.35-17.42l-1.89-.69c-.29-.9-.63-1.78-1-2.64-.15-.37-.3-.73-.44-1.1a124.78,124.78,0,0,1-5-16.84,68.2,68.2,0,0,1-2-14.32c4.13,1,8.26,2.13,12.35,3.26,5.51,1.52,11.14,2.94,16.58,4.32,6.45,1.63,13.13,3.31,19.62,5.17,3.56,1,6.85,1.95,9.91,2.81a137.14,137.14,0,0,0-1.18,19.49A147.81,147.81,0,0,0,964.1,975.06ZM860.52,939.28c-.36-.57-.84-1.26-1.41-2.09a132.52,132.52,0,0,1-9.8-16.33,61.17,61.17,0,0,1-4.84-12.07c11,2.88,22.17,5.52,33,8.07,8.29,1.95,16.75,4,25.18,6.08a70.63,70.63,0,0,0,2.09,15.77,126.93,126.93,0,0,0,5.07,17.23c.15.38.3.76.46,1.14a1.34,1.34,0,0,0,.07.18c-15.24-5.52-29.09-10.52-36.25-13C869.56,942.66,865,941,860.52,939.28ZM655.46,881.13c-4.91-5.46-6.83-11.16-5.68-17,1.42-7.27,6.37-13.06,12.27-18,3.18,0,6.46.2,11.84.53l5,.3c14.36.85,29.06,2.15,44.33,3.92-4.81,4.63-9,10.21-10.5,16.83a22,22,0,0,0,2.35,15.65c-13.64-1.28-26.67-2.05-39.25-2.34Q665.3,880.75,655.46,881.13ZM647,910c-10.72,2.77-24,6.62-36.49,12.32a32.31,32.31,0,0,1-3.79-2.36c-.75-.51-1.5-1-2.23-1.48-9.25-5.76-18.64-12.21-25.2-19.31,9.09-3.11,18.69-6.19,26.12-8.08q4.53-1.15,9.18-2.11C622.35,897.18,634.49,903.75,647,910Zm-75.79,29.28c-2-1.6-3.9-3-5.48-4.25l-.76-.58c-7.74-5.9-16.79-12.82-23.72-21.17.34-.09.69-.17,1-.28a66.94,66.94,0,0,0,7.1-2.77c1.34-.58,2.73-1.18,4.07-1.7,4.39-1.69,13.09-4.94,22.74-8.29,1.07,1.21,2.23,2.43,3.5,3.65,6.89,6.65,15.6,12.39,23.21,17.14.7.43,1.4.91,2.12,1.4s1.36.94,2.06,1.38c-2.29,1-4.6,1.87-6.87,2.75-2.78,1.09-5.64,2.2-8.42,3.41s-5.32,2.44-7.9,3.68c-3.5,1.69-7.11,3.43-10.72,4.85ZM407.7,907.3c-1-3.64-2.11-7.4-2.83-11.18-.9-4.72-1.94-9.49-2.95-14.1-.54-2.44-1.07-4.92-1.6-7.41,1.93-.4,3.86-.8,5.77-1.22l1.43-.31c8.37-1.63,16.61-3.34,24.49-5.08,1.53-.33,3.05-.7,4.58-1.07,2.63-.64,5.34-1.31,8-1.76.89-.15,1.77-.28,2.65-.4,0,2.36.07,4.82.21,7.41.17,3.12.07,6.3,0,9.37-.07,2.28-.15,4.64-.12,7,0,3.22.39,6.41.73,9.5.05.49.11,1,.16,1.48-.12,0-.23.05-.35.06a85.13,85.13,0,0,0-14.35,4.17c-2.34.83-4.77,1.69-7.11,2.39l-4,1.21c-4,1.23-8.58,2.61-13.56,4.06ZM398,862.38c-1.55-9.56-3-18.9-4.21-28.09l1.81-.23c18.52-2.21,36.27-4.45,53.52-6.77-.25,3.58-.47,7.2-.57,10.79-.08,2.7-.29,5.67-.52,8.81-.32,4.51-.67,9.4-.76,14.85-1.05.14-2.1.29-3.16.47-2.77.47-5.53,1.15-8.21,1.8-1.51.37-3,.73-4.51,1.06-7.87,1.74-16.08,3.44-24.42,5.07l-1.49.32-5.75,1.22C399.08,868.58,398.49,865.48,398,862.38Zm67.5-110.88h67.84a217.2,217.2,0,0,0-11.13,24.92c-.76,2-1.48,3.81-2.17,5.62-11.23.59-21.44,1.18-30.13,1.77q-17.29,1.16-33,2.17a252,252,0,0,1,8.23-33.39C465.22,752.23,465.35,751.86,465.48,751.5Zm91.61-216.89c-.08-.93-.16-1.89-.29-2.84a54.61,54.61,0,0,0-2.61-10c-.61-1.84-1.24-3.74-1.73-5.66-.65-2.51-1.39-5-2.12-7.5,19.07,3.75,38.18,8.47,55.65,13l.29.39c3.13,4.18,6.67,8.93,9.85,12.55a39.11,39.11,0,0,1,7,11.65l.08.17-5.82-.76c-14-1.83-27.24-3.55-40.09-5.14-6.59-.81-13.25-1.49-19.81-2.13A36.3,36.3,0,0,1,557.09,534.61Zm106.4,1.87c.51.1,1,.18,1.54.26l2.46,1.71c2.55,1.76,5.18,3.4,7.73,5,5.54,3.45,10.78,6.74,15.35,11.22-.73,0-1.45-.11-2.18-.2-21.32-2.42-41.77-5-61.6-7.62a15.32,15.32,0,0,1-.84-1.76,41.93,41.93,0,0,0-7.57-12.51c-2.45-2.79-5.16-6.32-7.72-9.73,6.37,1.68,12.49,3.33,18.28,4.89C643.25,531.58,655.6,534.91,663.49,536.48Zm180.74,24.09c2.14-.09,3.68-.16,4.37-.11,1,.06,2,.15,3,.24,1.43.12,2.9.25,4.38.31,2,.08,4.1.13,6.14.13,2.4,0,4.79-.08,7.17-.18,7.46.36,15.08,1,22.56,1.92-19,1.6-38.67,2.08-58,1.86-5-1.52-10.06-2.81-15.13-3.89C831,561.15,839.42,560.78,844.23,560.57Zm78.32-9c14.71,3.41,28,6.52,40.69,10.82-2.85.35-5.89.7-9.16,1-5.87.61-11.73.95-17.53,1-13.08-3.44-26.34-5.34-40-6.83C905.42,556,914.1,553.9,922.55,551.61Zm200.79,24.86a164.34,164.34,0,0,1,13.69,34c.07.26.13.52.2.78-5,.4-10.13.87-15.47,1.4l-2,.2a106,106,0,0,0-11.93,1.6,111.37,111.37,0,0,0-12.73-38.77l-.39-.7a74.26,74.26,0,0,1,7.49-1.58c6.42-1,12.44-1.72,18.16-2.31C1121.38,572.9,1122.4,574.69,1123.34,576.47ZM1105.83,660l-.09.76c-1.62.27-3.25.52-4.87.73-6.17.8-12.48,1.43-18.58,2-3.47.35-7,.71-10.54,1.09a71.46,71.46,0,0,0,3.17-16.65c.15-1.53.3-3.11.51-4.8a29.85,29.85,0,0,1,.72-3.67c.63-2.61,1.28-5.3,1.19-12.87,0-1.06,0-2.11,0-3.16,4.3-1,8.68-2,13.05-2.77,1.66-.28,3.36-.52,5-.74a83.07,83.07,0,0,0,9.85-1.79c.17,1.54.31,3,.45,4.34.08.88.17,1.72.25,2.51a98.45,98.45,0,0,1,.39,9.84c0,2.48,0,5,.19,7.58A86.27,86.27,0,0,1,1105.83,660ZM982.42,820.86c-4.22-.26-8.51-.88-12.67-1.5-2.56-.38-5.21-.78-7.82-1.08-10.55-1.23-21.23-2.69-31.56-4.11l-3.85-.53c9.6-8.37,19.57-17.59,29.7-28l5,.41c6.35.53,12.91,1.07,19.41,1.46,11.85.7,21.18,1.24,28.7,1.67C1002.17,798.78,994,808.31,982.42,820.86Zm-31.66,31.79c-2.65-.4-5.31-.82-8-1.3l-6.28-1.14c-9.86-1.81-20.07-3.67-30.15-5.36-4.74-.79-9.52-1.76-14.22-2.74l4.08-3.3c8.56-6.92,17.71-14.33,27.26-22.55l6.46.88c10.35,1.42,21,2.89,31.62,4.12,2.56.29,5.19.69,7.73,1.07,3.43.51,7,1,10.48,1.35-1.39,1.49-2.81,3-4.3,4.59-4.84,5.13-12.62,12.66-20.87,20.64Zm-72.59,61.29c-11.3-2.65-23-5.4-34.39-8.42-1.56-9.81,1.68-19.32,12.88-31.78,14.68,3.67,29.68,6.94,44.2,10.09,5.41,1.18,10.93,2.38,16.45,3.6-8.41,10.26-13.9,19.71-14.58,32.43C894.5,917.8,886.25,915.84,878.17,913.94Zm-22.73-43.58c-19.83-5-40.22-8.65-60.32-11.94,2.21-2,4.55-3.87,6.94-5.78,7.46-6,15.87-11.88,24.8-18,18.84,2.47,35.81,4.87,43.18,6.11,5.14.86,10.3,1.92,15.35,3-8.14,6.66-15.81,13.09-22.59,19.48-2.61,2.46-5,4.83-7.22,7.16Zm-246.38,11a32.9,32.9,0,0,0,3.28,5q-3.87.82-7.66,1.79c-7.83,2-18,5.28-27.5,8.55-3.92-4.83-6.44-9.94-6.68-15.33a29.19,29.19,0,0,1,2.57-13.14c1.32-2.82,2.42-5.1,3.52-7.12,11.37-3.27,23.73-6.49,37.69-9.16C606.17,862.87,604.45,872.52,609.06,881.33Zm-69.85,29.29a50.57,50.57,0,0,1-5.33-8.77c-2.36-5.07-2.66-10.18-2.64-14.52,0-4.07,1.21-7.83,2.47-11.82.18-.57.35-1.15.53-1.73l1-.18a85.13,85.13,0,0,0,14.35-4.17c2.35-.83,4.77-1.69,7.11-2.39l3.42-1c4.06-1.23,8.23-2.49,12.52-3.75-.71,1.41-1.44,3-2.26,4.69a32.11,32.11,0,0,0-2.84,14.54c.23,5.43,2.43,10.79,6.65,16.24-9.27,3.24-17.53,6.32-21.78,8-1.4.55-2.82,1.16-4.18,1.75a64.2,64.2,0,0,1-6.78,2.65c-.69.21-1.39.36-2.14.53ZM451,897.71c-.33-3-.67-6.14-.71-9.21,0-2.28,0-4.6.12-6.85.11-3.14.22-6.38,0-9.63-.15-2.69-.21-5.23-.21-7.68,1.32-.2,2.67-.42,4-.72,9-2,16-3.71,23.41-5.5,5.64-1.37,11.64-2.82,19-4.54-.6,2.63-1,4.82-1.36,6.71-.31,1.69-.58,3.15-.91,4.46s-.8,2.81-1.27,4.27c-.35,1.12-.72,2.27-1.05,3.44a69.58,69.58,0,0,0-1.89,11.62c-.05.48-.11,1-.16,1.44-6.87,2.47-13.95,5-20.93,7.43-1.59.55-3.18,1.13-4.78,1.72a119.7,119.7,0,0,1-13.23,4.24C451.09,898.51,451,898.11,451,897.71Zm59.45-79.1c18-2.38,36.22-4.22,54.18-5.88l-.48.82c-3.1,5.21-6.31,10.6-9.78,15.72-2.29,3.37-4.33,6.89-6.26,10.4-5.41.73-10.77,1.9-16,3.05-1.68.37-3.36.74-5,1.09-10.58,2.24-19.08,4.11-26.28,5.75.67-2.43,1.51-5.17,2.59-8.29,1.73-5,3.09-9.57,4.67-14.84C508.81,824,509.58,821.41,510.45,818.61Zm48.63-272.49a46.5,46.5,0,0,0-.88-4.7c6.22.61,12.53,1.27,18.76,2C589.8,545,603,546.76,617,548.59l8,1,.33.51c1.58,2.41,3.55,5.41,6.83,15.92a55.75,55.75,0,0,1,2.37,12.71c-21.6-1.72-43.89-3.49-66.52-5.08-2.89-.2-5.8-.29-8.65-.35A112.66,112.66,0,0,0,559.08,546.12ZM693.76,557.8c.77.71,1.54,1.4,2.31,2.08a47.56,47.56,0,0,1,5.32,5.19,66.93,66.93,0,0,1,8.32,12,35.52,35.52,0,0,1,2.71,7.42c-2.18,0-4.37-.13-6.53-.28-23-1.61-46.06-3.45-68.35-5.22A58.7,58.7,0,0,0,635,565.17c-2.72-8.72-4.66-12.59-6.14-15,19.07,2.48,38.72,5,59.18,7.31C690,557.67,691.86,557.75,693.76,557.8Zm69.84,6.51c7.75,4.22,15,8.35,21,14.87a36.49,36.49,0,0,1,6.11,9c-3.17-.23-6.38-.28-9.52-.33-2.3,0-4.68-.08-7-.19-15.17-.73-30.5-1.61-46.86-2.69-3.56-.24-7.15-.29-10.62-.35l-1.12,0a41.43,41.43,0,0,0-3.24-8.84,69.23,69.23,0,0,0-8.69-12.6,48.19,48.19,0,0,0-5.35-5.26c2,.06,7.5.66,15,1.48C725.37,560.7,742.93,562.63,763.6,564.31ZM1031.93,550c8.22,5.66,21.91,15.69,30.43,28.93l-4.21.93-2,.45c-2.08.46-4.23.85-6.31,1.23-2.48.46-5,.92-7.56,1.52-1.59.38-3.16.79-4.73,1.2-6.55-9.46-16.06-17.84-28.35-24.78-1.55-.88-3-1.68-4.43-2.47.69-.21,1.34-.4,2-.56,1.79-.48,3.6-.93,5.4-1.38,2.7-.67,5.5-1.37,8.24-2.18s5.63-1.48,8.4-2.13C1029.79,550.49,1030.86,550.23,1031.93,550Zm27.36-8.47,2-.75c3.65,3.2,7,6.24,10.2,9.53,6.56,6.79,13.27,14.22,18.57,22.8-1.09.27-2.19.55-3.3.79-2.56.57-5.21,1.07-7.77,1.56-1.94.37-3.87.74-5.8,1.14-2.56.53-5.14,1.08-7.7,1.64-8.1-13.07-21-23.11-29.74-29.23.32-.09.65-.16,1-.26,2.31-.66,4.61-1.42,6.84-2.16,2.62-.87,5.32-1.76,8-2.49A73.78,73.78,0,0,0,1059.29,541.5ZM1072,621.66c-3.73.92-7.6,1.86-11.43,2.68-1.44.31-2.93.57-4.38.81a59.15,59.15,0,0,0-8.79,2h0v0a58.38,58.38,0,0,0-8.14-40.24c1.22-.32,2.44-.64,3.67-.93,2.44-.58,5-1,7.41-1.49,2.11-.38,4.29-.78,6.42-1.25l2-.45,5.21-1.15a81.18,81.18,0,0,1,9.8,29.12,67.41,67.41,0,0,1,.53,10.37ZM888.39,841.32c-5.83-1.24-11.85-2.51-17.85-3.51-7-1.17-22.43-3.36-39.95-5.68l5.32-3.6c8.8-5.95,18-12.16,27.44-19,6.2.59,13,1.24,20.54,1.94,11.88,1.11,23.86,2.63,35.62,4.21-8.78,7.51-17.23,14.34-25.16,20.76ZM654.47,822.71c3.68-2.49,6.74-4.46,10-6.54,4.35-2.79,8.85-5.68,15.54-10.29l4.21-3c5.07-.26,10.14-.5,15.2-.68l7.2-.27c9.56-.36,19.37-.73,29.09-.66-8.92,4.7-18.76,9.75-29.86,15.36l-.76.38-6.7,3.39C687.17,820.44,673,821,654.47,822.71ZM550,842.45l1.65-.18a132.14,132.14,0,0,0,15.68-2.85c2.69-.6,5.47-1.22,8.17-1.72,3.17-.6,6.47-1.1,9.66-1.59s6.36-1,9.55-1.57c-.79.9-1.56,1.81-2.31,2.7-1.73,2-3.52,4.15-5.42,6.07-6.51,6.56-9.57,10.26-12.41,15.25-5.3,1.53-10.4,3.07-15.35,4.57l-3.42,1c-2.4.72-4.86,1.59-7.24,2.43a87,87,0,0,1-13.32,3.94A54.4,54.4,0,0,1,541,858.47c2.59-4.09,4.89-8.38,7.13-12.54C548.73,844.78,549.36,843.62,550,842.45Zm34.71-9.3c-3.22.49-6.54,1-9.76,1.6-2.75.51-5.56,1.14-8.27,1.75a132.5,132.5,0,0,1-14.9,2.73c1.59-2.81,3.25-5.61,5.07-8.28,3.53-5.19,6.75-10.61,9.87-15.86l1.61-2.69c5-.46,10-.92,15-1.36,5.45-.49,10.89-1,16.33-1.47l2.48-.23,19.85-1.8L618.67,811c-3.2,3.28-6.62,6.48-9.93,9.57-3.52,3.29-7.13,6.69-10.55,10.24C593.76,831.75,589.17,832.47,584.71,833.15Zm55.71-120.84c31.79,1.09,54.33,1.73,72.07,2.06-6.64,6.64-14.63,14.54-25.21,24.88L684.41,742c-2.17,2.08-4.39,4.23-6.51,6.47H610.32c1.55-2,3.43-4.26,6.4-7.85,7.12-8.61,14.42-17.29,21.48-25.69Zm63.8-76.92.51-.76c1.81.07,4,.17,7,.34,7.48.41,16,1,25.89,1.6,13.28.86,28.51,1.84,45.28,2.75-7.92,12.39-19.11,23.94-30.62,35.21-24.68-1.07-50.07-2.36-76-3.75,3-3.21,6.1-6.51,9-9.93,2.29-2.71,4.51-5.53,6.65-8.26q1.45-1.86,2.93-3.7c2.22-2.79,4.16-5.74,6-8.6C702,638.67,703.08,637,704.22,635.39Zm12-47.79h.45c3.44,0,7,.11,10.47.34,16.38,1.09,31.73,2,46.91,2.7,2.33.11,4.74.15,7.07.19,3.6,0,7.28.12,10.87.45a38.39,38.39,0,0,1,2.16,11.59c.43,12-3.3,23.08-9.46,33.53-17.39-.94-33.17-1.95-46.86-2.83-9.89-.64-18.42-1.19-25.91-1.61-2.16-.12-3.87-.2-5.33-.27a72.75,72.75,0,0,0,9.47-25.15A55.69,55.69,0,0,0,716.25,587.6Zm155,6.14c4.07,8.37,4.91,19.9,2.08,29.87a68.45,68.45,0,0,1-6.73,15.63c-28.33-.36-54.86-1.42-78.5-2.65,5.95-10.49,9.52-21.64,9.07-33.81a41.64,41.64,0,0,0-1.85-11.09l1.19.19a101.37,101.37,0,0,0,16.81,1c2,0,4.16,0,6.19.1,10,.31,27,.72,47,.72Zm143.81,21.72a68.46,68.46,0,0,1-2.44,17.83l-2.12.32c-10.25,1.61-18.61,2.67-26.34,3.34a57.71,57.71,0,0,0,4.27-20.07,45,45,0,0,0-6.29-23.68,237.56,237.56,0,0,0,25.39-1.46A43,43,0,0,1,1015.06,615.46ZM990.61,674c-7,.38-14,.93-20.8,1.47-4.6.36-9.29.73-14,1,10.36-10.66,20.83-22.79,27-36.44,8.24-.67,17.1-1.76,28.12-3.5l.72-.11a65,65,0,0,1-4.41,10.63C1000,660.83,994.8,668.51,990.61,674ZM679.21,751.5h67.4q-14.83,12.21-30,23.94l-7.77.12c-15.16.25-33.26.67-52.68,1.22,8.46-8.81,15.12-16,21.3-23.29C678,752.82,678.61,752.16,679.21,751.5Zm37.44-37c28.12.47,44.06.13,67.89-.38l6.18-.13c-13.47,11.77-26.9,23.31-40.49,34.56H682.07c1.46-1.47,2.95-2.9,4.42-4.31l2.89-2.79C701.26,729.78,709.9,721.21,716.65,714.45Zm234.8-37.66c-2.21.13-4.42.25-6.62.34-6.87.3-13.86.29-20.63.29h-7.57c1.22-1,2.45-2.09,3.66-3.15,11.09-9.72,22.65-20.61,30.22-33.3,10.68.1,19.51,0,28.89-.65-6.2,12.88-16.3,24.44-26.24,34.62C952.57,675.55,952,676.17,951.45,676.79ZM787.11,775.4c11.64-7.39,22.55-15,34.72-23.9h47.58l-1.27,1.13-.28.25c-9.19,8.36-18.67,17-28.94,23.87C819.73,776.06,802.51,775.64,787.11,775.4Zm46.23-95.13q23.76.51,46.09.52,14.82,0,28.94-.25c-11.59,9.76-23.45,19.14-35.26,28.27a52.28,52.28,0,0,0-5.88.19c-1,.07-2,.14-3,.18-14.73.56-30.69,1-50.24,1.31-5.43.09-10.41.19-15.07.28,10-8.83,20.13-17.78,30.34-26.84ZM814,713.49c19.57-.33,35.56-.75,50.31-1.32,1,0,2.07-.11,3.13-.18l1.7-.11q-6.74,5.19-13.42,10.29c-13.35,10.21-24.58,18.76-34.88,26.33h-65.9c13.56-11.29,27-22.86,40.44-34.66Zm2.74,38c-12.12,8.81-23.15,16.35-35.15,23.82-24.84-.32-44.68-.16-60,0q15.07-11.7,29.74-23.87Zm9.16-3c9.42-7,19.68-14.79,31.65-24q8.21-6.28,16.52-12.69c.78.06,1.32.14,1.95.22,2.18.31,5.47.77,23.61,1.42,5.33.19,10.13.37,14.54.55-9.19,8.24-17.61,15-25.45,21.33-5.54,4.46-10.83,8.73-15.92,13.12Zm73.83-38c-15.44-.55-20-1-22.29-1.25,12-9.28,24-18.82,35.68-28.79,3.71,0,7.44,0,11.08,0,6.8,0,13.83,0,20.75-.29,1.24,0,2.48-.12,3.73-.19-.68.75-1.35,1.48-2.08,2.19l-1.82,1.74c-1.58,1.5-3.21,3.06-4.74,4.71-8.09,8.73-15.62,16.11-22.7,22.59C912.1,711,906.32,710.74,899.73,710.5ZM918.31,672c-2.09,1.84-4.21,3.65-6.33,5.46l-1.93,0c-23,.45-47.63.34-73.41-.17,11-9.79,23.24-21.21,31.66-35.08q9.13.11,18.51.11c14.11,0,28.59-.19,43.31-.64,2.52-.07,5.08-.21,7.56-.35,3.06-.16,6.19-.33,9.3-.39C939.61,652.69,928.74,662.88,918.31,672Zm-86.08,5.23c-24.29-.53-49.63-1.41-75.8-2.54,11.37-11.22,22.28-22.75,30-35.21,23.57,1.25,50.07,2.33,78.4,2.72C856,656.08,843.21,667.5,832.23,677.25Zm-3.3,2.92-1.7,1.52q-16.66,14.79-33,29.18l-9.74.2c-23,.49-38.59.82-64.89.42,5.89-5.93,10.26-10.42,14.25-14.53,4.63-4.78,9.46-9.47,14.58-14.44l5.08-4.93C779.52,678.72,804.74,679.62,828.93,680.17ZM708.87,778.56l3.69-.06q-14.41,11-29.37,21.49c-17.85.93-35.72,2.32-53.39,3.86l6.09-6.24c6.56-6.71,12.23-12.51,17.28-17.75C673.73,779.27,692.92,778.82,708.87,778.56Zm8.75-.14c14.89-.22,34.43-.42,59.18-.15-10.51,6.39-21.95,12.85-35.62,20.14-11.56-.3-23.3.14-34.68.58l-7.2.27c-3.49.12-7,.28-10.47.44Q703.5,789.31,717.62,778.42Zm64.81-.08c15.42.2,32.76.59,52.14,1.26-4.88,3.13-9.72,6.43-14.4,9.64-5.82,4-11.83,8.1-17.92,11.86l-.13.07c-14.34-.95-30.62-1.72-54.94-2.57C760.63,791.34,771.93,784.85,782.43,778.34Zm39.44,13.37c5.11-3.5,10.4-7.13,15.71-10.48.74-.47,1.46-1,2.19-1.45q24.65.9,53.64,2.47c-10.48,9-20.83,17-30.89,24.23l-9.09-.87c-18.62-1.79-31.78-3.05-46.24-4.09C812.18,798.33,817.09,795,821.87,791.71Zm74.51-12.31c-18.88-1-36.34-1.85-52.48-2.46,9.17-6.59,17.7-14.31,26-21.84l.28-.25c1.24-1.13,2.51-2.24,3.78-3.35h51.37q-2.26,2.32-4.49,4.67c-8.07,8.51-16.15,16.2-24.16,23.25Zm-18.94-30.9c4.23-3.58,8.61-7.12,13.16-10.78,8.53-6.86,17.72-14.27,27.86-23.5l7.87.32c13.54.56,23,1,33.21,1-8.2,9.53-16.78,18.23-25.22,26.76l-6.09,6.18Zm84.64-35.93c-11.13,0-21-.42-35.63-1l-4.87-.2c6.48-6,13.34-12.83,20.66-20.73,1.47-1.58,3.07-3.11,4.61-4.58.62-.58,1.23-1.17,1.84-1.76,1.34-1.31,2.55-2.69,3.72-4,.16-.17.32-.36.47-.54,5.77-.35,11.54-.8,17.17-1.25,5.93-.47,12-1,18.1-1.32l-1.83,2.25a76,76,0,0,0-6.28,8.47A209.71,209.71,0,0,1,962.08,712.57Zm23.36-95.77a55.84,55.84,0,0,1-4.63,20.42c-9.41.7-18.15.85-28.6.78A54.87,54.87,0,0,0,959,614a45.26,45.26,0,0,0-5.21-22.94,116.29,116.29,0,0,0,11.77,1.56c4.38.3,8.73.46,13.07.51A42.31,42.31,0,0,1,985.44,616.8ZM950,590.55a42.23,42.23,0,0,1,6,23.38A52.42,52.42,0,0,1,948.77,638c-3.76,0-7.56.2-11.25.41-2.46.13-5,.27-7.5.34-20.58.63-40.69.75-60,.55a70.5,70.5,0,0,0,6.19-14.86c2.92-10.3,2.24-21.76-1.68-30.69,21.81-.13,46.28-.78,68.57-2.58.79-.07,1.61-.17,2.44-.27A28.9,28.9,0,0,1,950,590.55ZM749.38,677.41l-3,3c-4.91,4.77-10,9.69-14.65,14.5-5.07,5.24-10.1,10.38-16.25,16.55-17.72-.3-40.3-.93-72.56-2,6.33-7.53,12.75-15.21,19-22.85,3.69-4.47,7.75-8.76,11.7-12.91C699.45,675,724.77,676.32,749.38,677.41ZM675.19,751.5l0,0c-6.63,7.81-13.84,15.56-23.29,25.35-20.06.58-41.38,1.29-62.25,2.08,1.56-2.42,3.14-4.83,4.74-7.21,2.88-4.26,5.1-7.59,6.89-10.27,3.27-4.9,5.09-7.63,6.81-10ZM648.88,780c-4.51,4.64-9.49,9.74-15.14,15.53l-8.52,8.72c-7.83.69-15.62,1.41-23.35,2.11l-2.47.23c-5.44.5-10.88,1-16.33,1.47l-12.82,1.16c1.66-2.74,3.35-5.47,5.11-8.13,2.91-4.4,5.79-8.91,8.57-13.26,1.21-1.91,2.45-3.83,3.69-5.76C608.09,781.28,629.05,780.57,648.88,780Zm-38.09,42.74c3.33-3.12,6.78-6.34,10-9.68l5.77-5.92c17.19-1.51,34.58-2.9,51.94-3.89l-.23.17c-6.65,4.58-11.13,7.46-15.47,10.24-4.49,2.88-8.64,5.54-14.53,9.68-10.93,1.15-23.25,2.71-37.21,4.83l-2.33.35a47.49,47.49,0,0,0-4.93.84C606.13,827.09,608.48,824.89,610.79,822.73Zm95.65-3,.75-.37c13.15-6.64,24.54-12.51,34.71-17.93l1.23,0c24,.82,40.41,1.56,54.5,2.43-7.39,4.43-15.25,8.9-22.9,13.24-4.17,2.37-8.27,4.7-12.25,7-12.83-1.19-25.63-2.13-38.18-2.78l-2.72-.15c-4.63-.25-10.08-.54-16.71-.68Zm69.78,0c8.95-5.08,18.19-10.33,26.65-15.51,16.13,1.08,29.93,2.41,50.27,4.36l5.67.55c-8.45,6-16.67,11.56-24.58,16.9l-8.11,5.5c-18.22-2.38-38-4.81-52.51-6.32-2-.21-4-.39-6-.59Zm107.95-11.22c-6.21-.57-11.88-1.11-17.14-1.61,10-7.32,20.29-15.33,30.7-24.43,6.37.34,12.82.62,19.07.9,9.42.41,19.16.83,28.73,1.47l6.78.5c-10.16,10.31-20.15,19.45-29.75,27.76C909.91,811.39,897,809.72,884.17,808.52Zm61.56-26.66c-9.6-.65-19.36-1.07-28.8-1.48-5.25-.23-10.64-.46-16-.74,7.32-6.54,14.69-13.63,22.07-21.41,2.13-2.25,4.31-4.5,6.49-6.73h52.9c-9.13,11.45-18.3,21.72-27.35,31.06C952,782.31,948.83,782.07,945.73,781.86ZM932.44,748.5c1.34-1.37,2.69-2.73,4-4.07,9-9.16,18.27-18.49,27-28.86,10.1,0,21.39-.37,38.18-1.2l7.07-.39c-3.6,6.12-7.6,12.3-11.85,18.29q-6,8.49-12.13,16.23Zm69.08-37.13c-15.34.76-26.08,1.12-35.52,1.19a210.56,210.56,0,0,0,16.59-23.14,73.79,73.79,0,0,1,6.06-8.15c1.07-1.3,2.22-2.72,3.49-4.36l1.31-.07c11.85-.56,23.71-1.91,35.39-3.47l-.6,1c-1.28,2.09-2.59,4.25-3.83,6.6a30.87,30.87,0,0,0-1.84,4.62c-.27.8-.54,1.59-.84,2.36a180.35,180.35,0,0,1-11.19,22.93C1007.54,711.05,1004.52,711.23,1001.52,711.37Zm-7-37.59a200.94,200.94,0,0,0,15.41-25.29,68.5,68.5,0,0,0,5-12.49c1.93-.25,3.9-.49,5.94-.73a157.62,157.62,0,0,0,22.88-3.91,63.44,63.44,0,0,1-2.3,11.07c-.32,1-.69,1.89-1.08,2.87a40.64,40.64,0,0,0-1.6,4.63,75.27,75.27,0,0,1-8,20.15C1018.82,671.71,1006.64,673.15,994.51,673.78Zm26-41.49-4.72.57a71.38,71.38,0,0,0,2.23-17.41,45.64,45.64,0,0,0-7.16-24l3.62-.37c4.28-.4,8.7-.82,13-1.49,3-.47,6-1.18,8.8-1.92a55.69,55.69,0,0,1,8.08,39l-.21,1.45C1036.3,630.42,1028.31,631.37,1020.55,632.29Zm56.8-11.91a68.7,68.7,0,0,0-.57-10.08,84.63,84.63,0,0,0-9.7-29.36l6.72-1.44q2.87-.59,5.75-1.12c2.58-.49,5.25-1,7.86-1.58,1.43-.32,2.83-.67,4.22-1,.26.45.53.89.78,1.34a107,107,0,0,1,12.45,38A77.41,77.41,0,0,1,1095,617c-1.66.22-3.37.46-5.08.75C1085.67,618.45,1081.47,619.39,1077.35,620.38Zm-69.66-58.32c12.52,7.07,21.11,14.92,26.88,22.93-2.48.63-4.92,1.2-7.47,1.6-4.25.65-8.63,1.07-12.86,1.47-1.76.16-3.5.34-5.24.52-6.94-9.7-17.62-18-31.3-23.85l-2.31-1a178.2,178.2,0,0,0,25.34-5.55C1002.9,559.39,1005.21,560.66,1007.69,562.06Zm-31.17,5.43c12.49,5.36,22.37,12.78,29,21.44a229.64,229.64,0,0,1-25.29,1.26,47.2,47.2,0,0,0-4.37-5.45c-7-7.48-16.87-13.22-30.24-17.57,2.92-.18,5.84-.41,8.77-.72,5.63-.58,10.61-1.19,15.05-1.8C971.81,565.54,974.17,566.48,976.52,567.49Zm-32.26,2.39c13.09,4.2,22.71,9.73,29.4,16.91a43.11,43.11,0,0,1,2.84,3.36q-5.37-.12-10.75-.49a129,129,0,0,1-13.92-1.94h-.06a43.4,43.4,0,0,0-7.3-8.57c-5.55-5-12.52-8.85-20.35-11.81,4,.19,8,.26,12.08.2C938.9,568.24,941.58,569,944.26,569.88Zm-28.18-6.11c-1.73-.16-3.48-.48-5.34-.83-1.62-.3-3.27-.6-4.93-.79q-2.64-.54-5.33-1c6.94.81,13.78,1.77,20.55,3Q918.54,564,916.08,563.77Zm-10.7,1.35c14.7,3,28,8,37.08,16.24a40.32,40.32,0,0,1,5.6,6.24c-1,.07-1.93.18-2.88.3-.79.1-1.56.2-2.31.26-22.71,1.83-47.7,2.47-69.81,2.57-5.94-10.56-17.24-17.83-30.37-22.94A567.66,567.66,0,0,0,901,565,20.31,20.31,0,0,1,905.38,565.12Zm-35.82,25.63c-21.26,0-39.51-.4-49.95-.72-2.07-.07-4.2-.08-6.27-.1a98.79,98.79,0,0,1-16.31-1c-.95-.16-1.91-.3-2.87-.41a39.11,39.11,0,0,0-7.34-11.35c-4.77-5.22-10.23-8.92-16.06-12.3,19.18,1.45,40.66,2.62,62.71,2.88C848.76,572.48,862.52,579.62,869.56,590.75ZM559,576.33c2.93.06,5.91.15,8.84.35,22.74,1.6,45.15,3.38,66.86,5.11.3,15.82-5.62,31.2-12.87,44L611.57,625c-42.84-3.41-58.3-4.49-68.07-5.05C551,606.19,556.68,592.09,559,576.33Zm78.71,5.7c22.18,1.77,45.1,3.6,68,5.2,2.46.17,4.94.26,7.39.31,2.23,12.35.07,28.69-9.9,44l-1.59-.06c-7.41-.25-13.36-.46-76.51-5.46C632.19,613.19,637.88,597.87,637.66,582Zm63.53,52.47c-1,1.38-1.88,2.78-2.77,4.14-1.84,2.8-3.75,5.7-5.88,8.38l-2.94,3.71c-2.12,2.71-4.33,5.51-6.58,8.19-3.38,4-7,7.89-10.62,11.64-22.91-1.23-46.22-2.55-69.8-3.89l-6.34-.36.61-.77C603.63,657,610.62,648.12,617,639c2.16-3.11,4.34-6.48,6.43-10.05C687.14,634,693.82,634.25,701.19,634.5Zm-98.76,35.16c22.71,1.29,45.17,2.56,67.26,3.76-3.42,3.62-6.88,7.33-10.08,11.22-6.8,8.24-13.74,16.53-20.55,24.63-12.07-.42-25.46-.9-40.42-1.45q-15.21-.55-30.42-1.18l-1.6-.06c3.69-5.33,7.49-10.75,11.42-16.31,5.08-7.18,10.55-14.22,16-21.08Zm-34.33,40q15.23.6,30.43,1.18c14,.52,26.62,1,38.08,1.36l-.71.85c-7.06,8.4-14.36,17.09-21.49,25.71-3.9,4.71-6,7.23-7.87,9.76h-68c.39-.63.76-1.27,1.16-1.88,7.78-12,16-24.24,24.91-37.12Zm36.27,41.86c-1.44,2.06-3.11,4.56-5.63,8.34-1.79,2.67-4,6-6.87,10.26-2,3-4,6-5.93,9-22.2.85-43.77,1.79-62.65,2.75.55-1.41,1.11-2.86,1.7-4.35,3.58-9.12,7.21-18,11.77-26ZM584,782.2l-2.56,4c-2.77,4.35-5.64,8.84-8.54,13.22-2.2,3.33-4.29,6.74-6.32,10.13-18.25,1.67-36.75,3.51-55.11,5.91,2.47-7.85,5.72-17.47,10.69-30.52C540.7,784,562,783.05,584,782.2Zm-56.24,64.55,5-1.1c4.44-1,9-2,13.54-2.69l-.84,1.55c-2.2,4.11-4.49,8.36-7,12.36a56.47,56.47,0,0,0-6.56,14.32,118.62,118.62,0,0,0-14.61,4.62c-1.64.6-3.27,1.2-4.89,1.76-6.4,2.23-12.87,4.55-19.19,6.82a67.28,67.28,0,0,1,1.8-11.13c.31-1.11.67-2.24,1-3.32.46-1.44.94-2.94,1.32-4.46s.63-2.9.95-4.64c.4-2.19.88-4.78,1.67-8C507.47,851.11,516.41,849.14,527.72,846.75Zm-34.93,41.37c0-.14,0-.27,0-.41,6.74-2.42,13.69-4.92,20.55-7.3,1.63-.57,3.28-1.17,4.93-1.78,4.11-1.5,8.32-3,12.56-4.12l0,.1c-1.27,4-2.59,8.18-2.61,12.7,0,4.67.31,10.21,2.92,15.81a52.57,52.57,0,0,0,5,8.35c-3.91,1.41-14.19,5.89-26.09,11.07L502,926c-5.45-7.61-8.44-14.69-9.51-22.36A58.41,58.41,0,0,1,492.79,888.12Zm86-30.78c2.34-3.56,5.21-6.81,10.28-11.92,2-2,3.81-4.16,5.58-6.24,1.34-1.59,2.74-3.24,4.17-4.78.28-.3.58-.59.86-.89l1.12-.25c2.08-.51,2.91-.76,3.45-.92a33,33,0,0,1,4.92-.86l2.33-.36c11.7-1.77,22.24-3.15,31.76-4.23-3.63,2.63-7.89,5.78-13.08,9.69a81.08,81.08,0,0,0-13,11.58l-.15.19C602.9,850.93,590.35,854.09,578.83,857.34ZM632,839c7.38-5.58,12.87-9.59,17.35-12.74,17.8-1.85,31.83-2.58,43.11-2.74A242.39,242.39,0,0,0,670,836.61c-3,2-6.09,4.15-9,6.5-4.18.06-8.56.49-17.56,1.46-7.57.81-14.68,1.81-21.45,2.94A94.38,94.38,0,0,1,632,839Zm39.59.12a273.83,273.83,0,0,1,27.48-15.64c9.26,0,16.45.42,22.32.74l2.73.14c11.13.58,22.46,1.39,33.84,2.4-8.47,5-16.21,9.72-22.54,14.29-2.78,2-6.07,4.39-9.28,7.14-16.25-1.93-31.86-3.33-47.09-4.23l-5-.3c-3.44-.22-6-.37-8.29-.46C667.72,841.75,669.69,840.4,671.62,839.1Zm65.59,4.36c7.13-5.14,16.12-10.58,25.94-16.25q5.07.46,10.14,1c13.61,1.42,31.88,3.65,49.12,5.88-8,5.47-15.47,10.81-22.22,16.21-3.08,2.47-6.08,4.94-8.86,7.51l-11.89-1.91-11.15-1.78c-13.12-2.12-25.74-3.93-38-5.44C732.5,846.9,734.83,845.18,737.21,843.46ZM901.5,880.9c-14-3-28.37-6.18-42.51-9.67,1.79-1.87,3.73-3.8,5.87-5.81,7.23-6.82,15.51-13.71,24.31-20.87,5.48,1.15,11.11,2.33,16.72,3.26,10.06,1.68,20.25,3.54,30.11,5.35l6.27,1.14c1.92.35,3.86.67,5.78,1-9.17,8.92-18,17.62-23.82,24.14-1.66,1.86-3.24,3.66-4.75,5.43C913.44,883.5,907.41,882.18,901.5,880.9Zm79.28-96.37c-6.47-.38-13-.92-19.34-1.45l-2.52-.21c9-9.43,18.19-19.81,27.31-31.37h47.22c-8.37,14.33-14.79,24.79-22,34.81C1003.58,785.87,993.67,785.29,980.78,784.53Zm7.79-36q5.4-7,10.76-14.5c4.71-6.62,9.11-13.48,13-20.24l6.31-.41c5.07-.34,10.32-.68,15.48-1l20-1.06A215,215,0,0,1,1041,738.42c-2.06,3.58-4,6.91-5.82,10.08ZM1034,709.4c-5.19.27-10.44.62-15.53,1l-4.34.29a180.6,180.6,0,0,0,10.4-21.62c.32-.81.6-1.65.89-2.49a27.78,27.78,0,0,1,1.65-4.18c1.19-2.26,2.43-4.29,3.74-6.43.61-1,1.23-2,1.85-3.06l10.82-1.52c7.52-1.07,15.3-2.17,23-3.1l.93-.11c-.75,2.06-1.64,4.32-2.71,6.85a48.22,48.22,0,0,0-2.65,10.48c-.38,2.16-.73,4.21-1.25,6.17a163.18,163.18,0,0,1-5.4,16.64Zm32.1-44.14c-7.71.93-15.5,2-23,3.11l-8.54,1.2a79.06,79.06,0,0,0,7.2-18.9,38,38,0,0,1,1.48-4.27c.39-1,.79-2,1.14-3a72.3,72.3,0,0,0,2.61-12.93c.48-.16,1-.29,1.46-.46a54.79,54.79,0,0,1,8.34-1.87c1.47-.25,3-.51,4.5-.83,3.87-.83,7.76-1.78,11.52-2.71l1.58-.38c0,.82,0,1.64,0,2.47.08,7.19-.52,9.7-1.11,12.12a34.26,34.26,0,0,0-.78,4c-.21,1.73-.37,3.34-.52,4.89a68.33,68.33,0,0,1-3.45,17.31Zm35.62-94.81a82.47,82.47,0,0,0-8.61,1.86c-5.59-9.25-12.89-17.33-19.45-24.11-2.89-3-5.88-5.74-9.1-8.58a148.9,148.9,0,0,1,18.83-4.58l3.65-.71,4.55-.87c10.05,11.36,19.72,23.16,27,34.82C1113.25,568.85,1107.65,569.57,1101.71,570.45Zm-15.25-39.06-3.65.7c-11,2.11-16.69,3.78-20.88,5.24l-.69-.61c-2-1.71-3.92-3.53-5.8-5.3-2-1.91-4.14-3.88-6.3-5.75-4.33-3.72-8.9-7.26-13.31-10.68-2.42-1.87-4.87-3.78-7.31-5.72A250.46,250.46,0,0,1,1059.28,498c4.71,5.35,9.93,11,15.39,16.9,4.77,5.15,9.7,10.49,14.58,15.94Zm-52.47-14c4.39,3.4,8.93,6.92,13.19,10.59,2.12,1.82,4.2,3.77,6.21,5.66,1.73,1.62,3.52,3.29,5.34,4.89l-.5.19a69.78,69.78,0,0,1-7.42,2.48c-2.79.75-5.54,1.66-8.2,2.54-2.19.73-4.46,1.48-6.72,2.13-1.11.32-2.24.61-3.38.89l-1.27-.87c-1.26-.85-2.25-1.53-2.92-2-9.32-6.88-17.61-11.53-26.38-16.44L996,524.06c9.74-4.28,19.75-8.69,29.48-13.38C1028.32,513,1031.18,515.19,1034,517.36ZM1000.48,530c8.68,4.87,16.88,9.47,26,16.24.53.39,1.22.86,2,1.43l-.53.13c-2.82.66-5.73,1.34-8.57,2.18-2.67.78-5.44,1.47-8.12,2.14-1.82.45-3.64.9-5.45,1.39-1.11.3-2.29.67-3.66,1.09L1001,555a229.17,229.17,0,0,0-31.67-14c-2.46-.92-5-1.85-7.65-2.89l2.31-1c4.4-1.85,8.91-3.64,13.28-5.36,5-2,10.2-4,15.28-6.23C995.28,527.1,997.9,528.57,1000.48,530Zm-32.16,13.78a224.52,224.52,0,0,1,28.59,12.41,201.67,201.67,0,0,1-27.14,5.37c-13-4.83-26.38-8.18-41.17-11.64l1-.28a276,276,0,0,0,28.11-9.9C961.63,541.29,965.11,542.59,968.32,543.79ZM821.4,564.5c-20.2-.53-39.63-1.74-56.92-3.13l-.63-.35-1.36-.74a98.46,98.46,0,0,0-10.34-5.12q12.95,2.05,25.23,2.78l5.45.58,4.21.41A324,324,0,0,1,821.4,564.5Zm-98.17-15.25q3.42,1,7.35,1.91c1.1.36,1.9.61,2.65.84,1.13.36,2.11.66,3.85,1.29,2,.73,4.08,1.36,6.08,2,2.54.78,5.17,1.59,7.67,2.58a68,68,0,0,1,6.17,2.89c-17.67-1.53-32.67-3.18-43.34-4.35-8-.88-13.33-1.47-15.4-1.5l-1.72,0-1.53,0c-.37-.36-.75-.7-1.1-1.08-5.1-5.37-11.2-9.18-17.1-12.86-1.58-1-3.19-2-4.78-3l.62.13C692.48,542.78,709.11,546.43,723.23,549.25Zm-168.17-8.14a54.49,54.49,0,0,1,1.05,5.39,108.9,108.9,0,0,1,.2,26.78c-3.38-.06-6.86-.12-10.28-.35-16.11-1.07-31.82-2-46.7-2.71-2.5-.12-5.09-.16-7.59-.2-3.61-.06-7.31-.13-10.91-.43a241.6,241.6,0,0,0,7.2-34.88l.92.08c14.53,1.14,29.8,2.56,45.38,4.25,5.66.61,11.41,1.17,17,1.7ZM491.69,573c2.48,0,5,.08,7.5.2,14.85.72,30.55,1.63,46.64,2.7,3.37.23,6.77.3,10.08.36-2.33,15.67-8.1,29.73-15.75,43.46l-5.1-.25c-5.18-.25-11-.54-23-1.32-17.15-1.12-33.72-2.15-49.89-3A218.21,218.21,0,0,0,480,572.53C483.86,572.88,487.82,573,491.69,573Zm20.18,48.14c12,.79,17.85,1.07,23,1.32l3.59.18c-6.13,10.63-13.32,21.12-20.84,32.08l-4.77,7c-25.69-1.34-51.25-2.59-76.38-3.63,3.3-5.53,6.49-10.71,9.54-15.65,5.13-8.31,10-16.21,14.54-24.38C477.19,619,494.23,620,511.87,621.16Zm8.26,35.28C528,645,535.52,634,541.87,622.84c9.7.53,24.45,1.53,69.46,5.12l8.77.7c-1.82,3-3.7,5.92-5.56,8.6-6.33,9.07-13.29,17.89-20,26.42-.64.8-1.28,1.62-1.91,2.42-25.33-1.43-50.83-2.86-76.21-4.2ZM590.34,669c-5,6.37-10,12.89-14.75,19.56-4.33,6.12-8.48,12.06-12.52,17.9-24.08-1-48.83-1.91-73.22-2.39,2.43-4.24,5-8.64,7.88-13.41,5.48-9.13,11.11-17.64,16.69-25.84C539.7,666.13,565.1,667.55,590.34,669ZM489.56,707c23.8.47,47.95,1.39,71.49,2.32-8.49,12.33-16.39,24.12-23.87,35.62-.75,1.16-1.47,2.33-2.18,3.52H466.66c1.22-2.88,2.67-5.71,4.1-8.48.63-1.23,1.26-2.46,1.86-3.68,5.29-10.64,10-19.63,15.53-29.33Zm.53,79.76c8.34-.56,18.06-1.13,28.76-1.69-5,13.23-8.24,22.89-10.7,30.77q-6.06.81-12.09,1.71c-14.31,2.15-28.83,4.22-43.71,6.24,0-.56.08-1.13.12-1.68l.11-1.44q1.21-16.56,3.77-31.69Q472.42,788,490.09,786.8Zm6.42,33.76c3.55-.54,7.1-1,10.67-1.53-.71,2.31-1.36,4.47-2,6.54-1.57,5.24-2.92,9.77-4.63,14.72-1.34,3.88-2.31,7.17-3.06,10-8.11,1.86-14.54,3.42-20.55,4.88-7.39,1.8-14.37,3.49-23.36,5.49-1.11.25-2.22.44-3.34.61.1-5.18.43-9.87.74-14.19.23-3.18.45-6.17.53-8.94.11-3.75.34-7.54.6-11.29C467.24,824.84,482,822.74,496.51,820.56Zm-73.24,89.66,4-1.2c2.41-.73,4.86-1.6,7.24-2.44a83.91,83.91,0,0,1,13.84-4l.15,0c.1,1.1.18,2.2.22,3.3A68,68,0,0,0,451.83,923a73.38,73.38,0,0,0,9.61,19.13l-.7.22c-3,.91-6.91,2.42-11.92,4.33-6.1,2.33-13.59,5.2-22.23,8.09a139.41,139.41,0,0,1-13.07-26.18,95.15,95.15,0,0,1-3.13-11.07c-.26-1.08-.52-2.16-.79-3.24C414.62,912.85,419.2,911.46,423.27,910.22Zm31.43,11.93a64.86,64.86,0,0,1-3-16.46c-.05-1.26-.15-2.52-.26-3.77a119.22,119.22,0,0,0,14-4.43c1.58-.58,3.16-1.16,4.73-1.7,6.53-2.27,13.13-4.63,19.57-6.95a57.78,57.78,0,0,0-.22,15.25c1.11,8,4.15,15.35,9.67,23.18-7.42,3.2-14.67,6.31-20.13,8.52-5.19,2.11-10,3.89-14.6,5.42A70.45,70.45,0,0,1,454.7,922.15Zm25.44,16.42c5.64-2.28,13.17-5.51,20.82-8.82.81,1.07,1.66,2.15,2.57,3.24,7.11,8.58,16,17.21,24.56,25.55l1.32,1.29c-12,6.19-24.72,12.13-36.15,17.25-2-2.44-4.08-4.88-6.12-7.31C481.45,963,475.57,956,470.4,949.34c-1.41-1.82-2.82-3.67-4.19-5.57C470.61,942.29,475.21,940.58,480.14,938.57Zm50,17.82c-8.52-8.29-17.33-16.86-24.34-25.31-.72-.87-1.39-1.72-2-2.57l7.43-3.22c11.48-5,22.32-9.72,26-11,.25-.09.51-.16.77-.23,7.24,9.11,16.91,16.51,25.13,22.78l.76.57c1.22.94,2.63,2,4.14,3.2-10,4.32-21.59,10.28-32.75,16.19l-3.09,1.63Zm85.49-70.74a30.73,30.73,0,0,1-3.95-5.71c-4.43-8.47-2.19-17.66,7-28.84,7.8-1.39,16.09-2.6,25-3.55,6.33-.68,10.33-1.09,13.6-1.29-5.07,4.76-9.14,10.35-10.49,17.25-1.21,6.21.42,12.15,4.83,17.78A248.67,248.67,0,0,0,615.67,885.65Zm100-17.32c1.49-6.64,5.88-12.06,11.5-17,13.08,1.57,26.59,3.48,40.66,5.76L779,858.86l9.67,1.54c-4.54,4.61-8.22,9.6-10.21,15.45a25.31,25.31,0,0,0-.07,16q-8.46-1.41-16.72-2.69c-15-2.34-29.23-4.18-42.83-5.52C714.59,877.16,714.82,872.05,715.65,868.33Zm65.62,8.48c2-6,6.07-11,11-15.81,20.31,3.3,41,6.93,61,11.92-9.23,10.41-13.9,20.06-12.45,31.83-19.85-5.15-39.8-9-59.06-12.28A21.85,21.85,0,0,1,781.27,876.81ZM955,933.56c-6.54-1.88-13.24-3.57-19.72-5.2-5.42-1.37-11-2.79-16.51-4.3-4.34-1.2-8.72-2.34-13.11-3.45.52-11.76,5.58-21.07,14.94-32.44q5.15,1.16,10.25,2.33c12.28,2.85,24.61,5.49,36.55,8,6,1.29,10.32,2.33,14.11,3.28-9.67,13.19-14.65,22.23-16.94,34.44C961.64,935.44,958.47,934.54,955,933.56ZM1010,862.94c-2.47-.54-4.8-1.05-7.23-1.52-4-.79-8.08-1.41-12-2-2.12-.32-4.24-.64-6.36-1-4.41-.73-8.89-1.57-13.22-2.38l-4.91-.92c-3.91-.72-7.89-1.32-11.74-1.89l2.22-2.15c8.27-8,16.08-15.57,21-20.74q3.14-3.33,6-6.39l.38,0c6.08.21,12.21.95,18.15,1.67l3.72.45,7.23.83c9,1,18.23,2.09,27.29,3.57-9.09,11.74-18.58,23-27.27,33.14Zm32.46-35.18c-9.62-1.63-19.45-2.75-29-3.83l-7.22-.83-3.71-.45c-5.3-.64-10.77-1.28-16.25-1.57,11.45-12.44,19.47-21.94,26.6-31.68l16.6.94c11.3.63,16.46.91,29.28,1.77l7.61.52a334,334,0,0,1-23.88,35.14ZM1059,789.12c-12.84-.86-18-1.15-29.32-1.78l-14.68-.82c7.09-10,13.53-20.54,22-35h47.19l0,.08a226.82,226.82,0,0,1-9.82,25.8c-1.84,4.07-3.94,8.2-6.25,12.35ZM1091.43,706c-8.38.62-15.07,1.12-32.79,2.1a164.51,164.51,0,0,0,5-15.69c.54-2.08.93-4.29,1.3-6.41a46,46,0,0,1,2.45-9.84c1.33-3.15,2.4-5.91,3.27-8.4,4-.44,8-.84,11.88-1.23,6.13-.61,12.46-1.24,18.67-2,1.37-.18,2.74-.39,4.1-.6-.17,1.41-.34,2.86-.61,4.27-.09.48-.18,1-.28,1.43a33.43,33.43,0,0,0-.8,5.77,165.39,165.39,0,0,1-3.62,30C1096.76,705.58,1094,705.78,1091.43,706Zm18.07-63.73c-.15-2.46-.17-5-.18-7.41,0-3.32,0-6.74-.4-10.15-.09-.78-.17-1.61-.26-2.49-.14-1.44-.3-3-.5-4.75a104,104,0,0,1,11.84-1.6l2.06-.2c5.5-.54,10.77-1,15.93-1.43,2.62,10.18,4.83,20.41,6.55,30.45a123.89,123.89,0,0,1,1.39,12.44c-12.48.77-23.89,1.57-29.1,2.06-2.71.25-5.39.67-8,1.09A89.19,89.19,0,0,0,1109.5,642.25Zm38,1.92c-1.7-10-3.86-20.09-6.44-30.18,9.86-.73,19.35-1.16,29.22-1.18l.42,1c9.72,24.46,12.36,34,13.88,41.17-8.79.34-22.57,1.1-35.65,1.9A122.51,122.51,0,0,0,1147.49,644.17ZM1140.27,611c-.11-.45-.22-.89-.34-1.33A167,167,0,0,0,1126,575.08c-.74-1.43-1.54-2.86-2.37-4.29a252.32,252.32,0,0,1,25.46-1.12,318.17,318.17,0,0,1,20,40.15C1159.36,609.87,1150,610.31,1140.27,611Zm-18.36-43.1c-7.21-11.78-16.83-23.68-26.91-35.13a227,227,0,0,1,27-3.71h.1c8.7,12.17,17.15,24.24,25.16,37.57C1139.24,566.65,1130.91,567.07,1121.91,567.94Zm-29.22-37.74c-5.29-5.94-10.65-11.74-15.82-17.32s-10-10.81-14.44-15.83a270.83,270.83,0,0,1,31.9-7.95c7.9,12.24,16,23.48,23.77,34.38l2,2.76A248.45,248.45,0,0,0,1092.69,530.2Zm-66.76-23q-2-1.64-3.93-3.31l-5-4.32c-7.79-6.72-15.85-13.67-23.06-21.09a364.55,364.55,0,0,1,36-17.13c6.54,9.38,14.92,19.78,25.27,32,.63.74,1.27,1.49,1.93,2.24C1047.32,498.59,1036.32,502.24,1025.93,507.17Zm-34.49-27,.28.29C999,488,1007.17,495,1015,501.81l5,4.32c1,.82,1.92,1.64,2.89,2.45-9.72,4.65-19.73,9.05-29.44,13.31l-.7.3c-2.89-1.68-5.87-3.46-9-5.44l-5.1-3.21c-8.8-5.55-16.2-10.22-22.4-14.48l.67-.38c6.79-3.86,13.82-7.86,20.86-11.53,3.36-1.76,6.65-3.55,10.13-5.45l3.24-1.77Zm-14.34,35.9,5.09,3.22c2.47,1.56,4.85,3,7.17,4.37-4.39,1.84-8.83,3.6-13.15,5.32s-8.92,3.52-13.34,5.38c-1.67.71-3.41,1.43-5.18,2.15-2.38-1-4.93-2-7.73-3.19-2.63-1.13-5.27-2.23-7.9-3.34-7.76-3.26-15.72-6.64-23.45-10.37l8.22-4.39c6.27-3.34,12.77-6.79,19.1-10.3,2.5-1.39,5-2.8,7.48-4.21C959.9,505.23,967.72,510.16,977.1,516.07Zm-303.75,19c-1.81-.43-3.61-.68-5.36-.92-.59-.08-1.2-.16-1.81-.26l-1.18-.81A106.09,106.09,0,0,0,654.11,526l-1.13-.66c11.8,4.75,23.61,9.24,35.38,13.28C683.57,537.52,678.58,536.34,673.35,535.07Zm-36.16-15.54,2.28,1.34c7.13,4.27,10.75,6.35,13.14,7.73,2.74,1.58,3.59,2.07,6.06,3.76-7.57-1.77-17.64-4.48-28.95-7.53-6.89-1.85-14.26-3.84-22-5.85-1.26-1.68-2.44-3.25-3.51-4.61-2.29-2.93-4.81-5.68-7.24-8.35-1.35-1.47-2.74-3-4.06-4.51-.87-1-1.77-2-2.68-3l3.93,1.73c12.94,5.71,26,11.47,39.17,17C634.7,518.06,636,518.82,637.19,519.53Zm-49.44-19.37c1,1.12,2,2.22,2.94,3.32,1.36,1.55,2.76,3.09,4.11,4.57,2.4,2.62,4.88,5.33,7.1,8.16l1.19,1.55c-17-4.4-35.38-8.86-53.71-12.42-.46-1.54-.91-3.07-1.34-4.61a120.8,120.8,0,0,0-4.29-12.1c-.63-1.58-1.26-3.16-1.86-4.76s-1.32-3.46-2-5.18l-.81-2.12c14.95,6.08,29.85,12.55,44.66,19.05C585.09,497.18,586.43,498.68,587.75,500.16Zm-60.59,3.7c6.93,1.48,12.93,2.77,17.76,3.68l2.1.4c.87,2.91,1.77,5.93,2.54,8.89.51,2,1.16,4,1.78,5.86a51.25,51.25,0,0,1,2.49,9.47c.12.88.19,1.76.27,2.69s.18,2.12.33,3.19l-2.85-.28c-5.55-.54-11.29-1.09-16.93-1.7-15.61-1.69-30.91-3.12-45.47-4.26l-.78-.06a255.35,255.35,0,0,0,1.78-28.85c0-2.16.08-4.34.15-6.51C504.26,498.94,516.73,501.62,527.16,503.86Zm-40-1a252.2,252.2,0,0,1-1.76,28.54l-2.41-.33c-4.39-.63-10.41-1.48-31.44-2.88q-16.92-1.12-33-1.62c4.56-13,8.41-25.73,11.61-38.39,20.52,1.66,39.9,4.54,57.15,7.64C487.27,498.17,487.19,500.53,487.18,502.88ZM451.37,531.2c20.92,1.39,26.87,2.24,31.22,2.86l2.46.33a238.76,238.76,0,0,1-7.25,34.88l-1.29-.17a139.34,139.34,0,0,0-17.86-1.16l-4.95-.12c-17.39-.55-34.5-.81-51.1-.77q1.61-3.72,3.19-7.48c4.33-10.2,8.24-20.18,11.76-30Q434,530.06,451.37,531.2Zm2.24,39.62q2.47.07,5,.12a139.5,139.5,0,0,1,17.47,1.12c.29.05.59.08.88.12A216.4,216.4,0,0,1,458.86,615c-26.89-1.45-52.67-2.54-78.06-3.12,3.55-6.46,6.94-12.79,10.07-19.09,3.71-7.46,7.11-15,10.44-22.69C418.28,570,435.8,570.25,453.61,570.82Zm3.64,47c-4.31,7.68-8.92,15.14-13.75,23-3.31,5.36-6.79,11-10.4,17.08-26.05-1.07-51.62-1.91-76.39-2.43,5.29-10.08,10.71-19.74,16-29.24q3.27-5.84,6.41-11.48C404.57,615.35,430.36,616.42,457.25,617.87Zm-25.88,43c-5.13,8.75-10.5,18.4-16,29.39-2,4-3.84,7.84-5.61,11.68-21.53-.53-45.72-1-73.81-1.23,1.28-3.27,2.65-6.66,4.13-10.21,4.73-11.32,9.82-21.89,15.06-32C379.86,659,405.37,659.82,431.37,660.87Zm-13.3,30.73c5.74-11.5,11.35-21.52,16.7-30.59,25.05,1,50.53,2.27,76.15,3.6-5.27,7.78-10.58,15.85-15.76,24.49-3.2,5.32-6.06,10.19-8.73,14.88-12.08-.26-25-.63-38.54-1-10.9-.31-22.43-.64-34.84-1C414.65,698.59,416.31,695.13,418.07,691.6ZM447.8,706c13,.37,25.33.72,36.95,1-5.2,9.22-9.76,17.88-14.81,28.07-.6,1.21-1.23,2.42-1.85,3.64-1.64,3.19-3.33,6.47-4.68,9.85H395.12a226.29,226.29,0,0,1,8.62-24.79c2.43-6.21,5.06-12.41,7.94-18.72C424.58,705.31,436.53,705.65,447.8,706Zm5.48,83.25q-2.49,14.94-3.69,31.27l-.11,1.43c-.05.77-.11,1.55-.17,2.32-17.42,2.34-35.36,4.61-54.08,6.84l-1.84.23A328.25,328.25,0,0,1,390.62,793C409.17,792,430,790.71,453.28,789.22ZM395,862.87c.52,3.14,1.11,6.28,1.75,9.41-15.68,3.19-31.83,5.87-47.88,8-1.41-3.54-2.81-7.12-4.09-10.7-3.05-8.51-6.45-18.47-9.61-28.77,27-2.37,46.06-4.86,55.61-6.11C392,843.91,393.46,853.27,395,862.87Zm11.7,52.28c.26,1,.51,2.07.76,3.1a97.15,97.15,0,0,0,3.22,11.41,142.32,142.32,0,0,0,12.95,26.11,290.91,290.91,0,0,1-36.28,9.4,273.62,273.62,0,0,1-20.31-40.51C382,921.85,395.4,918.38,406.72,915.15Zm18.58,43.23c5.1,8,11.17,16.47,18.6,26.84l3.31,4.62c1.18,1.64,2.23,3.28,3.27,4.95a333.34,333.34,0,0,1-38.16,11.93c-8-14.47-16.27-27.8-23.25-38.82A295.59,295.59,0,0,0,425.3,958.38Zm24.35,29.71-3.31-4.61c-7.2-10.06-13.13-18.33-18.1-26.07,8.39-2.83,15.69-5.62,21.65-7.9,4.95-1.89,8.86-3.38,11.73-4.26l1.61-.51c1.59,2.25,3.21,4.39,4.79,6.44,5.21,6.71,11.12,13.73,16.82,20.53q2.79,3.3,5.57,6.64c-12.52,5.56-23.29,10-29.72,12.53q-3.62,1.43-7.35,2.84C452.19,991.85,451,990,449.65,988.09Zm12.14,5.58c6.58-2.58,17.72-7.19,30.62-12.92,9.56,11.53,18.68,23.16,25,34.37-11.54,5.77-23.12,11.36-34.49,16.83l-5.32,2.56c-4.59-10-10.84-20.22-19-32.43-1.29-1.92-2.47-3.87-3.62-5.76Q458.41,995,461.79,993.67Zm33.46-14.19c11.56-5.19,24.33-11.2,36.43-17.44,10.35,10.1,20.56,20.41,27.52,30.8-5.15,2.89-10.24,5.72-15.33,8.5-7.84,4.26-15.81,8.4-23.82,12.43C513.77,1002.52,504.74,991,495.25,979.48Zm39.23-18.9c.75-.39,1.5-.78,2.24-1.18,11.66-6.18,23.76-12.41,34-16.73,7.77,6.15,17.68,14.39,24.81,21.7.46.47,1,1,1.5,1.47a28.06,28.06,0,0,1,3.46,3.75c-9.24,5.08-18.42,10.28-27.54,15.46l-11.16,6.31C554.85,980.9,544.76,970.63,534.48,960.58Zm117-51.76c-12.66-6.2-25.27-12.65-33.4-20.59a250.53,250.53,0,0,1,36.1-4,61.39,61.39,0,0,0,13.48,10.08,173.56,173.56,0,0,0,19.25,9.25A183.93,183.93,0,0,0,651.51,908.82Zm138.8-2.61a54.78,54.78,0,0,1-7.08-10.45c19,3.25,38.64,7.11,58.14,12.23a57.71,57.71,0,0,0,5.27,14.23,134.89,134.89,0,0,0,9,15.25c-5-1.86-10.1-3.72-15.22-5.4-7.79-2.56-20.23-6.47-35.13-10.59A151.91,151.91,0,0,1,790.31,906.21Zm76.44,42.6c-.54-.73-1.12-1.46-1.71-2.21-.87-1.1-1.75-2.22-2.51-3.36,3.5,1.3,7.05,2.6,10.58,3.84,7.49,2.61,22.31,8,38.39,13.79,0,.17,0,.34,0,.54a10.32,10.32,0,0,0,.21,1.61,29.55,29.55,0,0,0,2.17,5.74c.31.69.62,1.37.9,2,6.09,14.53,7.18,18,8.33,22.71-1.67-.9-3.11-1.69-4.58-2.5-3.93-2.14-8-4.36-17.48-9.21-6.67-3.41-12-6.24-16.78-8.73l-2.73-1.43C878.47,965.46,873.8,958.4,866.75,948.81Zm180.7-36.88c-40.18-6.65-50.51-9.24-60.82-11.89l1.41-1.87c5.05-6.65,12.36-15.13,20.82-25,1.75-2,3.56-4.13,5.4-6.28,9.68,2,23.35,4.59,53.3,8.29,2.09.25,4.19.52,6.3.79-1.73,2.37-3.43,4.7-5.07,7-2.92,4-6,8.11-9,12.06C1055.68,900.57,1051.47,906.18,1047.45,911.93Zm20.48-39.69c-28.21-3.48-41.9-5.94-51.44-7.91,8.75-10.22,18.24-21.53,27.31-33.32,12.4,2,25.1,3.1,37.4,4.16l3.09.27,16.35,1.43.74.06c-8.51,13-17.32,25.09-25.5,36.31C1073.22,872.9,1070.57,872.56,1067.93,872.24Zm36.85-35c19.71,1.73,38.27,3.34,57.91,4.66-3.86,7-7.84,13.93-11.49,19.8-1.91,3.07-3.81,6.16-5.71,9.24-2,3.25-4,6.54-6.07,9.83-19.76-1.93-37.44-4.19-54-6.31l-6.15-.78C1087.49,862.4,1096.29,850.22,1104.78,837.23Zm1.84-2.85A344.49,344.49,0,0,0,1128.29,796l23.82,1c10.79.44,21.18.82,31.25,1.14-.14.47-.28.94-.41,1.4a46.24,46.24,0,0,1-1.61,4.95c-3.18,7.72-9.82,21.21-17.07,34.59C1144.67,837.69,1126.19,836.1,1106.62,834.38Zm-3.37-.3-2.35-.2-16.35-1.43-3.09-.27c-11.72-1-23.8-2.06-35.59-3.88a324.21,324.21,0,0,0,23.82-35.45c8.49.59,13.25,1,16.42,1.2,7,.53,7,.53,22.66,1.14l16.27.63A351,351,0,0,1,1103.25,834.08Zm5.64-41.89c-15.65-.6-15.65-.6-22.56-1.13-3-.23-7.39-.57-15-1.1,2.08-3.81,4-7.6,5.68-11.34a229.81,229.81,0,0,0,10-26.14c.08-.26.2-.59.36-1H1141c-.12.48-.23,1-.35,1.42l-.22.91a212.43,212.43,0,0,1-14,39Zm-20.3-43.69c.12-.26.23-.52.36-.79a208.73,208.73,0,0,0,13.54-39.53l3.18-.22c10.44-.72,21.09-1.09,31.38-1.44,3.73-.13,7.45-.26,11.18-.41-.14,3.23-.35,6.73-.66,10.57-.89,10.87-3.2,21.15-5.8,31.82Zm48.36-45c-10.32.36-21,.72-31.49,1.44l-2.31.16a166.35,166.35,0,0,0,3.51-29.7,30.27,30.27,0,0,1,.74-5.26c.1-.49.2-1,.29-1.46.33-1.75.53-3.49.72-5.18a.77.77,0,0,0,0-.15c2.85-.47,5.77-.94,8.68-1.21,5.19-.49,16.56-1.28,29-2.06.05.88.09,1.74.13,2.57.19,4.44.56,8.41,1,12.62a204.87,204.87,0,0,1,1.16,27.82ZM1150.17,675c-.39-4.17-.76-8.11-1-12.46,0-.86-.07-1.74-.12-2.63,13.3-.82,27.33-1.59,36.08-1.93l.15.76c.41,2.13.85,4.33,1.47,6.9.35,1.42.81,3.17,1.34,5.2,1.93,7.32,4.73,18,6.8,30.53-14.07.42-28.49,1-43.61,1.62A210.16,210.16,0,0,0,1150.17,675Zm40.87-4.92c-.53-2-1-3.74-1.33-5.15-.6-2.5-1-4.57-1.44-6.77l-.06-.28h.18l4.76-.15c10.5-.35,21.35-.7,31.75.37a301.54,301.54,0,0,1,16.1,42.6c-14.23-.05-28.45.18-43,.59C1195.87,688.47,1193,677.55,1191,670.09Zm2-15.36-4.75.15-.69,0c-1.52-7.3-4.08-16.86-14.1-42.09,5.18,0,10.47.18,16,.46l2.2.1c3.67.14,7.46.3,10.7,1.38,7.55,13.33,14.7,26.74,21,40.19C1213.39,654.07,1203.07,654.4,1193.05,654.73Zm-1.21-44.35-2.17-.09c-6-.31-11.77-.46-17.37-.48a319.17,319.17,0,0,0-19.71-40.07c4.35.11,8.65.34,13,.71l1.43.11c3.52.28,7.48.6,10.53,2,7.7,12.77,15.44,25.62,22.84,38.55A58.38,58.38,0,0,0,1191.84,610.38Zm-24.61-42.81-1.42-.11c-5-.42-10-.68-15-.77-8-13.46-16.45-25.62-25.15-37.81,9.29-.51,18.79-.56,27,1.75,7.25,12.74,14.84,25.41,22.42,38A51.94,51.94,0,0,0,1167.23,567.57ZM1123.59,526l-3-4.26c-7.56-10.54-15.35-21.4-23-33.16a120.5,120.5,0,0,1,32.66-1c6.14,13.22,13.09,26.38,20.46,39.47C1142.13,525.2,1132.7,525.44,1123.59,526Zm-31.7-40.69.69,1.07a288.6,288.6,0,0,0-32.33,8.2l-2.77-3.21c-10.1-11.92-18.31-22.07-24.72-31.2,2.79-1.13,5.71-2.28,8.8-3.46a256.5,256.5,0,0,1,28.87-9.21C1076.53,460.46,1084.17,473.08,1091.89,485.3Zm-51.4-31.4q-5,1.91-9.47,3.73c-10-14.75-15.14-26.89-15.74-39.66a301.31,301.31,0,0,1,42.52-16.11c.72,14.67,5.09,29,11.36,42.86A260.51,260.51,0,0,0,1040.49,453.9Zm-12.3,4.89a368.35,368.35,0,0,0-36.42,17.42c-8.82-9.15-18.83-20.43-19.68-35.85,13.36-7.57,26.79-14.72,40.25-21C1013.22,432.11,1018.39,444.26,1028.19,458.79ZM989,477.69l-2.52,1.37c-3.47,1.9-6.74,3.69-10.08,5.43-7.09,3.7-14.14,7.71-21,11.59l-1.91,1.08c-9.91-7.05-16.37-13.09-20.19-20.39a28.56,28.56,0,0,1-3.28-11.66c12.95-7.79,26-15.63,39.09-23.11C970.59,457.39,980.29,468.57,989,477.69Zm-58.31.48c3.93,7.51,10.32,13.65,20,20.62-2.08,1.17-4.15,2.35-6.24,3.5-6.3,3.51-12.79,6.95-19.05,10.29q-5.08,2.68-10.14,5.41l-.28-.13-.72-.36c-8.27-4.17-25.28-12.75-26.14-27.59,13.12-7.46,26.16-15.29,39.11-23.08A31.85,31.85,0,0,0,930.73,478.17ZM912,519.72c-12,6.4-24,12-35.88,16.9l-2-.58c-8.67-2.66-19.4-6.7-25.54-14.44a16.52,16.52,0,0,1-3.69-9.12c13.5-6.28,26.94-13.41,40.31-21C887.08,506.64,903.25,515.28,912,519.72Zm-77.25,33.76c11.72,2,22.94,3.33,33.83,4.44-10.69-.5-21-.56-30-.61l-8.05,0-1.71,0c-4.79,0-9.64-.1-14.5-.22A185.12,185.12,0,0,0,834.78,553.48ZM706.09,540l.67.62-1.3-.37c-23.34-6.64-43.69-12.42-47-26.1a298.53,298.53,0,0,0,42.2,15.7A17.24,17.24,0,0,0,706.09,540Zm-43.56-14.13q-13.9-5.43-27.79-11.34c-8.36-5.1-17.65-11.91-19.51-22.63,13.25,7.47,26.58,14.52,40,20.73A20.38,20.38,0,0,0,662.53,525.91ZM622.3,509.24c-9-3.89-18-7.84-26.88-11.76l-9.83-4.33c-6.21-7.29-11.68-15.27-12.54-26.07,12.89,7.78,25.87,15.58,38.93,23C612.62,498.19,616.94,504.38,622.3,509.24Zm-42.64-18.69c-13.94-6.1-27.95-12.13-42-17.8-3.57-9.57-6.52-19.14-6.7-30.67,13.09,7.49,26.1,15.34,39,23.14C570.26,475.58,574.46,483.63,579.66,490.55Zm-45.75-19.3c-14.89-5.94-29.83-11.44-44.76-16.16-.83-11.46-1.65-24-1.42-35.79,13.47,6.33,26.88,13.49,40.22,21.07C527.86,452.12,530.5,461.78,533.91,471.25Zm-47.83-17.12a372.13,372.13,0,0,0-47.14-11.5c1.76-13.4,2.84-26.94,3.28-40.81a298.83,298.83,0,0,1,42.53,16.11C484.44,429.79,485.23,442.5,486.08,454.13Zm.23,3.22c0,.32.05.65.07,1,.76,10.35,1.48,20.12,1.32,27.64-.05,2.29-.14,4.57-.23,6.85-17.09-3.07-36.25-5.9-56.54-7.56a396.45,396.45,0,0,0,7.61-39.64A371.94,371.94,0,0,1,486.31,457.35ZM369.78,487.61a397.33,397.33,0,0,1,57.39.36c-3.23,12.69-7.12,25.48-11.72,38.53-23.77-.65-46-.26-66.47,1.18C356.47,514.4,363.54,501,369.78,487.61Zm-22.58,43.2c20.62-1.52,43.11-2,67.19-1.34C411,539,407.2,548.57,403,558.4q-1.84,4.36-3.7,8.66c-26.77.13-52.15,1-75.14,2.67C332,556.85,339.76,543.87,347.2,530.81Zm-24.9,42.06c23.1-1.71,48.69-2.65,75.73-2.8-3.14,7.21-6.36,14.32-9.84,21.33-3.34,6.7-7,13.45-10.77,20.36-26.19-.55-52-.55-78.25.15C306.65,598.82,314.5,585.8,322.3,572.87ZM297.44,615c26.28-.74,52.12-.77,78.33-.24-1.84,3.32-3.72,6.67-5.64,10.08-5.58,9.94-11.25,20.05-16.78,30.65-20-.4-39.38-.57-58.09-.47-6.17,0-12.5.1-18.82.17C282.74,641.69,289.88,628.29,297.44,615ZM275,658.17c6.8-.09,13.6-.15,20.24-.19,18.22-.1,37.13.07,56.54.44-5,9.79-9.93,20-14.49,30.92-1.65,4-3.16,7.72-4.57,11.34-22-.17-46.41-.19-73.78,0A300.35,300.35,0,0,1,275,658.17ZM258.15,703.7c27.22-.21,51.53-.19,73.47,0-6.78,17.93-10.41,31.86-11.92,44.83H251.53A179.46,179.46,0,0,1,258.15,703.7Zm76.66,0c28,.22,52.13.68,73.62,1.21-2.7,6-5.19,11.84-7.5,17.74-3.28,8.39-6.65,17-8.91,25.85H322.74C324.28,735.58,328,721.69,334.81,703.7Zm52.8,89.46a329.75,329.75,0,0,0,2.81,38.54c-9.6,1.26-28.82,3.77-56.13,6.15-4.18-13.91-7.83-28.25-9.51-40.35-.06-.38-.11-.75-.16-1.12C342.07,795.58,362.81,794.55,387.61,793.16ZM424.47,1030c-3.39-7-7-13.9-10.65-20.57a339.85,339.85,0,0,0,38.25-12l.12.19c1.22,2,2.48,4.09,3.87,6.16,8.09,12.09,14.26,22.16,18.78,32.07l-.95.46c-9.14,4.41-24,10-40.75,14.4A199,199,0,0,0,424.47,1030Zm50.72,9,.85-.41c5.57,13.07,8.27,26.17,8.7,43.51a300.13,300.13,0,0,1-42.51,16.09,152.78,152.78,0,0,0-8.11-44.66C451,1049.07,466,1043.43,475.19,1039Zm3.58-1.72,5.41-2.61c11.41-5.49,23-11.09,34.62-16.89a72,72,0,0,1,4.89,11.48c2.69,8.5,4,18.19,4.25,30.43-13.35,7.56-26.77,14.72-40.23,21C487.16,1063.47,484.37,1050.36,478.77,1037.26Zm47.78-8.93a75.22,75.22,0,0,0-5.07-11.92c8-4,16-8.17,23.82-12.44,5.16-2.81,10.31-5.67,15.52-8.61a54.93,54.93,0,0,1,5.3,10.91c3.25,9.47,3.78,19.7,3.81,28.58-12.92,7.8-25.94,15.64-39,23.12C530.6,1046.2,529.2,1036.73,526.55,1028.33Zm42.41-23a57.86,57.86,0,0,0-5.52-11.4l11-6.23c9-5.12,18.11-10.27,27.25-15.3a16.37,16.37,0,0,0,1.57,2c.4.47.79.92,1.08,1.34,6.86,10,7.56,22.34,7.55,34.26-13.08,7.44-26.09,15.26-39,23C572.81,1024.35,572.13,1014.53,569,1005.29Zm37.87-31.24c-.38-.55-.84-1.08-1.27-1.59a14.5,14.5,0,0,1-1.21-1.54c13.25-7.23,26.63-14.18,40.16-20.36,10.08,10.94,10.86,20.7,10.59,36.87-13.46,6.26-26.87,13.36-40.2,20.88C614.83,996.85,613.82,984.21,606.83,974.05Zm40.57-24.79a312.41,312.41,0,0,1,41.12-15.33,39.73,39.73,0,0,1,6.39,7.1c5.66,8.28,5.77,19.27,5.68,29.15A300,300,0,0,0,658.12,986C658.29,970,656.91,960,647.4,949.26Zm78.26-25.63a206.39,206.39,0,0,0-36.39,7C680.34,923,668,916.87,655.75,910.9a175.15,175.15,0,0,1,38.06-4.58l5,2c11.79,4.68,23.14,9.2,32,15C729.07,923.37,727.37,923.47,725.66,923.63Zm-23.44-17.18c6.54.23,12.9.76,19.38,1.38,9.18.88,18.66,2.25,28.11,3.92,1.78,1,3.56,2,5.33,3,9,5.08,17.71,10,24.78,15.54-5.46-1.42-11-2.68-16.61-3.71A173.57,173.57,0,0,0,736,923.3C727,916.47,714.92,911.5,702.22,906.45Zm56.61,7c15.93,3.14,31.46,7,45,10.73,2.79,2.5,5.58,4.91,8.34,7.29,6.2,5.33,12.18,10.48,17.11,16a412.76,412.76,0,0,0-42.74-15.33C779.13,925.12,769.27,919.35,758.83,913.46Zm86,73.42c-.18-9.91-.39-21.14-5.39-30.33-.38-.69-.77-1.37-1.18-2,20.06,8.51,29.45,13.27,41.06,19.35,5.15,10.62,5.44,18.73,5.68,34.41-13.31-7.5-26.71-14.59-40.16-20.84Zm43.2,22.92c-.23-15.23-.37-23.75-4.45-33.7,4.58,2.4,9.75,5.12,16.11,8.37,9.45,4.83,13.49,7,17.39,9.18,2.17,1.18,4.25,2.32,7.11,3.83l.39,1.17a27.91,27.91,0,0,1,1.2,4.27c1.46,8.65,1.37,17.72,1.28,26.5,0,1.2,0,2.39,0,3.58-12.91-7.77-25.92-15.58-39-23Zm40.71-7.37a21.85,21.85,0,0,0-.74-3c7.07,3.65,18.44,9.34,40.66,20.22l.31.16a50.7,50.7,0,0,1,.53,5.19c.27,7.27,0,14.71-.19,21.9-.12,3.6-.22,7.28-.27,11-13.08-7.47-26.1-15.3-39-23.08,0-1.78,0-3.56,0-5.35C930.2,1020.54,930.29,1011.34,928.79,1002.43Zm43.75,22.49c0-1.18-.15-2.35-.29-3.52q22,10.61,42.47,18.38c-.12,2.68-.25,5-.39,6.69-.92,11.17-1.86,22.7-2.06,34.15-13.45-6.33-26.86-13.48-40.21-21,0-4.19.17-8.43.3-12.55C972.58,1039.79,972.82,1032.3,972.54,1024.92Zm44.78,21.77c.13-1.53.24-3.51.35-5.8a364.25,364.25,0,0,0,44.68,13.62,281.14,281.14,0,0,0-4.59,43.61,301.33,301.33,0,0,1-42.51-16.13C1015.39,1070.21,1016.37,1058.27,1017.32,1046.69Zm.48-9c.14-3.39.27-7.23.4-11.17.37-11.34.88-26.79,1.7-29.09l.21-.14.08-.06q27.51,7.79,52.29,12.23a22.87,22.87,0,0,0-1.76,5.58c-.14.65-.28,1.3-.44,1.91-.76,3-1.49,6-2.15,9-1.79,8.1-3.63,16.69-5.26,25.58A361.36,361.36,0,0,1,1017.8,1037.74Zm60.44-45.26c-.59,1.8-1.1,3.71-1.6,5.55a63.31,63.31,0,0,1-2.77,8.68q-24.67-4.38-52.21-12.14a24.53,24.53,0,0,0,.43-4.5c0-.79,0-1.54.11-2.14a190.16,190.16,0,0,1,6.69-33.6l3.07.69c20.08,4.54,38.69,8.13,56.3,10.84C1084.81,973.81,1081.52,982.47,1078.24,992.48Zm-45.62-40.39-2.82-.63c.74-2.25,1.53-4.45,2.37-6.53,4.27-10.53,10.18-20.33,16.67-29.73l7.84,1.31c14.53,2.43,32.85,5.5,54,8.14-8.34,13.07-15.08,24.75-21.2,38.37C1071.74,960.31,1052.93,956.69,1032.62,952.09Zm24.56-38.54-6.44-1.08c3.75-5.3,7.64-10.5,11.49-15.63,3-4,6-8.05,9-12.1q2.92-4.05,6-8.31l7.79,1c16.16,2.06,33.39,4.27,52.58,6.17-2,3.13-4,6.24-6,9.3l-6,9.05c-4.8,7.21-9.13,13.73-13.11,19.9C1090.78,919.18,1072,916,1057.18,913.55Zm127.16-118.47c-10.34-.33-21-.72-32.11-1.17l-22.55-.9a214.63,214.63,0,0,0,13.7-38.47l.22-.9c.18-.72.35-1.43.53-2.14h52.29c-.35,2.58-.77,5.17-1.28,7.76a204.65,204.65,0,0,1-10.59,35.25C1184.47,794.7,1184.41,794.89,1184.34,795.08Zm-39.48-46.58c2.56-10.54,4.81-20.73,5.7-31.58.32-4,.54-7.57.67-10.92h.19c15.26-.64,29.8-1.21,44-1.63,2,13.37,3.09,28.64,1.38,44.13Zm53.57-44.22c14.71-.42,29.06-.65,43.41-.58a180.07,180.07,0,0,1,6.63,44.8h-48.66A174.24,174.24,0,0,0,1198.43,704.28Zm-86.3-265.15a165.22,165.22,0,0,0-40,4.86c-6.35-14-10.76-28.32-11.35-43a177.43,177.43,0,0,1,44.88-6.66A180.25,180.25,0,0,0,1112.13,439.13Zm-352.78,97.8a186.4,186.4,0,0,0,37.21-6.31,16.68,16.68,0,0,0,5,9.64c6.55,6.59,16.2,9.78,25.56,11.78a194.36,194.36,0,0,1-38.53,3.29c-.52-.06-1-.11-1.55-.18-10.89-1.42-23.15-3.51-30.94-10.36a12.71,12.71,0,0,1-4.45-7.6Q755.47,537.16,759.35,536.93Zm-365-142.57A178,178,0,0,1,439.24,401,408.18,408.18,0,0,1,436,442.15a240.05,240.05,0,0,0-48.08-3.08A180.15,180.15,0,0,0,394.35,394.36ZM251.53,751.5h67.85c-1.26,13.58-.24,26.38,1.83,42-15.34.7-28.06,1.21-38.69,1.65-10,.4-18,.73-24.42,1.06a184.6,184.6,0,0,1-6.32-37.08C251.63,756.61,251.55,754.05,251.53,751.5Zm136.3,309.3c14.32-.44,29.44-3,43.38-6.54a149.22,149.22,0,0,1,8,44.76,178.15,178.15,0,0,1-44.9,6.62A179.6,179.6,0,0,0,387.83,1060.8Zm363.67-98c0-10.64-.22-22.52-7.16-31.43a40.41,40.41,0,0,0-4.61-4.94,187.22,187.22,0,0,1,22.94,3.11c7.59,1.4,15,3.2,22.35,5.29a45.76,45.76,0,0,1,4.83,5.49c6,8.12,6.43,19.07,6.55,29a186.78,186.78,0,0,0-37-6.26C756.73,962.91,754.11,962.83,751.5,962.81Zm354.15,142.83a177.67,177.67,0,0,1-44.91-6.67,277.13,277.13,0,0,1,4.54-43.8,226,226,0,0,0,46.79,5.67A181.32,181.32,0,0,0,1105.65,1105.64ZM1155.3,965l-2.35,4.1a530.8,530.8,0,0,1-60.34-5.6c6.15-13.56,13-25.23,21.42-38.43,18.73,2.26,39.61,4.14,62,4.93C1168.77,942.07,1161.88,953.52,1155.3,965Zm86.58-168.7c-17.18-.16-35.17-.52-54.37-1.11a207.39,207.39,0,0,0,10.57-35.32c.56-2.79,1-5.57,1.37-8.35h49q0,3.84-.25,7.66A183.74,183.74,0,0,1,1241.88,796.28Z"/></svg>