<svg id="Abstract_Shape" data-name="Abstract Shape" xmlns="http://www.w3.org/2000/svg" viewBox="0 0 1500 1500"><polygon points="250 1000 418.35 750 250 500 250 1000"/><polygon points="427.61 1000 579.59 750 427.61 500 427.61 1000"/><polygon points="588.85 1000 724.47 750 588.85 500 588.85 1000"/><polygon points="733.73 1000 852.98 750 733.73 500 733.73 1000"/><polygon points="862.23 1000 965.11 750 862.23 500 862.23 1000"/><polygon points="974.37 1000 1060.89 750 974.37 500 974.37 1000"/><polygon points="1070.15 1000 1140.29 750 1070.15 500 1070.15 1000"/><polygon points="1149.55 1000 1203.33 750 1149.55 500 1149.55 1000"/><polygon points="1212.59 500 1212.59 1000 1250 750 1212.59 500"/></svg>