<svg id="Abstract_Shape" data-name="Abstract Shape" xmlns="http://www.w3.org/2000/svg" viewBox="0 0 1500 1500"><path d="M248,248V1252H1252V248ZM1248,782.72l-36.88-1.92V719.2l36.88-1.92Zm-37.88-2-38.37-2V721.26l38.37-2Zm-39.37-2-38.37-2V723.32l38.37-2Zm-39.37-2.06-38.38-2V725.37l38.38-2ZM1092,774.57l-38.38-2V727.43l38.38-2Zm-39.38-2.05-38.37-2v-41l38.37-2Zm-39.37-2.06-38.37-2v-36.9l38.37-2ZM252,717.28l36.88,1.92v61.6L252,782.72Zm37.88,2,38.37,2v57.48l-38.37,2Zm39.37,2.06,38.37,2v53.38l-38.37,2Zm39.37,2.06,38.38,2v49.26l-38.38,2Zm39.38,2,38.38,2v45.14l-38.38,2Zm39.38,2.06,38.37,2v41l-38.37,2Zm39.37,2.06,38.37,2v36.9l-38.37,2Zm39.37,2.06,38.38,2v32.78l-38.38,2Zm79.36,239.52-.1-.11V529l.1-.1h289l.1.1V971l-.1.11ZM896.62,676.21l37.88-9.9V699l-37.88,5.94Zm0-1V646.52l37.88-13.87v32.63Zm0-29.72V616.81L934.5,599v32.6Zm0-29.75V587.1l37.88-21.77v32.55Zm0-29.75V557.42l37.88-25.74v32.5Zm0-29.73V529l37.88-29.7v31.17C917.88,541.77,904.71,550.71,896.62,556.22Zm-1.92-29.53a1.7,1.7,0,0,0-.19.19H878.05l32.47-29.38h21.41Zm-18.14.19H858.4l27.47-29.38H909Zm-19.53,0H838.77l22.48-29.38H884.5Zm-19.52,0H819.13l17.48-29.38H860Zm-19.55,0H799.49L812,497.5h23.47Zm-19.55,0H779.9l7.49-29.38h23.5Zm-19.55,0H760.29l2.49-29.38h23.58Zm-19.58,0H740.69l-2.5-29.38h23.59Zm-19.59,0H721.14l-7.5-29.38h23.55Zm-19.59,0H701.57L689.08,497.5h23.53Zm-19.62,0H682L664.53,497.5H688Zm-19.63,0H662.49L640,497.5h23.36Zm-19.62,0H643L615.48,497.5h23.27Zm-19.65,0H623.42L591,497.5h23.16Zm-19.66,0H605.49a1.7,1.7,0,0,0-.19-.19L568.07,497.5h21.39ZM603.38,529v27.22L565.5,530.47V499.3Zm0,28.42V586L565.5,564.18v-32.5Zm0,29.68v28.6L565.5,597.88V565.33Zm0,29.71v28.64L565.5,631.59V599Zm0,29.71v28.65l-37.88-9.89V632.65Zm0,29.69v28.7L565.5,699V666.31Zm0,29.71v28.73l-37.88-2V700Zm0,29.73v28.7l-37.88,2V733.66Zm0,29.7v28.73L565.5,800V767.34Zm0,29.74v28.7l-37.88,9.9V801Zm0,29.74v28.65L565.5,867.35V834.72Zm0,29.72v28.64L565.5,901V868.42Zm0,29.75v28.6L565.5,934.67V902.12Zm0,29.75v28.52L565.5,968.31V935.82Zm0,29.73V971l-37.88,29.7V969.52Zm1.92,29.53a1.7,1.7,0,0,0,.19-.19h16.43l-32.46,29.38H568.07Zm18.12-.19h18.16l-27.47,29.38H591Zm19.53,0h18.28l-22.48,29.38H615.48Zm19.54,0h18.36l-17.48,29.38H640Zm19.52,0h18.47L688,1002.5H664.53Zm19.56,0H720.1l-7.49,29.38H689.08Zm19.57,0h18.55l-2.5,29.38H713.64Zm19.55,0h18.59l2.5,29.38H738.19Zm19.6,0h18.57l7.5,29.38H762.78Zm19.61,0h18.51l12.48,29.38h-23.5Zm19.59,0H818l17.49,29.38H812Zm19.64,0h18.38L860,1002.5H836.61Zm19.64,0H857l27.47,29.38H861.25Zm19.63,0h18.16L909,1002.5H885.87Zm19.65,0h16.46a1.7,1.7,0,0,0,.19.19l37.23,29.19H910.52ZM896.62,971V943.78l37.88,25.75v31.17Zm0-28.42V914.05l37.88,21.78v32.49C917,956.45,903.73,947.4,896.62,942.58Zm0-29.68V884.3l37.88,17.82v32.55Zm0-29.71V854.55l37.88,13.86V901Zm0-29.71V824.83l37.88,9.89v32.63Zm0-29.69v-28.7L934.5,801v32.66Zm0-29.71V765.35l37.88,2V800Zm0-29.73v-28.7l37.88-2v32.68Zm0-29.7V705.92L934.5,700v32.68Zm38.88-34.82,38.38-6V730.6l-38.38,2Zm0-1V666.05l38.38-10V692.8Zm0-33.8V632.29l38.38-14V655Zm0-33.8v-32.7l38.38-18.06v36.72Zm0-33.81V564.76l38.38-22.07v36.67Zm0-33.81V531l38.38-26.08v36.62Zm0-33.81V498.51l38.38-30.09v35.29Zm-2.29-33.29H911.62l33-29.88h26.67Zm-23.08,0H886.8l27.94-29.88h28.41Zm-24.7,0H862l22.86-29.88h28.5Zm-24.68,0H837.21L855,466.62h28.63Zm-24.71,0H812.41l12.7-29.88h28.71Zm-24.72,0H787.64l7.62-29.88H824Zm-24.71,0H762.87l2.54-29.88h28.82Zm-24.74,0H738.11l-2.54-29.88h28.84Zm-24.76,0H713.39l-7.62-29.88h28.8Zm-24.75,0h-23.7L676,466.62h28.78Zm-24.79,0H663.93l-17.77-29.88h28.71Zm-24.8,0H639.25l-22.86-29.88H645Zm-24.78,0H614.54L586.6,466.62h28.53Zm-24.82,0H589.84l-33-29.88h28.41Zm-24.82,0H566.79l-38.1-29.88h26.64Zm-23.85,2v31.28l-38.38-26.08V468.42Zm0,32.49v32.6l-38.38-22.06V504.92Zm0,33.76v32.65l-38.38-18V542.69Zm0,33.76v32.7l-38.38-14V580.46Zm0,33.77V665l-38.38-10V618.24Zm0,33.76v32.77l-38.38-6V656Zm0,33.78v32.78l-38.38-2V693.81Zm0,67.56v32.78l-38.38,6V769.4Zm0,33.79V834l-38.38,10V807.2Zm0,33.8v32.74l-38.38,14V845Zm0,33.8v32.7l-38.38,18.06V882.83Zm0,33.81v32.65l-38.38,22.07V920.64Zm0,33.81V969l-38.38,26.08V958.46Zm0,33.8v31.29l-38.38,30.09v-35.3Zm2.29,33.3h21.56l-33,29.88H528.69Zm23.05,0h23.33l-27.94,29.88H556.82Zm24.7,0H638l-22.86,29.88H586.6Zm24.71,0h23.52L645,1033.38h-28.6Zm24.68,0h23.64l-12.7,29.88H646.15Zm24.73,0h23.7l-7.62,29.88H676Zm24.73,0h23.72l-2.54,29.88h-28.8Zm24.72,0h23.76l2.54,29.88H735.57Zm24.76,0h23.74l7.62,29.88H765.41Zm24.77,0h23.68l12.7,29.88H795.26Zm24.77,0H836l17.78,29.88H825.11Zm24.8,0h23.54l22.86,29.88H855Zm24.8,0h23.42l27.94,29.88h-28.5Zm24.79,0h23.33l33,29.88H914.74Zm24.82,0h21.59l38.1,29.88H944.64Zm23.88-2V970.21l38.38,26.08v35.29Zm0-32.49V936.4l38.38,22.06v36.62Zm0-33.75V902.59l38.38,18v36.67Zm0-33.77v-32.7l38.38,14.05v36.71Zm0-33.76V835l38.38,10v36.75Zm0-33.77V801.18l38.38,6V844Zm0-33.78V767.39l38.38,2v36.79Zm0-33.78V733.61l38.38-2v36.8Zm39.38-35.84v-36.9l38.37-6v40.91Zm0-37.91V655.76l38.37-10v40.89Zm0-37.91V617.87l38.37-14V644.7Zm0-37.92V580l38.37-18v40.82Zm0-37.92V542.12l38.37-22.07v40.78Zm0-37.93V504.24l38.37-26.08V518.9Zm0-37.93V467.64l38.37-30.09V477Zm-2.3-37.41H945.75l33-29.87h31.91Zm-28.32,0H915.68l27.94-29.87h33.66Zm-30,0H885.64l22.86-29.87h33.75Zm-29.93,0h-28.8l17.78-29.87h33.88Zm-30,0H825.53l12.7-29.87h34Zm-30,0H795.52l7.62-29.87h34Zm-30,0h-29L768,435.75h34.08Zm-30,0h-29l-2.54-29.87H767Zm-30,0h-29l-7.62-29.87h34.05Zm-30,0h-29l-12.7-29.87h34Zm-30,0H645.56l-17.78-29.87h34Zm-30,0H615.62l-22.86-29.87h33.86Zm-30,0H585.67l-27.94-29.87H591.5Zm-30.06,0H555.72l-33-29.87h33.66Zm-30.07,0H527.42l-38.1-29.87h31.89Zm-29.11,2V503L486.75,477v-39.4Zm0,36.6V541L486.75,518.9V478.16Zm0,37.88v36.77l-38.37-18.06V520.06Zm0,37.87v36.82l-38.37-14V561.94Zm0,37.88v36.86l-38.37-10V603.83Zm0,37.89v36.88l-38.37-6V645.73Zm0,37.89v36.9l-38.37-2V687.63Zm-39.37,34.84-38.37-2v-45l38.37,6Zm-39.37-2.06-38.38-2V675.28l38.38,6ZM407,724.37l-38.38-2V669.11l38.38,6Zm-39.38-2.06-38.37-2V662.93l38.37,6Zm-39.37-2-38.37-2V656.76l38.37,6Zm-39.37-2.06L252,716.28V650.82l36.88,5.78ZM252,783.72l36.88-1.92v61.6L252,849.18Zm37.88-2,38.37-2v57.47l-38.37,6Zm39.37-2.06,38.37-2v53.36l-38.37,6Zm39.37-2.05,38.38-2v49.24l-38.38,6ZM408,775.58l38.38-2V818.7l-38.38,6Zm39.38-2.06,38.37-2v41l-38.37,6Zm39.37-2.06,38.37-2v36.9l-38.37,6Zm38.37,35.9v36.88l-38.37,10V813.38Zm0,37.91v36.86l-38.37,14V855.3Zm0,37.93V920l-38.37,18V897.24Zm0,37.91v36.77L486.75,980V939.17Zm0,37.93v36.71l-38.37,26.08V981.1Zm0,37.92v35.4l-38.37,30.09V1023Zm2.3,37.42h26.81l-33,29.87H489.32Zm28.3,0H584.3l-27.94,29.87H522.7Zm29.95,0h28.69l-22.86,29.87H557.73Zm30,0H644.4l-17.78,29.87H592.76Zm29.94,0h28.88l-12.7,29.87h-34Zm30,0h29l-7.62,29.87h-34Zm30,0h29l-2.54,29.87H697.89Zm30,0h29l2.54,29.87H732.94Zm30,0h29l7.62,29.87H768Zm30,0h28.93l12.69,29.87h-34Zm30,0h28.89l17.78,29.87h-34Zm30.05,0h28.8l22.86,29.87H873.36Zm30.06,0h28.67l27.94,29.87H908.5Zm30,0h28.58l33,29.87H943.62Zm30.07,0h26.83l38.1,29.87H978.77Zm29.13-2V997l38.37,26.08v39.4Zm0-36.6V959l38.37,22.06v40.74Zm0-37.87V921.11l38.37,18.06V980Zm0-37.88V883.19l38.37,14v40.83Zm0-37.88V845.27l38.37,10v40.87Zm0-37.89V807.36l38.37,6v40.89Zm0-37.89v-36.9l38.37,2v40.91Zm39.37-34.84,38.37,2v45l-38.37-6Zm39.37,2.06,38.38,2v49.14l-38.38-6Zm39.38,2.06,38.38,2v53.26l-38.38-6Zm39.38,2.06,38.37,2v57.38l-38.37-6Zm39.37,2,38.37,2v61.49l-38.37-6Zm39.37,2.06,36.88,1.92v65.46l-36.88-5.78ZM1248,716.28l-36.88,1.92V656.6l36.88-5.78Zm-37.88,2-38.37,2V662.78l38.37-6Zm-39.37,2.06-38.37,2V669l38.37-6Zm-39.37,2.06-38.38,2V675.13l38.38-6ZM1092,724.43l-38.38,2V681.3l38.38-6Zm-39.38,2.05-38.37,2v-41l38.37-6Zm-38.37-40v-41l38.37-10v45Zm0-42v-41l38.37-14v45Zm0-42V561.47l38.37-18.06v45Zm0-42V519.48l38.37-22.07v44.9Zm0-42V477.48l38.37-26.08v44.86Zm0-42.05V436.76l38.37-30.09v43.52ZM1012,434.75H979.87l33-29.87h37.17Zm-33.58,0H944.55l27.94-29.87h38.91Zm-35.2,0H909.26l22.86-29.87h39Zm-35.18,0H874l17.77-29.87h39.13Zm-35.21,0H838.66l12.7-29.87h39.21Zm-35.22,0H803.39L811,404.88h39.26Zm-35.21,0H768.12l2.54-29.87H810Zm-35.24,0H732.86l-2.54-29.87h39.34Zm-35.26,0H697.64L690,404.88h39.3Zm-35.25,0h-34.2l-12.7-29.87H689Zm-35.29,0H627.18l-17.77-29.87h39.21Zm-35.3,0H592l-22.86-29.87h39.1Zm-35.28,0h-34l-27.94-29.87h39Zm-35.32,0H521.59l-33-29.87h38.91Zm-35.32,0H488l-38.1-29.87h37.14Zm-34.35,2v39.51l-38.37-26.08V406.67Zm0,40.72v40.85l-38.37-22.07V451.4Zm0,42v40.88l-38.37-18.05v-44.9Zm0,42V602.4l-38.37-14v-45Zm0,42v41l-38.37-10v-45Zm0,42v41l-38.37-6v-45Zm-39.37,34.82-38.38-6V625.15l38.38,10ZM407,674.12l-38.38-6V614.86l38.38,10Zm-39.38-6.18-38.37-6V604.57l38.37,10Zm-39.37-6.17-38.37-6V594.27l38.37,10Zm-39.37-6.18L252,649.81V584.37L288.88,594ZM252,850.19l36.88-5.78V906L252,915.64Zm37.88-5.94,38.37-6V895.7l-38.37,10Zm39.37-6.17,38.37-6V885.4l-38.37,10Zm39.37-6.18,38.38-6v49.23l-38.38,10ZM408,825.73l38.38-6v45.11l-38.38,10Zm39.38-6.18,38.37-6v41l-38.37,10Zm38.37,36v41l-38.37,14v-45Zm0,42.05v40.92l-38.37,18.06V911.65Zm0,42v40.88l-38.37,22.07v-44.9Zm0,42v40.83l-38.37,26.08v-44.85Zm0,42v39.52l-38.37,30.09V1049.8Zm2.29,41.53H520.1l-33,29.87H449.94Zm33.55,0h33.83l-27.94,29.87H488.57Zm35.2,0h34l-22.86,29.87h-39Zm35.21,0h34l-17.78,29.87h-39.1Zm35.18,0h34.14l-12.7,29.87H609.4Zm35.23,0h34.2L689,1095.12H649.71Zm35.23,0h34.22l-2.54,29.87H690Zm35.22,0h34.26l2.54,29.87H730.32Zm35.26,0h34.24l7.62,29.87H770.66Zm35.27,0h34.18l12.7,29.87H811Zm35.27,0h34.13l17.78,29.87H851.36Zm35.3,0h34l22.86,29.87H891.73Zm35.3,0h33.92l27.94,29.87h-39Zm35.29,0h33.83l33,29.87H972.49Zm35.32,0H1012l38.1,29.87h-37.17Zm34.38-2v-39.51l38.37,26.08v43.52Zm0-40.72V981.68l38.37,22.07v44.85Zm0-42V939.64l38.37,18.05v44.9Zm0-42V897.6l38.37,14v45Zm0-42v-41l38.37,10v45Zm0-42v-41l38.37,6v45Zm39.37-34.82,38.38,6v49.12l-38.38-10Zm39.38,6.17,38.38,6v53.24l-38.38-10Zm39.38,6.18,38.37,6v57.36l-38.37-10Zm39.37,6.17,38.37,6v61.48l-38.37-10Zm39.37,6.18,36.88,5.78v65.45L1211.12,906ZM1248,649.81l-36.88,5.78V594l36.88-9.64Zm-37.88,5.94-38.37,6V604.3l38.37-10Zm-39.37,6.17-38.37,6V614.6l38.37-10Zm-39.37,6.18-38.38,6V624.89l38.38-10ZM1092,674.27l-38.38,6V635.18l38.38-10Zm-38.38-40.12v-45.1L1092,575v49.11Zm0-46.16v-45L1092,524.89V574Zm0-46.15v-45L1092,474.77v49Zm0-46.16v-45L1092,424.64v49Zm0-46.17V405.89L1092,375.8v47.63Zm-2.29-45.63H1014L1047,374h42.41Zm-38.82,0H973.43L1001.37,374h44.16Zm-40.45,0H932.89L955.75,374H1000Zm-40.43,0h-39.3L910.11,374h44.38Zm-40.46,0H851.78L864.48,374H909Zm-40.47,0H811.27L818.89,374h44.5Zm-40.46,0h-39.5L773.28,374h44.58Zm-40.5,0H730.23L727.69,374h44.59Zm-40.51,0H689.76L682.14,374h44.55Zm-40.5,0H649.28L636.58,374h44.53Zm-40.54,0H608.81L591,374h44.46Zm-40.54,0H568.37L545.51,374h44.36Zm-40.54,0H527.92L500,374h44.27Zm-40.56,0H487.47l-33-29.88h44.16Zm-40.57,0H448.67L410.57,374H453Zm-39.6,2v43.62L408,423.43V375.8Zm0,44.83v45L408,473.62v-49Zm0,46.12v45L408,523.78v-49Zm0,46.1v45L408,574V524.89Zm0,46.11v45.1l-38.38-10V575ZM407,623.86l-38.38-10V560.6l38.38,14Zm-39.38-10.3-38.37-10V546.2l38.37,14Zm-39.37-10.29-38.37-10V531.79l38.37,14ZM288.88,593,252,583.33V517.94l36.88,13.49ZM252,916.67,288.88,907v61.54L252,982.06Zm37.88-9.91,38.37-10v57.44l-38.37,14Zm39.37-10.29,38.37-10v53.32l-38.37,14Zm39.37-10.29,38.38-10v49.22l-38.38,14ZM408,875.88l38.38-10V911L408,925ZM446.38,912v45L408,975.11V926.06Zm0,46.14v45L408,1025.23v-49Zm0,46.16v44.95L408,1075.35v-49Zm0,46.16v43.63L408,1124.2v-47.64Zm2.29,45.64H486L453,1126H410.57Zm38.8,0h39.08L498.61,1126H454.45Zm40.45,0h39.19L544.25,1126H500Zm40.45,0h39.28L589.87,1126H545.51Zm40.44,0h39.38L635.49,1126H591Zm40.47,0h39.45L681.11,1126H636.58Zm40.48,0h39.47L726.69,1126H682.14Zm40.47,0h39.51l2.54,29.88H727.69Zm40.51,0h39.5l7.62,29.88H773.28Zm40.53,0H850.7L863.39,1126h-44.5Zm40.51,0h39.39L909,1126H864.48Zm40.55,0h39.3L954.49,1126H910.11Zm40.56,0h39.17L1000,1126H955.75Zm40.54,0h39.08l33,29.88h-44.16Zm40.57,0h37.33l38.1,29.88H1047Zm39.62-2v-43.62l38.38,26.08v47.63Zm0-44.83v-45l38.38,22.07v49Zm0-46.11v-45L1092,976.22v49Zm0-46.11V912l38.38,14v49.06Zm0-46.12V865.85l38.38,10V925Zm39.38-34.8,38.38,10v53.21l-38.38-14Zm39.38,10.3,38.37,10V953.8l-38.37-14Zm39.37,10.29,38.37,10v61.45l-38.37-14Zm39.37,10.3,36.88,9.64v65.39l-36.88-13.49ZM1248,583.33,1211.12,593V531.43L1248,517.94Zm-37.88,9.91-38.37,10V545.83l38.37-14Zm-39.37,10.29-38.37,10V560.24l38.37-14Zm-39.37,10.29-38.38,10v-49.2l38.38-14ZM1093,573.58V524.42l38.38-18.06v53.18Zm0-50.27V474.19l38.38-22.07v53.14Zm0-50.27V424l38.38-26.08V451Zm0-50.29V375l38.38-30.09v51.76ZM1090.71,373h-42.59l33-29.88h47.67Zm-44.08,0H1002.3l27.94-29.88h49.41Zm-45.7,0H956.51l22.86-29.88h49.5Zm-45.68,0H910.71l17.77-29.88h49.63Zm-45.71,0H864.91l12.7-29.88h49.71Zm-45.72,0H819.14l7.62-29.88h49.76Zm-45.71,0H773.37l2.54-29.88h49.82Zm-45.74,0H727.61l-2.54-29.88h49.84Zm-45.76,0H681.89l-7.62-29.88h49.8Zm-45.75,0h-44.7l-12.7-29.88h49.78Zm-45.79,0H590.43l-17.77-29.88h49.71Zm-45.8,0H544.75l-22.86-29.88h49.6Zm-45.78,0H499L471.1,343.12h49.53Zm-45.82,0H453.34l-33-29.88h49.41Zm-45.82,0H409.29l-38.1-29.88h47.64ZM407,375v47.74l-38.38-26.08V344.92ZM407,424V473L368.62,451V397.88Zm0,50.24v49.11l-38.38-18V452.13Zm0,50.22v49.16l-38.38-14V506.36Zm-39.38,34.75-38.37-14V487.84l38.37,18.05Zm-39.37-14.4-38.37-14V469.31l38.37,18.06Zm-39.37-14.41L252,516.87V451.49l36.88,17.35ZM252,983.13l36.88-13.49v61.52L252,1048.51Zm37.88-13.86,38.37-14v57.4l-38.37,18.06Zm39.37-14.4,38.37-14v53.28l-38.37,18Zm39.37-14.41,38.38-14v49.16l-38.38,18.06ZM407,976.69v49.12l-38.38,22.07V994.74Zm0,50.27V1076l-38.38,26.08V1049Zm0,50.28V1125l-38.38,30.09v-51.77Zm2.29,49.76h42.56l-33,29.88H371.19Zm44,0h44.33l-27.94,29.88H420.32Zm45.7,0h44.45l-22.86,29.88H471.1Zm45.71,0h44.52l-17.78,29.88h-49.6Zm45.68,0h44.64l-12.7,29.88H572.65Zm45.73,0h44.7l-7.62,29.88H623.46Zm45.73,0h44.72l-2.54,29.88h-49.8Zm45.72,0h44.76l2.54,29.88H725.07Zm45.76,0h44.74l7.62,29.88H775.91Zm45.77,0h44.68l12.7,29.88H826.76Zm45.77,0h44.63l17.78,29.88H877.61Zm45.8,0h44.54l22.86,29.88H928.48Zm45.8,0h44.42l27.94,29.88h-49.5Zm45.79,0h44.33l33,29.88h-49.41Zm45.82,0h42.59l38.1,29.88h-47.67Zm44.88-2v-47.74l38.38,26.07v51.76Zm0-49V1027l38.38,22.07v53.08Zm0-50.23V976.69l38.38,18v53.14Zm0-50.23V926.42l38.38,14v53.18Zm39.38-34.76,38.37,14v57.3l-38.37-18Zm39.37,14.41,38.37,14v61.42l-38.37-18.06Zm39.37,14.41L1248,983.13v65.38l-36.88-17.35ZM1248,516.87l-36.88,13.49V468.84L1248,451.49Zm-37.88,13.86-38.37,14v-57.4l38.37-18.06Zm-39.37,14.4-38.37,14V505.89l38.37-18.05Zm-38.37-40.34V451.55l38.37-22.07v57.25Zm0-54.39V397.21l38.37-26.08v57.2Zm0-54.4V344.14l38.37-30.09v55.87Zm-2.3-53.88h-47.83l33-29.87h52.91Zm-49.32,0h-49.58l27.94-29.87h54.66Zm-51,0H980.14L1003,312.25h54.75Zm-50.93,0h-49.8l17.78-29.87h54.88Zm-51,0H878l12.7-29.87h55Zm-51,0H827l7.62-29.87h55Zm-51,0H776l2.54-29.87h55.08Zm-51,0H725l-2.54-29.87h55.09Zm-51,0H674l-7.62-29.87h55.05Zm-51,0H623l-12.7-29.87h55Zm-51,0H572.06l-17.78-29.87h55Zm-51,0H521.12l-22.86-29.87h54.86Zm-51,0H470.17l-27.94-29.87H497Zm-51.06,0H419.22l-33-29.87h54.66Zm-51.07,0H369.92l-38.1-29.87h52.89Zm-50.11,2V396l-38.37-26.07V314.05Zm0,53.06v53.2l-38.37-22.07v-57.2Zm0,54.35v53.24l-38.37-18.06V429.48Zm-39.37,34.71-38.37-18.05V406.84l38.37,22.07Zm-39.37-18.52L252,450.39V385.05l36.88,21.21ZM252,1049.61l36.88-17.35v61.48L252,1115Zm37.88-17.82,38.37-18v57.35l-38.37,22.07Zm39.37-18.52,38.37-18.06v53.24l-38.37,22.07Zm38.37,36.33v53.19l-38.37,26.07v-57.19Zm0,54.39v51.87L329.25,1186v-55.88Zm2.3,53.89h47.81l-33,29.87H331.82Zm49.3,0H468.8l-27.94,29.87H386.2Zm50.95,0h49.69L497,1187.75H442.23Zm50.95,0H570.9l-17.78,29.87H498.26Zm50.94,0h49.88l-12.7,29.87h-55Zm51,0h50l-7.62,29.87h-55Zm51,0h50l-2.54,29.87H666.39Zm51,0h50l2.54,29.87H722.44Zm51,0h50l7.62,29.87H778.53Zm51,0H877l12.69,29.87h-55Zm51,0h49.89l17.78,29.87h-55Zm51.05,0h49.8l22.86,29.87H946.86Zm51.06,0h49.67l27.94,29.87H1003Zm51,0h49.58l33,29.87h-54.66Zm51.07,0h47.83l38.1,29.87h-52.91Zm50.13-2V1104l38.37,26.08V1186Zm0-53.07V1049.6l38.37,22.07v57.2Zm0-54.34V995.21l38.37,18.06v57.25Zm39.37-34.71,38.37,18v61.37l-38.37-22.07Zm39.37,18.52,36.88,17.35V1115l-36.88-21.21ZM1248,450.39l-36.88,17.35V406.26L1248,385.05Zm-37.88,17.82-38.37,18.05V428.91l38.37-22.07Zm-38.37-40.46v-57.3l38.37-26.08v61.31Zm0-58.51v-56l38.37-30.09v60Zm-2.29-58h-53.09l33-29.87h58.17Zm-54.58,0h-54.83L1088,281.38h59.91Zm-56.2,0h-54.92l22.86-29.87h60Zm-56.18,0h-55l17.77-29.87h60.13Zm-56.21,0H891.16l12.7-29.87h60.21Zm-56.22,0H834.89l7.62-29.87h60.26Zm-56.21,0H778.62l2.54-29.87h60.32Zm-56.24,0H722.36l-2.54-29.87h60.34Zm-56.26,0H666.14l-7.62-29.87h60.3Zm-56.25,0h-55.2l-12.7-29.87h60.28Zm-56.29,0H553.68l-17.77-29.87h60.21Zm-56.3,0h-55l-22.86-29.87h60.1Zm-56.28,0H441.29l-27.94-29.87h60Zm-56.32,0H385.09l-33-29.87H412Zm-56.32,0H330.54l-38.1-29.87h58.14Zm-55.35,2v56l-38.37-26.08v-60Zm0,57.19v57.3l-38.37-22.07V344.37Zm-39.37,34.66L252,383.9V318.64l36.88,25.05ZM252,1116.1l36.88-21.21v61.41L252,1181.36Zm37.88-21.78,38.37-22.07v57.29l-38.37,26.08Zm38.37,36.43v56l-38.37,30.09v-60Zm2.29,58H383.6l-33,29.87H292.44Zm54.55,0h54.83L412,1218.62H352.07Zm56.2,0h54.95l-22.86,29.87h-60Zm56.21,0h55l-17.78,29.87h-60.1Zm56.18,0h55.14l-12.7,29.87H535.9Zm56.23,0h55.2l-7.62,29.87H597.21Zm56.23,0h55.22l-2.54,29.87h-60.3Zm56.22,0h55.26l2.54,29.87H719.82Zm56.26,0h55.24l7.62,29.87H781.16Zm56.27,0h55.18l12.7,29.87H842.51Zm56.27,0h55.13l17.78,29.87H903.86Zm56.3,0h55l22.86,29.87H965.23Zm56.3,0h54.92l27.94,29.87h-60Zm56.29,0h54.83l33,29.87H1088Zm56.32,0h53.09l38.1,29.87h-58.17Zm55.38-2v-56l38.37,26.08v60Zm0-57.19v-57.3l38.37,22.07v61.31Zm39.37-34.66L1248,1116.1v65.26l-36.88-25Zm36.88-711-36.88,21.21V343.69c15.93-10.81,28.69-19.49,36.88-25.05Zm0-66.47-36.88,25.05V282.39L1248,253.47Zm-39.17-37.05H1150.5L1181.86,252H1245Zm-59.82,0h-60.08L1115.46,252h64.91Zm-61.45,0h-60.17L1049.1,252h65Zm-61.43,0h-60.3L982.72,252h65.12Zm-61.46,0H904.28L916.34,252h65.21Zm-61.47,0H842.77L850,252h65.25Zm-61.46,0h-60.5L783.66,252H849Zm-61.5,0H719.73L717.32,252h65.33Zm-61.51,0H658.26L651,252h65.29Zm-61.5,0H596.78L584.72,252H650Zm-61.54,0H535.31L518.42,252h65.21Zm-61.54,0H473.87L452.16,252h65.1Zm-61.54,0H412.42L385.88,252h65Zm-61.56,0H351L319.61,252h64.9Zm-61.57,0H291.17L255,252h63.14Zm-60.6,2v60.09L252,317.43v-64ZM252,1182.57l36.88-25.06v60.1L252,1246.53Zm39.17,37h58.31L318.12,1248H255Zm59.8,0h60.08L384.51,1248h-64.9Zm61.45,0h60.19L450.9,1248h-65Zm61.45,0h60.28L517.26,1248h-65.1Zm61.44,0h60.38L583.63,1248H518.42Zm61.47,0h60.45L650,1248H584.72Zm61.48,0h60.47L716.32,1248H651Zm61.47,0h60.51l2.41,28.38H717.32Zm61.51,0h60.5L849,1248H783.66Zm61.53,0H903.2L915.26,1248H850Zm61.51,0h60.39L981.55,1248H916.34Zm61.55,0h60.3l21.71,28.38H982.72Zm61.56,0h60.17L1114.1,1248h-65Zm61.54,0H1149l31.36,28.38h-64.91Zm61.57,0h58.33L1245,1248h-63.16Zm60.62-2v-60.09l36.88,25v64Z"/></svg>