<svg id="Abstract_Shape" data-name="Abstract Shape" xmlns="http://www.w3.org/2000/svg" viewBox="0 0 1500 1500"><path d="M1280.41,750,875.82,682.57h-.06L1021.5,478.5,817.44,624.24,750,219.59,682.57,624.18v.06L478.5,478.5,624.24,682.56,219.59,750l404.59,67.43h.06L478.5,1021.5,682.56,875.76,750,1280.41l67.43-404.59v-.06L1021.5,1021.5,875.76,817.44ZM978.5,978.5,792.06,845.34l15.24,30.44L750,1219.59,692.7,875.78l15.24-30.44L521.5,978.5,654.66,792.06,624.22,807.3,280.41,750l343.81-57.3,30.44,15.24L521.5,521.5,707.94,654.66,692.7,624.22,750,280.41l57.3,343.81-15.24,30.44L978.5,521.5,845.34,707.94l30.44-15.24L1219.59,750,875.78,807.3l-30.44-15.24Z"/></svg>