<svg id="Abstract_Shape" data-name="Abstract Shape" xmlns="http://www.w3.org/2000/svg" viewBox="0 0 1500 1500"><path d="M1156.86,902.43A71.43,71.43,0,1,0,1183,1000a71.43,71.43,0,0,0-26.14-97.57Z"/><path d="M971.28,795.28a71.43,71.43,0,1,0,26.15,97.58,70.5,70.5,0,0,0,9.57-35.58A71.66,71.66,0,0,0,971.28,795.28Z"/><path d="M600.14,581a71.43,71.43,0,1,0,35.71,61.86A71.45,71.45,0,0,0,600.14,581Z"/><path d="M414.57,473.86a71.42,71.42,0,1,0,35.72,62A71.44,71.44,0,0,0,414.57,473.86Z"/><path d="M1156.86,597.57a71.44,71.44,0,0,0,35.71-61.86A70.57,70.57,0,0,0,1183,500a71.43,71.43,0,1,0-26.14,97.57Z"/><path d="M899.85,581A71.43,71.43,0,1,0,1007,642.7a70.09,70.09,0,0,0-9.57-35.56A71.46,71.46,0,0,0,899.85,581Z"/><path d="M821.34,746.59c0-.17,0-.33,0-.49-.06-1.07-.14-2.15-.25-3.22,0-.25-.05-.5-.08-.74q-.12-1.07-.27-2.13a70.78,70.78,0,0,0-8.51-25.09c-.12-.21-.23-.43-.35-.63s-.19-.31-.29-.47c-.37-.64-.76-1.27-1.16-1.9-.28-.44-.55-.88-.84-1.31s-.62-.91-.93-1.36-.81-1.16-1.22-1.72c-.19-.26-.39-.51-.58-.76-.55-.73-1.12-1.45-1.7-2.16l-.12-.15A71.06,71.06,0,0,0,787.16,689l-.83-.49-.62-.37c-.18-.11-.37-.2-.55-.3l-.84-.48c-.45-.25-.91-.48-1.37-.72l-.92-.48c-.76-.38-1.53-.75-2.31-1.1l-1-.43c-.75-.33-1.5-.65-2.27-1l-1.08-.43c-.7-.27-1.42-.52-2.13-.77L772,682l-1.94-.59-1.54-.44-1.72-.43c-.6-.15-1.2-.29-1.81-.42l-1.49-.3-2.07-.37-1.32-.19c-.75-.11-1.51-.21-2.27-.29l-1.19-.12-2.39-.18-1.19-.06-1.43-.06h-1l-.63,0-.63,0h-1c-.48,0-1,0-1.43.06l-1.18.06-2.41.18-1.17.12c-.77.08-1.53.18-2.3.29l-1.29.19c-.7.11-1.39.24-2.09.38l-1.48.29c-.61.13-1.21.28-1.82.42l-1.71.43-1.54.44L728,682l-1.28.44c-.72.25-1.44.5-2.16.78l-1,.41c-.78.31-1.55.63-2.31,1l-.9.4q-1.2.56-2.37,1.14l-.85.44c-.47.24-.94.48-1.4.73l-.92.53-.48.26-.44.27-1,.58-1.26.8-.84.55c-.73.47-1.44,1-2.14,1.46-.28.19-.55.39-.82.59-.67.49-1.33,1-2,1.51l-.88.7c-.6.48-1.18,1-1.76,1.48l-1,.88c-.51.46-1,.93-1.51,1.4l-1.13,1.1c-.42.42-.83.85-1.25,1.29s-.84.89-1.25,1.34l-1,1.16c-.45.53-.9,1.06-1.34,1.6-.28.34-.56.69-.83,1-.47.6-.94,1.21-1.39,1.83-.23.32-.47.64-.7,1s-.64.9-1,1.36l-.19.29-.22.33-.63,1c-.25.38-.5.76-.73,1.15l-.62,1.05-.26.43-.27.5-.22.38c-.09.16-.19.32-.27.48-.27.48-.52,1-.77,1.45l-.42.82c-.4.79-.78,1.59-1.15,2.4l-.4.87c-.34.77-.66,1.55-1,2.34l-.4,1c-.28.72-.54,1.45-.79,2.19l-.42,1.24c-.21.65-.41,1.32-.61,2-.14.5-.29,1-.42,1.5s-.3,1.17-.44,1.76-.29,1.18-.41,1.77-.21,1-.31,1.53c-.13.68-.25,1.35-.36,2-.07.45-.14.91-.2,1.36-.11.74-.21,1.48-.29,2.22l-.12,1.26q-.1,1.15-.18,2.31l-.06,1.28c0,.46,0,.92-.06,1.38v.95c0,.23,0,.46,0,.69s0,.46,0,.69v.94c0,.46,0,.92.06,1.38l.06,1.3c0,.76.11,1.52.18,2.27,0,.44.08.87.13,1.31.08.72.17,1.44.27,2.17l.21,1.4c.11.67.23,1.32.36,2s.2,1.06.31,1.58.26,1.16.4,1.74.29,1.19.45,1.78.28,1,.42,1.49c.2.66.4,1.33.61,2,.14.42.28.84.43,1.26.24.72.5,1.44.77,2.15.14.36.29.72.43,1.09.3.75.62,1.5.94,2.25l.45,1c.35.76.71,1.51,1.08,2.26l.51,1c.24.47.48.94.73,1.4h0c.13.24.28.47.41.71l.33.61c.11.18.22.35.32.53l.57,1,.63,1c.26.42.53.84.8,1.25.12.17.23.35.35.53.27.41.56.81.84,1.21l.86,1.2c.4.54.82,1.08,1.24,1.62l1,1.22c.4.49.81,1,1.23,1.45s.74.86,1.12,1.28.78.84,1.17,1.25.87.91,1.31,1.35l1.1,1.07c.5.48,1,1,1.51,1.41l1,.91c.55.48,1.11,1,1.69,1.42.32.27.66.53,1,.79.61.48,1.22,1,1.84,1.4.33.25.67.49,1,.72s.88.64,1.33.94l.31.2.26.17,1.12.72,1.07.68,1,.56c.18.11.34.22.52.32l.6.33.46.26.29.17,1.37.72,1,.51c.74.37,1.48.73,2.23,1.07l1,.47,2.2.92,1.14.45c.69.26,1.39.51,2.08.75L728,818c.64.21,1.28.4,1.92.59l1.55.44,1.73.43c.59.14,1.18.29,1.78.41l1.55.31c.66.13,1.33.25,2,.36l1.4.21,2.16.27,1.34.14c.74.06,1.48.12,2.22.16l1.37.07c.45,0,.89,0,1.34.06h.88l.75,0,.75,0h.88l1.33-.06,1.39-.07c.73,0,1.47-.1,2.2-.16l1.36-.14,2.13-.27,1.43-.21,2-.36,1.57-.31c.59-.13,1.18-.26,1.76-.41l1.74-.43,1.55-.44c.64-.19,1.28-.38,1.91-.59.45-.14.9-.3,1.34-.45.7-.24,1.38-.49,2.06-.75l1.18-.46c.73-.29,1.44-.59,2.16-.91l1.08-.48c.72-.34,1.44-.68,2.15-1l1.08-.55,1.35-.71a.1.1,0,0,0,0,0l.62-.35.66-.36.89-.53.6-.36.29-.17c.92-.57,1.82-1.15,2.71-1.76l.24-.16q1.24-.86,2.46-1.77l.32-.24q2.67-2,5.1-4.25l.26-.24q2.45-2.28,4.65-4.75l.33-.36c.73-.84,1.45-1.68,2.14-2.54a.1.1,0,0,1,0-.05c.64-.81,1.26-1.63,1.87-2.46l.5-.69c.31-.43.61-.88.91-1.32l.39-.57.37-.56c.2-.31.4-.62.59-.94.1-.15.2-.3.29-.45.29-.47.58-.94.85-1.41.12-.19.24-.37.35-.57l.42-.76a71.13,71.13,0,0,0,8.45-25c.09-.66.17-1.32.25-2,0-.29.07-.57.1-.86.1-1.06.18-2.11.24-3.17,0-.17,0-.35,0-.53,0-1.09.09-2.17.09-3.25v-.29C821.43,748.76,821.39,747.67,821.34,746.59Z"/><path d="M528.71,795.28a71.43,71.43,0,1,0,97.57,26.15A71.47,71.47,0,0,0,528.71,795.28Z"/><path d="M343.14,902.43a71.43,71.43,0,1,0,97.58,26.14A71.46,71.46,0,0,0,343.14,902.43Z"/><circle cx="750" cy="321.43" r="71.43"/><circle cx="750" cy="535.71" r="71.43"/><circle cx="750" cy="964.29" r="71.43"/><circle cx="750" cy="1178.57" r="71.43"/></svg>