<svg id="Abstract_Shape" data-name="Abstract Shape" xmlns="http://www.w3.org/2000/svg" viewBox="0 0 1500 1500"><path d="M430.87,634l.05.07,0-.06Z"/><path d="M430.77,633.85h0Z"/><path d="M430.83,634l0,0Z"/><path d="M1163.46,720c.38.15.77.29,1.15.47C1164.23,720.31,1163.85,720.15,1163.46,720Z"/><path d="M1081.8,744.2l2.7-1.22,2.66-1.3,5.3-2.63,10.61-5.25,21-11c7-3.69,13.87-7.49,20.88-11.07l10.5-5.42,10.68-5a114.59,114.59,0,0,1,22.11-8.09,39.93,39.93,0,0,1,11.67-1.15,18.53,18.53,0,0,1,10.84,4.12,18.66,18.66,0,0,0-10.82-4.35,40.32,40.32,0,0,0-11.79.94,114,114,0,0,0-22.33,7.8L1155,705.49l-10.59,5.27c-7.08,3.49-14,7.18-21.06,10.77l-21,10.76-10.63,5.15-5.31,2.57-2.66,1.28-2.7,1.19-10.71,4.69-.11,0a53.49,53.49,0,0,0-7.31,3,33.49,33.49,0,0,0-10.57,1.49,52.43,52.43,0,0,0-7.38,2.87,37.1,37.1,0,0,0-11.14,1.28,59,59,0,0,0-8,2.75,45.11,45.11,0,0,0-11.19.59,65,65,0,0,0-11.15,3,68.24,68.24,0,0,0-22.75,3.36l-.33.11a83.88,83.88,0,0,0-19.5,2.4c-1,.25-2.1.52-3.15.8-1.3,0-2.6,0-3.9.1-3.08-.43-6.15-1-9.2-1.61-15.29-3.19-29.85-9.28-43.74-16.52a369,369,0,0,1-40-24.74q-9.66-6.74-19.07-13.87L823.2,697.7c-6.25-4.78-12.22-9.92-18.29-14.93l-9.08-7.55-4.53-3.79-4.48-3.85-17.91-15.42-17.82-15.53c-11.85-10.39-23.82-20.66-35.77-30.94-12.12-10.1-24.05-20.41-36.5-30.11-6.19-4.89-12.28-9.91-18.62-14.61s-12.68-9.39-19.19-13.86a324.18,324.18,0,0,0-40.64-24.23,170.07,170.07,0,0,0-21.89-9,104.61,104.61,0,0,0-23.1-4.9,104.61,104.61,0,0,1,23,5.32A171.88,171.88,0,0,1,600,523.59a325.05,325.05,0,0,1,40.17,24.72q9.65,6.81,19,14c6.28,4.75,12.31,9.81,18.45,14.74,12.34,9.78,24.17,20.19,36.18,30.38l35.56,31.15c8.13,7.12,53.76,47.3,72,61.35L840,714.6q9.42,7.17,19.13,14a370.41,370.41,0,0,0,40.42,24.84c14,7.23,28.71,13.36,44.24,16.59-1.1.16-2.19.33-3.28.52-1.95.34-3.89.73-5.83,1.14a148.53,148.53,0,0,0-27.5,2.34c-3,0-6.08-.07-9.11,0a210.4,210.4,0,0,0-23.78,2.09l-.26,0q-9.35,0-18.69.55C850.11,772.93,845,769,840,764.9c-43-35-73.18-65.53-110.27-102-6-5.83-11.91-11.72-18-17.5l-18.06-17.39-18.11-17.33-9.06-8.66-9.21-8.52L648.09,585c-3.08-2.83-6.11-5.72-9.31-8.41l-19-16.38q-9.6-8.09-19.65-15.61c-6.7-5-13.55-9.83-20.67-14.25a175.15,175.15,0,0,0-22.17-11.73c-7.68-3.29-15.73-5.93-24.06-6.81,8.31,1,16.28,3.81,23.87,7.22a175.22,175.22,0,0,1,21.94,12c7,4.49,13.8,9.39,20.41,14.47s13.07,10.38,19.39,15.83l18.82,16.53c3.17,2.7,6.17,5.61,9.22,8.46l9.13,8.58,9.12,8.57,9,8.73,18,17.48c70,68.41,97.19,97.62,146,137.54q6.23,5,12.66,9.76-6.13.42-12.25,1H831.9c-7.8.17-15.6.39-23.39.77q-9.76-.3-19.52-.46-4.86-4.68-9.61-9.45c-12.53-12.5-24.29-25.78-36.29-38.82s-23.55-26.51-35.54-39.59l-17.93-19.69-18-19.53c-12.06-13-23.91-26.2-36-39.18l-18.15-19.46-18.68-19-4.68-4.73-4.8-4.61q-4.85-4.57-9.79-9c-6.61-5.93-13.4-11.67-20.48-17a171.63,171.63,0,0,0-22.28-14.57c-7.83-4.13-16.21-7.55-25-8.66,8.81,1.26,17.09,4.81,24.82,9.06a170.48,170.48,0,0,1,22,14.8c7,5.44,13.69,11.25,20.2,17.24q4.89,4.5,9.65,9.14l4.74,4.66,4.61,4.78,18.48,19.1,18,19.59c12,13.06,23.73,26.35,35.7,39.45l17.91,19.69,17.83,19.71c11.94,13.1,23.54,26.53,35.45,39.69s23.72,26.41,36.28,39c2.45,2.49,4.94,4.94,7.44,7.38q-7.69-.1-15.4-.13-10.67-.67-21.35-1.26c-5.22-.27-10.45-.47-15.69-.57l-12.29-14.89c-3-3.62-6-7.21-8.93-10.86l-8.82-10.94c-5.9-7.29-11.73-14.61-17.69-21.86L666.77,696l-17.94-21.65-9-10.81L631,652.62l-17.7-21.86L595.51,609c-1.48-1.81-2.94-3.64-4.45-5.44l-4.56-5.36-9.13-10.72c-3.06-3.55-6.06-7.16-9.17-10.67s-6.31-7-9.53-10.36c-6.45-6.82-13.08-13.48-20-19.79a178.44,178.44,0,0,0-22.1-17.43,88,88,0,0,0-12.36-6.74,52.25,52.25,0,0,0-13.45-4,52.07,52.07,0,0,1,13.36,4.21,87.82,87.82,0,0,1,12.2,6.92,177.54,177.54,0,0,1,21.81,17.63c6.86,6.38,13.4,13.09,19.75,20q4.75,5.16,9.38,10.45c3.07,3.54,6,7.18,9,10.77l9,10.77,4.51,5.39c1.5,1.8,3,3.65,4.42,5.47L611.82,632l17.54,22,8.78,11,8.91,10.89,35.56,43.58c5.92,7.25,11.75,14.61,17.64,21.92l8.8,11c2.94,3.66,5.94,7.26,8.91,10.89l10.76,13.09h-.26l-19.57,0c-6.52,0-13,0-19.57.06h-.51l-2.24-.08c-8.41-11-16.74-22.13-25.12-33.18-12-15.64-24-31.19-35.88-46.86-24-31.15-46.31-63.56-70.12-94.92l-8.9-11.77c-3-3.91-6.07-7.74-9.16-11.57-6.21-7.65-12.58-15.16-19.29-22.37a192.2,192.2,0,0,0-21.52-20.21,88.32,88.32,0,0,0-12.3-8.16,45.16,45.16,0,0,0-13.83-5,44.84,44.84,0,0,1,13.72,5.19,87.93,87.93,0,0,1,12.13,8.31,192.78,192.78,0,0,1,21.21,20.4c6.62,7.27,12.89,14.83,19,22.53,3,3.86,6.08,7.72,9,11.66l8.77,11.86c38.63,51.71,28,41.31,105.09,142.46,7.92,10.49,15.78,21,23.73,31.49-4.13-.15-8.26-.3-12.4-.52l-18.63-.93c-2.59-.13-5.19-.23-7.78-.33l-6.08-8.55c-21.4-30-15.51-21.73-26.78-37.45L594,703.08c-9.18-13.37,1.63,2.9-25.6-38.24l-16.93-25.6L543,626.44c-2.86-4.24-5.73-8.48-8.65-12.68s-5.89-8.38-8.9-12.52-6.13-8.2-9.2-12.3L507,576.69l-4.64-6.12q-2.37-3-4.8-6c-3.23-4-6.55-7.87-10-11.65s-7.07-7.41-10.82-10.9a97.83,97.83,0,0,0-11.94-9.65,38.81,38.81,0,0,0-13.92-6.25,38.86,38.86,0,0,1,13.82,6.4,99.15,99.15,0,0,1,11.79,9.76q5.55,5.3,10.67,11c3.4,3.8,6.66,7.74,9.85,11.74,1.59,2,3.16,4,4.72,6l4.55,6.17,9.1,12.35c3,4.12,6.09,8.21,9,12.38s5.85,8.38,8.72,12.61,5.73,8.47,8.55,12.73L550,640.17l16.77,25.7,16.76,25.71c2.09,3.28,2.5,3.83,17.26,25.41,10.65,15.57,6.65,9.82,17.53,25.21l17.75,25,4.9,6.92-7.58-.29-9.34-.33q-4.67-.09-9.35-.11h-2.52l-4.56-.37c-28.17-42.42-31.43-47.18-43.85-67.32l-16.44-27.08-16.48-27.08c-5.52-9-10.93-18.09-16.68-27s-11.6-17.69-17.8-26.25l-9.2-12.92c-3.08-4.29-6.08-8.63-9.28-12.85a279.16,279.16,0,0,0-20.18-24.45A97.19,97.19,0,0,0,446,537.44c-4.22-3.15-8.88-5.92-14.07-7.07,5.18,1.21,9.79,4,14,7.22a96.65,96.65,0,0,1,11.56,10.78A275,275,0,0,1,477.33,573c3.15,4.24,6.1,8.62,9.13,12.94l9,13c6.1,8.63,11.86,17.47,17.47,26.41s11,18,16.47,27.06l16.3,27.18L562,706.82c8.59,14.14,15.75,25.67,42.37,66l-6.41-.53L580.16,771c-1.27-.11-2.54-.18-3.8-.25l-7.23-11.66c-1.42-2.3-2.87-4.58-4.25-6.89l-4.16-6.94-16.61-27.78c-5.48-9.29-10.84-18.67-16.27-28l-16.29-28c-5.47-9.31-10.83-18.68-16.4-27.94s-11.26-18.45-17.33-27.39-12.07-17.92-18.2-26.81a263.24,263.24,0,0,0-20.09-25.42,111.59,111.59,0,0,0-11.64-11.27c-4.18-3.38-8.81-6.44-14.08-7.78,5.25,1.4,9.83,4.51,14,7.92a111.11,111.11,0,0,1,11.48,11.38A259.17,259.17,0,0,1,459,579.75c6,9,11.92,18,17.88,27s11.52,18.24,17,27.54,10.8,18.69,16.21,28l16.11,28.09c5.37,9.37,10.66,18.77,16.09,28.11l16.46,27.93,4.12,7c1.37,2.32,2.81,4.61,4.21,6.92l6.24,10.21-2-.12c-2.94-.2-5.89-.45-8.83-.74s-5.88-.61-8.83-1l-2-.25-.74-1.25-4.18-7-4.07-7.07c-36.27-62.41-72-128-100.35-168.32a279.45,279.45,0,0,0-20.11-25.75,111.47,111.47,0,0,0-11.7-11.4c-4.21-3.42-8.83-6.56-14.08-8.08,5.24,1.58,9.8,4.76,14,8.22A112,112,0,0,1,422,559.31a279.81,279.81,0,0,1,19.78,25.93c26.27,38.27,65.1,109.92,99,169l4,7.1,3.93,6.7-3.86-.5c-4.73-.62-9.48-1.22-14.2-1.86l-1.17-1.94-4.11-7c-38.17-64.38-72.4-127-100.45-166.59-6.27-8.82-12.75-17.49-19.85-25.66a119.3,119.3,0,0,0-11.42-11.51,59.07,59.07,0,0,0-6.46-4.91,30.78,30.78,0,0,0-7.25-3.58c5.14,1.76,9.54,5.1,13.59,8.63a118.72,118.72,0,0,1,11.26,11.61c7,8.23,13.37,17,19.53,25.83s12,18,17.72,27.13,11.06,18.57,16.59,27.84l4.14,7,4,7,8.1,14q8.1,14,16.13,28.12l16.1,28.14L523.34,758l4.07,7,.2.34-.44-.05c-5.75-.83-11.48-1.82-17.22-2.85-.82-1.34-1.65-2.67-2.45-4L491,731.21c-5.5-9.08-10.89-18.22-16.34-27.33l-16.34-27.33c-9.79-16.35-7.12-11.88-12.28-20.49s-2.51-4.06-12.59-20.3c-5.73-9.23-6.72-10.88-8.48-13.48-5.88-8.85-11.67-17.75-17.61-26.54S395,578.45,388.12,570.32a137.45,137.45,0,0,0-10.89-11.62,61.83,61.83,0,0,0-6.11-5.1,29.7,29.7,0,0,0-6.94-3.86,29.53,29.53,0,0,1,6.88,3.93,64.62,64.62,0,0,1,6.05,5.16,135.5,135.5,0,0,1,10.73,11.73c6.74,8.19,12.91,16.83,18.89,25.59C412.56,605,418.25,614,424,622.87c1.46,2.21,2.83,4.48,4.2,6.76,1.59,2.64,2.28,3.77,2.55,4.21h0l0,0v0l0,.06h0l.05.08,0,0,0,.07,0,0,0,0,0,.06,9.66,16c5.07,8.35,3.2,5.24,8.17,13.65C459,681,453.64,672,473,704.85c5.39,9.14,10.72,18.31,16.16,27.43l16.36,27.33,1.38,2.29-14.83-2.62L490,758.9c-.11-.18-.23-.35-.34-.54-28.52-44.67-57.54-93.77-82.09-131.54-5.69-8.63-11.32-17.31-17.07-25.9S378.58,584,372,576c-3.29-4-6.68-7.91-10.33-11.57a70.92,70.92,0,0,0-5.75-5.21,28.42,28.42,0,0,0-6.57-4.08,28.44,28.44,0,0,1,6.51,4.15,70.72,70.72,0,0,1,5.68,5.27c3.6,3.7,6.94,7.65,10.18,11.67,6.49,8,12.42,16.51,18.16,25.09s11.16,17.4,16.75,26.09c12.31,19.43,36.74,59.85,48.56,79.34,5.39,8.82,10.69,17.7,16.14,26.49l15.6,25.11c-4.11-.74-8.2-1.51-12.31-2.26l-3.58-.66c-21.54-32.91-42.19-66.42-63.16-99.73-5.4-8.44-10.74-16.91-16.19-25.31l-16.68-25c-5.72-8.23-11.57-16.37-17.87-24.17-3.16-3.89-6.42-7.7-9.94-11.27a72,72,0,0,0-5.53-5.09,30.93,30.93,0,0,0-6.26-4.12,31,31,0,0,1,6.2,4.19,71.8,71.8,0,0,1,5.46,5.15c3.47,3.61,6.68,7.45,9.79,11.37,6.19,7.86,11.94,16.06,17.54,24.35L390.75,631c5.34,8.46,10.58,17,15.87,25.49,20.33,32.85,40.4,65.87,61.32,98.38l-2.05-.47-8.66-2-4.28-1c-20.78-30.75-40.67-62.13-60.63-93.46l-15.7-24.28-16.3-23.89-8.57-11.66-4.29-5.82-2.15-2.91-2.24-2.83c-3-3.76-6.16-7.43-9.53-10.89-1.68-1.72-3.42-3.4-5.26-5a35.65,35.65,0,0,0-5.89-4.17,35.19,35.19,0,0,1,5.82,4.26c1.81,1.58,3.52,3.28,5.17,5,3.3,3.5,6.38,7.21,9.34,11l2.2,2.86,2.11,2.93,4.22,5.86,8.42,11.74,16,24,15.4,24.46c19.29,30.8,38.55,61.62,58.66,91.93l-1.17-.26L440,748.15l-3.89-1c-20.39-28.44-39.78-57.59-59.09-86.81l-15.4-23L345.9,614.59c-2.67-3.76-5.43-7.45-8.14-11.18l-4.08-5.58-2-2.79-2.12-2.73c-2.86-3.62-5.79-7.18-8.9-10.59-1.56-1.7-3.17-3.36-4.85-4.93a37.7,37.7,0,0,0-5.42-4.27,36.57,36.57,0,0,1,5.34,4.36c1.66,1.59,3.23,3.27,4.76,5,3.05,3.45,5.92,7.06,8.71,10.71l2.08,2.76,2,2.81,4,5.63c2.66,3.76,5.37,7.47,8,11.26l15.39,23,15.12,23.14c18.58,28.61,37.28,57.17,56.92,85.11-3.3-.88-6.6-1.77-9.89-2.72l-2-.55-4.32-5.58c-2.68-3.48-5.23-7-7.85-10.56l-7.82-10.59L396.93,711c-1.3-1.77-2.55-3.57-3.83-5.36l-15.26-21.45-15.08-21.59L332.54,619.4c-2.5-3.6-5.16-7.11-7.73-10.67l-3.89-5.32c-1.3-1.77-2.57-3.56-3.95-5.27-2.71-3.46-5.44-6.89-8.31-10.22a61.42,61.42,0,0,0-9.35-9.24,62.17,62.17,0,0,1,9.18,9.38c2.8,3.38,5.48,6.86,8.13,10.35,1.34,1.74,2.6,3.54,3.87,5.33l3.81,5.36c2.53,3.59,5.13,7.11,7.59,10.76l29.67,43.52C379.62,689.91,398,716.29,417.3,742l-9.56-2.71c-19.91-24.31-38.64-49.57-57.15-75l-29.53-40.54c-2.45-3.39-5-6.72-7.5-10s-5-6.69-7.6-10c-5.4-6.37-10.31-13.23-16.67-18.71,6.26,5.59,11,12.53,16.32,19,2.52,3.33,5,6.72,7.45,10.08s4.95,6.73,7.36,10.15l29,40.92C367.07,689.86,385,714.44,404,738.2l-8.1-2.32C376.51,713.2,358,689.7,339.82,666c-9.8-12.52-19.11-25.39-28.92-37.93s-19.39-25.26-30.56-36.61l4,4.41c1.33,1.47,2.7,2.91,3.92,4.48l7.51,9.26c4.84,6.3,9.76,12.55,14.48,18.94,9.61,12.65,18.76,25.68,28.38,38.34l7.17,9.54,7.27,9.45,7.27,9.46,7.37,9.38c7.87,10.17,16.07,20.1,24.31,30-1.15-.35-2.31-.7-3.46-1.07l-3.53-1.09q-13.73-14.19-26.37-29.41Q344,685.91,329.54,668.5l-7.21-8.73-3.61-4.36L315.18,651l-14.12-17.71c-4.66-5.94-9.41-11.81-14.17-17.68l-14.41-17.47c9.39,11.83,18.8,23.64,28,35.64l13.86,17.92,3.48,4.48,3.54,4.42,7.09,8.83c9.52,11.73,19.17,23.36,28.83,35,7.52,9.17,15.31,18.15,23.42,26.84q-2.43-.76-4.83-1.56a357.36,357.36,0,0,1-26.66-26.28l-28.81-32-14.3-16.1-7-8.15-3.51-4.07-3.41-4.17-6.8-8.34-6.72-8.41c-2.25-2.79-4.39-5.67-6.59-8.5-1.12-1.41-2.14-2.88-3.17-4.35l-3.1-4.4,3,4.46c1,1.49,2,3,3.08,4.42,2.14,2.88,4.22,5.81,6.41,8.65l6.59,8.52,6.67,8.45,3.35,4.22,3.45,4.14,6.91,8.27,14.05,16.31,28.5,32.3c7.19,8.09,14.82,15.77,22.73,23.15l-3.31-1.15a266.74,266.74,0,0,1-26.26-22.4c-4.91-4.73-9.53-9.74-14.22-14.72l-14.05-14.95c-9.4-9.93-18.7-20-27.8-30.14l-6.71-7.76c-1.13-1.27-2.19-2.62-3.26-3.95l-3.21-4-1.61-2c-.53-.67-1-1.38-1.51-2.07l-3-4.16c-.5-.7-1-1.38-1.49-2.09s-.93-1.43-1.38-2.16c-.9-1.45-1.75-2.93-2.53-4.45.75,1.54,1.57,3,2.44,4.51.43.74.87,1.47,1.33,2.19s1,1.42,1.44,2.13l2.91,4.23c.49.7,1,1.42,1.47,2.1l1.56,2,3.15,4.06c1.05,1.35,2.09,2.71,3.2,4l6.59,7.87q13.42,15.54,27.33,30.62l13.88,15.1c4.64,5,9.24,10.11,14.14,14.93q8.89,8.82,18.61,16.8l-.36-.22c-2.75-1.73-5.48-3.49-8.17-5.31q-8.08-5.45-15.68-11.55t-14.54-12.94l-13.85-13.8-6.92-6.92-3.45-3.46-3.39-3.52c-2.25-2.35-4.53-4.67-6.76-7l-6.51-7.28c-2.2-2.4-4.29-4.91-6.42-7.37s-4.27-4.93-6.26-7.5-3.77-5.3-5.57-8a39.13,39.13,0,0,1-4.57-8.62,39.4,39.4,0,0,0,4.37,8.73c1.75,2.76,3.41,5.58,5.41,8.17s4,5.12,6.14,7.63,4.14,5,6.3,7.49l6.4,7.41c2.2,2.41,4.44,4.78,6.66,7.18l3.33,3.59,3.4,3.52,6.79,7,13.72,14c4.62,4.64,9.48,9,14.53,13.21,3.14,2.6,6.37,5.09,9.65,7.5l-6.31-3.5c-1.35-.76-2.72-1.49-4.06-2.27s-2.65-1.6-4-2.42A158.43,158.43,0,0,1,313,695.38c-2.42-1.93-4.73-4-7-6L299,683.09c-2.32-2.06-4.62-4.15-6.92-6.24s-4.64-4.14-6.87-6.29c-4.43-4.35-9-8.56-13.06-13.26-2.06-2.31-4-4.79-5.89-7.21l-2.9-3.65q-1.39-1.86-2.73-3.77c-3.54-5.07-6.6-10.6-8.06-16.67,1.31,6.11,4.25,11.75,7.69,16.92.86,1.3,1.76,2.58,2.67,3.84l2.84,3.71c1.9,2.47,3.74,5,5.78,7.34,4,4.81,8.51,9.11,12.88,13.56,2.21,2.2,4.51,4.28,6.77,6.43s4.53,4.27,6.82,6.38l6.86,6.31c2.28,2.12,4.62,4.22,7,6.2a157.15,157.15,0,0,0,15.19,11c1.31.85,2.64,1.68,4,2.49s2.71,1.55,4.06,2.33l6.54,3.73-2.92-1.32c-5.43-2.44-10.85-4.82-16-7.59-2.6-1.37-5.15-2.9-7.73-4.36s-5.17-2.91-7.69-4.45-5-3.19-7.33-4.94-4.66-3.64-7-5.44c-4.68-3.67-9.44-7.23-13.82-11.19l-6.49-6.07a80.61,80.61,0,0,1-6.19-6.35A89.82,89.82,0,0,1,256.33,650a45.27,45.27,0,0,1-5.68-16.72,45.57,45.57,0,0,0,5.28,16.94A89.88,89.88,0,0,0,265.86,665a78.64,78.64,0,0,0,6.12,6.52l6.4,6.22c4.36,4.09,9.06,7.75,13.66,11.5,2.32,1.85,4.6,3.74,7,5.57s4.87,3.49,7.39,5.1,5.12,3,7.67,4.56,5.11,3,7.74,4.48c5.26,2.87,10.69,5.33,16.07,7.83l8.07,3.74q4.05,1.92,8.17,3.68c2.7,1.13,5.4,2.25,8.14,3.25l2.8,1.63,5.36,3.14q-11.28-3.74-22.4-7.93l-7.89-3.11-3.95-1.56c-1.31-.54-2.6-1.13-3.9-1.69l-7.77-3.41c-1.3-.55-2.58-1.16-3.84-1.8l-3.81-1.86A224.39,224.39,0,0,1,287.49,694l-6.91-4.92q-3.36-2.57-6.56-5.36a95.18,95.18,0,0,1-11.75-12.17,61.3,61.3,0,0,1-8.73-14.45,44.08,44.08,0,0,1-3.54-16.5,44.17,44.17,0,0,0,3.13,16.67,61.44,61.44,0,0,0,8.52,14.77,95.63,95.63,0,0,0,11.62,12.52c2.11,1.92,4.29,3.76,6.51,5.54l6.87,5.09A222.58,222.58,0,0,0,316,712.58l3.81,1.92c1.26.65,2.54,1.29,3.84,1.85l7.78,3.52c1.3.59,2.59,1.19,3.89,1.75l3.95,1.62,7.9,3.22c10.32,4.1,20.79,7.77,31.36,11.13q6,4,12.15,7.76c5.52,4.38,11.19,8.56,17,12.6q6.34,5.77,12.95,11.28t13.3,10.65l.92.93,4.33,4.13Q443.52,789,448,793c6,5.3,12.08,10.43,18.41,15.31h0c3.75,3.65,7.54,7.24,11.41,10.77,6.32,5.75,12.81,11.34,19.51,16.67,9.43,9.34,19.17,18.38,29.44,26.83,5.75,5.82,11.64,11.51,17.71,17s12.27,10.68,18.71,15.67c6,5.86,12.23,11.55,18.66,17a242.06,242.06,0,0,0,22.87,17.36c5.6,5,11.39,9.82,17.4,14.36a175.16,175.16,0,0,0,22.35,14.41,194.5,194.5,0,0,0,21,14.45,117.52,117.52,0,0,0,16.2,8l2.07,1.31c9.11,5.62,18.88,10.39,29.36,13.13A81.34,81.34,0,0,0,722,997a98.34,98.34,0,0,0,9.66,3.34,90.29,90.29,0,0,0,32.62,2.94c2-.16,3.88-.41,5.81-.69a96,96,0,0,0,12.11,0,116.1,116.1,0,0,0,32.18-7,172.16,172.16,0,0,0,29.58-14.34c1.54-.93,3.06-1.88,4.58-2.84,4-2,7.84-4.05,11.65-6.24A241.77,241.77,0,0,0,887.21,954c8.59-6.63,16.8-13.71,24.79-21,1.09-1,2.16-2,3.24-3,4.26-3.35,8.45-6.8,12.58-10.31,8-6.89,15.88-14,23.42-21.44q10.89-10.38,21.49-21l5.67-5.06,5.73-5.12L987,864.5l2.81-2.61,11.21-10.5,5.6-5.24,2.8-2.63,2.74-2.69,10.94-10.78,4.05-4,.58-.51c7.34-6.57,14.59-13.23,21.88-19.85l21.29-20.45,9.38-9.15,5.12-4.51,21-18.73,10.66-9.15c2.39-2,4.75-4.11,7.16-6.12,2.2-1.65,4.42-3.27,6.63-4.9l2.53-1.86a15,15,0,0,1,2.45.65,16.34,16.34,0,0,0-2.42-.68c2.38-1.75,4.76-3.51,7.17-5.23a25,25,0,0,1,2.57-.43,15.48,15.48,0,0,1,7.53.94,15.51,15.51,0,0,0-7.54-1,22.18,22.18,0,0,0-2.31.35l.75-.55c1.31-.9,2.63-1.8,4-2.68a44,44,0,0,1,4.71-1.82,26.1,26.1,0,0,1,7.22-1.29,16.42,16.42,0,0,1,6,1,16.42,16.42,0,0,0-6-1.06,26.45,26.45,0,0,0-7.28,1.18q-1.58.48-3.09,1.08c1.3-.78,2.61-1.55,3.94-2.28a52.42,52.42,0,0,1,12.92-5.33,24.64,24.64,0,0,1,7-.72,16,16,0,0,1,6.72,1.81,15.93,15.93,0,0,0-6.71-1.92,24.66,24.66,0,0,0-7,.61,49.13,49.13,0,0,0-11.34,4.26,124.39,124.39,0,0,1,11.76-6.46,50.94,50.94,0,0,1,12.5-4.29,22.84,22.84,0,0,1,6.6-.29,15.07,15.07,0,0,1,6.24,2.1,15,15,0,0,0-6.22-2.21,23.16,23.16,0,0,0-6.65.17,51.38,51.38,0,0,0-12.66,4.11,159.85,159.85,0,0,0-21.38,12.34c-2,1-4,2.11-5.94,3.27l-.36.23c-.25.08-.51.16-.75.26a59.8,59.8,0,0,0-7.45,3.44c8.62-5.54,17.28-11,26.14-16.13,3.6-2.13,7.25-4.15,10.94-6.09a106.65,106.65,0,0,1,11.35-5.22,47.24,47.24,0,0,1,12.09-3,22,22,0,0,1,6.22.23,14.55,14.55,0,0,1,5.71,2.42A14.62,14.62,0,0,0,1195,700a22.27,22.27,0,0,0-6.26-.35,48,48,0,0,0-12.22,2.79,106.06,106.06,0,0,0-11.49,5.08q-5.6,2.85-11,6c-9.92,5.59-19.63,11.57-29.28,17.61a33.59,33.59,0,0,0-4.39,1.32,53.65,53.65,0,0,0-7.13,3.32c-.36,0-.73,0-1.09.06a32.56,32.56,0,0,0-7.9,1.74,53.24,53.24,0,0,0-7.3,3.19,31.59,31.59,0,0,0-9.45,1.55,52.27,52.27,0,0,0-8,3.32l-.81,0Zm55.93-17.86.47-.14q-3.14,2.13-6.2,4.38c-.2,0-.4,0-.6-.06,1.85-1.3,3.72-2.56,5.64-3.76Zm-5.79,4.28q-1.85,1.35-3.68,2.73c-2.94,2.1-5.88,4.2-8.74,6.4l-.67.51c4-3.38,8.18-6.66,12.49-9.69Zm-68.66,58.14q8.82-9.15,17.83-18.12c2.52-1.83,5.05-3.67,7.52-5.57l8.36-6.44-5.71,5.25c-1.83,1.66-3.62,3.35-5.39,5l-3.29,3.14C1076.16,777.63,1069.76,783.25,1063.28,788.76Zm-33.2,32-2,1.94-1.61,1.43q-7.61,6.46-15.21,13l1-1.1,5.3-5.89,7.24-8.07c5.9-4.66,11.75-9.35,17.64-14l.37-.3L1032.76,818Zm-57,53.17-7.66,6.75c-3.06,2.7-6.18,5.34-9.32,8l1.54-1.68c4.18-4.58,8.39-9.12,12.56-13.7q6.27-4.71,12.39-9.59l3.75-3.09Q979.77,867.28,973.09,873.92Zm-71.8,63.27c-1.7,1.21-3.44,2.37-5.18,3.54,6.73-6.28,13.27-12.76,19.68-19.36l2.39-1.49c5-3.19,9.8-6.53,14.57-10-6,6-12.14,11.79-18.38,17.52C910.09,930.79,905.74,934.06,901.29,937.19ZM847.5,975.83a168.75,168.75,0,0,1-17.73,7.59,125,125,0,0,1-16.72,4.78q6.29-3.16,12.34-6.75,7-4.14,13.77-8.73l2.75-1.91q2.42-.73,4.8-1.56a184.13,184.13,0,0,0,25.45-11.16l-2.89,2.32C862.25,965.88,855,971.07,847.5,975.83Zm-77.39,23.94a92.6,92.6,0,0,1-19.76-3.41A125.25,125.25,0,0,0,771,990.78a90.34,90.34,0,0,0,24,2.46A121,121,0,0,1,770.11,999.77Zm-47.25-5.53a121.29,121.29,0,0,1-16.05-8,89.7,89.7,0,0,0,13.22-.38,135.4,135.4,0,0,0,17.69,9.09A82.93,82.93,0,0,1,722.86,994.24ZM683.22,978.3c-5-3.18-9.73-6.62-14.36-10.26,2.54.63,5.12,1.15,7.72,1.54.81.12,1.61.21,2.42.31,5,4.16,10.07,8.12,15.38,11.82A76.8,76.8,0,0,1,683.22,978.3ZM646.29,956c-1.48-1.16-3-2.33-4.42-3.52-3.36-2.73-6.63-5.56-9.85-8.46,2.93,1.15,5.91,2.18,8.93,3.05q6.75,6.72,13.88,13.07-2.93-1.27-5.78-2.7Q647.66,956.76,646.29,956Zm-39.64-28.7-.38-.26c-4.34-3.87-8.57-7.88-12.71-12,3.35,1.74,6.77,3.36,10.26,4.82,4.18,4.57,8.42,9.08,12.78,13.48Q611.53,930.53,606.65,927.32Zm-41.91-34.54c-.75-.73-1.51-1.45-2.26-2.19-2.59-2.55-5.14-5.15-7.67-7.77q5.09,3.15,10.37,6Q570.49,894.95,576,901,570.24,897,564.74,892.78Zm143.2-114.06c5.07.18,10.13.33,15.2.52l-14,.87-4.54-.27c-5.27-.32-10.55-.58-15.83-.84l-.48-.62,1.1,0,4.1-.07C698.28,778.42,703.12,778.56,707.94,778.72Zm50.56,1,10.25-.16c2.48,0,5-.06,7.43-.08l1.12.05,9.28.46.24.24c-2.9.22-5.8.44-8.7.72l-3,.31q-10.74-.69-21.47-1.47Zm106.11-1.22q4.89-.88,9.8-1.64c.72-.12,1.43-.21,2.15-.31q8.55-.11,17.11.22c-7.76,1.85-15.43,4-23,6.51-1.26.4-2.52.83-3.78,1.25-2.35-1.53-4.69-3.07-7-4.65l-.54-.39c1.53-.3,3.06-.59,4.6-.87,3.67.07,7.35.17,11,.3Zm15,17.14c3.48,2,7,3.82,10.63,5.54l-4,2.41c-12.74,8-25.35,16.17-37.94,24.38-5.17-3.39-10.19-7-15.1-10.8,3.59-2,7.17-3.89,10.77-5.8l11.6-6.2c3.84-2.13,7.83-4,11.74-5.93q5-2.5,10-5C878,794.78,878.78,795.25,879.57,795.69Zm132.16,22q5-3,9.88-6l-1,1.19c-7.14,8.1-14.13,16.33-21.2,24.49l-2.2,2.55-.7.49c-7.16,5-14.4,9.88-21.8,14.49,3-3.52,5.93-7,8.86-10.57L994,831.75l5.23-6.27,1-1.21Q1006,821.09,1011.73,817.7Zm7.42,6.13c-5.38,4.15-10.84,8.17-16.37,12.11,6.29-7.38,12.55-14.79,18.89-22.13l4.21-4.9c2.79-1.83,5.55-3.68,8.34-5.51l11.09-7.37,2.89-2-10.53,11.46L1025.43,819Q1022.3,821.42,1019.15,823.83ZM970.46,870q-6.39,4.79-12.92,9.36c-3,2.12-6.07,4.18-9.15,6.22,4.77-5.39,9.51-10.79,14.1-16.33q3.51-4.17,7-8.32c7.28-4.35,14.36-9,21.32-13.83l-2.12,2.39L978,861.64C975.52,864.48,973,867.26,970.46,870Zm-26.05,28c-.89.69-1.77,1.39-2.66,2.07-5.92,4.53-12,8.92-18.12,13.11q3.29-3.49,6.54-7c3.66-4,7.23-8.15,10.86-12.22l1.05-1.19c6.69-4.2,13.22-8.64,19.62-13.25q-2.81,3-5.58,6c-3.69,3.94-7.33,7.94-11.06,11.83Zm-54.1,34.94q-3.88,2-7.84,3.77c6-5.69,12-11.46,17.84-17.4,2.8-2.85,5.56-5.72,8.32-8.61a236.53,236.53,0,0,0,25.54-13.12l1.69-1c-2.43,2.71-4.85,5.42-7.31,8.1q-5.56,6-11.23,11.82l-2.22,2.26C907,923.8,898.78,928.62,890.31,932.94ZM841.07,968.2A109,109,0,0,1,815.25,973c-2.69.15-5.38.16-8.07,0,3.79-2.28,7.53-4.61,11.22-7.06,4.44-3,8.78-6.06,13-9.26q3.39-2.55,6.7-5.19a126.3,126.3,0,0,0,24.74-4.56q3.66-1.05,7.23-2.31c-6.32,5.66-12.76,11.17-19.43,16.39Q846,964.73,841.07,968.2ZM771,987.86c-1.3-.34-2.6-.7-3.89-1.09A104.92,104.92,0,0,1,749,979.19q3.47-1.25,6.85-2.66a198.79,198.79,0,0,0,18.33-8.92,96.62,96.62,0,0,0,9.43,3.86A78.41,78.41,0,0,0,798.43,975a200.79,200.79,0,0,1-23.22,11.22C773.81,986.81,772.41,987.34,771,987.86ZM720.89,983a185.71,185.71,0,0,1-18.55-13.15c1.54-.19,3.07-.4,4.6-.66a124.45,124.45,0,0,0,15.75-3.77c4.54,3.55,9.23,6.92,14.09,10,1.72,1.1,3.46,2.15,5.22,3.19-.54.16-1.08.33-1.63.48a128.08,128.08,0,0,1-15,3.28C723.9,982.59,722.39,982.78,720.89,983Zm-43.16-18.07c-5.22-4.54-10.26-9.28-15.18-14.15a102.49,102.49,0,0,0,14-.24c5.27,5.32,10.71,10.48,16.38,15.4.67.59,1.36,1.16,2,1.74a89.33,89.33,0,0,1-14.54-.43C679.54,966.43,678.63,965.66,677.73,964.88Zm-35.2-20.37c-5.89-5.86-11.59-11.92-17.15-18.1a101.64,101.64,0,0,0,11.93,1.42q8.51,9.87,17.52,19.27A92.4,92.4,0,0,1,642.53,944.51ZM546.3,873.76q-5.73-6.25-11.26-12.69c3.93,2.11,7.94,4.09,12,5.89q6.15,7.72,12.52,15.31c-2.21-1.31-4.4-2.65-6.57-4S548.51,875.29,546.3,873.76Zm-33.49-29.9q-2.56-2.8-5.09-5.64c-1.83-2.06-3.66-4.13-5.47-6.21,1.44.79,2.89,1.57,4.36,2.32,1.74.91,3.51,1.78,5.29,2.63q4.9,6.3,9.88,12.55l.66.81c-1.21-.77-2.42-1.55-3.62-2.35C516.79,846.63,514.79,845.25,512.81,843.86ZM482.24,816.4q-5.72-6.06-11.26-12.28,4.06,2.22,8.23,4.28l8.61,10.48,2.07,2.51-2.45-1.54C485.7,818.72,484,817.57,482.24,816.4Zm-38-34.66-2.46-2.69q3.81,2,7.69,3.9l6.11,7.48c.86,1,1.75,2,2.62,3.06-2.53-1.57-5-3.2-7.51-4.86Q447.46,785.21,444.26,781.74Zm283.52-.88,4.57-.19.65.79-7.84-.42Zm6,1.57.59.72-1.4,0-8.51-.15L716,782.7l-9.67-.3,1.06-.08,8-.57Q724.55,782.13,733.79,782.43Zm39.06.75,5.43-.6c1.3-.14,2.61-.26,3.91-.38,2.29.09,4.59.16,6.88.23l3,2.89q-22,4.41-43.71,9.93-3.6-4.12-7.15-8.31l5-.69c7.1-1,14.24-1.7,21.37-2.49l4.55-.51c1.2,0,2.39,0,3.59,0Zm15.89-1.07-3.51-.19,3-.27Zm7.73,7.37c1.61,1.51,3.24,3,4.87,4.53q-20.76,6.72-41.21,14.31c-1.25-1.34-2.5-2.68-3.73-4-2.2-2.41-4.37-4.86-6.53-7.31q21.68-5.72,43.65-10.29Zm19.8,17.86q6.13,5.2,12.49,10.2l-8.9,4.8-11.59,6.24-11.63,6.18L790,838.27q-7.2-6.63-14.12-13.57c13.19-6.06,26.38-12.13,39.65-18ZM877.58,886a94.22,94.22,0,0,1-9.78-1.18,90.08,90.08,0,0,1-14.69-3.89l6.56-5.27c2-1.57,3.92-3.12,5.85-4.71l5.78-4.81,11.57-9.61,5.78-4.81,2.11-1.86a102.88,102.88,0,0,0,20.63,1.84c1.35,0,2.68-.06,4-.12-4.12,4-8.26,8-12.49,11.9-3.78,3.51-7.6,7-11.47,10.4L879.78,884Zm72.09-14.29c5.14-2.42,10.14-5.09,15.06-7.89l-3.68,4.29c-6.21,7.4-12.69,14.57-19.15,21.76-3,1.88-6,3.74-9,5.52-6.33,3.7-12.79,7.17-19.42,10.28l9.21-9.85,11.06-11.86c2.67-2.84,5.32-5.72,7.95-8.61Q945.7,873.56,949.67,871.66Zm-17.42,10.88-11.14,11.78L910,906.09,908.11,908l-1.39.61a149.52,149.52,0,0,1-27.79,8.94c-1,.22-2,.41-3.06.6l3.61-3.44,11.54-11,11.38-11.14c2.23-2.2,4.48-4.38,6.72-6.57,4.82-1.07,9.59-2.39,14.29-3.88s9.39-3.21,14-5.07C935.69,878.91,934,880.73,932.25,882.54Zm-31.31,8.56-11.45,11.06L877.9,913.05q-3.06,2.91-6.13,5.79a95.6,95.6,0,0,1-21.77.73c-2.26-.18-4.51-.47-6.74-.84,1-.83,1.93-1.65,2.88-2.48l11.72-10.17c6.65-5.72,13.21-11.54,19.77-17.35a105.2,105.2,0,0,0,18.1-.45c3.24-.35,6.46-.86,9.65-1.47ZM659.45,947.64c-6.26-6.34-12.3-12.92-18.17-19.65l1,0a113.93,113.93,0,0,0,13.2-.61c5.95,7,12.1,13.84,18.51,20.44A97.73,97.73,0,0,1,659.45,947.64Zm-73.8-70.14c4.5.52,9,.81,13.53.92.69,1,1.37,2,2.07,3q4.68,6.63,9.51,13.16,2.12,2.86,4.28,5.7a108.4,108.4,0,0,1-13-1.36Q593.66,888.39,585.65,877.5Zm-72.25-43-7.33-9.42-5.89-7.56q6.48,2.41,13.12,4.37c4.38,6.11,8.85,12.16,13.34,18.19C522.16,838.38,517.73,836.53,513.4,834.49ZM480.61,806l-3.92-4.76-4.21-5.47-3.15-4.08q5.84,2.3,11.78,4.3,5.59,7.72,11.3,15.4Q486.43,808.84,480.61,806ZM450.89,780.6q-4.41-5.34-8.79-10.7l1.54.57c2.86,1,5.74,2,8.63,3l1.35,1.88,7.61,9.94q-5.09-2.2-10.1-4.59Zm-25.52-20.33q-2.88-3.32-5.74-6.64,4.2,1.35,8.43,2.58l0,0c2,2.57,4,5.14,6,7.68Q429.71,762.16,425.37,760.27Zm154.18,20.44c-2.45-.08-4.9-.18-7.36-.34l-9.74-.5-4.12-.21-3-5.1,3.39.31q9,.81,18,1.23Q578.15,778.4,579.55,780.71Zm34.07,6,3,4.46c-3.72.26-7.45.48-11.18.63q-7.89.33-15.78.34-2.67-4.27-5.32-8.57c2.47,0,4.93,0,7.4,0q9.72-.06,19.43-.65Zm51.26-4.51,8.51.38,6.49.2-3.38.34q-5.1.63-10.19,1.37t-10.16,1.62l-3,.53-3.67-5.15Zm71,2.7.62.73c-4,.57-7.89,1.18-11.81,1.87l-21.25,3.61-4.61.88-1.59-2.06c-1.6-2.05-3.18-4.11-4.77-6.16l4.73-.53h0l1.75,0,17,.2,8.51.1,8.52,0h1.74Zm51.41,54.84L785,840.93,773.34,847l-11.68,6.06c-2.84,1.49-5.7,2.92-8.57,4.34-5-5.38-9.81-10.76-14.33-16,5.73-2.52,11.43-5.1,17.16-7.64s11.43-5.19,17.14-7.81Q780,833,787.24,839.75Zm-307-49.42c-2.6-3.58-5.22-7.15-7.73-10.79l.63.17,10,2.58,3.55.91q4.78,7.17,9.66,14.29c-1.75-.45-3.48-.92-5.21-1.41-2.89-.83-5.76-1.73-8.61-2.67ZM453.53,771l-7-9.51c3.24.93,6.49,1.85,9.73,2.8l3.27,1q3.33,4.88,6.7,9.71L464,774.3Q458.73,772.74,453.53,771Zm44.48.39-3-4.58c2.65.48,5.32.92,8,1.34s5.59.78,8.38,1.14c.8,1.3,1.6,2.61,2.41,3.91L515,775.1l-1-.16-4.8-.87-4.78-1-6.12-1.26Zm33.5.47,0,.09,3.45,5.78-1.75-.15c-5.06-.46-10.08-1.15-15.1-2l-2.3-3.68-1.41-2.26,7.11.91,9.25,1.19Zm177,37.28,4.58,5.8c2.23,2.8,4.49,5.58,6.75,8.36l-4.94,1.79c-7.43,2.8-15,5.26-22.53,7.65-1.48.48-3,.93-4.45,1.37-4-5.31-8-10.7-12-16.08l1.19-.28c7.36-1.78,14.68-3.72,21.94-5.88,3.11-.92,6.2-1.91,9.29-2.88Zm43.6,51.54c5.37,5.75,11,11.48,16.81,17-3.8,2.31-7.55,4.69-11.38,6.93s-7.94,4.65-12,6.9q-3.11,1.74-6.24,3.44c-6-6.29-11.8-12.78-17.49-19.34l5.57-2.59q6-2.82,11.84-5.83l11.75-6ZM749.91,859c-7.85,3.9-15.63,8-23.56,11.69-2.07,1-4.15,1.93-6.24,2.88q-4.2-4.87-8.32-9.77c-2.34-2.76-4.64-5.55-6.93-8.35,1.63-.62,3.27-1.25,4.9-1.89L733,844l3-1.32c4.54,5.26,9.34,10.69,14.36,16.12Zm-61.7,27.48q-8.1-9.75-15.77-19.83c10-3,19.86-6.45,29.62-10.14q3.74,4.59,7.54,9.13t7.76,9.15C707.79,879.05,698.08,883,688.21,886.48Zm-48.88-18.62-9.08-13.39-2.16-3.2c6.36-1,12.67-2.22,18.93-3.59,2.33-.51,4.66-1,7-1.6l4.29,6.15c3.06,4.32,6.22,8.56,9.39,12.79l.14.18q-3.2.93-6.41,1.79c-6.44,1.72-12.94,3.25-19.48,4.53Zm-46-31-3.91-6.28q10.31-.35,20.58-1.41c1.39,2.25,2.87,4.44,4.36,6.63l4.53,6.72,4.43,6.57-.29,0c-6.83.89-13.71,1.47-20.6,1.79Q597.86,844,593.38,836.91Zm-78.5-39.51-6.23-9.61c4.92.88,9.87,1.54,14.8,2.33l.89.14,6.22,10c.84,1.36,1.71,2.7,2.57,4h-.07q-7.53-1-15-2.24Zm-14.32-22.08,3.3.69,4.79,1,4.83.89,3.58.59,5.12,8.29.08.14c-5.28-.8-10.58-1.5-15.82-2.54Zm39.31,10.57,2.22,3.72q-4.05-.43-8.1-.93c-2.82-.38-5.64-.84-8.46-1.27l-1.23-2-4-6.48c4.22.62,8.47,1.16,12.72,1.54l3.88.32ZM532.72,799l-5.11-8.2c2,.31,4,.61,6,.87q5.1.63,10.23,1.13H544c2.69,4.51,5.39,9,8.14,13.46q-7.85-.54-15.67-1.46C535.19,802.83,533.94,800.9,532.72,799Zm14.39-5.89q8.46.78,16.93,1.24c2.52,4.27,5.06,8.51,7.67,12.72q-8.22-.1-16.43-.59c-1.67-2.63-3.33-5.27-4.91-7.95ZM554,809.3c.9,1.43,1.79,2.87,2.7,4.3l8.72,13.88q-7.58-.42-15.1-1.3l-9-13.86q-1.4-2.16-2.81-4.31C543.7,808.57,548.87,809,554,809.3Zm4.9,2.93-1.74-2.77c5.43.28,10.87.42,16.31.46l.4.65,10.74,17.31q-8,.11-16-.25Zm62.23,28.84-4.54-6.7c-1.23-1.81-2.45-3.63-3.63-5.47q9.82-1.06,19.6-2.51,3.46-.51,6.91-1.07l.63.89,9.07,13,3.12,4.47q-2.94.69-5.89,1.33c-6.67,1.43-13.36,2.71-20.09,3.69Zm51.94-22.35c4,5.42,7.94,10.86,12,16.24-5.18,1.48-10.39,2.85-15.59,4.27L658,842.33c-.94.24-1.88.45-2.83.68l-3.75-5.36-9-12.82Q657.87,822.25,673.11,818.72Zm-3.2,44.62c-3.17-4.21-6.33-8.43-9.39-12.73l-3.66-5.22,1.81-.44,11.53-3.15c5.54-1.53,11.09-3,16.61-4.61,1.16,1.51,2.31,3,3.49,4.52q5,6.38,10,12.66c-9.78,3.64-19.65,7-29.63,10Zm-7.79,6.29q3.75-1,7.45-2.12,7.7,10.14,15.77,20-3.86,1.35-7.75,2.61c-5.94,1.93-11.93,3.72-18,5.24q-5.54-7.08-10.86-14.34-2.55-3.47-5.06-7C649.89,872.75,656,871.27,662.12,869.63Zm69.87-28-23.18,9.47q-2.84,1.11-5.69,2.19-5.37-6.62-10.62-13.33c-1-1.22-1.9-2.45-2.85-3.68,1.18-.36,2.36-.71,3.53-1.09q5.7-1.8,11.35-3.73l5.65-2,5.6-2.08c1.9-.72,3.81-1.42,5.72-2.13q5.13,6.27,10.35,12.46l2.45,2.88Zm-33.57-32.2q-10.84,3.15-21.84,5.77l-2.26.53-.21-.29L665,803.14l-.73-1c6.24-1.18,12.46-2.54,18.59-4.13,4.82-1.2,9.68-2.3,14.55-3.32L704,803.3l2.81,3.65C704,807.8,701.24,808.67,698.42,809.47Zm-35.6-4.75,8.61,11.72q-15.25,3.45-30.69,5.93c-2.5-3.55-5-7.09-7.38-10.72l-3-4.46c3.35-.43,6.67-.92,10-1.38l10.69-1.5,5.34-.76,4.91-.86Zm-31.66,8.41c2.13,3.29,4.38,6.51,6.63,9.72l-5.58.84q-10.43,1.5-20.89,2.58l-10.77-16.92c2.54-.06,5.08-.12,7.62-.26,3.6-.2,7.19-.44,10.78-.74,2.83-.23,5.66-.51,8.49-.82Zm-22.8,13.43q-10.3,1-20.64,1.27l-11.16-17.9,4.65,0,5.4-.15,10.78-.3h.12Zm-21.81-19.64-5.37.13-5.36,0h-1.05q-3.91-6.25-7.67-12.61,10.6.51,21.22.49c1.42,2.26,2.84,4.51,4.28,6.76l3.17,5Zm-41.32-17L542,784.6l-2.12-3.51,12.61,1.06,2.45.2,2.13.1,0,.08q2.6,4.4,5.17,8.79Q553.74,790.8,545.23,789.94Zm9.91-10.44-2.43-.21L538,778l-3.5-5.79,5.58.64,9.28,1.06,2.88.33,3.09,5.27Zm-57.91-4.88,5.78,9-9.31-1.88-5-1-.85-.22q-3.15-4.65-6.29-9.32l3.12.74c3.2.74,6.39,1.36,9.59,2Zm-13,5-.51-.13-9.9-2.53L470,776l-6.73-9.66c3.94,1.14,7.88,2.26,11.87,3.3l3,.76C480.17,773.47,482.2,776.56,484.25,779.64ZM490.2,784l2.89.6,10.08,2.07,2.06.44,7.52,11.68,1.8,2.67q-7.27-1.32-14.45-3Q495.12,791.25,490.2,784Zm26.64,20.88,4.57,6.79,7.43,11.06c-4.73-1-9.44-2.13-14.08-3.46-4.1-5.73-8.16-11.51-12.19-17.29Q509.68,803.63,516.84,804.89Zm15.39,18.19-8.67-12.84-3.22-4.76c4.1.68,8.22,1.29,12.33,1.84l2.55.3q2,3,3.95,6.1l7.8,12c-1.54-.19-3.07-.39-4.59-.62q-5-.72-9.88-1.67Zm9.71,5c2.37.35,4.75.65,7.14.93l7.39,11.43c2,3,4,5.91,6,8.85-3.37-.5-6.74-1.09-10.08-1.78-1.25-.26-2.49-.55-3.72-.83q-3.89-5.4-7.69-10.83c-2.09-3-4.11-6-6.13-8.94C537.2,827.36,539.56,827.76,541.94,828.11ZM558.68,839l-6.23-9.59q7.44.76,14.91,1.09L574,841.08c2.21,3.34,4.45,6.67,6.69,10-1.64-.07-3.28-.15-4.92-.27-3.26-.23-6.5-.58-9.74-1Q562.34,844.43,558.68,839Zm17.54.62-5.66-9q7.92.27,15.86.08l4.73,7.62q4,6.43,8.21,12.77c-5.12.16-10.25.21-15.36.08Q580.09,845.42,576.22,839.62ZM599.56,854l1.63-.08q3.91,5.93,7.89,11.8c2.13,3.15,4.3,6.28,6.47,9.4-1.07.08-2.13.17-3.2.23q-5.9.31-11.8.22c-2.07-3-4.12-6.06-6.18-9.08q-4.17-6.18-8.37-12.32C590.52,854.2,595,854.13,599.56,854Zm11.77,10.18q-3.52-5.19-7-10.41c6.39-.36,12.77-.94,19.12-1.79l1.65-.24L628,856l9.07,13.43,1.87,2.64c-6.7,1.23-13.43,2.19-20.2,2.78Q615,869.53,611.33,864.15Zm29.38,10.44q2.87,4,5.79,8,4.95,6.78,10.1,13.43c-1.41.34-2.83.66-4.25,1-4.26.91-8.55,1.66-12.86,2.2l-2.75.31q-8.26-10.86-16.13-22C627.36,876.86,634.06,875.86,640.71,874.59ZM639.85,902c4.4-.57,8.76-1.34,13.09-2.27,1.86-.4,3.71-.84,5.55-1.29,2.6,3.31,5.22,6.59,7.9,9.83q5.15,6.24,10.47,12.36-3.69.95-7.42,1.73c-4.21.87-8.47,1.56-12.73,2-2.22-2.61-4.43-5.24-6.6-7.89q-5.79-7.1-11.37-14.37Zm28.74,4.44c-2.4-2.89-4.75-5.82-7.09-8.76,5.71-1.5,11.35-3.21,16.94-5,2.93-.95,5.83-1.95,8.73-3l.2.24q8.89,10.69,18.21,21.06c-3.25,1.31-6.51,2.58-9.8,3.77-5.2,1.88-10.46,3.58-15.78,5.05Q674.2,913.25,668.59,906.48Zm21.46-17.79c9.85-3.56,19.54-7.53,29.09-11.82,5.71,6.63,11.53,13.17,17.54,19.53-5.11,2.73-10.27,5.36-15.5,7.83q-6.28,3-12.71,5.62C702.17,902.94,696.05,895.86,690.05,888.69Zm32.27,17.94c5.41-2.57,10.83-5.34,16.24-8.25,4.1,4.29,8.29,8.5,12.63,12.59,2.09,2,4.32,4,6.6,5.95-1.15.71-2.41,1.48-3.85,2.34A261.34,261.34,0,0,1,730.06,932q-10.18-9.63-19.68-20C714.4,910.27,718.38,908.5,722.32,906.63Zm18.93-9.71c10-5.46,19.9-11.37,29.65-17.38,6.1,5.7,12.41,11.16,18.87,16.16-2,1.42-3.51,2.42-11.64,7.85l-15,10-2.69,1.69C753.8,909.49,747.43,903.32,741.25,896.92Zm26.28,16.83,18-12.1c2.5-1.67,2.63-1.72,6.3-4.36A167.87,167.87,0,0,0,812,910.43l-.83.65c-9.26,7-19,14.21-29,21a216.39,216.39,0,0,1-17.41-13.18c-.73-.6-1.44-1.22-2.16-1.83C765,915.48,764.25,916,767.53,913.75Zm26.84-18.28c3.75-2.7,9.89-7.16,20.59-14.9l12.47-9.11c4.17,2.57,8.47,5,12.9,7.13q3.84,1.88,7.82,3.45L834.8,892.6c-6.78,5.29-13.53,10.62-20.33,15.89A161.3,161.3,0,0,1,794.37,895.47Zm19.23-16.76L792.29,893.9c-6.4-4.93-12.68-10.33-18.76-16,7-4.33,13.85-8.69,20.59-13q6.42-4,12.83-8.09a210.67,210.67,0,0,0,18.47,13.34ZM792.9,863c-7.09,4.42-14.21,8.75-21.32,13.1-5.78-5.45-11.37-11.12-16.72-16.79,2.65-1.34,5.29-2.68,7.91-4.08l11.64-6.17,11.64-6.17,2.87-1.56q2.6,2.4,5.24,4.75c3.59,3.17,7.24,6.3,11,9.34Q799,859.21,792.9,863ZM755,831.71c-6,2.58-11.93,5.22-17.91,7.79-1-1.2-2.05-2.38-3-3.55q-4.92-5.79-9.74-11.65c4.63-1.72,9.25-3.44,13.85-5.22q10.29-4.07,20.62-8,6.25,6.74,12.69,13.28Q763.23,828.07,755,831.71Zm-17.67-14.78c-4.87,1.83-9.76,3.6-14.64,5.37-2.47-3-4.93-6-7.37-9.1l-4-5.08,9.52-2.91q12.94-4,26-7.43c2.47,2.83,5,5.64,7.47,8.43,1,1.07,2,2.13,2.94,3.19Q747.23,813.11,737.31,816.93ZM720.12,803l-10.45,3.09-3.46-4.49-5.82-7.52,3.43-.69L725,789.58c4.31-.8,8.63-1.5,13-2.15,2.43,2.88,4.88,5.76,7.35,8.61C736.87,798.23,728.47,800.53,720.12,803Zm-63.53-14.36c3.36-.59,6.72-1.13,10.09-1.65s6.75-1,10.13-1.47L687,784.38l2.3-.25q2.87,3.74,5.75,7.48l.77,1c-4.53.92-9,1.89-13.54,3-6.54,1.65-13.08,3.06-19.7,4.26l-2.1-2.86L656,790.72,654.76,789Zm-2.75,3.63,4.44,6.26,1.34,1.82L656,801l-5.32.74L640,803.17c-3.55.48-7.09,1-10.64,1.44l-.69.07-7.45-11.17q12.66-1.1,25.21-3.1c1.8-.29,3.61-.6,5.4-.92ZM625.75,805c-2.34.24-4.68.46-7,.64-3.56.29-7.13.51-10.7.7-3.07.16-6.15.2-9.23.28l-4-6.29c-1.16-1.79-2.3-3.6-3.44-5.4q7.08-.07,14.16-.38,6.39-.28,12.77-.79Zm-39.16-12.85q-10.62-.06-21.24-.64-2.62-4.46-5.28-8.9l2.22.1,9.8.47c3.06.18,6.12.29,9.19.36Q583.92,787.85,586.59,792.14Zm-102-27.45c2.4.57,4.81,1.06,7.23,1.53l3.18,4.95-.16,0c-3.18-.67-6.4-1.27-9.55-2q-3.07-.69-6.13-1.46c-1.14-1.69-2.27-3.39-3.4-5.08Zm-8.82,2.15c-5-1.29-10.06-2.73-15.08-4.17l-3.32-4.77,9,2.49,6.09,1.44Zm-18.7-5.21-.06,0q-6.55-1.89-13.15-3.73l-2.55-3.47q6.38,1.44,12.76,2.8C455.08,758.68,456.09,760.15,457.09,761.63Zm-16.87-4.79-2-.57-9.07-2.54-2-2.64q5.38,1.3,10.8,2.55ZM404,745.11c2.37.66,4.74,1.29,7.11,1.92l1,1.23c-.59-.21-1.19-.41-1.78-.64l-6.2-2.39ZM414.88,748q4.32,1.11,8.64,2.18c.6.81,1.21,1.61,1.82,2.41-2-.59-3.91-1.18-5.85-1.81l-3.16-1Zm17.1,9.31,5.49,1.56c1.78.5,3.56,1,5.35,1.54l6.67,9.22c-1.65-.57-3.28-1.15-4.92-1.74-2-.71-3.92-1.45-5.87-2.19C436.45,762.93,434.2,760.14,432,757.33Zm24.4,17.52c2.26.73,4.52,1.44,6.8,2.13,1.64.49,3.28,1,4.94,1.44l.62.16q4.71,6.72,9.48,13.39c-4.11-1.45-8.19-3-12.23-4.65ZM488.7,802l-3.41-4.68c1.66.52,3.32,1,5,1.51,2.81.8,5.63,1.54,8.47,2.24q2.52,3.63,5.07,7.24c2.21,3.26,4.47,6.49,6.74,9.71q-5.88-1.83-11.65-4l-2.09-.83Zm28.77,21q6.81,1.83,13.74,3.21c2.5,3.72,5,7.46,7.57,11.14,1.94,2.79,3.93,5.57,5.9,8.35q-6.87-1.75-13.57-4.07Q524.21,832.43,517.47,823.05Zm29.84,26.41q4.74,6.62,9.58,13.16,2.54,3.42,5.12,6.83a143.82,143.82,0,0,1-13.48-5.07c-2.41-3-4.8-6.06-7.17-9.12s-4.77-6.27-7.13-9.42C538.53,847.22,542.9,848.42,547.31,849.46ZM559.08,861q-3.95-5.28-7.79-10.63l.47.11c4.28.89,8.6,1.6,12.94,2.17q4.84,7.1,9.81,14.12c1.63,2.31,3.28,4.61,4.93,6.9a124.45,124.45,0,0,1-12.94-2.86Q562.75,865.93,559.08,861Zm17.65,4.19c-2.85-4-5.67-8.06-8.47-12.11,2.43.26,4.86.5,7.3.67s4.77.26,7.15.33c3.14,4.65,6.28,9.28,9.41,13.94,1.69,2.47,3.36,5,5,7.44-4.65-.18-9.29-.58-13.89-1.21C581.07,871.23,578.89,868.22,576.73,865.18ZM613,892.93q-4.83-6.49-9.51-13.1c-.32-.45-.63-.91-1-1.37,3.32,0,6.65-.09,10-.28,1.66-.09,3.3-.22,5-.36q7.81,11.14,16,22-3.48.3-7,.45-3.91.16-7.83.1C616.76,897.92,614.87,895.44,613,892.93Zm13.6,10.24c3-.14,5.91-.36,8.86-.65q6.09,8,12.42,15.83,2.64,3.23,5.32,6.42c-3.63.3-7.27.44-10.91.39q-1.8,0-3.6-.12-2.87-3.33-5.69-6.7c-4.14-4.94-8.16-10-12.11-15C622.81,903.29,624.71,903.25,626.61,903.17ZM658.92,927q5.58-.72,11.09-1.88c3-.63,6-1.36,8.92-2.15,6.26,7.1,12.72,14,19.44,20.7q-5.26,1.42-10.62,2.45c-3.29.62-6.62,1.09-10,1.41C671.26,940.94,665,934.06,658.92,927ZM682,922.13q7.43-2.13,14.67-4.78c3.63-1.33,7.23-2.74,10.8-4.2q9.47,10.38,19.61,20.13c-4,1.8-8,3.45-11.86,4.92-4.47,1.7-9,3.24-13.6,4.57C694.88,936.14,688.36,929.23,682,922.13Zm34.19,18.63q6.6-2.53,13-5.47l1.32,1.26c5.8,5.35,11.81,10.5,18.12,15.27-4.54,2.27-9.11,4.38-13.71,6.26q-5.65,2.29-11.47,4.14c-3.6-2.86-7.13-5.84-10.57-8.9-3-2.72-6-5.52-9-8.35Q710.17,943.08,716.23,940.76Zm16.36-6.41-.43-.42q5.31-2.5,10.5-5.25c5.84-3.1,11.58-6.48,17.2-10,5.09,4.34,10.36,8.51,15.1,11.94,1.49,1.08,3,2.13,4.52,3.17a306.11,306.11,0,0,1-27.86,16.52A241.21,241.21,0,0,1,732.59,934.35Zm49.23,1a117.88,117.88,0,0,0,20,10.73c.47.19,1,.36,1.42.54q-10.23,7-20.94,13.32-3.93,2.31-7.91,4.5A131.89,131.89,0,0,1,757,954.21c-1-.69-2-1.4-3-2.11A316,316,0,0,0,781.82,935.38Zm21,8.07a114,114,0,0,1-18.41-9.84c9.6-6.51,19-13.48,28.22-20.54l1.72-1.35c2.16,1.12,4.32,2.18,6.5,3.14a93.43,93.43,0,0,0,14.11,5c.81.22,1.63.4,2.45.59-1.57,1.31-3.15,2.62-4.74,3.91-8,6.51-16.15,12.83-24.54,18.82-.71.51-1.43,1-2.14,1.5C805,944.28,803.91,943.88,802.86,943.45Zm6.82,1.83c8.43-6,16.61-12.41,24.62-19q3.13-2.56,6.23-5.21a84.63,84.63,0,0,0,9.23,1.28,95.9,95.9,0,0,0,18.56-.31c-10,9.27-20.23,18.27-30.88,26.71-1.72.12-3.45.2-5.18.22a77.54,77.54,0,0,1-15-1.25,67.28,67.28,0,0,1-8.17-2Zm46.67-40.95-11.77,10.08c-1.46,1.26-2.93,2.5-4.39,3.74-1.5-.31-3-.65-4.47-1a90.41,90.41,0,0,1-13.67-4.87c-1.72-.77-3.45-1.61-5.17-2.49,6.47-5.09,12.9-10.24,19.36-15.35L850.51,883a93.07,93.07,0,0,0,16.81,4.57q3.64.63,7.34,1C868.58,893.81,862.5,899.12,856.35,904.33Zm55-55.41a101.74,101.74,0,0,1-18-1.45l.87-.77,11.28-9.93c7.53-6.61,15-13.27,22.48-19.92l5.23-4.68a148.54,148.54,0,0,0,19.23-.51c1.4-.12,2.8-.27,4.19-.43-3.11,3-6.19,6-9.29,9l-22.17,21.68-6.87,6.72Q914.88,848.89,911.37,848.92Zm15.71-33.18L904.45,835.5l-11.33,9.85-2,1.7q-2.89-.57-5.75-1.33A102.27,102.27,0,0,1,869.58,840l37.59-29.2,2.7-2.09a102.68,102.68,0,0,0,17.37,3.1c1.35.12,2.7.21,4.06.29Zm-42.39,32.69c1.27.33,2.55.63,3.83.91l-1.07.93-5.8,4.76-11.6,9.51-5.8,4.75c-1.94,1.58-3.92,3.12-5.88,4.68l-7.64,6c-3.1-1.19-6.15-2.53-9.14-4-4-1.95-7.85-4.11-11.63-6.41l8.32-6.09,23.23-17.28,5.54-4.3A106.8,106.8,0,0,0,884.69,848.43Zm-24.33-3.69L837.08,861.8,828,868.36a205.07,205.07,0,0,1-18.37-13.17q15.61-9.91,31.13-20l6.54-4.33c4.08,2.64,8.24,5.15,12.54,7.47q2.66,1.43,5.38,2.74Zm-20.67-11.16q-15.87,10.21-31.89,20.16c-4-3.21-7.84-6.53-11.65-9.91-1.5-1.32-3-2.66-4.45-4l5.94-3.21,11.58-6.27L820.77,824l9.54-5.24q7.44,5.76,15.28,11ZM774.3,823.09q-6.42-6.47-12.63-13.11c13.62-5.14,27.31-10.06,41.12-14.64q5.58,5.11,11.28,10.08C800.75,811.18,787.53,817.15,774.3,823.09ZM746,784.37q-3.13.39-6.25.82l-1.4-1.65,11.67-.07-11.94-.25-.09-.11-.46-.56q10,.33,20,.52C753.7,783.47,749.83,783.88,746,784.37Zm-49-3.31-6.15.62-.74-1,7.29.3Zm-28.06-1.26,4.45.26,4.45.18,8.76.34.81,1-5.4-.25-8.5-.37-8.5-.49-14.55-.85,9.45-.4Zm10.69-1.27,5.34-.09c.1.12.19.25.29.38Zm-33.49,2.79,4.13,5.83c-1.39.24-2.77.48-4.16.7-8.79,1.38-17.63,2.4-26.5,3.11l-3.78-5.67-1.68-2.53c2.34-.17,4.68-.35,7-.57l9.74-1c1.7-.17,3.4-.32,5.1-.47Zm-33.68-1.11-.77-1.16,2.23.17c2,.16,3.93.3,5.9.44C617.32,779.88,614.86,780.06,612.41,780.21Zm-3,.17q-8.85.48-17.73.5c-3,0-6.07,0-9.11-.08-.93-1.52-1.87-3-2.8-4.54q14.28,1.46,28.6,2.55Zm-4.54-4.27h.55l1.15,0,.13.2ZM391,738.66l0,0,.58.18Zm-4.58-1.36-2.83-.86-.59-.51c1.06.38,2.12.76,3.18,1.12Zm11.83,8.45,2,.77,2.82,1.1c1,1.14,2,2.29,3,3.42-1.72-.9-3.42-1.82-5.12-2.75C400.06,747.45,399.15,746.61,398.26,745.75Zm9.69,3.77,1.44.56c1.95.75,3.93,1.45,5.91,2.12q2.38,2.88,4.82,5.71c-2.62-1.19-5.22-2.43-7.8-3.7C410.86,752.65,409.39,751.1,408,749.52Zm9.44,10q3.36,1.58,6.73,3.07l1.69,2,3.93,4.61c-2.4-1.43-4.79-2.9-7.15-4.39Q420,762.19,417.39,759.55Zm18.49,12.89-6.54-7.58q4.05,1.7,8.13,3.28,3.9,4.86,7.84,9.69-4.47-2.28-8.86-4.74Zm21.7,16.32-2.66-3.25c3.21,1.48,6.46,2.9,9.72,4.26l5.8,7.57,4.21,5.49.15.19c-3.2-1.68-6.35-3.44-9.48-5.25C462.72,794.79,460.13,791.79,457.58,788.76Zm32.29,28.42-5-6.08q5.36,2.49,10.84,4.67,6,8.06,12.2,16c-3.72-1.9-7.38-3.95-11-6.08Zm34,30.61c-2.28-2.75-4.47-5.57-6.67-8.39,4.14,1.81,8.35,3.45,12.61,5q4.7,6.28,9.38,12.58,1.9,2.48,3.84,4.94c-4.57-2.19-9-4.6-13.42-7.16Q526.75,851.27,523.89,847.79Zm28.5,21.39c3.29,1.3,6.62,2.49,10,3.54.9.28,1.8.54,2.71.8q7.42,9.68,15.14,19.12c-1.46-.6-2.91-1.21-4.35-1.86-3.12-1.4-6.19-2.92-9.21-4.53Q559.4,877.84,552.39,869.18Zm17.09,5.48q6.15,1.49,12.41,2.37,7.8,10.68,16,21.11a98.84,98.84,0,0,1-12.26-3.47Q577.36,884.8,569.48,874.66Zm30.57,26.91.6.1c4.2,5.26,8.47,10.46,12.86,15.57,1.22,1.43,2.46,2.85,3.69,4.27l-1.72-.49c-3.41-1-6.76-2.28-10.06-3.65q-3.75-4.1-7.43-8.25-4.46-5-8.78-10.15A98.23,98.23,0,0,0,600.05,901.57Zm15.63,13.81q-5.55-6.45-10.91-13.08a114.68,114.68,0,0,0,12.54,1q6.6,8.58,13.5,16.9c1.28,1.53,2.57,3.05,3.86,4.58a96.18,96.18,0,0,1-12.52-2Q618.88,919.11,615.68,915.38Zm79.23,48.25c-5-4.34-9.83-8.87-14.54-13.52,2.65-.32,5.29-.72,7.91-1.22,4.17-.81,8.3-1.81,12.38-3q5,4.91,10.28,9.63,4.45,4,9.1,7.71a119.81,119.81,0,0,1-13.56,3.11q-3.59.6-7.19.94C697.81,966.1,696.35,964.88,694.91,963.63Zm43.46,9.31c-4.21-2.71-8.28-5.62-12.25-8.67,3.33-1.11,6.63-2.34,9.88-3.66,5-2.08,10.09-4.43,15.11-7,1.39,1,2.79,2,4.21,3a137.48,137.48,0,0,0,15.93,9.54c-5.37,2.86-10.82,5.52-16.41,7.85-3,1.24-6,2.37-9.06,3.4C743.27,976,740.79,974.5,738.37,972.94Zm46.22-4.18c-2.45-.85-4.87-1.82-7.25-2.88q3.17-1.77,6.27-3.62,11.55-6.79,22.57-14.52a72.53,72.53,0,0,0,10.58,2.78,81,81,0,0,0,15.54,1.26c.44,0,.88,0,1.32,0-1.24,1-2.48,1.93-3.74,2.87-4.23,3.17-8.53,6.24-12.93,9.15s-8.91,5.7-13.46,8.38l-.93.54A76.72,76.72,0,0,1,784.59,968.76Zm77.55-24.45a129,129,0,0,1-20.07,4q7.14-5.8,14.06-11.9c4-3.53,8-7.06,11.8-10.73l4.39-4.17q3.61-.54,7.17-1.29a148.39,148.39,0,0,0,23.92-7.38q-2.35,2.42-4.74,4.82c-7.46,7.54-15.2,14.79-23,22A132.68,132.68,0,0,1,862.14,944.31ZM992.77,830.73l-10.53,12.48q-6.18,7.37-12.45,14.64a238.57,238.57,0,0,1-21.23,11.47l-2.62,1.22c6.77-7.62,13.36-15.39,20-23.13l9.34-11q6.6-2.79,13.06-5.94c2.78-1.37,5.54-2.8,8.27-4.26ZM964.62,846.3c-7.06,8.19-14.09,16.39-21.34,24.39-.54.59-1.09,1.17-1.62,1.76a198,198,0,0,1-19.06,7.18c-3.22,1-6.47,1.94-9.75,2.76,4.11-4,8.2-8.06,12.2-12.2q5.55-5.72,11-11.56c3.61-3.9,7.15-7.86,10.72-11.78l.52-.57c5.57-1.53,11.06-3.32,16.46-5.29,2.77-1,5.51-2.1,8.25-3.21Zm-29.9,11.11q-5.46,5.79-11,11.46c-4.8,4.9-9.74,9.67-14.68,14.43a122.9,122.9,0,0,1-13.58,2.27,103.53,103.53,0,0,1-14.83.53l.55-.49,11.62-10.29q5.79-5.18,11.43-10.5c4.71-4.4,9.3-8.9,13.88-13.43a144.6,144.6,0,0,0,26.15-4.31C941.07,850.53,937.92,854,934.72,857.41Zm-13.65-9,5.35-5.31,22-21.83c3.46-3.44,6.9-6.91,10.39-10.32a161.86,161.86,0,0,0,18.56-3.64c1.64-.43,3.26-.88,4.89-1.33-1.47,1.52-2.94,3-4.38,4.59l-10.84,11.68-19.5,21.18A149,149,0,0,1,921.07,848.44Zm55.69-43.62c-4.85,1.22-9.75,2.25-14.67,3q4.26-4.1,8.6-8.11c3.79-3.5,7.68-6.89,11.59-10.27s7.84-6.73,11.83-10,8.07-6.46,12.29-9.45c7.37-1.34,14.67-3.08,21.86-5.14-5.45,4-10.65,8.35-15.78,12.75-8,7-16,14-23.47,21.55-1,1-2.06,2.08-3.09,3.11C982.88,803.19,979.83,804.05,976.76,804.82Zm16.89-25.93c-4,3.23-8,6.54-12,9.88s-7.9,6.68-11.74,10.15c-3.38,3-6.71,6.12-10,9.23-2.54.36-5.09.65-7.65.85a146.85,146.85,0,0,1-16,.55l3-2.58,11.42-9.74c1.91-1.61,3.78-3.28,5.73-4.85s3.9-3.13,5.87-4.66c3.94-3.08,8-6.08,12-9,3-2.06,6-4.06,9-6,2.71-.15,5.42-.36,8.11-.64,4.56-.47,9.09-1.12,13.6-1.92C1001.2,773,997.39,775.91,993.65,778.89ZM974,778.17q-6.21,4.25-12.18,8.82c-2,1.52-4,3-5.94,4.61s-3.86,3.18-5.8,4.77L938.52,806l-4.2,3.5c-2.28-.08-4.56-.22-6.82-.43a101.81,101.81,0,0,1-14.86-2.52c13.45-10.32,27.25-20.19,42-28.53,3.25-1.82,6.55-3.58,9.9-5.23a159.16,159.16,0,0,0,17.61.09C979.4,774.57,976.67,776.35,974,778.17Zm-19.73-.86c-15.22,8.37-29.47,18.37-43.34,28.78-2.53-.68-5-1.45-7.5-2.35-3-1.07-5.91-2.27-8.8-3.57l4.09-2.52c3.94-2.39,7.8-4.89,11.83-7.13,8-4.54,16.14-8.84,24.52-12.64,5.34-2.41,10.78-4.63,16.33-6.5q5.9.9,11.83,1.31C960.2,774.15,957.21,775.7,954.26,777.31Zm-51.78,29.07c1.86.67,3.75,1.27,5.65,1.82l-1.85,1.4-38.56,29.51q-3.33-1.58-6.56-3.32c-3.84-2.09-7.6-4.33-11.28-6.69C862.2,821,874.52,812.82,887,804.88l4.78-2.93C895.24,803.58,898.82,805.07,902.48,806.38ZM866.59,798c-8,3.7-15.69,7.9-23.48,12q-5.79,3-11.52,6.08c-4.41-3.45-8.74-7-13-10.64,9.59-4.21,19.24-8.3,29-12.15,3.88-1.54,7.74-3.13,11.63-4.63,1.81-.68,3.62-1.33,5.44-2q5.51,3.57,11.17,6.9Q871.2,795.73,866.59,798Zm-7.82-10.6c-3.92,1.46-7.81,3-11.72,4.49-10.07,3.87-20,8-29.92,12.25q-5.64-4.83-11.13-9.84,10.95-3.59,22-6.86l5.69-1.76q2.87-.81,5.74-1.56,5.76-1.51,11.57-2.81l4.37-.94c.94.67,1.88,1.35,2.83,2q2.55,1.74,5.13,3.44C861.82,786.3,860.29,786.83,858.77,787.37Zm-.59-8.65-.18-.12h.83Zm-4,.77-3.4.68-1.45.32q-8.09-.42-16.18-.78,4.73-.62,9.47-1.12,5.11-.06,10.23,0Zm-5,1c-3.37.72-6.72,1.48-10.06,2.31-1.93.48-3.86,1-5.79,1.49L827.6,786q-11.58,3.3-23,7-3.06-2.79-6.09-5.62L797,786c3.88-.8,7.75-1.57,11.64-2.32s7.74-1.42,11.63-2l5.89.24-5.26-.34c3.24-.52,6.48-1,9.74-1.44Q839.9,780.25,849.18,780.52Zm-34.29.57-11.55-.74q4.81-.37,9.64-.66c3.37,0,6.75.11,10.12.18Q819,780.44,814.89,781.09ZM806.6,781l7,.28-5.21.88c-4.27.78-8.53,1.6-12.78,2.43-.73-.68-1.46-1.36-2.18-2.05,2.57.07,5.15.13,7.72.17-2.65-.11-5.29-.24-7.94-.38l-1.1-1.05c2.34-.22,4.68-.44,7-.63C801.59,780.79,804.09,780.92,806.6,781Zm-35.59.69-3.61.37-6.53.66-2.94-.11c-3-.11-5.94-.18-8.9-.32l-8.9-.47-3.36-.18-.93-1.13,7.25-.29C752.39,780.75,761.7,781.27,771,781.71Zm-137.7-4.21,5.58.41c-2.08.15-4.17.33-6.25.52-6.2-.45-12.4-.93-18.59-1.51l-4.06-.35c-.12-.18-.24-.36-.35-.54l3.73,0ZM408.37,755.14l2.73,1.38c.55.59,1.09,1.2,1.64,1.79l-3.56-2.45Zm24.08,19.58-2-2q2.28,1.35,4.59,2.65,2.74,3.12,5.54,6.19c-1.72-1.27-3.44-2.54-5.15-3.84Zm26.44,22.39c1.65,1,3.31,2,5,3q3.86,4.44,7.81,8.8c-1.22-.91-2.43-1.81-3.64-2.73l-.17-.14Q463.34,801.62,458.89,797.11ZM493,827.59c-.76-.77-1.5-1.56-2.25-2.33,1.54,1,3.08,1.89,4.64,2.82l1.22,1.49c1.79,2.15,3.63,4.26,5.47,6.37-1.08-.84-2.16-1.67-3.23-2.52Q495.91,830.51,493,827.59ZM521.35,853c2.23,1.42,4.49,2.81,6.77,4.15q3.72,4.46,7.52,8.83c-1.31-1-2.61-2-3.9-3l-3.43-2.8C526,857.82,523.64,855.44,521.35,853ZM580,901.1q-4.07-4.38-8-8.86c.9.43,1.81.86,2.72,1.27,3.09,1.39,6.25,2.67,9.46,3.81q5.76,6.91,11.71,13.69c1,1.14,2,2.27,3,3.4q-4.25-2-8.36-4.36c-1.55-.88-3.09-1.8-4.62-2.72Q582.91,904.24,580,901.1Zm30,21.18c1.54.55,3.1,1.07,4.66,1.55,2,.6,4,1.12,6,1.59q7.74,8.76,15.88,17.17-2.37-.83-4.69-1.77-3.2-1.3-6.31-2.78C620.19,933,615,927.67,610,922.28Zm50,38.45c-4.55-3.93-9-8-13.31-12.19A92.34,92.34,0,0,0,658,950.37q8.18,8.29,16.93,16a85.06,85.06,0,0,1-11.87-3C662,962.47,661,961.6,660,960.73Zm24.34,9.68a95,95,0,0,0,13.81-.17A198,198,0,0,0,716,983.34a82,82,0,0,1-14.53-.41A197.43,197.43,0,0,1,684.32,970.41Zm40.48,14.86,1-.14a134.44,134.44,0,0,0,15.29-3.38c1.41-.4,2.8-.83,4.18-1.28a110.3,110.3,0,0,0,20.93,9,113,113,0,0,1-21.35,4.86l-.5,0A121.76,121.76,0,0,1,724.8,985.27Zm73.81,5a88.4,88.4,0,0,1-22.74-1.33l.36-.14a210.73,210.73,0,0,0,26.68-13.22,85.39,85.39,0,0,0,12.49.19,106.66,106.66,0,0,0,18.67-2.8c-3.29,2.14-6.64,4.22-10,6.21a201.09,201.09,0,0,1-20.7,10.64C801.77,990,800.19,990.15,798.61,990.25Zm75.89-36.44a193.89,193.89,0,0,1-25.33,11.67l3.11-2.42c8.42-6.62,16.46-13.67,24.33-20.89,5.07-2.06,10-4.38,14.9-6.86,5.38-2.76,10.64-5.71,15.83-8.78-4.38,4.31-8.81,8.57-13.33,12.73q-5.21,4.8-10.56,9.43C880.49,950.44,877.52,952.16,874.5,953.81Zm70-52.71c.78-.6,1.55-1.21,2.32-1.82q-2.67,2.54-5.37,5Q943,902.72,944.5,901.1Zm36.67-39.26-2.63,2c.28-.32.57-.64.85-1l10.68-12.19,5.33-6.1,1.38-1.63,1-.71q9.88-7,19.5-14.36l-.95,1-5.33,5.86-5.45,5.74-6,6.29C993.46,851.85,987.33,856.87,981.17,861.84Zm71.17-64c-3.64,2.93-7.35,5.79-11,8.7q-4.35,3.39-8.67,6.8l6.12-6.83,10.58-11.79,3.43-3.82c1.16-.81,2.31-1.63,3.48-2.43l10.92-7.61,8-5.84c-1.61,1.55-3.23,3.07-4.78,4.67l-5.38,5.48-10.77,10.94-.91.94Zm60.82-53.75c-1.44,1.22-2.86,2.47-4.28,3.72l-10.59,8-8.74,6.61q4.52-4.36,9.1-8.65c3.76-3.46,7.56-6.88,11.46-10.18,3-2.48,6-4.9,9.09-7.16l.91.26-.9-.26c1-.73,2-1.44,3.07-2.14,2-1.27,4-2.5,6-3.64a19.69,19.69,0,0,1,2.17-.09C1124.43,734.71,1118.74,739.34,1113.16,744.07Zm-1.2-3.23,4.07-2.64c-2.13,1.6-4.21,3.25-6.27,4.94-4,3.26-7.8,6.64-11.6,10.06-4.89,4.34-9.61,8.86-14.31,13.41-2.3,1.67-4.62,3.32-6.92,5l-10.79,7.76-7.63,5.23L1060,783c3.61-3.85,7.25-7.67,11-11.41s7.52-7.4,11.36-11l4-3.72Q1099.28,749,1112,740.84Zm-18.65,9.79c4.27-3.66,8.66-7.18,13.27-10.4,2.29-1.57,4.63-3.08,7.06-4.43a20.4,20.4,0,0,1,3.31.17l-5.78,3.63Q1102.3,745.21,1093.31,750.63ZM1081.84,760q-5.83,5.37-11.51,10.91c-3.78,3.7-7.47,7.49-11.13,11.31l-5.1,5.39c-3.3,2.26-6.58,4.55-9.91,6.75l-11.12,7.27-2.16,1.41,1.31-1.53c3.51-4.1,7-8.2,10.62-12.22s7.21-8,10.94-11.91c1.21-1.26,2.44-2.5,3.67-3.75q5.88-3.28,11.73-6.6c4.74-2.76,9.45-5.57,14.15-8.39C1082.83,759.1,1082.33,759.55,1081.84,760Zm-28.72,16.74c-3.78,3.86-7.47,7.82-11.1,11.82s-7.21,8-10.77,12.1l-4.41,5c-1.63,1.07-3.26,2.13-4.92,3.16q-5.62,3.51-11.36,6.86c-2,1.15-4,2.29-5.95,3.4L1015,806.8l5.28-6.23,5.38-6.13q3.39-3.84,6.85-7.61c7.51-3.65,14.86-7.6,22.14-11.65Zm-28.24,17-5.45,6.09-5.36,6.17-10.69,12.35-2.45,2.84c-7.16,3.9-14.46,7.54-21.9,10.84,2.63-3.08,5.26-6.17,7.92-9.24l10.55-12.31c3.51-4.11,7-8.19,10.66-12.2.4-.44.82-.88,1.22-1.33q7.77-3,15.38-6.44,2.68-1.2,5.32-2.45C1028.34,789.91,1026.6,791.8,1024.88,793.7Zm-28.34,15.9-10.7,12.18q-5.1,5.82-10.15,11.68c-4.24,1.81-8.52,3.52-12.86,5.09-4,1.46-8.1,2.82-12.22,4l17.53-19.32,10.69-11.79c1.88-2.07,3.79-4.1,5.71-6.12q11.43-3.3,22.52-7.54Q1001.71,803.64,996.54,809.6Zm4.06-12.07c-4.12,1.43-8.26,2.81-12.43,4.09.54-.56,1.07-1.12,1.62-1.67,7.4-7.58,15.27-14.7,23.18-21.77,5.4-4.76,10.9-9.44,16.69-13.72,2.75-.8,5.49-1.63,8.2-2.52,4.54-1.48,9-3.08,13.49-4.75a206.86,206.86,0,0,0-21,17.41q-6,5.52-11.75,11.19c-2.62,2.59-5.17,5.25-7.69,7.93C1007.49,795,1004.06,796.32,1000.6,797.53Zm66.85-49.11-2.66,1.16C1065.66,749.17,1066.55,748.78,1067.45,748.42Zm-15.09,3.46a33.67,33.67,0,0,1,10.4-1.61c-.51.25-1,.52-1.53.79s-1.25.51-1.89.75c-7.3,2.9-14.7,5.57-22.18,7.93l-1.33.41c.74-.49,1.48-1,2.23-1.45a78.7,78.7,0,0,1,7.37-4.06,27.71,27.71,0,0,1,3.73.45,28.3,28.3,0,0,0-3.65-.49A51.12,51.12,0,0,1,1052.36,751.88ZM1033.83,756a37.18,37.18,0,0,1,11-1.41,77.71,77.71,0,0,0-7,3.77c-1.17.71-2.32,1.44-3.46,2.19-6.59,2-13.25,3.79-20,5.25-.86.19-1.73.36-2.6.54,2.51-1.59,5.07-3.1,7.71-4.47,2.2-1.15,4.45-2.24,6.74-3.21,1.09.08,2.18.2,3.26.38-1-.19-2.12-.32-3.18-.42A57.86,57.86,0,0,1,1033.83,756Zm-19.2,3.34a45,45,0,0,1,11.06-.73c-2.14.9-4.25,1.89-6.31,2.94a101.8,101.8,0,0,0-8.86,5.06c-6.38,1.28-12.8,2.29-19.26,2.94l-2.89.26a116.45,116.45,0,0,1,12-6c1.24-.53,2.48-1,3.74-1.49,1.73.07,3.46.21,5.19.45-1.66-.26-3.32-.42-5-.52A65.13,65.13,0,0,1,1014.63,759.37Zm-11.42,2.94c-1,.37-2,.76-3,1.17a116.18,116.18,0,0,0-13.1,6.46,162.22,162.22,0,0,1-17.36.41,115.91,115.91,0,0,1,11.1-4.33l.67-.21a59.87,59.87,0,0,1,6.82.41,61.61,61.61,0,0,0-6.51-.51A67.65,67.65,0,0,1,1003.21,762.31ZM961,768.54a84.37,84.37,0,0,1,19-2.7,117.67,117.67,0,0,0-11.58,4.46c-3.62-.14-7.25-.42-10.85-.83l1.59-.43a72.58,72.58,0,0,1,7.66.34,71.71,71.71,0,0,0-7.17-.47Zm-3.86.52-.91.26-1.19-.16ZM940.6,771c1.44-.27,2.89-.51,4.34-.73,1.72.35,3.46.66,5.19,1-5.22,1.73-10.35,3.76-15.4,6-8.45,3.71-16.67,7.93-24.75,12.39-4.06,2.19-8,4.65-11.93,7l-4.92,3c-4.13-1.92-8.18-4-12.15-6.28l-.66-.39a345.41,345.41,0,0,1,34.93-15,172.88,172.88,0,0,1,21-6c2.78,0,5.55.14,8.32.38-2.57-.27-5.15-.43-7.72-.51C938.13,771.46,939.36,771.21,940.6,771Zm-21,1.8a137,137,0,0,1,14.17-.91A175.84,175.84,0,0,0,915,777.1,350.46,350.46,0,0,0,879,792q-5.49-3.18-10.83-6.62l2.87-1c7.91-2.67,15.9-5.09,24-7.09l1.5-.36,2.17.09-2-.13q6.23-1.5,12.52-2.62c4.25,0,8.49.2,12.73.51-3.84-.35-7.69-.58-11.54-.72Q915,773.3,919.62,772.77Zm-14,1.53q-5.43,1-10.79,2.23l-.81.2c-4.89-.3-9.79-.47-14.7-.54A206.61,206.61,0,0,1,905.62,774.3Zm-35.48,2.43c-3.34.5-6.66,1-10,1.64l-2.63-.11-1.19-.84Q863.22,776.94,870.14,776.73Zm-18.37,1,.45.34c-1.39,0-2.79,0-4.18,0Zm-20.94,1.11c-1.48.18-3,.37-4.43.57l-5-.2Q826.09,779,830.83,778.86Zm-34.26.64-2.85.21-3.54-.23h0Zm-48.67-1.14-10.43.31-3.37-.24-.38-.45C738.45,778,743.17,778.18,747.9,778.36ZM730.11,778l.17.21-3-.21h2.79ZM581.56,908.17l2.8,1.72c1.08,1.12,2.16,2.24,3.24,3.34-1.3-1.06-2.59-2.12-3.88-3.2C583,909.41,582.29,908.78,581.56,908.17Zm38.63,30.53c1.21.62,2.43,1.23,3.66,1.81,1.62,1.55,3.25,3.09,4.91,4.6-1.63-1.16-3.25-2.33-4.85-3.53C622.66,940.64,621.43,939.67,620.19,938.7ZM658,964.61c1.11.43,2.23.83,3.36,1.22q2.7,2.24,5.46,4.4Q662.33,967.58,658,964.61ZM694,984.56l.53.13c1.92.4,3.86.7,5.8.95l1.61,1q3.93,2.45,8,4.65A100.27,100.27,0,0,1,694,984.56Zm39.47,13.28a90.64,90.64,0,0,0,10.43-.56c1.83.64,3.66,1.25,5.52,1.78,2.39.69,4.81,1.27,7.24,1.77A86.37,86.37,0,0,1,733.42,997.84Zm80-4.89a115,115,0,0,1-29,6.6c3.93-1.09,7.82-2.38,11.63-3.82,2.62-1,5.22-2.06,7.78-3.18a118.81,118.81,0,0,0,22.91-5.2C822.39,989.42,818,991.31,813.42,993Zm72.21-41q-7,5.43-14.47,10.27,6.87-5.4,13.45-11.14c3.21-1.91,6.38-3.87,9.5-5.91C891.32,947.46,888.5,949.74,885.63,951.94Zm114-102-3.14,2.89,2.75-2.92q2.06-1.73,4.13-3.43Zm48.8-45.46-2,1.81,6.08-6.3,1-.77c1.45-1.18,2.88-2.38,4.31-3.58ZM1105.64,752l-1,.91,1-1,1.09-.85Zm34.26-27-.3.22c-.34.22-.67.43-1,.66l-.36.1Zm-4.15,2h0c-1.77,1.11-3.52,2.25-5.23,3.44a20.63,20.63,0,0,0-2.08,0A61.69,61.69,0,0,1,1135.75,727Zm-15.37,5.54a33.22,33.22,0,0,1,4-1.28l-7.38,4.64a20.5,20.5,0,0,0-3.22-.22A53.16,53.16,0,0,1,1120.38,732.58Zm-16.12,5.12a32.68,32.68,0,0,1,7.85-1.82l.92-.06c-2.28,1.26-4.49,2.66-6.65,4.11a176.17,176.17,0,0,0-16.11,12.56q-10.95,6.57-22,12.9l-5.63,3.12c.87-.86,1.73-1.72,2.61-2.56,7.79-7.44,15.86-14.66,24.78-20.72a83.32,83.32,0,0,1,7.37-4.45,23.14,23.14,0,0,1,6.18.84,23.37,23.37,0,0,0-6-.91A53.59,53.59,0,0,1,1104.26,737.7Zm-16.75,4.74a31.76,31.76,0,0,1,9.23-1.64c-2.38,1.26-4.69,2.65-6.94,4.12-9,6-17.19,13.13-25.09,20.5-1.6,1.5-3.17,3-4.75,4.55-7.7,4.25-15.42,8.46-23.28,12.36,3.71-4,7.49-7.87,11.35-11.67,7.77-7.6,15.88-14.92,25-20.92a74.41,74.41,0,0,1,7-4.09,25.83,25.83,0,0,1,6.25.7,25.65,25.65,0,0,0-6.11-.78A52.63,52.63,0,0,1,1087.51,742.44Zm-8.22,3.23c-2.23,1.15-4.4,2.41-6.5,3.76-9.18,5.92-17.4,13.18-25.27,20.7-4.51,4.34-8.89,8.82-13.19,13.37-3.47,1.69-7,3.32-10.51,4.86s-7.12,3.06-10.72,4.49c2-2.16,4.06-4.31,6.14-6.41,3.81-3.82,7.69-7.59,11.6-11.3a198.9,198.9,0,0,1,22.07-18.54c2.41-.93,4.82-1.87,7.22-2.84s4.79-2,7.15-3l.77.13-.75-.14L1071,749l7.44-3.33Z"/><path d="M1199.12,682.58c-14.73.16-29.18,6.16-43.18,11.13-1.91.65-2.92,1.08-10.43,4-3.46,1.4-7,2.71-10.38,4.18l-10.3,4.34c-1.72.71-3.43,1.46-5.16,2.15l-5.18,2.05-10.37,4.09c-3.45,1.38-7,2.56-10.5,3.75-7,2.36-14.18,4.39-21.37,6.27s-14.44,3.51-21.74,4.83a191.6,191.6,0,0,1-44.23,2.84c-14.8-.45-29.42-3.25-43.69-7.25a271.11,271.11,0,0,1-41.67-15.38c-13.37-6.4-26.55-13.37-39.31-20.94-28.93-17.62-64.48-43.34-91.48-63.81l-17.65-13.69L754.8,597.51l-8.86-6.82-4.43-3.41c-1.5-1.12-3-2.2-4.52-3.3l-18.12-13.14c-3-2.23-6.13-4.24-9.21-6.34l-9.29-6.24L691.09,552q-4.7-3-9.46-6c-6.34-3.92-12.76-7.74-19.31-11.32a301.7,301.7,0,0,0-40.7-18.6,173.65,173.65,0,0,0-21.43-6.42,147.39,147.39,0,0,0-22.11-3.27,160.12,160.12,0,0,1,43.26,10.43A302.76,302.76,0,0,1,661.61,536q9.71,5.49,19.13,11.48c3.14,2,6.27,4,9.37,6l9.21,6.31,9.21,6.32c3.05,2.13,6.18,4.15,9.13,6.41l18,13.27c1.49,1.11,3,2.2,4.48,3.33l4.39,3.45,8.79,6.89,17.62,13.74L788.51,627c27,20.56,62.49,46.44,91.57,64.28,12.89,7.6,26.11,14.54,39.63,21a274,274,0,0,0,42.15,15.41c14.41,4,29.3,6.8,44.32,7.21a218.77,218.77,0,0,0,22.47-.21,175.69,175.69,0,0,0,22.29-2.95c7.35-1.4,14.63-3.13,21.84-5.07s14.38-4.06,21.45-6.5c3.53-1.23,7.06-2.46,10.52-3.87l10.38-4.21,5.18-2.11c1.73-.7,3.43-1.46,5.14-2.2l10.25-4.44c3.41-1.52,6.87-2.87,10.3-4.32l5.15-2.13c5-2.07,19.38-7.57,26.17-9.67a79.25,79.25,0,0,1,21.81-4.14,35.25,35.25,0,0,1,11,1.11,22.17,22.17,0,0,1,9.51,5.59,22.17,22.17,0,0,0-9.45-5.8A35.2,35.2,0,0,0,1199.12,682.58Z"/><path d="M1219.37,676.41a36.13,36.13,0,0,0-10-3.43,55.29,55.29,0,0,0-10.58-.94,129.81,129.81,0,0,0-15.87,1.33c-1.21.16-1.13.16-10.45,1.82-3.42.61-4.21.73-5.21,1-11.27,2.8-11.19,2.31-30.69,8.42a211.89,211.89,0,0,1-30.72,7.41c-6.94,1.17-13.92,2.06-20.93,2.72-7,.47-14,1-21.06,1.36a224.14,224.14,0,0,1-41.95-2.82,309.23,309.23,0,0,1-41-9.57,458,458,0,0,1-78-32.11c-24.79-13.35-49.43-27.2-73.3-42.17-12.1-7.25-23.65-15.33-35.39-23.13-5.82-4-11.63-8-17.56-11.9s-11.9-7.64-17.95-11.31q-18.13-11-37-20.77c-12.57-6.47-25.32-12.59-38.4-18a309.87,309.87,0,0,0-40.2-13.45,216.05,216.05,0,0,0-41.79-6.7,200.21,200.21,0,0,1,21,2.77q10.41,1.89,20.61,4.7a307.25,307.25,0,0,1,39.85,14,575.14,575.14,0,0,1,74.74,39.38c12,7.43,23.67,15.29,35.22,23.37,11.76,7.86,23.33,16,35.43,23.32,23.92,15.1,48.49,29,73.37,42.52a458.76,458.76,0,0,0,78.56,32.06,309.92,309.92,0,0,0,41.42,9.52,215.25,215.25,0,0,0,42.44,2.57c3.55-.17,7.06-.51,10.6-.76l10.58-.82c7-.74,14.07-1.69,21-2.94s13.9-2.77,20.74-4.66c5.22-1.45,5.63-1.68,20.24-6.3,6.67-2.29,13.54-3.83,20.35-5.64.85-.24,1.72-.4,2.58-.56l7.78-1.52c2.75-.51,4.06-.91,10.42-1.7,6.09-.72,13.24-1.45,21-.09a36,36,0,0,1,10,3.19,25.5,25.5,0,0,1,8.25,6.48A25.48,25.48,0,0,0,1219.37,676.41Z"/><path d="M1227.44,668.9a40.6,40.6,0,0,0-8.68-5.2,54.33,54.33,0,0,0-9.65-3.12c-7.67-1.74-20-3.29-30.23-2.37l-10.1.74c-9.42.85-15.8,2.66-20,3.37-8.67,1.55-14,1.59-20,2-6.9.4-8,.48-10,.5a198.8,198.8,0,0,1-20.1-.75c-6.71-.53-13.43-.92-20.09-1.65s-13.32-1.66-19.92-2.82c-3.31-.58-6.6-1.19-9.89-1.87l-19.66-4.42c-23.47-6.24-16.73-4.33-29.11-8.14-27-8.31-38.06-12.83-57-20.08-62.15-26.45-65.11-28.54-91.61-42.14-12-6.07-23.7-12.63-35.2-19.68q-8.73-5.18-17.72-9.85c-3-1.59-6.05-3-9.08-4.46l-9.13-4.39-9.12-4.38c-3.07-1.41-6.16-2.76-9.27-4.08-6.23-2.61-12.49-5.15-18.86-7.38-12.74-4.41-25.38-9.15-38.38-12.81a366.51,366.51,0,0,0-39.41-9.12A309.67,309.67,0,0,0,625,502.25c6.72.43,13.42,1.14,20.09,2.05s13.31,2,19.92,3.26a367.41,367.41,0,0,1,39.14,9.74c12.9,3.8,25.47,8.64,38.13,13.18,6.32,2.29,12.53,4.87,18.69,7.53q4.62,2,9.18,4.16l9,4.45,9,4.46c3,1.5,6.05,2.92,9,4.53,5.93,3.16,11.8,6.42,17.56,9.86,11.44,7.08,23.25,13.77,35.25,19.87l18,9.3c19.13,9.8,54.16,24.86,55.17,25.28,22.1,9.33,14.5,6.34,42.33,16.82,23,7.8,41.83,14.41,72.83,21.3a293.28,293.28,0,0,0,40,6.65c6.73.67,13.47,1,20.2,1.45a201.08,201.08,0,0,0,20.26.56c2.15,0,3.39-.16,10.13-.62,6-.44,11.39-.54,20.16-2.2,4.05-.76,4.7-1.09,9.88-2.11,7.91-1.51,10.61-1.59,20-2.43a91,91,0,0,1,20.07.32c3.33.41,6.67.84,10,1.53a53.48,53.48,0,0,1,9.6,2.93,39.81,39.81,0,0,1,8.72,5,29.52,29.52,0,0,1,7,7.23A29.51,29.51,0,0,0,1227.44,668.9Z"/><path d="M1227.55,654.43a63.09,63.09,0,0,0-17-9.6c-21.4-8.19-41.62-4.72-48.25-4.36a164.83,164.83,0,0,1-29-1.24c-9.95-1.22-13.79-2.18-19.14-3.2-10.85-2.17-4.24-.63-19-4.15-27.83-6.83-110.6-30.49-149.47-43.55-4.5-1.53-6.18-2.14-25.24-8.82-1-.39-23.61-9.11-24.93-9.66-23-9.94-25.26-10.72-39.87-17.93-5.8-2.85-11.52-5.95-17.42-8.75a365,365,0,0,0-36.08-15,469.92,469.92,0,0,0-75.46-19.7,602.32,602.32,0,0,0-77.52-7.84l19.43,1.42c1.61.14,3.24.19,4.85.39l4.84.55L688,504.1c3.22.38,6.45.68,9.66,1.13l9.62,1.52,9.61,1.52,4.8.76,4.78.9a470.66,470.66,0,0,1,74.94,20.42c12.14,4.48,24.08,9.52,35.73,15.15,5.83,2.79,11.52,5.9,17.36,8.8,65.94,32.83,134.18,50.73,202.41,70,6.26,1.73,12.5,3.53,18.81,5.12l9.45,2.43,2.36.61,2.38.54,4.76,1.08,9.52,2.17c3.18.67,6.4,1.2,9.6,1.81,5.38,1,9.27,1.89,19.3,3,22.19,2.49,33.65.48,39,0,12.83-1.09,26,0,38.16,4.44a62.48,62.48,0,0,1,17,9.2,44.67,44.67,0,0,1,12.57,14.62A44.8,44.8,0,0,0,1227.55,654.43Z"/><path d="M1229,638.74a36.65,36.65,0,0,0-3.71-3c-1.31-.92-2.68-1.7-4-2.51-10.85-6.42-23-10.93-35.72-12.12-1.57-.16-3.18-.24-4.74-.3s-3.12-.18-4.68-.33c-3.11-.28-6.21-.69-9.31-1.18-6.18-1-12.31-2.34-18.41-3.88l-9.15-2.24-9.13-2.38c-3-.81-6.11-1.58-9.11-2.41s-6-1.79-9-2.78l-35.68-12.34c-5.93-2-11.88-4.2-17.92-6.08s-12.18-3.49-18.32-5l-18.37-4.33c-33.88-8-45.17-11-54.79-14l-18.07-5.5c-58.9-17.82-71-25.17-88.88-31.53a366,366,0,0,0-36.3-10.81c-12.31-2.76-24.56-5.78-37-8l-9.28-1.78c-3.09-.6-6.2-1.17-9.32-1.64-6.24-1-12.51-1.71-18.79-2.29L730.5,501l-9.43-.67c-3.14-.19-6.29-.33-9.44-.44-12.6-.42-25.18-.37-37.78-.51l18.88.6c6.3.18,12.58.37,18.87.7q4.71.24,9.41.61l9.4.83,18.79,1.72c6.25.68,12.48,1.47,18.67,2.5,3.1.5,6.17,1.1,9.26,1.74l9.25,1.87c12.37,2.3,24.54,5.45,36.77,8.32,6.09,1.54,12.13,3.28,18.13,5.11s12,3.78,17.86,5.92c19,6.84,28.35,13.33,88.9,31.89,28,8.63,26.08,8.55,91.47,23.7,6.11,1.43,12.17,3,18.15,4.84s11.89,4,17.87,6c11.94,4.13,23.81,8.15,35.8,12.09,3,1,6,1.88,9.1,2.7s6.12,1.55,9.18,2.32c11.25,2.81,7.06,1.8,18.38,4.43a183.65,183.65,0,0,0,28,4.8c1.58.13,3.16.22,4.75.28s3.12.11,4.68.23c12.46.95,24.55,5.16,35.45,11.35,1.36.78,2.74,1.54,4,2.4a35.5,35.5,0,0,1,3.7,2.87,58.64,58.64,0,0,1,6.46,6.81,52.92,52.92,0,0,1,9.18,16.35,52.94,52.94,0,0,0-8.83-16.63A58,58,0,0,0,1229,638.74Z"/><path d="M1229.09,624.21c-2.41-1.87-4.77-3.82-7.23-5.64s-5-3.56-7.61-5.17a69.1,69.1,0,0,0-16.76-7.66c-1.48-.44-3-.8-4.5-1.12s-2.94-.68-4.41-1.07c-2.92-.8-5.83-1.65-8.7-2.69-5.73-2.05-11.47-4-17.19-6.22l-8.58-3.21-8.68-3-17.29-6-4.31-1.49L1111,576.05c-5.69-2.19-11.45-4.28-17.17-6.42A288.35,288.35,0,0,0,1058.69,559c-6-1.45-11.94-2.63-17.91-4l-17.9-3.86-8.94-1.92c-3-.68-5.92-1.45-8.87-2.17l-17.74-4.41-17.8-4.45L951.69,534c-6-1.35-11.85-2.87-17.77-4.32-6.64-1.65-18.23-4.32-35.18-9.84C892.89,518,887,516.41,881,515c-11.92-2.85-24-5.07-36.08-6.76l-18.14-2.64-18.15-2.43c-6-.8-12.1-1.69-18.19-2.3-3.05-.32-6.09-.59-9.14-.83s-6.1-.48-9.16-.55l-18.32-.66-4.58-.17-4.58,0-9.15-.06c-12.22-.11-24.42-.08-36.63-.07l36.61.86,9.15.23,4.58.11,4.57.24,18.26,1c6.09.3,12.15.92,18.2,1.59s12.07,1.63,18.12,2.49l18.12,2.64,18.07,2.84c6,.9,12,2,18,3.14s11.93,2.42,17.83,3.87,11.77,3.06,17.54,4.91c17,5.62,28.6,8.33,35.3,10,5.94,1.47,11.86,3,17.8,4.39l17.82,4.23,17.71,4.5c5.89,1.49,11.88,2.91,17.82,4.37,3,.71,5.94,1.48,8.93,2.14l9,1.89,17.92,3.79c6,1.3,12,2.46,17.87,3.88,23.81,5.19,46.19,15,69.32,23l17.39,5.8,8.67,2.86,8.6,3.11c5.72,2.11,11.54,4.05,17.32,6.05,2.89,1,5.85,1.84,8.82,2.61,1.49.38,3,.73,4.5,1s3,.64,4.4,1a67.47,67.47,0,0,1,16.59,7.21c2.61,1.54,5.14,3.22,7.62,5s4.87,3.66,7.31,5.49a41.62,41.62,0,0,1,12,13.48,64.84,64.84,0,0,1,6.82,16.9A65,65,0,0,0,1241,638.1,42.09,42.09,0,0,0,1229.09,624.21Z"/><path d="M1240.25,623.2q-1.27-1.85-2.71-3.55c-1-1.14-2-2.2-3-3.28-2-2.15-4-4.36-6.09-6.46a60.61,60.61,0,0,0-6.71-5.88c-4.81-3.45-9.39-7.25-14.74-10-1.32-.7-2.7-1.33-4.06-1.9s-2.67-1.19-4-1.83c-2.65-1.26-5.25-2.65-7.91-3.95-5.32-2.6-10.63-5.27-16-7.74s-10.63-5.1-16.13-7.4c-2.74-1.16-5.56-2.17-8.3-3.22l-8.28-3.12-16.58-6.27c-5.53-2.08-11.14-4-16.71-6l-2.1-.74-2.11-.67-4.24-1.34-8.48-2.66c-2.81-1-5.71-1.6-8.56-2.38l-8.6-2.26c-2.86-.78-5.74-1.44-8.62-2.1l-8.64-2c-5.76-1.36-11.54-2.58-17.31-3.86-11.57-2.5-23-5.2-34.59-7.75-5.81-1.2-11.65-2.21-17.46-3.24l-17.42-3.11-34.9-6.2c-2.9-.54-5.78-1.1-8.66-1.71s-5.76-1.28-8.68-1.84c-5.83-1.15-11.7-2.06-17.56-2.87l-17.59-2.21c-5.86-.71-11.74-1.47-17.64-2s-11.8-1-17.68-1.44l-17.65-1.4c-5.77-.47-11.57-.82-17.36-1.24l4.85.23,8.49.37,8.5.48,17,1c11.31.84,22.63,1.55,33.93,2.61s22.57,2.13,33.86,3.23c5.64.58,11.27,1.27,16.9,1.9l8.45,1,8.43,1.11,8.43,1.11c2.81.35,5.62.73,8.42,1.17l16.82,2.49c11.18,1.85,22.38,3.64,33.51,5.78,22.29,4.09,44.47,8.82,66.41,14.49A623.67,623.67,0,0,1,1152,556.9l7.89,3.12,4,1.56c1.31.54,2.6,1.12,3.89,1.69l7.78,3.4c1.3.55,2.58,1.17,3.84,1.8l3.81,1.86a224.45,224.45,0,0,1,29.38,16.89l6.91,4.91c2.24,1.72,4.43,3.5,6.55,5.36a94.58,94.58,0,0,1,11.76,12.17,61.3,61.3,0,0,1,8.73,14.45,44.08,44.08,0,0,1,3.54,16.5,44.13,44.13,0,0,0-3.12-16.67,61.81,61.81,0,0,0-8.53-14.77,95,95,0,0,0-11.62-12.52q-3.17-2.88-6.51-5.55l-6.87-5.09A223.49,223.49,0,0,0,1184,568.64l-3.82-1.93c-1.26-.65-2.54-1.28-3.84-1.85l-7.78-3.52c-1.3-.58-2.58-1.19-3.89-1.75l-4-1.61-7.9-3.23c-1.31-.56-2.64-1-4-1.54l-4-1.48-8-3c-5.38-1.83-10.79-3.59-16.18-5.4l-16.33-4.93-16.44-4.52c-22-5.78-44.22-10.62-66.56-14.79-11.17-2.11-22.4-3.86-33.61-5.66L970.83,511c-2.81-.42-5.63-.79-8.44-1.14l-8.46-1.07c-22.54-2.82-45.14-5.22-67.8-6.81-11.32-.92-22.66-1.5-34-2.2l-17-.79-8.51-.38-8.51-.26-17-.44-17-.21-8.51-.09-8.52,0-17,.1,6.27.13c-10.67-.09-21.33,0-32,.06l17.72.36q8.85.13,17.71.4c5.9.17,11.8.27,17.7.5l17.69.85c5.9.19,11.77.75,17.65,1.22s11.75.91,17.64,1.46l17.66,1.6c5.89.54,11.76,1,17.62,1.65s11.68,1.41,17.54,2.19l17.56,2.3c5.83.83,11.64,1.75,17.4,2.91,2.88.56,5.73,1.24,8.64,1.86s5.81,1.21,8.71,1.76l34.86,6.33,17.45,3.18c5.82,1.06,11.62,2.08,17.37,3.29,11.47,2.49,23.06,5.17,34.59,7.62,5.77,1.26,11.55,2.46,17.3,3.79l8.63,2c2.87.65,5.75,1.29,8.59,2.06l8.55,2.21c2.84.77,5.72,1.4,8.52,2.34l8.43,2.61,4.22,1.31,2.11.65,2.08.73c5.56,2,11.14,3.85,16.69,5.88l16.63,6.07,8.33,3c2.79,1,5.54,2,8.26,3.09,5.43,2.19,10.76,4.74,16.16,7.18s10.68,5,16,7.52c2.66,1.27,5.29,2.63,8,3.88,1.35.62,2.71,1.23,4.09,1.8s2.67,1.14,4,1.8c5.24,2.56,9.89,6.27,14.73,9.6a61.36,61.36,0,0,1,6.72,5.66c2.11,2,4.12,4.22,6.18,6.32,1,1.07,2.08,2.1,3,3.2a41.74,41.74,0,0,1,2.74,3.44,53.82,53.82,0,0,1,4.5,7.56,52.44,52.44,0,0,1,5.11,16.84,52.62,52.62,0,0,0-4.7-17A55.06,55.06,0,0,0,1240.25,623.2Z"/></svg>