<svg id="Abstract_Shape" data-name="Abstract Shape" xmlns="http://www.w3.org/2000/svg" viewBox="0 0 1500 1500"><path d="M1288.56,641.46c-9-29.93-36-47.88-59.77-63.73-16-10.69-31.2-20.78-40-33.16s-10.08-27.17-11.57-44.35c-1-11.3-2-23-5.35-34.8-12.21-43.11-50.53-63.08-84.34-80.69l-3-1.57c-11.13-5.81-22.6-11.38-33.69-16.77-26.15-12.7-53.19-25.83-76.52-42.56-9-6.48-17.37-14-26.18-21.92-9.8-8.83-19.93-18-31.41-25.86C876.37,248.29,820.6,234.84,746.24,235c-69.5.12-144.62,13.41-236.42,41.81-4.7,1.45-9.51,2.89-14.6,4.42-28.26,8.46-60.29,18-86.59,34.23-32.19,19.81-50.05,46.6-53.08,79.62C353,422.86,341.48,438,318.22,459.44c-3.58,3.31-8.76,7.47-14.75,12.3-27.55,22.19-65.29,52.59-59.75,86.09,4.17,25.17,28.89,39.62,50.69,52.38,26.94,15.75,37.81,24.22,35.34,35.94-3.11,14.73-20.62,25.93-39.16,37.78-24.42,15.61-52.11,33.32-52.59,65.85-.57,38.58,1.84,72.47,7.38,103.61,1.88,10.58,2.88,21.53,4,33.13,1.91,20.94,3.9,42.59,11.43,63.24,14.56,40,58.06,59.55,96.44,76.84,12.16,5.48,23.64,10.65,33,16l4.41,2.48c12.7,7.12,28.51,16,33.26,27.1,3,7,2,15.35.95,25-.18,1.61-.36,3.22-.52,4.83-3.26,31.8,5.76,54,29.24,71.91,29,22.13,63.88,38.38,87.6,48.68C608.77,1250.23,679.6,1264.89,750,1265h.8a525.56,525.56,0,0,0,194.9-37.87c65.55-26.46,122.4-65.77,164.41-113.69,36.87-42,69.66-95.39,97.47-158.52,15.18-34.48,24.5-69.41,30.93-96,2.9-12,7.36-24,12.08-36.77,8.47-22.82,17.23-46.42,17.43-72,.09-11.93,5.2-25,10.61-38.9C1286.8,690.21,1296.09,666.4,1288.56,641.46Zm-37.9,58.86c-6.15,15.79-12.52,32.11-12.66,49.56-.16,20.36-7.64,40.51-15.55,61.85-4.82,13-9.8,26.41-13.13,40.16-9.1,37.68-18.12,65.73-29.22,90.94-26.57,60.33-57.71,111.08-92.57,150.84-38.93,44.4-91.86,80.93-153.08,105.64A495.7,495.7,0,0,1,750,1235c-66.31-.11-133-13.9-192.92-39.9-22.29-9.67-55-24.86-81.34-45-15.21-11.62-19.82-23.4-17.61-45,.16-1.51.33-3,.5-4.52,1.36-12.15,2.91-25.92-3.18-40.18-8.76-20.52-29.51-32.15-46.19-41.49L405,1016.5c-10.59-6-22.7-11.48-35.51-17.25-33-14.86-70.36-31.69-80.59-59.76-6.19-17-7.91-35.8-9.74-55.71-1.07-11.71-2.18-23.81-4.28-35.65-5.2-29.23-7.46-61.25-6.92-97.91.23-15.29,14.79-25.7,38.75-41,21.87-14,46.66-29.82,52.35-56.87,3.37-16-1.49-30.64-14.46-43.55-9.62-9.58-22.57-17.15-35.08-24.47-16.9-9.88-34.38-20.1-36.24-31.38-1-6,3.64-15.07,13-25.62,10.28-11.54,24.51-23,35.94-32.21,6.41-5.16,11.95-9.63,16.28-13.62,27.76-25.62,43.44-46.54,46.85-83.66C390.37,344,450.64,325.89,503.83,310c5.15-1.54,10-3,14.86-4.49C607.55,278,679.87,265.12,746.29,265h1.06c67.53,0,117.38,11.7,152.36,35.76,9.86,6.78,18.83,14.87,28.33,23.44,9,8.14,18.38,16.56,28.79,24,25.4,18.21,53.6,31.91,80.88,45.16,10.9,5.29,22.17,10.77,32.91,16.38l3,1.57c29.82,15.54,60.65,31.61,69.34,62.27,2.57,9.06,3.42,18.85,4.32,29.22,1.63,18.82,3.48,40.15,17,59.17,12,16.86,30.22,29,47.82,40.71,21.48,14.31,41.77,27.82,47.68,47.42C1264.38,665.15,1257.72,682.24,1250.66,700.32Z"/><path d="M576.44,600c18.71,12.23,52.51,28.87,49,55.81-2.42,18.68-20.63,35-30.23,50.19-8.34,13.22-17.24,44.22,7.77,44,20.07-.18,46.4-32.18,61-44,15.52-12.57,36.95-27.07,46.12-45.65,14.1-28.59-16.8-46.18-37.37-60.37-20.82-14.36-58-32-61.59-60.89-1.89-15.06,3.63-30.38,5.94-45.11s3.35-44.12-17.83-44c-20.23.11-41,29.9-52.83,44-10.26,12.25-28,32.28-27.78,49.8C519,569.64,558.65,588.36,576.44,600Z"/><path d="M864.7,600c19.1,15.19,42.48,31,40.27,58.39-1.37,16.9-12.8,32-18.36,47.68S880.67,750.28,903,750c19.27-.24,39.8-30.81,52.43-43.93,13-13.52,30-29.21,35.89-47.68C999.7,632,979.34,615.62,961,600c-20-17-48.52-34.47-50-63.66-.7-14.41,3.87-28.32,6.09-42.41,2.35-14.84,3-44-17.88-43.93-20.11.06-41.07,29.83-52.83,43.93-11,13.2-25.47,29.86-27.43,47.68C816.12,567.75,847.43,586.27,864.7,600Z"/><path d="M1036.71,835.55c-19.53-5.79-40.27-3.17-63.42,8a15,15,0,1,0,13.07,27c10.61-5.13,19.93-7.77,28.51-8-6.29,26.81-17.56,53.93-33.6,80.82-5.25,8.8-10.26,18-15.11,26.94-9.13,16.8-18.57,34.17-29.66,48.73-16.19,21.25-41.31,38.6-72.64,50.17-27.5,10.17-59.58,15.75-90.41,15.75h-.63c-46.59-.12-80.7-20.56-120.2-44.24-14.55-8.72-29.6-17.73-45.79-25.94-9.3-4.7-19.63-9.22-30.57-14C541.82,985.76,502.8,968.7,488,941.69c-10.84-19.77-13.76-42.6-16.86-66.76-.51-4-1-8-1.59-12.1,9.13,0,18.35,2.55,29,7.73a15,15,0,1,0,13.15-27c-22.11-10.78-42.08-13.38-62.85-8.18l-.26.07h-.06l-.35.1c-20.57,5.76-40,19.86-53.31,38.7a15,15,0,1,0,24.5,17.32,74.27,74.27,0,0,1,21.1-20.06q.46,3.54.93,7.18c3.31,25.87,6.73,52.62,20.3,77.37,19.73,36,63.73,55.22,102.56,72.2,10.54,4.6,20.5,9,29,13.28,15.25,7.72,29.83,16.46,43.93,24.91,39.67,23.78,80.69,48.36,135.54,48.5h.7c34.29,0,70.07-6.24,100.82-17.61,36.68-13.55,66.45-34.34,86.1-60.12,12.49-16.4,22.49-34.8,32.16-52.6,4.92-9,9.57-17.6,14.52-25.89,17.29-29,29.58-58.41,36.64-87.68a54.86,54.86,0,0,1,18,19.13A15,15,0,0,0,1088,875.69C1077.09,856.08,1058,841.1,1036.71,835.55Z"/></svg>