<svg id="Abstract_Shape" data-name="Abstract Shape" xmlns="http://www.w3.org/2000/svg" viewBox="0 0 1500 1500"><polygon points="1049.34 1250 1117.72 1250 1117.65 1181.54 1049.18 1181.46 1049.34 1250"/><polygon points="330.36 468.67 366.43 571.86 458.39 594.6 428.58 497.45 330.36 468.67"/><polygon points="891.08 750.55 884.5 675.81 803.77 663.9 813.24 741.43 891.08 750.55"/><polygon points="720.79 649.82 635.57 633.58 652.4 718.21 733.68 730.65 720.79 649.82"/><polygon points="1254.5 839.66 1254.5 771.27 1185.26 770.44 1185.48 839.05 1254.5 839.66"/><polygon points="1254.5 702.88 1254.5 634.49 1184.69 633.12 1184.99 701.8 1254.5 702.88"/><polygon points="1254.5 1113.22 1254.5 1044.83 1185.96 1044.68 1186.04 1113.15 1254.5 1113.22"/><polygon points="1254.5 976.44 1254.5 908.05 1185.68 907.63 1185.83 976.17 1254.5 976.44"/><polygon points="1254.5 1250 1254.5 1181.61 1186.1 1181.59 1186.11 1250 1254.5 1250"/><polygon points="905.54 969.67 976.46 972.11 973.93 901.28 901.6 897.48 905.54 969.67"/><polygon points="896.77 824.43 970.85 829.92 967.2 758.01 891.08 750.55 896.77 824.43"/><polygon points="744.85 809.82 666.99 800.68 679.33 880.98 754.3 887.33 744.85 809.82"/><polygon points="767.79 424.01 671.81 397.4 689.86 483.2 781.04 505.19 767.79 424.01"/><polygon points="912.55 1250 980.95 1250 980.66 1181.34 912.12 1181.19 912.55 1250"/><polygon points="947 464.96 859.51 446.53 868.72 523.8 952.89 539.03 947 464.96"/><polygon points="398.26 670.96 425.84 765.96 507.48 778.75 484.69 688.37 398.26 670.96"/><polygon points="571.6 366.69 467.14 331.89 496.97 429.06 595.17 457.82 571.6 366.69"/><polygon points="245.5 250 290.05 361.38 395.26 396.91 358.44 292.99 245.5 250"/><polygon points="1109.24 489.52 1030.24 479.29 1033.55 550.88 1110.71 559.34 1109.24 489.52"/><polygon points="449.18 856.87 468.27 943.69 542.55 949.37 526.77 865.75 449.18 856.87"/><polygon points="639 1250 707.39 1250 706.26 1180.53 637.58 1180.24 639 1250"/><polygon points="754.3 887.33 762.03 963.18 834.07 966.7 828.38 892.82 754.3 887.33"/><polygon points="775.78 1250 844.17 1250 843.53 1181 774.92 1180.78 775.78 1250"/><polygon points="813.24 741.43 733.68 730.65 744.85 809.82 821.44 817.74 813.24 741.43"/><polygon points="828.38 892.82 901.6 897.48 896.77 824.43 821.44 817.74 828.38 892.82"/><polygon points="483.12 1026.41 493.73 1105.03 563.59 1106.45 554.83 1029.6 483.12 1026.41"/><polygon points="502.22 1250 570.61 1250 568.85 1179.92 500.1 1179.56 502.22 1250"/><polygon points="616.27 954.51 542.55 949.37 554.83 1029.6 626.22 1032.5 616.27 954.51"/><polygon points="587.87 790.33 507.48 778.75 526.77 865.75 603.49 873.79 587.87 790.33"/><polygon points="563.59 1106.45 568.85 1179.92 637.58 1180.24 633.32 1107.74 563.59 1106.45"/><polygon points="548.1 615.17 458.39 594.6 484.69 688.37 569.4 704.12 548.1 615.17"/><polygon points="702.9 1108.89 706.26 1180.53 774.92 1180.78 772.34 1109.9 702.9 1108.89"/><polygon points="1036.55 622.16 1033.55 550.88 952.89 539.03 958.22 612.57 1036.55 622.16"/><polygon points="841.64 1110.78 843.53 1181 912.12 1181.19 910.8 1111.53 841.64 1110.78"/><polygon points="496.97 429.06 395.26 396.91 428.58 497.45 523.95 523.49 496.97 429.06"/><polygon points="706.18 567.34 689.86 483.2 595.17 457.82 616.49 546.78 706.18 567.34"/><polygon points="689.43 959.12 697.29 1035.09 768.04 1037.37 762.03 963.18 689.43 959.12"/><polygon points="1112.04 629.01 1184.69 633.12 1184.36 564.41 1110.71 559.34 1112.04 629.01"/><polygon points="979.82 1112.14 980.66 1181.34 1049.18 1181.46 1048.7 1112.61 979.82 1112.14"/><polygon points="1254.5 497.71 1183.99 495.67 1184.36 564.41 1254.5 566.1 1254.5 497.71"/><polygon points="1114.29 767.96 1185.26 770.44 1184.99 701.8 1113.24 698.55 1114.29 767.96"/><polygon points="1117.65 1181.54 1186.1 1181.59 1186.04 1113.15 1117.44 1112.95 1117.65 1181.54"/><polygon points="1117.09 1044.22 1185.96 1044.68 1185.83 976.17 1116.6 975.36 1117.09 1044.22"/><polygon points="1115.97 906.36 1185.68 907.63 1185.48 839.05 1115.2 837.23 1115.97 906.36"/><polygon points="877.05 600.23 868.72 523.8 781.04 505.19 793.04 585.16 877.05 600.23"/><polygon points="967.2 758.01 1041.6 763.81 1039.23 693.14 962.99 685.56 967.2 758.01"/><polygon points="962.99 685.56 958.22 612.57 877.05 600.23 884.5 675.81 962.99 685.56"/><polygon points="803.77 663.9 793.04 585.16 706.18 567.34 720.79 649.82 803.77 663.9"/><polygon points="616.49 546.78 523.95 523.49 548.1 615.17 635.57 633.58 616.49 546.78"/><polygon points="978.42 1042.39 1047.91 1043.46 1046.81 974 976.46 972.11 978.42 1042.39"/><polygon points="1039.23 693.14 1113.24 698.55 1112.04 629.01 1036.55 622.16 1039.23 693.14"/><polygon points="834.07 966.7 838.49 1039.35 908.61 1041.02 905.54 969.67 834.07 966.7"/><polygon points="652.4 718.21 569.4 704.12 587.87 790.33 666.99 800.68 652.4 718.21"/><polygon points="973.93 901.28 1045.39 904.25 1043.65 834.18 970.85 829.92 973.93 901.28"/><polygon points="1046.81 974 1116.6 975.36 1115.97 906.36 1045.39 904.25 1046.81 974"/><polygon points="1043.65 834.18 1115.2 837.23 1114.29 767.96 1041.6 763.81 1043.65 834.18"/><polygon points="1048.7 1112.61 1117.44 1112.95 1117.09 1044.22 1047.91 1043.46 1048.7 1112.61"/><polygon points="908.61 1041.02 910.8 1111.53 979.82 1112.14 978.42 1042.39 908.61 1041.02"/><polygon points="679.33 880.98 603.49 873.79 616.27 954.51 689.43 959.12 679.33 880.98"/><polygon points="626.22 1032.5 633.32 1107.74 702.9 1108.89 697.29 1035.09 626.22 1032.5"/><polygon points="768.04 1037.37 772.34 1109.9 841.64 1110.78 838.49 1039.35 768.04 1037.37"/></svg>