<svg id="Abstract_Shape" data-name="Abstract Shape" xmlns="http://www.w3.org/2000/svg" viewBox="0 0 1500 1500"><path d="M416.56,377.42a502.21,502.21,0,0,0-92.08,109.91,441.71,441.71,0,0,0,93.45,33.39V377.59Z"/><path d="M512.81,309.74a501.35,501.35,0,0,0-94.88,66.45v1.4a787.36,787.36,0,0,0,94.88,5.13Z"/><path d="M607.68,504.76V371.17c-32.13,9.66-61.36,11.33-94.87,11.55V527.85C549,526.17,575.66,521.9,607.68,504.76Z"/><path d="M702.56,252.23a497.93,497.93,0,0,0-94.88,18.32V371.17c31.81-10,63.38-20.54,94.88-31.43Z"/><path d="M797.44,387.71V306.38c-31.64,11.07-63.24,22.28-94.88,33.36V448.16C734.28,428.16,765.73,407.73,797.44,387.71Z"/><path d="M892.31,270.55a497.68,497.68,0,0,0-94.87-18.32v54.15c31.5-10.89,63.07-21.46,94.87-31.44Z"/><path d="M984.19,308.13a497.36,497.36,0,0,0-84.39-35.3c-2.49.66-5,1.35-7.49,2.11v56.17C922.9,314.74,950.19,309.55,984.19,308.13Z"/><path d="M281.53,574.88a373.57,373.57,0,0,0,41.52,36.3V489.65A499.18,499.18,0,0,0,281.53,574.88Z"/><path d="M417.93,657.58c-35.14-10.66-64.49-25.63-94.88-46.4V732.57C351.57,757,381.2,778,417.93,788.17Z"/><path d="M512.81,663.58V527.85a396.31,396.31,0,0,1-94.88-7.13V657.58A266.56,266.56,0,0,0,512.81,663.58Z"/><path d="M607.68,628.93c-31.1,21.89-57.07,30.13-94.87,34.65V789.89c38-9.69,64.33-21.58,94.87-46.2Z"/><path d="M702.56,553.44V448.16c-31.26,19.54-62.73,38.53-94.88,56.6V628.93C640.21,604.83,671.57,579.48,702.56,553.44Z"/><path d="M702.56,655.59c31.75-31.81,63.13-64,94.88-95.81v-87.6c-31.71,27-63.17,54.27-94.88,81.26Z"/><path d="M797.44,472.18c31-26,62.34-51.39,94.87-75.49V331.11c-32.14,18.06-63.61,37.05-94.87,56.6Z"/><path d="M987.19,425.49V362c-36.84,3.79-64.48,13.26-94.88,34.65v75C922.6,447.27,949.9,435,987.19,425.49Z"/><path d="M1069,365a501.25,501.25,0,0,0-81.84-55.25V362C1014.27,359.29,1042.19,359.6,1069,365Z"/><path d="M1082.07,376.19v51c32.55,8.5,60,26.79,85.56,47.77A502.89,502.89,0,0,0,1082.07,376.19Z"/><path d="M258.82,656.05a502.27,502.27,0,0,0-8.79,88.8c20.52,37.84,43.59,74.22,73,106V732.57C298.39,709.68,277.62,683.61,258.82,656.05Z"/><path d="M323.05,850.83V945.7c27.55,27.25,56.56,51.52,94.88,61.67V912.49C379.61,902.35,350.6,878.07,323.05,850.83Z"/><path d="M417.93,788.17V912.49c33.11,8,62.8,3.61,94.88-5.7V789.89C480.83,797.25,449.69,795,417.93,788.17Z"/><path d="M512.81,906.79v94.87c36.25-12.31,65.94-33.21,94.87-57.74V849.05C578.75,873.58,549.06,894.48,512.81,906.79Z"/><path d="M607.68,743.69V849.05c33.56-29.52,64.41-61.81,94.88-94.45v-99C671.79,686,640.55,715.57,607.68,743.69Z"/><path d="M702.56,754.6v94.87c31.78-34.55,63.1-69.51,94.88-104.07V650.53C765.66,685.08,734.34,720.05,702.56,754.6Z"/><path d="M892.31,556.08v-84.4c-32.87,28.12-64.1,57.71-94.87,88.1v90.75C827.91,617.89,858.76,585.6,892.31,556.08Z"/><path d="M987.19,593.21V498.33c-36.33,12.8-65.77,33.07-94.88,57.75V651C921.42,626.28,950.86,606,987.19,593.21Z"/><path d="M1082.07,492.63V427.2c-32.33-6.92-62.18-8.33-94.88-1.71v72.84C1018.33,489.3,1050.06,483.57,1082.07,492.63Z"/><path d="M1177,649.17V554.3c-27.12-26.83-56.83-52.33-94.88-61.67v94.88C1120.12,596.84,1149.83,622.35,1177,649.17Z"/><path d="M1177,489.65V554.3c23.57,25.43,43,53.82,60.42,83.56A496.83,496.83,0,0,0,1177,489.65Z"/><path d="M323.05,1010.35V945.7c-23.57-25.43-43.05-53.82-60.42-83.56A496.83,496.83,0,0,0,323.05,1010.35Z"/><path d="M417.93,1123.81v-51c-32.76-9.07-59.87-26.74-85.58-47.8A502.92,502.92,0,0,0,417.93,1123.81Z"/><path d="M417.93,1007.37v65.43c31.76,6.8,62.9,9.08,94.88,1.71v-72.85C480.73,1011,451,1015.32,417.93,1007.37Z"/><path d="M512.81,1074.51V1138c37.8-4.52,63.77-12.76,94.87-34.65v-75C577.14,1052.94,550.77,1064.83,512.81,1074.51Z"/><path d="M607.68,943.92v84.4c32.87-28.12,64.11-57.71,94.88-88.1V849.47C672.09,882.11,641.24,914.4,607.68,943.92Z"/><path d="M797.44,844.41c-31.75,31.82-63.13,64-94.88,95.81v87.6c31.71-27,63.17-54.27,94.88-81.26Z"/><path d="M797.44,745.4v99c30.77-30.39,62-60,94.87-88.1V651C858.76,680.47,827.91,712.76,797.44,745.4Z"/><path d="M892.31,871.08c30.4-21.4,58-30.87,94.88-34.65V710.12c-37.29,9.51-64.59,21.78-94.88,46.19Z"/><path d="M987.19,593.21V710.12c32.7-6.62,62.55-5.21,94.88,1.71V587.51C1050.06,578.44,1018.33,584.17,987.19,593.21Z"/><path d="M1082.07,711.83V842.42c35.31,10.72,64.49,25.63,94.88,46.4V767.43C1148.74,743.25,1118.61,721.37,1082.07,711.83Z"/><path d="M1241.18,844a502.27,502.27,0,0,0,8.79-88.8c-20.52-37.84-43.59-74.22-73-106V767.43C1201.61,790.32,1222.38,816.39,1241.18,844Z"/><path d="M430.66,1134.74a501.12,501.12,0,0,0,82.15,55.52V1138A264,264,0,0,1,430.66,1134.74Z"/><path d="M515.76,1191.84a496.83,496.83,0,0,0,84.44,35.33c2.48-.66,5-1.35,7.48-2.11v-56.17C576.54,1185.56,550.48,1190.06,515.76,1191.84Z"/><path d="M702.56,1027.82c-31,26-62.35,51.39-94.88,75.49v65.58c32.15-18.06,63.62-37.05,94.88-56.6Z"/><path d="M702.56,1112.29v81.33c31.64-11.07,63.24-22.28,94.88-33.35V1051.85C765.73,1071.86,734.28,1092.29,702.56,1112.29Z"/><path d="M797.44,946.56v105.29c31.26-19.55,62.73-38.54,94.87-56.6V871.08C859.78,895.17,828.43,920.53,797.44,946.56Z"/><path d="M892.31,995.25v133.58c31.92-9.59,61.72-11.52,94.88-11.55V972.15C951.79,973.39,923.8,978.4,892.31,995.25Z"/><path d="M987.19,836.43V972.15c31.66-1.1,63.81.55,94.88,7.13V842.42C1051.33,834.15,1018.69,833.22,987.19,836.43Z"/><path d="M1083.43,1122.59a502.58,502.58,0,0,0,92.09-109.92,441.39,441.39,0,0,0-93.45-33.39v143.14Z"/><path d="M1218.47,925.12a373.57,373.57,0,0,0-41.52-36.3v121.53A499.18,499.18,0,0,0,1218.47,925.12Z"/><path d="M607.68,1229.45a497.93,497.93,0,0,0,94.88,18.32v-54.15c-31.5,10.89-63.07,21.45-94.88,31.44Z"/><path d="M797.44,1247.77a496.9,496.9,0,0,0,94.87-18.32V1128.83c-31.8,10-63.37,20.55-94.87,31.44Z"/><path d="M987.19,1190.26a501.35,501.35,0,0,0,94.88-66.45v-1.39c-31.45-3.85-63.22-5.16-94.88-5.14Z"/></svg>