<svg id="Abstract_Shape" data-name="Abstract Shape" xmlns="http://www.w3.org/2000/svg" viewBox="0 0 1500 1500"><path d="M1072.48,1127.52a101.86,101.86,0,0,0-54-28.3,101.79,101.79,0,0,0-51.21-25.6,101.86,101.86,0,0,0-51.2-25.61,101.63,101.63,0,0,0-51.29-25.68,101.86,101.86,0,0,0-51.12-25.52,101.93,101.93,0,0,0-45.25-24.35q-1.68-1.85-3.46-3.62a102,102,0,0,0-19.86-15.5A101.86,101.86,0,0,0,730,931a101.18,101.18,0,0,0-8.24-25.93,102.19,102.19,0,0,0,.52-10.38,104.55,104.55,0,0,0-1.37-16.84,101.78,101.78,0,0,0,6.55-26.35,101.94,101.94,0,0,0,13.61-23.24,103.83,103.83,0,0,0,14.32-12,105,105,0,0,0,8.7-9.87,102,102,0,0,0,42-25.44,103.21,103.21,0,0,0,16.4-21.34,103,103,0,0,0,54.28-68.13l.39-.38A102.24,102.24,0,0,0,907,613.92a103,103,0,0,0,7.12-81.52,102.76,102.76,0,0,0-15.28-79.72A102.1,102.1,0,0,0,869,385.8q-3.62-3.62-7.49-6.79a102.37,102.37,0,0,0-59.25-61.8,102.82,102.82,0,0,0-10.93-12.9,101.71,101.71,0,0,0-63.93-29.67A102.14,102.14,0,0,0,667,252a101.48,101.48,0,0,0-54.38-18.16,101.68,101.68,0,0,0-54.34-18.1,102.5,102.5,0,1,0-62.39,186.67,101.55,101.55,0,0,0,54.41,18.16,102.21,102.21,0,0,0,54.23,18.05,102.16,102.16,0,0,0,49.74,17.82,101.6,101.6,0,0,0,27,15.75A104.27,104.27,0,0,0,692.21,485q3.62,3.6,7.49,6.78a101.67,101.67,0,0,0,12,24,102,102,0,0,0,5.12,27.07,103.43,103.43,0,0,0-2.28,26.93,101.91,101.91,0,0,0-9.54,25c-.16.15-.32.3-.47.46a102.87,102.87,0,0,0-16.4,21.34,102.54,102.54,0,0,0-27,19.45,103.76,103.76,0,0,0-8.7,9.87,103,103,0,0,0-64.09,58.23,102.38,102.38,0,0,0-43.54,72.76,102.57,102.57,0,0,0-20.29,79.83,103.08,103.08,0,0,0,2.6,81.9A102.36,102.36,0,0,0,552.44,1017a102.31,102.31,0,0,0,48.25,70,102.43,102.43,0,0,0,67.36,53.86q1.68,1.85,3.46,3.63a101.94,101.94,0,0,0,54,28.31,102,102,0,0,0,51.2,25.6A101.59,101.59,0,0,0,828,1224.06a101.66,101.66,0,0,0,51.2,25.6,101.9,101.9,0,0,0,51.12,25.52,102.5,102.5,0,0,0,142.14-147.66ZM914.39,565a97.31,97.31,0,0,1-8.27,39.43A102.5,102.5,0,0,0,719.51,561.6,97.47,97.47,0,0,1,914.39,565Zm-483.33-196a97.51,97.51,0,0,1,118-153.2,102.5,102.5,0,0,0-67.21,174.84q3.26,3.26,6.76,6.18A97,97,0,0,1,431.06,368.94Zm54.31,18.11a97.52,97.52,0,0,1,118-153.21,102.5,102.5,0,0,0-67.28,174.84c2.21,2.22,4.51,4.3,6.87,6.27A96.71,96.71,0,0,1,485.37,387.05Zm54.3,18.1A97.53,97.53,0,0,1,657.81,252a102.46,102.46,0,0,0-67.36,174.8q3.27,3.27,6.76,6.18A97,97,0,0,1,539.67,405.15ZM594,423.25a97.51,97.51,0,0,1,124.69-149,102.5,102.5,0,0,0-72.28,175l1.33,1.3A97,97,0,0,1,594,423.25Zm55.94,22.48A97.5,97.5,0,1,1,787.81,307.84c2.07,2.07,4,4.21,5.84,6.41A102.49,102.49,0,0,0,676.31,464.48,97,97,0,0,1,649.92,445.73Zm45.83,35.77A97.5,97.5,0,1,1,854,373.42,102.48,102.48,0,0,0,697,482.71C696.6,482.3,696.17,481.92,695.75,481.5Zm15.9,24.69a97.49,97.49,0,1,1,181.51-61.08q-3.1-3.76-6.62-7.29a102.49,102.49,0,0,0-174.89,68.37Zm4.91,4.11a97.47,97.47,0,1,1,194.06,13.08,102.51,102.51,0,0,0-191.28,10.17A98.24,98.24,0,0,1,716.56,510.3Zm19.15,39.43A97.49,97.49,0,0,1,878.49,682.32a105.24,105.24,0,0,0,1-14.58A102.51,102.51,0,0,0,712,588.49,96.84,96.84,0,0,1,735.71,549.73Zm-27.64,49.06A97.5,97.5,0,0,1,846,736.68a98.13,98.13,0,0,1-19.36,15.05A102.61,102.61,0,0,0,696.31,613,98.84,98.84,0,0,1,708.07,598.79Zm-43.42,40.79A97.5,97.5,0,1,1,769.05,799.4a102.52,102.52,0,0,0-86.16-158.07,103.14,103.14,0,0,0-22.14,2.39Q662.64,641.6,664.65,639.58ZM614,674.89A97.5,97.5,0,0,1,751.84,812.77a100,100,0,0,1-7.61,6.86,102.49,102.49,0,0,0-148.1-120.36A97.52,97.52,0,0,1,614,674.89Zm-36.3,44.66a97.5,97.5,0,0,1,150.4,122.53c0-.7,0-1.39,0-2.08a102.5,102.5,0,0,0-175-72.48c-.76.76-1.5,1.53-2.23,2.31A96.76,96.76,0,0,1,577.65,719.55Zm-21,51.51a97.56,97.56,0,0,1,162.25,97.39A102.6,102.6,0,0,0,528.47,848,97.33,97.33,0,0,1,556.63,771.06ZM522.26,894.69a97.5,97.5,0,0,1,195,0c0,.65,0,1.29,0,1.93a102.66,102.66,0,0,0-160.68-20.18,101.87,101.87,0,0,0-28.06,52.7A97.41,97.41,0,0,1,522.26,894.69Zm29,112.94a97.5,97.5,0,1,1,172.17-83.4,102.44,102.44,0,0,0-172.17,83.4ZM584.36,1068A97.5,97.5,0,1,1,737,949a102.49,102.49,0,0,0-140,129.58A97,97,0,0,1,584.36,1068Zm39.15,42.31A97.49,97.49,0,0,1,759.69,970.75,102.46,102.46,0,0,0,662.38,1134,97,97,0,0,1,623.51,1110.26ZM675,1140.94a97.51,97.51,0,0,1,129.5-145.37A102.47,102.47,0,0,0,719,1166.2,97,97,0,0,1,675,1140.94Zm51.21,25.6a97.5,97.5,0,0,1,129.42-145.42c-3.06-.28-6.16-.42-9.28-.42a102.5,102.5,0,0,0-76.16,171.1A96.87,96.87,0,0,1,726.25,1166.54Zm51.2,25.6A97.51,97.51,0,0,1,907,1046.77a102.46,102.46,0,0,0-85.41,170.74A97,97,0,0,1,777.45,1192.14Zm51.2,25.6a97.5,97.5,0,0,1,129.46-145.37,102.46,102.46,0,0,0-85.37,170.74A97,97,0,0,1,828.65,1217.74Zm51.2,25.6A97.5,97.5,0,0,1,1009.31,1098a102.46,102.46,0,0,0-85.47,170.63A96.86,96.86,0,0,1,879.85,1243.34Zm189.09,25.6a97.45,97.45,0,1,1,0-137.88A97.59,97.59,0,0,1,1068.94,1268.94Z"/></svg>