<svg id="Abstract_Shape" data-name="Abstract Shape" xmlns="http://www.w3.org/2000/svg" viewBox="0 0 1500 1500"><path d="M1207.7,1152.88,881.21,894.33l320.19,266.31.09.08a5,5,0,0,0,6.21-7.84Z"/><path d="M880.27,910.18l270.41,250.3.11.09a5,5,0,0,0,6.59-7.53Z"/><path d="M877.49,925.48,1100,1160.25l.11.12a5,5,0,0,0,7-7.1Z"/><path d="M873,940.13,1049.18,1160l.11.13a5,5,0,1,0,7.58-6.53Z"/><path d="M866.91,954l131.47,205.58a1.63,1.63,0,0,0,.11.17,5,5,0,0,0,8.2-5.73Z"/><path d="M859.33,966.92l88.19,192,.11.22a5,5,0,1,0,8.88-4.6Z"/><path d="M850.35,978.86l46.37,179.28.07.26a5,5,0,0,0,9.54-3Z"/><path d="M846,1157.08a2.83,2.83,0,0,0,0,.3,5,5,0,1,0,10-1l-15.88-166.7Z"/><path d="M795.54,1156.19a5,5,0,0,0,9.9,1.45L828.7,999.33l-33.1,156.55C795.58,1156,795.55,1156.09,795.54,1156.19Z"/><path d="M745.43,1154.73c0,.09-.09.19-.12.28a5,5,0,1,0,9.26,3.78l61.67-151.17Z"/><path d="M695.44,1153.82c-.06.07-.12.16-.17.23a5,5,0,0,0,8.26,5.65l99.27-145.23Z"/><path d="M645.49,1153.19l-.18.18a5,5,0,0,0,7.18,7L788.55,1019.8Z"/><path d="M595.45,1152.78l-.18.14a5,5,0,0,0,6.23,7.82l172.09-137.32Z"/><path d="M545.33,1152.52l-.17.11a5,5,0,1,0,5.48,8.37L758,1025.31Z"/><path d="M495.1,1152.36l-.16.08a5,5,0,0,0,4.89,8.72L742,1025.31Z"/><path d="M444.82,1152.25l-.14.07a5,5,0,0,0,4.45,9l277.28-137.85Z"/><path d="M394.47,1152.17l-.14.06a5,5,0,0,0,4.12,9.12l313-141.55Z"/><path d="M344.09,1152.13l-.12,0a5,5,0,1,0,3.88,9.21L697.2,1014.47Z"/><path d="M293.66,1152.09l-.11.05a5,5,0,1,0,3.69,9.29l386.52-153.81Z"/><path d="M322.27,1117.77l349-118.44L319.18,1108.26l-.13,0a5,5,0,1,0,3.22,9.47Z"/><path d="M347.2,1074.14l312.68-84.41-315.14,74.72-.15,0a5,5,0,0,0,2.61,9.66Z"/><path d="M372,1030.48l277.61-51.62-279.26,41.76-.18,0a5,5,0,0,0,1.83,9.83Z"/><path d="M396.76,986.79l243.91-19.87-244.51,9.89H396a5,5,0,0,0,.81,10Z"/><path d="M421.36,943.07,633.09,954l-211-20.87h-.24a5,5,0,1,0-.51,10Z"/><path d="M445.74,899.18l181.26,41L448.21,889.49l-.26-.07a5,5,0,0,0-2.21,9.76Z"/><path d="M470,855.06l152.52,70.42L474.45,846.11l-.26-.13a5,5,0,1,0-4.2,9.08Z"/><path d="M494.24,810.69l125.49,99.49-119-107.13-.23-.2a5,5,0,1,0-6.22,7.84Z"/><path d="M618.79,894.33l-92-134.16c0-.08-.12-.17-.18-.25a5,5,0,0,0-7.89,6.15Z"/><path d="M619.73,878.48,552.54,717.32c0-.08-.08-.18-.12-.26a5,5,0,0,0-9,4.37Z"/><path d="M622.51,863.18l-44.44-188.8-.07-.25a5,5,0,0,0-9.61,2.8Z"/><path d="M627,848.54,603.43,631.26l0-.23a5,5,0,1,0-9.88,1.53Z"/><path d="M628.74,588v-.2a5,5,0,0,0-10,.58l14.34,246.36Z"/><path d="M654,544.41a5,5,0,0,0-10-.12l-3.32,277.46L654,544.59A1.09,1.09,0,0,1,654,544.41Z"/><path d="M679.22,501.09a.81.81,0,0,0,0-.16,5,5,0,1,0-10-.63l-19.6,309.51Z"/><path d="M704.45,457.52a.68.68,0,0,1,0-.14,5,5,0,0,0-10-1L659.88,798.94Z"/><path d="M729.7,413.93a.51.51,0,0,0,0-.13,5,5,0,1,0-9.92-1.27L671.3,789.34Z"/><path d="M754.94,370.28a.5.5,0,0,1,0-.12,5,5,0,0,0-9.9-1.47L683.76,781Z"/><path d="M780.13,414.29l0-.14a5,5,0,1,0-9.8-2l-73.16,362Z"/><path d="M805.32,458.32a.66.66,0,0,0,0-.15,5,5,0,0,0-9.66-2.59L711.45,768.87Z"/><path d="M830.44,502.45l.07-.16a5,5,0,1,0-9.43-3.35L726.41,765.25Z"/><path d="M855.48,546.67l.09-.18a5,5,0,1,0-9-4.28L742,763.36Z"/><path d="M880.4,591l.13-.2a5,5,0,1,0-8.42-5.4L758,763.36Z"/><path d="M905.13,635.37l.19-.2a5,5,0,1,0-7.4-6.72L773.59,765.25Z"/><path d="M929.57,679.8a2.07,2.07,0,0,0,.24-.17,5,5,0,1,0-5.84-8.12L788.55,768.87Z"/><path d="M953.74,724.07l.3-.11a5,5,0,0,0-3.75-9.28L802.8,774.2Z"/><path d="M977.81,768.09l.31,0a5,5,0,0,0-1.41-9.91L816.24,781Z"/><path d="M1002.32,811.87a5,5,0,0,0,.71-10L828.7,789.34,1002,811.84Z"/><path d="M1026.45,855.41l.25.07a5,5,0,1,0,2.4-9.71l-189-46.83Z"/><path d="M1051.1,899l.21.09a5,5,0,0,0,3.64-9.32l-204.6-79.91Z"/><path d="M1075.92,942.5l.18.09a5,5,0,1,0,4.51-8.92L859.33,821.75Z"/><path d="M1100.9,986.05l.15.09a5,5,0,1,0,5.13-8.59L866.91,834.71Z"/><path d="M1125.94,1029.66l.13.09a5,5,0,1,0,5.56-8.31L873,848.54Z"/><path d="M1151,1073.3l.12.09a5,5,0,0,0,5.86-8.11L877.49,863.18Z"/><path d="M1176.19,1117l.1.08a5,5,0,0,0,6.07-8L880.27,878.48Z"/></svg>