<svg id="Abstract_Shape" data-name="Abstract Shape" xmlns="http://www.w3.org/2000/svg" viewBox="0 0 1500 1500"><path d="M245,245V1255H1255V245Zm995.65,412.15,4.35-1.21v46.84l-127.42,44.86L934.89,834.57,821.27,919.36,803.93,954l-23.06,46,35.64,73.2,109,62.17,145.65,40.89,32.71,9.18.15,0,141,21.4v14.49l-32.43-2.44-20.55-1.55L1088.2,1201.6l-138.59-21L772,1130.7l-107.12-61.09L631,1000l38.76-77.36L781.82,839l173.84-82.74.07,0,6.5-3.09c1.39-.6,3.13-1.28,6.11-2.36l56.32-19.83,1.06-.37,125.11-44,2.35-.83,51.5-18.13c3.79-1.28,6.67-2.21,9.61-3.09l25.45-7.06Zm-2.31,473.55L1171,1092.3l-39.79-22.69L1097.34,1000l38.77-77.36,60.92-45.5,3.39-2.53,4.81-3.6,17.39-13,4.67-3.49,5.26-3.94,0,0,4-3,.29-.22.89-.66.54-.4.72-.54.54-.4.69-.52.62-.46.87-.64.5-.38.54-.4.42-.31.44-.32.4-.3.41-.3.39-.29.11-.08v291.25ZM1245,835.18l-.14.1-.11.07-.29.21-.13.09-.35.25-.11.08-.39.27-.14.11c-.15.1-.29.2-.44.32l-.13.09-.53.38-.1.07-.68.5h0l-1.63,1.2-.07.05-.85.63-.09.07-.93.69-.06,0-.93.69-.41.3-.77.58-.33.25c-.31.23-.63.46-1,.71l-.36.26-1,.75-.35.26-.84.63-2.45,1.83-.19.14c-1.51,1.14-3.15,2.36-5,3.71l-5.43,4.07-1.58,1.18c-6.24,4.68-13.87,10.39-23.23,17.37l-61.87,46.21L1091.76,1000l35.65,73.2,109,62.17,8.6,2.41v38.45l-162.11-45.51-107.11-61.1L941.89,1000l38.77-77.36L1092.71,839l88.39-42.07L1245,766.5Zm-36-57.09-118.69,56.48L976.72,919.36,936.32,1000l35.64,73.2,108.72,62,.19.11.08,0,164,46.05v20.41l-139.94-21.25L927.45,1130.7l-107.12-61.1L786.45,1000l38.76-77.36,112-83.68,182.11-86.67,79.4-27.95L1245,708.08V761Zm29.51-125.55c-5.26,1.46-9.41,2.6-12.83,3.53-5.58,1.52-9.28,2.54-12.87,3.61l-3.92,1.09-5.35,1.88c-5.36,1.81-12.51,4.34-24.39,8.55-7.73,2.73-17.46,6.18-30,10.59l-125.11,44.05c-14.46,5.09-25.48,9-34,11.93-12.11,4.25-19,6.68-23.42,8.27l-4.55,1.6-1.59.76c-1.44.61-2.51,1.13-4,1.87l-3,1.46L779.45,834.57,665.82,919.36,625.42,1000l35.64,73.2,109,62.17,178.35,50.07.15,0,242.81,36.86.36,0,53.27,4V1233l-106.13-8-88.68-6.67h-.07l-10.85-.82c-2.46-.27-5.81-.71-11.63-1.56l-233.47-35.44L616.55,1130.7l-107.11-61.1L475.55,1000l38.77-77.36,112-83.68,182.1-86.67L857.75,735l197.14-69.4,54.69-15.18L1245,612.79v38Zm-185.15,8.25-246.7,86.85L624,834.57,510.38,919.36,470,1000l35.65,73.2,109,62.17L793,1185.42,889.13,1200c35.88,5.44,62.89,9.56,83.37,12.68,29,4.43,45,6.85,54.43,8.23l9,1.37,2.67.2c2.5.28,4.12.38,6.36.52,1.3.08,2.82.18,4.86.33L1245,1238.05v3.26l-64.15-1.4-35.27-2.66-3.24-.24-4.57-.34-3.17-.24-6.45-.49-5.23-.39-9.37-.71-4.17-.31-4.09-.31-224.16-16.86-242.41-36.8L461.1,1130.7,354,1069.61,320.1,1000l17.24-34.41,21.53-43,1.91-1.43L470.92,839,653,752.31l246.42-86.75,188.92-52.43c23.44-6.51,41.86-11.64,56.58-15.74,49.27-13.73,57.14-15.92,73.77-19.68l10.44-2.32,15.85-3.53V607.6l-191.53,53.17ZM284.28,258.32l7.85-.15c-9.92.57-22,1.27-37.13,2.11V258.9Zm865.64,1.32,77.17-1.52L870.87,277.66h-.08L867,278l-10.75.93-7.47.65c-94,8.14-165.51,14.27-218.72,18.83-162.95,14-181.76,15.57-253.47,24.09l-32.17,3.84c-16.67,2-36.14,4.33-59.69,7.13l-3.5.41-2.39.28-4.79.57-1,.12-6.21.73-.22,0-6.71.8-.58.07L255,337V323.72l11.65-1.4c6.23-.76,10.8-1.32,16.41-1.92,8.4-.89,19.93-2,42.52-4,18.46-1.63,44.66-3.89,83.58-7.24,41.27-3.57,96.84-8.36,172.61-14.93l19.61-1.71,95.93-8.31c14.2-1.09,29.22-2.09,49.9-3.33,66.39-3.65,120-6.63,165.24-9.14,48.83-2.64,107.88-5.85,182.94-9.95C1118,260.72,1133.9,260.09,1149.92,259.64Zm-237.83,7.15-5.91.32c-79.84,4.33-126.6,6.86-159.26,8.82l-31.5,1.73h-.08l-18.43,1.6c-17.45,1.33-33.67,2.78-57.61,4.91-10.71,1-23.28,2.08-38.27,3.4l-145.9,12.61c-64.85,5.6-104.36,9-129.86,11.26-23.14,2-34.17,3.07-42.78,4-6.32.67-10.89,1.23-17.07,2L255,318.68v-9.55c61.19-5.32,108-9.45,146.06-12.83l3.69-.32c153.5-13.59,153.5-13.59,354.09-24.36,54.64-2.93,122.64-6.59,212.71-11.53l97.09-1.91c-30.36,1.6-71.3,3.87-131.41,7.22ZM307.37,299.54l-1.47.13-2.93.26-3.13.27-2,.18-4.41.38-.21,0L255,304.11v-8.47l1.86-.16,1.62-.14c24.44-2.13,43.89-3.86,59.81-5.28,32.89-2.93,52.86-4.71,77.17-6.46,37.65-2.68,87-5.35,211.76-12.12,53.87-2.92,121.79-6.61,208.89-11.39l99.8-2c-66.62,3.63-119.37,6.45-163.56,8.82C558.81,277.31,558.81,277.31,407,290.76l-6.44.57C374.34,293.65,343.87,296.35,307.37,299.54ZM255,273.82l2.76-.16c44.83-2.46,80.62-4.47,109.67-6.11,56-3.15,89-5,119.76-6.32,19.93-.83,39.63-1.47,64.14-2.09,16.42-.4,35.1-.79,57.89-1.23L255,277.33Zm4,8.3,391.15-21.45.8,0,6.71-.37c3.37-.12,9.54-.28,23.46-.57l79.49-1.56c-63.26,3.45-114.64,6.24-157.76,8.57-121.64,6.6-169.74,9.2-207.28,11.88-24.86,1.77-44.55,3.53-77.25,6.45-16.58,1.48-37,3.3-63.08,5.57l-.23,0v-8.28Zm-4-16.83c15.68-.86,28.14-1.58,38.62-2.18,18.16-1,30.41-1.75,43.36-2.31,19.07-.79,41.85-1.38,87.89-2.31l23.87-.46c-22.15,1.15-47.64,2.59-81.54,4.51-29.52,1.67-66,3.73-112.2,6.27Zm347,54.19c88.8-7.71,157.73-13.74,213.11-18.58,139.87-12.24,189-16.54,237.65-19.7,25.81-1.66,52.42-3.06,93.09-5.21,25.93-1.37,58-3.06,99.13-5.32v3.52l-5,.27-.38,0-1.44.07-.27,0-1.43.07-.74,0-.64,0-1.15.06-.45,0-1,.05-.77,0-.72,0-.66,0-.84,0-.66,0-6.25.32c-19.3,1-28.78,1.45-58.45,3.87l-3.29.27-2.28.19c-29.16,2.4-76.36,6.51-163.9,14.14C935.87,299,858.91,305.66,757,314.5h-.07l-39.22,4.62-7.36.86c-88.2,10.37-155.4,18.23-206.45,24.21C331.18,364.4,331.18,364.4,283,371.74L266,374.31H266l-1.84.28-.39.06-1.33.2-1.07.16-.22,0L255,376V360.28l16.91-2ZM305.15,657.9c6.5-1.79,14.52-4,24.62-6.8l2.77-.77,243.88-67.7c3.76-1,8.35-2.07,16.21-3.88l157.92-35.56c49-11,84.47-19,110.48-24.91,25.59-5.78,42-9.48,53-11.94,12.21-2.58,24.41-5,39.08-7.88L1245,444.69v23.56c-28.72,5.28-51.34,9.39-69.69,12.72-60.09,10.91-79.12,14.37-137.49,27.31-27.14,6-62.7,14.05-114.91,25.87-41.57,9.4-92.6,21-158.32,35.76l-11.19,2.52-3.95.89-14.35,3.23-.12,0L549.33,628.11,431.68,660.77,255,723V673.53l7-2.48c12.39-4.41,15-5.33,29.26-9.31Zm835-137.58-129.86,29.27-48.95,11-11.87,2.68-13.07,2.94c-8.27,1.86-14.58,3.26-19.78,4.41-7.34,1.62-12.47,2.75-17.74,4-9.82,2.25-13,3.14-24.65,6.41l-4.48,1.25c-9.47,2.61-21.88,6.06-39.11,10.85L788.06,605,638.51,646.5l-51.38,14.27L463.73,704.2,340.34,747.64,255,788.24v-60l42.93-15.11L433.1,665.56l303.16-84.14,14.29-3.22,10.84-2.44,17-3.83c59.81-13.48,107.08-24.18,146-33,52.22-11.82,87.81-19.87,114.9-25.87,57.57-12.75,77.21-16.32,138.43-27.45,16.94-3.08,37.58-6.84,63.1-11.53l3.21-.59.94-.17v23.52C1240.34,497.74,1227.61,500.61,1140.13,520.32ZM449.32,1176.23l19.11,5.36,13.64,3.83.15,0L725,1222.32h.1L995,1242.64l-108.57-2.37c-11.05-.29-16.94-.49-21.09-.71l-215.19-16.19-1.26-.09-71.88-5.41c-4.43-.37-7.35-.66-9.91-1l-239.32-36.33-68.51-19.23-4.31-1.21v-52.56l48.71,27.79,90.1,25.29ZM255,1240.05v-6.31l53.55,4,64.7,4.87-81.9-1.79Zm148.61-.14-31.18-2.35L255,1228.73v-6.92l.65.08c3.24.38,9.62.93,27.47,2.3,18.45,1.42,49.08,3.71,101,7.6,36.56,2.74,83.69,6.27,144.55,10.85l-112-2.45Zm153.38-.16-6.73-.51h-.07l-4.47-.34L374.15,1226c-46.13-3.46-73.91-5.54-91-6.85s-23.38-1.85-26.6-2.22h-.11l-1.47-.19v-18.6l159.22,24.17,270,20.31-34.16-.75-77.4-1.69C563.85,1240,559.51,1239.86,557,1239.75Zm157.52.16L514.3,1224.85l-99.51-7.49L255,1193.11v-27.8l71.62,20.11.15,0,222.85,33.83c3.41.52,6,.93,8.2,1.28,3.49.55,5.89.94,8.71,1.28l3.14.48,7,.52c6.31.54,15.65,1.23,31.3,2.39,10.48.77,23.81,1.76,41,3l190.73,14.35-117.55-2.57Zm529-672.84-.52.12-14.57,3.24-10,2.22c-17.46,3.92-24.23,5.81-72.48,19.26-15.07,4.2-34.19,9.53-58.94,16.4L898,660.77,651.24,747.64,468.55,834.57,354.93,919.36,314.53,1000l7.2,14.8,28.44,58.4,109,62.17,178.36,50.07.14,0,80.94,12.29,161.87,24.57.19,0,269.83,20.3-125.09-2.73-299.72-22.55-242.41-36.8L305.66,1130.7,255,1101.81V884.14L315.48,839l182.1-86.67,180.15-63.42.69-.24,61.81-21.76c2.48-.86,3.85-1.32,4.83-1.62l302.09-83.85L1245,536.86v29.88ZM1046,576.55l-.12,0L747.66,659.36l-1.71.46c-.8.21-1.4.37-2.3.65l-1.08.3-3.21,1.13c-4,1.38-11.16,3.9-25.18,8.84l-38.11,13.43L495.79,747.64l-182.91,87L255,877.9V793.78l87.13-41.47,123.21-43.37,123.2-43.38,197.11-54.71,1.45-.4L860.86,590l10.21-2.85c14.12-3.88,21.68-5.87,29-7.62l14.5-3.26c5.92-1.32,13.35-3,22.94-5.14l6.54-1.47,6.53-1.48,13.84-3.11,2.08-.47.43-.1,6.86-1.54,1.48-.34c69-15.54,120.17-27.07,158.15-35.63,88.89-20,105.75-23.83,111.61-25v29.78Zm32.67-106.42c-62.29,11.39-98.83,18.08-126.54,23.43l-2.57.48c-3.22.59-5.56,1-7.53,1.35-6.86,1.22-9.32,1.66-29,6.06-20.55,4.35-41.18,9.05-73.81,16.5-22.86,5.22-51.31,11.71-89.75,20.36l-37.67,8.49-68.85,15.48c-25.91,5.82-41.35,9.29-51.44,11.61l-11.84,2.66-4.33,1.2c-3.43.89-6.16,1.66-10,2.74-2.31.65-5,1.42-8.53,2.39L331.21,645.51,304,653c-5.28,1.45-9.56,2.63-13.14,3.63-15.36,4.27-17.7,5.1-30.22,9.56l-5.65,2V628.7l170.36-47.28L466,572.26l310-69.81c99.85-18.39,173.56-32,227.37-42,81.09-15,121.11-22.4,147.37-27,25.54-4.47,38.14-6.32,63-10,6.65-1,14.19-2.07,23.08-3.39l.39-.06,1.45-.21,1.29-.19.36-.06,4.67-.69v20.71C1174.43,452.61,1121.42,462.31,1078.66,470.13ZM1245,413.84c-13,1.94-23.31,3.45-32.09,4.73-24.76,3.63-37.32,5.46-62.87,9.94-26.28,4.61-66.24,12-147.4,27-53.84,10-127.58,23.6-227.57,42H775l-350.77,79-169.2,47v-38l4-1.12.25-.07c10.47-3,11.08-3.08,40.51-9.68l32.9-7.39,287.87-64.83c91.16-16.79,160.66-29.61,214-39.45,154.51-28.5,173.19-31.94,189.18-34.33,2-.31,4.08-.6,6.38-.93,3.24-.47,7-1,12-1.76L1245,395.68ZM1041.37,421l-1.8.27c-4,.59-7.07,1-9.81,1.43l-6.89,1c-16.09,2.4-32.67,5.46-177.71,32.22-54.65,10.08-127.55,23.53-225.64,41.6l-288,64.85-3.26.74-31.91,7.16c-27.18,6.08-27.71,6.2-38.13,9.13l-1,.29-2.23.63V549.77l210.08-47.31,365.2-67.27c14.3-2.5,27.42-4.71,40.81-6.88l131.71-19.67,157.25-23.49,12.72-1.9L1245,372.46v18.17ZM1172,378.31c-74,11.06-127.51,18.92-170.46,25.24-61.48,9.05-97.28,14.32-131.31,19.83-19.31,2.89-19.67,3-20.39,3.11l-.32.06-20.1,3.7c-36.36,6.34-80.36,14.51-156,28.55C620.34,468.67,554.2,481,464.07,497.56L255,544.64V514.76L289.38,507l20.25-4.56,40.82-7.52c77.24-14.23,135.28-25,181.91-33.61,63.82-11.82,102.74-19,131.84-24.21,45.18-8.05,67.46-11.34,124.22-19.73,17-2.52,37.16-5.5,62-9.2L911.55,399l8.24-1.24,7.93-1.19,11.31-1.7,4.63-.69.8-.12.2,0,11-1.65,12.28-1.85,1.94-.29,12.9-1.94,16.6-2.49,8.22-1.23,7.47-1.13c95.06-14.26,101.81-15,173.7-23.39,14.84-1.72,32.48-3.77,54.23-6.32l.14,0,1.88-.22v13.87Zm73-29.8c-23.17,2.72-41.73,4.87-57.24,6.67-67.84,7.87-77.35,9-159.33,21.25l-1,.15-3.89.58-41.82,6.28c-33.76,5.08-76.51,11.5-132.11,19.8-25.93,3.88-46.69,6.94-64.1,9.51-55.09,8.14-76.6,11.31-122.1,19.42-29.21,5.2-68,12.38-131.84,24.21C485,465,427,475.76,349.55,490l-40.92,7.54-38.87,8.75L255,509.64V483.89l95.45-17.59c4.56-.84,9-1.65,13.35-2.46l25.89-4.76L479,442.62c26.41-4.87,41.83-7.72,51.12-9.42,8.94-1.63,12.49-2.26,14.66-2.6l1.67-.25c.59-.08,1.26-.17,2.22-.32l1.58-.23.12,0,200-29.87c47.21-7.05,81.51-12.24,109.07-16.41,20.66-3.12,36.82-5.57,50.57-7.61,33.54-4.85,57-8,85.58-11.46,17.06-2,37.85-4.45,66.07-7.73,33.26-3.85,74.66-8.66,132.24-15.43l51.1-6Zm-51.68-12.2c-50.64,5.95-88.71,10.35-119.29,13.89-33.45,3.86-57.7,6.66-79.13,9.28-33.69,4-52.78,6.6-85.53,11.45-32.91,4.76-75.46,11.18-141.87,21.18-55.4,8.35-124.29,18.73-218,32.74l-2.7.39c-.93.13-1.7.24-2.82.42-1.91.29-4.94.82-14.86,2.64-11.18,2-30.65,5.63-66.07,12.16l-98.84,18.22L278.8,474.42,255,478.8V455.25l102.81-18.94,1.49-.27,20.52-3.78c5.61-1,13.05-2.14,26.92-4.25,26.51-4,51.06-7.64,73.84-11.06l25.09-3.74c36.16-5.39,83.15-12.39,144.7-21.58,27-4,48.16-7.24,65.2-9.82l20.92-3.17c40.78-5.92,71.06-10,107.09-14.52,28.91-3.49,67.85-8,127.07-15,49.67-5.8,111.48-13,193.65-22.69l3.78-.44,3.45-.41c8.89-1,16.19-1.91,22.26-2.63,30.12-3.56,30.12-3.56,45.42-4.86l4.89-.42h.13l.77-.07v12.6ZM1245,312.62l-6.16.53c-15.39,1.31-15.39,1.31-45.56,4.88l-1.23.14-.52.06-3.44.41-5.52.65-2.46.29-6.64.79-4.53.53-5.17.61c-75.46,8.87-133.08,15.56-179.38,20.94-63.68,7.39-105.42,12.24-141.41,16.72-47.7,5.76-68.09,8.64-107.14,14.52-36.66,5.33-81.82,12.13-147.29,22-31.1,4.68-66.68,10-108.1,16.25-36.7,5.48-59.59,8.9-74.75,11.2l-20.25,3L379,427.32c-4.48.76-7.8,1.39-12.26,2.23-2.7.51-5.82,1.1-9.88,1.85L255,450.17V427.46l95.37-14.24,173.5-25.93,95.23-14.22c16-2.24,31.3-4.28,48.14-6.42,97.14-11.42,170-20,224-26.46,42.39-4.93,91.82-10.7,151.5-17.71,16.89-1.87,30.74-3.31,44.54-4.65L1245,304.15v8.47Zm0-13.48c-33.49,2.9-59.47,5.09-80.51,6.88-33.87,2.86-55.76,4.72-77.78,6.85l-18.89,1.63-25.47,3c-32.35,3.58-75.82,8.73-151.47,17.7l-.29,0-55.9,6.49c-82.7,9.61-129.5,15-168.1,20l-18.21,2.14L647,364c-1.87.2-2.63.28-28.53,4.13-31.85,4.46-66.61,9.71-122.38,18.14-36.65,5.54-82.05,12.4-141.65,21.3l-4.8.72-87.44,13.06L255,422.41V404.24L350.37,390l6-.9c21.46-3.21,38.69-5.82,52.76-8,77.14-11.7,77.14-11.7,276.78-35.05,58.22-6.81,130.67-15.28,227-26.62L1245,290.67ZM912.45,314.5h-.07c-99.48,11.7-173.21,20.32-232.46,27.25C485.55,364.47,485.55,364.47,410,376c-15.68,2.38-35.2,5.34-60.36,9.1L255,399.19V381l1.78-.26.47-.07,1.7-.26.67-.1,1.41-.21.74-.11,1.66-.25.36-.06,1.84-.28.19,0,1.48-.22,1-.15.84-.12,1.56-.24.27,0,1.14-.17,4.73-.72.8-.12,2.16-.33,3.93-.6.14,0c48-7.31,48.27-7.34,220.83-27.53L521,347.22c58-6.79,134.85-15.79,236.45-27.74,101.89-8.84,178.85-15.55,237.62-20.67,95.45-8.32,142.92-12.45,171.33-14.75,28.1-2.28,37.58-2.76,56.42-3.71l3.77-.19.6,0,1.25-.07,2.17-.11.43,0,12.72-.67h0l1.22-.06v6.45Zm329-48.64c-40,2.18-70.88,3.81-96.06,5.13-40.46,2.13-66.68,3.51-93.08,5.23-48.87,3.14-94.94,7.17-228,18.84-47,4.12-103.43,9.07-174.49,15.25l-48.24,4.19h-.08L290.66,351.06,255,355.25V342l3.93-.46,1.4-.16c35.7-4.21,63.2-7.51,85.66-10.2l30.86-3.69c71.53-8.49,91.09-10.17,257.46-24.43,56.68-4.86,134.3-11.52,236.87-20.41L1245,262.15v3.52Z"/></svg>