<svg id="Abstract_Shape" data-name="Abstract Shape" xmlns="http://www.w3.org/2000/svg" viewBox="0 0 1500 1500"><path d="M258.4,260.33a2.75,2.75,0,1,0-2.75-2.75A2.75,2.75,0,0,0,258.4,260.33Z"/><path d="M340.33,261.65a4.07,4.07,0,1,0-4.06-4.07A4.07,4.07,0,0,0,340.33,261.65Z"/><path d="M416.41,262.73a5.15,5.15,0,1,0-5.15-5.15A5.15,5.15,0,0,0,416.41,262.73Z"/><path d="M486.64,263.59a6,6,0,1,0-6-6A6,6,0,0,0,486.64,263.59Z"/><path d="M551,264.24a6.66,6.66,0,1,0-6.66-6.66A6.66,6.66,0,0,0,551,264.24Z"/><path d="M609.54,264.7a7.12,7.12,0,1,0-7.11-7.12A7.12,7.12,0,0,0,609.54,264.7Z"/><path d="M662.21,265a7.4,7.4,0,1,0-7.39-7.4A7.4,7.4,0,0,0,662.21,265Z"/><path d="M709,265.12a7.54,7.54,0,1,0-7.54-7.54A7.53,7.53,0,0,0,709,265.12Z"/><path d="M258.4,343.7a4.23,4.23,0,0,0,4.13-4.19,4.13,4.13,0,1,0-7.54,2.32A4.06,4.06,0,0,0,258.4,343.7Z"/><path d="M258.4,421.06a5.35,5.35,0,1,0-5.34-5.35A5.35,5.35,0,0,0,258.4,421.06Z"/><path d="M340.33,345.14a5.51,5.51,0,0,0,5.51-5.51s0-.05,0-.08,0,0,0,0a5.51,5.51,0,0,0-11,0v.12A5.51,5.51,0,0,0,340.33,345.14Z"/><path d="M416.41,346.35a6.72,6.72,0,0,0,6.72-6.72v-.12a6.72,6.72,0,0,0-13.43,0v.12A6.72,6.72,0,0,0,416.41,346.35Z"/><path d="M486.64,347.33a7.7,7.7,0,0,0,7.7-7.7s0-.05,0-.08v0a7.7,7.7,0,0,0-15.39,0v.12A7.69,7.69,0,0,0,486.64,347.33Z"/><path d="M551,348.07a8.44,8.44,0,0,0,8.44-8.44v-.12a8.44,8.44,0,0,0-16.88,0v.12A8.44,8.44,0,0,0,551,348.07Z"/><path d="M609.54,348.6a9,9,0,0,0,9-9s0-.06,0-.08v0a9,9,0,0,0-17.94,0v.12A9,9,0,0,0,609.54,348.6Z"/><path d="M662.21,348.94a9.31,9.31,0,0,0,9.31-9.31v-.12a9.31,9.31,0,0,0-18.61,0v.12A9.3,9.3,0,0,0,662.21,348.94Z"/><path d="M709,349.11a9.47,9.47,0,0,0,9.48-9.48v-.12a9.48,9.48,0,0,0-19,0v0s0,.05,0,.08A9.48,9.48,0,0,0,709,349.11Z"/><path d="M258.4,492.39a6.34,6.34,0,1,0-6.33-6.33A6.33,6.33,0,0,0,258.4,492.39Z"/><path d="M340.33,422.55a6.86,6.86,0,1,0-5.61-3A6.73,6.73,0,0,0,340.33,422.55Z"/><path d="M340.33,494a7.9,7.9,0,1,0-7.89-7.89A7.9,7.9,0,0,0,340.33,494Z"/><path d="M416.41,423.89a8.06,8.06,0,0,0,8.07-8.06s0-.05,0-.08v0a8.06,8.06,0,0,0-16.12,0s0,0,0,0,0,.05,0,.08A8.06,8.06,0,0,0,416.41,423.89Z"/><path d="M486.64,425a9.17,9.17,0,0,0,9.17-9.17v-.12a9.17,9.17,0,1,0-18.33,0v0s0,.05,0,.08A9.18,9.18,0,0,0,486.64,425Z"/><path d="M551,425.87a10,10,0,0,0,10-10s0-.06,0-.08v0a10,10,0,0,0-20.07,0v0s0,.05,0,.08A10,10,0,0,0,551,425.87Z"/><path d="M609.54,426.49a10.67,10.67,0,0,0,10.67-10.66s0-.06,0-.08v0a10.67,10.67,0,0,0-21.33,0v.12A10.66,10.66,0,0,0,609.54,426.49Z"/><path d="M662.21,426.9a11.07,11.07,0,0,0,11.07-11.07v-.12a11.07,11.07,0,0,0-22.13,0v.12A11.07,11.07,0,0,0,662.21,426.9Z"/><path d="M709,427.11a11.28,11.28,0,0,0,11.28-11.28v-.12a11.28,11.28,0,0,0-22.55,0v.12A11.27,11.27,0,0,0,709,427.11Z"/><circle cx="340.33" cy="550.55" r="8.78"/><path d="M416.41,495.35a9.27,9.27,0,0,0,0-18.53,9.23,9.23,0,0,0-7.62,14.45A9.14,9.14,0,0,0,416.41,495.35Z"/><path d="M416.41,560.8a10.25,10.25,0,1,0-10.25-10.25A10.25,10.25,0,0,0,416.41,560.8Z"/><path d="M486.64,496.6a10.42,10.42,0,0,0,10.42-10.43v-.11a10.42,10.42,0,0,0-20.84,0s0,0,0,0,0,0,0,.07A10.43,10.43,0,0,0,486.64,496.6Z"/><path d="M551,497.6a11.42,11.42,0,0,0,11.42-11.43v-.11a11.42,11.42,0,1,0-22.84,0v0s0,.06,0,.08A11.43,11.43,0,0,0,551,497.6Z"/><path d="M609.54,498.35a12.18,12.18,0,0,0,12.18-12.18s0-.05,0-.08v0a12.17,12.17,0,0,0-24.34,0v.11A12.17,12.17,0,0,0,609.54,498.35Z"/><path d="M662.21,498.84a12.67,12.67,0,0,0,12.67-12.67v-.11a12.67,12.67,0,1,0-25.33,0v0s0,.06,0,.08A12.67,12.67,0,0,0,662.21,498.84Z"/><path d="M709,499.11A12.94,12.94,0,0,0,722,486.17s0-.05,0-.08v0a12.93,12.93,0,0,0-25.86,0v0s0,.06,0,.08A12.93,12.93,0,0,0,709,499.11Z"/><path d="M258.4,557.35a6.68,6.68,0,0,0,6.68-6.68s0,0,0-.07,0,0,0-.05a6.68,6.68,0,0,0-13.36,0s0,0,0,.05,0,0,0,.07A6.68,6.68,0,0,0,258.4,557.35Z"/><circle cx="340.33" cy="609.19" r="9.42"/><path d="M416.41,620.21a11,11,0,1,0-11-11A11,11,0,0,0,416.41,620.21Z"/><path d="M486.64,562.1a11.58,11.58,0,1,0-8.86-4.22A11.39,11.39,0,0,0,486.64,562.1Z"/><path d="M486.64,621.6a12.41,12.41,0,1,0-12.4-12.41A12.41,12.41,0,0,0,486.64,621.6Z"/><path d="M551,563.25a12.58,12.58,0,0,0,12.58-12.58v-.12a12.58,12.58,0,0,0-25.16,0v.12A12.58,12.58,0,0,0,551,563.25Z"/><path d="M541.45,618.8a13.57,13.57,0,0,0,23.14-9.61,13.57,13.57,0,1,0-23.14,9.61Z"/><path d="M609.54,564.15A13.48,13.48,0,0,0,623,550.67v-.12a13.48,13.48,0,0,0-27,0v0s0,0,0,.08A13.49,13.49,0,0,0,609.54,564.15Z"/><path d="M662.21,564.77a14.1,14.1,0,0,0,14.1-14.1v-.12a14.1,14.1,0,1,0-28.19,0v0s0,0,0,.08A14.11,14.11,0,0,0,662.21,564.77Z"/><path d="M709,565.11a14.44,14.44,0,0,0,14.44-14.44v-.12a14.44,14.44,0,1,0-28.87,0v0s0,.06,0,.09A14.45,14.45,0,0,0,709,565.11Z"/><path d="M258.4,616.44a7.13,7.13,0,0,0,7.13-7.13v-.12a7.13,7.13,0,0,0-14.26,0v.12A7.13,7.13,0,0,0,258.4,616.44Z"/><path d="M340.33,671.82a9.84,9.84,0,1,0-9.84-9.84A9.84,9.84,0,0,0,340.33,671.82Z"/><path d="M416.41,673.51A11.53,11.53,0,1,0,404.88,662,11.54,11.54,0,0,0,416.41,673.51Z"/><path d="M486.64,675a13.05,13.05,0,1,0-13-13A13,13,0,0,0,486.64,675Z"/><circle cx="551.02" cy="661.98" r="14.36"/><path d="M609.54,623.86a14.55,14.55,0,0,0,14.55-14.55v-.12a14.55,14.55,0,1,0-29.1,0v0s0,0,0,.08A14.56,14.56,0,0,0,609.54,623.86Z"/><path d="M601,674.8A15.44,15.44,0,0,0,625,662a15.44,15.44,0,1,0-24,12.82Z"/><path d="M662.21,624.64a15.33,15.33,0,0,0,15.34-15.33s0-.06,0-.08v0a15.33,15.33,0,1,0-30.66,0v0s0,0,0,.08A15.33,15.33,0,0,0,662.21,624.64Z"/><path d="M709,625.1a15.79,15.79,0,0,0,15.79-15.79v-.12a15.79,15.79,0,1,0-31.58,0v0s0,.06,0,.09A15.79,15.79,0,0,0,709,625.1Z"/><path d="M258.4,669.51a7.42,7.42,0,0,0,7.42-7.41s0,0,0-.06V662A7.41,7.41,0,0,0,251,662v.12A7.41,7.41,0,0,0,258.4,669.51Z"/><circle cx="340.33" cy="708.92" r="10.07"/><path d="M416.41,720.74a11.83,11.83,0,1,0-11.82-11.82A11.82,11.82,0,0,0,416.41,720.74Z"/><circle cx="486.64" cy="708.92" r="13.42"/><circle cx="551.02" cy="708.92" r="14.86"/><circle cx="609.54" cy="708.92" r="16.1"/><path d="M662.21,678.42a16.33,16.33,0,0,0,16.33-16.32s0-.05,0-.08v0a16.32,16.32,0,1,0-32.63,0v0s0,.05,0,.08A16.32,16.32,0,0,0,662.21,678.42Z"/><circle cx="662.21" cy="708.92" r="17.11"/><path d="M709,679.06a17,17,0,0,0,17-17V662a17,17,0,0,0-33.93,0v.12A17,17,0,0,0,709,679.06Z"/><path d="M258.4,716.59A7.55,7.55,0,0,0,266,709v-.11a7.56,7.56,0,0,0-15.12,0V709A7.56,7.56,0,0,0,258.4,716.59Z"/><path d="M258.4,742.4l-.6,0h-.22a7.58,7.58,0,1,0,0,15.16h.22l.6,0a7.6,7.6,0,1,0,0-15.2Z"/><path d="M340.33,740.45c-.2,0-.4,0-.6,0l-.22,0a9.53,9.53,0,0,0,0,19.06l.22,0,.6,0a9.55,9.55,0,1,0,0-19.09Z"/><path d="M416.41,738.07a11.92,11.92,0,0,0-10.05,5.53,11.33,11.33,0,0,0,0,12.8,11.92,11.92,0,1,0,10.05-18.33Z"/><path d="M486.64,736.43a13.56,13.56,0,0,0-13,9.65,12.9,12.9,0,0,0,0,7.84,13.57,13.57,0,1,0,13-17.49Z"/><path d="M551,734.94A15.06,15.06,0,1,0,566.08,750,15.06,15.06,0,0,0,551,734.94Z"/><circle cx="609.54" cy="750" r="16.4"/><circle cx="662.21" cy="750" r="17.59"/><path d="M709,726.93a17.89,17.89,0,0,0,17.9-17.9s0,0,0-.07,0,0,0,0a17.9,17.9,0,1,0-35.79,0V709A17.89,17.89,0,0,0,709,726.93Z"/><path d="M709,731.7h-.11a18.29,18.29,0,1,0,0,36.58H709a18.3,18.3,0,1,0,0-36.6Z"/><path d="M257.58,1238.85a2.75,2.75,0,1,0,2.75,2.75A2.75,2.75,0,0,0,257.58,1238.85Z"/><circle cx="257.58" cy="1159.67" r="4.06"/><path d="M257.58,1078.43a5.16,5.16,0,1,0,5.15,5.16A5.16,5.16,0,0,0,257.58,1078.43Z"/><path d="M257.58,1007.34a6,6,0,1,0,6,6A6,6,0,0,0,257.58,1007.34Z"/><path d="M257.58,942.32a6.66,6.66,0,1,0,6.66,6.66A6.66,6.66,0,0,0,257.58,942.32Z"/><path d="M257.58,883.34a7.12,7.12,0,1,0,7.12,7.12A7.11,7.11,0,0,0,257.58,883.34Z"/><path d="M257.58,830.39a7.4,7.4,0,1,0,7.4,7.4A7.4,7.4,0,0,0,257.58,830.39Z"/><circle cx="257.58" cy="790.97" r="7.54"/><path d="M341.84,1238.19a4.13,4.13,0,1,0-2.33,7.54,4.09,4.09,0,0,0,2.32-.72,4,4,0,0,0,0-6.82Z"/><path d="M415.71,1236.26a5.34,5.34,0,1,0,5.35,5.34A5.34,5.34,0,0,0,415.71,1236.26Z"/><path d="M339.63,1154.16h-.12a5.51,5.51,0,0,0,0,11h.12a5.51,5.51,0,1,0,0-11Z"/><path d="M339.63,1076.87h-.12a6.72,6.72,0,0,0,0,13.43h.12a6.72,6.72,0,1,0,0-13.43Z"/><path d="M339.63,1005.66h-.12a7.7,7.7,0,0,0,0,15.39h.12a7.7,7.7,0,1,0,0-15.39Z"/><path d="M339.63,940.54h-.12a8.44,8.44,0,0,0,0,16.88h.12a8.44,8.44,0,0,0,0-16.88Z"/><path d="M339.63,881.48h-.12a9,9,0,0,0,0,17.94h.12a9,9,0,0,0,0-17.95Z"/><path d="M339.63,828.48h-.12a9.31,9.31,0,0,0,0,18.61h.12a9.31,9.31,0,1,0,0-18.61Z"/><path d="M339.63,781.49h-.12a9.48,9.48,0,0,0,0,19h.12a9.48,9.48,0,0,0,0-19Z"/><path d="M486.06,1235.27a6.33,6.33,0,1,0,6.33,6.33A6.32,6.32,0,0,0,486.06,1235.27Z"/><path d="M419.52,1154.05a6.78,6.78,0,1,0-3.81,12.4,6.76,6.76,0,0,0,3.81-12.4Z"/><path d="M486.06,1151.77a7.9,7.9,0,1,0,7.89,7.9A7.9,7.9,0,0,0,486.06,1151.77Z"/><path d="M415.83,1075.52h-.12a8.06,8.06,0,1,0,0,16.11h.12a8.07,8.07,0,0,0,0-16.13Z"/><path d="M415.83,1004.19h-.12a9.17,9.17,0,1,0,0,18.33h.12a9.17,9.17,0,1,0,0-18.34Z"/><path d="M415.83,938.94h-.12a10,10,0,0,0,0,20.07h.12a10,10,0,1,0,0-20.08Z"/><path d="M415.83,879.79h-.12a10.67,10.67,0,0,0,0,21.33h.12a10.67,10.67,0,0,0,0-21.33Z"/><path d="M415.83,826.72h-.12a11.07,11.07,0,0,0,0,22.13h.12a11.07,11.07,0,1,0,0-22.13Z"/><path d="M415.83,779.69h-.12a11.28,11.28,0,0,0,0,22.55h.12a11.28,11.28,0,1,0,0-22.55Z"/><circle cx="550.55" cy="1159.67" r="8.78"/><path d="M491.27,1076a9.17,9.17,0,1,0,4.08,7.63A9.18,9.18,0,0,0,491.27,1076Z"/><circle cx="550.55" cy="1083.59" r="10.25"/><path d="M486.17,1002.94h-.11a10.42,10.42,0,0,0,0,20.84h.11a10.42,10.42,0,1,0,0-20.84Z"/><path d="M486.17,937.56h-.11a11.42,11.42,0,1,0,0,22.84h.11a11.43,11.43,0,1,0,0-22.85Z"/><path d="M486.17,878.28h-.11a12.18,12.18,0,0,0,0,24.35h.11a12.18,12.18,0,1,0,0-24.35Z"/><path d="M486.17,825.12h-.11a12.67,12.67,0,1,0,0,25.33h.11a12.67,12.67,0,0,0,0-25.34Z"/><path d="M486.17,778h-.11a12.93,12.93,0,1,0,0,25.86h.11a12.94,12.94,0,1,0,0-25.87Z"/><path d="M550.67,1234.92h-.12a6.68,6.68,0,0,0,0,13.36h.12a6.68,6.68,0,1,0,0-13.36Z"/><path d="M609.19,1150.25a9.42,9.42,0,1,0,9.42,9.42A9.42,9.42,0,0,0,609.19,1150.25Z"/><path d="M609.19,1072.57a11,11,0,1,0,11,11A11,11,0,0,0,609.19,1072.57Z"/><path d="M557.88,1004.49a11.42,11.42,0,1,0,4.22,8.87A11.48,11.48,0,0,0,557.88,1004.49Z"/><path d="M609.19,1001a12.41,12.41,0,1,0,12.41,12.41A12.41,12.41,0,0,0,609.19,1001Z"/><path d="M550.67,936.4h-.12a12.58,12.58,0,1,0,0,25.16h.12a12.58,12.58,0,1,0,0-25.16Z"/><path d="M550.67,877h-.12a13.48,13.48,0,1,0,0,27h.12a13.48,13.48,0,1,0,0-27Z"/><path d="M550.67,823.69h-.12a14.1,14.1,0,1,0,0,28.19h.12a14.1,14.1,0,1,0,0-28.2Z"/><path d="M550.67,776.53h-.12a14.44,14.44,0,1,0,0,28.87h.12a14.44,14.44,0,1,0,0-28.88Z"/><path d="M609.31,1234.47h-.12a7.13,7.13,0,0,0,0,14.26h.12a7.13,7.13,0,1,0,0-14.26Z"/><path d="M662,1149.82a9.85,9.85,0,1,0,9.84,9.85A9.84,9.84,0,0,0,662,1149.82Z"/><path d="M662,1072.05a11.54,11.54,0,1,0,11.53,11.54A11.54,11.54,0,0,0,662,1072.05Z"/><path d="M662,1000.31a13,13,0,1,0,13,13.05A13,13,0,0,0,662,1000.31Z"/><path d="M618.8,939.41a13.47,13.47,0,1,0,4,9.57A13.49,13.49,0,0,0,618.8,939.41Z"/><path d="M662,934.62A14.36,14.36,0,1,0,676.34,949,14.36,14.36,0,0,0,662,934.62Z"/><path d="M609.31,875.91h-.12a14.55,14.55,0,0,0,0,29.1h.12a14.55,14.55,0,1,0,0-29.1Z"/><path d="M662,875a15.44,15.44,0,1,0,12.82,24A15.44,15.44,0,0,0,662,875Z"/><path d="M609.31,822.45h-.12a15.33,15.33,0,0,0,0,30.66h.12a15.34,15.34,0,0,0,0-30.67Z"/><path d="M609.31,775.18h-.12a15.79,15.79,0,0,0,0,31.58h.12a15.79,15.79,0,1,0,0-31.58Z"/><path d="M662.1,1234.18H662a7.41,7.41,0,0,0,0,14.82h.12a7.42,7.42,0,0,0,0-14.83Z"/><circle cx="708.92" cy="1159.67" r="10.07"/><path d="M708.92,1071.76a11.83,11.83,0,1,0,11.82,11.83A11.83,11.83,0,0,0,708.92,1071.76Z"/><path d="M708.92,999.93a13.43,13.43,0,1,0,13.42,13.43A13.43,13.43,0,0,0,708.92,999.93Z"/><path d="M708.92,934.12A14.86,14.86,0,1,0,723.77,949,14.86,14.86,0,0,0,708.92,934.12Z"/><path d="M708.92,874.35A16.11,16.11,0,1,0,725,890.46,16.11,16.11,0,0,0,708.92,874.35Z"/><path d="M662.1,821.47H662a16.32,16.32,0,1,0,0,32.63h.12a16.32,16.32,0,0,0,0-32.64Z"/><circle cx="708.92" cy="837.79" r="17.11"/><path d="M662.1,774H662a17,17,0,0,0,0,33.93h.12a17,17,0,0,0,0-33.93Z"/><path d="M709,1234h-.11a7.56,7.56,0,1,0,0,15.12H709a7.56,7.56,0,0,0,0-15.12Z"/><path d="M750,1234a7.6,7.6,0,0,0-7.6,7.6q0,.3,0,.6c0,.08,0,.15,0,.22a7.58,7.58,0,0,0,15.16,0c0-.07,0-.15,0-.22s0-.4,0-.6A7.6,7.6,0,0,0,750,1234Z"/><path d="M750,1150.12a9.54,9.54,0,0,0-9.54,9.55q0,.3,0,.6a1.5,1.5,0,0,0,0,.22,9.53,9.53,0,0,0,19.06,0,1.5,1.5,0,0,0,0-.22q0-.3,0-.6A9.54,9.54,0,0,0,750,1150.12Z"/><path d="M750,1071.66a11.92,11.92,0,0,0-6.4,22,11.33,11.33,0,0,0,12.8,0,11.92,11.92,0,0,0-6.4-22Z"/><path d="M750,999.79a13.56,13.56,0,0,0-3.92,26.55,12.9,12.9,0,0,0,7.84,0A13.56,13.56,0,0,0,750,999.79Z"/><path d="M750,933.92A15.06,15.06,0,1,0,765.06,949,15.06,15.06,0,0,0,750,933.92Z"/><circle cx="750" cy="890.46" r="16.4"/><circle cx="750" cy="837.79" r="17.59"/><path d="M709,773.07h-.11a17.9,17.9,0,1,0,0,35.79H709a17.9,17.9,0,1,0,0-35.79Z"/><circle cx="750" cy="790.97" r="18.58"/><circle cx="1241.6" cy="1242.42" r="2.75"/><path d="M1159.67,1238.35a4.07,4.07,0,1,0,4.06,4.07A4.07,4.07,0,0,0,1159.67,1238.35Z"/><path d="M1083.59,1237.27a5.15,5.15,0,1,0,5.15,5.15A5.15,5.15,0,0,0,1083.59,1237.27Z"/><circle cx="1013.36" cy="1242.42" r="6.01"/><circle cx="948.98" cy="1242.42" r="6.66"/><path d="M890.46,1235.3a7.12,7.12,0,1,0,7.11,7.12A7.12,7.12,0,0,0,890.46,1235.3Z"/><circle cx="837.79" cy="1242.42" r="7.4"/><path d="M791,1234.88a7.54,7.54,0,1,0,7.54,7.54A7.53,7.53,0,0,0,791,1234.88Z"/><path d="M1241.6,1156.3a4,4,0,0,0-3.41,1.86,4.13,4.13,0,1,0,6.82,0A4,4,0,0,0,1241.6,1156.3Z"/><path d="M1241.6,1078.94a5.35,5.35,0,1,0,5.34,5.35A5.35,5.35,0,0,0,1241.6,1078.94Z"/><path d="M1159.67,1154.86a5.51,5.51,0,0,0-5.51,5.51s0,.05,0,.08,0,0,0,0a5.51,5.51,0,0,0,11,0v-.12A5.51,5.51,0,0,0,1159.67,1154.86Z"/><path d="M1083.59,1153.65a6.72,6.72,0,0,0-6.72,6.72v.12a6.72,6.72,0,0,0,13.43,0v-.12A6.72,6.72,0,0,0,1083.59,1153.65Z"/><path d="M1013.36,1152.67a7.7,7.7,0,0,0-7.7,7.7s0,.05,0,.08v0a7.7,7.7,0,0,0,15.39,0v-.12A7.69,7.69,0,0,0,1013.36,1152.67Z"/><path d="M949,1151.93a8.44,8.44,0,0,0-8.44,8.44v.12a8.44,8.44,0,1,0,16.88,0v-.12A8.44,8.44,0,0,0,949,1151.93Z"/><path d="M890.46,1151.4a9,9,0,0,0-9,9s0,.05,0,.08v0a9,9,0,1,0,17.94,0v-.12A9,9,0,0,0,890.46,1151.4Z"/><path d="M837.79,1151.06a9.31,9.31,0,0,0-9.31,9.31v.12a9.31,9.31,0,0,0,18.61,0v-.12A9.3,9.3,0,0,0,837.79,1151.06Z"/><path d="M791,1150.89a9.47,9.47,0,0,0-9.48,9.48v.12a9.48,9.48,0,0,0,19,0v0s0-.06,0-.09A9.48,9.48,0,0,0,791,1150.89Z"/><path d="M1241.6,1007.61a6.33,6.33,0,1,0,6.33,6.33A6.33,6.33,0,0,0,1241.6,1007.61Z"/><path d="M1159.67,1077.45a6.86,6.86,0,1,0,5.61,3A6.73,6.73,0,0,0,1159.67,1077.45Z"/><path d="M1159.67,1006.05a7.9,7.9,0,1,0,7.89,7.89A7.9,7.9,0,0,0,1159.67,1006.05Z"/><path d="M1083.59,1076.11a8.06,8.06,0,0,0-8.07,8.06s0,0,0,.08v0a8.06,8.06,0,1,0,16.11,0v0s0,0,0-.08A8.06,8.06,0,0,0,1083.59,1076.11Z"/><path d="M1013.36,1075a9.17,9.17,0,0,0-9.17,9.17v.12a9.17,9.17,0,1,0,18.33,0v0s0,0,0-.08A9.18,9.18,0,0,0,1013.36,1075Z"/><path d="M949,1074.13a10,10,0,0,0-10,10s0,.06,0,.08v0a10,10,0,0,0,20.07,0v0s0,0,0-.08A10,10,0,0,0,949,1074.13Z"/><path d="M890.46,1073.51a10.67,10.67,0,0,0-10.67,10.66s0,.06,0,.08v0a10.67,10.67,0,0,0,21.33,0v-.12A10.66,10.66,0,0,0,890.46,1073.51Z"/><path d="M837.79,1073.1a11.07,11.07,0,0,0-11.07,11.07v.12a11.07,11.07,0,0,0,22.13,0v-.12A11.07,11.07,0,0,0,837.79,1073.1Z"/><path d="M791,1072.89a11.28,11.28,0,0,0-11.28,11.28v.12a11.28,11.28,0,0,0,22.55,0v-.12A11.27,11.27,0,0,0,791,1072.89Z"/><circle cx="1159.67" cy="949.45" r="8.78"/><path d="M1083.59,1004.65a9.27,9.27,0,0,0,0,18.53,9.23,9.23,0,0,0,7.62-14.45A9.14,9.14,0,0,0,1083.59,1004.65Z"/><path d="M1083.59,939.2a10.25,10.25,0,1,0,10.25,10.25A10.25,10.25,0,0,0,1083.59,939.2Z"/><path d="M1013.36,1003.4a10.42,10.42,0,0,0-10.42,10.43v.11a10.42,10.42,0,1,0,20.84,0s0,0,0,0,0,0,0-.07A10.43,10.43,0,0,0,1013.36,1003.4Z"/><path d="M949,1002.4a11.42,11.42,0,0,0-11.42,11.43v.11a11.42,11.42,0,1,0,22.84,0v0s0-.06,0-.08A11.43,11.43,0,0,0,949,1002.4Z"/><path d="M890.46,1001.65a12.18,12.18,0,0,0-12.18,12.18s0,0,0,.08,0,0,0,0a12.18,12.18,0,0,0,24.35,0v-.11A12.17,12.17,0,0,0,890.46,1001.65Z"/><path d="M837.79,1001.16a12.67,12.67,0,0,0-12.67,12.67v.11a12.67,12.67,0,1,0,25.33,0v0s0-.06,0-.08A12.67,12.67,0,0,0,837.79,1001.16Z"/><path d="M791,1000.89A12.94,12.94,0,0,0,778,1013.83s0,0,0,.08v0a12.93,12.93,0,1,0,25.86,0s0,0,0,0,0-.06,0-.08A12.93,12.93,0,0,0,791,1000.89Z"/><path d="M1241.6,942.65a6.68,6.68,0,0,0-6.68,6.68s0,0,0,.07,0,0,0,.05a6.68,6.68,0,0,0,13.36,0s0,0,0-.05,0,0,0-.07A6.68,6.68,0,0,0,1241.6,942.65Z"/><circle cx="1159.67" cy="890.81" r="9.42"/><path d="M1083.59,879.79a11,11,0,1,0,11,11A11,11,0,0,0,1083.59,879.79Z"/><path d="M1013.36,937.9a11.58,11.58,0,1,0,8.86,4.22A11.43,11.43,0,0,0,1013.36,937.9Z"/><circle cx="1013.36" cy="890.81" r="12.41"/><path d="M949,936.75a12.58,12.58,0,0,0-12.58,12.58v.12a12.58,12.58,0,1,0,25.16,0v-.12A12.58,12.58,0,0,0,949,936.75Z"/><path d="M958.55,881.2a13.57,13.57,0,0,0-23.14,9.61,13.57,13.57,0,1,0,23.14-9.61Z"/><path d="M890.46,935.85A13.48,13.48,0,0,0,877,949.33v.12a13.48,13.48,0,1,0,27,0s0,0,0,0,0,0,0-.08A13.49,13.49,0,0,0,890.46,935.85Z"/><path d="M837.79,935.23a14.1,14.1,0,0,0-14.1,14.1v.12a14.1,14.1,0,1,0,28.19,0v-.12A14.1,14.1,0,0,0,837.79,935.23Z"/><path d="M791,934.89a14.44,14.44,0,0,0-14.44,14.44v.12a14.44,14.44,0,1,0,28.87,0v0s0-.06,0-.09A14.45,14.45,0,0,0,791,934.89Z"/><path d="M1241.6,883.56a7.13,7.13,0,0,0-7.13,7.13v.12a7.13,7.13,0,0,0,14.26,0v-.12A7.13,7.13,0,0,0,1241.6,883.56Z"/><path d="M1159.67,828.18a9.84,9.84,0,1,0,9.84,9.84A9.84,9.84,0,0,0,1159.67,828.18Z"/><circle cx="1083.59" cy="838.02" r="11.53"/><circle cx="1013.36" cy="838.02" r="13.05"/><path d="M949,823.66A14.36,14.36,0,1,0,963.34,838,14.36,14.36,0,0,0,949,823.66Z"/><path d="M890.46,876.14a14.55,14.55,0,0,0-14.55,14.55v.12a14.55,14.55,0,0,0,29.1,0s0,0,0,0,0,0,0-.08A14.56,14.56,0,0,0,890.46,876.14Z"/><path d="M899.05,825.2A15.44,15.44,0,0,0,875,838a15.44,15.44,0,1,0,24-12.82Z"/><path d="M837.79,875.36a15.33,15.33,0,0,0-15.34,15.33s0,.06,0,.08v0a15.33,15.33,0,0,0,30.66,0v0s0,0,0-.08A15.33,15.33,0,0,0,837.79,875.36Z"/><path d="M791,874.9a15.79,15.79,0,0,0-15.79,15.79v.12a15.79,15.79,0,0,0,31.58,0s0,0,0,0,0,0,0-.08A15.79,15.79,0,0,0,791,874.9Z"/><path d="M1241.6,830.49a7.42,7.42,0,0,0-7.42,7.41s0,0,0,.07v0a7.41,7.41,0,0,0,14.82,0v-.12A7.41,7.41,0,0,0,1241.6,830.49Z"/><circle cx="1159.67" cy="791.08" r="10.07"/><path d="M1083.59,779.26a11.83,11.83,0,1,0,11.82,11.82A11.82,11.82,0,0,0,1083.59,779.26Z"/><circle cx="1013.36" cy="791.08" r="13.42"/><circle cx="948.98" cy="791.08" r="14.86"/><circle cx="890.46" cy="791.08" r="16.1"/><path d="M837.79,821.58a16.33,16.33,0,0,0-16.33,16.32s0,.05,0,.08v0a16.32,16.32,0,1,0,32.63,0v0s0-.05,0-.08A16.32,16.32,0,0,0,837.79,821.58Z"/><circle cx="837.79" cy="791.08" r="17.11"/><path d="M791,820.94a17,17,0,0,0-17,17V838a17,17,0,0,0,33.93,0v-.12A17,17,0,0,0,791,820.94Z"/><path d="M1241.6,783.41A7.55,7.55,0,0,0,1234,791v.11a7.56,7.56,0,1,0,15.12,0V791A7.56,7.56,0,0,0,1241.6,783.41Z"/><path d="M1241.6,757.6l.6,0h.22a7.58,7.58,0,0,0,0-15.16h-.22l-.6,0a7.6,7.6,0,1,0,0,15.2Z"/><path d="M1083.59,738.07a11.93,11.93,0,1,0,10.05,18.33,11.33,11.33,0,0,0,0-12.8A11.91,11.91,0,0,0,1083.59,738.07Z"/><path d="M1013.36,736.43a13.57,13.57,0,1,0,13,17.49,12.9,12.9,0,0,0,0-7.84A13.56,13.56,0,0,0,1013.36,736.43Z"/><path d="M949,734.94A15.06,15.06,0,1,0,964,750,15.06,15.06,0,0,0,949,734.94Z"/><circle cx="890.46" cy="750" r="16.4"/><circle cx="837.79" cy="750" r="17.59"/><path d="M791,773.07a17.89,17.89,0,0,0-17.9,17.9s0,0,0,.08v0a17.9,17.9,0,1,0,35.79,0V791A17.89,17.89,0,0,0,791,773.07Z"/><circle cx="790.97" cy="750" r="18.58"/><path d="M1242.42,261.15a2.75,2.75,0,1,0-2.75-2.75A2.75,2.75,0,0,0,1242.42,261.15Z"/><path d="M1242.42,344.4a4.07,4.07,0,1,0-4.07-4.07A4.07,4.07,0,0,0,1242.42,344.4Z"/><path d="M1242.42,421.57a5.16,5.16,0,1,0-5.15-5.16A5.16,5.16,0,0,0,1242.42,421.57Z"/><path d="M1242.42,492.66a6,6,0,1,0-6-6A6,6,0,0,0,1242.42,492.66Z"/><path d="M1242.42,557.68a6.66,6.66,0,1,0-6.66-6.66A6.66,6.66,0,0,0,1242.42,557.68Z"/><path d="M1242.42,616.66a7.12,7.12,0,1,0-7.12-7.12A7.11,7.11,0,0,0,1242.42,616.66Z"/><path d="M1242.42,669.61a7.4,7.4,0,1,0-7.4-7.4A7.4,7.4,0,0,0,1242.42,669.61Z"/><circle cx="1242.42" cy="709.03" r="7.54"/><path d="M1160.49,740.47l-.22,0c-.2,0-.4,0-.6,0a9.55,9.55,0,1,0,0,19.09l.6,0,.22,0a9.53,9.53,0,0,0,0-19.06Z"/><path d="M1158.17,261.81a4.13,4.13,0,1,0,0-6.82,4,4,0,0,0,0,6.82Z"/><path d="M1084.29,263.74a5.34,5.34,0,1,0-5.35-5.34A5.34,5.34,0,0,0,1084.29,263.74Z"/><path d="M1160.37,345.84h.12a5.51,5.51,0,0,0,0-11h-.12a5.51,5.51,0,1,0,0,11Z"/><path d="M1160.37,423.13h.12a6.72,6.72,0,0,0,0-13.43h-.12a6.72,6.72,0,1,0,0,13.43Z"/><path d="M1160.37,494.34h.12a7.7,7.7,0,0,0,0-15.39h-.12a7.7,7.7,0,1,0,0,15.39Z"/><path d="M1160.37,559.46h.12a8.44,8.44,0,1,0,0-16.88h-.12a8.44,8.44,0,1,0,0,16.88Z"/><path d="M1160.37,618.52h.12a9,9,0,1,0,0-17.94h-.12a9,9,0,0,0,0,17.95Z"/><path d="M1160.37,671.52h.12a9.31,9.31,0,0,0,0-18.61h-.12a9.31,9.31,0,1,0,0,18.61Z"/><path d="M1160.37,718.51h.12a9.48,9.48,0,0,0,0-19h-.12a9.48,9.48,0,1,0,0,19Z"/><path d="M1013.94,264.73a6.33,6.33,0,1,0-6.33-6.33A6.32,6.32,0,0,0,1013.94,264.73Z"/><path d="M1080.49,346a6.7,6.7,0,0,0,3.8,1.17,6.79,6.79,0,1,0-3.81-12.4,6.71,6.71,0,0,0,0,11.23Z"/><circle cx="1013.94" cy="340.33" r="7.9"/><path d="M1084.17,424.48h.12a8.06,8.06,0,1,0,0-16.11h-.12a8.07,8.07,0,0,0,0,16.13Z"/><path d="M1084.17,495.81h.12a9.17,9.17,0,1,0,0-18.33h-.12a9.17,9.17,0,0,0,0,18.34Z"/><path d="M1084.17,561.06h.12a10,10,0,0,0,0-20.07h-.12a10,10,0,0,0,0,20.08Z"/><path d="M1084.17,620.21h.12a10.67,10.67,0,0,0,0-21.33h-.12a10.67,10.67,0,0,0,0,21.33Z"/><path d="M1084.17,673.28h.12a11.07,11.07,0,0,0,0-22.13h-.12a11.07,11.07,0,1,0,0,22.13Z"/><path d="M1084.17,720.31h.12a11.28,11.28,0,0,0,0-22.55h-.12a11.28,11.28,0,1,0,0,22.55Z"/><path d="M949.45,349.11a8.78,8.78,0,1,0-8.78-8.78A8.77,8.77,0,0,0,949.45,349.11Z"/><path d="M1008.73,424a9.17,9.17,0,1,0-4.08-7.63A9.16,9.16,0,0,0,1008.73,424Z"/><path d="M949.45,426.67a10.26,10.26,0,1,0-10.25-10.26A10.25,10.25,0,0,0,949.45,426.67Z"/><path d="M1013.83,497.06h.11a10.42,10.42,0,0,0,0-20.84h-.11a10.42,10.42,0,1,0,0,20.84Z"/><path d="M1013.83,562.44h.11a11.42,11.42,0,1,0,0-22.84h-.11a11.43,11.43,0,1,0,0,22.85Z"/><path d="M1013.83,621.72h.11a12.18,12.18,0,0,0,0-24.35h-.11a12.18,12.18,0,1,0,0,24.35Z"/><path d="M1013.83,674.88h.11a12.67,12.67,0,1,0,0-25.33h-.11a12.67,12.67,0,0,0,0,25.34Z"/><path d="M1013.83,722h.11a12.93,12.93,0,0,0,0-25.86h-.11a12.94,12.94,0,1,0,0,25.87Z"/><path d="M949.33,265.08h.12a6.68,6.68,0,0,0,0-13.36h-.12a6.68,6.68,0,0,0,0,13.36Z"/><path d="M890.81,349.75a9.42,9.42,0,1,0-9.42-9.42A9.42,9.42,0,0,0,890.81,349.75Z"/><path d="M890.81,427.43a11,11,0,1,0-11-11A11,11,0,0,0,890.81,427.43Z"/><path d="M942.12,495.51a11.42,11.42,0,1,0-4.22-8.87A11.48,11.48,0,0,0,942.12,495.51Z"/><path d="M890.81,499.05a12.41,12.41,0,1,0-12.41-12.41A12.41,12.41,0,0,0,890.81,499.05Z"/><path d="M949.33,563.6h.12a12.58,12.58,0,0,0,0-25.16h-.12a12.58,12.58,0,0,0,0,25.16Z"/><path d="M949.33,623h.12a13.48,13.48,0,0,0,0-27h-.12a13.48,13.48,0,1,0,0,27Z"/><path d="M949.33,676.31h.12a14.1,14.1,0,1,0,0-28.19h-.12a14.1,14.1,0,0,0,0,28.2Z"/><path d="M949.33,723.47h.12a14.44,14.44,0,1,0,0-28.87h-.12a14.44,14.44,0,0,0,0,28.88Z"/><path d="M890.69,265.53h.12a7.13,7.13,0,1,0,0-14.26h-.12a7.13,7.13,0,0,0,0,14.26Z"/><path d="M838,350.18a9.85,9.85,0,1,0-9.84-9.85A9.84,9.84,0,0,0,838,350.18Z"/><path d="M838,428a11.54,11.54,0,1,0-11.53-11.54A11.54,11.54,0,0,0,838,428Z"/><path d="M838,499.69a13,13,0,1,0-13-13.05A13,13,0,0,0,838,499.69Z"/><path d="M881.2,560.59a13.47,13.47,0,1,0-4-9.57A13.49,13.49,0,0,0,881.2,560.59Z"/><path d="M838,565.38A14.36,14.36,0,1,0,823.66,551,14.36,14.36,0,0,0,838,565.38Z"/><path d="M890.69,624.09h.12a14.55,14.55,0,1,0,0-29.1h-.12a14.55,14.55,0,0,0,0,29.1Z"/><path d="M838,625a15.44,15.44,0,1,0-12.82-24A15.44,15.44,0,0,0,838,625Z"/><path d="M890.69,677.55h.12a15.33,15.33,0,1,0,0-30.66h-.12a15.34,15.34,0,0,0,0,30.67Z"/><path d="M890.69,724.82h.12a15.79,15.79,0,1,0,0-31.58h-.12a15.79,15.79,0,0,0,0,31.58Z"/><path d="M837.9,265.82H838A7.41,7.41,0,0,0,838,251h-.12a7.42,7.42,0,0,0,0,14.83Z"/><circle cx="791.08" cy="340.33" r="10.07"/><path d="M791.08,428.24a11.83,11.83,0,1,0-11.82-11.83A11.83,11.83,0,0,0,791.08,428.24Z"/><path d="M791.08,500.07a13.43,13.43,0,1,0-13.42-13.43A13.43,13.43,0,0,0,791.08,500.07Z"/><circle cx="791.08" cy="551.02" r="14.86"/><path d="M791.08,625.65A16.11,16.11,0,1,0,775,609.54,16.11,16.11,0,0,0,791.08,625.65Z"/><path d="M837.9,678.53H838a16.32,16.32,0,1,0,0-32.63h-.12a16.32,16.32,0,1,0,0,32.64Z"/><path d="M791.08,679.32A17.11,17.11,0,1,0,774,662.21,17.11,17.11,0,0,0,791.08,679.32Z"/><path d="M837.9,726H838a17,17,0,0,0,0-33.93h-.12a17,17,0,0,0,0,33.93Z"/><path d="M791,266h.11a7.56,7.56,0,0,0,0-15.12H791A7.56,7.56,0,0,0,791,266Z"/><path d="M750,266a7.6,7.6,0,0,0,7.6-7.6q0-.3,0-.6c0-.07,0-.15,0-.22a7.58,7.58,0,1,0-15.16,0c0,.07,0,.14,0,.22s0,.4,0,.6A7.6,7.6,0,0,0,750,266Z"/><path d="M750,349.88a9.54,9.54,0,0,0,9.54-9.55q0-.3,0-.6a1.5,1.5,0,0,0,0-.22,9.53,9.53,0,0,0-19.06,0,1.5,1.5,0,0,0,0,.22q0,.3,0,.6A9.54,9.54,0,0,0,750,349.88Z"/><path d="M750,428.34a11.92,11.92,0,0,0,6.4-22,11.33,11.33,0,0,0-12.8,0,11.92,11.92,0,0,0,6.4,22Z"/><path d="M750,500.21a13.56,13.56,0,0,0,3.92-26.55,12.9,12.9,0,0,0-7.84,0A13.56,13.56,0,0,0,750,500.21Z"/><circle cx="750" cy="551.02" r="15.06"/><circle cx="750" cy="609.54" r="16.4"/><circle cx="750" cy="662.21" r="17.59"/><path d="M791,726.93h.11a17.9,17.9,0,1,0,0-35.79H791a17.9,17.9,0,1,0,0,35.79Z"/><circle cx="750" cy="750" r="19.27"/><circle cx="750" cy="709.03" r="18.58"/></svg>