<svg id="Abstract_Shape" data-name="Abstract Shape" xmlns="http://www.w3.org/2000/svg" viewBox="0 0 1500 1500"><path d="M1212.09,554.79a501.79,501.79,0,1,0-466.84,696.68c1.58,0,3.17,0,4.75,0s3.17,0,4.75,0a501.78,501.78,0,0,0,457.34-696.68ZM591.92,1183a223.55,223.55,0,1,1,316.16,0,225.79,225.79,0,0,1-33.63,27.71,210.65,210.65,0,0,0,86.35-170c0-116.23-94.57-210.8-210.8-210.8s-210.8,94.57-210.8,210.8a210.65,210.65,0,0,0,86.35,170A225.79,225.79,0,0,1,591.92,1183Zm26,26a242.64,242.64,0,0,1-38-31,240.49,240.49,0,1,1,340.1,0,242.64,242.64,0,0,1-38,31,229.09,229.09,0,0,0,28.11-23.91,226.55,226.55,0,1,0-320.4,0A228.21,228.21,0,0,0,617.91,1209.05Zm304.26-28.87a243.49,243.49,0,1,0-344.34,0,245.75,245.75,0,0,0,34.85,29,260.93,260.93,0,0,1-45.61-36.42,258.71,258.71,0,1,1,365.86,0,260.93,260.93,0,0,1-45.61,36.42A245.75,245.75,0,0,0,922.17,1180.18Zm-380-139.48c0-114.58,93.22-207.8,207.8-207.8s207.8,93.22,207.8,207.8a207.63,207.63,0,0,1-85.54,167.91,195.87,195.87,0,0,0,73.89-153.26c0-108.15-88-196.14-196.15-196.14s-196.15,88-196.15,196.14a195.87,195.87,0,0,0,73.89,153.26A207.61,207.61,0,0,1,542.2,1040.7Zm392.85,134.15a261.71,261.71,0,1,0-370.1,0,264.53,264.53,0,0,0,42.43,34.46A280.48,280.48,0,0,1,553.22,1167a278.29,278.29,0,1,1,393.56,0,280.48,280.48,0,0,1-54.16,42.32A264.53,264.53,0,0,0,935.05,1174.85Zm-378.2-119.5c0-106.5,86.65-193.14,193.15-193.14s193.15,86.64,193.15,193.14a193,193,0,0,1-75.74,153.26A182.23,182.23,0,0,0,932.52,1069c0-100.65-81.88-182.52-182.52-182.52S567.48,968.33,567.48,1069a182.17,182.17,0,0,0,65.12,139.63A192.92,192.92,0,0,1,556.85,1055.35Zm392,113.76a281.29,281.29,0,1,0-397.8,0,283.59,283.59,0,0,0,50.24,40,300.93,300.93,0,0,1-63-48.29,299.35,299.35,0,1,1,423.34,0,300.93,300.93,0,0,1-63,48.29A283.59,283.59,0,0,0,948.9,1169.11ZM570.48,1069c0-99,80.53-179.52,179.52-179.52S929.52,970,929.52,1069a179.27,179.27,0,0,1-66.81,139.62,169.49,169.49,0,0,0,57.14-126.95C919.85,988,843.66,911.8,750,911.8S580.15,988,580.15,1081.65a169.48,169.48,0,0,0,57.13,126.94A179.27,179.27,0,0,1,570.48,1069Zm393.31,94a302.35,302.35,0,1,0-427.58,0,304.26,304.26,0,0,0,58.62,45.85,322.13,322.13,0,0,1-72.51-510,322,322,0,1,1,455.36,455.37,323.07,323.07,0,0,1-72.51,54.6A304.26,304.26,0,0,0,963.79,1162.94Zm-380.64-81.29c0-92,74.85-166.85,166.85-166.85s166.85,74.85,166.85,166.85a166.55,166.55,0,0,1-58.68,126.93,157.67,157.67,0,0,0,49.9-115.15c0-87.15-70.91-158.06-158.07-158.06s-158.07,70.91-158.07,158.06a157.67,157.67,0,0,0,49.9,115.15A166.55,166.55,0,0,1,583.15,1081.65Zm396.66,74.66a325,325,0,1,0-459.62,0A326.65,326.65,0,0,0,589.06,1209a345.77,345.77,0,1,1,321.88,0A326.65,326.65,0,0,0,979.81,1156.31Zm-384.88-62.88c0-85.5,69.57-155.06,155.07-155.06s155.07,69.56,155.07,155.06a154.71,154.71,0,0,1-51.25,115.09,146.69,146.69,0,0,0,43.29-104.13c0-81.11-66-147.1-147.11-147.1s-147.11,66-147.11,147.1a146.69,146.69,0,0,0,43.29,104.13A154.71,154.71,0,0,1,594.93,1093.43ZM997,1149.18a349.34,349.34,0,1,0-494,0,350.66,350.66,0,0,0,78,58.88,372.19,372.19,0,1,1,338,0A351.14,351.14,0,0,0,997,1149.18Zm-391.13-44.79c0-79.46,64.65-144.1,144.11-144.1s144.11,64.64,144.11,144.1a143.72,143.72,0,0,1-44.68,104.22,136.44,136.44,0,0,0,37.48-94c0-75.5-61.41-136.92-136.91-136.92s-136.91,61.42-136.91,136.92a136.44,136.44,0,0,0,37.48,94A143.72,143.72,0,0,1,605.89,1104.39Zm409.65,37.12a375.28,375.28,0,1,0-439,67.61,400.29,400.29,0,1,1,346.87,0A374.72,374.72,0,0,0,1015.54,1141.51Zm-399.45-26.92c0-73.84,60.07-133.92,133.91-133.92s133.91,60.08,133.91,133.92a133.5,133.5,0,0,1-38.59,94,127.43,127.43,0,1,0-190.64,0A133.45,133.45,0,0,1,616.09,1114.59Zm419.35,18.68a403.42,403.42,0,1,0-466.35,75.5,430.7,430.7,0,1,1,361.82,0A402.53,402.53,0,0,0,1035.44,1133.27ZM746.79,1248.46a124.43,124.43,0,1,1,6.42,0c-1.07,0-2.14,0-3.21,0S747.86,1248.48,746.79,1248.46ZM938,1208.77a433.56,433.56,0,1,0-376.06,0,463.09,463.09,0,1,1,376.06,0ZM1209.33,944A500.34,500.34,0,0,1,944.85,1209a466.14,466.14,0,1,0-389.7,0A498.34,498.34,0,1,1,1209.33,944Z"/></svg>