<svg id="Abstract_Shape" data-name="Abstract Shape" xmlns="http://www.w3.org/2000/svg" viewBox="0 0 1500 1500"><path d="M750,314,247.4,1184.5H1252.6Zm492.13,867.5-39.9-70.17h4.66l40.51,70.17Zm-22.53,0-38.07-70.17h19.55l39.9,70.17Zm-36.78,0-35.08-70.17h32.65l38.07,70.17Zm-49.92,0-31-70.17h44.75l35.09,70.17Zm-61.53,0-26-70.17h55.45l31,70.17Zm-71.28,0-20.26-70.17h64.43l26,70.17Zm-78.87,0-13.85-70.17h71.42l20.26,70.17Zm-84,0-7-70.17h76.21l13.85,70.17Zm-257.38,0,13.85-70.17h76.21l-7,70.17Zm-78.85,0,20.26-70.17h71.42l-13.85,70.17Zm-71.26,0,26.05-70.17h64.43l-20.26,70.17Zm-61.5,0,31-70.17h55.45l-26,70.17Zm-49.9,0,35.09-70.17h44.75l-31,70.17Zm-36.75,0,38.07-70.17h32.65l-35.08,70.17Zm-22.52,0,39.9-70.17h19.55L280.4,1181.5ZM789.65,388.67h-.2l-3-5.58Zm37.82,72.16h-5l-35.59-71.16h2Zm56.1,217.5L910,749.5h-34.6l-20.55-71.17Zm-29-1L834,606.17h22.78l26.42,71.16ZM911,749.5l-26.41-71.17h24.64l31.47,71.17Zm30.14,1,31.48,71.17H937.83L911.41,750.5Zm-30.83,0,26.41,71.17H896.21L875.66,750.5Zm26.78,72.17,26.42,71.16H917L896.5,822.67Zm1.07,0h34.9l31.48,71.16h-40Zm36,0h28.08l35.59,71.16h-32.19Zm-.44-1L942.28,750.5H966.2l35.58,71.17ZM941.84,749.5l-31.48-71.17h19.75L965.7,749.5Zm-31.92-72.17-31.48-71.16H894l35.58,71.16Zm-1.09,0H884.26l-26.41-71.16h19.5Zm-51.35-72.16L831.07,534h14.36l31.48,71.17Zm-1.07,0h-22.7L813.16,534H830ZM812.88,533l-20.55-71.17h10.89L829.63,533Zm-1,0H793.17l-14.06-71.17h12.18Zm.28,1,20.55,71.17H807.42L793.36,534ZM833,606.17l20.54,71.16H821.67l-14.06-71.16Zm20.83,72.16,20.55,71.17H835.92l-14.06-71.17Zm20.83,72.17,20.55,71.17h-45L836.11,750.5Zm20.84,72.17L916,893.83H864.42l-14.06-71.16Zm20.83,72.16L936.84,966H878.67l-14.06-71.17Zm1,0h46.59L990.33,966H937.88Zm47.65,0h40L1036.5,966H991.39Zm41.14,0h32.25L1074,966h-36.36Zm33.36,0h23.45L1101.54,966h-26.47Zm-.5-1-35.58-71.16h20.38l38.61,71.16Zm-36.08-72.16L967.31,750.5h17.32l38.6,71.17ZM966.81,749.5l-35.58-71.17h14.24l38.61,71.17Zm-36.08-72.17-35.58-71.16h11.17l38.61,71.16Zm-36.08-72.16L859.06,534h8.1l38.61,71.17Zm-1.12,0H878L846.52,534H858ZM846.08,533,814.6,461.83h7.26L857.45,533ZM845,533H830.7l-26.42-71.17h9.23Zm-41.08-72.17L777.5,389.67h4.09l31.48,71.16Zm-1.06,0H792L771.5,389.67h4.94Zm-11.85,0H778.91l-14-71.16h5.6Zm-13.11,0h-13l-7.13-71.16h6.05Zm.2,1L792.15,533h-20L765,461.83ZM792.34,534l14.06,71.17h-27L772.26,534Zm14.25,72.17,14.06,71.16h-34l-7.14-71.16Zm14.25,72.16L834.9,749.5h-41l-7.13-71.17Zm14.25,72.17,14.06,71.17h-48L794,750.5Zm14.25,72.17,14.06,71.16H808.34l-7.14-71.16Zm14.25,72.16L877.65,966H815.57l-7.13-71.17ZM877.85,967l14,71.17H822.81L815.67,967Zm1,0h58.25l20.55,71.17H892.92Zm59.29,0H990.7l26.41,71.17h-58.4Zm53.6,0h45.18l31.48,71.17h-50.24Zm46.27,0h36.42l35.59,71.17h-40.53Zm37.54,0h26.52l38.61,71.17h-29.55Zm27.66,0H1119l40.47,71.17h-17.64Zm-.55-1-38.61-71.17H1078L1118.44,966Zm-39.15-72.17-38.61-71.16h12l40.46,71.16Zm-39.16-72.16-38.6-71.17h10.14l40.47,71.17ZM985.22,749.5l-38.61-71.17h8.27l40.46,71.17Zm-39.15-72.17-38.61-71.16h6.38l40.47,71.16Zm-39.16-72.16L868.3,534h4.51l40.47,71.17ZM867.76,533l-38.61-71.17h2.63L872.24,533Zm-1.14,0h-8.06L823,461.83h5Zm-45.26-72.17h-7.2l-31.47-71.16h3.09Zm-39.11-72.16L759,336.16l26.26,52.51Zm-1.1,0h-4l-21-56.49Zm-5.08,0h-4.86l-17-58.89Zm-5.9,0h-5.51l-11.92-60.38Zm-6.53,0h-5.95l-6.14-61.26Zm-7,0H750.5V327Zm.1,1,7.14,71.16H750.5V389.67ZM764,461.83,771.15,533H750.5V461.83ZM771.25,534l7.14,71.17H750.5V534Zm7.24,72.17,7.13,71.16H750.5V606.17Zm7.23,72.16,7.14,71.17H750.5V678.33ZM793,750.5l7.13,71.17H750.5V750.5Zm7.23,72.17,7.14,71.16H750.5V822.67Zm7.24,72.16L814.57,966H750.5V894.83ZM814.67,967l7.13,71.17H750.5V967Zm7.23,72.17,7.14,71.16H750.5v-71.16Zm1,0H892.1l14,71.16H830Zm70.21,0H958l20.54,71.16H907.17Zm65.88,0h58.48l26.41,71.16H979.54Zm59.55,0h50.31l31.48,71.16H1045Zm51.4,0h40.59l35.58,71.16h-44.69Zm41.7,0h29.59l38.61,71.16h-32.61Zm30.73,0h17.67l40.46,71.16H1181Zm18.82,0h4l41.09,71.16h-4.65Zm-.57-1L1120.16,967h3.4l41.09,71.17Zm-41-72.17-40.46-71.17h2.76L1123,966Zm-41-72.17-40.46-71.16h2.12l41.09,71.16Zm-41-72.16L997.06,750.5h1.5l41.09,71.17Zm-41-72.17L956,678.33h.86L998,749.5Zm-41-72.17L915,606.17h.22l41.09,71.16Zm-41-72.16-14.27-25.1,14.49,25.1ZM831.21,460.83h-2.6L790,389.67h.22l34.21,59.25ZM767.56,350.42l20.75,38.25h-1.92l-21-42.05Zm-54,32.67-3,5.58h-.2Zm-2.43,6.58h2l-35.59,71.16h-5ZM686.84,534l-20.55,71.17h-22.7L670,534Zm-16.47-1,26.41-71.17h10.89L687.12,533ZM588.59,750.5l-26.42,71.17H527.34l31.48-71.17Zm-29.33-1,31.47-71.17h24.64L589,749.5Zm2.54,73.17-26.41,71.16h-40l31.48-71.16Zm1.07,0H603.5L583,893.83H536.45Zm.37-1,26.41-71.17h34.69l-20.55,71.17ZM590,749.5l26.41-71.17h28.74L624.62,749.5Zm26.78-72.17,26.42-71.16H666l-20.54,71.16Zm25.72-72.16H623.09L654.57,534h14.36Zm-.37,1-26.41,71.16H591.17l31.48-71.16Zm-52.07,71.16H570.39L606,606.17h15.59Zm-.44,1L558.16,749.5H534.3l35.59-71.17ZM557.72,750.5l-31.48,71.17h-28L533.8,750.5ZM525.8,822.67l-31.48,71.16H462.13l35.59-71.16Zm-31.92,72.16L462.41,966H426.05l35.58-71.17Zm1.1,0h40L508.61,966H463.5Zm41.1,0h46.59L562.12,966H509.67Zm47.63,0h51.68L621.33,966H563.16Zm.29-1,20.54-71.16h45.1l-14.06,71.16Zm20.83-72.16,20.55-71.17h38.51l-14.06,71.17Zm20.83-72.17,20.55-71.17h31.93L664.08,749.5Zm20.84-72.17L667,606.17h25.35l-14.06,71.16Zm20.83-72.16L687.88,534h18.76l-14.06,71.17ZM688.16,533l20.55-71.17h12.18L706.83,533ZM709,460.83l20.54-71.16h5.6l-14,71.16Zm-1,0H697.15l26.41-71.16h4.94Zm-11.87,0h-9.16l31.48-71.16h4.09Zm-.37,1L669.3,533H655l31.48-71.17ZM653.92,533H642.55l35.59-71.17h7.26Zm-.44,1L622,605.17H606.47L642.05,534Zm-48.13,71.17H594.23L632.84,534h8.1Zm-.5,1-35.58,71.16h-14.2l38.61-71.16Zm-36.08,72.16L533.19,749.5H515.92l38.61-71.17ZM532.69,750.5,497.1,821.67H476.77l38.6-71.17ZM496.6,822.67,461,893.83H437.61l38.61-71.16Zm-36.08,72.16L424.93,966H398.46l38.61-71.17ZM424.43,967l-35.58,71.17H359.3L397.91,967Zm1.12,0H462l-31.48,71.17H390Zm37.51,0h45.18l-26.42,71.17H431.58Zm46.24,0h52.54l-20.55,71.17h-58.4Zm53.58,0h58.25l-14,71.17H542.33Zm59.27,0h62.18l-7.14,71.17H608.1Zm.2-1,14.06-71.17h55.15L684.43,966Zm14.25-72.17,14.06-71.16H698.8l-7.14,71.16Zm14.25-72.16,14.06-71.17H706l-7.14,71.17ZM665.1,749.5l14.06-71.17h34.11l-7.13,71.17Zm14.25-72.17,14.06-71.16h27.1l-7.14,71.16Zm14.25-72.16L707.66,534h20.08l-7.13,71.17ZM707.85,533l14.06-71.17H735L727.84,533Zm14.26-72.17,14-71.16h6.05l-7.13,71.16Zm14.25-72.16,12.09-61.26-6.14,61.26Zm-1,0h-5.51l17.43-60.38Zm-6.55,0h-4.86l21.86-58.89Zm-5.92,0h-4l25-56.49Zm-5.12,0h-3L741,336.16Zm-.44,1-31.47,71.16h-7.2l35.58-71.16ZM677,461.83,641.44,533h-8.06L672,461.83ZM632.24,533h-4.48l40.47-71.17h2.62Zm-.54,1-38.61,71.17h-6.37L627.19,534Zm-39.16,72.17-38.61,71.16h-8.24l40.47-71.16Zm-39.15,72.16L514.78,749.5H504.66l40.46-71.17ZM514.23,750.5l-38.6,71.17h-12l40.47-71.17Zm-39.15,72.17-38.61,71.16H422.59l40.47-71.16Zm-39.15,72.16L397.32,966H381.55L422,894.83ZM396.77,967l-38.61,71.17H340.52L381,967Zm-39.15,72.17L319,1110.33H299.49L340,1039.17Zm1.14,0h29.59l-35.59,71.16H320.15Zm30.7,0h40.59l-31.48,71.16H353.88Zm41.68,0h50.31L455,1110.33H399.66Zm51.38,0H541l-20.54,71.16H456.11Zm59.52,0h64.84l-14,71.16H521.5Zm65.86,0h69.19L670,1110.33H593.85Zm70.2,0h71.4v71.16H671Zm.1-1L685.33,967H749.5v71.17ZM685.43,966l7.14-71.17H749.5V966Zm7.24-72.17,7.14-71.16H749.5v71.16Zm7.24-72.16L707,750.5H749.5v71.17Zm7.23-72.17,7.14-71.17H749.5V749.5Zm7.24-72.17,7.13-71.16h28v71.16Zm7.23-72.16L728.75,534H749.5v71.17ZM728.85,533,736,461.83H749.5V533Zm7.23-72.17,7.14-71.16h6.28v71.16Zm7.24-72.16L749.5,327v61.67Zm-29.71,0h-1.92l20.75-38.25,2.19-3.8Zm-3.83,1H710l-38.61,71.16h-2.6l6.86-12.06ZM585.57,605.17h-.22L599.9,580Zm-.56,1-40.47,71.16h-.85l41.09-71.16Zm-41,72.16L503.51,749.5H502l41.09-71.17Zm-41,72.17-40.47,71.17h-2.12l41.09-71.17Zm-41,72.17-40.47,71.16h-2.75l41.09-71.16Zm-41,72.16L380.4,966H377l41.09-71.17Zm-41,72.17-40.47,71.17h-4L376.44,967Zm-41,72.17-40.47,71.16h-4.65l41.09-71.16Zm332.05,72.16H749.5v70.17H663.83Zm79.64,0h78.64l7,70.17H750.5Zm-457.39,0h4.66l-39.9,70.17H252.6Z"/></svg>